<?xml version="1.0" encoding="UTF-8" standalone="no"?>
<svg xmlns:xlink="http://www.w3.org/1999/xlink" height="239.7px" width="372.5px" xmlns="http://www.w3.org/2000/svg">
  <g transform="matrix(1.0, 0.0, 0.0, 1.0, 160.0, 100.0)">
    <use data-characterId="157" height="100.0" id="m_mask" transform="matrix(3.4198, 0.0, 0.0, 2.3969, -160.0, -100.0)" width="100.0" xlink:href="#sprite0"/>
    <use data-characterId="167" height="131.55" id="m_table" transform="matrix(1.0, 0.0, 0.0, 1.0, -159.25, -99.7)" width="371.75" xlink:href="#sprite1"/>
    <use data-characterId="174" height="206.85" id="m_scrollbar" transform="matrix(1.0, 0.0, 0.0, 1.0, 188.85, -99.9)" width="18.1" xlink:href="#sprite5"/>
    <use data-characterId="176" height="20.0" id="txt_nowloading" transform="matrix(1.0, 0.0, 0.0, 1.0, -31.0, -2.15)" width="104.0" xlink:href="#text3"/>
  </g>
  <defs>
    <g id="sprite0" transform="matrix(1.0, 0.0, 0.0, 1.0, 0.0, 0.0)">
      <use data-characterId="146" height="100.0" transform="matrix(1.0, 0.0, 0.0, 1.0, 0.0, 0.0)" width="100.0" xlink:href="#shape0"/>
    </g>
    <g id="shape0" transform="matrix(1.0, 0.0, 0.0, 1.0, 0.0, 0.0)">
      <path d="M0.0 0.0 L100.0 0.0 100.0 100.0 0.0 100.0 0.0 0.0" fill="#0000ff" fill-rule="evenodd" stroke="none"/>
    </g>
    <g id="sprite1" transform="matrix(1.0, 0.0, 0.0, 1.0, 0.75, 0.0)">
      <use data-characterId="166" height="131.55" id="m_row" transform="matrix(1.0, 0.0, 0.0, 1.0, -0.75, 0.0)" width="371.75" xlink:href="#sprite2"/>
    </g>
    <g id="sprite2" transform="matrix(1.0, 0.0, 0.0, 1.0, 0.75, 0.0)">
      <use data-characterId="159" height="3.7" id="m_line1" transform="matrix(1.0, 0.0, 0.0, 1.0, 4.0, 43.45)" width="367.0" xlink:href="#sprite3"/>
      <use data-characterId="161" height="1.5" id="m_line2" transform="matrix(1.0, -9.0E-4, 0.0014, 1.6669, -0.7511, 129.0505)" width="371.5" xlink:href="#sprite4"/>
      <use data-characterId="163" height="52.9" id="txt_news" transform="matrix(1.0, 0.0, 0.0, 1.0, 4.2, 44.15)" width="334.75" xlink:href="#text0"/>
      <use data-characterId="164" height="20.3" id="txt_time" transform="matrix(1.0, 0.0, 0.0, 1.0, 3.75, 0.0)" width="152.25" xlink:href="#text1"/>
      <use data-characterId="165" height="20.3" id="txt_subject" transform="matrix(1.0, 0.0, 0.0, 1.0, 3.75, 17.0)" width="335.2" xlink:href="#text2"/>
    </g>
    <g id="sprite3" transform="matrix(1.0, 0.0, 0.0, 1.0, -4.0, 1.85)">
      <use data-characterId="158" height="3.7" transform="matrix(1.0, 0.0, 0.0, 1.0, 4.0, -1.85)" width="367.0" xlink:href="#shape1"/>
    </g>
    <g id="shape1" transform="matrix(1.0, 0.0, 0.0, 1.0, -4.0, 1.85)">
      <path d="M5.0 -1.85 Q5.4 -1.85 5.7 -1.5 L6.0 -0.8 5.7 -0.1 5.0 0.15 Q4.6 0.15 4.3 -0.15 4.0 -0.45 4.0 -0.85 4.0 -1.25 4.3 -1.55 4.6 -1.85 5.0 -1.85 M10.0 -1.8 L10.7 -1.5 11.0 -0.8 10.7 -0.1 10.0 0.2 Q9.6 0.2 9.3 -0.1 9.0 -0.4 9.0 -0.8 9.0 -1.2 9.3 -1.5 9.6 -1.8 10.0 -1.8 M15.0 -1.8 L15.7 -1.5 16.0 -0.8 15.7 -0.1 15.0 0.2 Q14.6 0.2 14.3 -0.1 14.0 -0.4 14.0 -0.8 L14.3 -1.5 Q14.6 -1.8 15.0 -1.8 M20.0 -1.75 L20.7 -1.45 21.0 -0.75 20.7 -0.05 20.0 0.25 19.3 -0.05 Q19.0 -0.35 19.0 -0.75 19.0 -1.15 19.3 -1.45 L20.0 -1.75 M40.0 -1.65 L40.7 -1.35 41.0 -0.65 40.7 0.05 40.0 0.35 Q39.6 0.35 39.3 0.05 39.0 -0.25 39.0 -0.65 39.0 -1.05 39.3 -1.35 39.6 -1.65 40.0 -1.65 M35.7 -1.4 L36.0 -0.7 35.7 0.0 35.0 0.3 Q34.6 0.3 34.3 0.0 34.0 -0.3 34.0 -0.7 34.0 -1.1 34.3 -1.4 34.6 -1.7 35.0 -1.7 L35.7 -1.4 M30.7 -1.4 L31.0 -0.7 30.7 0.0 Q30.4 0.3 30.0 0.3 L29.3 0.0 Q29.0 -0.3 29.0 -0.7 29.0 -1.1 29.3 -1.4 L30.0 -1.7 Q30.4 -1.7 30.7 -1.4 M25.7 -1.45 L26.0 -0.75 25.7 -0.05 25.0 0.25 24.3 -0.05 Q24.0 -0.35 24.0 -0.75 24.0 -1.15 24.3 -1.45 L25.0 -1.75 25.7 -1.45 M45.0 -1.65 L45.7 -1.35 46.0 -0.65 45.7 0.05 45.0 0.35 Q44.6 0.35 44.3 0.05 44.0 -0.25 44.0 -0.65 44.0 -1.05 44.3 -1.35 44.6 -1.65 45.0 -1.65 M50.0 -1.6 L50.7 -1.3 51.0 -0.6 50.7 0.1 50.0 0.4 Q49.6 0.4 49.3 0.1 49.0 -0.25 49.0 -0.65 49.0 -1.05 49.3 -1.3 49.6 -1.6 50.0 -1.6 M55.0 -1.6 Q55.4 -1.6 55.7 -1.3 L56.0 -0.6 55.7 0.1 Q55.4 0.4 55.0 0.4 L54.3 0.1 Q54.0 -0.2 54.0 -0.6 54.0 -1.0 54.3 -1.3 L55.0 -1.6 M60.0 -1.6 L60.7 -1.25 61.0 -0.55 60.7 0.15 60.0 0.4 59.3 0.1 Q59.0 -0.2 59.0 -0.6 59.0 -1.0 59.3 -1.3 L60.0 -1.6 M80.7 -1.2 L81.0 -0.5 80.7 0.2 80.0 0.5 Q79.6 0.5 79.3 0.2 79.0 -0.1 79.0 -0.5 79.0 -0.9 79.3 -1.2 79.6 -1.5 80.0 -1.5 L80.7 -1.2 M75.7 -1.2 L76.0 -0.5 75.7 0.2 75.0 0.5 74.3 0.2 Q74.0 -0.1 74.0 -0.5 74.0 -0.9 74.3 -1.2 L75.0 -1.5 75.7 -1.2 M70.7 -1.25 L71.0 -0.5 70.7 0.15 70.0 0.45 Q69.6 0.45 69.3 0.15 69.0 -0.15 69.0 -0.55 69.0 -0.95 69.3 -1.25 69.6 -1.55 70.0 -1.55 L70.7 -1.25 M65.7 -1.25 L66.0 -0.55 65.7 0.15 65.0 0.45 Q64.6 0.45 64.3 0.15 64.0 -0.15 64.0 -0.55 64.0 -0.95 64.3 -1.25 64.6 -1.55 65.0 -1.55 L65.7 -1.25 M85.0 -1.45 L85.7 -1.15 86.0 -0.45 85.7 0.25 85.0 0.55 Q84.6 0.55 84.3 0.25 84.0 -0.05 84.0 -0.45 84.0 -0.85 84.3 -1.15 84.6 -1.45 85.0 -1.45 M90.0 -1.45 Q90.4 -1.45 90.7 -1.15 L91.0 -0.45 90.7 0.25 Q90.4 0.55 90.0 0.55 L89.3 0.25 Q89.0 -0.05 89.0 -0.45 L89.3 -1.15 90.0 -1.45 M95.0 -1.4 L95.7 -1.1 96.0 -0.4 95.7 0.3 95.0 0.6 Q94.6 0.6 94.3 0.3 94.0 0.0 94.0 -0.4 94.0 -0.8 94.3 -1.1 94.6 -1.4 95.0 -1.4 M100.0 -1.4 L100.7 -1.1 101.0 -0.4 100.7 0.3 100.0 0.6 99.3 0.3 Q99.0 0.0 99.0 -0.4 99.0 -0.8 99.3 -1.1 L100.0 -1.4 M120.7 -1.0 L121.0 -0.3 120.7 0.4 120.0 0.7 Q119.6 0.7 119.3 0.4 L119.0 -0.3 119.3 -1.0 Q119.6 -1.3 120.0 -1.3 L120.7 -1.0 M115.7 -1.0 L116.0 -0.3 115.7 0.4 115.0 0.7 114.3 0.35 Q114.0 0.05 114.0 -0.35 114.0 -0.75 114.3 -1.05 114.6 -1.35 115.0 -1.3 L115.7 -1.0 M110.7 -1.05 L111.0 -0.35 110.7 0.35 110.0 0.65 Q109.6 0.65 109.3 0.35 109.0 0.05 109.0 -0.35 109.0 -0.75 109.3 -1.05 109.6 -1.35 110.0 -1.35 L110.7 -1.05 M105.7 -1.05 L106.0 -0.35 105.7 0.35 105.0 0.65 104.3 0.35 Q104.0 0.05 104.0 -0.35 104.0 -0.75 104.3 -1.05 L105.0 -1.35 105.7 -1.05 M125.0 -1.3 Q125.4 -1.3 125.7 -0.95 L126.0 -0.25 125.7 0.45 125.0 0.7 124.3 0.4 Q124.0 0.1 124.0 -0.3 124.0 -0.7 124.3 -1.0 L125.0 -1.3 M130.0 -1.25 L130.7 -0.95 131.0 -0.25 130.7 0.45 130.0 0.75 129.3 0.45 Q129.0 0.15 129.0 -0.25 129.0 -0.65 129.3 -0.95 L130.0 -1.25 M135.0 -1.25 Q135.4 -1.25 135.7 -0.95 L136.0 -0.25 135.7 0.45 Q135.4 0.75 135.0 0.75 L134.3 0.45 Q134.0 0.15 134.0 -0.25 134.0 -0.65 134.3 -0.95 L135.0 -1.25 M140.0 -1.2 L140.7 -0.9 141.0 -0.2 140.7 0.5 140.0 0.8 Q139.6 0.8 139.3 0.5 139.0 0.2 139.0 -0.2 139.0 -0.6 139.3 -0.9 139.6 -1.2 140.0 -1.2 M160.7 -0.8 L161.0 -0.1 160.7 0.6 Q160.4 0.9 160.0 0.9 L159.3 0.6 Q159.0 0.3 159.0 -0.1 159.0 -0.5 159.3 -0.8 L160.0 -1.1 Q160.4 -1.1 160.7 -0.8 M155.7 -0.85 L156.0 -0.15 155.7 0.55 155.0 0.85 Q154.6 0.85 154.3 0.55 154.0 0.25 154.0 -0.15 154.0 -0.55 154.3 -0.85 154.6 -1.15 155.0 -1.15 L155.7 -0.85 M150.7 -0.85 L151.0 -0.15 150.7 0.55 150.0 0.85 Q149.6 0.85 149.3 0.55 149.0 0.25 149.0 -0.15 149.0 -0.55 149.3 -0.85 149.6 -1.15 150.0 -1.15 L150.7 -0.85 M145.7 -0.9 L146.0 -0.2 145.7 0.5 145.0 0.8 Q144.6 0.8 144.3 0.5 144.0 0.2 144.0 -0.2 144.0 -0.6 144.3 -0.9 144.6 -1.2 145.0 -1.2 L145.7 -0.9 M165.0 -1.1 Q165.4 -1.1 165.7 -0.8 L166.0 -0.1 165.7 0.6 Q165.4 0.9 165.0 0.9 L164.3 0.6 Q164.0 0.3 164.0 -0.1 164.0 -0.5 164.3 -0.8 L165.0 -1.1 M170.0 -1.05 L170.7 -0.75 171.0 -0.05 170.7 0.65 170.0 0.95 Q169.6 0.95 169.3 0.6 169.0 0.3 169.0 -0.1 169.0 -0.5 169.3 -0.8 L170.0 -1.05 M175.0 -1.05 L175.7 -0.75 176.0 -0.05 175.7 0.65 175.0 0.95 Q174.6 0.95 174.3 0.65 174.0 0.35 174.0 -0.05 174.0 -0.45 174.3 -0.75 174.6 -1.05 175.0 -1.05 M180.0 -1.05 L180.7 -0.7 181.0 0.0 180.7 0.7 180.0 0.95 179.3 0.65 Q179.0 0.35 179.0 -0.05 179.0 -0.45 179.3 -0.75 L180.0 -1.05 M200.7 -0.65 L201.0 0.05 200.7 0.75 200.0 1.05 Q199.6 1.05 199.3 0.75 199.0 0.45 199.0 0.05 199.0 -0.35 199.3 -0.65 199.6 -0.95 200.0 -0.95 L200.7 -0.65 M195.7 -0.65 L196.0 0.05 195.7 0.75 Q195.4 1.05 195.0 1.05 L194.3 0.75 194.0 0.05 194.3 -0.65 195.0 -0.95 Q195.4 -0.95 195.7 -0.65 M190.7 -0.7 L191.0 0.0 190.7 0.7 190.0 1.0 Q189.6 1.0 189.3 0.7 189.0 0.4 189.0 0.0 189.0 -0.4 189.3 -0.7 189.6 -1.0 190.0 -1.0 L190.7 -0.7 M185.7 -0.7 L186.0 0.0 185.7 0.7 185.0 1.0 Q184.6 1.0 184.3 0.7 184.0 0.4 184.0 0.0 184.0 -0.4 184.3 -0.7 184.6 -1.0 185.0 -1.0 L185.7 -0.7 M205.0 -0.9 L205.7 -0.6 206.0 0.1 205.7 0.8 205.0 1.1 204.3 0.8 Q204.0 0.5 204.0 0.1 204.0 -0.3 204.3 -0.6 L205.0 -0.9 M210.0 -0.9 L210.7 -0.6 211.0 0.1 210.7 0.8 210.0 1.1 209.3 0.8 Q209.0 0.5 209.0 0.1 209.0 -0.3 209.3 -0.6 L210.0 -0.9 M215.0 -0.85 L215.7 -0.55 216.0 0.15 215.7 0.85 215.0 1.15 Q214.6 1.15 214.3 0.85 214.0 0.55 214.0 0.15 214.0 -0.25 214.3 -0.55 214.6 -0.85 215.0 -0.85 M220.0 -0.85 L220.7 -0.55 221.0 0.15 220.7 0.85 220.0 1.15 Q219.6 1.15 219.3 0.85 219.0 0.55 219.0 0.15 219.0 -0.25 219.3 -0.55 219.6 -0.85 220.0 -0.85 M240.7 -0.45 L241.0 0.25 240.7 0.95 Q240.4 1.25 240.0 1.25 L239.3 0.95 Q239.0 0.65 239.0 0.25 239.0 -0.15 239.3 -0.45 L240.0 -0.75 Q240.4 -0.75 240.7 -0.45 M235.7 -0.45 L236.0 0.25 235.7 0.95 235.0 1.25 234.3 0.9 Q234.0 0.6 234.0 0.2 234.0 -0.2 234.3 -0.5 234.6 -0.8 235.0 -0.75 L235.7 -0.45 M230.7 -0.5 L231.0 0.2 230.7 0.9 230.0 1.2 229.3 0.9 Q229.0 0.6 229.0 0.2 229.0 -0.2 229.3 -0.5 L230.0 -0.8 230.7 -0.5 M225.7 -0.5 L226.0 0.2 225.7 0.9 225.0 1.2 Q224.6 1.2 224.3 0.9 L224.0 0.2 224.3 -0.5 Q224.6 -0.8 225.0 -0.8 L225.7 -0.5 M245.0 -0.75 L245.7 -0.45 246.0 0.3 245.7 0.95 245.0 1.25 Q244.6 1.25 244.3 0.95 244.0 0.65 244.0 0.25 244.0 -0.15 244.3 -0.45 244.6 -0.75 245.0 -0.75 M250.0 -0.7 L250.7 -0.4 251.0 0.3 250.7 1.0 250.0 1.3 Q249.6 1.3 249.3 1.0 249.0 0.7 249.0 0.3 249.0 -0.1 249.3 -0.4 249.6 -0.7 250.0 -0.7 M255.0 -0.7 L255.7 -0.4 256.0 0.3 255.7 1.0 255.0 1.3 Q254.6 1.3 254.3 1.0 254.0 0.7 254.0 0.3 254.0 -0.1 254.3 -0.4 254.6 -0.7 255.0 -0.7 M260.0 -0.65 L260.7 -0.35 261.0 0.35 260.7 1.05 260.0 1.35 Q259.6 1.35 259.3 1.05 259.0 0.75 259.0 0.35 259.0 -0.05 259.3 -0.35 259.6 -0.65 260.0 -0.65 M280.7 -0.25 L281.0 0.45 280.7 1.15 280.0 1.45 Q279.6 1.45 279.3 1.15 279.0 0.85 279.0 0.45 279.0 0.05 279.3 -0.25 279.6 -0.55 280.0 -0.55 L280.7 -0.25 M275.7 -0.3 L276.0 0.4 275.7 1.1 275.0 1.4 Q274.6 1.4 274.3 1.1 274.0 0.8 274.0 0.4 274.0 0.0 274.3 -0.3 274.6 -0.6 275.0 -0.6 L275.7 -0.3 M270.7 -0.3 L271.0 0.4 270.7 1.1 Q270.4 1.4 270.0 1.4 L269.3 1.1 Q269.0 0.8 269.0 0.4 269.0 0.0 269.3 -0.3 L270.0 -0.6 Q270.4 -0.6 270.7 -0.3 M265.7 -0.35 L266.0 0.35 265.7 1.05 Q265.4 1.35 265.0 1.35 L264.3 1.05 Q264.0 0.75 264.0 0.35 264.0 -0.05 264.3 -0.35 L265.0 -0.65 Q265.4 -0.65 265.7 -0.35 M285.0 -0.55 L285.7 -0.25 286.0 0.45 285.7 1.15 285.0 1.45 284.3 1.15 Q284.0 0.85 284.0 0.45 284.0 0.05 284.3 -0.25 L285.0 -0.55 M290.0 -0.5 L290.7 -0.2 291.0 0.5 290.7 1.2 290.0 1.5 Q289.6 1.5 289.3 1.15 289.0 0.85 289.0 0.45 289.0 0.05 289.3 -0.25 L290.0 -0.5 M295.0 -0.5 L295.7 -0.2 296.0 0.5 295.7 1.2 295.0 1.5 Q294.6 1.5 294.3 1.2 294.0 0.9 294.0 0.5 294.0 0.1 294.3 -0.2 294.6 -0.5 295.0 -0.5 M300.0 -0.5 L300.7 -0.15 301.0 0.55 300.7 1.25 300.0 1.5 299.3 1.2 299.0 0.5 Q299.0 0.1 299.3 -0.2 L300.0 -0.5 M320.7 -0.1 L321.0 0.6 320.7 1.3 320.0 1.6 Q319.6 1.6 319.3 1.3 319.0 1.0 319.0 0.6 319.0 0.2 319.3 -0.1 319.6 -0.4 320.0 -0.4 L320.7 -0.1 M315.7 -0.1 L316.0 0.6 315.7 1.3 315.0 1.6 314.3 1.3 Q314.0 1.0 314.0 0.6 314.0 0.2 314.3 -0.1 L315.0 -0.4 315.7 -0.1 M310.7 -0.15 L311.0 0.55 310.7 1.25 310.0 1.55 309.3 1.25 Q309.0 0.95 309.0 0.55 309.0 0.15 309.3 -0.15 L310.0 -0.45 310.7 -0.15 M305.7 -0.15 L306.0 0.55 305.7 1.25 305.0 1.55 Q304.6 1.55 304.3 1.25 304.0 0.95 304.0 0.55 304.0 0.15 304.3 -0.15 304.6 -0.45 305.0 -0.45 L305.7 -0.15 M325.0 -0.35 L325.7 -0.05 326.0 0.65 325.7 1.35 325.0 1.65 Q324.6 1.65 324.3 1.35 324.0 1.05 324.0 0.65 324.0 0.25 324.3 -0.05 324.6 -0.35 325.0 -0.35 M330.0 -0.35 L330.7 -0.05 331.0 0.65 330.7 1.35 330.0 1.65 Q329.6 1.65 329.3 1.35 L329.0 0.65 Q329.0 0.25 329.3 -0.05 329.6 -0.35 330.0 -0.35 M335.0 -0.3 L335.7 0.0 336.0 0.7 335.7 1.4 335.0 1.7 334.3 1.4 Q334.0 1.1 334.0 0.7 334.0 0.3 334.3 0.0 L335.0 -0.3 M340.0 -0.3 L340.7 0.0 341.0 0.7 340.7 1.4 340.0 1.7 339.3 1.4 Q339.0 1.1 339.0 0.7 339.0 0.3 339.3 0.0 L340.0 -0.3 M360.7 0.1 L361.0 0.8 360.7 1.5 360.0 1.8 Q359.6 1.8 359.3 1.5 359.0 1.2 359.0 0.8 359.0 0.4 359.3 0.1 359.6 -0.2 360.0 -0.2 L360.7 0.1 M355.7 0.1 L356.0 0.8 355.7 1.5 355.0 1.8 354.3 1.45 Q354.0 1.15 354.0 0.75 354.0 0.35 354.3 0.05 354.6 -0.25 355.0 -0.2 L355.7 0.1 M350.7 0.05 L351.0 0.75 350.7 1.45 350.0 1.75 Q349.6 1.75 349.3 1.45 349.0 1.15 349.0 0.75 349.0 0.35 349.3 0.05 349.6 -0.25 350.0 -0.25 L350.7 0.05 M345.7 0.05 L346.0 0.75 345.7 1.45 Q345.4 1.75 345.0 1.75 L344.3 1.45 344.0 0.7 Q344.0 0.3 344.3 0.05 L345.0 -0.25 Q345.4 -0.25 345.7 0.05 M365.7 0.1 L366.0 0.85 365.7 1.5 365.0 1.8 Q364.6 1.8 364.3 1.5 364.0 1.2 364.0 0.8 364.0 0.4 364.3 0.1 364.6 -0.2 365.0 -0.2 L365.7 0.1 M370.0 -0.15 Q370.4 -0.15 370.7 0.15 L371.0 0.85 370.7 1.55 Q370.4 1.85 370.0 1.85 L369.3 1.55 Q369.0 1.25 369.0 0.85 369.0 0.45 369.3 0.15 L370.0 -0.15" fill="#666666" fill-rule="evenodd" stroke="none"/>
    </g>
    <g id="sprite4" transform="matrix(1.0, 0.0, 0.0, 1.0, 0.75, 0.75)">
      <use data-characterId="160" height="1.5" transform="matrix(1.0, 0.0, 0.0, 1.0, -0.75, -0.75)" width="371.5" xlink:href="#shape2"/>
    </g>
    <g id="shape2" transform="matrix(1.0, 0.0, 0.0, 1.0, 0.75, 0.75)">
      <path d="M0.0 0.0 L370.0 0.0" fill="none" stroke="#333333" stroke-linecap="round" stroke-linejoin="round" stroke-width="1.5"/>
    </g>
    <g id="sprite5" transform="matrix(1.0, 0.0, 0.0, 1.0, 9.0, 23.0)">
      <use data-characterId="168" height="206.85" transform="matrix(1.0, 0.0, 0.0, 1.0, -9.0, -23.0)" width="18.1" xlink:href="#shape3"/>
      <use data-characterId="170" height="13.75" transform="matrix(0.9986, -0.0523, 0.0523, 0.9986, -7.2491, -20.5821)" width="13.75" xlink:href="#button0"/>
      <use data-characterId="171" height="13.75" transform="matrix(-0.9986, 0.0523, -0.0523, -0.9986, 7.3491, 181.1321)" width="13.75" xlink:href="#button1"/>
      <use data-characterId="173" height="12.9" id="m_bar" transform="matrix(0.9986, -0.0531, 0.0523, 1.0132, -8.1242, -6.0703)" width="15.75" xlink:href="#sprite6"/>
    </g>
    <g id="shape3" transform="matrix(1.0, 0.0, 0.0, 1.0, 9.0, 23.0)">
      <path d="M2.85 -13.1 L2.85 176.85 -2.15 176.85 -2.15 -13.1 2.85 -13.1" fill="#626262" fill-rule="evenodd" stroke="none"/>
      <path d="M0.45 -5.0 Q-2.1 -4.9 -4.15 -6.0 -6.25 -7.1 -7.55 -9.05 -8.85 -11.0 -9.0 -13.55 -9.15 -16.05 -8.05 -18.15 -6.95 -20.25 -5.0 -21.5 -3.05 -22.85 -0.5 -23.0 2.0 -23.1 4.1 -22.0 6.15 -20.9 7.5 -18.95 8.8 -17.0 9.0 -14.5 9.05 -12.0 7.95 -9.9 6.85 -7.8 4.9 -6.5 2.95 -5.2 0.45 -5.0" fill="#999999" fill-rule="evenodd" stroke="none"/>
      <path d="M7.0 169.2 Q8.55 171.0 9.0 173.45 9.35 175.9 8.5 178.1 7.65 180.25 5.85 181.8 4.0 183.3 1.55 183.75 -0.95 184.1 -3.15 183.25 -5.4 182.4 -6.9 180.65 -8.45 178.85 -8.85 176.4 -9.25 173.9 -8.35 171.75 -7.55 169.55 -5.7 168.05 -3.9 166.55 -1.45 166.1 1.05 165.75 3.25 166.6 5.45 167.4 7.0 169.2" fill="#999999" fill-rule="evenodd" stroke="none"/>
    </g>
    <g id="button0" transform="matrix(1.0, 0.0, 0.0, 1.0, 6.85, 6.85)">
      <use data-characterId="169" height="13.75" transform="matrix(1.0, 0.0, 0.0, 1.0, -6.85, -6.85)" width="13.75" xlink:href="#shape4"/>
    </g>
    <g id="shape4" transform="matrix(1.0, 0.0, 0.0, 1.0, 6.85, 6.85)">
      <path d="M5.95 -3.45 Q6.85 -1.9 6.9 0.0 6.85 1.9 5.95 3.5 5.0 5.0 3.5 5.95 1.95 6.85 0.0 6.9 -1.9 6.85 -3.45 5.95 -5.0 5.0 -5.9 3.5 -6.85 1.95 -6.85 0.0 -6.85 -1.9 -5.9 -3.45 -5.0 -5.0 -3.45 -5.9 -1.9 -6.85 0.0 -6.85 1.9 -6.85 3.5 -5.9 5.0 -5.0 5.95 -3.45" fill="#cccccc" fill-rule="evenodd" stroke="none"/>
      <path d="M3.95 3.95 L3.45 3.6 2.2 2.9 Q1.4 2.5 0.5 2.35 L-1.45 2.4 Q-2.4 2.55 -3.0 2.8 L-3.7 3.05 0.5 -4.25 3.95 3.95" fill="#000000" fill-rule="evenodd" stroke="none"/>
    </g>
    <g id="button1" transform="matrix(1.0, 0.0, 0.0, 1.0, 6.85, 6.85)">
      <use data-characterId="169" height="13.75" transform="matrix(1.0, 0.0, 0.0, 1.0, -6.85, -6.85)" width="13.75" xlink:href="#shape4"/>
    </g>
    <g id="sprite6" transform="matrix(1.0, 0.0, 0.0, 1.0, 7.8, 6.4)">
      <use data-characterId="172" height="12.9" transform="matrix(1.0, 0.0, 0.0, 1.0, -7.8, -6.4)" width="15.75" xlink:href="#shape5"/>
    </g>
    <g id="shape5" transform="matrix(1.0, 0.0, 0.0, 1.0, 7.8, 6.4)">
      <path d="M2.25 -5.8 L5.15 -6.35 6.9 -6.25 Q7.45 -5.9 7.7 -4.65 L7.95 -1.7 7.55 1.65 Q7.25 3.35 6.65 4.65 6.1 5.9 5.3 6.35 4.45 6.7 2.9 6.35 L-0.5 5.15 Q-2.3 4.3 -4.0 3.25 L-6.75 1.2 Q-7.8 0.15 -7.8 -0.6 -7.8 -1.2 -6.85 -1.9 L-4.4 -3.35 -1.15 -4.7 2.25 -5.8" fill="#999999" fill-rule="evenodd" stroke="none"/>
      <path d="M4.55 -4.95 Q4.9 -4.7 5.1 -3.8 L5.3 -1.65 5.0 0.8 4.4 3.0 3.4 4.2 Q2.8 4.45 1.65 4.2 L-0.75 3.35 -3.35 1.95 -5.35 0.45 Q-6.1 -0.35 -6.15 -0.85 -6.1 -1.4 -5.15 -2.0 L-2.75 -3.25 0.2 -4.35 2.95 -5.0 4.55 -4.95" fill="#cccccc" fill-rule="evenodd" stroke="none"/>
    </g>
    <g id="text3" transform="matrix(1.0, 0.0, 0.0, 1.0, 2.0, 2.0)">
      <g transform="matrix(1.0, 0.0, 0.0, 1.0, -2.0, -2.0)">
        <use fill="#999999" height="20.0" transform="matrix(0.0127, 0.0, 0.0, 0.0127, 19.5, 11.2)" width="104.0" xlink:href="#font______________0"/>
        <use fill="#999999" height="20.0" transform="matrix(0.0127, 0.0, 0.0, 0.0127, 32.5, 11.2)" width="104.0" xlink:href="#font______________1"/>
        <use fill="#999999" height="20.0" transform="matrix(0.0127, 0.0, 0.0, 0.0127, 45.5, 11.2)" width="104.0" xlink:href="#font______________2"/>
        <use fill="#999999" height="20.0" transform="matrix(0.0127, 0.0, 0.0, 0.0127, 58.5, 11.2)" width="104.0" xlink:href="#font______________1"/>
        <use fill="#999999" height="20.0" transform="matrix(0.0127, 0.0, 0.0, 0.0127, 71.5, 11.2)" width="104.0" xlink:href="#font______________3"/>
      </g>
    </g>
    <g id="font______________0">
      <path d="M447.5 -781.5 L447.5 -781.5 Q415.0 -781.5 399.5 -765.0 384.0 -750.5 384.0 -708.5 384.0 -666.5 399.5 -651.0 416.0 -633.0 447.5 -633.0 L560.0 -633.0 560.0 -613.5 468.0 -613.5 Q436.5 -613.5 422.0 -598.0 407.5 -584.5 407.5 -544.5 407.5 -505.0 422.0 -489.5 437.5 -473.0 468.0 -473.0 L879.5 -473.0 Q913.5 -473.0 929.0 -495.5 940.0 -512.0 940.0 -544.5 940.0 -584.5 927.0 -598.0 912.5 -613.5 879.5 -613.5 L772.0 -613.5 772.0 -633.0 907.5 -633.0 Q943.0 -633.0 960.5 -657.5 972.0 -674.0 972.0 -708.5 972.0 -751.5 958.5 -765.0 943.0 -781.5 907.5 -781.5 L765.0 -781.5 Q759.0 -800.5 746.5 -813.0 726.0 -837.5 663.5 -837.5 605.0 -837.5 583.5 -812.0 571.5 -800.5 566.5 -781.5 L447.5 -781.5 M215.0 -45.0 L215.0 -45.0 Q195.5 -45.0 195.5 -64.5 L195.5 -101.5 Q195.5 -121.0 215.0 -121.0 L219.0 -121.0 Q239.5 -121.0 239.5 -101.5 L239.5 -64.5 Q239.5 -45.0 219.0 -45.0 L215.0 -45.0 M131.0 -253.0 L131.0 -253.0 Q55.5 -253.0 55.5 -177.0 L55.5 11.5 Q55.5 87.0 131.0 87.0 L303.0 87.0 Q366.5 87.0 377.0 35.0 383.0 45.0 393.0 54.5 430.0 93.0 479.5 95.5 495.5 95.5 521.0 75.0 560.0 44.0 590.0 -8.0 620.5 -62.5 633.0 -140.5 640.0 -181.0 640.0 -209.0 640.0 -243.5 620.5 -256.0 598.0 -275.5 556.0 -277.5 549.0 -276.5 544.0 -276.5 L544.0 -297.0 Q544.0 -317.5 563.0 -317.5 L779.5 -317.5 Q804.0 -317.5 804.0 -297.0 L804.0 -248.0 Q799.0 -254.0 792.5 -258.0 770.0 -273.5 735.5 -273.5 695.5 -273.5 676.0 -258.0 655.5 -237.5 655.5 -213.0 L655.5 -24.5 Q655.5 36.0 680.0 60.5 708.5 91.0 772.0 91.0 L848.0 91.0 Q930.0 83.0 959.5 34.0 988.0 -13.5 988.0 -85.0 986.0 -113.5 968.5 -129.0 946.0 -143.5 915.5 -145.5 870.5 -141.5 860.0 -116.5 855.0 -93.0 849.0 -84.0 843.0 -72.5 831.5 -72.5 L827.5 -72.5 Q816.0 -72.5 816.0 -85.0 L816.0 -207.0 Q817.0 -206.0 818.0 -203.5 839.5 -189.5 888.0 -189.5 928.0 -189.5 949.5 -205.0 972.0 -218.0 972.0 -253.0 L972.0 -324.5 Q972.0 -452.5 875.5 -452.5 L472.0 -452.5 Q376.0 -452.5 376.0 -324.5 L376.0 -249.0 Q376.0 -218.0 397.5 -200.5 417.0 -185.5 460.0 -185.5 470.0 -185.5 479.5 -185.5 472.0 -142.5 460.0 -115.5 441.5 -79.0 395.5 -53.0 387.0 -48.0 380.0 -41.0 L380.0 -177.0 Q380.0 -253.0 303.0 -253.0 L131.0 -253.0 M120.0 -389.0 L120.0 -389.0 Q92.0 -389.0 80.0 -377.0 67.5 -365.5 67.5 -333.0 67.5 -299.0 80.0 -286.5 93.0 -273.5 120.0 -273.5 L315.5 -273.5 Q344.0 -273.5 358.5 -292.0 367.5 -305.0 367.5 -333.0 367.5 -365.5 356.5 -377.0 344.0 -389.0 315.5 -389.0 L120.0 -389.0 M120.0 -525.5 L120.0 -525.5 Q92.0 -525.5 80.0 -513.0 67.5 -501.5 67.5 -469.0 67.5 -435.0 80.0 -423.0 93.0 -408.5 120.0 -408.5 L319.5 -408.5 Q348.0 -408.5 362.5 -428.0 371.5 -441.5 371.5 -469.0 371.5 -501.5 360.5 -513.0 348.0 -525.5 319.5 -525.5 L120.0 -525.5 M107.5 -677.0 L107.5 -677.0 Q78.0 -677.0 64.5 -662.5 51.0 -650.0 51.0 -613.5 51.0 -575.5 64.5 -561.0 80.0 -544.5 107.5 -544.5 L336.0 -544.5 Q366.5 -544.5 381.0 -567.5 391.0 -581.5 391.0 -613.5 391.0 -650.0 379.0 -662.5 365.5 -677.0 336.0 -677.0 L107.5 -677.0 M124.0 -817.0 L124.0 -817.0 Q97.5 -817.0 86.0 -806.0 71.5 -792.5 71.5 -756.5 71.5 -723.0 86.0 -710.5 100.5 -697.5 124.0 -697.5 L323.5 -697.5 Q354.5 -697.5 367.5 -715.5 376.0 -727.0 376.0 -756.5 376.0 -794.5 361.5 -805.0 349.0 -817.0 323.5 -817.0 L124.0 -817.0" fill-rule="evenodd" stroke="none"/>
    </g>
    <g id="font______________1">
      <path d="M338.0 -288.5 L338.0 -288.5 Q328.5 -267.0 294.0 -219.0 258.0 -172.0 241.5 -164.0 239.5 -162.0 236.5 -162.0 226.5 -162.0 217.0 -172.0 208.0 -181.0 208.0 -195.5 208.0 -213.0 220.0 -229.5 265.0 -292.0 315.5 -292.0 326.5 -292.0 338.0 -288.5 M998.5 -234.5 L998.5 -234.5 Q998.5 -301.0 892.0 -343.0 907.5 -412.5 907.5 -471.0 907.5 -575.5 802.0 -575.5 762.0 -575.5 732.0 -555.0 701.5 -534.5 700.5 -500.5 700.5 -461.0 692.5 -412.5 627.5 -436.0 600.0 -442.5 636.0 -542.5 657.5 -632.0 663.5 -653.5 663.5 -674.0 663.5 -727.0 630.0 -761.0 596.0 -794.5 547.0 -791.5 290.0 -771.0 243.5 -770.0 205.0 -769.0 182.5 -742.5 161.0 -715.5 161.0 -680.0 161.0 -639.0 184.5 -611.5 212.0 -579.5 259.0 -581.5 381.0 -594.0 441.5 -601.0 407.5 -489.5 400.5 -473.0 237.5 -473.0 151.5 -414.5 24.5 -325.5 27.5 -176.0 28.5 -105.5 76.0 -52.0 129.0 7.0 216.0 7.0 331.0 7.0 413.5 -77.0 463.0 -127.0 533.5 -253.0 592.0 -236.5 648.0 -208.0 622.5 -149.5 536.5 -66.5 505.0 -36.0 505.0 -8.0 505.0 35.0 539.5 65.5 574.5 97.5 623.5 97.5 662.5 97.5 694.5 71.5 780.5 2.0 847.0 -136.0 878.5 -117.5 904.0 -117.5 944.0 -117.5 973.0 -157.5 998.5 -193.5 998.5 -234.5" fill-rule="evenodd" stroke="none"/>
    </g>
    <g id="font______________2">
      <path d="M472.0 -805.0 L472.0 -805.0 Q431.0 -805.0 416.0 -783.5 393.0 -759.0 391.0 -712.5 393.0 -670.5 411.5 -648.0 431.0 -621.5 472.0 -621.5 L529.5 -621.5 Q506.0 -528.5 481.5 -472.0 455.5 -407.5 386.0 -296.0 371.5 -274.5 371.5 -253.0 371.5 -209.0 403.5 -183.5 448.5 -145.5 487.5 -145.5 531.5 -148.5 567.5 -185.5 608.5 -253.0 648.0 -368.5 662.5 -414.5 674.0 -459.5 688.0 -408.5 706.5 -362.5 762.0 -240.5 819.0 -177.0 848.0 -147.5 871.5 -145.5 922.5 -146.5 962.5 -188.5 994.5 -222.0 995.5 -269.5 995.5 -298.0 967.5 -324.5 903.0 -400.5 870.5 -483.5 839.5 -561.0 823.5 -701.5 808.0 -805.0 688.0 -805.0 L472.0 -805.0 M124.0 -493.5 L124.0 -493.5 Q84.0 -493.5 66.5 -472.0 47.0 -447.5 47.0 -401.5 47.0 -352.0 64.5 -335.0 80.0 -309.0 124.0 -309.0 L147.5 -309.0 Q164.0 -309.0 164.0 -288.5 L164.0 -196.5 Q164.0 -182.0 148.5 -168.0 107.5 -127.0 68.5 -91.0 43.0 -63.5 43.0 -37.0 43.0 9.0 71.5 43.0 115.5 91.0 164.0 91.0 200.5 91.0 259.0 21.5 269.5 7.0 275.5 7.0 285.5 7.0 295.0 21.5 377.0 79.0 572.5 79.0 L875.5 79.0 Q943.0 79.0 970.0 44.0 995.5 13.5 995.5 -49.0 995.5 -82.0 973.0 -105.5 955.5 -125.0 928.0 -125.0 860.0 -125.0 764.0 -119.0 654.5 -112.5 525.5 -112.5 437.5 -112.5 387.0 -139.0 355.5 -153.5 355.5 -189.5 L355.5 -372.5 Q355.5 -493.5 231.5 -493.5 L124.0 -493.5 M199.5 -813.0 L199.5 -813.0 Q157.5 -813.0 115.5 -792.5 71.5 -767.0 71.5 -733.0 75.0 -721.0 87.0 -696.5 108.5 -653.5 140.5 -589.0 156.5 -546.0 195.5 -540.5 242.5 -540.5 290.0 -570.5 332.0 -592.0 332.0 -633.0 332.0 -687.0 278.5 -768.0 247.0 -813.0 199.5 -813.0" fill-rule="evenodd" stroke="none"/>
    </g>
    <g id="font______________3">
      <path d="M303.0 -313.5 L303.0 -313.5 Q279.5 -313.5 279.5 -337.0 L279.5 -489.5 Q279.5 -513.0 303.0 -513.0 L399.5 -513.0 399.5 -313.5 303.0 -313.5 M623.5 -313.5 L623.5 -313.5 623.5 -513.0 728.0 -513.0 Q751.5 -513.0 751.5 -489.5 L751.5 -337.0 Q751.5 -313.5 728.0 -313.5 L623.5 -313.5 M215.0 -697.5 L215.0 -697.5 Q71.5 -697.5 71.5 -553.0 L71.5 -273.5 Q71.5 -129.0 215.0 -129.0 L399.5 -129.0 399.5 7.0 Q399.5 44.0 425.0 67.5 454.5 99.5 512.0 99.5 574.5 99.5 602.0 67.5 623.5 43.0 623.5 7.0 L623.5 -129.0 808.0 -129.0 Q951.5 -129.0 951.5 -273.5 L951.5 -553.0 Q951.5 -697.5 808.0 -697.5 L623.5 -697.5 623.5 -745.5 Q623.5 -788.5 592.0 -812.0 562.0 -837.5 512.0 -837.5 458.0 -837.5 432.0 -812.0 399.5 -788.5 399.5 -745.5 L399.5 -697.5 215.0 -697.5" fill-rule="evenodd" stroke="none"/>
    </g>
  </defs>
</svg>
