<?xml version="1.0" encoding="UTF-8" standalone="no"?>
<svg xmlns:xlink="http://www.w3.org/1999/xlink" height="570.2px" width="515.05px" xmlns="http://www.w3.org/2000/svg">
  <g transform="matrix(1.0, 0.0, 0.0, 1.0, 296.7, 259.8)">
    <use data-characterId="298" height="253.1" transform="matrix(0.6812, 0.0, 0.0, 0.2384, -43.739, 83.5255)" width="253.1" xlink:href="#shape0"/>
  </g>
  <defs>
    <g id="shape0" transform="matrix(1.0, 0.0, 0.0, 1.0, 127.7, 119.85)">
      <path d="M68.0 -99.55 Q78.7 -92.45 88.35 -82.8 125.4 -45.75 125.4 6.7 125.4 59.15 88.35 96.2 78.7 105.85 68.0 113.0 45.65 127.9 18.7 131.85 9.05 133.25 -1.15 133.25 -12.05 133.25 -22.25 131.7 -47.8 127.65 -69.15 113.75 -80.5 106.35 -90.65 96.2 -127.7 59.15 -127.7 6.7 -127.7 -45.75 -90.65 -82.8 -80.5 -92.95 -69.15 -100.3 -47.8 -114.25 -22.25 -118.25 -12.05 -119.85 -1.15 -119.85 9.05 -119.85 18.7 -118.45 45.65 -114.5 68.0 -99.55" fill="url(#gradient0)" fill-rule="evenodd" stroke="none"/>
      <path d="M55.7 -85.6 Q64.3 -79.9 72.1 -72.1 101.95 -42.25 101.95 0.0 101.95 42.25 72.1 72.1 64.3 79.9 55.7 85.65 L55.7 -85.6 M-54.8 86.25 Q-63.9 80.3 -72.1 72.1 -101.95 42.25 -101.95 0.0 -101.95 -42.25 -72.1 -72.1 -63.9 -80.3 -54.8 -86.2 L-54.8 86.25" fill="#1d0a05" fill-rule="evenodd" stroke="none"/>
      <path d="M16.0 -100.8 Q37.7 -97.65 55.7 -85.6 L55.7 85.65 Q37.7 97.65 16.0 100.85 L16.0 -100.8 M-17.0 100.7 Q-37.55 97.45 -54.8 86.25 L-54.8 -86.2 Q-37.55 -97.45 -17.0 -100.65 L-17.0 100.7" fill="#240906" fill-rule="evenodd" stroke="none"/>
      <path d="M-17.0 -100.65 L0.0 -101.95 16.0 -100.8 16.0 100.85 0.0 101.95 -17.0 100.7 -17.0 -100.65" fill="#2b0c09" fill-rule="evenodd" stroke="none"/>
    </g>
    <radialGradient cx="0" cy="0" gradientTransform="matrix(0.1506, 0.0, 0.0, 0.1506, -1.15, 0.0)" gradientUnits="userSpaceOnUse" id="gradient0" r="819.2" spreadMethod="pad">
      <stop offset="0.596078431372549" stop-color="#ffffff"/>
      <stop offset="1.0" stop-color="#ffffff" stop-opacity="0.0"/>
    </radialGradient>
  </defs>
</svg>
