<?xml version="1.0" encoding="UTF-8" standalone="no"?>
<svg xmlns:xlink="http://www.w3.org/1999/xlink" height="570.2px" width="515.05px" xmlns="http://www.w3.org/2000/svg">
  <g transform="matrix(1.0, 0.0, 0.0, 1.0, 296.7, 259.8)">
    <use data-characterId="298" height="253.1" transform="matrix(0.2878, 0.0, 0.0, 0.1007, -21.1977, 48.9301)" width="253.1" xlink:href="#shape0"/>
    <use data-characterId="298" height="253.1" transform="matrix(0.2878, 0.0, 0.0, 0.1007, 29.2023, 57.5801)" width="253.1" xlink:href="#shape0"/>
    <use data-characterId="298" height="253.1" transform="matrix(0.5109, 0.0, 0.0, 0.1788, -115.5913, 48.1705)" width="253.1" xlink:href="#shape0"/>
    <use data-characterId="298" height="253.1" transform="matrix(0.8, 0.0, 0.0, 0.28, -58.9084, 78.544)" width="253.1" xlink:href="#shape0"/>
    <clipPath id="clipPath0" transform="matrix(1.0, 0.0, 0.0, 1.0, 0.0, 0.0)">
      <path d="M100.25 132.05 Q76.35 140.4 42.55 140.45 8.75 140.4 -15.1 132.05 -39.0 123.7 -39.0 111.85 -39.0 100.05 -18.8 38.7 1.4 -22.65 32.95 -55.05 64.5 -87.5 94.3 6.25 124.1 100.0 124.1 111.85 124.1 123.7 100.25 132.05" fill="#000000" fill-rule="evenodd" stroke="none"/>
    </clipPath>
    <g clip-path="url(#clipPath0)">
      <use data-characterId="301" height="210.65" transform="matrix(0.8607, -0.0986, 0.0, 0.9108, -26.1315, -35.6925)" width="147.45" xlink:href="#shape2"/>
    </g>
  </g>
  <defs>
    <g id="shape0" transform="matrix(1.0, 0.0, 0.0, 1.0, 127.7, 119.85)">
      <path d="M68.0 -99.55 Q78.7 -92.45 88.35 -82.8 125.4 -45.75 125.4 6.7 125.4 59.15 88.35 96.2 78.7 105.85 68.0 113.0 45.65 127.9 18.7 131.85 9.05 133.25 -1.15 133.25 -12.05 133.25 -22.25 131.7 -47.8 127.65 -69.15 113.75 -80.5 106.35 -90.65 96.2 -127.7 59.15 -127.7 6.7 -127.7 -45.75 -90.65 -82.8 -80.5 -92.95 -69.15 -100.3 -47.8 -114.25 -22.25 -118.25 -12.05 -119.85 -1.15 -119.85 9.05 -119.85 18.7 -118.45 45.65 -114.5 68.0 -99.55" fill="url(#gradient0)" fill-rule="evenodd" stroke="none"/>
      <path d="M55.7 -85.6 Q64.3 -79.9 72.1 -72.1 101.95 -42.25 101.95 0.0 101.95 42.25 72.1 72.1 64.3 79.9 55.7 85.65 L55.7 -85.6 M-54.8 86.25 Q-63.9 80.3 -72.1 72.1 -101.95 42.25 -101.95 0.0 -101.95 -42.25 -72.1 -72.1 -63.9 -80.3 -54.8 -86.2 L-54.8 86.25" fill="#1d0a05" fill-rule="evenodd" stroke="none"/>
      <path d="M16.0 -100.8 Q37.7 -97.65 55.7 -85.6 L55.7 85.65 Q37.7 97.65 16.0 100.85 L16.0 -100.8 M-17.0 100.7 Q-37.55 97.45 -54.8 86.25 L-54.8 -86.2 Q-37.55 -97.45 -17.0 -100.65 L-17.0 100.7" fill="#240906" fill-rule="evenodd" stroke="none"/>
      <path d="M-17.0 -100.65 L0.0 -101.95 16.0 -100.8 16.0 100.85 0.0 101.95 -17.0 100.7 -17.0 -100.65" fill="#2b0c09" fill-rule="evenodd" stroke="none"/>
    </g>
    <radialGradient cx="0" cy="0" gradientTransform="matrix(0.1506, 0.0, 0.0, 0.1506, -1.15, 0.0)" gradientUnits="userSpaceOnUse" id="gradient0" r="819.2" spreadMethod="pad">
      <stop offset="0.596078431372549" stop-color="#ffffff"/>
      <stop offset="1.0" stop-color="#ffffff" stop-opacity="0.0"/>
    </radialGradient>
    <g id="shape2" transform="matrix(1.0, 0.0, 0.0, 1.0, 73.7, 105.3)">
      <path d="M65.25 87.85 L65.85 88.1 66.75 88.55 67.0 88.7 67.85 89.6 Q68.05 90.05 67.45 90.6 L64.95 91.55 59.4 92.3 50.0 92.8 38.8 93.0 27.85 93.2 17.9 93.35 9.8 93.45 4.35 93.55 2.35 93.55 1.15 94.7 Q-0.05 95.75 -2.85 97.4 -5.65 99.0 -10.4 100.75 -15.15 102.4 -22.25 103.7 -29.3 104.9 -39.0 105.3 -49.95 105.55 -57.35 104.8 -64.75 104.05 -68.75 102.7 -72.75 101.4 -73.5 100.05 -74.3 98.65 -72.0 97.8 L-73.15 97.9 Q-63.9 89.95 -40.9 82.95 L-34.7 81.15 -20.8 80.4 -14.1 80.15 -4.0 79.8 8.55 79.5 22.65 79.3 37.35 79.4 Q42.7 79.45 47.85 79.65 L58.15 83.7 Q62.75 85.5 66.0 87.85 L65.25 87.85" fill="#000000" fill-opacity="0.15294118" fill-rule="evenodd" stroke="none"/>
      <path d="M-18.35 -56.15 L-19.65 -56.4 -17.15 -56.4 -15.3 -56.7 Q-15.45 -55.95 -16.1 -55.4 -16.7 -54.8 -17.65 -54.5 -17.3 -54.95 -17.4 -55.45 -17.55 -55.9 -18.35 -56.15" fill="#b8d2ca" fill-rule="evenodd" stroke="none"/>
      <path d="M-17.75 70.8 Q-15.1 74.25 -13.75 78.35 -12.45 82.4 -12.75 87.15 -12.9 88.75 -13.4 90.05 -14.4 88.5 -15.7 87.25 -17.05 85.95 -19.1 84.7 L-18.9 83.55 Q-16.6 84.35 -15.65 83.6 -14.7 82.85 -14.8 80.9 -14.85 78.95 -15.7 76.35 -16.5 73.7 -17.75 70.8" fill="#bc1d25" fill-rule="evenodd" stroke="none"/>
      <path d="M-63.2 24.05 L-62.4 22.5 -61.75 24.1 -61.15 25.7 -62.15 27.3 -62.65 25.5 -63.2 24.05" fill="#cf8705" fill-rule="evenodd" stroke="none"/>
      <path d="M-4.9 -82.0 L-6.45 -83.0 -8.0 -83.3 Q-8.35 -83.2 -8.55 -82.1 L-8.9 -79.25 -9.1 -75.65 -9.25 -72.1 -9.5 -64.65 -9.5 -64.5 Q-8.4 -65.25 -7.15 -65.55 L-6.25 -74.7 Q-5.75 -78.75 -4.9 -82.0 M31.7 -32.45 Q33.1 -33.65 34.95 -34.2 L29.3 -34.05 22.2 -35.0 22.7 -33.8 23.15 -32.6 23.45 -31.85 Q26.65 -30.8 29.75 -29.2 30.3 -31.25 31.7 -32.45 M38.95 -34.75 L38.95 -34.95 38.1 -34.75 38.95 -34.75 M49.15 -68.35 L49.75 -70.0 Q49.95 -70.8 49.75 -71.15 L48.85 -71.35 47.9 -67.8 47.65 -67.15 47.1 -65.55 46.4 -63.6 45.8 -61.85 45.45 -60.9 46.15 -60.3 47.3 -64.0 48.45 -66.9 49.15 -68.35 M54.9 -72.95 Q55.5 -72.05 55.5 -70.85 55.5 -69.15 54.35 -66.85 53.7 -65.55 53.25 -63.3 52.75 -61.05 52.5 -58.25 52.2 -55.45 52.2 -52.4 52.2 -50.25 52.35 -48.05 52.55 -45.9 52.9 -43.9 54.95 -43.3 56.5 -41.85 59.95 -43.4 63.45 -40.4 L65.45 -38.2 67.25 -34.95 Q68.0 -33.15 68.25 -30.95 69.05 -30.1 69.55 -28.7 L70.1 -25.75 71.8 -21.9 73.2 -17.55 73.75 -13.2 73.6 -11.35 Q73.3 -9.45 71.65 -8.55 70.4 -7.9 68.85 -7.85 L65.65 -8.15 Q64.05 -8.5 62.7 -9.15 L59.85 -10.35 56.35 -11.65 52.8 -12.95 49.65 -14.05 49.35 -14.15 48.7 -14.35 48.25 -13.7 47.85 -13.05 Q53.0 -5.1 54.85 4.95 L55.1 6.4 55.5 8.65 55.9 10.45 56.45 12.2 56.5 12.35 56.3 12.75 55.45 13.2 55.65 15.8 55.75 20.0 55.3 29.7 Q54.85 35.45 53.55 42.7 52.3 49.95 49.85 58.55 49.7 59.05 48.15 59.45 L44.05 60.05 38.35 60.35 31.95 60.1 Q30.85 63.1 29.9 66.05 L28.2 71.85 Q39.6 69.35 47.7 69.8 55.75 70.2 60.4 73.6 62.9 75.5 64.2 77.85 65.55 80.2 66.15 82.7 66.7 85.2 66.85 87.5 L66.7 88.95 Q66.55 89.65 66.05 90.2 65.6 90.7 64.75 90.85 L55.95 91.55 46.05 91.75 35.9 91.55 26.15 91.1 17.65 90.4 11.1 89.7 Q9.75 89.5 9.2 88.65 8.85 88.1 8.85 87.25 8.85 86.25 9.35 84.7 10.2 82.0 11.7 78.6 13.15 75.2 14.9 71.55 L18.45 64.5 21.6 58.5 Q18.45 57.7 15.55 56.7 L2.05 55.95 Q0.6 58.85 -0.3 61.05 L-1.8 65.2 -2.9 69.2 -4.65 78.15 Q-5.25 82.1 -5.35 85.0 L-5.5 89.85 -5.6 92.35 Q-5.65 93.3 -5.85 93.9 -6.35 95.0 -8.55 96.55 -10.75 98.1 -14.65 99.65 -18.55 101.2 -24.05 102.3 -32.65 104.0 -40.15 104.45 L-53.9 104.05 Q-60.15 103.2 -64.95 101.15 -66.45 100.5 -67.3 99.45 -68.2 98.4 -68.6 97.2 L-68.95 94.8 -68.85 93.6 Q-68.0 88.1 -65.55 84.35 -63.1 80.6 -59.5 78.25 -55.9 75.9 -51.55 74.55 -47.15 73.15 -42.45 72.4 L-33.1 71.1 -24.45 69.95 -22.25 69.45 -20.05 68.65 Q-19.05 68.2 -18.65 67.75 L-15.6 63.0 -9.85 53.05 Q-13.5 51.75 -16.3 50.15 -19.15 48.5 -21.0 46.65 -21.5 46.15 -21.45 45.6 -21.45 45.05 -21.05 44.5 L-20.3 43.55 -19.8 42.9 -13.7 33.9 Q-11.05 29.65 -9.15 26.2 L-6.15 20.45 -4.65 17.25 -4.7 15.95 Q-4.7 13.15 -4.15 10.95 -3.55 8.75 -2.45 7.05 -3.15 6.25 -3.2 5.4 -3.15 4.25 -1.95 3.2 L-1.9 3.15 -0.35 2.2 1.7 1.0 3.45 -0.4 4.5 -2.1 4.85 -3.55 5.05 -5.35 5.15 -7.25 2.2 -7.45 Q-0.55 -3.3 -3.9 1.0 -7.3 5.25 -11.05 9.2 L-11.0 10.15 Q-11.0 12.3 -12.0 14.05 -12.95 15.85 -14.85 17.1 L-14.8 17.7 Q-14.85 20.0 -15.5 22.35 -16.3 24.85 -18.0 27.15 -19.7 29.45 -21.8 31.4 L-25.75 34.85 -28.9 37.15 -28.95 37.2 -29.05 37.25 Q-31.65 39.1 -33.95 39.8 L-38.5 40.35 Q-40.65 40.15 -42.85 39.3 L-47.4 37.3 -49.25 37.85 -51.8 38.8 -56.1 40.5 -58.8 41.55 -61.7 42.05 Q-63.2 42.1 -64.7 41.45 -65.9 41.7 -67.05 41.45 -68.25 41.2 -69.15 40.5 L-70.4 39.0 Q-71.0 38.0 -71.1 36.35 L-71.1 35.95 Q-71.05 32.55 -70.0 30.0 -68.9 27.45 -66.95 25.45 -65.05 23.45 -62.5 21.7 L-56.95 18.15 -54.45 16.6 Q-52.55 15.4 -51.9 14.45 -51.2 13.45 -51.25 12.25 L-51.3 11.45 -54.8 11.05 -58.45 10.65 Q-60.2 10.4 -61.5 9.75 -63.7 8.5 -64.75 6.65 -65.8 4.8 -65.75 2.95 -65.75 1.8 -65.4 0.75 -64.8 -0.8 -63.6 -1.5 -62.4 -2.2 -60.8 -1.85 L-56.3 -1.0 -50.65 -0.3 -44.8 0.0 -39.5 -0.45 Q-36.15 -1.05 -33.1 -0.6 -30.05 -0.15 -27.5 1.35 -26.4 0.0 -24.9 -0.7 -23.35 -1.4 -21.6 -1.4 -19.85 -1.45 -18.15 -0.7 -14.45 -3.25 -11.25 -6.1 -8.0 -8.95 -5.1 -12.25 -6.45 -13.6 -7.15 -14.85 -7.85 -16.1 -7.9 -17.1 L-7.9 -17.2 -7.55 -19.1 -6.8 -20.15 -5.65 -20.8 -4.45 -21.45 -3.0 -22.5 -0.2 -25.45 2.35 -28.75 4.6 -32.05 4.65 -32.1 4.65 -32.15 6.65 -34.2 Q7.7 -34.9 8.7 -35.15 L10.6 -35.4 12.95 -35.05 14.75 -34.2 14.3 -35.6 14.05 -36.55 9.35 -36.45 6.95 -36.3 4.8 -36.35 4.7 -36.4 0.6 -36.9 Q-1.45 -37.25 -3.25 -38.2 -5.0 -39.15 -6.05 -41.05 -7.15 -42.95 -7.15 -46.2 L-7.15 -47.25 -9.85 -51.7 -10.25 -47.1 Q-10.55 -44.95 -11.2 -43.1 -12.45 -39.8 -13.85 -37.65 -15.3 -35.55 -16.7 -34.4 -18.1 -33.2 -19.25 -32.7 -20.8 -32.05 -22.4 -31.95 -23.95 -31.85 -25.35 -32.4 -27.0 -33.05 -27.55 -34.4 -27.95 -35.6 -27.6 -37.2 -27.25 -38.8 -26.35 -40.8 L-24.25 -45.1 -22.25 -49.1 Q-21.25 -51.2 -20.35 -53.5 -18.65 -57.85 -17.6 -61.95 -16.6 -66.1 -16.05 -69.95 L-15.1 -77.4 -14.5 -82.1 Q-13.75 -87.5 -10.7 -88.75 -9.2 -89.3 -7.35 -88.8 -5.5 -88.3 -3.45 -86.75 -0.8 -93.75 3.95 -97.1 8.7 -100.5 15.75 -100.3 16.9 -102.05 18.6 -103.25 20.3 -104.45 22.3 -104.95 L26.4 -105.2 Q29.7 -104.75 32.1 -102.7 34.5 -100.6 35.65 -97.25 39.9 -95.65 42.95 -92.65 46.05 -89.6 47.7 -85.5 49.35 -81.4 49.35 -76.6 L49.3 -75.1 Q53.55 -75.05 54.9 -72.95" fill="#ffffff" fill-rule="evenodd" stroke="none"/>
      <path d="M51.45 -20.25 L49.55 -16.75 47.5 -13.45 45.75 -11.4 41.2 -13.9 Q38.85 -15.3 36.75 -16.95 34.7 -18.55 33.2 -20.15 31.75 -21.75 31.25 -23.15 30.75 -24.55 31.6 -25.6 L35.15 -26.75 39.8 -27.45 45.1 -26.9 Q47.85 -26.15 49.45 -25.25 L51.8 -23.65 52.7 -22.85 51.45 -20.25" fill="#72251c" fill-rule="evenodd" stroke="none"/>
      <path d="M69.45 -26.05 Q71.5 -22.0 72.5 -18.2 73.55 -14.45 73.1 -11.45 72.85 -10.0 71.8 -9.25 70.75 -8.5 69.25 -8.4 L66.05 -8.6 Q64.4 -8.95 62.95 -9.6 L59.6 -11.0 55.6 -12.5 51.7 -13.9 48.5 -15.0 Q47.15 -15.45 46.75 -15.65 47.55 -18.3 48.7 -19.9 49.9 -21.45 51.5 -22.4 L53.55 -23.15 57.1 -23.95 61.25 -24.75 65.25 -25.4 68.25 -25.9 69.45 -26.05" fill="#1b2e54" fill-rule="evenodd" stroke="none"/>
      <path d="M68.8 -8.95 L65.75 -9.3 Q64.15 -9.7 62.75 -10.35 L59.7 -11.65 56.0 -13.1 52.25 -14.5 49.05 -15.7 47.0 -16.45 Q47.8 -18.75 48.9 -20.1 50.05 -21.5 51.5 -22.4 L53.7 -23.2 57.5 -24.05 61.95 -24.85 66.0 -25.55 68.8 -25.95 71.0 -20.85 72.35 -15.9 Q72.8 -13.5 72.55 -11.7 72.3 -10.3 71.3 -9.65 70.3 -9.0 68.8 -8.95" fill="#6fb9d7" fill-rule="evenodd" stroke="none"/>
      <path d="M68.45 -9.5 L66.9 -9.1 64.75 -9.6 Q63.7 -9.9 62.75 -10.35 L59.7 -11.65 56.0 -13.1 52.25 -14.5 49.05 -15.7 47.0 -16.45 47.9 -18.55 52.65 -17.25 57.45 -16.1 61.75 -15.3 Q60.85 -16.45 60.6 -17.65 60.35 -18.8 60.5 -19.8 L60.8 -21.45 61.0 -22.05 66.0 -22.05 66.75 -21.15 68.35 -18.9 70.0 -15.9 Q70.75 -14.35 70.85 -12.9 70.95 -11.5 70.0 -10.55 L68.45 -9.5" fill="#3d7db8" fill-rule="evenodd" stroke="none"/>
      <path d="M63.45 -13.6 L61.95 -15.15 60.15 -16.8 58.25 -18.1 Q57.4 -18.55 57.4 -18.65 L57.9 -18.65 58.8 -18.45 59.35 -18.3 61.8 -16.35 63.6 -14.2 64.55 -12.85 64.7 -12.25 64.25 -12.65 63.45 -13.6" fill="#1b2e54" fill-rule="evenodd" stroke="none"/>
      <path d="M65.5 -31.25 L67.65 -30.95 Q68.4 -30.3 68.95 -29.05 69.5 -27.8 69.65 -26.2 69.75 -24.55 69.25 -22.95 68.75 -21.3 67.4 -19.9 66.0 -18.55 63.55 -17.75 60.6 -16.9 58.4 -17.25 56.2 -17.6 54.75 -18.65 53.25 -19.7 52.45 -20.9 51.7 -22.1 51.55 -22.95 51.5 -23.45 52.45 -24.4 L55.0 -26.4 58.5 -28.55 62.25 -30.3 Q64.05 -31.05 65.5 -31.25" fill="#1d3f60" fill-rule="evenodd" stroke="none"/>
      <path d="M68.5 -28.0 Q69.05 -26.4 68.9 -24.5 68.7 -22.6 67.4 -20.9 66.1 -19.2 63.25 -18.25 L58.55 -17.8 Q56.5 -18.15 55.15 -19.1 53.8 -20.05 53.05 -21.15 52.35 -22.25 52.2 -23.0 52.15 -23.5 53.05 -24.35 L55.4 -26.2 58.6 -28.15 62.05 -29.75 65.1 -30.6 Q66.45 -30.8 67.1 -30.3 67.95 -29.6 68.5 -28.0" fill="#ffffff" fill-rule="evenodd" stroke="none"/>
      <path d="M66.3 -19.8 Q65.15 -18.85 63.3 -18.3 61.3 -17.7 59.7 -17.75 58.3 -18.1 57.2 -18.8 L55.25 -20.4 53.85 -21.95 Q53.35 -22.6 54.0 -23.05 54.6 -23.5 55.9 -23.8 L58.7 -24.15 61.55 -24.1 63.7 -23.55 Q64.45 -23.15 64.2 -22.45 63.75 -21.4 63.95 -20.7 64.1 -20.05 64.75 -19.8 65.4 -19.55 66.3 -19.8" fill="#b8d2ca" fill-rule="evenodd" stroke="none"/>
      <path d="M51.15 -23.65 L48.8 -21.35 Q47.65 -20.0 46.75 -17.9 45.85 -15.75 45.3 -12.65 42.5 -14.05 40.3 -16.0 38.15 -17.9 36.7 -19.8 35.25 -21.7 34.6 -23.1 34.0 -24.55 34.3 -24.95 34.6 -25.3 35.8 -25.7 L38.85 -26.4 42.85 -26.55 Q45.0 -26.45 47.15 -25.8 49.3 -25.1 51.15 -23.65" fill="#ffbd20" fill-rule="evenodd" stroke="none"/>
      <path d="M49.65 -25.5 L47.1 -21.95 45.15 -18.55 Q44.35 -16.8 43.85 -14.65 43.5 -13.3 43.1 -13.25 42.7 -13.25 42.55 -14.0 42.35 -14.8 42.65 -15.85 43.15 -17.45 44.0 -19.25 L45.9 -22.8 48.15 -26.0 48.95 -26.6 49.4 -26.35 49.6 -25.8 49.65 -25.5" fill="#e31e00" fill-rule="evenodd" stroke="none"/>
      <path d="M47.5 -26.95 L45.05 -23.35 Q44.0 -21.65 43.25 -19.9 42.45 -18.1 42.0 -15.95 41.7 -14.55 41.3 -14.5 40.95 -14.5 40.75 -15.25 40.55 -16.0 40.8 -17.1 41.25 -18.7 42.05 -20.55 L43.85 -24.15 45.95 -27.4 46.75 -28.05 47.2 -27.85 47.45 -27.3 47.5 -26.95" fill="#e31e00" fill-rule="evenodd" stroke="none"/>
      <path d="M13.8 -39.15 L20.25 -38.5 24.05 -29.15 16.35 -30.65 13.8 -39.15" fill="#1b2e54" fill-rule="evenodd" stroke="none"/>
      <path d="M14.5 -39.15 L19.5 -38.5 23.3 -29.15 17.3 -30.65 14.5 -39.15" fill="#6fb9d7" fill-rule="evenodd" stroke="none"/>
      <path d="M14.5 -39.15 L19.5 -38.5 20.9 -35.1 Q19.7 -35.3 18.55 -34.55 17.45 -33.85 16.75 -32.25 L14.5 -39.15" fill="#3d7db8" fill-rule="evenodd" stroke="none"/>
      <path d="M53.95 -67.1 Q53.15 -65.45 52.6 -62.6 52.05 -59.8 51.85 -56.3 51.6 -52.85 51.8 -49.25 52.0 -45.65 52.65 -42.45 53.35 -39.25 54.55 -37.0 L55.85 -33.85 Q56.35 -32.1 56.45 -30.3 56.55 -28.5 56.0 -27.0 55.5 -25.45 54.2 -24.5 51.55 -22.65 49.2 -24.35 46.85 -26.0 44.95 -30.75 44.05 -32.95 43.8 -35.95 43.5 -38.95 43.65 -42.4 43.85 -45.8 44.35 -49.35 44.9 -52.9 45.6 -56.2 46.35 -59.5 47.2 -62.2 48.1 -64.95 48.95 -66.75 50.0 -68.9 50.3 -70.1 50.6 -71.35 49.95 -71.7 L47.55 -71.75 46.35 -71.8 Q46.15 -72.05 46.5 -72.5 L47.35 -73.4 48.35 -74.25 48.8 -74.6 Q51.5 -74.65 53.1 -73.9 54.7 -73.15 54.95 -71.45 55.25 -69.8 53.95 -67.1" fill="#111111" fill-rule="evenodd" stroke="none"/>
      <path d="M55.0 -71.45 Q55.25 -69.8 53.95 -67.1 53.15 -65.45 52.6 -62.6 52.05 -59.8 51.85 -56.3 51.65 -52.85 51.8 -49.25 52.0 -45.65 52.7 -42.45 53.35 -39.25 54.6 -37.0 L55.85 -33.85 Q56.4 -32.1 56.45 -30.3 56.55 -28.5 56.0 -27.0 55.5 -25.45 54.2 -24.5 L53.75 -24.2 Q55.1 -25.5 55.3 -27.7 55.55 -29.85 54.7 -32.75 54.7 -32.35 54.35 -32.1 L53.5 -32.0 Q52.95 -32.15 52.45 -33.0 50.75 -36.05 49.9 -40.2 49.05 -44.35 49.1 -49.15 49.15 -54.0 50.2 -59.1 51.2 -64.25 53.2 -69.25 53.95 -71.2 53.35 -72.05 52.75 -72.95 51.2 -73.1 L47.45 -73.0 46.95 -73.0 47.8 -73.75 48.5 -74.35 48.85 -74.6 Q51.55 -74.65 53.15 -73.9 54.7 -73.15 55.0 -71.45" fill="#502f4b" fill-rule="evenodd" stroke="none"/>
      <path d="M47.25 -85.3 Q48.8 -81.3 48.85 -76.85 48.95 -72.45 47.45 -68.0 L44.15 -58.8 42.3 -54.05 41.7 -52.75 40.0 -52.85 35.55 -53.25 29.05 -53.95 21.35 -54.9 13.3 -56.1 5.65 -57.55 -0.8 -59.3 Q-3.6 -60.25 -5.2 -61.35 -6.75 -62.45 -6.75 -63.65 -6.45 -69.3 -5.8 -74.65 -5.1 -80.0 -3.65 -84.65 -2.25 -89.25 0.25 -92.75 2.7 -96.2 6.6 -98.1 10.45 -100.0 16.0 -99.8 17.4 -102.0 19.45 -103.25 21.5 -104.5 23.85 -104.75 26.2 -105.0 28.5 -104.25 30.75 -103.5 32.55 -101.65 34.35 -99.8 35.25 -96.9 39.65 -95.3 42.7 -92.25 45.7 -89.25 47.25 -85.3" fill="#1b2e54" fill-rule="evenodd" stroke="none"/>
      <path d="M46.45 -85.0 Q48.05 -81.15 48.05 -76.9 48.1 -72.6 46.65 -68.35 L43.45 -59.45 41.65 -54.9 41.05 -53.6 39.45 -53.7 35.1 -54.1 28.8 -54.75 21.35 -55.65 13.55 -56.85 6.1 -58.25 -0.1 -59.95 Q-2.85 -60.9 -4.4 -61.9 -5.9 -62.95 -5.9 -64.15 -5.65 -69.6 -4.95 -74.8 -4.3 -80.0 -2.9 -84.5 -1.45 -89.05 1.1 -92.4 3.65 -95.75 7.65 -97.5 11.7 -99.2 17.6 -98.9 L17.45 -99.15 17.0 -99.45 16.75 -99.9 Q18.1 -101.7 20.0 -102.7 21.9 -103.7 24.05 -103.85 L28.2 -103.4 Q30.2 -102.75 31.85 -101.2 33.55 -99.65 34.5 -97.2 L34.25 -96.95 33.7 -96.8 Q33.5 -96.7 33.85 -96.65 38.6 -94.9 41.75 -91.9 44.9 -88.85 46.45 -85.0" fill="#6fb9d7" fill-rule="evenodd" stroke="none"/>
      <path d="M21.4 -99.65 Q22.95 -98.9 26.0 -97.85 L22.3 -98.05 Q20.9 -97.9 20.25 -97.4 19.55 -96.9 19.35 -96.3 L19.0 -95.1 Q16.85 -95.8 15.3 -95.65 13.75 -95.5 12.7 -94.75 L10.85 -92.95 9.5 -90.85 Q6.95 -91.45 4.9 -90.35 2.8 -89.25 1.3 -86.9 -0.25 -84.55 -1.1 -81.35 -2.0 -78.1 -2.2 -74.4 -2.35 -70.75 -1.75 -67.0 -1.1 -63.25 0.4 -59.85 -2.55 -60.75 -4.25 -61.85 -5.9 -62.95 -5.9 -64.15 -5.65 -69.6 -4.95 -74.85 -4.3 -80.05 -2.9 -84.55 -1.45 -89.05 1.1 -92.4 3.65 -95.75 7.65 -97.5 11.7 -99.25 17.6 -98.9 L17.45 -99.2 17.0 -99.5 16.75 -99.95 18.8 -102.0 Q20.0 -102.85 21.3 -103.3 19.85 -102.1 19.85 -101.25 19.85 -100.45 21.4 -99.65" fill="#3d7db8" fill-rule="evenodd" stroke="none"/>
      <path d="M41.45 -69.15 L39.8 -67.15 Q38.8 -66.2 37.5 -65.65 L34.8 -65.35 Q33.0 -65.7 32.2 -66.15 31.4 -66.6 31.15 -66.95 L31.0 -67.35 Q30.1 -67.35 30.0 -68.0 29.9 -68.65 30.65 -69.65 31.05 -68.8 31.7 -68.7 32.35 -68.6 33.0 -69.0 33.45 -68.55 33.9 -68.65 34.35 -68.7 35.2 -69.35 L37.65 -71.35 Q40.1 -73.3 41.45 -73.95 L43.5 -74.15 43.75 -73.75 43.25 -73.15 42.6 -72.25 Q42.25 -71.75 42.15 -71.0 42.1 -70.2 41.45 -69.15" fill="#3d7db8" fill-rule="evenodd" stroke="none"/>
      <path d="M23.55 -77.45 Q23.85 -75.45 23.8 -73.2 L23.45 -68.55 22.6 -64.1 21.45 -60.3 Q21.1 -59.45 19.8 -58.9 18.55 -58.35 16.85 -58.15 L13.5 -58.0 10.7 -58.5 Q9.55 -58.9 9.4 -59.55 L8.95 -62.25 8.45 -66.55 Q8.3 -69.0 8.6 -71.7 8.9 -74.35 9.95 -76.95 11.05 -79.55 12.65 -81.0 14.25 -82.4 16.0 -82.75 L19.35 -82.6 Q20.95 -82.05 22.1 -80.7 23.2 -79.4 23.55 -77.45" fill="#ffffff" fill-rule="evenodd" stroke="none"/>
      <path d="M42.7 -71.5 Q43.45 -70.6 43.35 -68.75 43.3 -66.9 41.95 -64.0 40.6 -61.1 37.45 -57.1 L34.05 -57.5 31.25 -58.3 30.1 -58.75 31.6 -62.5 33.1 -66.4 Q35.0 -67.55 36.5 -68.75 L39.05 -70.9 40.85 -72.4 Q41.95 -72.4 42.7 -71.5" fill="#ffffff" fill-rule="evenodd" stroke="none"/>
      <path d="M23.55 -77.45 L23.7 -76.0 Q22.5 -77.8 20.75 -78.8 19.05 -79.85 17.1 -80.0 15.15 -80.15 13.3 -79.3 11.4 -78.5 9.8 -76.65 L9.9 -76.95 Q11.05 -79.55 12.65 -81.0 14.25 -82.4 16.0 -82.8 L19.35 -82.6 Q20.95 -82.05 22.1 -80.7 23.2 -79.4 23.55 -77.45" fill="#2870a4" fill-rule="evenodd" stroke="none"/>
      <path d="M42.3 -64.9 L42.0 -63.9 41.6 -63.1 Q41.45 -62.85 41.5 -63.2 41.9 -65.7 41.6 -67.1 41.3 -68.5 40.55 -69.05 39.8 -69.6 38.85 -69.55 L36.9 -69.05 38.1 -70.15 40.65 -70.3 Q41.75 -69.9 42.25 -68.55 42.7 -67.15 42.3 -64.9" fill="#0c1748" fill-rule="evenodd" stroke="none"/>
      <path d="M42.6 -71.6 Q43.3 -70.75 43.35 -69.1 43.35 -67.4 42.3 -64.8 L42.3 -64.9 Q42.7 -67.1 42.25 -68.45 41.8 -69.85 40.75 -70.3 L38.25 -70.25 39.7 -71.5 40.85 -72.4 Q41.85 -72.4 42.6 -71.6" fill="#2870a4" fill-rule="evenodd" stroke="none"/>
      <path d="M8.45 -66.4 L8.45 -70.3 8.75 -71.6 Q9.3 -73.45 10.55 -74.3 11.75 -75.1 13.1 -74.85 14.45 -74.6 15.45 -73.25 16.4 -71.85 16.5 -69.35 L16.5 -67.75 12.15 -67.2 16.35 -65.7 Q16.1 -63.55 15.65 -62.3 L15.0 -60.6 13.8 -60.5 12.05 -60.5 10.3 -60.45 9.25 -60.45 8.8 -63.0 8.45 -66.4" fill="#111111" fill-rule="evenodd" stroke="none"/>
      <path d="M37.0 -62.9 Q36.25 -60.25 35.45 -59.0 L34.3 -57.4 33.3 -57.6 31.85 -57.95 30.45 -58.3 29.85 -58.45 32.4 -66.2 Q33.15 -67.35 34.1 -67.6 L35.9 -67.4 Q36.7 -66.9 37.1 -65.75 37.45 -64.6 37.0 -62.9" fill="#111111" fill-rule="evenodd" stroke="none"/>
      <path d="M37.05 -62.85 Q36.3 -60.3 35.5 -59.0 L34.35 -57.4 32.25 -57.95 30.7 -58.5 30.1 -58.7 31.6 -62.5 33.1 -66.4 35.1 -67.65 Q35.85 -67.55 36.45 -66.95 37.0 -66.35 37.2 -65.3 37.4 -64.3 37.05 -62.85" fill="#111111" fill-rule="evenodd" stroke="none"/>
      <path d="M21.5 -89.15 Q20.7 -90.6 19.3 -91.5 17.9 -92.45 16.25 -92.5 14.6 -92.55 13.1 -91.4 11.6 -90.25 10.6 -87.55 11.05 -90.15 12.15 -91.75 13.2 -93.3 14.6 -93.9 L17.4 -94.15 Q18.8 -93.8 19.9 -92.5 21.0 -91.25 21.5 -89.15" fill="#1b2e54" fill-rule="evenodd" stroke="none"/>
      <path d="M44.35 -73.15 Q43.85 -73.95 42.9 -73.6 L40.85 -72.25 38.4 -70.0 35.95 -67.95 33.65 -66.55 Q32.75 -66.25 31.9 -66.95 L31.55 -67.45 32.2 -67.3 33.45 -67.25 Q34.15 -67.5 35.45 -68.5 L37.45 -70.2 39.9 -72.35 41.95 -73.95 Q43.0 -74.6 43.65 -74.5 44.25 -74.4 44.35 -73.15" fill="#1b2e54" fill-rule="evenodd" stroke="none"/>
      <path d="M34.25 -71.0 Q34.35 -70.0 33.85 -69.1 33.35 -68.15 32.45 -67.6 31.6 -67.05 30.5 -67.15 31.35 -67.35 32.05 -67.9 L33.15 -69.25 Q33.55 -70.1 33.5 -71.15 33.5 -71.8 33.85 -71.7 L34.25 -71.0" fill="#1b2e54" fill-rule="evenodd" stroke="none"/>
      <path d="M42.5 -55.7 Q44.9 -54.45 46.45 -52.55 48.0 -50.6 48.6 -48.4 49.2 -46.15 48.75 -43.9 48.35 -41.7 46.75 -39.8 45.45 -38.3 43.0 -37.0 40.5 -35.7 36.9 -35.0 L28.6 -34.6 Q23.9 -34.9 18.25 -36.55 L13.3 -37.1 8.75 -36.95 4.85 -36.9 0.6 -37.45 Q-1.5 -37.8 -3.2 -38.85 -4.95 -39.85 -5.9 -41.9 -6.85 -43.95 -6.6 -47.45 -9.3 -51.25 -10.55 -54.5 -11.8 -57.75 -11.55 -60.15 -11.3 -62.55 -9.5 -63.95 -7.65 -65.3 -5.55 -65.25 -3.4 -65.25 -1.2 -64.0 1.0 -62.75 3.0 -60.45 L11.65 -61.0 Q16.3 -61.25 21.4 -61.05 L31.8 -59.6 Q37.15 -58.4 42.5 -55.7" fill="#7b2d00" fill-rule="evenodd" stroke="none"/>
      <path d="M41.75 -55.05 Q44.1 -53.85 45.55 -52.05 47.05 -50.25 47.55 -48.15 48.1 -46.05 47.65 -43.95 47.2 -41.85 45.65 -40.05 44.35 -38.6 41.75 -37.55 39.15 -36.45 35.5 -35.95 31.85 -35.4 27.4 -35.75 22.95 -36.05 18.0 -37.45 L14.5 -37.75 10.1 -37.55 Q7.75 -37.4 5.5 -37.55 L2.4 -37.85 Q0.75 -38.0 -0.85 -38.5 -2.5 -39.05 -3.75 -40.2 -5.05 -41.35 -5.65 -43.5 -6.25 -45.6 -5.9 -48.9 L-6.1 -48.85 -6.3 -48.45 Q-6.45 -48.25 -6.5 -48.35 -8.9 -51.85 -9.95 -54.8 -11.05 -57.75 -10.75 -60.0 -10.45 -62.2 -8.75 -63.5 -6.95 -64.75 -4.9 -64.55 -2.85 -64.35 -0.85 -63.1 1.15 -61.85 2.85 -60.15 L11.35 -60.6 20.95 -60.45 Q26.0 -60.15 31.3 -58.9 36.55 -57.65 41.75 -55.05" fill="#fee36a" fill-rule="evenodd" stroke="none"/>
      <path d="M15.35 -56.65 L15.55 -57.1 16.0 -57.3 16.5 -57.1 16.7 -56.65 16.5 -56.2 Q16.3 -56.0 16.0 -56.0 L15.55 -56.2 15.35 -56.65" fill="#996400" fill-rule="evenodd" stroke="none"/>
      <path d="M20.75 -52.45 L21.0 -53.0 21.5 -53.2 22.05 -53.0 22.25 -52.45 22.05 -51.95 21.5 -51.75 21.0 -51.95 Q20.75 -52.15 20.75 -52.45" fill="#996400" fill-rule="evenodd" stroke="none"/>
      <path d="M22.5 -58.15 L22.7 -58.6 23.15 -58.8 23.65 -58.6 23.85 -58.15 23.65 -57.7 23.15 -57.5 Q22.9 -57.5 22.7 -57.7 L22.5 -58.15" fill="#996400" fill-rule="evenodd" stroke="none"/>
      <path d="M9.7 -54.4 L9.9 -54.9 10.4 -55.1 10.9 -54.9 11.1 -54.4 10.9 -53.9 Q10.7 -53.7 10.4 -53.7 L9.9 -53.9 9.7 -54.4" fill="#996400" fill-rule="evenodd" stroke="none"/>
      <path d="M46.65 -46.1 L46.8 -46.6 Q46.9 -46.8 47.05 -46.8 L47.35 -46.65 47.45 -46.2 47.3 -45.7 47.05 -45.5 Q46.85 -45.5 46.75 -45.65 L46.65 -46.1" fill="#996400" fill-rule="evenodd" stroke="none"/>
      <path d="M46.0 -50.0 L46.2 -50.3 46.5 -50.25 46.75 -49.85 46.75 -49.35 46.55 -49.05 Q46.2 -48.95 46.0 -49.55 L46.0 -50.0" fill="#996400" fill-rule="evenodd" stroke="none"/>
      <path d="M45.65 -40.05 Q44.35 -38.6 41.75 -37.5 39.15 -36.4 35.5 -35.9 31.85 -35.4 27.4 -35.7 22.95 -36.05 18.0 -37.4 L14.5 -37.7 10.1 -37.5 Q7.75 -37.4 5.5 -37.55 L2.4 -37.8 -0.85 -38.5 Q-2.5 -39.0 -3.75 -40.2 -5.05 -41.35 -5.65 -43.45 -6.25 -45.55 -5.9 -48.9 L-6.1 -48.8 -6.3 -48.4 Q-6.45 -48.2 -6.5 -48.35 -8.9 -51.85 -9.95 -54.8 -11.05 -57.75 -10.75 -59.95 -10.45 -62.15 -8.75 -63.45 -7.65 -64.25 -6.45 -64.45 -8.0 -63.85 -8.85 -62.6 -9.65 -61.35 -9.8 -59.85 -10.0 -58.3 -9.65 -56.9 -9.35 -55.45 -8.65 -54.45 -7.85 -53.35 -6.95 -53.1 L-5.3 -53.15 Q-4.5 -53.45 -3.85 -54.1 L-2.8 -55.45 Q-2.35 -56.4 -2.4 -57.0 -2.45 -57.65 -2.85 -57.95 -3.2 -58.3 -3.65 -58.3 -2.75 -59.35 -1.95 -59.45 -1.1 -59.55 -0.45 -59.0 L0.85 -57.65 0.15 -57.9 -0.1 -57.75 -0.3 -57.15 Q-1.05 -55.3 -0.7 -53.65 -0.4 -52.05 0.75 -50.65 1.9 -49.2 3.7 -47.95 4.75 -47.2 6.8 -46.45 L11.45 -44.9 16.8 -43.45 21.9 -42.0 26.0 -40.65 Q28.1 -39.8 30.7 -39.0 33.35 -38.15 36.15 -37.9 L41.7 -38.35 Q44.4 -39.1 46.65 -41.4 L45.65 -40.05" fill="#d59f32" fill-rule="evenodd" stroke="none"/>
      <path d="M12.45 -38.85 Q12.8 -38.55 12.65 -38.3 12.5 -38.0 11.65 -37.95 L5.3 -37.85 0.05 -38.55 Q-2.25 -39.15 -3.65 -40.55 -5.1 -41.95 -5.5 -44.45 -5.6 -45.25 -5.25 -45.65 L-4.5 -45.9 Q-4.05 -45.8 -3.85 -45.05 L-3.3 -43.1 Q-2.95 -42.15 -2.15 -41.3 -1.35 -40.5 0.25 -39.95 1.8 -39.35 4.55 -39.1 7.25 -38.9 11.45 -39.1 L12.45 -38.85" fill="#ffed6c" fill-rule="evenodd" stroke="none"/>
      <path d="M28.05 -38.3 L28.2 -37.95 27.8 -37.95 27.2 -38.25 Q26.0 -39.05 24.55 -39.35 L21.1 -39.65 16.6 -39.65 12.4 -39.5 7.7 -39.4 3.25 -39.6 Q1.15 -39.8 -0.3 -40.45 -1.7 -41.15 -2.45 -42.45 -3.2 -43.75 -3.5 -45.3 -3.8 -46.85 -3.75 -48.3 L-3.55 -50.75 -3.1 -53.05 -2.4 -55.35 -0.9 -58.5 -0.5 -58.55 Q-0.3 -58.35 -0.4 -58.15 -1.95 -55.1 -1.35 -52.6 -0.75 -50.05 1.55 -48.1 3.8 -46.15 7.45 -44.7 11.1 -43.3 15.65 -42.4 L23.45 -40.65 Q26.55 -39.75 28.05 -38.3" fill="#8c3000" fill-rule="evenodd" stroke="none"/>
      <path d="M19.55 -40.95 Q20.2 -40.8 20.2 -40.5 20.2 -40.25 19.2 -40.25 L17.35 -40.2 13.95 -40.05 9.7 -39.95 5.4 -40.05 1.75 -40.35 Q-0.15 -40.7 -1.3 -41.95 -2.4 -43.2 -2.85 -45.0 -3.3 -46.85 -3.15 -49.0 -3.0 -51.15 -2.3 -53.3 -2.05 -50.85 -0.55 -49.0 1.0 -47.15 3.4 -45.8 5.8 -44.45 8.65 -43.55 11.5 -42.6 14.35 -42.0 L19.55 -40.95" fill="#c1c6cd" fill-rule="evenodd" stroke="none"/>
      <path d="M0.75 -58.5 Q1.15 -58.25 0.9 -58.1 L0.4 -58.05 -0.45 -58.35 -1.5 -58.5 Q-1.95 -58.5 -2.05 -58.75 -2.1 -59.0 -1.55 -59.05 L-0.45 -58.95 0.75 -58.5" fill="#8c3000" fill-rule="evenodd" stroke="none"/>
      <path d="M10.75 -39.95 Q8.3 -39.9 5.9 -40.0 L1.8 -40.35 Q0.1 -40.65 -0.95 -41.65 -2.05 -42.65 -2.55 -44.15 -3.1 -45.65 -3.15 -47.45 -1.8 -48.6 -0.25 -48.65 0.95 -47.3 2.7 -46.25 4.4 -45.15 6.4 -44.35 8.45 -43.55 10.6 -42.9 11.25 -41.7 10.75 -39.95" fill="#ffffff" fill-rule="evenodd" stroke="none"/>
      <path d="M10.8 -40.0 L10.15 -39.95 11.1 -41.1 12.2 -42.5 12.7 -42.4 10.8 -40.0" fill="#2c3d79" fill-rule="evenodd" stroke="none"/>
      <path d="M0.85 -47.6 L-0.85 -45.9 -2.55 -44.15 -2.75 -44.7 0.45 -47.95 0.85 -47.6" fill="#476db1" fill-rule="evenodd" stroke="none"/>
      <path d="M6.55 -44.3 L4.45 -42.25 2.4 -40.3 1.75 -40.35 3.95 -42.5 6.05 -44.5 6.55 -44.3" fill="#476db1" fill-rule="evenodd" stroke="none"/>
      <path d="M-2.1 -85.05 Q-1.3 -84.25 -1.3 -83.4 -1.25 -82.55 -1.8 -82.0 -2.4 -81.4 -3.35 -81.45 L-4.65 -82.45 -6.3 -83.5 -8.1 -83.8 Q-8.75 -83.65 -9.05 -81.95 L-9.5 -77.6 -9.7 -71.55 -9.95 -64.8 -10.2 -56.4 Q-10.2 -52.5 -10.45 -49.25 -10.7 -46.0 -11.65 -43.25 -13.1 -39.35 -14.9 -37.05 -16.7 -34.7 -18.55 -33.65 -20.4 -32.6 -22.15 -32.5 -23.85 -32.35 -25.15 -32.9 -26.8 -33.55 -27.1 -34.85 -27.45 -36.1 -26.85 -38.0 L-25.1 -42.2 -22.55 -47.35 -19.85 -53.35 Q-17.75 -58.7 -16.65 -63.7 -15.6 -68.7 -15.05 -73.3 L-13.95 -82.05 Q-13.35 -86.15 -11.6 -87.6 -9.8 -89.05 -7.3 -88.3 -4.8 -87.6 -2.1 -85.05" fill="#111111" fill-rule="evenodd" stroke="none"/>
      <path d="M43.5 -53.15 Q44.4 -52.0 44.15 -51.2 43.85 -50.4 42.4 -50.45 40.9 -50.45 38.35 -51.65 L34.05 -53.85 Q32.35 -54.8 31.5 -55.65 30.65 -56.5 30.65 -57.5 30.7 -58.05 31.85 -57.95 L34.75 -57.35 38.35 -56.05 41.6 -54.5 43.5 -53.15" fill="#d59f32" fill-rule="evenodd" stroke="none"/>
      <path d="M47.2 -54.3 Q46.05 -52.6 43.35 -52.5 40.65 -52.4 36.35 -53.8 32.8 -54.85 31.2 -56.2 29.6 -57.55 30.05 -59.6 30.2 -60.35 30.9 -61.2 31.6 -62.05 32.95 -62.7 34.3 -63.35 36.4 -63.4 38.45 -63.45 41.35 -62.55 43.7 -61.8 45.05 -60.65 46.4 -59.5 47.0 -58.25 47.6 -57.0 47.6 -55.95 47.6 -54.9 47.2 -54.3" fill="#2f094d" fill-rule="evenodd" stroke="none"/>
      <path d="M43.95 -55.35 L44.9 -55.35 46.0 -55.1 Q46.45 -54.95 46.4 -54.55 46.35 -54.2 45.3 -53.55 L43.3 -53.2 40.25 -53.4 36.9 -54.1 33.95 -55.2 Q32.65 -55.8 32.15 -56.5 33.3 -55.85 35.1 -55.45 L39.2 -55.05 43.95 -55.35" fill="#571b89" fill-rule="evenodd" stroke="none"/>
      <path d="M45.05 -59.7 Q43.9 -60.6 42.35 -61.25 L39.05 -62.3 35.8 -62.7 33.25 -62.5 36.2 -63.1 39.55 -62.75 42.8 -61.6 45.3 -59.8 Q46.3 -58.75 46.55 -57.6 46.2 -58.75 45.05 -59.7" fill="#8c409c" fill-rule="evenodd" stroke="none"/>
      <path d="M43.9 -59.15 L40.05 -59.0 Q38.8 -59.35 38.2 -59.8 37.65 -60.25 37.8 -60.95 L38.3 -61.65 Q38.75 -62.0 39.6 -62.15 L41.85 -61.9 Q42.95 -61.55 43.45 -61.0 L44.05 -59.95 43.9 -59.15" fill="#c575b8" fill-rule="evenodd" stroke="none"/>
      <path d="M43.6 -59.6 L40.35 -59.5 Q39.3 -59.75 38.85 -60.15 38.4 -60.5 38.5 -61.05 L38.9 -61.6 Q39.3 -61.9 40.0 -62.0 L41.85 -61.8 Q42.75 -61.55 43.2 -61.1 L43.7 -60.25 43.6 -59.6" fill="#f3d6ea" fill-rule="evenodd" stroke="none"/>
      <path d="M10.7 -40.0 L10.15 -39.95 10.95 -40.95 10.75 -40.0 10.7 -40.0" fill="#476db1" fill-rule="evenodd" stroke="none"/>
      <path d="M23.75 -75.9 L23.95 -74.65 23.85 -73.95 Q23.7 -73.75 23.5 -74.25 22.65 -76.55 21.05 -77.85 19.5 -79.2 17.5 -79.5 15.55 -79.8 13.45 -79.0 11.4 -78.2 9.5 -76.3 10.8 -78.75 12.75 -80.05 14.7 -81.35 16.85 -81.4 19.0 -81.45 20.85 -80.1 22.7 -78.75 23.75 -75.9" fill="#1b2e54" fill-rule="evenodd" stroke="none"/>
      <path d="M43.85 -17.55 Q47.5 -13.35 50.25 -7.75 52.95 -2.15 54.3 5.05 L54.85 8.05 55.35 10.25 56.0 12.35 Q55.15 13.0 52.4 13.35 L45.65 13.8 36.7 13.7 26.7 13.1 16.75 12.05 7.85 10.55 Q3.8 9.7 1.1 8.6 -1.6 7.55 -2.4 6.3 -3.25 5.0 -1.65 3.6 L0.85 2.1 3.3 0.3 Q4.45 -0.7 4.9 -1.95 L5.3 -3.8 5.5 -6.0 5.55 -7.95 2.7 -7.8 Q1.05 -8.2 -0.7 -9.3 -2.45 -10.35 -4.0 -11.75 -5.5 -13.2 -6.45 -14.6 -7.4 -16.05 -7.4 -17.15 L-7.0 -19.1 -6.1 -20.05 -4.65 -20.75 -2.7 -22.15 0.2 -25.15 2.8 -28.55 5.05 -31.9 Q6.3 -33.65 7.85 -34.35 9.4 -35.0 10.9 -34.9 L13.55 -34.3 15.1 -33.15 20.8 -32.15 Q24.2 -31.25 28.15 -29.45 32.15 -27.6 36.2 -24.65 40.2 -21.75 43.85 -17.55" fill="#5f2916" fill-rule="evenodd" stroke="none"/>
      <path d="M54.75 11.5 Q55.15 14.15 55.25 18.65 55.3 23.15 54.85 29.25 54.35 35.3 53.05 42.65 51.75 50.05 49.4 58.4 L47.35 59.05 42.05 59.65 Q38.7 59.9 34.4 59.75 L25.3 58.7 Q20.5 57.9 15.65 56.15 L3.85 55.65 Q-1.75 55.0 -6.5 53.6 -11.25 52.2 -14.85 50.3 -18.45 48.45 -20.6 46.25 -21.1 45.75 -20.9 45.25 L-20.25 44.2 -19.35 43.15 -13.7 34.8 -9.25 27.4 -6.1 21.4 -4.15 17.3 Q-4.3 14.35 -3.8 11.7 -3.3 9.05 -1.8 6.85 -0.25 4.65 2.7 3.1 5.65 1.55 10.4 0.75 L23.95 -0.35 Q30.6 -0.4 36.5 0.8 42.45 2.0 47.15 4.65 51.8 7.25 54.75 11.5" fill="#341239" fill-rule="evenodd" stroke="none"/>
      <path d="M54.45 18.3 Q54.55 23.15 54.05 29.3 53.5 35.45 52.2 42.55 50.9 49.7 48.7 57.5 L48.5 57.8 48.05 57.95 47.45 57.45 Q46.25 55.75 44.0 54.6 41.8 53.5 38.9 52.9 L32.9 52.2 26.75 52.35 21.3 53.3 22.0 50.15 23.4 45.05 25.3 38.9 Q26.35 35.75 27.55 32.8 28.75 29.85 30.05 27.65 L31.95 27.6 35.35 27.9 36.05 27.95 36.7 27.95 Q36.9 27.9 36.7 27.75 L35.6 27.4 32.7 26.85 29.25 26.7 26.05 26.9 Q25.2 27.05 25.0 27.25 24.8 27.5 25.05 27.7 L25.95 27.7 26.75 27.55 27.9 27.45 29.05 27.45 Q27.8 29.8 26.65 32.6 L24.45 38.45 Q23.45 41.45 22.6 44.4 L21.05 49.95 20.3 52.5 19.6 53.65 18.45 54.15 17.75 54.35 17.1 54.55 16.95 54.45 17.8 53.8 Q18.35 53.4 17.55 52.35 16.7 51.3 14.9 49.95 L10.6 47.15 Q8.1 45.75 5.4 44.55 2.65 43.35 0.05 42.65 -4.0 41.65 -7.25 41.6 L-12.85 42.1 Q-15.2 42.65 -16.65 43.35 -18.05 44.0 -18.4 44.4 L-19.35 45.5 -19.75 45.75 -19.7 45.05 -19.15 44.1 -18.4 43.05 -12.8 34.9 -8.3 27.5 -5.05 21.45 -3.1 17.4 Q-3.75 12.8 -2.2 9.1 -0.65 5.35 3.2 2.85 6.05 1.45 10.4 0.75 L23.45 -0.35 35.6 0.6 Q41.4 1.7 46.05 4.05 50.7 6.4 53.85 10.25 54.4 13.5 54.45 18.3" fill="#7f3d8c" fill-rule="evenodd" stroke="none"/>
      <path d="M0.75 -18.8 L2.65 -18.55 4.7 -17.6 6.35 -15.8 3.8 -10.95 Q2.1 -8.05 -0.35 -4.65 -2.75 -1.2 -5.85 2.6 L-12.65 10.2 Q-12.85 10.3 -13.7 9.6 L-15.7 7.75 -18.0 5.35 -19.8 2.95 Q-20.45 1.9 -20.35 1.35 -15.3 -1.9 -11.45 -5.25 -7.65 -8.6 -4.7 -12.0 -1.75 -15.4 0.75 -18.8" fill="#1b2e54" fill-rule="evenodd" stroke="none"/>
      <path d="M3.3 -11.3 L-1.0 -4.8 Q-3.55 -1.3 -6.65 2.45 -9.75 6.2 -13.3 9.95 L-15.0 8.5 -17.15 6.3 -19.1 3.95 Q-19.85 2.7 -19.75 2.05 -14.75 -1.15 -10.85 -4.65 -6.95 -8.2 -3.85 -11.75 -0.75 -15.3 1.7 -18.7 2.85 -18.55 4.0 -18.0 5.2 -17.4 6.05 -16.3 L3.3 -11.3" fill="#6fb9d7" fill-rule="evenodd" stroke="none"/>
      <path d="M43.4 -17.1 Q46.9 -13.05 49.5 -7.7 52.15 -2.35 53.4 4.5 L53.9 7.3 54.25 9.25 54.8 11.15 Q53.25 8.1 50.3 5.85 47.3 3.6 43.35 2.1 39.35 0.6 34.8 -0.15 L25.6 -1.1 Q20.95 -1.3 16.55 -0.9 L8.55 0.4 Q4.9 1.25 2.4 2.55 -0.05 3.85 -0.95 5.5 -1.4 5.25 -1.2 4.8 L-0.15 3.55 1.55 2.45 4.1 0.75 6.65 -1.05 8.3 -2.4 Q8.55 -2.7 8.2 -2.55 L7.2 -2.2 6.15 -1.95 Q5.75 -1.9 5.85 -2.35 L6.2 -4.15 6.3 -6.4 6.4 -8.5 7.3 -9.75 9.4 -12.95 11.9 -17.35 Q13.15 -19.75 14.0 -22.1 14.75 -24.3 14.95 -25.8 L15.05 -28.3 14.85 -29.6 Q14.75 -28.0 14.1 -25.3 13.45 -22.65 11.9 -19.45 10.4 -16.25 7.75 -12.95 7.85 -14.8 7.15 -16.1 6.45 -17.35 5.35 -18.1 L3.0 -19.3 0.85 -19.85 -2.05 -19.9 -4.4 -19.35 -5.65 -18.45 -6.15 -17.85 -6.25 -18.45 -5.75 -19.4 Q-5.4 -19.75 -4.85 -19.95 L-3.5 -20.6 Q-2.75 -21.0 -1.85 -21.75 L0.85 -24.65 3.25 -27.9 5.4 -31.1 Q6.5 -32.65 7.9 -33.35 9.3 -34.05 10.75 -34.05 12.2 -34.05 13.3 -33.5 14.4 -32.9 14.8 -31.9 L15.15 -32.3 15.35 -32.55 21.0 -31.45 Q24.35 -30.5 28.2 -28.7 32.05 -26.85 35.95 -24.0 39.9 -21.15 43.4 -17.1" fill="#ffbd20" fill-rule="evenodd" stroke="none"/>
      <path d="M-1.25 43.05 Q0.25 43.25 2.2 44.05 4.15 44.8 6.35 46.3 L2.25 54.3 -0.4 60.0 -2.15 64.6 -3.4 69.05 Q-4.75 74.7 -5.3 78.95 L-5.95 86.25 -6.05 91.05 Q-6.05 92.9 -6.35 93.65 -6.8 94.75 -8.95 96.25 -11.15 97.7 -14.95 99.2 -18.75 100.7 -24.15 101.8 -31.8 103.35 -39.1 103.85 -46.4 104.4 -52.9 103.65 -59.45 102.95 -64.75 100.65 -66.6 99.8 -67.4 98.5 -68.25 97.15 -68.4 95.8 L-68.4 93.65 Q-67.5 88.3 -65.15 84.65 -62.8 81.0 -59.35 78.7 -55.85 76.4 -51.6 75.05 -47.35 73.7 -42.7 72.95 L-33.4 71.65 -24.4 70.4 -22.15 69.9 -19.8 69.1 -18.25 68.05 -16.65 65.65 -14.25 61.7 -11.45 56.85 -8.6 51.85 -6.1 47.45 -4.3 44.25 -3.65 43.05 Q-2.75 42.85 -1.25 43.05" fill="#1b2e54" fill-rule="evenodd" stroke="none"/>
      <path d="M53.05 70.85 Q57.3 71.85 59.9 73.75 62.45 75.6 63.8 77.95 65.15 80.35 65.7 82.8 L66.35 87.4 66.25 88.65 65.75 89.7 Q65.4 90.15 64.7 90.25 L56.1 90.95 46.4 91.15 36.35 91.0 26.65 90.5 18.0 89.85 11.2 89.1 Q9.7 88.9 9.45 87.8 9.2 86.75 9.85 84.75 10.7 82.1 12.1 78.8 13.5 75.5 15.25 71.95 L18.65 65.1 21.8 59.1 24.15 54.85 25.05 53.2 29.05 52.65 Q31.35 52.45 34.35 52.75 33.0 55.75 31.75 59.05 L29.45 65.75 27.5 72.4 Q36.3 70.45 42.55 70.15 L53.05 70.85" fill="#1b2e54" fill-rule="evenodd" stroke="none"/>
      <path d="M-3.15 64.55 L-4.5 69.1 Q-5.85 74.6 -6.35 78.8 L-7.0 85.95 -7.05 90.65 Q-7.05 92.5 -7.35 93.25 -7.8 94.3 -9.8 95.7 -11.8 97.1 -15.4 98.5 -19.05 99.95 -24.25 101.0 -31.75 102.45 -38.75 102.85 -45.75 103.25 -52.05 102.55 -58.3 101.8 -63.6 99.85 -65.25 99.25 -66.05 98.3 -66.9 97.4 -67.2 96.4 L-67.4 94.5 -67.25 93.0 Q-66.25 88.05 -63.85 84.7 -61.45 81.3 -58.0 79.15 -54.55 77.0 -50.4 75.75 -46.25 74.5 -41.75 73.8 L-32.65 72.55 -23.85 71.35 -21.6 70.7 -19.1 69.65 -17.5 68.5 -15.7 65.75 -12.95 61.15 -9.75 55.55 -6.65 50.05 -4.1 45.5 -2.65 42.9 Q-1.2 42.85 0.95 43.5 3.1 44.15 5.65 45.75 L1.65 53.55 -1.2 59.6 -3.15 64.55" fill="#6fb9d7" fill-rule="evenodd" stroke="none"/>
      <path d="M58.15 74.05 Q60.85 75.7 62.35 77.85 63.85 80.0 64.5 82.4 65.15 84.75 65.25 87.0 L65.25 88.1 64.75 89.0 Q64.4 89.35 63.5 89.5 L50.7 90.35 Q43.95 90.5 37.15 90.25 L23.9 89.45 12.1 88.3 Q10.7 88.15 10.6 87.1 10.5 86.05 11.15 84.15 11.85 81.9 13.05 79.05 L15.8 72.95 18.85 66.65 21.85 60.75 24.35 56.05 25.95 53.1 29.35 52.7 Q31.2 52.55 33.5 52.75 L31.55 57.55 29.6 63.0 27.8 68.45 26.4 73.4 Q34.75 71.55 40.9 71.15 L51.25 71.6 Q55.5 72.4 58.15 74.05" fill="#6fb9d7" fill-rule="evenodd" stroke="none"/>
      <path d="M65.6 -37.15 Q66.7 -35.4 67.35 -33.2 68.0 -31.0 67.85 -28.55 67.65 -26.15 66.4 -23.75 65.3 -21.85 63.65 -20.9 62.0 -19.9 60.0 -19.7 L56.05 -19.8 Q54.05 -20.15 52.3 -20.8 50.55 -21.45 49.35 -22.3 46.85 -22.45 45.2 -23.1 43.6 -23.7 42.35 -24.4 L39.8 -25.25 Q39.05 -25.15 38.55 -24.7 L37.45 -23.7 36.15 -22.4 Q35.1 -21.6 33.85 -21.65 32.55 -21.75 31.5 -22.75 30.45 -23.7 30.1 -25.5 29.75 -27.95 30.4 -29.65 31.05 -31.35 32.4 -32.4 33.8 -33.45 35.65 -33.9 L39.5 -34.25 Q39.3 -37.95 40.35 -39.95 41.45 -41.95 43.3 -42.45 L47.45 -42.15 Q48.5 -43.4 50.15 -43.6 L53.45 -43.2 56.4 -41.25 57.3 -41.65 58.75 -41.9 60.75 -41.5 Q61.85 -41.1 63.15 -40.05 64.45 -38.9 65.6 -37.15" fill="#1d3f60" fill-rule="evenodd" stroke="none"/>
      <path d="M46.7 -27.4 L43.7 -27.25 Q42.4 -27.9 41.5 -29.6 40.65 -31.35 40.25 -33.6 39.75 -36.95 40.6 -38.9 41.45 -40.85 43.1 -41.5 L46.85 -41.6 Q45.35 -38.6 45.25 -35.05 45.15 -31.5 46.7 -27.4" fill="#ffffff" fill-rule="evenodd" stroke="none"/>
      <path d="M67.0 -28.75 Q66.85 -26.45 65.65 -24.2 64.35 -21.95 62.25 -21.1 60.1 -20.2 57.7 -20.35 55.3 -20.5 53.1 -21.25 50.9 -22.05 49.45 -23.0 47.6 -23.0 46.0 -23.6 L43.0 -24.9 40.35 -25.85 Q40.45 -26.3 40.2 -26.3 L39.55 -26.2 Q38.7 -26.05 38.1 -25.55 L37.0 -24.45 35.8 -23.2 Q34.8 -22.45 33.75 -22.55 32.7 -22.65 31.9 -23.5 31.1 -24.35 30.85 -25.85 30.5 -28.5 31.6 -30.3 32.75 -32.1 34.85 -32.95 36.95 -33.8 39.5 -33.65 39.8 -32.05 40.35 -30.5 40.9 -29.0 41.8 -27.9 42.7 -26.8 44.0 -26.45 45.3 -26.1 47.1 -26.85 48.05 -25.85 49.0 -25.55 L50.8 -25.4 52.35 -25.85 Q52.6 -25.2 53.65 -24.75 54.65 -24.25 56.1 -24.25 57.5 -24.25 58.85 -25.05 60.15 -25.8 61.0 -27.65 L61.25 -28.9 60.85 -29.45 60.45 -29.55 60.75 -30.75 61.25 -31.85 61.65 -32.45 61.85 -32.75 61.5 -32.7 60.1 -30.85 Q59.4 -29.7 59.25 -28.5 59.2 -28.05 59.4 -28.05 L59.75 -28.6 Q59.9 -29.15 60.1 -28.9 L60.2 -28.2 Q59.9 -27.0 58.95 -26.2 58.05 -25.45 56.9 -25.2 L54.7 -25.25 Q53.7 -25.55 53.25 -26.6 52.75 -27.8 52.65 -29.55 52.55 -31.25 52.8 -33.05 53.05 -34.8 53.45 -36.25 53.9 -37.65 54.85 -38.8 55.75 -39.95 57.0 -40.55 58.25 -41.15 59.7 -41.0 61.1 -40.85 62.5 -39.65 L64.85 -36.9 Q65.95 -35.2 66.55 -33.15 67.2 -31.05 67.0 -28.75" fill="#ffffff" fill-rule="evenodd" stroke="none"/>
      <path d="M47.7 -41.45 Q48.55 -42.65 49.95 -42.8 51.35 -43.0 52.9 -42.4 54.45 -41.85 55.65 -40.75 L55.15 -40.4 54.1 -39.35 Q53.5 -38.65 53.05 -37.55 52.35 -35.6 52.0 -33.6 51.7 -31.55 51.7 -29.75 51.75 -27.95 52.1 -26.7 51.15 -26.0 50.05 -26.15 49.0 -26.3 48.15 -26.95 47.3 -27.6 47.05 -28.5 46.65 -29.75 46.4 -31.45 46.1 -33.1 46.1 -34.9 46.1 -36.7 46.45 -38.4 46.85 -40.1 47.7 -41.45" fill="#ffffff" fill-rule="evenodd" stroke="none"/>
      <path d="M14.15 -25.3 Q13.45 -22.65 11.95 -19.45 10.45 -16.25 7.8 -13.0 7.9 -14.85 7.2 -16.1 L11.6 -21.4 14.15 -25.3" fill="#f27c01" fill-rule="evenodd" stroke="none"/>
      <path d="M14.05 -13.45 Q13.25 -10.45 12.1 -8.0 10.95 -5.55 9.5 -4.05 L7.8 -2.4 6.85 -2.05 6.05 -1.95 Q5.75 -1.95 5.85 -2.3 L6.2 -4.15 6.3 -6.4 6.4 -8.5 7.3 -9.75 9.4 -12.95 11.9 -17.35 14.0 -22.05 14.9 -25.7 Q15.3 -22.8 15.05 -19.65 14.8 -16.45 14.05 -13.45" fill="#f27c01" fill-rule="evenodd" stroke="none"/>
      <path d="M53.45 4.5 L53.9 7.35 54.25 9.25 54.85 11.2 Q53.8 9.1 52.1 7.4 50.35 5.7 48.1 4.35 48.0 0.1 47.25 -4.05 46.45 -8.25 45.2 -11.85 43.95 -15.5 42.4 -18.15 44.95 -15.4 47.15 -12.0 49.3 -8.6 50.9 -4.45 52.55 -0.35 53.45 4.5" fill="#f27c01" fill-rule="evenodd" stroke="none"/>
      <path d="M9.65 -15.45 Q9.5 -17.6 8.45 -19.25 7.4 -20.9 5.75 -21.85 4.1 -22.75 2.2 -22.85 0.25 -22.95 -1.6 -22.0 L0.2 -23.85 Q1.65 -24.7 3.4 -24.45 5.1 -24.25 6.7 -23.15 8.35 -22.1 9.4 -20.5 10.5 -18.95 10.65 -17.05 L9.65 -15.45" fill="#e31e00" fill-rule="evenodd" stroke="none"/>
      <path d="M9.6 -15.45 Q9.55 -16.95 9.0 -18.2 L10.05 -19.4 Q10.55 -18.3 10.65 -17.1 L9.6 -15.45" fill="#a51800" fill-rule="evenodd" stroke="none"/>
      <path d="M7.8 -25.85 Q9.4 -25.0 10.55 -23.5 11.75 -22.0 12.15 -19.85 L11.3 -18.25 Q11.2 -20.1 10.2 -21.65 9.2 -23.15 7.65 -24.2 6.15 -25.2 4.45 -25.5 2.8 -25.8 1.3 -25.15 L2.3 -26.5 4.75 -26.85 Q6.25 -26.7 7.8 -25.85" fill="#e31e00" fill-rule="evenodd" stroke="none"/>
      <path d="M11.35 -18.3 Q11.3 -19.45 10.85 -20.45 L11.7 -21.55 12.15 -19.95 11.35 -18.3" fill="#a51800" fill-rule="evenodd" stroke="none"/>
      <path d="M47.35 -6.8 Q44.65 -8.55 41.15 -9.8 37.7 -11.0 33.8 -11.65 L25.95 -12.35 18.3 -11.8 Q14.6 -11.25 11.55 -10.0 8.45 -8.8 6.35 -6.85 L6.4 -7.75 6.45 -8.45 7.05 -9.35 8.6 -11.65 Q11.55 -13.4 15.2 -14.45 18.85 -15.5 22.85 -15.8 26.85 -16.1 30.85 -15.7 L38.45 -14.25 Q42.1 -13.15 45.0 -11.4 47.9 -9.7 49.7 -7.3 L50.4 -5.85 51.05 -4.2 51.6 -2.7 Q50.0 -5.0 47.35 -6.8" fill="#e31e00" fill-rule="evenodd" stroke="none"/>
      <path d="M46.5 -7.3 L45.4 -11.1 Q48.0 -9.45 49.65 -7.3 L51.5 -2.75 49.35 -5.2 46.5 -7.3" fill="#a51800" fill-rule="evenodd" stroke="none"/>
      <path d="M14.25 -14.15 L13.25 -10.6 Q11.15 -9.95 9.4 -9.0 7.7 -8.1 6.35 -6.85 L6.35 -7.05 6.35 -7.1 6.4 -7.8 6.45 -8.35 6.45 -8.45 7.05 -9.3 8.6 -11.65 Q11.15 -13.2 14.25 -14.15" fill="#a51800" fill-rule="evenodd" stroke="none"/>
      <path d="M47.4 -0.95 Q43.9 -2.95 39.7 -4.15 35.5 -5.4 31.05 -5.85 26.65 -6.35 22.35 -6.05 18.1 -5.8 14.45 -4.85 10.8 -3.9 8.2 -2.25 L8.3 -2.4 Q8.55 -2.65 8.2 -2.5 L7.2 -2.15 6.15 -1.9 Q5.75 -1.85 5.85 -2.3 L6.1 -3.4 6.25 -4.75 Q9.7 -7.4 14.1 -8.7 18.45 -10.0 23.2 -10.15 L32.55 -9.55 Q37.2 -8.8 41.2 -7.35 45.25 -5.85 48.15 -3.95 51.1 -2.0 52.4 0.2 L53.3 3.9 Q50.9 1.05 47.4 -0.95" fill="#e31e00" fill-rule="evenodd" stroke="none"/>
      <path d="M47.7 -0.75 L47.1 -4.6 50.3 -2.3 52.45 0.2 53.3 3.9 Q51.05 1.2 47.7 -0.75" fill="#a51800" fill-rule="evenodd" stroke="none"/>
      <path d="M6.15 -3.5 L6.2 -4.1 6.25 -4.15 6.3 -4.8 Q8.95 -6.85 12.15 -8.05 11.0 -5.6 9.5 -4.1 L7.8 -2.45 7.5 -2.3 7.25 -2.25 7.2 -2.2 6.95 -2.1 6.7 -2.05 6.65 -2.05 6.4 -2.0 6.2 -1.95 6.05 -1.95 6.0 -1.95 5.9 -2.0 5.9 -2.05 5.85 -2.15 5.9 -2.35 6.05 -2.8 6.05 -2.9 6.15 -3.4 6.15 -3.5" fill="#a51800" fill-rule="evenodd" stroke="none"/>
      <path d="M14.9 49.95 L10.6 47.15 Q8.1 45.75 5.4 44.55 2.65 43.35 0.05 42.65 -4.0 41.65 -7.25 41.6 L-12.85 42.15 Q-15.2 42.65 -16.65 43.35 -18.05 44.0 -18.4 44.4 L-19.35 45.5 -19.75 45.75 -19.7 45.1 -19.15 44.1 -18.4 43.05 -18.4 43.2 -18.2 43.4 -17.45 43.15 Q-15.1 41.95 -12.0 41.45 L-5.25 41.2 Q-1.65 41.4 2.15 42.45 5.95 43.5 9.65 45.4 13.35 47.25 16.65 50.05 L18.5 51.95 19.45 53.75 18.45 54.15 17.75 54.4 17.1 54.55 16.95 54.45 17.8 53.8 Q18.35 53.4 17.55 52.35 16.7 51.3 14.9 49.95" fill="#4f2765" fill-rule="evenodd" stroke="none"/>
      <path d="M43.05 4.2 Q39.6 2.8 35.5 2.0 L27.05 1.05 Q22.65 0.85 18.35 1.2 L10.05 2.3 Q6.05 3.15 2.8 4.4 1.2 6.1 0.45 8.25 -0.35 10.35 -0.45 12.35 -0.55 14.3 -0.15 15.55 0.25 16.85 1.05 16.9 0.1 19.1 -1.65 21.95 L-5.7 27.9 -10.3 33.9 -14.75 39.25 -18.4 43.05 -12.8 34.9 -8.3 27.5 -5.05 21.45 -3.1 17.4 Q-3.75 12.8 -2.2 9.1 -0.65 5.35 3.2 2.85 6.0 1.45 10.4 0.75 L23.45 -0.35 35.6 0.6 Q41.4 1.7 46.05 4.05 50.7 6.4 53.85 10.25 54.4 13.5 54.45 18.3 54.55 23.15 54.05 29.3 53.5 35.45 52.2 42.55 50.9 49.7 48.7 57.5 L48.5 57.8 48.05 57.95 47.45 57.45 Q46.25 55.75 44.0 54.6 41.75 53.5 38.9 52.9 L32.9 52.2 26.75 52.35 21.3 53.3 21.45 52.45 Q24.3 51.45 27.85 51.1 31.45 50.8 35.5 51.25 39.55 51.7 43.8 53.0 L44.5 53.25 45.2 53.25 45.8 52.65 Q47.1 49.4 48.05 45.3 L49.55 36.75 50.35 27.85 50.5 19.45 50.05 12.4 Q49.7 9.35 49.05 7.65 46.55 5.6 43.05 4.2" fill="#622973" fill-rule="evenodd" stroke="none"/>
      <path d="M38.25 27.9 Q37.8 27.9 36.35 28.55 L32.95 30.6 Q31.0 32.05 28.9 34.3 26.8 36.55 25.0 39.75 L26.55 35.3 28.25 31.15 30.0 27.65 31.95 27.6 35.35 27.9 36.05 27.95 36.65 27.95 36.7 27.75 35.6 27.4 32.65 26.85 29.2 26.7 26.0 26.9 24.95 27.25 Q24.75 27.5 25.05 27.65 L25.95 27.7 26.75 27.55 27.9 27.45 29.0 27.45 Q27.65 30.0 26.4 33.1 L24.1 39.5 22.1 45.95 Q22.5 40.35 22.5 36.6 L22.15 30.75 Q21.85 28.65 21.4 27.75 21.0 26.85 20.5 26.9 L19.25 26.7 17.65 26.2 Q16.9 25.95 16.7 25.6 16.5 25.25 17.3 24.95 L20.5 24.4 Q22.2 24.25 24.45 24.35 L29.3 24.65 34.25 25.25 38.65 25.95 41.75 26.65 Q42.85 26.95 43.0 27.15 L42.6 27.5 41.2 27.75 39.55 27.85 38.25 27.9" fill="#4f2765" fill-rule="evenodd" stroke="none"/>
      <path d="M-6.6 2.45 Q-9.7 6.2 -13.3 9.95 L-14.5 8.95 -13.95 7.95 Q-11.2 5.8 -8.25 2.55 -5.35 -0.65 -2.4 -4.65 L3.3 -13.05 Q3.25 -14.6 2.3 -15.45 1.3 -16.3 -0.25 -16.05 L1.75 -18.7 4.05 -18.0 6.05 -16.3 3.3 -11.3 -1.0 -4.8 Q-3.5 -1.3 -6.6 2.45" fill="#3d7db8" fill-rule="evenodd" stroke="none"/>
      <path d="M61.25 -20.7 L57.65 -20.3 Q55.1 -20.65 53.0 -21.85 50.9 -23.0 49.15 -24.6 L48.5 -24.9 48.4 -24.4 48.8 -23.6 Q47.95 -23.55 46.7 -24.15 45.45 -24.75 44.0 -25.6 L41.1 -27.05 Q41.35 -27.4 41.15 -28.2 L40.35 -30.0 39.05 -31.95 37.55 -33.55 39.5 -33.6 Q39.8 -32.0 40.35 -30.5 40.9 -28.95 41.8 -27.85 42.65 -26.75 43.95 -26.4 45.25 -26.05 47.05 -26.8 48.0 -25.8 49.0 -25.5 L50.8 -25.4 52.3 -25.8 Q52.5 -25.25 53.35 -24.8 54.15 -24.35 55.35 -24.25 L57.7 -24.5 Q58.95 -24.85 59.95 -25.95 59.6 -24.4 60.1 -23.35 60.6 -22.3 61.75 -22.0 62.85 -21.65 64.3 -22.4 62.95 -21.15 61.25 -20.7" fill="#b8d2ca" fill-rule="evenodd" stroke="none"/>
      <path d="M62.5 -33.3 Q62.0 -32.95 61.7 -31.9 L61.0 -29.3 60.7 -29.5 60.45 -29.55 60.75 -30.75 61.25 -31.85 61.65 -32.4 61.85 -32.7 61.5 -32.65 60.1 -30.85 Q59.4 -29.7 59.25 -28.5 59.2 -28.05 59.4 -28.05 L59.75 -28.6 Q59.9 -29.1 60.1 -28.9 L60.15 -28.2 Q59.85 -27.0 58.95 -26.2 58.05 -25.45 56.9 -25.15 L54.7 -25.25 Q53.7 -25.55 53.25 -26.55 L52.75 -28.35 Q53.2 -27.4 54.2 -26.95 L56.65 -26.8 Q57.7 -27.1 58.35 -27.95 L59.3 -29.85 60.05 -31.9 Q60.35 -32.9 60.85 -33.5 61.55 -34.2 62.1 -34.25 62.65 -34.3 62.8 -34.0 63.0 -33.7 62.5 -33.3" fill="#b8d2ca" fill-rule="evenodd" stroke="none"/>
      <path d="M36.7 -24.05 L35.8 -23.2 Q34.8 -22.45 33.75 -22.55 32.7 -22.65 31.9 -23.5 31.1 -24.35 30.85 -25.85 30.65 -27.35 30.95 -28.6 30.9 -27.25 31.25 -26.0 31.6 -24.75 32.35 -23.9 33.05 -23.05 34.15 -23.05 35.25 -23.0 36.7 -24.05" fill="#b8d2ca" fill-rule="evenodd" stroke="none"/>
      <path d="M44.5 -28.45 Q45.3 -28.55 45.45 -29.55 L45.4 -32.7 Q45.65 -30.15 46.7 -27.4 45.15 -26.6 43.85 -27.15 42.6 -27.75 41.75 -29.25 40.85 -30.8 40.4 -32.9 41.0 -31.35 41.8 -30.3 42.55 -29.3 43.3 -28.85 44.0 -28.4 44.5 -28.45" fill="#b8d2ca" fill-rule="evenodd" stroke="none"/>
      <path d="M52.1 -26.75 Q51.15 -26.1 50.05 -26.25 49.0 -26.4 48.15 -27.05 47.3 -27.7 47.05 -28.55 L46.5 -30.75 Q47.1 -29.5 48.0 -28.95 48.95 -28.4 49.75 -28.35 L51.0 -28.55 51.45 -29.3 51.75 -30.8 Q51.7 -29.6 51.8 -28.6 L52.1 -26.75" fill="#b8d2ca" fill-rule="evenodd" stroke="none"/>
      <path d="M-14.5 2.65 Q-12.15 5.5 -11.65 8.35 -11.1 11.2 -12.3 13.55 -13.5 15.95 -16.35 17.3 -18.35 18.2 -20.3 17.55 -22.3 16.9 -24.0 15.25 -25.7 13.55 -26.9 11.35 -28.05 9.15 -28.4 6.95 -28.75 4.7 -28.0 2.95 -27.2 1.25 -25.7 0.2 -24.2 -0.85 -22.25 -1.0 -20.3 -1.2 -18.3 -0.35 -16.25 0.5 -14.5 2.65" fill="#1d3f60" fill-rule="evenodd" stroke="none"/>
      <path d="M-12.45 8.35 Q-12.0 10.9 -13.05 13.0 -14.15 15.1 -16.7 16.3 L-20.3 16.55 Q-22.05 15.95 -23.6 14.45 -25.15 13.0 -26.2 11.0 -27.25 9.05 -27.55 7.1 -27.85 5.1 -27.2 3.55 -26.5 2.05 -25.1 1.15 -23.75 0.2 -22.0 0.05 -20.3 -0.1 -18.45 0.65 -16.65 1.4 -15.05 3.3 -12.95 5.85 -12.45 8.35" fill="#ffffff" fill-rule="evenodd" stroke="none"/>
      <path d="M-13.4 10.75 Q-12.65 9.8 -12.5 8.3 -12.0 10.85 -13.05 13.0 -14.1 15.1 -16.7 16.35 L-20.3 16.55 Q-22.05 15.95 -23.6 14.5 -25.15 13.0 -26.2 11.05 -27.25 9.1 -27.55 7.1 -27.85 5.15 -27.2 3.6 L-26.1 1.95 -24.5 0.8 Q-25.55 2.5 -25.0 4.5 -24.5 6.45 -22.85 8.25 -21.15 10.0 -18.75 11.15 -16.75 12.05 -15.45 11.9 -14.1 11.7 -13.4 10.75" fill="#b8d2ca" fill-rule="evenodd" stroke="none"/>
      <path d="M-24.1 4.65 Q-20.2 6.55 -18.1 9.35 -16.0 12.15 -15.5 15.45 -15.0 18.75 -16.0 22.1 -16.65 24.15 -17.9 26.0 -19.15 27.9 -20.7 29.55 L-23.95 32.65 -27.0 35.1 -29.35 36.8 Q-32.0 38.65 -34.3 39.3 L-38.8 39.75 Q-40.95 39.5 -43.05 38.65 -45.15 37.85 -47.35 36.7 L-49.15 37.2 -51.8 38.2 -54.75 39.35 -57.85 40.6 Q-59.45 41.25 -61.2 41.45 -62.9 41.65 -64.65 40.85 L-67.25 40.8 Q-68.6 40.45 -69.55 39.35 -70.5 38.25 -70.6 36.3 -70.65 32.55 -69.4 29.85 -68.15 27.15 -65.9 25.0 -63.65 22.9 -60.65 21.0 L-54.15 16.95 Q-52.55 15.95 -51.8 15.05 -51.05 14.15 -50.85 13.2 -50.7 12.25 -50.85 10.95 L-54.25 10.5 -58.05 10.1 Q-59.95 9.85 -61.25 9.2 -63.05 8.2 -64.05 6.75 -65.0 5.3 -65.2 3.75 -65.4 2.2 -64.95 0.9 -64.5 -0.4 -63.45 -1.1 -62.4 -1.75 -60.9 -1.45 L-56.25 -0.6 -50.6 0.1 -44.7 0.4 -39.4 -0.05 -30.75 0.35 Q-26.85 1.55 -24.1 4.65" fill="#1d3f60" fill-rule="evenodd" stroke="none"/>
      <path d="M-17.2 21.95 Q-18.0 24.4 -19.6 26.55 -21.2 28.7 -23.1 30.5 L-26.8 33.65 -29.7 35.75 Q-32.25 37.55 -34.55 38.2 L-38.9 38.65 Q-41.0 38.45 -43.05 37.65 L-47.25 35.8 -48.65 34.9 -49.9 33.45 Q-50.3 32.55 -49.8 31.15 -49.5 30.25 -48.65 29.3 -47.8 28.35 -46.5 27.7 -45.2 27.05 -43.5 27.05 -41.8 27.05 -39.7 28.0 -37.65 29.0 -35.3 31.3 L-34.65 31.55 Q-34.5 31.35 -35.0 30.7 L-35.5 30.0 -35.65 29.65 -35.55 28.45 -35.25 25.45 -35.0 21.7 -34.8 18.15 Q-34.75 16.0 -34.25 14.4 -33.75 12.8 -33.0 11.75 -32.25 10.65 -31.5 10.2 L-30.8 9.7 -31.15 9.8 Q-31.55 9.95 -31.8 10.15 -32.8 10.75 -33.65 11.6 -34.45 12.5 -35.0 13.95 -35.5 15.35 -35.65 17.65 L-36.0 23.75 -36.5 28.9 -40.2 26.85 Q-42.1 26.1 -44.0 26.1 -45.9 26.1 -47.6 27.25 -49.3 28.35 -50.65 30.9 -51.1 31.7 -51.0 32.7 -50.9 33.7 -50.3 34.6 -49.65 35.55 -48.5 36.1 L-51.5 37.25 -54.8 38.55 -57.1 39.45 -59.55 40.3 -61.95 40.6 Q-63.05 40.55 -64.0 39.85 -64.6 38.85 -64.75 37.25 -64.9 35.65 -64.35 33.95 -63.8 32.25 -62.25 30.95 -59.85 29.05 -56.0 27.35 -52.1 25.65 -46.75 24.55 L-45.35 24.65 -43.9 25.05 -43.15 25.0 Q-43.1 24.8 -43.5 24.7 L-44.3 24.3 -45.5 23.5 -46.75 22.55 -47.5 22.1 -47.75 22.35 -47.55 22.7 -47.05 23.25 -46.55 23.9 -52.85 25.55 Q-55.45 26.3 -57.25 27.05 -59.05 27.85 -60.3 28.6 L-62.65 30.3 Q-64.2 31.6 -65.05 33.3 -65.9 34.95 -65.9 36.75 -65.95 38.5 -65.05 40.1 L-67.05 39.9 Q-68.05 39.55 -68.75 38.65 -69.45 37.75 -69.5 36.2 -69.55 32.6 -68.25 29.95 -66.95 27.25 -64.6 25.15 -62.3 23.05 -59.3 21.15 L-52.9 17.2 Q-51.5 16.3 -50.85 15.3 -50.15 14.3 -50.0 13.2 L-49.9 10.95 -49.5 10.85 -48.8 10.75 Q-48.5 10.7 -48.7 10.55 L-50.0 10.15 -52.05 9.85 -55.05 9.55 -58.15 9.2 -60.4 8.55 Q-61.95 7.7 -62.85 6.45 -63.75 5.2 -64.05 3.85 -64.3 2.45 -64.0 1.35 -63.7 0.2 -62.8 -0.4 -61.9 -0.95 -60.4 -0.7 L-55.9 0.1 -50.4 0.8 -44.65 1.05 -39.5 0.65 -31.05 1.05 Q-27.25 2.25 -24.55 5.2 -20.8 7.05 -18.9 9.75 -16.95 12.4 -16.6 15.55 -16.2 18.75 -17.2 21.95" fill="#ffffff" fill-rule="evenodd" stroke="none"/>
      <path d="M-29.7 35.75 Q-32.25 37.55 -34.55 38.2 L-38.9 38.65 Q-41.0 38.45 -43.05 37.65 L-47.25 35.8 -48.65 34.9 -49.9 33.45 Q-50.3 32.55 -49.8 31.15 -49.75 32.05 -48.95 32.85 -48.15 33.6 -46.95 34.2 L-44.45 35.4 -42.0 36.4 Q-39.75 37.35 -37.15 37.05 -34.6 36.8 -31.25 35.15 -29.55 34.3 -27.45 32.5 L-23.15 28.3 Q-21.05 25.9 -19.25 23.2 -17.5 20.45 -16.5 17.8 -16.6 19.85 -17.2 21.95 -18.0 24.4 -19.6 26.55 -21.2 28.7 -23.1 30.5 L-26.8 33.65 -29.7 35.75" fill="#b8d2ca" fill-rule="evenodd" stroke="none"/>
      <path d="M-65.9 37.35 Q-65.8 38.85 -65.05 40.15 L-67.05 39.95 Q-68.05 39.6 -68.75 38.7 -69.45 37.8 -69.5 36.25 L-69.5 35.8 Q-68.9 36.95 -67.9 37.3 L-65.9 37.35" fill="#b8d2ca" fill-rule="evenodd" stroke="none"/>
      <path d="M-50.75 33.65 L-49.95 35.05 Q-49.4 35.65 -48.5 36.1 L-51.45 37.2 -54.8 38.55 -57.1 39.45 -59.55 40.3 -61.9 40.6 Q-63.05 40.5 -64.0 39.8 L-64.6 38.25 Q-63.7 39.0 -62.05 38.85 -60.45 38.65 -58.5 37.6 L-55.2 35.9 Q-53.5 35.0 -52.25 34.4 L-50.75 33.65" fill="#b8d2ca" fill-rule="evenodd" stroke="none"/>
      <path d="M-35.95 23.4 L-36.45 28.9 -38.15 27.85 -36.9 25.6 -35.95 23.4" fill="#b8d2ca" fill-rule="evenodd" stroke="none"/>
      <path d="M-44.5 10.45 L-43.0 11.1 Q-44.6 11.5 -45.75 12.5 -46.95 13.45 -47.8 14.55 L-49.3 16.55 Q-49.95 17.4 -50.5 17.6 L-52.2 18.15 -54.95 19.15 -58.2 20.45 -52.95 17.2 Q-51.55 16.3 -50.85 15.3 -50.2 14.25 -50.0 13.15 -49.85 12.05 -49.95 10.95 L-49.5 10.8 -48.8 10.75 Q-48.5 10.7 -48.7 10.55 L-50.0 10.1 -52.1 9.8 -55.1 9.55 -58.15 9.15 -60.45 8.55 Q-61.65 7.9 -62.5 6.9 L-63.75 4.9 -63.5 5.1 Q-62.5 6.15 -61.05 6.7 L-57.9 7.5 -54.7 7.7 -52.0 7.6 -49.5 8.0 -46.85 9.2 -44.5 10.45" fill="#b8d2ca" fill-rule="evenodd" stroke="none"/>
      <path d="M-3.15 64.55 L-4.5 69.1 Q-5.85 74.6 -6.4 78.8 -6.9 83.0 -7.0 85.95 L-7.1 90.65 Q-7.1 92.5 -7.4 93.25 -7.8 94.3 -9.8 95.7 -11.8 97.1 -15.45 98.5 -19.05 99.95 -24.3 101.0 L-38.75 102.85 Q-45.75 103.25 -52.05 102.55 -58.35 101.8 -63.65 99.85 -65.3 99.2 -66.15 98.25 -67.0 97.25 -67.25 96.2 -66.7 96.85 -65.95 97.1 L-64.5 97.45 Q-64.35 98.2 -63.3 98.85 L-60.8 100.05 -57.65 100.85 -54.55 101.1 -52.15 100.6 Q-50.4 101.25 -47.55 101.55 L-41.3 101.7 -34.0 101.15 -26.4 100.0 -19.2 98.3 Q-15.8 97.3 -13.15 96.1 -11.6 95.4 -10.8 94.5 -9.95 93.6 -9.7 92.15 -9.45 90.75 -9.5 88.5 L-9.65 82.95 Q-9.75 79.5 -8.85 75.55 -7.95 71.6 -6.5 67.6 L-3.6 60.0 -1.0 53.75 -2.35 52.3 Q-3.3 51.6 -4.45 51.1 -5.6 50.6 -6.85 50.4 L-4.15 45.6 -2.65 42.9 Q-1.25 42.85 0.9 43.5 3.1 44.15 5.65 45.75 L1.65 53.55 -1.2 59.6 -3.15 64.55" fill="#3d7db8" fill-rule="evenodd" stroke="none"/>
      <path d="M63.5 89.5 L50.7 90.35 Q43.95 90.5 37.15 90.25 L23.9 89.45 12.1 88.3 Q10.7 88.15 10.6 87.1 10.5 86.05 11.15 84.15 11.85 81.9 13.05 79.05 L15.8 72.95 18.85 66.65 21.85 60.75 24.35 56.05 25.95 53.1 29.35 52.7 Q31.2 52.55 33.5 52.75 L31.55 57.55 29.6 63.0 27.8 68.45 26.4 73.4 35.65 71.7 43.3 71.05 37.8 71.8 32.5 72.95 Q29.9 73.6 27.8 74.4 25.65 75.2 24.2 76.15 21.9 77.65 22.7 76.0 L25.4 69.9 27.7 64.15 29.4 59.6 30.35 57.15 27.65 56.8 Q26.4 57.05 25.45 57.8 L23.8 59.45 22.7 61.15 20.75 64.8 18.3 69.7 15.85 75.05 13.65 80.15 12.2 84.15 Q11.7 85.8 11.85 86.3 12.25 87.3 13.25 87.65 L15.4 88.1 17.35 88.15 22.95 88.5 29.85 88.9 37.3 89.25 44.55 89.5 50.95 89.55 55.65 89.3 Q57.55 89.1 58.0 88.65 58.3 89.0 59.25 89.15 L61.35 89.15 63.6 88.7 Q64.7 88.4 65.3 87.8 65.25 88.45 64.85 88.9 64.5 89.35 63.5 89.5" fill="#3d7db8" fill-rule="evenodd" stroke="none"/>
      <path d="M52.5 77.2 L52.35 76.9 53.0 77.15 Q54.95 78.5 56.15 80.25 57.3 82.05 57.85 84.0 58.35 85.9 58.35 87.65 L58.15 89.55 Q57.95 90.35 57.45 90.5 L56.6 90.65 55.95 90.75 57.05 89.7 Q57.5 89.05 57.5 87.75 L57.35 85.85 56.65 83.15 Q56.15 81.65 55.25 80.2 54.35 78.8 52.95 77.65 L52.5 77.2" fill="#1b2e54" fill-rule="evenodd" stroke="none"/>
      <path d="M-47.7 87.05 Q-47.45 87.1 -47.95 87.95 -50.1 91.15 -51.05 94.85 -52.05 98.55 -51.7 103.2 L-51.95 103.5 Q-52.2 103.55 -52.5 103.25 L-52.85 102.45 Q-53.1 99.95 -52.75 97.25 -52.35 94.55 -51.3 92.05 -50.25 89.5 -48.45 87.55 L-47.7 87.05" fill="#1b2e54" fill-rule="evenodd" stroke="none"/>
      <path d="M-57.05 83.5 L-57.75 84.25 Q-60.35 86.05 -61.7 88.45 -63.05 90.8 -63.55 93.7 -64.05 96.55 -64.15 99.85 -64.2 100.6 -64.55 100.45 L-64.9 99.5 -64.7 95.1 Q-64.5 92.8 -63.85 90.7 -63.15 88.55 -61.7 86.7 -60.25 84.9 -57.75 83.6 L-57.05 83.5" fill="#1b2e54" fill-rule="evenodd" stroke="none"/>
      <path d="M-2.3 -85.25 Q-1.85 -84.55 -1.9 -84.15 -1.9 -83.75 -2.6 -84.15 L-3.65 -84.9 -5.35 -86.05 -7.3 -86.85 -9.2 -86.7 Q-10.1 -86.3 -10.75 -85.0 -11.05 -84.3 -11.25 -84.4 L-11.6 -85.0 Q-11.7 -85.3 -11.95 -85.2 L-12.6 -84.45 -13.3 -82.3 -13.9 -78.9 -14.4 -74.9 -14.85 -71.0 -15.2 -67.65 -15.45 -65.5 -15.4 -63.85 Q-15.25 -63.1 -14.95 -62.85 -14.6 -62.6 -14.2 -63.3 -13.8 -64.0 -13.35 -66.0 L-13.05 -67.3 -12.95 -67.35 -12.95 -66.55 -13.35 -60.5 -13.7 -53.7 Q-13.9 -50.25 -14.45 -47.1 -15.0 -43.9 -16.1 -41.45 -17.2 -39.0 -19.1 -37.65 -20.95 -36.35 -22.3 -35.95 L-24.45 -35.65 Q-25.25 -35.8 -25.65 -36.2 L-26.2 -36.7 -26.3 -36.2 -26.05 -34.95 Q-25.8 -34.25 -25.15 -33.65 -24.45 -33.05 -23.15 -32.85 L-19.65 -33.15 Q-21.2 -32.5 -22.65 -32.45 L-25.15 -32.9 Q-26.8 -33.55 -27.1 -34.85 -27.45 -36.15 -26.85 -38.0 L-25.1 -42.2 -22.55 -47.35 -19.85 -53.35 Q-17.75 -58.7 -16.65 -63.7 -15.6 -68.75 -15.05 -73.35 L-13.95 -82.05 Q-13.4 -86.1 -11.65 -87.6 -9.9 -89.05 -7.45 -88.35 -5.0 -87.7 -2.3 -85.25" fill="#502f4b" fill-rule="evenodd" stroke="none"/>
    </g>
  </defs>
</svg>
