<?xml version="1.0" encoding="UTF-8" standalone="no"?>
<svg xmlns:xlink="http://www.w3.org/1999/xlink" height="163.75px" width="123.65px" xmlns="http://www.w3.org/2000/svg">
  <g transform="matrix(1.0, 0.0, 0.0, 1.0, 61.85, 75.8)">
    <use data-characterId="17" height="126.7" transform="matrix(1.0, 0.0, 0.0, 1.0, -61.85, -75.8)" width="123.65" xlink:href="#shape0"/>
    <use data-characterId="18" height="61.45" transform="matrix(1.0005, 0.0, 0.0, 1.0005, -36.8697, -30.2662)" width="73.75" xlink:href="#shape1"/>
    <clipPath id="clipPath0" transform="matrix(1.0, 0.0, 0.0, 1.0, 0.0, 0.0)">
      <path d="M7.15 -9.15 Q4.9 -13.5 6.5 -17.9 8.15 -22.4 12.85 -24.25 L22.05 -24.5 22.55 -24.35 Q27.55 -22.5 29.95 -18.0 32.35 -13.55 30.75 -9.05 29.05 -4.55 24.4 -2.65 19.9 -0.9 15.15 -2.45 18.0 1.85 18.05 7.35 18.0 14.7 12.8 19.9 7.6 25.2 0.25 25.2 -7.15 25.2 -12.4 19.9 -17.0 15.3 -17.55 9.05 L-17.6 7.35 Q-17.6 5.2 -17.15 3.25 L-16.9 2.15 Q-16.15 -0.4 -14.6 -2.65 L-15.8 -2.25 Q-20.2 -1.05 -24.4 -2.65 -26.0 -3.35 -27.25 -4.3 -29.65 -6.15 -30.7 -9.05 -32.3 -13.55 -29.95 -18.0 -27.55 -22.5 -22.55 -24.35 -18.55 -25.8 -14.7 -24.85 L-14.65 -24.85 -12.8 -24.25 Q-8.1 -22.4 -6.45 -17.9 -5.05 -13.95 -6.7 -9.95 L-7.2 -8.9 Q-4.55 -10.15 -1.55 -10.4 L0.25 -10.45 1.75 -10.4 Q4.6 -10.2 7.15 -9.15" fill="#000000" fill-rule="evenodd" stroke="none"/>
    </clipPath>
    <g clip-path="url(#clipPath0)">
      <use data-characterId="25" height="95.75" id="m_water" transform="matrix(-0.673, 0.0, 0.0, 0.6736, 32.3239, 23.4804)" width="96.5" xlink:href="#sprite0"/>
    </g>
    <use data-characterId="30" height="47.0" transform="matrix(0.6, 0.0, 0.0, 0.6, -41.4799, -59.3398)" width="137.7" xlink:href="#sprite1"/>
    <use data-characterId="31" height="7.8" transform="matrix(1.0, 0.0, 0.0, 1.0, -4.2, 13.35)" width="8.45" xlink:href="#shape7"/>
    <use data-characterId="33" height="25.0" id="txt_percent" transform="matrix(1.0, 0.0, 0.0, 1.0, -19.5, -6.5)" width="41.0" xlink:href="#text0"/>
  </g>
  <defs>
    <g id="shape0" transform="matrix(1.0, 0.0, 0.0, 1.0, 61.85, 75.8)">
      <path d="M50.95 -74.95 Q60.95 -74.95 60.95 -64.95 L60.95 40.05 Q60.95 50.05 50.95 50.05 L-51.0 50.05 Q-61.0 50.05 -61.0 40.05 L-61.0 -64.95 Q-61.0 -74.95 -51.0 -74.95 L50.95 -74.95" fill="#ffffff" fill-rule="evenodd" stroke="none"/>
      <path d="M50.95 -74.95 L-51.0 -74.95 Q-61.0 -74.95 -61.0 -64.95 L-61.0 40.05 Q-61.0 50.05 -51.0 50.05 L50.95 50.05 Q60.95 50.05 60.95 40.05 L60.95 -64.95 Q60.95 -74.95 50.95 -74.95 Z" fill="none" stroke="#000000" stroke-linecap="round" stroke-linejoin="round" stroke-opacity="0.17254902" stroke-width="1.75"/>
      <path d="M46.45 -67.95 Q53.45 -67.95 53.45 -60.95 L53.45 35.05 Q53.45 42.05 46.45 42.05 L-46.5 42.05 Q-53.5 42.05 -53.5 35.05 L-53.5 -60.95 Q-53.5 -67.95 -46.5 -67.95 L46.45 -67.95" fill="#ffcc00" fill-rule="evenodd" stroke="none"/>
    </g>
    <g id="shape1" transform="matrix(1.0, 0.0, 0.0, 1.0, 36.85, 30.25)">
      <path d="M23.75 -28.15 L24.2 -28.0 24.5 -27.85 Q30.85 -25.45 33.95 -19.55 L33.9 -19.6 Q37.25 -13.45 35.0 -7.2 L34.95 -6.95 Q32.6 -0.65 26.05 2.05 L26.05 2.1 22.05 3.15 Q22.5 5.35 22.55 7.85 L22.55 7.9 Q22.5 17.05 16.05 23.6 L15.7 23.9 Q9.25 30.15 0.3 30.2 L0.25 30.2 Q-9.05 30.15 -15.55 23.65 -21.4 17.8 -22.05 10.0 L-22.05 9.8 -22.1 7.85 Q-22.1 5.4 -21.6 3.15 -23.8 2.9 -25.95 2.1 L-26.1 2.0 -26.15 2.0 -26.2 1.95 Q-28.3 1.0 -29.9 -0.2 -33.25 -2.8 -34.75 -6.7 L-34.9 -7.0 Q-37.25 -13.35 -33.85 -19.6 L-33.85 -19.55 Q-30.8 -25.6 -24.05 -28.0 L-24.1 -28.0 Q-19.0 -29.95 -14.05 -28.85 L-12.4 -28.35 -11.15 -27.95 -10.75 -27.75 Q-4.45 -25.15 -2.2 -18.9 L-2.2 -18.8 -2.15 -18.8 Q-1.45 -16.6 -1.3 -14.4 L0.1 -14.45 0.2 -14.45 0.3 -14.45 1.35 -14.45 Q1.45 -16.7 2.3 -18.95 L2.3 -18.9 Q4.55 -25.3 11.2 -27.85 L11.25 -27.85 Q17.0 -30.2 23.15 -28.3 L23.75 -28.15 M-1.65 -12.4 L-1.8 -14.35 -1.75 -14.35 -1.85 -14.35 -1.8 -12.4 -1.75 -12.4 -1.8 -12.35 -1.65 -12.4" fill="#000000" fill-rule="evenodd" stroke="none"/>
      <path d="M23.75 -28.15 L23.15 -28.3 Q17.0 -30.2 11.25 -27.85 L11.2 -27.85 Q4.55 -25.3 2.3 -18.9 L2.3 -18.95 Q1.45 -16.7 1.35 -14.45 L0.3 -14.45 0.2 -14.45 0.1 -14.45 -1.3 -14.4 Q-1.45 -16.6 -2.15 -18.8 L-2.2 -18.8 -2.2 -18.9 Q-4.45 -25.15 -10.75 -27.75 L-11.15 -27.95 -12.4 -28.35 -14.05 -28.85 Q-19.0 -29.95 -24.1 -28.0 L-24.05 -28.0 Q-30.8 -25.6 -33.85 -19.55 L-33.85 -19.6 Q-37.25 -13.35 -34.9 -7.0 L-34.75 -6.7 Q-33.25 -2.8 -29.9 -0.2 -28.3 1.0 -26.2 1.95 L-26.15 2.0 -26.1 2.0 -25.95 2.1 Q-23.8 2.9 -21.6 3.15 -22.1 5.4 -22.1 7.85 L-22.05 9.8 -22.05 10.0 Q-21.4 17.8 -15.55 23.65 -9.05 30.15 0.25 30.2 L0.3 30.2 Q9.25 30.15 15.7 23.9 L16.05 23.6 Q22.5 17.05 22.55 7.9 L22.55 7.85 Q22.5 5.35 22.05 3.15 L26.05 2.1 26.05 2.05 Q32.6 -0.65 34.95 -6.95 L35.0 -7.2 Q37.25 -13.45 33.9 -19.6 L33.95 -19.55 Q30.85 -25.45 24.5 -27.85 L24.2 -28.0 23.75 -28.15 Z" fill="none" stroke="#000000" stroke-linecap="round" stroke-linejoin="round" stroke-opacity="0.2509804" stroke-width="2.0"/>
      <path d="M-1.8 -14.85 L-1.75 -14.85 -1.85 -14.85 -1.8 -12.9 -1.75 -12.9 -1.8 -12.85 -1.65 -12.9 -1.8 -14.85 M23.75 -28.65 L24.2 -28.5 24.5 -28.35 Q30.85 -25.95 33.95 -20.05 L33.9 -20.1 Q37.25 -13.95 35.0 -7.7 L34.95 -7.45 Q32.6 -1.15 26.05 1.55 L26.05 1.6 22.05 2.65 Q22.5 4.85 22.55 7.35 L22.55 7.4 Q22.5 16.55 16.05 23.1 L15.7 23.4 Q9.25 29.65 0.3 29.7 L0.25 29.7 Q-9.05 29.65 -15.55 23.15 -21.4 17.3 -22.05 9.5 L-22.05 9.3 -22.1 7.35 Q-22.1 4.9 -21.6 2.65 -23.8 2.4 -25.95 1.6 L-26.1 1.5 -26.15 1.5 -26.2 1.45 Q-28.3 0.5 -29.9 -0.7 -33.25 -3.3 -34.75 -7.2 L-34.9 -7.5 Q-37.25 -13.85 -33.85 -20.1 L-33.85 -20.05 Q-30.8 -26.1 -24.05 -28.5 L-24.1 -28.5 Q-19.0 -30.45 -14.05 -29.35 L-12.4 -28.85 -11.15 -28.45 -10.75 -28.25 Q-4.45 -25.65 -2.2 -19.4 L-2.2 -19.3 -2.15 -19.3 Q-1.45 -17.1 -1.3 -14.9 L0.1 -14.95 0.2 -14.95 0.3 -14.95 1.35 -14.95 Q1.45 -17.2 2.3 -19.45 L2.3 -19.4 Q4.55 -25.8 11.2 -28.35 L11.25 -28.35 Q17.0 -30.7 23.15 -28.8 L23.75 -28.65" fill="#ff9900" fill-rule="evenodd" stroke="none"/>
      <path d="M1.75 -10.4 Q4.6 -10.2 7.15 -9.15 4.9 -13.5 6.5 -17.9 8.15 -22.4 12.85 -24.2 17.3 -26.0 22.05 -24.5 L22.55 -24.3 Q27.55 -22.45 29.95 -18.0 32.35 -13.55 30.7 -9.05 29.0 -4.55 24.35 -2.65 19.9 -0.9 15.15 -2.45 18.0 1.85 18.05 7.35 18.0 14.7 12.8 19.9 7.6 25.15 0.25 25.2 -7.15 25.15 -12.4 19.9 -17.0 15.3 -17.55 9.05 L-17.6 7.35 Q-17.6 5.2 -17.15 3.25 L-16.9 2.15 Q-16.15 -0.4 -14.6 -2.65 L-15.8 -2.25 Q-20.2 -1.05 -24.35 -2.65 -25.95 -3.35 -27.2 -4.3 -29.6 -6.15 -30.7 -9.05 -32.3 -13.55 -29.9 -18.0 -27.55 -22.5 -22.55 -24.3 -18.55 -25.8 -14.7 -24.85 L-14.65 -24.8 -12.8 -24.25 Q-8.1 -22.4 -6.45 -17.9 -5.05 -13.95 -6.7 -9.95 L-7.2 -8.9 Q-4.55 -10.15 -1.55 -10.4 L0.25 -10.45 1.75 -10.4" fill="#000000" fill-rule="evenodd" stroke="none"/>
      <path d="M1.75 -10.4 Q4.6 -10.2 7.15 -9.15 4.9 -13.5 6.5 -17.9 8.15 -22.4 12.85 -24.2 17.3 -26.0 22.05 -24.5 L22.55 -24.3 Q27.55 -22.45 29.95 -18.0 32.35 -13.55 30.7 -9.05 29.0 -4.55 24.35 -2.65 19.9 -0.9 15.15 -2.45 18.0 1.85 18.05 7.35 18.0 14.7 12.8 19.9 7.6 25.15 0.25 25.2 -7.15 25.15 -12.4 19.9 -17.0 15.3 -17.55 9.05 L-17.6 7.35 Q-17.6 5.2 -17.15 3.25 L-16.9 2.15 Q-16.15 -0.4 -14.6 -2.65 L-15.8 -2.25 Q-20.2 -1.05 -24.35 -2.65 -25.95 -3.35 -27.2 -4.3 -29.6 -6.15 -30.7 -9.05 -32.3 -13.55 -29.9 -18.0 -27.55 -22.5 -22.55 -24.3 -18.55 -25.8 -14.7 -24.85 L-14.65 -24.8 -12.8 -24.25 Q-8.1 -22.4 -6.45 -17.9 -5.05 -13.95 -6.7 -9.95 L-7.2 -8.9 Q-4.55 -10.15 -1.55 -10.4 L0.25 -10.45 1.75 -10.4 Z" fill="none" stroke="#ffffff" stroke-linecap="round" stroke-linejoin="round" stroke-width="5.0"/>
      <path d="M1.75 -10.4 Q4.6 -10.2 7.15 -9.15 4.9 -13.5 6.5 -17.9 8.15 -22.4 12.85 -24.2 17.3 -26.0 22.05 -24.5 L22.55 -24.3 Q27.55 -22.45 29.95 -18.0 32.35 -13.55 30.7 -9.05 29.0 -4.55 24.35 -2.65 19.9 -0.9 15.15 -2.45 18.0 1.85 18.05 7.35 18.0 14.7 12.8 19.9 7.6 25.15 0.25 25.2 -7.15 25.15 -12.4 19.9 -17.0 15.3 -17.55 9.05 L-17.6 7.35 Q-17.6 5.2 -17.15 3.25 L-16.9 2.15 Q-16.15 -0.4 -14.6 -2.65 L-15.8 -2.25 Q-20.2 -1.05 -24.35 -2.65 -25.95 -3.35 -27.2 -4.3 -29.6 -6.15 -30.7 -9.05 -32.3 -13.55 -29.9 -18.0 -27.55 -22.5 -22.55 -24.3 -18.55 -25.8 -14.7 -24.85 L-14.65 -24.8 -12.8 -24.25 Q-8.1 -22.4 -6.45 -17.9 -5.05 -13.95 -6.7 -9.95 L-7.2 -8.9 Q-4.55 -10.15 -1.55 -10.4 L0.25 -10.45 1.75 -10.4" fill="#ff6600" fill-rule="evenodd" stroke="none"/>
    </g>
    <g id="sprite0" transform="matrix(1.0, 0.0, 0.0, 1.0, 48.25, 51.25)">
      <use data-characterId="20" height="95.75" transform="matrix(1.0, 0.0, 0.0, 1.0, -48.25, -51.25)" width="96.5" xlink:href="#morphshape0"/>
    </g>
    <g id="morphshape0" transform="matrix(1.0, 0.0, 0.0, 1.0, 48.25, 51.25)">
      <path d="M-48.25 -50.0 L-48.25 -49.9 -48.25 35.4 Q-48.25 36.9 -48.25 38.4 -48.25 39.45 -48.25 40.5 L-48.1 41.65 Q-47.8 42.6 -47.1 43.3 -45.9 44.5 -44.25 44.5 1.1 40.75 39.45 44.0 40.95 44.15 42.45 44.3 43.35 44.4 44.25 44.5 L45.7 44.25 Q46.45 43.95 47.05 43.3 48.25 42.15 48.25 40.5 L48.25 -38.0 Q48.25 -41.25 48.25 -44.5 40.85 -38.85 31.2 -37.3 19.7 -35.4 4.9 -39.4 L-1.25 -41.25 Q-12.15 -45.95 -22.05 -48.25 -36.25 -51.6 -48.25 -50.0" fill="#66ccff" fill-rule="evenodd" stroke="none"/>
      <path d="M-48.25 -50.0 Q-36.25 -51.6 -22.05 -48.25 -12.15 -45.95 -1.25 -41.25 L4.9 -39.4 Q19.7 -35.4 31.2 -37.3 40.85 -38.85 48.25 -44.5 48.25 -41.25 48.25 -38.0 L48.25 40.5 Q48.25 42.15 47.05 43.3 46.45 43.95 45.7 44.25 L44.25 44.5 Q43.35 44.4 42.45 44.3 40.95 44.15 39.45 44.0 1.1 40.75 -44.25 44.5 -45.9 44.5 -47.1 43.3 -47.8 42.6 -48.1 41.65 L-48.25 40.5 Q-48.25 39.45 -48.25 38.4 -48.25 36.9 -48.25 35.4 L-48.25 -49.9 -48.25 -50.0 Z" fill="none" stroke="#66ccff" stroke-linecap="round" stroke-linejoin="round" stroke-opacity="0.0" stroke-width="1.0"/>
    </g>
    <g id="sprite1" transform="matrix(1.0, 0.0, 0.0, 1.0, 13.3, 23.15)">
      <use data-characterId="26" height="26.9" transform="matrix(1.0, 0.0, 0.0, 1.0, -13.3, -13.15)" width="26.85" xlink:href="#shape3"/>
      <use data-characterId="27" height="25.85" transform="matrix(1.0, 0.0, 0.0, 1.0, 14.05, -18.95)" width="27.75" xlink:href="#shape4"/>
      <use data-characterId="28" height="26.2" transform="matrix(1.0, 0.0, 0.0, 1.0, 42.35, -22.55)" width="27.35" xlink:href="#shape5"/>
      <use data-characterId="27" height="25.85" transform="matrix(1.0, 0.0, 0.0, 1.0, 70.0, -17.05)" width="27.75" xlink:href="#shape4"/>
      <use data-characterId="29" height="27.0" transform="matrix(1.0, 0.0, 0.0, 1.0, 98.8, -3.15)" width="25.6" xlink:href="#shape6"/>
    </g>
    <g id="shape3" transform="matrix(1.0, 0.0, 0.0, 1.0, 13.3, 13.15)">
      <path d="M5.85 -9.3 L9.15 -9.3 Q10.0 -9.3 10.35 -8.95 10.7 -8.6 10.7 -7.6 L10.4 -6.4 Q10.0 -5.85 9.15 -5.85 L6.0 -5.85 6.0 -5.4 8.5 -5.4 Q9.3 -5.4 9.65 -5.0 9.95 -4.7 9.95 -3.75 9.95 -3.0 9.65 -2.6 9.3 -2.1 8.5 -2.1 L-1.15 -2.1 Q-1.85 -2.1 -2.2 -2.45 -2.55 -2.85 -2.55 -3.75 -2.55 -4.7 -2.2 -5.0 -1.85 -5.4 -1.15 -5.4 L1.05 -5.4 1.05 -5.85 -1.6 -5.85 Q-2.35 -5.85 -2.75 -6.25 -3.1 -6.6 -3.1 -7.6 -3.1 -8.6 -2.75 -8.95 L-1.6 -9.3 1.2 -9.3 1.6 -10.05 Q2.1 -10.65 3.45 -10.65 4.9 -10.65 5.4 -10.05 L5.85 -9.3 M-3.2 7.75 L-3.2 8.05 -2.85 7.75 Q-1.75 7.15 -1.3 6.3 L-0.85 4.65 -1.3 4.65 -2.8 4.3 Q-3.3 3.9 -3.3 3.15 L-3.3 1.4 Q-3.3 -1.6 -1.05 -1.6 L8.4 -1.6 Q10.7 -1.6 10.7 1.4 L10.7 3.05 Q10.7 3.9 10.15 4.2 L8.7 4.55 7.05 4.25 7.05 7.0 7.3 7.3 7.4 7.3 7.8 7.05 8.05 6.25 Q8.3 5.7 9.35 5.6 10.05 5.65 10.6 6.0 11.0 6.35 11.05 7.0 11.05 8.7 10.4 9.8 9.7 10.95 7.8 11.15 L6.0 11.15 Q4.5 11.15 3.85 10.4 3.25 9.85 3.25 8.45 L3.25 4.0 Q3.25 3.45 3.75 2.95 4.2 2.6 5.15 2.6 5.95 2.6 6.45 2.95 L6.75 3.2 6.75 2.05 Q6.75 1.55 6.15 1.55 L1.1 1.55 Q0.65 1.55 0.65 2.05 L0.65 2.5 0.95 2.5 Q1.9 2.55 2.45 3.0 2.9 3.3 2.9 4.1 L2.75 5.7 Q2.45 7.55 1.75 8.8 1.05 10.05 0.1 10.75 -0.5 11.25 -0.85 11.25 -2.0 11.2 -2.9 10.3 L-3.25 9.8 Q-3.5 11.05 -5.0 11.05 L-9.05 11.05 Q-10.8 11.05 -10.8 9.25 L-10.8 4.85 Q-10.8 3.05 -9.05 3.05 L-8.6 3.05 Q-10.4 4.15 -10.4 7.55 -10.2 10.85 -7.05 10.85 -5.2 10.85 -3.95 9.1 L-3.2 7.75 M-7.45 2.6 L-9.3 2.6 -10.2 2.3 -10.5 1.2 Q-10.5 0.45 -10.2 0.15 L-9.3 -0.1 -4.7 -0.1 -3.75 0.15 Q-3.5 0.45 -3.5 1.2 L-3.7 2.15 Q-4.05 2.6 -4.7 2.6 L-5.35 2.6 -6.45 2.5 -7.45 2.6 M-10.2 -3.0 L-9.3 -3.3 -4.6 -3.3 -3.65 -3.0 Q-3.4 -2.75 -3.4 -2.0 -3.4 -1.35 -3.6 -1.05 -3.95 -0.55 -4.6 -0.55 L-9.3 -0.55 Q-9.9 -0.55 -10.2 -0.9 -10.5 -1.2 -10.5 -2.0 -10.5 -2.75 -10.2 -3.0 M-10.6 -6.55 L-9.6 -6.85 -4.2 -6.85 -3.2 -6.55 Q-2.95 -6.25 -2.95 -5.4 L-3.15 -4.3 Q-3.5 -3.75 -4.2 -3.75 L-9.6 -3.75 Q-10.2 -3.75 -10.6 -4.15 -10.9 -4.5 -10.9 -5.4 -10.9 -6.25 -10.6 -6.55 M-3.65 -9.85 Q-3.3 -9.6 -3.3 -8.75 L-3.5 -7.75 Q-3.8 -7.35 -4.5 -7.35 L-9.2 -7.35 Q-9.75 -7.35 -10.1 -7.65 -10.4 -7.95 -10.4 -8.75 L-10.1 -9.9 -9.2 -10.15 -4.5 -10.15 Q-3.9 -10.15 -3.65 -9.85" fill="#3399ff" fill-rule="evenodd" stroke="none"/>
      <path d="M-8.6 3.05 Q-8.1 2.75 -7.45 2.6 L-6.45 2.5 -5.35 2.6 Q-4.4 2.8 -3.8 3.4 L-3.35 4.0 Q-2.85 4.85 -2.9 6.25 -2.9 7.0 -3.2 7.75 L-3.95 9.1 Q-5.2 10.85 -7.05 10.85 -10.2 10.85 -10.4 7.55 -10.4 4.15 -8.6 3.05" fill="#ffffff" fill-rule="evenodd" stroke="none"/>
      <path d="M5.85 -9.3 L9.15 -9.3 Q10.0 -9.3 10.35 -8.95 10.7 -8.6 10.7 -7.6 L10.4 -6.4 Q10.0 -5.85 9.15 -5.85 L6.0 -5.85 6.0 -5.4 8.5 -5.4 Q9.3 -5.4 9.65 -5.0 9.95 -4.7 9.95 -3.75 9.95 -3.0 9.65 -2.6 9.3 -2.1 8.5 -2.1 L-1.15 -2.1 Q-1.85 -2.1 -2.2 -2.45 -2.55 -2.85 -2.55 -3.75 -2.55 -4.7 -2.2 -5.0 -1.85 -5.4 -1.15 -5.4 L1.05 -5.4 1.05 -5.85 -1.6 -5.85 Q-2.35 -5.85 -2.75 -6.25 -3.1 -6.6 -3.1 -7.6 -3.1 -8.6 -2.75 -8.95 L-1.6 -9.3 1.2 -9.3 1.6 -10.05 Q2.1 -10.65 3.45 -10.65 4.9 -10.65 5.4 -10.05 L5.85 -9.3 M-3.2 7.75 L-3.2 8.05 -2.85 7.75 Q-1.75 7.15 -1.3 6.3 L-0.85 4.65 -1.3 4.65 -2.8 4.3 Q-3.3 3.9 -3.3 3.15 L-3.3 1.4 Q-3.3 -1.6 -1.05 -1.6 L8.4 -1.6 Q10.7 -1.6 10.7 1.4 L10.7 3.05 Q10.7 3.9 10.15 4.2 L8.7 4.55 7.05 4.25 7.05 7.0 7.3 7.3 7.4 7.3 7.8 7.05 8.05 6.25 Q8.3 5.7 9.35 5.6 10.05 5.65 10.6 6.0 11.0 6.35 11.05 7.0 11.05 8.7 10.4 9.8 9.7 10.95 7.8 11.15 L6.0 11.15 Q4.5 11.15 3.85 10.4 3.25 9.85 3.25 8.45 L3.25 4.0 Q3.25 3.45 3.75 2.95 4.2 2.6 5.15 2.6 5.95 2.6 6.45 2.95 L6.75 3.2 6.75 2.05 Q6.75 1.55 6.15 1.55 L1.1 1.55 Q0.65 1.55 0.65 2.05 L0.65 2.5 0.95 2.5 Q1.9 2.55 2.45 3.0 2.9 3.3 2.9 4.1 L2.75 5.7 Q2.45 7.55 1.75 8.8 1.05 10.05 0.1 10.75 -0.5 11.25 -0.85 11.25 -2.0 11.2 -2.9 10.3 L-3.25 9.8 Q-3.5 11.05 -5.0 11.05 L-9.05 11.05 Q-10.8 11.05 -10.8 9.25 L-10.8 4.85 Q-10.8 3.05 -9.05 3.05 L-8.6 3.05 M-3.8 3.4 L-3.35 4.0 M-10.2 -3.0 L-9.3 -3.3 -4.6 -3.3 -3.65 -3.0 Q-3.4 -2.75 -3.4 -2.0 -3.4 -1.35 -3.6 -1.05 -3.95 -0.55 -4.6 -0.55 L-9.3 -0.55 Q-9.9 -0.55 -10.2 -0.9 -10.5 -1.2 -10.5 -2.0 -10.5 -2.75 -10.2 -3.0 M-3.65 -9.85 Q-3.3 -9.6 -3.3 -8.75 L-3.5 -7.75 Q-3.8 -7.35 -4.5 -7.35 L-9.2 -7.35 Q-9.75 -7.35 -10.1 -7.65 -10.4 -7.95 -10.4 -8.75 L-10.1 -9.9 -9.2 -10.15 -4.5 -10.15 Q-3.9 -10.15 -3.65 -9.85 Z" fill="none" stroke="#ffffff" stroke-linecap="round" stroke-linejoin="round" stroke-width="5.0"/>
      <path d="M5.85 -9.3 L9.15 -9.3 Q10.0 -9.3 10.35 -8.95 10.7 -8.6 10.7 -7.6 L10.4 -6.4 Q10.0 -5.85 9.15 -5.85 L6.0 -5.85 6.0 -5.4 8.5 -5.4 Q9.3 -5.4 9.65 -5.0 9.95 -4.7 9.95 -3.75 9.95 -3.0 9.65 -2.6 9.3 -2.1 8.5 -2.1 L-1.15 -2.1 Q-1.85 -2.1 -2.2 -2.45 -2.55 -2.85 -2.55 -3.75 -2.55 -4.7 -2.2 -5.0 -1.85 -5.4 -1.15 -5.4 L1.05 -5.4 1.05 -5.85 -1.6 -5.85 Q-2.35 -5.85 -2.75 -6.25 -3.1 -6.6 -3.1 -7.6 -3.1 -8.6 -2.75 -8.95 L-1.6 -9.3 1.2 -9.3 1.6 -10.05 Q2.1 -10.65 3.45 -10.65 4.9 -10.65 5.4 -10.05 L5.85 -9.3 M10.4 9.8 Q9.7 10.95 7.8 11.15 L6.0 11.15 Q4.5 11.15 3.85 10.4 3.25 9.85 3.25 8.45 L3.25 4.0 Q3.25 3.45 3.75 2.95 4.2 2.6 5.15 2.6 5.95 2.6 6.45 2.95 L6.75 3.2 6.75 2.05 Q6.75 1.55 6.15 1.55 L1.1 1.55 Q0.65 1.55 0.65 2.05 L0.65 2.5 0.95 2.5 Q1.9 2.55 2.45 3.0 2.9 3.3 2.9 4.1 L2.75 5.7 Q2.45 7.55 1.75 8.8 1.05 10.05 0.1 10.75 -0.5 11.25 -0.85 11.25 -2.0 11.2 -2.9 10.3 L-3.25 9.8 Q-3.5 11.05 -5.0 11.05 L-9.05 11.05 Q-10.8 11.05 -10.8 9.25 L-10.8 4.85 Q-10.8 3.05 -9.05 3.05 L-5.0 3.05 Q-3.2 3.05 -3.2 4.85 L-3.2 8.05 -2.85 7.75 Q-1.75 7.15 -1.3 6.3 L-0.85 4.65 -1.3 4.65 -2.8 4.3 Q-3.3 3.9 -3.3 3.15 L-3.3 1.4 Q-3.3 -1.6 -1.05 -1.6 L8.4 -1.6 Q10.7 -1.6 10.7 1.4 L10.7 3.05 Q10.7 3.9 10.15 4.2 L8.7 4.55 7.05 4.25 7.05 7.0 7.3 7.3 7.4 7.3 7.8 7.05 8.05 6.25 Q8.3 5.7 9.35 5.6 10.05 5.65 10.6 6.0 11.0 6.35 11.05 7.0 11.05 8.7 10.4 9.8 M-10.6 -6.55 L-9.6 -6.85 -4.2 -6.85 -3.2 -6.55 Q-2.95 -6.25 -2.95 -5.4 L-3.15 -4.3 Q-3.5 -3.75 -4.2 -3.75 L-9.6 -3.75 Q-10.2 -3.75 -10.6 -4.15 -10.9 -4.5 -10.9 -5.4 -10.9 -6.25 -10.6 -6.55 M-10.2 -3.0 L-9.3 -3.3 -4.6 -3.3 -3.65 -3.0 Q-3.4 -2.75 -3.4 -2.0 -3.4 -1.35 -3.6 -1.05 -3.95 -0.55 -4.6 -0.55 L-9.3 -0.55 Q-9.9 -0.55 -10.2 -0.9 -10.5 -1.2 -10.5 -2.0 -10.5 -2.75 -10.2 -3.0 M-3.65 -9.85 Q-3.3 -9.6 -3.3 -8.75 L-3.5 -7.75 Q-3.8 -7.35 -4.5 -7.35 L-9.2 -7.35 Q-9.75 -7.35 -10.1 -7.65 -10.4 -7.95 -10.4 -8.75 L-10.1 -9.9 -9.2 -10.15 -4.5 -10.15 Q-3.9 -10.15 -3.65 -9.85 M-4.7 -0.1 L-3.75 0.15 Q-3.5 0.45 -3.5 1.2 L-3.7 2.15 Q-4.05 2.6 -4.7 2.6 L-9.3 2.6 -10.2 2.3 -10.5 1.2 Q-10.5 0.45 -10.2 0.15 L-9.3 -0.1 -4.7 -0.1 M-7.05 6.15 Q-7.5 6.15 -7.5 6.6 L-7.5 7.5 Q-7.5 7.95 -7.05 7.95 L-6.95 7.95 Q-6.5 7.95 -6.5 7.5 L-6.5 6.6 Q-6.5 6.15 -6.95 6.15 L-7.05 6.15" fill="#3399ff" fill-rule="evenodd" stroke="none"/>
    </g>
    <g id="shape4" transform="matrix(1.0, 0.0, 0.0, 1.0, 13.95, 12.05)">
      <path d="M2.65 -8.85 Q3.45 -8.05 3.45 -6.8 L3.3 -5.8 1.95 -1.35 4.15 -0.65 4.3 -2.75 Q4.35 -3.55 5.05 -4.0 5.75 -4.5 6.7 -4.5 9.15 -4.5 9.15 -2.05 L8.8 0.95 Q11.3 1.95 11.3 3.5 11.3 4.45 10.7 5.3 10.05 6.25 9.1 6.25 8.5 6.25 7.75 5.8 6.2 9.05 4.2 10.7 3.45 11.3 2.5 11.3 1.35 11.3 0.55 10.55 -0.25 9.8 -0.25 8.8 -0.25 8.15 0.45 7.45 2.5 5.5 3.1 4.15 1.8 3.45 0.4 3.05 -1.25 6.0 -2.4 7.2 -4.35 9.15 -7.05 9.15 -9.1 9.15 -10.3 7.8 -11.45 6.55 -11.45 4.9 -11.55 1.35 -8.55 -0.7 -6.55 -2.1 -2.7 -2.1 L-1.75 -5.1 -6.05 -4.65 Q-7.15 -4.6 -7.8 -5.35 -8.35 -6.0 -8.35 -6.95 -8.35 -7.75 -7.8 -8.4 -7.3 -9.0 -6.4 -9.05 L0.7 -9.55 Q1.85 -9.6 2.65 -8.85 M-4.7 2.15 Q-5.9 2.15 -6.95 3.6 L-7.2 4.4 -7.0 4.95 -6.55 5.2 -6.45 5.15 -5.2 3.85 -4.2 2.25 -4.7 2.15" fill="#ff3300" fill-rule="evenodd" stroke="none"/>
      <path d="M2.65 -8.85 Q3.45 -8.05 3.45 -6.8 L3.3 -5.8 1.95 -1.35 4.15 -0.65 4.3 -2.75 Q4.35 -3.55 5.05 -4.0 5.75 -4.5 6.7 -4.5 9.15 -4.5 9.15 -2.05 L8.8 0.95 Q11.3 1.95 11.3 3.5 11.3 4.45 10.7 5.3 10.05 6.25 9.1 6.25 8.5 6.25 7.75 5.8 6.2 9.05 4.2 10.7 3.45 11.3 2.5 11.3 1.35 11.3 0.55 10.55 -0.25 9.8 -0.25 8.8 -0.25 8.15 0.45 7.45 2.5 5.5 3.1 4.15 1.8 3.45 0.4 3.05 -1.25 6.0 -2.4 7.2 -4.35 9.15 -7.05 9.15 -9.1 9.15 -10.3 7.8 -11.45 6.55 -11.45 4.9 -11.55 1.35 -8.55 -0.7 -6.55 -2.1 -2.7 -2.1 L-1.75 -5.1 -6.05 -4.65 Q-7.15 -4.6 -7.8 -5.35 -8.35 -6.0 -8.35 -6.95 -8.35 -7.75 -7.8 -8.4 -7.3 -9.0 -6.4 -9.05 L0.7 -9.55 Q1.85 -9.6 2.65 -8.85 M-4.7 2.15 Q-5.9 2.15 -6.95 3.6 L-7.2 4.4 -7.0 4.95 -6.55 5.2 -6.45 5.15 -5.2 3.85 -4.2 2.25 -4.7 2.15 Z" fill="none" stroke="#ffffff" stroke-linecap="round" stroke-linejoin="round" stroke-width="5.0"/>
      <path d="M3.45 -6.8 L3.3 -5.8 1.95 -1.35 4.15 -0.65 4.3 -2.75 Q4.35 -3.55 5.05 -4.0 5.75 -4.5 6.7 -4.5 9.15 -4.5 9.15 -2.05 L8.8 0.95 Q11.3 1.95 11.3 3.5 11.3 4.45 10.7 5.3 10.05 6.25 9.1 6.25 8.5 6.25 7.75 5.8 6.2 9.05 4.2 10.7 3.45 11.3 2.5 11.3 1.35 11.3 0.55 10.55 -0.25 9.8 -0.25 8.8 -0.25 8.15 0.45 7.45 2.5 5.5 3.1 4.15 1.8 3.45 0.4 3.05 -1.25 6.0 -2.4 7.2 -4.35 9.15 -7.05 9.15 -9.1 9.15 -10.3 7.8 -11.45 6.55 -11.45 4.9 -11.55 1.35 -8.55 -0.7 -6.55 -2.1 -2.7 -2.1 L-1.75 -5.1 -6.05 -4.65 Q-7.15 -4.6 -7.8 -5.35 -8.35 -6.0 -8.35 -6.95 -8.35 -7.75 -7.8 -8.4 -7.3 -9.0 -6.4 -9.05 L0.7 -9.55 Q1.85 -9.6 2.65 -8.85 3.45 -8.05 3.45 -6.8 M-4.7 2.15 Q-5.9 2.15 -6.95 3.6 L-7.2 4.4 -7.0 4.95 -6.55 5.2 -6.45 5.15 -5.2 3.85 -4.2 2.25 -4.7 2.15" fill="#ff3300" fill-rule="evenodd" stroke="none"/>
    </g>
    <g id="shape5" transform="matrix(1.0, 0.0, 0.0, 1.0, 13.6, 12.55)">
      <path d="M8.3 -2.35 Q9.05 -0.4 10.6 1.4 11.25 2.0 11.25 2.7 11.2 3.8 10.45 4.6 9.5 5.55 8.35 5.6 7.8 5.55 7.1 4.85 5.75 3.35 4.45 0.5 L3.7 -1.75 3.1 0.35 Q2.15 3.05 1.2 4.65 0.35 5.5 -0.65 5.6 -1.6 5.6 -2.65 4.7 -3.4 4.1 -3.4 3.05 L-3.05 2.05 Q-1.4 -0.55 -0.8 -2.05 L0.3 -5.55 -1.05 -5.55 Q-2.0 -5.55 -2.45 -6.2 -2.9 -6.7 -2.95 -7.7 -2.9 -8.8 -2.35 -9.35 -2.0 -9.85 -1.05 -9.85 L4.05 -9.85 Q6.85 -9.85 7.2 -7.45 7.6 -4.15 8.3 -2.35 M10.65 10.05 Q10.0 10.85 8.4 10.85 L1.3 10.85 Q-3.25 10.85 -5.2 9.5 -5.4 9.15 -5.65 9.15 -5.8 9.15 -6.05 9.5 -7.4 11.15 -8.25 11.15 -9.4 11.15 -10.4 10.0 -11.1 9.2 -11.1 8.15 -11.1 7.5 -10.5 6.85 L-8.6 5.05 -8.25 4.4 -8.25 2.25 Q-8.25 1.75 -8.65 1.75 L-9.2 1.75 Q-10.2 1.75 -10.6 1.15 -11.0 0.75 -11.0 -0.4 -11.0 -1.5 -10.55 -2.05 -10.15 -2.55 -9.2 -2.55 L-6.65 -2.55 Q-3.75 -2.55 -3.75 0.25 L-3.75 4.55 Q-3.75 5.4 -3.05 5.75 -1.85 6.35 0.2 6.35 L5.8 6.2 9.65 6.05 Q10.3 6.05 10.7 6.55 11.25 7.1 11.25 7.85 11.25 9.3 10.65 10.05 M-5.55 -9.0 Q-4.3 -7.1 -4.3 -5.85 -4.3 -4.85 -5.3 -4.35 -6.4 -3.65 -7.5 -3.65 -8.45 -3.8 -8.8 -4.8 L-10.05 -7.3 -10.4 -8.2 Q-10.4 -9.0 -9.4 -9.55 L-7.4 -10.05 Q-6.3 -10.05 -5.55 -9.0" fill="#3399ff" fill-rule="evenodd" stroke="none"/>
      <path d="M8.3 -2.35 Q9.05 -0.4 10.6 1.4 11.25 2.0 11.25 2.7 11.2 3.8 10.45 4.6 9.5 5.55 8.35 5.6 7.8 5.55 7.1 4.85 5.75 3.35 4.45 0.5 L3.7 -1.75 3.1 0.35 Q2.15 3.05 1.2 4.65 0.35 5.5 -0.65 5.6 -1.6 5.6 -2.65 4.7 -3.4 4.1 -3.4 3.05 L-3.05 2.05 Q-1.4 -0.55 -0.8 -2.05 L0.3 -5.55 -1.05 -5.55 Q-2.0 -5.55 -2.45 -6.2 -2.9 -6.7 -2.95 -7.7 -2.9 -8.8 -2.35 -9.35 -2.0 -9.85 -1.05 -9.85 L4.05 -9.85 Q6.85 -9.85 7.2 -7.45 7.6 -4.15 8.3 -2.35 M10.65 10.05 Q10.0 10.85 8.4 10.85 L1.3 10.85 Q-3.25 10.85 -5.2 9.5 -5.4 9.15 -5.65 9.15 -5.8 9.15 -6.05 9.5 -7.4 11.15 -8.25 11.15 -9.4 11.15 -10.4 10.0 -11.1 9.2 -11.1 8.15 -11.1 7.5 -10.5 6.85 L-8.6 5.05 -8.25 4.4 -8.25 2.25 Q-8.25 1.75 -8.65 1.75 L-9.2 1.75 Q-10.2 1.75 -10.6 1.15 -11.0 0.75 -11.0 -0.4 -11.0 -1.5 -10.55 -2.05 -10.15 -2.55 -9.2 -2.55 L-6.65 -2.55 Q-3.75 -2.55 -3.75 0.25 L-3.75 4.55 Q-3.75 5.4 -3.05 5.75 -1.85 6.35 0.2 6.35 L5.8 6.2 9.65 6.05 Q10.3 6.05 10.7 6.55 11.25 7.1 11.25 7.85 11.25 9.3 10.65 10.05 M-5.55 -9.0 Q-4.3 -7.1 -4.3 -5.85 -4.3 -4.85 -5.3 -4.35 -6.4 -3.65 -7.5 -3.65 -8.45 -3.8 -8.8 -4.8 L-10.05 -7.3 -10.4 -8.2 Q-10.4 -9.0 -9.4 -9.55 L-7.4 -10.05 Q-6.3 -10.05 -5.55 -9.0 Z" fill="none" stroke="#ffffff" stroke-linecap="round" stroke-linejoin="round" stroke-width="5.0"/>
      <path d="M8.3 -2.35 Q9.05 -0.4 10.6 1.4 11.25 2.0 11.25 2.7 11.2 3.8 10.45 4.6 9.5 5.55 8.35 5.6 7.8 5.55 7.1 4.85 5.75 3.35 4.45 0.5 L3.7 -1.75 3.1 0.35 Q2.15 3.05 1.2 4.65 0.35 5.5 -0.65 5.6 -1.6 5.6 -2.65 4.7 -3.4 4.1 -3.4 3.05 L-3.05 2.05 Q-1.4 -0.55 -0.8 -2.05 L0.3 -5.55 -1.05 -5.55 Q-2.0 -5.55 -2.45 -6.2 -2.9 -6.7 -2.95 -7.7 -2.9 -8.8 -2.35 -9.35 -2.0 -9.85 -1.05 -9.85 L4.05 -9.85 Q6.85 -9.85 7.2 -7.45 7.6 -4.15 8.3 -2.35 M10.65 10.05 Q10.0 10.85 8.4 10.85 L1.3 10.85 Q-3.25 10.85 -5.2 9.5 -5.4 9.15 -5.65 9.15 -5.8 9.15 -6.05 9.5 -7.4 11.15 -8.25 11.15 -9.4 11.15 -10.4 10.0 -11.1 9.2 -11.1 8.15 -11.1 7.5 -10.5 6.85 L-8.6 5.05 -8.25 4.4 -8.25 2.25 Q-8.25 1.75 -8.65 1.75 L-9.2 1.75 Q-10.2 1.75 -10.6 1.15 -11.0 0.75 -11.0 -0.4 -11.0 -1.5 -10.55 -2.05 -10.15 -2.55 -9.2 -2.55 L-6.65 -2.55 Q-3.75 -2.55 -3.75 0.25 L-3.75 4.55 Q-3.75 5.4 -3.05 5.75 -1.85 6.35 0.2 6.35 L5.8 6.2 9.65 6.05 Q10.3 6.05 10.7 6.55 11.25 7.1 11.25 7.85 11.25 9.3 10.65 10.05 M-5.55 -9.0 Q-4.3 -7.1 -4.3 -5.85 -4.3 -4.85 -5.3 -4.35 -6.4 -3.65 -7.5 -3.65 -8.45 -3.8 -8.8 -4.8 L-10.05 -7.3 -10.4 -8.2 Q-10.4 -9.0 -9.4 -9.55 L-7.4 -10.05 Q-6.3 -10.05 -5.55 -9.0" fill="#3399ff" fill-rule="evenodd" stroke="none"/>
    </g>
    <g id="shape6" transform="matrix(1.0, 0.0, 0.0, 1.0, 12.9, 13.15)">
      <path d="M2.5 -3.0 L2.5 1.65 4.95 1.65 Q5.5 1.65 5.5 1.1 L5.5 -2.45 Q5.5 -3.0 4.95 -3.0 L2.5 -3.0 M10.2 -3.95 L10.2 2.6 Q10.2 6.0 6.85 6.0 L2.5 6.0 2.5 9.15 Q2.5 10.0 2.0 10.6 1.35 11.35 -0.1 11.35 -1.45 11.35 -2.15 10.6 -2.75 10.05 -2.75 9.15 L-2.75 6.0 -7.05 6.0 Q-10.4 6.0 -10.4 2.6 L-10.4 -3.95 Q-10.4 -7.35 -7.05 -7.35 L-2.75 -7.35 -2.75 -8.45 Q-2.75 -9.5 -1.95 -10.05 -1.35 -10.65 -0.1 -10.65 1.05 -10.65 1.8 -10.05 2.5 -9.5 2.5 -8.45 L2.5 -7.35 6.85 -7.35 Q10.2 -7.35 10.2 -3.95 M-5.55 -2.45 L-5.55 1.1 Q-5.55 1.65 -5.0 1.65 L-2.75 1.65 -2.75 -3.0 -5.0 -3.0 Q-5.55 -3.0 -5.55 -2.45" fill="#66ccff" fill-rule="evenodd" stroke="none"/>
      <path d="M2.5 -3.0 L2.5 1.65 4.95 1.65 Q5.5 1.65 5.5 1.1 L5.5 -2.45 Q5.5 -3.0 4.95 -3.0 L2.5 -3.0 M10.2 -3.95 L10.2 2.6 Q10.2 6.0 6.85 6.0 L2.5 6.0 2.5 9.15 Q2.5 10.0 2.0 10.6 1.35 11.35 -0.1 11.35 -1.45 11.35 -2.15 10.6 -2.75 10.05 -2.75 9.15 L-2.75 6.0 -7.05 6.0 Q-10.4 6.0 -10.4 2.6 L-10.4 -3.95 Q-10.4 -7.35 -7.05 -7.35 L-2.75 -7.35 -2.75 -8.45 Q-2.75 -9.5 -1.95 -10.05 -1.35 -10.65 -0.1 -10.65 1.05 -10.65 1.8 -10.05 2.5 -9.5 2.5 -8.45 L2.5 -7.35 6.85 -7.35 Q10.2 -7.35 10.2 -3.95 M-5.55 -2.45 L-5.55 1.1 Q-5.55 1.65 -5.0 1.65 L-2.75 1.65 -2.75 -3.0 -5.0 -3.0 Q-5.55 -3.0 -5.55 -2.45 Z" fill="none" stroke="#ffffff" stroke-linecap="round" stroke-linejoin="round" stroke-width="5.0"/>
      <path d="M10.2 -3.95 L10.2 2.6 Q10.2 6.0 6.85 6.0 L2.5 6.0 2.5 9.15 Q2.5 10.0 2.0 10.6 1.35 11.35 -0.1 11.35 -1.45 11.35 -2.15 10.6 -2.75 10.05 -2.75 9.15 L-2.75 6.0 -7.05 6.0 Q-10.4 6.0 -10.4 2.6 L-10.4 -3.95 Q-10.4 -7.35 -7.05 -7.35 L-2.75 -7.35 -2.75 -8.45 Q-2.75 -9.5 -1.95 -10.05 -1.35 -10.65 -0.1 -10.65 1.05 -10.65 1.8 -10.05 2.5 -9.5 2.5 -8.45 L2.5 -7.35 6.85 -7.35 Q10.2 -7.35 10.2 -3.95 M2.5 -3.0 L2.5 1.65 4.95 1.65 Q5.5 1.65 5.5 1.1 L5.5 -2.45 Q5.5 -3.0 4.95 -3.0 L2.5 -3.0 M-5.55 -2.45 L-5.55 1.1 Q-5.55 1.65 -5.0 1.65 L-2.75 1.65 -2.75 -3.0 -5.0 -3.0 Q-5.55 -3.0 -5.55 -2.45" fill="#3399ff" fill-rule="evenodd" stroke="none"/>
    </g>
    <g id="shape7" transform="matrix(1.0, 0.0, 0.0, 1.0, 4.2, -13.35)">
      <path d="M3.5 14.6 L-2.25 20.8 -2.8 21.05 Q-3.1 21.05 -3.3 20.85 L-3.55 20.3 -3.35 19.85 2.4 13.65 Q2.6 13.4 2.95 13.4 L3.45 13.65 3.65 14.15 3.5 14.6 M3.8 17.65 Q4.25 18.2 4.25 19.1 4.25 19.9 3.8 20.5 3.25 21.1 2.3 21.15 1.4 21.15 0.85 20.45 0.35 19.8 0.35 19.1 0.35 18.3 0.85 17.75 1.35 17.1 2.3 17.1 3.25 17.1 3.8 17.65 M2.7 19.05 Q2.7 18.15 2.3 18.2 1.9 18.15 1.9 19.05 1.9 19.95 2.3 20.0 2.7 19.95 2.7 19.05 M-0.8 13.95 Q-0.3 14.45 -0.3 15.35 -0.3 16.15 -0.75 16.75 -1.3 17.4 -2.25 17.4 -3.15 17.4 -3.75 16.7 L-4.2 15.4 Q-4.2 14.6 -3.75 14.05 -3.2 13.35 -2.25 13.35 -1.3 13.35 -0.8 13.95 M-1.9 15.9 L-1.85 15.35 Q-1.85 14.4 -2.25 14.45 -2.65 14.4 -2.65 15.35 -2.65 16.25 -2.2 16.25 L-1.9 15.9" fill="#ffffff" fill-rule="evenodd" stroke="none"/>
    </g>
    <g id="text0" transform="matrix(1.0, 0.0, 0.0, 1.0, 2.0, 2.0)">
      <g transform="matrix(1.0, 0.0, 0.0, 1.0, -2.0, -2.0)">
        <use fill="#ffffff" height="25.0" transform="matrix(0.0166, 0.0, 0.0, 0.0166, 14.8, 12.45)" width="41.0" xlink:href="#font_HelveticaRounded_LT_Std_Blk_00"/>
      </g>
    </g>
    <g id="font_HelveticaRounded_LT_Std_Blk_00">
      <path d="M40.0 -361.0 L40.0 -361.0 Q42.5 -160.0 125.5 -73.0 208.5 14.0 342.0 12.0 475.5 14.0 558.5 -73.0 641.5 -160.0 644.0 -361.0 643.5 -532.0 567.0 -629.0 490.0 -726.0 342.0 -728.0 194.0 -726.0 117.0 -629.0 40.5 -532.0 40.0 -361.0 L40.0 -361.0 M432.0 -358.0 L432.0 -358.0 Q432.0 -232.5 408.5 -188.5 385.5 -145.0 342.0 -148.0 298.5 -145.0 275.0 -188.5 252.0 -232.5 252.0 -358.0 248.0 -571.0 342.0 -568.0 435.5 -571.0 432.0 -358.0 L432.0 -358.0" fill-rule="evenodd" stroke="none"/>
    </g>
  </defs>
</svg>
