<?xml version="1.0" encoding="UTF-8" standalone="no"?>
<svg xmlns:xlink="http://www.w3.org/1999/xlink" height="163.75px" width="123.65px" xmlns="http://www.w3.org/2000/svg">
  <g transform="matrix(1.0, 0.0, 0.0, 1.0, 61.85, 75.8)">
    <use data-characterId="17" height="126.7" transform="matrix(1.0, 0.0, 0.0, 1.0, -61.85, -75.8)" width="123.65" xlink:href="#shape0"/>
    <use data-characterId="34" height="61.45" transform="matrix(1.0005, 0.0, 0.0, 1.0005, -36.8697, -30.2662)" width="73.75" xlink:href="#shape1"/>
    <clipPath id="clipPath0" transform="matrix(1.0, 0.0, 0.0, 1.0, 0.0, 0.0)">
      <path d="M7.15 -9.15 Q4.9 -13.5 6.5 -17.9 8.15 -22.4 12.85 -24.25 L22.05 -24.5 22.55 -24.35 Q27.55 -22.5 29.95 -18.0 32.35 -13.55 30.75 -9.05 29.05 -4.55 24.4 -2.65 19.9 -0.9 15.15 -2.45 18.0 1.85 18.05 7.35 18.0 14.7 12.8 19.9 7.6 25.2 0.25 25.2 -7.15 25.2 -12.4 19.9 -17.0 15.3 -17.55 9.05 L-17.6 7.35 Q-17.6 5.2 -17.15 3.25 L-16.9 2.15 Q-16.15 -0.4 -14.6 -2.65 L-15.8 -2.25 Q-20.2 -1.05 -24.4 -2.65 -26.0 -3.35 -27.25 -4.3 -29.65 -6.15 -30.7 -9.05 -32.3 -13.55 -29.95 -18.0 -27.55 -22.5 -22.55 -24.35 -18.55 -25.8 -14.7 -24.85 L-14.65 -24.85 -12.8 -24.25 Q-8.1 -22.4 -6.45 -17.9 -5.05 -13.95 -6.7 -9.95 L-7.2 -8.9 Q-4.55 -10.15 -1.55 -10.4 L0.25 -10.45 1.75 -10.4 Q4.6 -10.2 7.15 -9.15" fill="#000000" fill-rule="evenodd" stroke="none"/>
    </clipPath>
    <use data-characterId="36" height="27.4" transform="matrix(1.0, 0.0, 0.0, 1.0, -19.7, -64.5)" width="38.15" xlink:href="#sprite0"/>
    <use data-characterId="31" height="7.8" transform="matrix(1.0, 0.0, 0.0, 1.0, -4.2, 13.35)" width="8.45" xlink:href="#shape4"/>
    <use data-characterId="33" height="25.0" id="txt_percent" transform="matrix(1.0, 0.0, 0.0, 1.0, -19.5, -6.5)" width="41.0" xlink:href="#text0"/>
  </g>
  <defs>
    <g id="shape0" transform="matrix(1.0, 0.0, 0.0, 1.0, 61.85, 75.8)">
      <path d="M50.95 -74.95 Q60.95 -74.95 60.95 -64.95 L60.95 40.05 Q60.95 50.05 50.95 50.05 L-51.0 50.05 Q-61.0 50.05 -61.0 40.05 L-61.0 -64.95 Q-61.0 -74.95 -51.0 -74.95 L50.95 -74.95" fill="#ffffff" fill-rule="evenodd" stroke="none"/>
      <path d="M50.95 -74.95 L-51.0 -74.95 Q-61.0 -74.95 -61.0 -64.95 L-61.0 40.05 Q-61.0 50.05 -51.0 50.05 L50.95 50.05 Q60.95 50.05 60.95 40.05 L60.95 -64.95 Q60.95 -74.95 50.95 -74.95 Z" fill="none" stroke="#000000" stroke-linecap="round" stroke-linejoin="round" stroke-opacity="0.17254902" stroke-width="1.75"/>
      <path d="M46.45 -67.95 Q53.45 -67.95 53.45 -60.95 L53.45 35.05 Q53.45 42.05 46.45 42.05 L-46.5 42.05 Q-53.5 42.05 -53.5 35.05 L-53.5 -60.95 Q-53.5 -67.95 -46.5 -67.95 L46.45 -67.95" fill="#ffcc00" fill-rule="evenodd" stroke="none"/>
    </g>
    <g id="shape1" transform="matrix(1.0, 0.0, 0.0, 1.0, 36.85, 30.25)">
      <path d="M23.75 -28.15 L24.2 -28.0 24.5 -27.85 Q30.85 -25.45 33.95 -19.55 L33.9 -19.6 Q37.25 -13.45 35.0 -7.2 L34.95 -6.95 Q32.6 -0.65 26.05 2.05 L26.05 2.1 22.05 3.15 Q22.5 5.35 22.55 7.85 L22.55 7.9 Q22.5 17.05 16.05 23.6 L15.7 23.9 Q9.25 30.15 0.3 30.2 L0.25 30.2 Q-9.05 30.15 -15.55 23.65 -21.4 17.8 -22.05 10.0 L-22.05 9.8 -22.1 7.85 Q-22.1 5.4 -21.6 3.15 -23.8 2.9 -25.95 2.1 L-26.1 2.0 -26.15 2.0 -26.2 1.95 Q-28.3 1.0 -29.9 -0.2 -33.25 -2.8 -34.75 -6.7 L-34.9 -7.0 Q-37.25 -13.35 -33.85 -19.6 L-33.85 -19.55 Q-30.8 -25.6 -24.05 -28.0 L-24.1 -28.0 Q-19.0 -29.95 -14.05 -28.85 L-12.4 -28.35 -11.15 -27.95 -10.75 -27.75 Q-4.45 -25.15 -2.2 -18.9 L-2.2 -18.8 -2.15 -18.8 Q-1.45 -16.6 -1.3 -14.4 L0.1 -14.45 0.2 -14.45 0.3 -14.45 1.35 -14.45 Q1.45 -16.7 2.3 -18.95 L2.3 -18.9 Q4.55 -25.3 11.2 -27.85 L11.25 -27.85 Q17.0 -30.2 23.15 -28.3 L23.75 -28.15 M-1.65 -12.4 L-1.8 -14.35 -1.75 -14.35 -1.85 -14.35 -1.8 -12.4 -1.75 -12.4 -1.8 -12.35 -1.65 -12.4" fill="#000000" fill-rule="evenodd" stroke="none"/>
      <path d="M23.75 -28.15 L23.15 -28.3 Q17.0 -30.2 11.25 -27.85 L11.2 -27.85 Q4.55 -25.3 2.3 -18.9 L2.3 -18.95 Q1.45 -16.7 1.35 -14.45 L0.3 -14.45 0.2 -14.45 0.1 -14.45 -1.3 -14.4 Q-1.45 -16.6 -2.15 -18.8 L-2.2 -18.8 -2.2 -18.9 Q-4.45 -25.15 -10.75 -27.75 L-11.15 -27.95 -12.4 -28.35 -14.05 -28.85 Q-19.0 -29.95 -24.1 -28.0 L-24.05 -28.0 Q-30.8 -25.6 -33.85 -19.55 L-33.85 -19.6 Q-37.25 -13.35 -34.9 -7.0 L-34.75 -6.7 Q-33.25 -2.8 -29.9 -0.2 -28.3 1.0 -26.2 1.95 L-26.15 2.0 -26.1 2.0 -25.95 2.1 Q-23.8 2.9 -21.6 3.15 -22.1 5.4 -22.1 7.85 L-22.05 9.8 -22.05 10.0 Q-21.4 17.8 -15.55 23.65 -9.05 30.15 0.25 30.2 L0.3 30.2 Q9.25 30.15 15.7 23.9 L16.05 23.6 Q22.5 17.05 22.55 7.9 L22.55 7.85 Q22.5 5.35 22.05 3.15 L26.05 2.1 26.05 2.05 Q32.6 -0.65 34.95 -6.95 L35.0 -7.2 Q37.25 -13.45 33.9 -19.6 L33.95 -19.55 Q30.85 -25.45 24.5 -27.85 L24.2 -28.0 23.75 -28.15 Z" fill="none" stroke="#000000" stroke-linecap="round" stroke-linejoin="round" stroke-opacity="0.2509804" stroke-width="2.0"/>
      <path d="M23.15 -28.8 L23.75 -28.65 24.2 -28.5 24.5 -28.35 Q30.85 -25.95 33.95 -20.05 L33.9 -20.1 Q37.25 -13.95 35.0 -7.7 L34.95 -7.45 Q32.6 -1.15 26.05 1.55 L26.05 1.6 22.05 2.65 Q22.5 4.85 22.55 7.35 L22.55 7.4 Q22.5 16.55 16.05 23.1 L15.7 23.4 Q9.25 29.65 0.3 29.7 L0.25 29.7 Q-9.05 29.65 -15.55 23.15 -21.4 17.3 -22.05 9.5 L-22.05 9.3 -22.1 7.35 Q-22.1 4.9 -21.6 2.65 -23.8 2.4 -25.95 1.6 L-26.1 1.5 -26.15 1.5 -26.2 1.45 Q-28.3 0.5 -29.9 -0.7 -33.25 -3.3 -34.75 -7.2 L-34.9 -7.5 Q-37.25 -13.85 -33.85 -20.1 L-33.85 -20.05 Q-30.8 -26.1 -24.05 -28.5 L-24.1 -28.5 Q-19.0 -30.45 -14.05 -29.35 L-12.4 -28.85 -11.15 -28.45 -10.75 -28.25 Q-4.45 -25.65 -2.2 -19.4 L-2.2 -19.3 -2.15 -19.3 Q-1.45 -17.1 -1.3 -14.9 L0.1 -14.95 0.2 -14.95 0.3 -14.95 1.35 -14.95 Q1.45 -17.2 2.3 -19.45 L2.3 -19.4 Q4.55 -25.8 11.2 -28.35 L11.25 -28.35 Q17.0 -30.7 23.15 -28.8 M-1.85 -14.85 L-1.8 -12.9 -1.75 -12.9 -1.8 -12.85 -1.65 -12.9 -1.8 -14.85 -1.75 -14.85 -1.85 -14.85" fill="#ff9900" fill-rule="evenodd" stroke="none"/>
      <path d="M1.75 -10.4 Q4.6 -10.2 7.15 -9.15 4.9 -13.5 6.5 -17.9 8.15 -22.4 12.85 -24.2 17.3 -26.0 22.05 -24.5 L22.55 -24.3 Q27.55 -22.45 29.95 -18.0 32.35 -13.55 30.7 -9.05 29.0 -4.55 24.35 -2.65 19.9 -0.9 15.15 -2.45 18.0 1.85 18.05 7.35 18.0 14.7 12.8 19.9 7.6 25.15 0.25 25.2 -7.15 25.15 -12.4 19.9 -17.0 15.3 -17.55 9.05 L-17.6 7.35 Q-17.6 5.2 -17.15 3.25 L-16.9 2.15 Q-16.15 -0.4 -14.6 -2.65 L-15.8 -2.25 Q-20.2 -1.05 -24.35 -2.65 -25.95 -3.35 -27.2 -4.3 -29.6 -6.15 -30.7 -9.05 -32.3 -13.55 -29.9 -18.0 -27.55 -22.5 -22.55 -24.3 -18.55 -25.8 -14.7 -24.85 L-14.65 -24.8 -12.8 -24.25 Q-8.1 -22.4 -6.45 -17.9 -5.05 -13.95 -6.7 -9.95 L-7.2 -8.9 Q-4.55 -10.15 -1.55 -10.4 L0.25 -10.45 1.75 -10.4" fill="#000000" fill-rule="evenodd" stroke="none"/>
      <path d="M1.75 -10.4 Q4.6 -10.2 7.15 -9.15 4.9 -13.5 6.5 -17.9 8.15 -22.4 12.85 -24.2 17.3 -26.0 22.05 -24.5 L22.55 -24.3 Q27.55 -22.45 29.95 -18.0 32.35 -13.55 30.7 -9.05 29.0 -4.55 24.35 -2.65 19.9 -0.9 15.15 -2.45 18.0 1.85 18.05 7.35 18.0 14.7 12.8 19.9 7.6 25.15 0.25 25.2 -7.15 25.15 -12.4 19.9 -17.0 15.3 -17.55 9.05 L-17.6 7.35 Q-17.6 5.2 -17.15 3.25 L-16.9 2.15 Q-16.15 -0.4 -14.6 -2.65 L-15.8 -2.25 Q-20.2 -1.05 -24.35 -2.65 -25.95 -3.35 -27.2 -4.3 -29.6 -6.15 -30.7 -9.05 -32.3 -13.55 -29.9 -18.0 -27.55 -22.5 -22.55 -24.3 -18.55 -25.8 -14.7 -24.85 L-14.65 -24.8 -12.8 -24.25 Q-8.1 -22.4 -6.45 -17.9 -5.05 -13.95 -6.7 -9.95 L-7.2 -8.9 Q-4.55 -10.15 -1.55 -10.4 L0.25 -10.45 1.75 -10.4 Z" fill="none" stroke="#ffffff" stroke-linecap="round" stroke-linejoin="round" stroke-width="5.0"/>
      <path d="M1.75 -10.4 Q4.6 -10.2 7.15 -9.15 4.9 -13.5 6.5 -17.9 8.15 -22.4 12.85 -24.2 17.3 -26.0 22.05 -24.5 L22.55 -24.3 Q27.55 -22.45 29.95 -18.0 32.35 -13.55 30.7 -9.05 29.0 -4.55 24.35 -2.65 19.9 -0.9 15.15 -2.45 18.0 1.85 18.05 7.35 18.0 14.7 12.8 19.9 7.6 25.15 0.25 25.2 -7.15 25.15 -12.4 19.9 -17.0 15.3 -17.55 9.05 L-17.6 7.35 Q-17.6 5.2 -17.15 3.25 L-16.9 2.15 Q-16.15 -0.4 -14.6 -2.65 L-15.8 -2.25 Q-20.2 -1.05 -24.35 -2.65 -25.95 -3.35 -27.2 -4.3 -29.6 -6.15 -30.7 -9.05 -32.3 -13.55 -29.9 -18.0 -27.55 -22.5 -22.55 -24.3 -18.55 -25.8 -14.7 -24.85 L-14.65 -24.8 -12.8 -24.25 Q-8.1 -22.4 -6.45 -17.9 -5.05 -13.95 -6.7 -9.95 L-7.2 -8.9 Q-4.55 -10.15 -1.55 -10.4 L0.25 -10.45 1.75 -10.4" fill="#66ccff" fill-rule="evenodd" stroke="none"/>
    </g>
    <g id="sprite0" transform="matrix(1.0, 0.0, 0.0, 1.0, 1.5, 11.0)">
      <use data-characterId="35" height="16.9" transform="matrix(1.0, 0.0, 0.0, 1.0, -1.5, -11.0)" width="38.15" xlink:href="#shape3"/>
    </g>
    <g id="shape3" transform="matrix(1.0, 0.0, 0.0, 1.0, -1.3, -1.5)">
      <path d="M37.7 5.45 L37.35 10.9 Q37.3 11.4 36.9 11.7 L35.9 11.95 35.0 11.7 Q34.6 11.4 34.6 10.9 L34.25 5.45 Q34.15 4.55 34.65 4.05 35.1 3.55 36.0 3.55 36.85 3.55 37.3 4.05 37.8 4.55 37.7 5.45 M37.95 14.35 Q37.95 15.05 37.35 15.6 36.8 16.15 36.0 16.15 35.15 16.15 34.6 15.6 34.0 15.05 34.0 14.35 34.0 13.6 34.6 13.1 35.15 12.55 36.0 12.55 36.8 12.55 37.35 13.1 37.95 13.6 37.95 14.35" fill="#ff3300" fill-rule="evenodd" stroke="none"/>
      <path d="M30.25 4.1 Q30.9 4.6 30.9 5.65 30.85 6.7 29.7 7.85 28.7 8.95 26.75 10.0 L26.95 10.6 Q27.5 12.05 27.5 13.2 27.5 15.05 26.5 15.95 25.5 16.8 23.55 16.85 21.9 16.85 20.4 16.25 19.7 15.85 19.7 15.2 19.7 14.6 20.05 14.05 20.3 13.55 20.75 13.55 L21.6 13.7 22.8 13.9 24.25 13.7 24.55 12.7 Q24.55 12.05 22.95 9.25 L22.8 8.7 Q22.8 8.15 23.45 7.7 23.9 7.35 24.55 7.35 25.05 7.35 25.4 7.65 L26.55 7.0 27.0 6.4 26.7 6.3 19.35 6.3 Q18.7 6.3 18.4 5.95 18.05 5.65 18.05 4.95 18.05 4.3 18.45 3.9 18.75 3.65 19.35 3.65 L28.4 3.65 Q29.65 3.65 30.25 4.1 M14.55 3.95 Q16.1 3.95 16.1 6.25 L16.1 6.75 Q16.1 7.35 15.75 7.6 L14.75 7.85 14.75 8.15 14.6 9.0 Q14.3 9.4 13.7 9.4 L5.4 9.4 Q4.85 9.4 4.6 9.1 4.35 8.85 4.35 8.15 L4.35 7.85 3.3 7.6 Q2.95 7.3 2.95 6.75 L2.95 6.25 Q2.95 3.95 4.5 3.95 L7.75 3.95 Q7.85 3.55 8.2 3.3 8.55 3.0 9.4 3.0 10.2 3.0 10.6 3.3 L11.0 3.95 14.55 3.95 M13.3 6.75 Q13.3 6.4 12.9 6.4 L6.1 6.4 Q5.75 6.4 5.75 6.75 L5.75 6.95 13.3 6.95 13.3 6.75 M16.25 11.15 L16.05 12.05 Q15.7 12.5 15.05 12.5 L12.65 12.5 12.65 13.8 Q12.65 14.15 13.0 14.15 L13.25 14.15 13.4 14.05 13.55 13.55 Q13.6 13.2 13.9 13.0 L14.6 12.85 Q15.25 12.85 15.6 13.15 16.1 13.45 16.1 14.2 16.1 15.4 15.7 15.95 15.15 16.75 14.05 16.75 L11.4 16.75 Q9.65 16.75 9.65 15.15 L9.65 12.5 8.75 12.5 8.05 14.5 Q7.2 15.85 6.0 16.55 L4.85 16.9 Q4.2 16.85 3.5 16.3 3.0 15.85 3.0 15.3 3.0 14.9 3.25 14.65 L5.3 13.2 5.65 12.5 4.0 12.5 Q3.4 12.5 3.1 12.2 2.8 11.9 2.8 11.15 2.8 10.35 3.1 10.1 3.4 9.8 4.0 9.8 L15.05 9.8 Q15.7 9.8 16.0 10.1 L16.25 11.15" fill="#33ccff" fill-rule="evenodd" stroke="none"/>
      <path d="M37.7 5.45 L37.35 10.9 Q37.3 11.4 36.9 11.7 L35.9 11.95 35.0 11.7 Q34.6 11.4 34.6 10.9 L34.25 5.45 Q34.15 4.55 34.65 4.05 35.1 3.55 36.0 3.55 36.85 3.55 37.3 4.05 37.8 4.55 37.7 5.45 M30.25 4.1 Q30.9 4.6 30.9 5.65 30.85 6.7 29.7 7.85 28.7 8.95 26.75 10.0 L26.95 10.6 Q27.5 12.05 27.5 13.2 27.5 15.05 26.5 15.95 25.5 16.8 23.55 16.85 21.9 16.85 20.4 16.25 19.7 15.85 19.7 15.2 19.7 14.6 20.05 14.05 20.3 13.55 20.75 13.55 L21.6 13.7 22.8 13.9 24.25 13.7 24.55 12.7 Q24.55 12.05 22.95 9.25 L22.8 8.7 Q22.8 8.15 23.45 7.7 23.9 7.35 24.55 7.35 25.05 7.35 25.4 7.65 L26.55 7.0 27.0 6.4 26.7 6.3 19.35 6.3 Q18.7 6.3 18.4 5.95 18.05 5.65 18.05 4.95 18.05 4.3 18.45 3.9 18.75 3.65 19.35 3.65 L28.4 3.65 Q29.65 3.65 30.25 4.1 M37.95 14.35 Q37.95 15.05 37.35 15.6 36.8 16.15 36.0 16.15 35.15 16.15 34.6 15.6 34.0 15.05 34.0 14.35 34.0 13.6 34.6 13.1 35.15 12.55 36.0 12.55 36.8 12.55 37.35 13.1 37.95 13.6 37.95 14.35 M14.55 3.95 Q16.1 3.95 16.1 6.25 L16.1 6.75 Q16.1 7.35 15.75 7.6 L14.75 7.85 14.75 8.15 14.6 9.0 Q14.3 9.4 13.7 9.4 L5.4 9.4 Q4.85 9.4 4.6 9.1 4.35 8.85 4.35 8.15 L4.35 7.85 3.3 7.6 Q2.95 7.3 2.95 6.75 L2.95 6.25 Q2.95 3.95 4.5 3.95 L7.75 3.95 Q7.85 3.55 8.2 3.3 8.55 3.0 9.4 3.0 10.2 3.0 10.6 3.3 L11.0 3.95 14.55 3.95 M13.3 6.75 Q13.3 6.4 12.9 6.4 L6.1 6.4 Q5.75 6.4 5.75 6.75 L5.75 6.95 13.3 6.95 13.3 6.75 M16.25 11.15 L16.05 12.05 Q15.7 12.5 15.05 12.5 L12.65 12.5 12.65 13.8 Q12.65 14.15 13.0 14.15 L13.25 14.15 13.4 14.05 13.55 13.55 Q13.6 13.2 13.9 13.0 L14.6 12.85 Q15.25 12.85 15.6 13.15 16.1 13.45 16.1 14.2 16.1 15.4 15.7 15.95 15.15 16.75 14.05 16.75 L11.4 16.75 Q9.65 16.75 9.65 15.15 L9.65 12.5 8.75 12.5 8.05 14.5 Q7.2 15.85 6.0 16.55 L4.85 16.9 Q4.2 16.85 3.5 16.3 3.0 15.85 3.0 15.3 3.0 14.9 3.25 14.65 L5.3 13.2 5.65 12.5 4.0 12.5 Q3.4 12.5 3.1 12.2 2.8 11.9 2.8 11.15 2.8 10.35 3.1 10.1 3.4 9.8 4.0 9.8 L15.05 9.8 Q15.7 9.8 16.0 10.1 L16.25 11.15 Z" fill="none" stroke="#ffffff" stroke-linecap="round" stroke-linejoin="round" stroke-width="3.0"/>
      <path d="M37.7 5.45 L37.35 10.9 Q37.3 11.4 36.9 11.7 L35.9 11.95 35.0 11.7 Q34.6 11.4 34.6 10.9 L34.25 5.45 Q34.15 4.55 34.65 4.05 35.1 3.55 36.0 3.55 36.85 3.55 37.3 4.05 37.8 4.55 37.7 5.45 M37.95 14.35 Q37.95 15.05 37.35 15.6 36.8 16.15 36.0 16.15 35.15 16.15 34.6 15.6 34.0 15.05 34.0 14.35 34.0 13.6 34.6 13.1 35.15 12.55 36.0 12.55 36.8 12.55 37.35 13.1 37.95 13.6 37.95 14.35" fill="#ff3300" fill-rule="evenodd" stroke="none"/>
      <path d="M30.25 4.1 Q30.9 4.6 30.9 5.65 30.85 6.7 29.7 7.85 28.7 8.95 26.75 10.0 L26.95 10.6 Q27.5 12.05 27.5 13.2 27.5 15.05 26.5 15.95 25.5 16.8 23.55 16.85 21.9 16.85 20.4 16.25 19.7 15.85 19.7 15.2 19.7 14.6 20.05 14.05 20.3 13.55 20.75 13.55 L21.6 13.7 22.8 13.9 24.25 13.7 24.55 12.7 Q24.55 12.05 22.95 9.25 L22.8 8.7 Q22.8 8.15 23.45 7.7 23.9 7.35 24.55 7.35 25.05 7.35 25.4 7.65 L26.55 7.0 27.0 6.4 26.7 6.3 19.35 6.3 Q18.7 6.3 18.4 5.95 18.05 5.65 18.05 4.95 18.05 4.3 18.45 3.9 18.75 3.65 19.35 3.65 L28.4 3.65 Q29.65 3.65 30.25 4.1 M14.55 3.95 Q16.1 3.95 16.1 6.25 L16.1 6.75 Q16.1 7.35 15.75 7.6 L14.75 7.85 14.75 8.15 14.6 9.0 Q14.3 9.4 13.7 9.4 L5.4 9.4 Q4.85 9.4 4.6 9.1 4.35 8.85 4.35 8.15 L4.35 7.85 3.3 7.6 Q2.95 7.3 2.95 6.75 L2.95 6.25 Q2.95 3.95 4.5 3.95 L7.75 3.95 Q7.85 3.55 8.2 3.3 8.55 3.0 9.4 3.0 10.2 3.0 10.6 3.3 L11.0 3.95 14.55 3.95 M13.3 6.75 Q13.3 6.4 12.9 6.4 L6.1 6.4 Q5.75 6.4 5.75 6.75 L5.75 6.95 13.3 6.95 13.3 6.75 M16.25 11.15 L16.05 12.05 Q15.7 12.5 15.05 12.5 L12.65 12.5 12.65 13.8 Q12.65 14.15 13.0 14.15 L13.25 14.15 13.4 14.05 13.55 13.55 Q13.6 13.2 13.9 13.0 L14.6 12.85 Q15.25 12.85 15.6 13.15 16.1 13.45 16.1 14.2 16.1 15.4 15.7 15.95 15.15 16.75 14.05 16.75 L11.4 16.75 Q9.65 16.75 9.65 15.15 L9.65 12.5 8.75 12.5 8.05 14.5 Q7.2 15.85 6.0 16.55 L4.85 16.9 Q4.2 16.85 3.5 16.3 3.0 15.85 3.0 15.3 3.0 14.9 3.25 14.65 L5.3 13.2 5.65 12.5 4.0 12.5 Q3.4 12.5 3.1 12.2 2.8 11.9 2.8 11.15 2.8 10.35 3.1 10.1 3.4 9.8 4.0 9.8 L15.05 9.8 Q15.7 9.8 16.0 10.1 L16.25 11.15" fill="#33ccff" fill-rule="evenodd" stroke="none"/>
    </g>
    <g id="shape4" transform="matrix(1.0, 0.0, 0.0, 1.0, 4.2, -13.35)">
      <path d="M3.5 14.6 L-2.25 20.8 -2.8 21.05 Q-3.1 21.05 -3.3 20.85 L-3.55 20.3 -3.35 19.85 2.4 13.65 Q2.6 13.4 2.95 13.4 L3.45 13.65 3.65 14.15 3.5 14.6 M3.8 17.65 Q4.25 18.2 4.25 19.1 4.25 19.9 3.8 20.5 3.25 21.1 2.3 21.15 1.4 21.15 0.85 20.45 0.35 19.8 0.35 19.1 0.35 18.3 0.85 17.75 1.35 17.1 2.3 17.1 3.25 17.1 3.8 17.65 M2.7 19.05 Q2.7 18.15 2.3 18.2 1.9 18.15 1.9 19.05 1.9 19.95 2.3 20.0 2.7 19.95 2.7 19.05 M-0.8 13.95 Q-0.3 14.45 -0.3 15.35 -0.3 16.15 -0.75 16.75 -1.3 17.4 -2.25 17.4 -3.15 17.4 -3.75 16.7 L-4.2 15.4 Q-4.2 14.6 -3.75 14.05 -3.2 13.35 -2.25 13.35 -1.3 13.35 -0.8 13.95 M-1.9 15.9 L-1.85 15.35 Q-1.85 14.4 -2.25 14.45 -2.65 14.4 -2.65 15.35 -2.65 16.25 -2.2 16.25 L-1.9 15.9" fill="#ffffff" fill-rule="evenodd" stroke="none"/>
    </g>
    <g id="text0" transform="matrix(1.0, 0.0, 0.0, 1.0, 2.0, 2.0)">
      <g transform="matrix(1.0, 0.0, 0.0, 1.0, -2.0, -2.0)">
        <use fill="#ffffff" height="25.0" transform="matrix(0.0166, 0.0, 0.0, 0.0166, 14.8, 12.45)" width="41.0" xlink:href="#font_HelveticaRounded_LT_Std_Blk_00"/>
      </g>
    </g>
    <g id="font_HelveticaRounded_LT_Std_Blk_00">
      <path d="M40.0 -361.0 L40.0 -361.0 Q42.5 -160.0 125.5 -73.0 208.5 14.0 342.0 12.0 475.5 14.0 558.5 -73.0 641.5 -160.0 644.0 -361.0 643.5 -532.0 567.0 -629.0 490.0 -726.0 342.0 -728.0 194.0 -726.0 117.0 -629.0 40.5 -532.0 40.0 -361.0 L40.0 -361.0 M432.0 -358.0 L432.0 -358.0 Q432.0 -232.5 408.5 -188.5 385.5 -145.0 342.0 -148.0 298.5 -145.0 275.0 -188.5 252.0 -232.5 252.0 -358.0 248.0 -571.0 342.0 -568.0 435.5 -571.0 432.0 -358.0 L432.0 -358.0" fill-rule="evenodd" stroke="none"/>
    </g>
  </defs>
</svg>
