<?xml version="1.0" encoding="UTF-8" standalone="no"?>
<svg xmlns:xlink="http://www.w3.org/1999/xlink" height="42.0px" width="27.7px" xmlns="http://www.w3.org/2000/svg">
  <g transform="matrix(1.0, 0.0, 0.0, 1.0, 3.15, 4.75)">
    <use data-characterId="116" height="52.0" transform="matrix(0.7044, 0.0, 0.0, 0.7044, -1.3811, -2.0654)" width="34.3" xlink:href="#shape0"/>
  </g>
  <defs>
    <g id="shape0" transform="matrix(1.0, 0.0, 0.0, 1.0, 17.15, 26.0)">
      <path d="M0.0 -14.0 L9.0 -24.6 9.05 -24.65 Q10.35 -26.0 12.45 -26.0 17.15 -26.1 17.15 -20.45 L17.1 6.05 Q17.1 6.85 16.7 7.35 L16.65 7.35 1.55 25.2 Q0.95 26.0 0.0 26.0 -1.0 26.0 -1.6 25.2 L-1.55 25.25 -16.65 7.35 -16.7 7.3 Q-17.2 6.6 -17.15 6.05 L-17.15 -20.45 Q-17.15 -26.1 -12.5 -26.0 -10.45 -26.0 -9.05 -24.6 L-9.0 -24.55 0.0 -14.0 M14.15 -20.45 Q14.15 -23.1 12.45 -23.1 11.75 -23.1 11.2 -22.65 L0.75 -10.3 Q0.45 -9.95 0.0 -9.95 -0.5 -9.95 -0.8 -10.3 L-11.2 -22.55 Q-11.65 -23.1 -12.5 -23.1 -14.2 -23.1 -14.2 -20.45 L-14.15 5.7 0.0 22.45 14.15 5.7 14.15 -20.45" fill="#330000" fill-rule="evenodd" stroke="none"/>
      <path d="M-14.2 7.2 L-15.15 6.05 -15.2 -20.45 Q-15.2 -24.1 -12.5 -24.1 -11.35 -24.1 -10.5 -23.25 L0.0 -10.95 0.0 -9.75 -8.55 -19.8 Q-9.45 -21.55 -11.95 -22.6 -14.45 -23.65 -14.25 -16.75 L-14.25 6.9 -14.2 7.2" fill="#fef081" fill-rule="evenodd" stroke="none"/>
      <path d="M0.0 24.0 L-14.2 7.2 -14.25 6.9 -14.25 -16.75 Q-14.45 -23.65 -11.95 -22.6 -9.45 -21.55 -8.55 -19.8 L0.0 -9.75 0.0 22.35 0.0 24.0" fill="#ffe82b" fill-rule="evenodd" stroke="none"/>
      <path d="M0.0 -10.95 L10.45 -23.25 Q11.15 -23.95 12.05 -24.05 L12.35 -24.1 13.5 -23.95 Q14.15 -22.65 14.15 -18.2 L14.15 5.45 13.95 6.05 0.45 22.0 0.0 22.35 0.0 -9.75 0.0 -10.95" fill="#63ca3c" fill-rule="evenodd" stroke="none"/>
      <path d="M13.5 -23.95 Q15.15 -23.35 15.15 -20.45 L15.15 6.05 0.0 24.0 0.0 22.35 0.45 22.0 13.95 6.05 14.15 5.45 14.15 -18.2 Q14.15 -22.65 13.5 -23.95" fill="#53a72e" fill-rule="evenodd" stroke="none"/>
      <path d="M15.15 -10.3 L-8.75 13.65 -12.2 9.55 15.15 -17.8 15.15 -10.3 M15.15 -5.25 L-6.45 16.4 -7.2 15.5 15.15 -6.85 15.15 -5.25 M15.05 -18.9 L-12.8 8.95 -13.85 7.7 15.05 -21.2 15.05 -18.9 M-7.6 -19.9 L-3.95 -15.6 -15.15 -4.4 -15.2 -12.35 -7.6 -19.9 M-9.85 -22.5 L-9.2 -21.75 -15.2 -15.75 -15.2 -17.2 -9.85 -22.5 M-5.5 17.5 L15.15 -3.15 15.15 0.0 -4.05 19.2 -5.5 17.5" fill="#ffffff" fill-opacity="0.5019608" fill-rule="evenodd" stroke="none"/>
    </g>
  </defs>
</svg>
