<?xml version="1.0" encoding="UTF-8" standalone="no"?>
<svg xmlns:xlink="http://www.w3.org/1999/xlink" height="413.3px" width="448.3px" xmlns="http://www.w3.org/2000/svg">
  <g transform="matrix(1.0, 0.0, 0.0, 1.0, 307.65, 180.0)">
    <use data-characterId="188" height="70.9" transform="matrix(1.0, 0.0, 0.0, 1.0, -87.85, 92.4)" width="195.15" xlink:href="#shape0"/>
  </g>
  <defs>
    <g id="shape0" transform="matrix(1.0, 0.0, 0.0, 1.0, 87.85, -92.4)">
      <path d="M65.05 146.75 L64.55 146.35 Q63.6 144.75 70.55 143.45 77.45 142.15 86.8 142.55 103.6 143.75 102.25 146.05 100.95 148.15 81.95 148.2 109.75 151.6 107.05 156.95 103.8 163.5 51.2 163.3 20.75 162.4 15.6 158.75 2.1 159.85 -20.3 159.8 -54.65 158.75 -56.85 154.25 -58.5 150.9 -49.15 147.9 -74.3 146.6 -82.4 143.35 -92.75 139.1 -83.4 134.1 -74.05 129.2 -53.0 126.15 -33.6 123.35 -11.15 124.35 L-8.7 141.0 Q-2.8 146.45 4.7 145.05 7.65 144.45 10.9 142.85 L9.45 126.2 Q52.15 131.15 48.15 139.25 45.6 144.25 22.65 146.55 28.55 147.7 31.8 149.05 46.3 146.15 65.05 146.75 M63.6 125.9 Q64.45 125.45 66.3 125.4 L67.25 125.4 Q72.95 126.2 66.3 126.55 L65.95 126.55 Q62.5 126.4 63.6 125.9 M74.55 129.05 L74.75 128.95 Q77.35 127.75 83.1 127.95 L83.95 128.1 Q94.8 129.7 83.95 130.45 L80.15 130.65 74.75 130.1 Q73.25 129.7 74.55 129.05 M55.65 129.1 L58.95 129.4 Q66.45 130.15 65.75 131.4 65.2 132.35 58.95 132.7 L50.7 132.8 Q37.4 132.35 41.6 130.6 45.8 128.85 55.65 129.1" fill="#33b400" fill-opacity="0.78039217" fill-rule="evenodd" stroke="none"/>
      <path d="M-54.7 124.9 Q-42.65 124.7 -52.15 123.0 -56.35 122.75 -58.35 123.6 -60.4 124.5 -54.7 124.9" fill="#1a9431" fill-rule="evenodd" stroke="none"/>
      <path d="M-62.3 123.0 Q-71.8 124.7 -59.75 124.9 -54.1 124.5 -56.1 123.6 -58.1 122.75 -62.3 123.0" fill="#1a9431" fill-rule="evenodd" stroke="none"/>
      <path d="M-58.4 121.7 L-58.7 124.5 -57.15 124.55 -56.85 121.6 -56.2 117.4 Q-55.85 116.35 -56.75 116.8 L-57.75 117.4 -58.4 121.7" fill="#199432" fill-rule="evenodd" stroke="none"/>
      <path d="M-57.1 113.95 Q-59.4 112.05 -60.95 112.85 -62.4 113.65 -60.8 115.0 -64.15 114.65 -64.5 115.9 -64.85 117.1 -61.95 117.15 -63.6 117.45 -62.7 119.45 -59.65 120.55 -57.35 118.5 -54.8 120.0 -53.05 119.2 -51.3 118.45 -53.2 116.95 -51.2 116.3 -50.75 114.6 -50.3 112.85 -53.6 112.85 -56.55 113.6 -57.1 113.95" fill="#f8f98d" fill-rule="evenodd" stroke="none"/>
      <path d="M-59.4 117.1 Q-58.0 117.85 -55.7 118.05 -53.3 117.05 -54.95 115.15 -57.85 114.15 -60.05 115.15 -60.5 116.15 -59.4 117.1" fill="#f3db31" fill-rule="evenodd" stroke="none"/>
      <path d="M-58.35 123.85 Q-58.9 122.15 -61.5 121.35 -64.2 120.5 -67.0 120.75 -69.75 121.15 -66.45 122.1 L-58.35 123.85" fill="#8fcb24" fill-rule="evenodd" stroke="none"/>
      <path d="M-57.5 124.1 L-49.45 122.35 Q-46.1 121.4 -48.95 121.0 -51.7 120.75 -54.3 121.6 -57.0 122.4 -57.5 124.1" fill="#8fcb24" fill-rule="evenodd" stroke="none"/>
      <path d="M-19.55 126.35 Q-28.85 126.65 -29.75 125.3 -30.65 124.05 -23.5 123.1 -17.1 122.7 -14.05 124.2 -10.95 125.6 -19.55 126.35" fill="#1a9431" fill-rule="evenodd" stroke="none"/>
      <path d="M-1.8 125.3 Q-2.6 126.65 -11.9 126.35 -20.55 125.6 -17.5 124.2 -14.4 122.7 -8.0 123.1 -0.95 124.05 -1.8 125.3" fill="#1a9431" fill-rule="evenodd" stroke="none"/>
      <path d="M-13.8 120.95 L-13.5 125.6 -15.85 125.65 -16.15 120.75 Q-16.5 116.2 -17.25 113.65 -17.7 111.85 -16.45 112.65 L-14.9 113.65 Q-14.15 116.7 -13.8 120.95" fill="#199432" fill-rule="evenodd" stroke="none"/>
      <path d="M-11.75 117.8 Q-14.3 116.8 -15.45 115.7 -19.4 118.15 -22.1 116.85 -24.75 115.6 -21.9 113.1 -24.9 111.95 -25.55 109.05 -26.2 106.2 -21.25 106.15 -16.7 107.45 -15.85 107.95 -12.4 104.8 -10.05 106.15 -7.75 107.5 -10.2 109.8 -5.05 109.25 -4.6 111.25 -4.05 113.3 -8.5 113.5 -7.85 113.7 -6.95 114.65 -6.0 115.6 -7.4 117.25 -9.15 118.75 -11.75 117.8" fill="#f8f98d" fill-rule="evenodd" stroke="none"/>
      <path d="M-12.3 113.25 L-14.8 114.3 Q-16.8 115.0 -17.95 114.85 -19.15 114.45 -20.1 112.75 -21.0 111.1 -19.1 110.0 -14.7 108.25 -11.35 110.0 -10.65 111.75 -12.3 113.25" fill="#f3db31" fill-rule="evenodd" stroke="none"/>
      <path d="M-13.95 124.6 Q-13.15 121.8 -9.1 120.35 -5.05 118.95 -0.8 119.35 3.45 120.0 -1.7 121.7 -6.75 123.35 -13.95 124.6" fill="#bbe01e" fill-rule="evenodd" stroke="none"/>
      <path d="M-15.25 125.05 Q-22.5 123.8 -27.55 122.15 -32.65 120.45 -28.4 119.8 -24.15 119.4 -20.1 120.8 -16.1 122.25 -15.25 125.05" fill="#bbe01e" fill-rule="evenodd" stroke="none"/>
      <path d="M0.95 116.4 Q5.1 119.3 6.35 127.65 5.9 134.0 4.25 128.2 3.1 121.55 -0.25 116.5 L-0.65 115.4 Q-0.7 114.85 0.95 116.4" fill="#2f9d2d" fill-rule="evenodd" stroke="none"/>
      <path d="M8.35 117.85 Q10.7 121.65 8.0 128.6 6.6 131.45 5.85 130.9 5.2 130.3 5.9 128.2 7.95 122.55 7.2 117.35 7.15 116.75 7.35 116.35 7.55 115.95 8.35 117.85" fill="#2f9d2d" fill-rule="evenodd" stroke="none"/>
      <path d="M-6.5 126.6 Q-5.75 125.05 -2.5 124.45 0.8 123.9 3.2 127.1 5.9 132.25 2.95 129.75 0.5 126.9 -2.95 126.65 -6.9 126.8 -6.5 126.6" fill="#2f9d2d" fill-rule="evenodd" stroke="none"/>
      <path d="M15.75 116.9 Q16.75 107.2 17.75 102.7 L19.4 101.4 Q20.75 100.45 20.05 102.8 19.45 104.95 18.6 110.95 L17.1 122.3 16.4 128.0 14.6 127.7 15.75 116.9" fill="#199432" fill-rule="evenodd" stroke="none"/>
      <path d="M27.1 107.0 Q23.6 108.6 18.4 105.45 16.95 106.85 13.55 108.15 10.2 109.45 7.9 107.5 6.1 105.25 7.25 104.05 8.4 102.75 9.3 102.5 3.55 102.3 4.2 99.65 4.85 96.95 11.55 97.7 8.4 94.75 11.4 92.9 14.45 91.15 18.95 95.35 L21.3 94.35 Q23.45 93.25 25.95 92.9 32.55 93.0 31.65 96.75 30.75 100.55 26.85 101.95 30.6 105.3 27.1 107.0" fill="#b2e2d8" fill-rule="evenodd" stroke="none"/>
      <path d="M9.1 112.15 Q14.55 119.05 14.75 124.45 14.55 127.35 12.6 128.3 10.7 129.15 10.25 127.2 9.7 121.35 6.35 115.2 2.95 109.05 -4.25 107.05 3.65 105.25 9.1 112.15" fill="#199432" fill-rule="evenodd" stroke="none"/>
      <path d="M22.4 112.65 Q27.85 105.75 35.75 107.55 28.55 109.45 24.7 114.75 20.95 120.1 20.4 125.9 20.0 127.95 18.5 127.85 16.95 127.75 16.75 124.95 16.95 119.55 22.4 112.65" fill="#199432" fill-rule="evenodd" stroke="none"/>
      <path d="M17.25 104.85 Q16.3 106.2 13.45 106.75 10.7 107.3 8.7 105.8 6.6 103.5 10.7 101.35 12.85 101.0 15.3 102.35 17.65 103.7 17.25 104.85" fill="#ffffff" fill-rule="evenodd" stroke="none"/>
      <path d="M27.9 103.65 Q29.2 104.95 27.05 106.15 24.3 107.1 20.95 106.1 17.55 105.0 17.7 104.05 18.6 101.9 24.55 102.1 26.55 102.35 27.9 103.65" fill="#ffffff" fill-rule="evenodd" stroke="none"/>
      <path d="M30.35 95.95 Q30.65 100.55 24.65 101.4 21.8 101.35 19.8 98.7 17.85 96.1 20.8 94.7 23.75 93.65 26.75 93.8 29.65 93.95 30.35 95.95" fill="#ffffff" fill-rule="evenodd" stroke="none"/>
      <path d="M16.25 94.1 Q17.95 95.45 18.55 96.75 L16.25 97.9 Q14.2 98.9 13.25 98.75 12.3 98.35 11.35 96.8 10.4 95.2 12.35 93.85 14.6 92.85 16.25 94.1" fill="#ffffff" fill-rule="evenodd" stroke="none"/>
      <path d="M5.75 100.45 Q5.8 98.7 8.2 98.65 L12.5 99.2 Q14.25 100.2 12.7 101.55 L9.0 102.1 Q6.2 102.15 5.75 100.45" fill="#ffffff" fill-rule="evenodd" stroke="none"/>
      <path d="M23.2 98.05 Q26.65 102.75 17.65 103.2 9.4 102.2 13.0 97.95 15.1 96.55 18.3 96.55 21.45 96.55 23.2 98.05" fill="#f3db31" fill-rule="evenodd" stroke="none"/>
      <path d="M4.15 109.25 Q5.35 109.7 8.15 112.5 10.8 115.25 12.55 119.3 13.65 126.15 10.0 120.05 7.1 112.9 4.15 109.25" fill="#50ad26" fill-rule="evenodd" stroke="none"/>
      <path d="M26.85 110.1 Q23.6 113.6 20.4 120.75 17.0 126.95 18.4 120.15 20.1 116.1 22.85 113.35 25.6 110.55 26.85 110.1" fill="#50ad26" fill-rule="evenodd" stroke="none"/>
      <path d="M23.95 120.85 Q26.15 119.35 29.4 119.55 32.7 119.75 32.9 121.3 32.5 123.25 29.75 125.3 26.95 127.25 24.0 126.7 20.55 125.3 23.95 120.85" fill="#f7eb77" fill-rule="evenodd" stroke="none"/>
      <path d="M27.6 111.8 Q30.75 112.15 32.05 114.35 L30.6 116.3 Q29.2 118.0 26.85 117.95 25.55 117.95 23.25 117.1 20.9 116.3 22.3 113.9 24.35 111.45 27.6 111.8" fill="#f7eb77" fill-rule="evenodd" stroke="none"/>
    </g>
  </defs>
</svg>
