<?xml version="1.0" encoding="UTF-8" standalone="no"?>
<svg xmlns:xlink="http://www.w3.org/1999/xlink" height="413.3px" width="448.3px" xmlns="http://www.w3.org/2000/svg">
  <g transform="matrix(1.0, 0.0, 0.0, 1.0, 307.65, 180.0)">
    <use data-characterId="188" height="70.9" transform="matrix(1.0, 0.0, 0.0, 1.0, -87.85, 92.4)" width="195.15" xlink:href="#shape0"/>
    <use data-characterId="189" height="311.15" transform="matrix(1.0, 0.0, 0.0, 1.0, -116.45, -164.8)" width="206.45" xlink:href="#shape1"/>
    <use data-characterId="191" height="214.05" transform="matrix(1.0, 0.0, 0.0, 1.0, -103.95, -135.65)" width="180.2" xlink:href="#shape2"/>
    <use data-characterId="192" height="48.2" transform="matrix(0.8, 0.0, 0.0, 0.8, -83.2489, -121.0297)" width="168.2" xlink:href="#shape3"/>
    <use data-characterId="190" height="60.45" transform="matrix(1.0, 0.0, 0.0, 1.0, -70.4, 103.4)" width="185.9" xlink:href="#shape4"/>
  </g>
  <defs>
    <g id="shape0" transform="matrix(1.0, 0.0, 0.0, 1.0, 87.85, -92.4)">
      <path d="M65.05 146.75 L64.55 146.35 Q63.6 144.75 70.55 143.45 77.45 142.15 86.8 142.55 103.6 143.75 102.25 146.05 100.95 148.15 81.95 148.2 109.75 151.6 107.05 156.95 103.8 163.5 51.2 163.3 20.75 162.4 15.6 158.75 2.1 159.85 -20.3 159.8 -54.65 158.75 -56.85 154.25 -58.5 150.9 -49.15 147.9 -74.3 146.6 -82.4 143.35 -92.75 139.1 -83.4 134.1 -74.05 129.2 -53.0 126.15 -33.6 123.35 -11.15 124.35 L-8.7 141.0 Q-2.8 146.45 4.7 145.05 7.65 144.45 10.9 142.85 L9.45 126.2 Q52.15 131.15 48.15 139.25 45.6 144.25 22.65 146.55 28.55 147.7 31.8 149.05 46.3 146.15 65.05 146.75 M63.6 125.9 Q64.45 125.45 66.3 125.4 L67.25 125.4 Q72.95 126.2 66.3 126.55 L65.95 126.55 Q62.5 126.4 63.6 125.9 M74.55 129.05 L74.75 128.95 Q77.35 127.75 83.1 127.95 L83.95 128.1 Q94.8 129.7 83.95 130.45 L80.15 130.65 74.75 130.1 Q73.25 129.7 74.55 129.05 M55.65 129.1 L58.95 129.4 Q66.45 130.15 65.75 131.4 65.2 132.35 58.95 132.7 L50.7 132.8 Q37.4 132.35 41.6 130.6 45.8 128.85 55.65 129.1" fill="#33b400" fill-opacity="0.78039217" fill-rule="evenodd" stroke="none"/>
      <path d="M-54.7 124.9 Q-42.65 124.7 -52.15 123.0 -56.35 122.75 -58.35 123.6 -60.4 124.5 -54.7 124.9" fill="#1a9431" fill-rule="evenodd" stroke="none"/>
      <path d="M-62.3 123.0 Q-71.8 124.7 -59.75 124.9 -54.1 124.5 -56.1 123.6 -58.1 122.75 -62.3 123.0" fill="#1a9431" fill-rule="evenodd" stroke="none"/>
      <path d="M-58.4 121.7 L-58.7 124.5 -57.15 124.55 -56.85 121.6 -56.2 117.4 Q-55.85 116.35 -56.75 116.8 L-57.75 117.4 -58.4 121.7" fill="#199432" fill-rule="evenodd" stroke="none"/>
      <path d="M-57.1 113.95 Q-59.4 112.05 -60.95 112.85 -62.4 113.65 -60.8 115.0 -64.15 114.65 -64.5 115.9 -64.85 117.1 -61.95 117.15 -63.6 117.45 -62.7 119.45 -59.65 120.55 -57.35 118.5 -54.8 120.0 -53.05 119.2 -51.3 118.45 -53.2 116.95 -51.2 116.3 -50.75 114.6 -50.3 112.85 -53.6 112.85 -56.55 113.6 -57.1 113.95" fill="#f8f98d" fill-rule="evenodd" stroke="none"/>
      <path d="M-59.4 117.1 Q-58.0 117.85 -55.7 118.05 -53.3 117.05 -54.95 115.15 -57.85 114.15 -60.05 115.15 -60.5 116.15 -59.4 117.1" fill="#f3db31" fill-rule="evenodd" stroke="none"/>
      <path d="M-58.35 123.85 Q-58.9 122.15 -61.5 121.35 -64.2 120.5 -67.0 120.75 -69.75 121.15 -66.45 122.1 L-58.35 123.85" fill="#8fcb24" fill-rule="evenodd" stroke="none"/>
      <path d="M-57.5 124.1 L-49.45 122.35 Q-46.1 121.4 -48.95 121.0 -51.7 120.75 -54.3 121.6 -57.0 122.4 -57.5 124.1" fill="#8fcb24" fill-rule="evenodd" stroke="none"/>
      <path d="M-19.55 126.35 Q-28.85 126.65 -29.75 125.3 -30.65 124.05 -23.5 123.1 -17.1 122.7 -14.05 124.2 -10.95 125.6 -19.55 126.35" fill="#1a9431" fill-rule="evenodd" stroke="none"/>
      <path d="M-1.8 125.3 Q-2.6 126.65 -11.9 126.35 -20.55 125.6 -17.5 124.2 -14.4 122.7 -8.0 123.1 -0.95 124.05 -1.8 125.3" fill="#1a9431" fill-rule="evenodd" stroke="none"/>
      <path d="M-13.8 120.95 L-13.5 125.6 -15.85 125.65 -16.15 120.75 Q-16.5 116.2 -17.25 113.65 -17.7 111.85 -16.45 112.65 L-14.9 113.65 Q-14.15 116.7 -13.8 120.95" fill="#199432" fill-rule="evenodd" stroke="none"/>
      <path d="M-11.75 117.8 Q-14.3 116.8 -15.45 115.7 -19.4 118.15 -22.1 116.85 -24.75 115.6 -21.9 113.1 -24.9 111.95 -25.55 109.05 -26.2 106.2 -21.25 106.15 -16.7 107.45 -15.85 107.95 -12.4 104.8 -10.05 106.15 -7.75 107.5 -10.2 109.8 -5.05 109.25 -4.6 111.25 -4.05 113.3 -8.5 113.5 -7.85 113.7 -6.95 114.65 -6.0 115.6 -7.4 117.25 -9.15 118.75 -11.75 117.8" fill="#f8f98d" fill-rule="evenodd" stroke="none"/>
      <path d="M-12.3 113.25 L-14.8 114.3 Q-16.8 115.0 -17.95 114.85 -19.15 114.45 -20.1 112.75 -21.0 111.1 -19.1 110.0 -14.7 108.25 -11.35 110.0 -10.65 111.75 -12.3 113.25" fill="#f3db31" fill-rule="evenodd" stroke="none"/>
      <path d="M-13.95 124.6 Q-13.15 121.8 -9.1 120.35 -5.05 118.95 -0.8 119.35 3.45 120.0 -1.7 121.7 -6.75 123.35 -13.95 124.6" fill="#bbe01e" fill-rule="evenodd" stroke="none"/>
      <path d="M-15.25 125.05 Q-22.5 123.8 -27.55 122.15 -32.65 120.45 -28.4 119.8 -24.15 119.4 -20.1 120.8 -16.1 122.25 -15.25 125.05" fill="#bbe01e" fill-rule="evenodd" stroke="none"/>
      <path d="M0.95 116.4 Q5.1 119.3 6.35 127.65 5.9 134.0 4.25 128.2 3.1 121.55 -0.25 116.5 L-0.65 115.4 Q-0.7 114.85 0.95 116.4" fill="#2f9d2d" fill-rule="evenodd" stroke="none"/>
      <path d="M8.35 117.85 Q10.7 121.65 8.0 128.6 6.6 131.45 5.85 130.9 5.2 130.3 5.9 128.2 7.95 122.55 7.2 117.35 7.15 116.75 7.35 116.35 7.55 115.95 8.35 117.85" fill="#2f9d2d" fill-rule="evenodd" stroke="none"/>
      <path d="M-6.5 126.6 Q-5.75 125.05 -2.5 124.45 0.8 123.9 3.2 127.1 5.9 132.25 2.95 129.75 0.5 126.9 -2.95 126.65 -6.9 126.8 -6.5 126.6" fill="#2f9d2d" fill-rule="evenodd" stroke="none"/>
      <path d="M15.75 116.9 Q16.75 107.2 17.75 102.7 L19.4 101.4 Q20.75 100.45 20.05 102.8 19.45 104.95 18.6 110.95 L17.1 122.3 16.4 128.0 14.6 127.7 15.75 116.9" fill="#199432" fill-rule="evenodd" stroke="none"/>
      <path d="M27.1 107.0 Q23.6 108.6 18.4 105.45 16.95 106.85 13.55 108.15 10.2 109.45 7.9 107.5 6.1 105.25 7.25 104.05 8.4 102.75 9.3 102.5 3.55 102.3 4.2 99.65 4.85 96.95 11.55 97.7 8.4 94.75 11.4 92.9 14.45 91.15 18.95 95.35 L21.3 94.35 Q23.45 93.25 25.95 92.9 32.55 93.0 31.65 96.75 30.75 100.55 26.85 101.95 30.6 105.3 27.1 107.0" fill="#b2e2d8" fill-rule="evenodd" stroke="none"/>
      <path d="M9.1 112.15 Q14.55 119.05 14.75 124.45 14.55 127.35 12.6 128.3 10.7 129.15 10.25 127.2 9.7 121.35 6.35 115.2 2.95 109.05 -4.25 107.05 3.65 105.25 9.1 112.15" fill="#199432" fill-rule="evenodd" stroke="none"/>
      <path d="M22.4 112.65 Q27.85 105.75 35.75 107.55 28.55 109.45 24.7 114.75 20.95 120.1 20.4 125.9 20.0 127.95 18.5 127.85 16.95 127.75 16.75 124.95 16.95 119.55 22.4 112.65" fill="#199432" fill-rule="evenodd" stroke="none"/>
      <path d="M17.25 104.85 Q16.3 106.2 13.45 106.75 10.7 107.3 8.7 105.8 6.6 103.5 10.7 101.35 12.85 101.0 15.3 102.35 17.65 103.7 17.25 104.85" fill="#ffffff" fill-rule="evenodd" stroke="none"/>
      <path d="M27.9 103.65 Q29.2 104.95 27.05 106.15 24.3 107.1 20.95 106.1 17.55 105.0 17.7 104.05 18.6 101.9 24.55 102.1 26.55 102.35 27.9 103.65" fill="#ffffff" fill-rule="evenodd" stroke="none"/>
      <path d="M30.35 95.95 Q30.65 100.55 24.65 101.4 21.8 101.35 19.8 98.7 17.85 96.1 20.8 94.7 23.75 93.65 26.75 93.8 29.65 93.95 30.35 95.95" fill="#ffffff" fill-rule="evenodd" stroke="none"/>
      <path d="M16.25 94.1 Q17.95 95.45 18.55 96.75 L16.25 97.9 Q14.2 98.9 13.25 98.75 12.3 98.35 11.35 96.8 10.4 95.2 12.35 93.85 14.6 92.85 16.25 94.1" fill="#ffffff" fill-rule="evenodd" stroke="none"/>
      <path d="M5.75 100.45 Q5.8 98.7 8.2 98.65 L12.5 99.2 Q14.25 100.2 12.7 101.55 L9.0 102.1 Q6.2 102.15 5.75 100.45" fill="#ffffff" fill-rule="evenodd" stroke="none"/>
      <path d="M23.2 98.05 Q26.65 102.75 17.65 103.2 9.4 102.2 13.0 97.95 15.1 96.55 18.3 96.55 21.45 96.55 23.2 98.05" fill="#f3db31" fill-rule="evenodd" stroke="none"/>
      <path d="M4.15 109.25 Q5.35 109.7 8.15 112.5 10.8 115.25 12.55 119.3 13.65 126.15 10.0 120.05 7.1 112.9 4.15 109.25" fill="#50ad26" fill-rule="evenodd" stroke="none"/>
      <path d="M26.85 110.1 Q23.6 113.6 20.4 120.75 17.0 126.95 18.4 120.15 20.1 116.1 22.85 113.35 25.6 110.55 26.85 110.1" fill="#50ad26" fill-rule="evenodd" stroke="none"/>
      <path d="M23.95 120.85 Q26.15 119.35 29.4 119.55 32.7 119.75 32.9 121.3 32.5 123.25 29.75 125.3 26.95 127.25 24.0 126.7 20.55 125.3 23.95 120.85" fill="#f7eb77" fill-rule="evenodd" stroke="none"/>
      <path d="M27.6 111.8 Q30.75 112.15 32.05 114.35 L30.6 116.3 Q29.2 118.0 26.85 117.95 25.55 117.95 23.25 117.1 20.9 116.3 22.3 113.9 24.35 111.45 27.6 111.8" fill="#f7eb77" fill-rule="evenodd" stroke="none"/>
    </g>
    <g id="shape1" transform="matrix(1.0, 0.0, 0.0, 1.0, 102.95, 152.5)">
      <path d="M-11.75 -150.6 L-6.1 -146.25 Q-4.4 -109.9 1.1 -62.45 L13.5 45.8 15.0 59.15 20.25 109.2 Q22.6 133.3 24.4 155.15 21.15 156.75 18.2 157.35 L-11.75 -150.6" fill="#b74b04" fill-rule="evenodd" stroke="none"/>
      <path d="M18.2 157.35 Q10.7 158.75 4.8 153.3 L-0.6 116.5 -1.3 111.7 -1.65 109.2 -2.55 102.75 -3.9 93.1 -8.45 59.15 -13.15 21.9 Q-18.2 -19.65 -24.45 -65.3 L-32.9 -124.5 -33.7 -129.85 -34.85 -137.45 -36.1 -145.9 -30.45 -149.25 Q-27.85 -150.7 -22.7 -151.1 L-12.9 -151.5 -11.75 -150.6 18.2 157.35" fill="#cc6005" fill-rule="evenodd" stroke="none"/>
      <path d="M18.2 157.35 Q10.7 158.75 4.8 153.3 L-0.6 116.5 -1.3 111.7 -1.65 109.2 -2.55 102.75 -3.9 93.1 -8.45 59.15 -13.15 21.9 Q-18.2 -19.65 -24.45 -65.3 L-32.9 -124.5 -33.7 -129.85 -34.85 -137.45 -36.1 -145.9 -30.45 -149.25 Q-27.85 -150.7 -22.7 -151.1 L-12.9 -151.5 -11.75 -150.6 -6.1 -146.25 Q-4.4 -109.9 1.1 -62.45 L13.5 45.8 15.0 59.15 20.25 109.2 Q22.6 133.3 24.4 155.15 21.15 156.75 18.2 157.35 Z" fill="none" stroke="#a73e00" stroke-linecap="round" stroke-linejoin="round" stroke-width="2.0"/>
      <path d="M-91.0 101.8 L-95.15 91.75 -67.85 81.3 Q-57.6 78.3 -47.0 76.1 L-36.35 74.45 -34.2 74.25 -28.2 73.75 -25.4 73.65 -22.65 73.6 Q-14.25 73.45 -6.05 73.75 L18.6 75.2 23.1 75.6 30.35 76.4 70.1 80.55 90.0 82.3 90.05 82.3 90.0 82.5 89.7 83.3 88.05 91.85 87.75 93.15 87.5 96.1 71.55 94.9 42.75 92.85 30.35 92.2 19.65 91.8 Q2.0 91.2 -4.75 91.2 L-34.2 92.3 -49.3 93.95 Q-68.25 96.65 -79.6 99.15 L-91.0 101.8" fill="#cc6005" fill-rule="evenodd" stroke="none"/>
      <path d="M-91.0 101.8 L-79.6 99.15 Q-68.25 96.65 -49.3 93.95 L-34.2 92.3 -4.75 91.2 Q2.0 91.2 19.65 91.8 L30.35 92.2 42.75 92.85 71.55 94.9 87.5 96.1 87.75 93.15 88.05 91.85 89.7 83.3 90.0 82.5 90.05 82.3 92.35 82.5 88.95 98.4 87.05 98.25 86.9 98.25 66.55 96.8 Q60.25 96.45 54.15 96.5 L44.95 96.05 41.95 96.0 38.85 95.9 30.35 95.75 20.55 95.35 -2.05 94.85 Q-15.6 94.7 -29.15 95.3 L-34.2 95.55 -45.95 96.35 Q-55.75 97.2 -65.5 98.75 L-80.7 101.4 -90.45 103.2 -91.0 101.8" fill="#b74b04" fill-rule="evenodd" stroke="none"/>
      <path d="M90.05 82.3 L90.0 82.3 70.1 80.55 30.35 76.4 23.1 75.6 18.6 75.2 -6.05 73.75 Q-14.25 73.45 -22.65 73.6 L-25.4 73.65 -28.2 73.75 -34.2 74.25 -36.35 74.45 -47.0 76.1 Q-57.6 78.3 -67.85 81.3 L-95.15 91.75 -91.0 101.8 -90.45 103.2 -80.7 101.4 -65.5 98.75 Q-55.75 97.2 -45.95 96.35 L-34.2 95.55 -29.15 95.3 Q-15.6 94.7 -2.05 94.85 L20.55 95.35 30.35 95.75 38.85 95.9 41.95 96.0 44.95 96.05 54.15 96.5 Q60.25 96.45 66.55 96.8 L86.9 98.25 87.05 98.25 88.95 98.4 92.35 82.5 90.05 82.3 Z" fill="none" stroke="#a73e00" stroke-linecap="round" stroke-linejoin="round" stroke-width="2.0"/>
      <path d="M92.2 47.7 L92.7 61.75 95.35 61.6 95.35 65.05 92.85 65.1 92.7 61.75 Q71.95 62.9 56.4 66.1 L30.35 71.0 23.55 72.15 Q6.25 75.0 -10.95 76.3 L-34.2 77.4 -51.6 77.6 -59.25 76.95 -89.95 78.75 -89.95 61.6 -64.3 56.85 Q-53.8 55.05 -43.05 54.3 -36.05 54.0 -29.05 54.0 -18.55 53.85 -8.0 54.15 12.9 54.7 33.65 53.5 L55.95 51.9 71.45 50.4 92.2 47.7" fill="#9a3501" fill-rule="evenodd" stroke="none"/>
      <path d="M92.2 47.7 L95.35 47.3 95.35 61.6 92.7 61.75 92.2 47.7 M92.85 65.1 Q79.95 65.4 67.2 67.4 L46.45 71.3 30.35 74.3 23.1 75.6 17.8 76.55 14.25 77.15 -0.65 78.6 -34.2 80.15 -36.0 80.25 -62.9 81.1 -62.95 81.1 -67.85 81.3 -89.95 81.95 -89.95 78.75 -59.25 76.95 -51.6 77.6 -34.2 77.4 -10.95 76.3 Q6.25 75.0 23.55 72.15 L30.35 71.0 56.4 66.1 Q71.95 62.9 92.7 61.75 L92.85 65.1" fill="#872801" fill-rule="evenodd" stroke="none"/>
      <path d="M95.35 61.6 L95.35 47.3 92.2 47.7 71.45 50.4 55.95 51.9 33.65 53.5 Q12.9 54.7 -8.0 54.15 -18.55 53.85 -29.05 54.0 -36.05 54.0 -43.05 54.3 -53.8 55.05 -64.3 56.85 L-89.95 61.6 -89.95 78.75 -89.95 81.95 -67.85 81.3 -62.95 81.1 -62.9 81.1 -36.0 80.25 -34.2 80.15 -0.65 78.6 14.25 77.15 17.8 76.55 23.1 75.6 30.35 74.3 46.45 71.3 67.2 67.4 Q79.95 65.4 92.85 65.1 L95.35 65.05 95.35 61.6 Z" fill="none" stroke="#a73e00" stroke-linecap="round" stroke-linejoin="round" stroke-width="2.0"/>
      <path d="M86.45 6.75 Q88.55 9.35 93.65 17.3 L95.9 20.8 96.35 21.5 96.6 24.65 Q97.25 37.25 97.25 34.4 L97.4 38.75 Q63.45 43.85 47.1 45.55 L33.25 46.8 -13.6 48.45 -30.05 48.15 -42.45 47.85 -59.7 47.15 Q-68.9 47.15 -81.15 49.9 L-96.4 53.15 -96.85 43.9 -87.05 36.3 -87.35 33.4 -87.6 33.4 -97.55 30.6 -98.0 22.3 -88.1 22.15 -5.05 18.15 33.25 14.65 Q59.9 11.55 86.45 6.75" fill="#cc6005" fill-rule="evenodd" stroke="none"/>
      <path d="M86.45 6.75 L88.75 6.3 99.75 20.15 99.75 43.25 97.55 43.55 97.5 43.55 61.35 47.65 33.25 50.1 Q10.55 51.45 -6.9 50.4 -46.65 47.8 -96.25 56.0 L-96.4 53.15 -81.15 49.9 Q-68.9 47.15 -59.7 47.15 L-42.45 47.85 -30.05 48.15 -13.6 48.45 33.25 46.8 47.1 45.55 Q63.45 43.85 97.4 38.75 L97.25 34.4 Q97.25 37.25 96.6 24.65 L96.35 21.5 95.9 20.8 93.65 17.3 Q88.55 9.35 86.45 6.75 M-87.6 33.4 L-87.35 33.4 -87.05 36.3 -96.85 43.9 -97.0 40.85 -93.85 38.0 Q-88.85 33.45 -87.6 33.4" fill="#b74b04" fill-rule="evenodd" stroke="none"/>
      <path d="M97.55 43.55 L99.75 43.25 99.75 20.15 88.75 6.3 86.45 6.75 Q59.9 11.55 33.25 14.65 L-5.05 18.15 -88.1 22.15 -98.0 22.3 -97.55 30.6 -87.6 33.4 Q-88.85 33.45 -93.85 38.0 L-97.0 40.85 -96.85 43.9 -96.4 53.15 -96.25 56.0 Q-46.65 47.8 -6.9 50.4 10.55 51.45 33.25 50.1 L61.35 47.65 97.5 43.55" fill="none" stroke="#a73e00" stroke-linecap="round" stroke-linejoin="round" stroke-width="2.0"/>
      <path d="M0.05 -22.95 L0.05 -22.75 -1.8 -23.05 0.05 -22.95" fill="url(#gradient0)" fill-rule="evenodd" stroke="none"/>
      <path d="M0.05 -22.75 L0.05 -22.95 96.0 -18.0 96.6 -0.3 96.35 3.15 94.75 5.3 74.8 3.5 33.25 5.1 14.55 6.6 Q-3.25 9.55 -23.35 11.15 L-45.6 12.3 -63.95 11.45 -100.2 7.25 -96.5 -11.55 Q-86.1 -14.9 -75.65 -16.7 -38.0 -22.3 0.05 -22.75" fill="#ca7902" fill-rule="evenodd" stroke="none"/>
      <path d="M-100.2 7.25 L-63.95 11.45 -45.6 12.3 -23.35 11.15 Q-3.25 9.55 14.55 6.6 L33.25 5.1 74.8 3.5 94.75 5.3 96.35 3.15 96.6 -0.3 96.0 -18.0 99.85 -17.8 99.1 -15.3 99.05 8.45 Q65.95 7.9 33.25 9.45 L-13.2 12.7 Q-56.7 20.15 -100.95 11.1 L-100.2 7.25" fill="#a76503" fill-rule="evenodd" stroke="none"/>
      <path d="M0.05 -22.75 Q-38.0 -22.3 -75.65 -16.7 -86.1 -14.9 -96.5 -11.55 L-100.2 7.25 -100.95 11.1 Q-56.7 20.15 -13.2 12.7 L33.25 9.45 Q65.95 7.9 99.05 8.45 L99.1 -15.3 99.85 -17.8 96.0 -18.0 0.05 -22.95 -1.8 -23.05 0.05 -22.75 Z" fill="none" stroke="#a73e00" stroke-linecap="round" stroke-linejoin="round" stroke-width="2.0"/>
      <path d="M91.95 -35.75 L89.7 -33.3 90.3 -32.95 Q93.9 -30.95 98.2 -31.1 L98.25 -25.65 85.6 -25.75 55.75 -26.05 Q44.5 -26.1 33.25 -25.75 L29.5 -25.65 18.1 -24.8 Q3.4 -24.15 -11.4 -24.35 -25.25 -24.55 -39.0 -23.9 L-65.2 -22.45 Q-77.0 -20.7 -82.9 -18.95 -88.85 -17.25 -100.3 -17.65 L-101.3 -32.95 -101.85 -42.95 Q-38.45 -51.8 22.1 -51.8 67.2 -50.9 92.25 -49.95 L93.25 -49.9 Q97.2 -44.85 96.6 -40.85 L97.25 -40.2 97.55 -39.5 94.15 -37.25 92.2 -35.95 91.85 -35.75 91.95 -35.75" fill="#9a3501" fill-rule="evenodd" stroke="none"/>
      <path d="M91.95 -35.75 L92.25 -35.7 100.55 -34.15 100.55 -30.95 100.1 -21.75 Q69.3 -22.3 33.25 -21.7 L24.1 -21.55 Q-58.15 -19.8 -99.9 -12.5 L-100.3 -17.65 Q-88.85 -17.25 -82.9 -18.95 -77.0 -20.7 -65.2 -22.45 L-39.0 -23.9 Q-25.25 -24.55 -11.4 -24.35 3.4 -24.15 18.1 -24.8 L29.5 -25.65 33.25 -25.75 Q44.5 -26.1 55.75 -26.05 L85.6 -25.75 98.25 -25.65 98.2 -31.1 Q93.9 -30.95 90.3 -32.95 L89.7 -33.3 91.95 -35.75 M93.25 -49.9 L97.1 -49.75 98.55 -46.25 99.85 -41.0 97.55 -39.5 97.25 -40.2 96.6 -40.85 Q97.2 -44.85 93.25 -49.9" fill="#872801" fill-rule="evenodd" stroke="none"/>
      <path d="M-100.3 -17.65 L-99.9 -12.5 Q-58.15 -19.8 24.1 -21.55 L33.25 -21.7 Q69.3 -22.3 100.1 -21.75 L100.55 -30.95 100.55 -34.15 92.25 -35.7 91.95 -35.75 91.85 -35.75 92.2 -35.95 M-100.3 -17.65 L-101.3 -32.95 -101.85 -42.95 -101.9 -43.7 M-101.85 -42.95 Q-38.45 -51.8 22.1 -51.8 67.2 -50.9 92.25 -49.95 L93.25 -49.9 97.1 -49.75 98.55 -46.25 99.85 -41.0 97.55 -39.5 94.15 -37.25" fill="none" stroke="#a73e00" stroke-linecap="round" stroke-linejoin="round" stroke-width="2.0"/>
      <path d="M94.15 -74.85 L94.55 -71.65 Q95.35 -64.7 95.1 -57.85 L92.25 -57.3 Q84.3 -55.95 76.1 -55.3 L70.65 -54.75 70.35 -55.15 Q43.95 -53.7 24.6 -53.95 5.25 -54.2 -8.6 -53.7 L-33.3 -52.65 Q-48.95 -53.9 -64.5 -52.35 L-97.95 -50.45 -97.95 -65.7 Q-51.65 -72.55 -4.75 -73.5 L33.05 -75.45 Q55.3 -77.25 77.5 -75.75 L92.25 -74.95 94.15 -74.85" fill="#cc6005" fill-rule="evenodd" stroke="none"/>
      <path d="M-97.95 -50.45 L-64.5 -52.35 Q-48.95 -53.9 -33.3 -52.65 L-8.6 -53.7 Q5.25 -54.2 24.6 -53.95 43.95 -53.7 70.35 -55.15 L70.65 -54.75 76.1 -55.3 Q84.3 -55.95 92.25 -57.3 L95.1 -57.85 Q95.35 -64.7 94.55 -71.65 L94.15 -74.85 97.1 -74.7 98.35 -53.6 49.0 -49.8 Q18.65 -49.55 -12.8 -50.3 -55.5 -51.3 -97.95 -46.85 L-97.95 -50.45" fill="#b74b04" fill-rule="evenodd" stroke="none"/>
      <path d="M-97.95 -50.45 L-97.95 -46.85 Q-55.5 -51.3 -12.8 -50.3 18.65 -49.55 49.0 -49.8 L98.35 -53.6 97.1 -74.7 94.15 -74.85 92.25 -74.95 77.5 -75.75 Q55.3 -77.25 33.05 -75.45 L-4.75 -73.5 Q-51.65 -72.55 -97.95 -65.7 L-97.95 -50.45 Z" fill="none" stroke="#a73e00" stroke-linecap="round" stroke-linejoin="round" stroke-width="2.0"/>
      <path d="M-99.15 -73.9 Q-98.8 -76.8 -99.25 -83.1 -99.7 -90.0 -101.05 -94.0 -76.35 -96.55 -51.75 -100.35 -13.8 -100.4 23.2 -100.6 57.9 -100.8 92.25 -101.75 L93.75 -101.8 93.75 -101.4 Q94.15 -92.9 93.9 -91.0 93.75 -89.7 92.25 -86.65 L92.0 -86.15 82.5 -85.8 66.5 -86.4 65.55 -86.45 -37.65 -80.1 Q-73.35 -77.4 -99.15 -73.9" fill="#cc6005" fill-rule="evenodd" stroke="none"/>
      <path d="M93.75 -101.8 L96.75 -101.9 Q96.5 -98.55 95.8 -96.95 L95.8 -82.25 92.25 -82.3 Q79.45 -82.35 61.75 -81.85 L-3.2 -78.8 Q-86.0 -73.05 -100.2 -70.35 L-100.2 -71.5 Q-99.4 -71.6 -99.15 -73.9 -73.35 -77.4 -37.65 -80.1 L65.55 -86.45 66.5 -86.4 82.5 -85.8 92.0 -86.15 92.25 -86.65 Q93.75 -89.7 93.9 -91.0 94.15 -92.9 93.75 -101.4 L93.75 -101.8" fill="#b74b04" fill-rule="evenodd" stroke="none"/>
      <path d="M96.75 -101.9 Q96.5 -98.55 95.8 -96.95 L95.8 -82.25 92.25 -82.3 Q79.45 -82.35 61.75 -81.85 L-3.2 -78.8 Q-86.0 -73.05 -100.2 -70.35 M-100.2 -71.5 Q-99.4 -71.6 -99.15 -73.9 -98.8 -76.8 -99.25 -83.1 -99.7 -90.0 -101.05 -94.0" fill="none" stroke="#a73e00" stroke-linecap="round" stroke-linejoin="round" stroke-width="2.0"/>
      <path d="M93.75 -101.8 L96.75 -101.9 M-101.05 -94.0 Q-76.35 -96.55 -51.75 -100.35 -13.8 -100.4 23.2 -100.6 57.9 -100.8 92.25 -101.75 L93.75 -101.8" fill="none" stroke="#a73e00" stroke-linecap="round" stroke-linejoin="round" stroke-width="2.0"/>
      <path d="M-98.05 -99.4 Q-91.5 -99.25 -84.25 -99.45 L-62.35 -101.15 -22.45 -103.5 33.4 -105.75 Q63.3 -107.2 92.25 -106.8 L93.5 -106.8 95.1 -110.4 93.85 -114.95 Q92.6 -119.95 92.25 -125.05 92.05 -127.7 92.15 -130.4 L92.25 -130.4 92.45 -130.35 96.15 -130.0 96.15 -128.3 Q95.4 -118.8 98.55 -110.15 L99.05 -108.9 99.55 -107.7 Q100.8 -104.85 102.5 -102.1 L29.2 -103.1 -97.5 -96.6 -98.05 -99.4" fill="#b74b04" fill-rule="evenodd" stroke="none"/>
      <path d="M92.15 -130.4 Q92.05 -127.7 92.25 -125.05 92.6 -119.95 93.85 -114.95 L95.1 -110.4 93.5 -106.8 92.25 -106.8 Q63.3 -107.2 33.4 -105.75 L-22.45 -103.5 -62.35 -101.15 -84.25 -99.45 Q-91.5 -99.25 -98.05 -99.4 L-98.1 -99.5 -99.05 -104.45 -96.6 -106.15 Q-93.1 -108.55 -91.35 -108.35 L-100.1 -109.8 -101.95 -119.1 -100.1 -119.4 -72.4 -124.65 Q-51.55 -128.45 -35.6 -130.1 L-15.9 -131.95 1.5 -133.15 Q22.65 -134.5 54.65 -133.75 L75.05 -131.95 92.15 -130.4" fill="#cc6005" fill-rule="evenodd" stroke="none"/>
      <path d="M-98.05 -99.4 L-97.5 -96.6 29.2 -103.1 102.5 -102.1 Q100.8 -104.85 99.55 -107.7 L99.05 -108.9 98.55 -110.15 Q95.4 -118.8 96.15 -128.3 L96.15 -130.0 92.45 -130.35 92.25 -130.4 92.15 -130.4 75.05 -131.95 54.65 -133.75 Q22.65 -134.5 1.5 -133.15 L-15.9 -131.95 -35.6 -130.1 Q-51.55 -128.45 -72.4 -124.65 L-100.1 -119.4 -101.95 -119.1 -100.1 -109.8 -91.35 -108.35 Q-93.1 -108.55 -96.6 -106.15 L-99.05 -104.45 -98.1 -99.5" fill="none" stroke="#a73e00" stroke-linecap="round" stroke-linejoin="round" stroke-width="2.0"/>
    </g>
    <radialGradient cx="0" cy="0" gradientTransform="matrix(0.1586, 0.0, 0.0, 0.1586, 28.55, 0.75)" gradientUnits="userSpaceOnUse" id="gradient0" r="819.2" spreadMethod="pad">
      <stop offset="0.0" stop-color="#cd6106"/>
      <stop offset="1.0" stop-color="#9a3501"/>
    </radialGradient>
    <g id="shape2" transform="matrix(1.0, 0.0, 0.0, 1.0, 90.1, 107.05)">
      <path d="M7.25 101.95 L-33.85 99.75 Q-47.2 99.4 -54.5 100.0 -71.45 101.25 -82.85 103.5 L-89.1 104.9 -86.85 98.15 -85.9 94.75 Q-83.6 86.3 -82.0 76.5 L-81.1 70.05 -80.65 66.2 Q-79.2 53.2 -78.9 38.15 L-78.8 30.85 -78.8 25.9 Q-78.95 14.0 -79.7 0.9 L-79.95 -3.35 -80.25 -8.3 -81.8 -29.2 -82.0 -32.0 -82.2 -34.8 -83.5 -51.35 -83.9 -56.05 -84.15 -59.45 -85.9 -79.3 -86.05 -80.9 -86.3 -83.1 Q-87.35 -93.7 -88.15 -98.5 L81.2 -106.05 82.05 -104.1 82.85 -90.6 83.1 -86.05 83.15 -85.2 84.05 -69.55 84.25 -66.0 84.65 -59.05 85.75 -39.95 85.95 -36.35 86.1 -33.85 87.5 -9.4 87.7 -5.65 87.9 -2.1 88.45 7.5 89.0 21.1 89.05 24.6 89.1 26.15 Q89.15 43.3 87.35 56.6 L86.65 61.2 86.0 64.85 Q84.4 72.7 82.0 78.85 L80.6 82.1 Q78.8 85.9 76.7 88.95 73.55 93.5 70.25 96.85 60.65 106.4 49.7 106.0 39.4 99.15 37.5 96.45 36.75 95.45 36.5 94.1 L36.35 93.3 35.8 91.15 Q34.85 91.15 34.85 90.25 34.0 91.65 32.6 92.9 L30.7 94.3 Q27.75 96.25 23.25 97.7 14.45 100.5 7.25 101.95" fill="#fffecb" fill-rule="evenodd" stroke="none"/>
      <path d="M49.7 106.0 Q46.25 105.85 42.65 104.7 L30.7 103.7 7.25 101.95 Q14.45 100.5 23.25 97.7 27.75 96.25 30.7 94.3 L32.6 92.9 Q34.0 91.65 34.85 90.25 34.85 91.15 35.8 91.15 L36.35 93.3 36.5 94.1 Q36.75 95.45 37.5 96.45 39.4 99.15 49.7 106.0" fill="#fffce6" fill-rule="evenodd" stroke="none"/>
      <path d="M7.25 101.95 L-33.85 99.75 Q-47.2 99.4 -54.5 100.0 -71.45 101.25 -82.85 103.5 L-89.1 104.9 -86.85 98.15 -85.9 94.75 Q-83.6 86.3 -82.0 76.5 L-81.1 70.05 -80.65 66.2 Q-79.2 53.2 -78.9 38.15 L-78.8 30.85 -78.8 25.9 Q-78.95 14.0 -79.7 0.9 L-79.95 -3.35 -80.25 -8.3 -81.8 -29.2 -82.0 -32.0 -82.2 -34.8 -83.5 -51.35 -83.9 -56.05 -84.15 -59.45 -85.9 -79.3 -86.05 -80.9 -86.3 -83.1 Q-87.35 -93.7 -88.15 -98.5 L81.2 -106.05 82.05 -104.1 82.85 -90.6 83.1 -86.05 83.15 -85.2 84.05 -69.55 84.25 -66.0 84.65 -59.05 85.75 -39.95 85.95 -36.35 86.1 -33.85 87.5 -9.4 87.7 -5.65 87.9 -2.1 88.45 7.5 89.0 21.1 89.05 24.6 89.1 26.15 Q89.15 43.3 87.35 56.6 L86.65 61.2 86.0 64.85 Q84.4 72.7 82.0 78.85 L80.6 82.1 Q78.8 85.9 76.7 88.95 73.55 93.5 70.25 96.85 60.65 106.4 49.7 106.0 46.25 105.85 42.65 104.7 L30.7 103.7 7.25 101.95 Q14.45 100.5 23.25 97.7 27.75 96.25 30.7 94.3 L32.6 92.9 Q34.0 91.65 34.85 90.25 34.85 91.15 35.8 91.15 L36.35 93.3 36.5 94.1 Q36.75 95.45 37.5 96.45 39.4 99.15 49.7 106.0" fill="none" stroke="#fcd57a" stroke-linecap="round" stroke-linejoin="round" stroke-width="2.0"/>
    </g>
    <g id="shape3" transform="matrix(1.0, 0.0, 0.0, 1.0, 87.5, 24.1)">
      <path d="M80.5 -19.85 L80.7 -19.05 80.0 -10.8 78.0 -10.05 79.85 -8.4 79.25 -0.95 78.1 -0.7 79.15 0.25 79.15 16.75 Q79.15 17.55 78.65 18.1 78.15 18.7 77.3 18.75 L-77.5 24.1 -77.9 24.1 -78.6 23.8 -78.9 23.6 -81.1 21.55 Q-81.7 21.05 -81.75 20.2 L-82.05 18.15 -80.7 17.85 -82.3 16.4 -85.65 -6.3 -84.05 -6.45 -85.9 -8.2 -86.5 -12.1 Q-86.5 -13.0 -85.95 -13.6 -85.4 -14.2 -84.5 -14.25 L76.3 -23.1 Q77.2 -23.1 77.8 -22.55 L80.0 -20.5 80.5 -19.85" fill="#6c2809" fill-rule="evenodd" stroke="none"/>
      <path d="M77.6 -10.45 L77.0 -3.0 71.45 -1.95 76.9 -1.8 76.95 14.7 Q76.95 15.5 76.4 16.05 75.9 16.65 75.1 16.7 L-79.75 22.05 Q-80.55 22.05 -81.1 21.55 -81.7 21.0 -81.75 20.2 L-82.05 18.15 -78.25 17.25 -82.3 16.4 -85.65 -6.3 -80.4 -6.9 -85.9 -8.2 -86.5 -12.1 Q-86.5 -13.0 -85.95 -13.6 -85.4 -14.2 -84.5 -14.25 L76.3 -23.1 Q77.2 -23.1 77.8 -22.55 78.4 -22.0 78.45 -21.1 L77.8 -12.85 73.3 -11.2 77.6 -10.45" fill="#cc6005" fill-rule="evenodd" stroke="none"/>
      <path d="M77.6 -10.45 L73.3 -11.2 77.8 -12.85 78.45 -21.1 Q78.4 -22.0 77.8 -22.55 77.2 -23.1 76.3 -23.1 L-84.5 -14.25 Q-85.4 -14.2 -85.95 -13.6 -86.5 -13.0 -86.5 -12.1 L-85.9 -8.2 -80.4 -6.9 -85.65 -6.3 -82.3 16.4 -78.25 17.25 -82.05 18.15 -81.75 20.2 Q-81.7 21.0 -81.1 21.55 -80.55 22.05 -79.75 22.05 L75.1 16.7 Q75.9 16.65 76.4 16.05 76.95 15.5 76.95 14.7 L76.9 -1.8 71.45 -1.95 77.0 -3.0 77.6 -10.45 Z" fill="none" stroke="#a73e00" stroke-linecap="square" stroke-linejoin="bevel" stroke-width="2.0"/>
      <path d="M-83.0 -10.8 L-82.95 -10.8 -82.95 -10.75 -83.0 -10.8 M-80.25 -12.95 L-80.1 -12.65 -78.9 -9.1 -78.9 -9.0 -78.9 -8.9 -79.05 -8.2 -79.1 -8.15 -79.15 -8.1 -79.25 -8.05 -79.3 -8.0 -79.4 -7.95 -79.5 -7.9 -79.6 -7.85 -79.65 -7.85 -80.2 -7.95 -80.35 -8.0 -80.4 -8.1 -80.5 -8.15 -82.95 -10.8 -83.05 -10.9 -83.1 -10.9 -83.25 -11.15 Q-83.55 -11.75 -83.35 -12.35 L-82.55 -13.4 -81.3 -13.6 Q-80.65 -13.5 -80.25 -12.95" fill="#ffbf17" fill-rule="evenodd" stroke="none"/>
      <path d="M-80.75 -13.35 Q-79.95 -13.25 -79.45 -12.55 L-79.35 -12.35 -79.3 -12.4 -79.3 -12.8 -79.15 -11.8 Q-79.05 -11.15 -79.35 -10.55 -79.6 -9.95 -80.25 -9.55 -80.9 -9.15 -81.6 -9.2 -82.25 -9.25 -82.75 -9.6 L-83.65 -10.3 -83.25 -10.05 -83.2 -10.05 -83.3 -10.25 Q-83.65 -11.0 -83.4 -11.8 -83.15 -12.55 -82.35 -13.05 L-80.75 -13.35" fill="#000000" fill-rule="evenodd" stroke="none"/>
      <path d="M-82.75 -9.95 Q-83.75 -10.2 -84.25 -11.1 -84.65 -11.95 -84.3 -12.85 -83.95 -13.75 -83.05 -14.35 -82.15 -14.85 -81.2 -14.7 -80.25 -14.6 -79.65 -13.8 -79.1 -12.95 -79.35 -11.95 -79.65 -10.95 -80.65 -10.3 -81.7 -9.7 -82.75 -9.95" fill="#ffe619" fill-rule="evenodd" stroke="none"/>
      <path d="M75.5 -18.9 L75.65 -17.65 Q75.5 -17.0 74.95 -16.65 L74.65 -16.5 74.6 -16.5 72.0 -16.05 71.9 -16.0 71.8 -16.0 71.15 -16.2 71.05 -16.3 71.0 -16.35 70.95 -16.4 70.9 -16.5 70.85 -16.6 70.85 -16.7 70.8 -16.8 70.8 -16.85 70.9 -17.4 71.0 -17.55 71.1 -17.6 71.15 -17.65 73.05 -19.6 73.3 -19.75 74.55 -19.8 75.5 -18.9" fill="#ffbf17" fill-rule="evenodd" stroke="none"/>
      <path d="M75.15 -18.75 Q75.55 -17.95 75.35 -17.15 75.2 -16.3 74.45 -15.85 L74.25 -15.75 74.35 -15.75 74.65 -15.7 73.7 -15.6 Q73.05 -15.55 72.45 -15.9 71.9 -16.2 71.55 -16.85 71.2 -17.55 71.25 -18.2 71.35 -18.85 71.75 -19.35 L72.5 -20.2 72.25 -19.8 72.2 -19.75 72.4 -19.85 Q73.2 -20.15 73.95 -19.85 L75.15 -18.75" fill="#000000" fill-rule="evenodd" stroke="none"/>
      <path d="M72.05 -19.3 Q72.35 -20.3 73.3 -20.75 L75.05 -20.7 Q75.95 -20.3 76.45 -19.4 76.9 -18.45 76.75 -17.5 76.55 -16.55 75.75 -16.0 L73.85 -15.85 Q72.85 -16.2 72.3 -17.25 71.75 -18.3 72.05 -19.3" fill="#ffe619" fill-rule="evenodd" stroke="none"/>
      <path d="M73.6 10.3 Q74.25 10.35 74.7 10.8 75.15 11.3 75.2 12.05 L74.75 13.25 Q74.3 13.75 73.65 13.8 L73.35 13.8 70.8 12.55 70.7 12.5 70.65 12.5 70.15 12.0 70.1 11.9 70.05 11.85 70.05 11.75 70.05 11.65 70.05 11.55 70.05 11.45 70.1 11.35 70.1 11.3 Q70.2 11.0 70.45 10.85 L70.6 10.8 70.6 10.75 70.7 10.75 70.75 10.7 73.25 10.35 73.3 10.35 73.6 10.3" fill="#ffbf17" fill-rule="evenodd" stroke="none"/>
      <path d="M74.75 10.5 Q75.3 11.15 75.35 12.05 75.35 12.95 74.8 13.55 74.3 14.2 73.45 14.3 L73.2 14.3 73.25 14.35 73.45 14.45 72.65 14.2 Q71.35 13.65 71.25 12.1 71.3 10.55 72.55 9.95 L73.6 9.55 73.2 9.8 73.15 9.85 73.35 9.8 Q74.2 9.9 74.75 10.5" fill="#000000" fill-rule="evenodd" stroke="none"/>
      <path d="M72.25 10.15 Q72.95 9.4 74.0 9.4 74.95 9.5 75.6 10.2 76.2 10.95 76.25 12.0 76.25 13.1 75.65 13.85 L74.1 14.7 Q73.05 14.8 72.35 14.05 71.6 13.3 71.55 12.1 71.55 10.9 72.25 10.15" fill="#ffe619" fill-rule="evenodd" stroke="none"/>
      <path d="M-74.85 16.6 L-74.8 16.7 -74.8 16.8 -74.75 16.85 -74.75 16.95 -74.85 17.5 -74.95 17.6 -75.0 17.7 -75.1 17.75 -76.95 19.5 -77.0 19.5 -77.25 19.7 Q-77.85 19.95 -78.5 19.7 L-79.45 18.85 -79.6 17.55 Q-79.45 16.9 -78.9 16.55 L-78.6 16.45 -78.55 16.45 -75.95 16.15 -75.9 16.15 -75.85 16.1 -75.75 16.1 -75.1 16.3 -75.0 16.35 -74.95 16.45 -74.9 16.5 -74.85 16.6" fill="#ffbf17" fill-rule="evenodd" stroke="none"/>
      <path d="M-76.45 15.75 Q-75.85 16.1 -75.5 16.75 -75.15 17.45 -75.25 18.1 -75.3 18.75 -75.7 19.25 L-76.45 20.1 -76.2 19.7 -76.4 19.75 Q-77.15 20.05 -77.95 19.75 L-79.15 18.65 Q-79.55 17.85 -79.35 17.05 -79.15 16.2 -78.45 15.75 L-78.25 15.65 -78.3 15.65 -78.6 15.65 -77.65 15.5 Q-77.05 15.45 -76.45 15.75" fill="#000000" fill-rule="evenodd" stroke="none"/>
      <path d="M-75.95 19.25 Q-76.25 20.25 -77.2 20.65 -78.1 21.05 -78.95 20.65 -79.85 20.25 -80.35 19.35 -80.85 18.4 -80.65 17.45 -80.45 16.5 -79.65 15.95 L-77.75 15.8 Q-76.8 16.1 -76.2 17.15 -75.7 18.25 -75.95 19.25" fill="#ffe619" fill-rule="evenodd" stroke="none"/>
      <path d="M-68.9 -11.35 L-63.65 -8.35 -68.1 0.1 -65.9 15.8 -68.65 16.7 -71.25 6.05 -72.8 9.0 -75.1 7.9 -68.9 -11.35" fill="#000000" fill-rule="evenodd" stroke="none"/>
      <path d="M-68.9 -11.35 L-75.1 7.9 -72.8 9.0 -71.25 6.05 -68.65 16.7 -65.9 15.8 -68.1 0.1 -63.65 -8.35 -68.9 -11.35 Z" fill="none" stroke="#000000" stroke-linecap="square" stroke-linejoin="bevel" stroke-width="5.2"/>
      <path d="M-45.25 11.35 L-45.15 14.4 -64.6 15.75 -64.8 11.3 -57.25 11.3 -57.55 7.6 -61.55 8.05 -61.8 2.75 -57.95 2.6 -58.25 -1.25 -64.25 -0.45 -64.45 -5.65 -46.45 -6.4 -46.3 -2.8 -52.95 -1.95 -53.1 2.4 -48.55 2.2 -48.4 6.55 -53.25 7.1 -53.4 11.35 -45.25 11.35" fill="#000000" fill-rule="evenodd" stroke="none"/>
      <path d="M-45.25 11.35 L-53.4 11.35 -53.25 7.1 -48.4 6.55 -48.55 2.2 -53.1 2.4 -52.95 -1.95 -46.3 -2.8 -46.45 -6.4 -64.45 -5.65 -64.25 -0.45 -58.25 -1.25 -57.95 2.6 -61.8 2.75 -61.55 8.05 -57.55 7.6 -57.25 11.3 -64.8 11.3 -64.6 15.75 -45.15 14.4 -45.25 11.35 Z" fill="none" stroke="#000000" stroke-linecap="square" stroke-linejoin="bevel" stroke-width="5.2"/>
      <path d="M-53.15 -10.7 L-53.85 -7.25 -57.15 -6.9 -58.45 -11.0 -53.15 -10.7" fill="#000000" fill-rule="evenodd" stroke="none"/>
      <path d="M-53.15 -10.7 L-58.45 -11.0 -57.15 -6.9 -53.85 -7.25 -53.15 -10.7 Z" fill="none" stroke="#000000" stroke-linecap="square" stroke-linejoin="bevel" stroke-width="5.2"/>
      <path d="M-38.4 -0.45 L-38.4 1.6 -31.15 1.3 -32.35 -0.95 -38.4 -0.45 M-24.65 -4.65 L-24.75 -6.95 -38.3 -7.15 -38.35 -4.1 -24.65 -4.65 M-19.3 -11.4 L-20.0 -2.0 -26.8 -1.45 -25.9 1.05 -17.55 0.75 -17.4 3.95 -24.6 4.7 -22.45 10.5 -21.0 9.85 -19.55 12.35 -24.0 14.55 -29.05 5.15 -38.45 6.1 -38.5 11.15 -35.7 11.05 -35.75 14.7 -41.65 14.9 -43.25 -10.05 -19.3 -11.4" fill="#000000" fill-rule="evenodd" stroke="none"/>
      <path d="M-19.3 -11.4 L-43.25 -10.05 -41.65 14.9 -35.75 14.7 -35.7 11.05 -38.5 11.15 -38.45 6.1 -29.05 5.15 -24.0 14.55 -19.55 12.35 -21.0 9.85 -22.45 10.5 -24.6 4.7 -17.4 3.95 -17.55 0.75 -25.9 1.05 -26.8 -1.45 -20.0 -2.0 -19.3 -11.4 M-24.65 -4.65 L-38.35 -4.1 -38.3 -7.15 -24.75 -6.95 -24.65 -4.65 M-38.4 -0.45 L-32.35 -0.95 -31.15 1.3 -38.4 1.6 -38.4 -0.45 Z" fill="none" stroke="#000000" stroke-linecap="square" stroke-linejoin="bevel" stroke-width="5.2"/>
      <path d="M10.25 -7.15 L10.6 -3.5 -1.1 -2.15 7.4 8.75 8.9 7.2 11.75 9.9 8.05 13.9 -4.9 2.7 -10.95 14.3 -14.3 12.45 -9.1 -1.2 -15.15 -0.5 -16.0 -6.1 -7.1 -6.45 -4.25 -13.95 2.3 -11.2 0.0 -6.75 10.25 -7.15" fill="#000000" fill-rule="evenodd" stroke="none"/>
      <path d="M10.25 -7.15 L0.0 -6.75 2.3 -11.2 -4.25 -13.95 -7.1 -6.45 -16.0 -6.1 -15.15 -0.5 -9.1 -1.2 -14.3 12.45 -10.95 14.3 -4.9 2.7 8.05 13.9 11.75 9.9 8.9 7.2 7.4 8.75 -1.1 -2.15 10.6 -3.5 10.25 -7.15 Z" fill="none" stroke="#000000" stroke-linecap="square" stroke-linejoin="bevel" stroke-width="5.2"/>
      <path d="M28.05 3.3 L27.35 4.25 30.95 4.1 27.6 1.95 26.0 2.15 28.05 3.3 M22.2 4.5 L23.2 2.45 22.05 2.6 19.5 4.6 22.2 4.5 M22.75 -9.75 L22.85 -8.75 28.9 -9.1 28.85 -10.45 22.75 -9.75 M31.8 -2.85 L32.0 -3.95 19.6 -3.3 19.7 -2.4 31.8 -2.85 M32.25 -5.5 L32.5 -7.3 19.2 -6.35 19.3 -5.5 32.25 -5.5 M38.9 -13.65 L39.0 -11.55 32.1 -10.8 31.8 -9.3 36.55 -9.55 36.3 -1.75 27.1 -1.4 25.75 -0.3 39.45 -1.1 39.55 0.6 32.85 1.35 37.15 4.75 38.3 3.7 40.45 5.75 37.85 8.55 33.4 5.7 33.35 11.9 27.25 12.7 26.75 9.6 28.8 9.4 28.45 6.7 25.4 7.1 20.85 13.6 17.0 11.35 18.4 8.75 19.8 9.35 20.6 7.75 18.15 8.05 17.75 6.0 14.5 8.55 12.8 6.8 16.25 3.25 12.8 3.65 12.45 0.45 19.4 0.05 20.55 -1.1 16.3 -0.95 14.9 -8.25 19.7 -8.55 19.5 -9.35 12.95 -8.65 12.15 -12.6 18.65 -12.85 18.25 -14.45 22.4 -14.6 22.5 -13.0 28.75 -13.25 28.7 -14.3 32.85 -14.5 32.65 -13.4 38.9 -13.65" fill="#000000" fill-rule="evenodd" stroke="none"/>
      <path d="M38.9 -13.65 L32.65 -13.4 32.85 -14.5 28.7 -14.3 28.75 -13.25 22.5 -13.0 22.4 -14.6 18.25 -14.45 18.65 -12.85 12.15 -12.6 12.95 -8.65 19.5 -9.35 19.7 -8.55 14.9 -8.25 16.3 -0.95 20.55 -1.1 19.4 0.05 12.45 0.45 12.8 3.65 16.25 3.25 12.8 6.8 14.5 8.55 17.75 6.0 18.15 8.05 20.6 7.75 19.8 9.35 18.4 8.75 17.0 11.35 20.85 13.6 25.4 7.1 28.45 6.7 28.8 9.4 26.75 9.6 27.25 12.7 33.35 11.9 33.4 5.7 37.85 8.55 40.45 5.75 38.3 3.7 37.15 4.75 32.85 1.35 39.55 0.6 39.45 -1.1 25.75 -0.3 27.1 -1.4 36.3 -1.75 36.55 -9.55 31.8 -9.3 32.1 -10.8 39.0 -11.55 38.9 -13.65 M32.25 -5.5 L19.3 -5.5 19.2 -6.35 32.5 -7.3 32.25 -5.5 M31.8 -2.85 L19.7 -2.4 19.6 -3.3 32.0 -3.95 31.8 -2.85 M22.75 -9.75 L28.85 -10.45 28.9 -9.1 22.85 -8.75 22.75 -9.75 M22.2 4.5 L19.5 4.6 22.05 2.6 23.2 2.45 22.2 4.5 M28.05 3.3 L26.0 2.15 27.6 1.95 30.95 4.1 27.35 4.25 28.05 3.3 Z" fill="none" stroke="#000000" stroke-linecap="square" stroke-linejoin="bevel" stroke-width="5.2"/>
      <path d="M53.2 -2.45 L53.1 -3.55 48.85 -3.65 48.9 -2.3 53.2 -2.45 M52.85 -5.8 L52.75 -6.75 48.85 -6.45 48.85 -5.5 52.85 -5.8 M48.8 -9.2 L52.5 -9.2 52.4 -10.35 48.8 -10.45 48.8 -9.2 M66.1 -13.5 L65.8 -10.0 58.0 -10.2 57.9 -9.25 64.65 -9.35 64.65 -7.75 57.75 -7.2 57.65 -6.15 63.8 -6.6 63.7 -3.4 57.4 -3.5 57.35 -2.6 66.3 -2.9 65.95 0.5 57.65 0.7 57.6 2.0 67.7 1.85 67.5 4.2 61.7 4.8 64.25 7.5 65.65 7.0 67.05 9.45 63.95 11.4 57.4 6.5 57.2 11.25 53.9 11.7 52.9 5.7 52.35 5.75 47.1 12.2 43.4 10.45 44.75 7.95 46.1 8.5 47.35 6.25 42.25 6.75 41.2 2.25 52.35 2.1 52.1 0.8 45.2 0.95 43.85 -6.85 42.2 -4.9 40.1 -6.6 45.65 -16.55 50.1 -14.4 48.7 -12.7 53.6 -12.95 52.45 -15.9 57.2 -16.3 56.4 -13.05 66.1 -13.5" fill="#000000" fill-rule="evenodd" stroke="none"/>
      <path d="M66.1 -13.5 L56.4 -13.05 57.2 -16.3 52.45 -15.9 53.6 -12.95 48.7 -12.7 50.1 -14.4 45.65 -16.55 40.1 -6.6 42.2 -4.9 43.85 -6.85 45.2 0.95 52.1 0.8 52.35 2.1 41.2 2.25 42.25 6.75 47.35 6.25 46.1 8.5 44.75 7.95 43.4 10.45 47.1 12.2 52.35 5.75 52.9 5.7 53.9 11.7 57.2 11.25 57.4 6.5 63.95 11.4 67.05 9.45 65.65 7.0 64.25 7.5 61.7 4.8 67.5 4.2 67.7 1.85 57.6 2.0 57.65 0.7 65.95 0.5 66.3 -2.9 57.35 -2.6 57.4 -3.5 63.7 -3.4 63.8 -6.6 57.65 -6.15 57.75 -7.2 64.65 -7.75 64.65 -9.35 57.9 -9.25 58.0 -10.2 65.8 -10.0 66.1 -13.5 M48.8 -9.2 L48.8 -10.45 52.4 -10.35 52.5 -9.2 48.8 -9.2 M52.85 -5.8 L48.85 -5.5 48.85 -6.45 52.75 -6.75 52.85 -5.8 M53.2 -2.45 L48.9 -2.3 48.85 -3.65 53.1 -3.55 53.2 -2.45 Z" fill="none" stroke="#000000" stroke-linecap="square" stroke-linejoin="bevel" stroke-width="5.2"/>
      <path d="M-62.45 -8.25 L-62.15 -7.2 -66.5 1.0 -64.25 16.45 -64.8 17.3 -67.6 18.2 -68.6 17.65 -70.65 9.0 -71.25 10.2 -72.3 10.5 -74.65 9.35 -75.05 8.45 -68.8 -10.8 -67.65 -11.25 -62.45 -8.25" fill="#ff3300" fill-rule="evenodd" stroke="none"/>
      <path d="M-64.4 -4.85 L-63.65 -5.65 -45.65 -6.4 -44.85 -5.65 -44.7 -2.05 -45.4 -1.25 -51.35 -0.5 -51.45 2.35 -47.75 2.2 -46.95 2.95 -46.8 7.3 -47.5 8.1 -51.7 8.55 -51.8 11.35 -44.45 11.35 -43.65 12.1 -43.55 15.15 -44.3 15.95 -63.75 17.3 -64.55 16.55 -64.75 12.1 -64.0 11.3 -57.3 11.3 -57.45 9.25 -60.65 9.6 -61.5 8.85 -61.75 3.55 -61.05 2.75 -57.95 2.6 -58.1 0.4 -63.35 1.1 -64.2 0.35 -64.4 -4.85" fill="#ff3300" fill-rule="evenodd" stroke="none"/>
      <path d="M-52.2 -10.65 L-51.5 -9.7 -52.25 -6.3 -52.9 -5.7 -56.2 -5.35 -57.05 -5.9 -58.3 -10.0 -57.5 -11.0 -52.2 -10.65" fill="#ff3300" fill-rule="evenodd" stroke="none"/>
      <path d="M-31.55 1.35 L-31.9 0.65 -36.8 1.05 -36.8 1.55 -31.55 1.35 M-36.7 -5.6 L-36.7 -4.15 -24.65 -4.65 -24.65 -5.35 -36.7 -5.6 M-43.15 -9.2 L-42.45 -10.0 -18.55 -11.35 -17.7 -10.55 -18.4 -1.2 -19.1 -0.45 -24.95 0.05 -24.55 1.05 -16.7 0.75 -15.9 1.5 -15.8 4.7 -16.5 5.5 -22.7 6.15 -21.2 10.25 -20.45 9.9 -19.45 10.25 -18.0 12.75 -18.35 13.8 -22.85 16.0 -23.85 15.7 -28.65 6.75 -36.85 7.55 -36.9 11.15 -34.95 11.05 -34.1 11.85 -34.15 15.5 -34.9 16.25 -40.8 16.5 -41.6 15.75 -43.15 -9.2" fill="#ff3300" fill-rule="evenodd" stroke="none"/>
      <path d="M3.45 -11.2 L3.85 -10.15 2.15 -6.8 11.1 -7.15 11.9 -6.45 12.25 -2.8 11.55 -1.95 1.2 -0.75 8.3 8.35 9.2 7.45 10.3 7.4 13.15 10.05 13.15 11.15 9.4 15.2 8.35 15.25 -3.8 4.65 -9.4 15.4 -10.45 15.75 -13.8 13.9 -14.15 12.95 -9.4 0.5 -14.2 1.05 -15.05 0.4 -15.9 -5.2 -15.15 -6.1 -6.8 -6.45 -4.1 -13.45 -3.1 -13.9 3.45 -11.2" fill="#ff3300" fill-rule="evenodd" stroke="none"/>
      <path d="M23.05 5.25 L24.05 3.2 22.9 3.35 20.35 5.35 23.05 5.25 M28.9 4.05 L28.2 5.05 31.8 4.9 28.4 2.7 26.8 2.9 28.9 4.05 M20.45 -2.55 L20.55 -1.6 32.65 -2.1 32.85 -3.2 20.45 -2.55 M29.75 -8.35 L29.7 -9.65 23.6 -9.0 23.7 -8.0 29.75 -8.35 M20.05 -5.6 L20.15 -4.75 33.05 -4.75 33.35 -6.5 20.05 -5.6 M13.8 -7.9 L13.0 -11.85 19.5 -12.1 19.1 -13.65 23.2 -13.85 23.35 -12.25 29.6 -12.5 29.55 -13.55 33.7 -13.7 33.5 -12.65 39.75 -12.9 39.85 -10.8 32.95 -10.05 32.65 -8.55 37.35 -8.8 37.15 -1.0 27.95 -0.6 26.6 0.45 40.3 -0.35 40.35 1.35 33.7 2.1 38.0 5.55 39.15 4.45 41.3 6.5 38.7 9.3 34.25 6.45 34.2 12.65 28.1 13.5 27.6 10.35 29.65 10.15 29.3 7.45 26.25 7.85 21.7 14.4 17.85 12.1 19.25 9.5 20.65 10.1 21.45 8.5 19.0 8.8 18.55 6.75 15.35 9.3 13.65 7.55 17.1 4.0 13.6 4.4 13.3 1.2 20.25 0.8 21.35 -0.35 17.1 -0.2 15.75 -7.5 20.5 -7.8 20.3 -8.6 13.8 -7.9" fill="#ff3300" fill-rule="evenodd" stroke="none"/>
      <path d="M13.8 -7.9 L20.3 -8.6 20.5 -7.8 15.75 -7.5 17.1 -0.2 21.35 -0.35 20.25 0.8 13.3 1.2 13.6 4.4 17.1 4.0 13.65 7.55 15.35 9.3 18.55 6.75 19.0 8.8 21.45 8.5 20.65 10.1 19.25 9.5 17.85 12.1 21.7 14.4 26.25 7.85 29.3 7.45 29.65 10.15 27.6 10.35 28.1 13.5 34.2 12.65 34.25 6.45 38.7 9.3 41.3 6.5 39.15 4.45 38.0 5.55 33.7 2.1 40.35 1.35 40.3 -0.35 26.6 0.45 27.95 -0.6 37.15 -1.0 37.35 -8.8 32.65 -8.55 32.95 -10.05 39.85 -10.8 39.75 -12.9 33.5 -12.65 33.7 -13.7 29.55 -13.55 29.6 -12.5 23.35 -12.25 23.2 -13.85 19.1 -13.65 19.5 -12.1 13.0 -11.85 13.8 -7.9 M20.05 -5.6 L33.35 -6.5 33.05 -4.75 20.15 -4.75 20.05 -5.6 M29.75 -8.35 L23.7 -8.0 23.6 -9.0 29.7 -9.65 29.75 -8.35 M20.45 -2.55 L32.85 -3.2 32.65 -2.1 20.55 -1.6 20.45 -2.55 M28.9 4.05 L26.8 2.9 28.4 2.7 31.8 4.9 28.2 5.05 28.9 4.05 M23.05 5.25 L20.35 5.35 22.9 3.35 24.05 3.2 23.05 5.25 Z" fill="none" stroke="#ff3300" stroke-linecap="square" stroke-linejoin="bevel" stroke-width="1.55"/>
      <path d="M49.7 -2.9 L49.7 -1.55 54.0 -1.7 53.9 -2.8 49.7 -2.9 M49.65 -5.7 L49.65 -4.8 53.65 -5.05 53.55 -6.0 49.65 -5.7 M49.6 -9.7 L49.6 -8.45 53.3 -8.5 53.2 -9.6 49.6 -9.7 M53.25 -15.15 L58.0 -15.55 57.2 -12.35 66.9 -12.75 66.6 -9.25 58.8 -9.45 58.7 -8.5 65.45 -8.6 65.45 -7.0 58.55 -6.45 58.45 -5.4 64.65 -5.85 64.5 -2.65 58.2 -2.75 58.15 -1.85 67.1 -2.2 66.75 1.25 58.45 1.45 58.4 2.75 68.5 2.6 68.3 4.95 62.5 5.55 65.05 8.25 66.45 7.7 67.85 10.2 64.75 12.1 58.2 7.25 58.05 12.0 54.7 12.45 53.7 6.45 53.15 6.5 47.9 12.95 44.25 11.2 45.55 8.7 46.9 9.2 48.15 7.0 43.05 7.5 42.0 3.0 53.15 2.85 52.95 1.55 46.0 1.7 44.65 -6.1 43.0 -4.15 40.9 -5.85 46.45 -15.8 50.9 -13.65 49.55 -12.0 54.4 -12.2 53.25 -15.15" fill="#ff3300" fill-rule="evenodd" stroke="none"/>
      <path d="M53.25 -15.15 L54.4 -12.2 49.55 -12.0 50.9 -13.65 46.45 -15.8 40.9 -5.85 43.0 -4.15 44.65 -6.1 46.0 1.7 52.95 1.55 53.15 2.85 42.0 3.0 43.05 7.5 48.15 7.0 46.9 9.2 45.55 8.7 44.25 11.2 47.9 12.95 53.15 6.5 53.7 6.45 54.7 12.45 58.05 12.0 58.2 7.25 64.75 12.1 67.85 10.2 66.45 7.7 65.05 8.25 62.5 5.55 68.3 4.95 68.5 2.6 58.4 2.75 58.45 1.45 66.75 1.25 67.1 -2.2 58.15 -1.85 58.2 -2.75 64.5 -2.65 64.65 -5.85 58.45 -5.4 58.55 -6.45 65.45 -7.0 65.45 -8.6 58.7 -8.5 58.8 -9.45 66.6 -9.25 66.9 -12.75 57.2 -12.35 58.0 -15.55 53.25 -15.15 M49.6 -9.7 L53.2 -9.6 53.3 -8.5 49.6 -8.45 49.6 -9.7 M49.65 -5.7 L53.55 -6.0 53.65 -5.05 49.65 -4.8 49.65 -5.7 M49.7 -2.9 L53.9 -2.8 54.0 -1.7 49.7 -1.55 49.7 -2.9 Z" fill="none" stroke="#ff3300" stroke-linecap="square" stroke-linejoin="bevel" stroke-width="1.55"/>
      <path d="M-68.85 -11.35 L-63.65 -8.35 -68.1 0.1 -65.85 15.8 -68.65 16.7 -71.2 6.05 -72.75 9.0 -75.1 7.9 -68.85 -11.35" fill="#ffff00" fill-rule="evenodd" stroke="none"/>
      <path d="M-46.5 -6.4 L-46.35 -2.8 -52.95 -1.95 -53.1 2.4 -48.55 2.2 -48.4 6.55 -53.25 7.1 -53.4 11.3 -45.3 11.35 -45.15 14.4 -64.6 15.75 -64.8 11.25 -57.3 11.3 -57.55 7.6 -61.6 8.05 -61.8 2.75 -57.95 2.6 -58.25 -1.25 -64.25 -0.45 -64.45 -5.65 -46.5 -6.4" fill="#ffff00" fill-rule="evenodd" stroke="none"/>
      <path d="M-53.1 -10.65 L-53.8 -7.25 -57.1 -6.9 -58.4 -11.0 -53.1 -10.65" fill="#ffff00" fill-rule="evenodd" stroke="none"/>
      <path d="M-31.15 1.25 L-32.35 -1.0 -38.4 -0.5 -38.4 1.55 -31.15 1.25 M-24.65 -4.7 L-24.75 -6.95 -38.3 -7.2 -38.35 -4.1 -24.65 -4.7 M-17.55 0.7 L-17.4 3.9 -24.6 4.65 -22.5 10.5 -21.0 9.8 -19.55 12.3 -24.05 14.55 -29.1 5.1 -38.45 6.1 -38.55 11.15 -35.75 11.05 -35.75 14.65 -41.7 14.9 -43.25 -10.05 -19.35 -11.4 -20.0 -2.05 -26.85 -1.45 -25.95 1.05 -17.55 0.7" fill="#ffff00" fill-rule="evenodd" stroke="none"/>
      <path d="M10.25 -7.15 L10.55 -3.5 -1.1 -2.1 7.4 8.75 8.9 7.2 11.75 9.9 8.0 13.95 -4.95 2.7 -10.95 14.3 -14.3 12.45 -9.1 -1.2 -15.15 -0.45 -16.0 -6.1 -7.1 -6.45 -4.3 -13.95 2.3 -11.2 0.0 -6.75 10.25 -7.15" fill="#ffff00" fill-rule="evenodd" stroke="none"/>
      <path d="M27.35 4.25 L30.95 4.1 27.6 1.95 26.0 2.15 28.05 3.25 27.35 4.25 M19.5 4.6 L22.2 4.45 23.2 2.45 22.05 2.6 19.5 4.6 M19.2 -6.35 L19.3 -5.5 32.2 -5.55 32.5 -7.3 19.2 -6.35 M31.8 -2.9 L32.0 -3.95 19.6 -3.3 19.7 -2.4 31.8 -2.9 M28.9 -9.1 L28.85 -10.45 22.75 -9.75 22.85 -8.75 28.9 -9.1 M38.9 -13.7 L39.0 -11.55 32.1 -10.8 31.8 -9.3 36.55 -9.6 36.3 -1.75 27.1 -1.4 25.75 -0.35 39.45 -1.1 39.55 0.55 32.85 1.35 37.15 4.75 38.3 3.7 40.45 5.75 37.85 8.5 33.4 5.7 33.35 11.9 27.25 12.7 26.75 9.6 28.8 9.4 28.45 6.7 25.4 7.1 20.85 13.6 17.0 11.35 18.4 8.75 19.8 9.35 20.6 7.75 18.15 8.05 17.75 6.0 14.5 8.5 12.8 6.8 16.25 3.25 12.8 3.65 12.45 0.45 19.4 0.05 20.55 -1.1 16.3 -0.95 14.9 -8.3 19.7 -8.55 19.5 -9.4 12.95 -8.65 12.15 -12.6 18.65 -12.85 18.25 -14.45 22.35 -14.6 22.5 -13.0 28.75 -13.25 28.7 -14.3 32.85 -14.5 32.65 -13.4 38.9 -13.7" fill="#ffff00" fill-rule="evenodd" stroke="none"/>
      <path d="M48.85 -3.65 L48.9 -2.35 53.2 -2.5 53.1 -3.6 48.85 -3.65 M52.85 -5.85 L52.75 -6.8 48.85 -6.45 48.85 -5.55 52.85 -5.85 M52.5 -9.25 L52.4 -10.4 48.8 -10.5 48.8 -9.2 52.5 -9.25 M63.8 -6.65 L63.7 -3.4 57.4 -3.5 57.35 -2.65 66.3 -2.95 65.95 0.45 57.65 0.65 57.6 1.95 67.7 1.8 67.5 4.2 61.7 4.75 64.25 7.45 65.65 6.95 67.05 9.4 63.95 11.35 57.4 6.5 57.2 11.25 53.9 11.65 52.9 5.65 52.35 5.7 47.05 12.2 43.4 10.4 44.75 7.9 46.1 8.45 47.35 6.2 42.25 6.7 41.2 2.25 52.35 2.05 52.1 0.8 45.2 0.95 43.85 -6.9 42.2 -4.95 40.1 -6.6 45.65 -16.6 50.1 -14.4 48.7 -12.75 53.55 -13.0 52.45 -15.95 57.2 -16.3 56.4 -13.1 66.05 -13.55 65.8 -10.05 58.0 -10.25 57.9 -9.3 64.65 -9.35 64.65 -7.8 57.75 -7.2 57.65 -6.2 63.8 -6.65" fill="#ffff00" fill-rule="evenodd" stroke="none"/>
    </g>
    <g id="shape4" transform="matrix(1.0, 0.0, 0.0, 1.0, 92.95, 29.4)">
      <path d="M62.75 -9.85 Q58.6 -2.95 57.35 8.9 56.9 18.5 59.45 17.8 61.95 17.15 63.1 10.45 66.05 -7.65 75.2 -21.1 76.15 -22.65 76.3 -24.05 76.45 -25.55 71.9 -21.3 66.85 -16.75 62.75 -9.85" fill="#199432" fill-rule="evenodd" stroke="none"/>
      <path d="M60.95 5.1 Q62.9 2.5 65.95 -5.55 69.05 -13.65 67.0 -13.25 62.95 -9.7 61.3 -2.05 59.55 5.5 60.95 5.1" fill="#35a12f" fill-rule="evenodd" stroke="none"/>
      <path d="M47.4 -2.55 Q46.9 4.45 51.2 14.05 55.1 21.7 57.05 20.15 59.0 18.65 57.0 13.05 51.35 -2.15 53.4 -16.2 53.55 -17.8 53.0 -18.95 52.4 -20.1 50.3 -15.05 47.9 -9.6 47.4 -2.55" fill="#199432" fill-rule="evenodd" stroke="none"/>
      <path d="M92.9 7.05 Q90.95 2.75 82.1 1.2 73.35 -0.35 66.8 8.2 63.0 14.7 63.3 17.05 63.65 19.4 67.45 15.5 74.05 7.65 83.35 7.2 88.85 6.85 91.0 7.35 93.25 7.75 92.9 7.05" fill="#199432" fill-rule="evenodd" stroke="none"/>
      <path d="M71.0 8.7 L81.2 6.2 Q87.7 4.65 85.9 3.35 76.95 0.6 72.0 4.85 67.1 9.15 71.0 8.7" fill="#35a12f" fill-rule="evenodd" stroke="none"/>
      <path d="M3.8 -10.8 Q11.8 -5.1 14.3 11.1 14.65 18.05 12.8 17.6 11.0 17.1 10.2 12.25 7.95 -0.85 1.35 -10.65 0.6 -11.7 0.55 -12.8 0.5 -13.9 3.8 -10.8" fill="#2f9d2d" fill-rule="evenodd" stroke="none"/>
      <path d="M20.25 0.95 Q20.65 6.0 17.5 13.0 14.65 18.5 13.25 17.35 11.85 16.3 13.3 12.25 17.35 1.2 15.95 -9.0 15.8 -10.1 16.2 -11.0 16.6 -11.9 18.15 -8.15 19.9 -4.2 20.25 0.95" fill="#2f9d2d" fill-rule="evenodd" stroke="none"/>
      <path d="M-10.95 9.2 Q-9.55 6.1 -3.15 4.95 3.25 3.8 8.0 10.05 13.3 20.25 7.6 15.35 2.75 9.65 -4.0 9.35 -11.75 9.55 -10.95 9.2" fill="#2f9d2d" fill-rule="evenodd" stroke="none"/>
      <path d="M-78.2 -11.9 Q-70.2 -6.2 -67.7 10.0 -67.35 16.95 -69.2 16.5 -71.0 16.0 -71.8 11.15 -74.05 -1.95 -80.65 -11.75 -81.4 -12.8 -81.45 -13.9 -81.5 -15.0 -78.2 -11.9" fill="#2f9d2d" fill-rule="evenodd" stroke="none"/>
      <path d="M-61.7 -0.15 Q-61.3 4.9 -64.45 11.9 -67.3 17.4 -68.7 16.35 -70.1 15.2 -68.65 11.15 -64.6 0.1 -66.0 -10.1 -66.15 -11.2 -65.75 -12.1 -65.35 -13.0 -63.85 -9.25 -62.05 -5.3 -61.7 -0.15" fill="#2f9d2d" fill-rule="evenodd" stroke="none"/>
      <path d="M-92.9 8.05 Q-91.5 4.95 -85.1 3.8 -78.7 2.65 -73.95 8.9 -68.65 19.1 -74.35 14.2 -79.2 8.5 -85.95 8.2 -93.7 8.4 -92.9 8.05" fill="#2f9d2d" fill-rule="evenodd" stroke="none"/>
      <path d="M30.85 6.55 Q34.3 13.4 34.25 18.1 33.65 22.35 30.85 23.5 28.05 24.65 27.5 21.85 27.15 13.35 22.65 4.35 18.2 -4.65 7.95 -7.95 15.5 -9.85 21.45 -5.15 27.45 -0.4 30.85 6.55" fill="#199432" fill-rule="evenodd" stroke="none"/>
      <path d="M19.95 -4.35 Q21.7 -3.6 25.4 0.5 29.2 4.7 31.4 10.6 32.7 15.2 31.05 15.8 29.45 16.4 27.7 11.5 24.0 1.05 19.95 -4.35" fill="#50ad26" fill-rule="evenodd" stroke="none"/>
      <path d="M32.8 10.95 Q34.15 21.6 33.9 22.4 L31.25 22.95 Q30.8 2.75 22.1 -9.65 17.85 -15.95 19.75 -15.4 21.65 -14.85 25.4 -9.75 31.55 0.3 32.8 10.95" fill="#199432" fill-rule="evenodd" stroke="none"/>
      <path d="M22.8 -10.45 Q18.0 -3.55 11.6 -5.45 8.7 -6.65 8.5 -9.55 8.3 -12.45 12.6 -14.95 6.6 -16.9 9.5 -21.1 12.35 -25.25 20.75 -22.65 29.1 -32.45 32.9 -28.0 36.65 -23.65 32.95 -19.05 39.7 -16.9 35.25 -12.3 30.8 -7.75 22.8 -10.45" fill="#f6c15b" fill-rule="evenodd" stroke="none"/>
      <path d="M40.8 -5.15 Q45.9 -10.9 53.65 -10.35 44.05 -5.45 40.4 3.25 36.8 11.95 37.8 20.1 37.95 23.2 35.75 23.55 33.55 23.9 32.4 20.05 31.45 15.4 33.6 8.0 35.75 0.55 40.8 -5.15" fill="#199432" fill-rule="evenodd" stroke="none"/>
      <path d="M41.8 -3.95 Q38.4 2.0 36.1 12.95 35.3 18.1 33.95 17.8 32.7 17.55 33.15 12.85 34.3 6.55 37.25 1.85 40.25 -2.95 41.8 -3.95" fill="#50ad26" fill-rule="evenodd" stroke="none"/>
      <path d="M34.15 -14.65 Q31.7 -12.2 27.45 -11.6 23.2 -11.0 22.85 -12.15 22.7 -14.85 29.3 -17.8 31.6 -18.55 33.75 -17.8 35.9 -17.05 34.15 -14.65" fill="#f7eb77" fill-rule="evenodd" stroke="none"/>
      <path d="M26.55 -27.35 Q29.65 -28.65 31.6 -26.75 34.75 -22.1 29.25 -18.25 26.35 -16.7 23.65 -17.6 21.0 -18.45 22.1 -22.55 23.5 -26.05 26.55 -27.35" fill="#f7eb77" fill-rule="evenodd" stroke="none"/>
      <path d="M25.7 -21.15 Q30.95 -18.3 22.85 -13.85 14.7 -11.2 16.25 -16.7 17.55 -19.0 20.5 -20.35 23.45 -21.75 25.7 -21.15" fill="#f39d35" fill-rule="evenodd" stroke="none"/>
      <path d="M-16.9 -9.65 Q-8.9 -3.95 -6.4 12.25 -6.05 19.2 -7.9 18.75 -9.7 18.25 -10.5 13.4 -12.75 0.3 -19.35 -9.5 -20.1 -10.55 -20.15 -11.65 -20.2 -12.75 -16.9 -9.65" fill="#199432" fill-rule="evenodd" stroke="none"/>
      <path d="M-9.0 9.6 Q-10.4 7.7 -12.65 1.85 -14.85 -4.1 -13.45 -3.75 -10.5 -1.1 -9.25 4.4 -8.0 9.85 -9.0 9.6" fill="#35a12f" fill-rule="evenodd" stroke="none"/>
      <path d="M-0.4 2.15 Q0.0 7.2 -3.15 14.2 -6.0 19.7 -7.4 18.55 -8.8 17.5 -7.35 13.45 -3.3 2.4 -4.7 -7.8 -4.85 -8.9 -4.45 -9.8 -4.05 -10.7 -2.55 -6.95 -0.75 -3.0 -0.4 2.15" fill="#199432" fill-rule="evenodd" stroke="none"/>
      <path d="M-2.0 6.9 Q-3.4 11.7 -4.15 11.0 -4.55 9.0 -3.8 3.6 -3.15 -1.85 -2.0 -1.05 -0.6 2.1 -2.0 6.9" fill="#35a12f" fill-rule="evenodd" stroke="none"/>
      <path d="M-31.65 10.35 Q-30.25 7.25 -23.85 6.1 -17.45 4.95 -12.7 11.2 -7.4 21.4 -13.1 16.5 -17.95 10.8 -24.7 10.5 -32.45 10.7 -31.65 10.35" fill="#199432" fill-rule="evenodd" stroke="none"/>
      <path d="M-15.6 11.5 L-23.0 9.65 Q-27.75 8.5 -26.45 7.65 -19.9 5.6 -16.35 8.7 -12.75 11.8 -15.6 11.5" fill="#35a12f" fill-rule="evenodd" stroke="none"/>
      <path d="M-20.6 13.9 Q-14.9 6.7 -6.65 8.6 -14.2 10.7 -17.7 17.1 -21.3 23.5 -21.75 29.65 -22.25 31.7 -24.25 30.75 -26.3 29.85 -26.55 26.75 -26.3 21.15 -20.6 13.9" fill="#199432" fill-rule="evenodd" stroke="none"/>
      <path d="M-27.5 14.0 Q-25.2 22.9 -27.25 28.15 -28.6 30.8 -30.05 30.15 -31.6 29.65 -31.05 27.45 -29.2 21.75 -30.6 15.05 -32.0 8.4 -38.15 3.55 -29.85 5.1 -27.5 14.0" fill="#199432" fill-rule="evenodd" stroke="none"/>
      <path d="M-15.5 10.9 Q-18.5 14.65 -21.55 22.15 -23.05 25.65 -24.2 25.2 -25.35 24.7 -24.25 21.4 -22.45 17.15 -19.6 14.25 -16.75 11.35 -15.5 10.9" fill="#50ad26" fill-rule="evenodd" stroke="none"/>
      <path d="M-30.65 9.75 Q-29.65 10.7 -28.2 14.45 -26.75 18.3 -26.8 22.9 -28.3 29.9 -28.95 22.55 -29.05 14.45 -30.65 9.75" fill="#50ad26" fill-rule="evenodd" stroke="none"/>
      <path d="M-27.7 21.15 Q-26.7 13.4 -22.25 6.1 -19.55 2.4 -18.2 2.0 -16.85 1.6 -19.9 6.2 -26.25 15.15 -26.55 29.85 L-28.45 29.5 Q-28.65 28.8 -27.7 21.15" fill="#199432" fill-rule="evenodd" stroke="none"/>
      <path d="M-20.35 5.6 Q-26.15 7.55 -29.4 4.25 -32.6 0.9 -27.7 -0.65 -30.4 -3.95 -27.7 -7.2 -24.95 -10.45 -18.85 -3.2 -12.75 -5.15 -10.65 -2.15 -8.65 0.9 -12.95 2.3 -7.35 6.75 -12.2 9.2 -16.85 10.6 -20.35 5.6" fill="#f75e47" fill-rule="evenodd" stroke="none"/>
      <path d="M-12.6 3.2 Q-10.2 6.5 -12.7 7.5 -17.8 7.35 -19.15 3.6 -19.0 2.45 -16.65 2.3 -14.25 2.1 -12.6 3.2" fill="#fb8b3c" fill-rule="evenodd" stroke="none"/>
      <path d="M-23.7 4.75 Q-26.8 4.3 -28.6 2.55 -29.9 0.8 -28.35 0.25 -26.8 -0.3 -25.1 0.25 -20.3 2.4 -20.4 4.35 -20.65 5.15 -23.7 4.75" fill="#fb8b3c" fill-rule="evenodd" stroke="none"/>
      <path d="M-23.05 -6.7 Q-20.85 -5.75 -19.85 -3.2 -19.1 -0.25 -21.0 0.4 -22.95 1.05 -25.0 -0.1 -29.05 -2.85 -26.7 -6.3 -25.3 -7.65 -23.05 -6.7" fill="#fb8b3c" fill-rule="evenodd" stroke="none"/>
      <path d="M-15.3 -3.35 Q-12.95 -3.6 -11.45 -1.85 -10.45 -0.1 -12.15 0.5 -13.85 1.1 -14.8 1.1 -16.45 1.15 -17.45 -0.05 L-18.55 -1.45 Q-17.65 -3.1 -15.3 -3.35" fill="#fb8b3c" fill-rule="evenodd" stroke="none"/>
      <path d="M-20.35 3.15 Q-26.25 0.0 -22.4 -2.1 -18.25 -2.55 -15.5 1.15 -14.45 5.2 -20.35 3.15" fill="#f7e632" fill-rule="evenodd" stroke="none"/>
      <path d="M-45.3 4.95 Q-41.4 -2.1 -35.0 -6.75 -28.6 -11.4 -20.85 -9.1 -31.65 -6.15 -36.7 3.05 -41.75 12.2 -42.5 20.95 -43.15 23.95 -46.05 22.6 -48.9 21.25 -49.3 16.85 -49.15 11.95 -45.3 4.95" fill="#199432" fill-rule="evenodd" stroke="none"/>
      <path d="M-56.3 5.7 Q-52.45 12.7 -52.3 17.6 -52.65 21.8 -54.95 21.9 -57.15 22.05 -57.75 18.95 -58.6 10.4 -64.25 2.45 -69.9 -5.5 -80.75 -8.35 -73.0 -10.65 -66.6 -6.0 -60.2 -1.35 -56.3 5.7" fill="#199432" fill-rule="evenodd" stroke="none"/>
      <path d="M-33.5 -5.85 Q-37.95 -0.45 -42.25 10.25 -44.35 15.25 -45.95 14.55 -47.6 13.9 -46.1 9.2 -43.55 3.1 -39.45 -1.05 -35.3 -5.2 -33.5 -5.85" fill="#50ad26" fill-rule="evenodd" stroke="none"/>
      <path d="M-67.35 -4.5 Q-65.55 -3.85 -61.4 0.3 -57.4 4.45 -54.75 10.55 -53.2 15.2 -54.5 15.8 -55.75 16.3 -57.8 11.35 -62.5 0.75 -67.35 -4.5" fill="#50ad26" fill-rule="evenodd" stroke="none"/>
      <path d="M42.95 2.35 Q36.15 10.95 35.9 17.65 36.25 21.25 38.6 22.4 41.0 23.5 41.55 21.05 42.15 13.7 46.4 6.1 50.6 -1.5 59.55 -4.0 49.7 -6.2 42.95 2.35" fill="#199432" fill-rule="evenodd" stroke="none"/>
    </g>
  </defs>
</svg>
