<?xml version="1.0" encoding="UTF-8" standalone="no"?>
<svg xmlns:xlink="http://www.w3.org/1999/xlink" height="413.3px" width="448.3px" xmlns="http://www.w3.org/2000/svg">
  <g transform="matrix(1.0, 0.0, 0.0, 1.0, 307.65, 180.0)">
    <use data-characterId="188" height="70.9" transform="matrix(1.0, 0.0, 0.0, 1.0, -87.85, 92.4)" width="195.15" xlink:href="#shape0"/>
    <use data-characterId="189" height="311.15" transform="matrix(0.9578, -0.2802, 0.2802, 0.9578, -197.4858, -119.0235)" width="206.45" xlink:href="#shape1"/>
    <use data-characterId="190" height="60.45" transform="matrix(1.0, 0.0, 0.0, 1.0, -70.4, 103.4)" width="185.9" xlink:href="#shape2"/>
  </g>
  <defs>
    <g id="shape0" transform="matrix(1.0, 0.0, 0.0, 1.0, 87.85, -92.4)">
      <path d="M65.05 146.75 L64.55 146.35 Q63.6 144.75 70.55 143.45 77.45 142.15 86.8 142.55 103.6 143.75 102.25 146.05 100.95 148.15 81.95 148.2 109.75 151.6 107.05 156.95 103.8 163.5 51.2 163.3 20.75 162.4 15.6 158.75 2.1 159.85 -20.3 159.8 -54.65 158.75 -56.85 154.25 -58.5 150.9 -49.15 147.9 -74.3 146.6 -82.4 143.35 -92.75 139.1 -83.4 134.1 -74.05 129.2 -53.0 126.15 -33.6 123.35 -11.15 124.35 L-8.7 141.0 Q-2.8 146.45 4.7 145.05 7.65 144.45 10.9 142.85 L9.45 126.2 Q52.15 131.15 48.15 139.25 45.6 144.25 22.65 146.55 28.55 147.7 31.8 149.05 46.3 146.15 65.05 146.75 M63.6 125.9 Q64.45 125.45 66.3 125.4 L67.25 125.4 Q72.95 126.2 66.3 126.55 L65.95 126.55 Q62.5 126.4 63.6 125.9 M74.55 129.05 L74.75 128.95 Q77.35 127.75 83.1 127.95 L83.95 128.1 Q94.8 129.7 83.95 130.45 L80.15 130.65 74.75 130.1 Q73.25 129.7 74.55 129.05 M55.65 129.1 L58.95 129.4 Q66.45 130.15 65.75 131.4 65.2 132.35 58.95 132.7 L50.7 132.8 Q37.4 132.35 41.6 130.6 45.8 128.85 55.65 129.1" fill="#33b400" fill-opacity="0.78039217" fill-rule="evenodd" stroke="none"/>
      <path d="M-54.7 124.9 Q-42.65 124.7 -52.15 123.0 -56.35 122.75 -58.35 123.6 -60.4 124.5 -54.7 124.9" fill="#1a9431" fill-rule="evenodd" stroke="none"/>
      <path d="M-62.3 123.0 Q-71.8 124.7 -59.75 124.9 -54.1 124.5 -56.1 123.6 -58.1 122.75 -62.3 123.0" fill="#1a9431" fill-rule="evenodd" stroke="none"/>
      <path d="M-58.4 121.7 L-58.7 124.5 -57.15 124.55 -56.85 121.6 -56.2 117.4 Q-55.85 116.35 -56.75 116.8 L-57.75 117.4 -58.4 121.7" fill="#199432" fill-rule="evenodd" stroke="none"/>
      <path d="M-57.1 113.95 Q-59.4 112.05 -60.95 112.85 -62.4 113.65 -60.8 115.0 -64.15 114.65 -64.5 115.9 -64.85 117.1 -61.95 117.15 -63.6 117.45 -62.7 119.45 -59.65 120.55 -57.35 118.5 -54.8 120.0 -53.05 119.2 -51.3 118.45 -53.2 116.95 -51.2 116.3 -50.75 114.6 -50.3 112.85 -53.6 112.85 -56.55 113.6 -57.1 113.95" fill="#f8f98d" fill-rule="evenodd" stroke="none"/>
      <path d="M-59.4 117.1 Q-58.0 117.85 -55.7 118.05 -53.3 117.05 -54.95 115.15 -57.85 114.15 -60.05 115.15 -60.5 116.15 -59.4 117.1" fill="#f3db31" fill-rule="evenodd" stroke="none"/>
      <path d="M-58.35 123.85 Q-58.9 122.15 -61.5 121.35 -64.2 120.5 -67.0 120.75 -69.75 121.15 -66.45 122.1 L-58.35 123.85" fill="#8fcb24" fill-rule="evenodd" stroke="none"/>
      <path d="M-57.5 124.1 L-49.45 122.35 Q-46.1 121.4 -48.95 121.0 -51.7 120.75 -54.3 121.6 -57.0 122.4 -57.5 124.1" fill="#8fcb24" fill-rule="evenodd" stroke="none"/>
      <path d="M-19.55 126.35 Q-28.85 126.65 -29.75 125.3 -30.65 124.05 -23.5 123.1 -17.1 122.7 -14.05 124.2 -10.95 125.6 -19.55 126.35" fill="#1a9431" fill-rule="evenodd" stroke="none"/>
      <path d="M-1.8 125.3 Q-2.6 126.65 -11.9 126.35 -20.55 125.6 -17.5 124.2 -14.4 122.7 -8.0 123.1 -0.95 124.05 -1.8 125.3" fill="#1a9431" fill-rule="evenodd" stroke="none"/>
      <path d="M-13.8 120.95 L-13.5 125.6 -15.85 125.65 -16.15 120.75 Q-16.5 116.2 -17.25 113.65 -17.7 111.85 -16.45 112.65 L-14.9 113.65 Q-14.15 116.7 -13.8 120.95" fill="#199432" fill-rule="evenodd" stroke="none"/>
      <path d="M-11.75 117.8 Q-14.3 116.8 -15.45 115.7 -19.4 118.15 -22.1 116.85 -24.75 115.6 -21.9 113.1 -24.9 111.95 -25.55 109.05 -26.2 106.2 -21.25 106.15 -16.7 107.45 -15.85 107.95 -12.4 104.8 -10.05 106.15 -7.75 107.5 -10.2 109.8 -5.05 109.25 -4.6 111.25 -4.05 113.3 -8.5 113.5 -7.85 113.7 -6.95 114.65 -6.0 115.6 -7.4 117.25 -9.15 118.75 -11.75 117.8" fill="#f8f98d" fill-rule="evenodd" stroke="none"/>
      <path d="M-12.3 113.25 L-14.8 114.3 Q-16.8 115.0 -17.95 114.85 -19.15 114.45 -20.1 112.75 -21.0 111.1 -19.1 110.0 -14.7 108.25 -11.35 110.0 -10.65 111.75 -12.3 113.25" fill="#f3db31" fill-rule="evenodd" stroke="none"/>
      <path d="M-13.95 124.6 Q-13.15 121.8 -9.1 120.35 -5.05 118.95 -0.8 119.35 3.45 120.0 -1.7 121.7 -6.75 123.35 -13.95 124.6" fill="#bbe01e" fill-rule="evenodd" stroke="none"/>
      <path d="M-15.25 125.05 Q-22.5 123.8 -27.55 122.15 -32.65 120.45 -28.4 119.8 -24.15 119.4 -20.1 120.8 -16.1 122.25 -15.25 125.05" fill="#bbe01e" fill-rule="evenodd" stroke="none"/>
      <path d="M0.95 116.4 Q5.1 119.3 6.35 127.65 5.9 134.0 4.25 128.2 3.1 121.55 -0.25 116.5 L-0.65 115.4 Q-0.7 114.85 0.95 116.4" fill="#2f9d2d" fill-rule="evenodd" stroke="none"/>
      <path d="M8.35 117.85 Q10.7 121.65 8.0 128.6 6.6 131.45 5.85 130.9 5.2 130.3 5.9 128.2 7.95 122.55 7.2 117.35 7.15 116.75 7.35 116.35 7.55 115.95 8.35 117.85" fill="#2f9d2d" fill-rule="evenodd" stroke="none"/>
      <path d="M-6.5 126.6 Q-5.75 125.05 -2.5 124.45 0.8 123.9 3.2 127.1 5.9 132.25 2.95 129.75 0.5 126.9 -2.95 126.65 -6.9 126.8 -6.5 126.6" fill="#2f9d2d" fill-rule="evenodd" stroke="none"/>
      <path d="M15.75 116.9 Q16.75 107.2 17.75 102.7 L19.4 101.4 Q20.75 100.45 20.05 102.8 19.45 104.95 18.6 110.95 L17.1 122.3 16.4 128.0 14.6 127.7 15.75 116.9" fill="#199432" fill-rule="evenodd" stroke="none"/>
      <path d="M27.1 107.0 Q23.6 108.6 18.4 105.45 16.95 106.85 13.55 108.15 10.2 109.45 7.9 107.5 6.1 105.25 7.25 104.05 8.4 102.75 9.3 102.5 3.55 102.3 4.2 99.65 4.85 96.95 11.55 97.7 8.4 94.75 11.4 92.9 14.45 91.15 18.95 95.35 L21.3 94.35 Q23.45 93.25 25.95 92.9 32.55 93.0 31.65 96.75 30.75 100.55 26.85 101.95 30.6 105.3 27.1 107.0" fill="#b2e2d8" fill-rule="evenodd" stroke="none"/>
      <path d="M9.1 112.15 Q14.55 119.05 14.75 124.45 14.55 127.35 12.6 128.3 10.7 129.15 10.25 127.2 9.7 121.35 6.35 115.2 2.95 109.05 -4.25 107.05 3.65 105.25 9.1 112.15" fill="#199432" fill-rule="evenodd" stroke="none"/>
      <path d="M22.4 112.65 Q27.85 105.75 35.75 107.55 28.55 109.45 24.7 114.75 20.95 120.1 20.4 125.9 20.0 127.95 18.5 127.85 16.95 127.75 16.75 124.95 16.95 119.55 22.4 112.65" fill="#199432" fill-rule="evenodd" stroke="none"/>
      <path d="M17.25 104.85 Q16.3 106.2 13.45 106.75 10.7 107.3 8.7 105.8 6.6 103.5 10.7 101.35 12.85 101.0 15.3 102.35 17.65 103.7 17.25 104.85" fill="#ffffff" fill-rule="evenodd" stroke="none"/>
      <path d="M27.9 103.65 Q29.2 104.95 27.05 106.15 24.3 107.1 20.95 106.1 17.55 105.0 17.7 104.05 18.6 101.9 24.55 102.1 26.55 102.35 27.9 103.65" fill="#ffffff" fill-rule="evenodd" stroke="none"/>
      <path d="M30.35 95.95 Q30.65 100.55 24.65 101.4 21.8 101.35 19.8 98.7 17.85 96.1 20.8 94.7 23.75 93.65 26.75 93.8 29.65 93.95 30.35 95.95" fill="#ffffff" fill-rule="evenodd" stroke="none"/>
      <path d="M16.25 94.1 Q17.95 95.45 18.55 96.75 L16.25 97.9 Q14.2 98.9 13.25 98.75 12.3 98.35 11.35 96.8 10.4 95.2 12.35 93.85 14.6 92.85 16.25 94.1" fill="#ffffff" fill-rule="evenodd" stroke="none"/>
      <path d="M5.75 100.45 Q5.8 98.7 8.2 98.65 L12.5 99.2 Q14.25 100.2 12.7 101.55 L9.0 102.1 Q6.2 102.15 5.75 100.45" fill="#ffffff" fill-rule="evenodd" stroke="none"/>
      <path d="M23.2 98.05 Q26.65 102.75 17.65 103.2 9.4 102.2 13.0 97.95 15.1 96.55 18.3 96.55 21.45 96.55 23.2 98.05" fill="#f3db31" fill-rule="evenodd" stroke="none"/>
      <path d="M4.15 109.25 Q5.35 109.7 8.15 112.5 10.8 115.25 12.55 119.3 13.65 126.15 10.0 120.05 7.1 112.9 4.15 109.25" fill="#50ad26" fill-rule="evenodd" stroke="none"/>
      <path d="M26.85 110.1 Q23.6 113.6 20.4 120.75 17.0 126.95 18.4 120.15 20.1 116.1 22.85 113.35 25.6 110.55 26.85 110.1" fill="#50ad26" fill-rule="evenodd" stroke="none"/>
      <path d="M23.95 120.85 Q26.15 119.35 29.4 119.55 32.7 119.75 32.9 121.3 32.5 123.25 29.75 125.3 26.95 127.25 24.0 126.7 20.55 125.3 23.95 120.85" fill="#f7eb77" fill-rule="evenodd" stroke="none"/>
      <path d="M27.6 111.8 Q30.75 112.15 32.05 114.35 L30.6 116.3 Q29.2 118.0 26.85 117.95 25.55 117.95 23.25 117.1 20.9 116.3 22.3 113.9 24.35 111.45 27.6 111.8" fill="#f7eb77" fill-rule="evenodd" stroke="none"/>
    </g>
    <g id="shape1" transform="matrix(1.0, 0.0, 0.0, 1.0, 102.95, 152.5)">
      <path d="M-11.75 -150.6 L-6.1 -146.25 Q-4.4 -109.9 1.1 -62.45 L13.5 45.8 15.0 59.15 20.25 109.2 Q22.6 133.3 24.4 155.15 21.15 156.75 18.2 157.35 L-11.75 -150.6" fill="#b74b04" fill-rule="evenodd" stroke="none"/>
      <path d="M18.2 157.35 Q10.7 158.75 4.8 153.3 L-0.6 116.5 -1.3 111.7 -1.65 109.2 -2.55 102.75 -3.9 93.1 -8.45 59.15 -13.15 21.9 Q-18.2 -19.65 -24.45 -65.3 L-32.9 -124.5 -33.7 -129.85 -34.85 -137.45 -36.1 -145.9 -30.45 -149.25 Q-27.85 -150.7 -22.7 -151.1 L-12.9 -151.5 -11.75 -150.6 18.2 157.35" fill="#cc6005" fill-rule="evenodd" stroke="none"/>
      <path d="M18.2 157.35 Q10.7 158.75 4.8 153.3 L-0.6 116.5 -1.3 111.7 -1.65 109.2 -2.55 102.75 -3.9 93.1 -8.45 59.15 -13.15 21.9 Q-18.2 -19.65 -24.45 -65.3 L-32.9 -124.5 -33.7 -129.85 -34.85 -137.45 -36.1 -145.9 -30.45 -149.25 Q-27.85 -150.7 -22.7 -151.1 L-12.9 -151.5 -11.75 -150.6 -6.1 -146.25 Q-4.4 -109.9 1.1 -62.45 L13.5 45.8 15.0 59.15 20.25 109.2 Q22.6 133.3 24.4 155.15 21.15 156.75 18.2 157.35 Z" fill="none" stroke="#a73e00" stroke-linecap="round" stroke-linejoin="round" stroke-width="2.0"/>
      <path d="M-91.0 101.8 L-95.15 91.75 -67.85 81.3 Q-57.6 78.3 -47.0 76.1 L-36.35 74.45 -34.2 74.25 -28.2 73.75 -25.4 73.65 -22.65 73.6 Q-14.25 73.45 -6.05 73.75 L18.6 75.2 23.1 75.6 30.35 76.4 70.1 80.55 90.0 82.3 90.05 82.3 90.0 82.5 89.7 83.3 88.05 91.85 87.75 93.15 87.5 96.1 71.55 94.9 42.75 92.85 30.35 92.2 19.65 91.8 Q2.0 91.2 -4.75 91.2 L-34.2 92.3 -49.3 93.95 Q-68.25 96.65 -79.6 99.15 L-91.0 101.8" fill="#cc6005" fill-rule="evenodd" stroke="none"/>
      <path d="M-91.0 101.8 L-79.6 99.15 Q-68.25 96.65 -49.3 93.95 L-34.2 92.3 -4.75 91.2 Q2.0 91.2 19.65 91.8 L30.35 92.2 42.75 92.85 71.55 94.9 87.5 96.1 87.75 93.15 88.05 91.85 89.7 83.3 90.0 82.5 90.05 82.3 92.35 82.5 88.95 98.4 87.05 98.25 86.9 98.25 66.55 96.8 Q60.25 96.45 54.15 96.5 L44.95 96.05 41.95 96.0 38.85 95.9 30.35 95.75 20.55 95.35 -2.05 94.85 Q-15.6 94.7 -29.15 95.3 L-34.2 95.55 -45.95 96.35 Q-55.75 97.2 -65.5 98.75 L-80.7 101.4 -90.45 103.2 -91.0 101.8" fill="#b74b04" fill-rule="evenodd" stroke="none"/>
      <path d="M90.05 82.3 L90.0 82.3 70.1 80.55 30.35 76.4 23.1 75.6 18.6 75.2 -6.05 73.75 Q-14.25 73.45 -22.65 73.6 L-25.4 73.65 -28.2 73.75 -34.2 74.25 -36.35 74.45 -47.0 76.1 Q-57.6 78.3 -67.85 81.3 L-95.15 91.75 -91.0 101.8 -90.45 103.2 -80.7 101.4 -65.5 98.75 Q-55.75 97.2 -45.95 96.35 L-34.2 95.55 -29.15 95.3 Q-15.6 94.7 -2.05 94.85 L20.55 95.35 30.35 95.75 38.85 95.9 41.95 96.0 44.95 96.05 54.15 96.5 Q60.25 96.45 66.55 96.8 L86.9 98.25 87.05 98.25 88.95 98.4 92.35 82.5 90.05 82.3 Z" fill="none" stroke="#a73e00" stroke-linecap="round" stroke-linejoin="round" stroke-width="2.0"/>
      <path d="M92.2 47.7 L92.7 61.75 95.35 61.6 95.35 65.05 92.85 65.1 92.7 61.75 Q71.95 62.9 56.4 66.1 L30.35 71.0 23.55 72.15 Q6.25 75.0 -10.95 76.3 L-34.2 77.4 -51.6 77.6 -59.25 76.95 -89.95 78.75 -89.95 61.6 -64.3 56.85 Q-53.8 55.05 -43.05 54.3 -36.05 54.0 -29.05 54.0 -18.55 53.85 -8.0 54.15 12.9 54.7 33.65 53.5 L55.95 51.9 71.45 50.4 92.2 47.7" fill="#9a3501" fill-rule="evenodd" stroke="none"/>
      <path d="M92.2 47.7 L95.35 47.3 95.35 61.6 92.7 61.75 92.2 47.7 M92.85 65.1 Q79.95 65.4 67.2 67.4 L46.45 71.3 30.35 74.3 23.1 75.6 17.8 76.55 14.25 77.15 -0.65 78.6 -34.2 80.15 -36.0 80.25 -62.9 81.1 -62.95 81.1 -67.85 81.3 -89.95 81.95 -89.95 78.75 -59.25 76.95 -51.6 77.6 -34.2 77.4 -10.95 76.3 Q6.25 75.0 23.55 72.15 L30.35 71.0 56.4 66.1 Q71.95 62.9 92.7 61.75 L92.85 65.1" fill="#872801" fill-rule="evenodd" stroke="none"/>
      <path d="M95.35 61.6 L95.35 47.3 92.2 47.7 71.45 50.4 55.95 51.9 33.65 53.5 Q12.9 54.7 -8.0 54.15 -18.55 53.85 -29.05 54.0 -36.05 54.0 -43.05 54.3 -53.8 55.05 -64.3 56.85 L-89.95 61.6 -89.95 78.75 -89.95 81.95 -67.85 81.3 -62.95 81.1 -62.9 81.1 -36.0 80.25 -34.2 80.15 -0.65 78.6 14.25 77.15 17.8 76.55 23.1 75.6 30.35 74.3 46.45 71.3 67.2 67.4 Q79.95 65.4 92.85 65.1 L95.35 65.05 95.35 61.6 Z" fill="none" stroke="#a73e00" stroke-linecap="round" stroke-linejoin="round" stroke-width="2.0"/>
      <path d="M86.45 6.75 Q88.55 9.35 93.65 17.3 L95.9 20.8 96.35 21.5 96.6 24.65 Q97.25 37.25 97.25 34.4 L97.4 38.75 Q63.45 43.85 47.1 45.55 L33.25 46.8 -13.6 48.45 -30.05 48.15 -42.45 47.85 -59.7 47.15 Q-68.9 47.15 -81.15 49.9 L-96.4 53.15 -96.85 43.9 -87.05 36.3 -87.35 33.4 -87.6 33.4 -97.55 30.6 -98.0 22.3 -88.1 22.15 -5.05 18.15 33.25 14.65 Q59.9 11.55 86.45 6.75" fill="#cc6005" fill-rule="evenodd" stroke="none"/>
      <path d="M86.45 6.75 L88.75 6.3 99.75 20.15 99.75 43.25 97.55 43.55 97.5 43.55 61.35 47.65 33.25 50.1 Q10.55 51.45 -6.9 50.4 -46.65 47.8 -96.25 56.0 L-96.4 53.15 -81.15 49.9 Q-68.9 47.15 -59.7 47.15 L-42.45 47.85 -30.05 48.15 -13.6 48.45 33.25 46.8 47.1 45.55 Q63.45 43.85 97.4 38.75 L97.25 34.4 Q97.25 37.25 96.6 24.65 L96.35 21.5 95.9 20.8 93.65 17.3 Q88.55 9.35 86.45 6.75 M-87.6 33.4 L-87.35 33.4 -87.05 36.3 -96.85 43.9 -97.0 40.85 -93.85 38.0 Q-88.85 33.45 -87.6 33.4" fill="#b74b04" fill-rule="evenodd" stroke="none"/>
      <path d="M97.55 43.55 L99.75 43.25 99.75 20.15 88.75 6.3 86.45 6.75 Q59.9 11.55 33.25 14.65 L-5.05 18.15 -88.1 22.15 -98.0 22.3 -97.55 30.6 -87.6 33.4 Q-88.85 33.45 -93.85 38.0 L-97.0 40.85 -96.85 43.9 -96.4 53.15 -96.25 56.0 Q-46.65 47.8 -6.9 50.4 10.55 51.45 33.25 50.1 L61.35 47.65 97.5 43.55" fill="none" stroke="#a73e00" stroke-linecap="round" stroke-linejoin="round" stroke-width="2.0"/>
      <path d="M0.05 -22.95 L0.05 -22.75 -1.8 -23.05 0.05 -22.95" fill="url(#gradient0)" fill-rule="evenodd" stroke="none"/>
      <path d="M0.05 -22.75 L0.05 -22.95 96.0 -18.0 96.6 -0.3 96.35 3.15 94.75 5.3 74.8 3.5 33.25 5.1 14.55 6.6 Q-3.25 9.55 -23.35 11.15 L-45.6 12.3 -63.95 11.45 -100.2 7.25 -96.5 -11.55 Q-86.1 -14.9 -75.65 -16.7 -38.0 -22.3 0.05 -22.75" fill="#ca7902" fill-rule="evenodd" stroke="none"/>
      <path d="M-100.2 7.25 L-63.95 11.45 -45.6 12.3 -23.35 11.15 Q-3.25 9.55 14.55 6.6 L33.25 5.1 74.8 3.5 94.75 5.3 96.35 3.15 96.6 -0.3 96.0 -18.0 99.85 -17.8 99.1 -15.3 99.05 8.45 Q65.95 7.9 33.25 9.45 L-13.2 12.7 Q-56.7 20.15 -100.95 11.1 L-100.2 7.25" fill="#a76503" fill-rule="evenodd" stroke="none"/>
      <path d="M0.05 -22.75 Q-38.0 -22.3 -75.65 -16.7 -86.1 -14.9 -96.5 -11.55 L-100.2 7.25 -100.95 11.1 Q-56.7 20.15 -13.2 12.7 L33.25 9.45 Q65.95 7.9 99.05 8.45 L99.1 -15.3 99.85 -17.8 96.0 -18.0 0.05 -22.95 -1.8 -23.05 0.05 -22.75 Z" fill="none" stroke="#a73e00" stroke-linecap="round" stroke-linejoin="round" stroke-width="2.0"/>
      <path d="M91.95 -35.75 L89.7 -33.3 90.3 -32.95 Q93.9 -30.95 98.2 -31.1 L98.25 -25.65 85.6 -25.75 55.75 -26.05 Q44.5 -26.1 33.25 -25.75 L29.5 -25.65 18.1 -24.8 Q3.4 -24.15 -11.4 -24.35 -25.25 -24.55 -39.0 -23.9 L-65.2 -22.45 Q-77.0 -20.7 -82.9 -18.95 -88.85 -17.25 -100.3 -17.65 L-101.3 -32.95 -101.85 -42.95 Q-38.45 -51.8 22.1 -51.8 67.2 -50.9 92.25 -49.95 L93.25 -49.9 Q97.2 -44.85 96.6 -40.85 L97.25 -40.2 97.55 -39.5 94.15 -37.25 92.2 -35.95 91.85 -35.75 91.95 -35.75" fill="#9a3501" fill-rule="evenodd" stroke="none"/>
      <path d="M91.95 -35.75 L92.25 -35.7 100.55 -34.15 100.55 -30.95 100.1 -21.75 Q69.3 -22.3 33.25 -21.7 L24.1 -21.55 Q-58.15 -19.8 -99.9 -12.5 L-100.3 -17.65 Q-88.85 -17.25 -82.9 -18.95 -77.0 -20.7 -65.2 -22.45 L-39.0 -23.9 Q-25.25 -24.55 -11.4 -24.35 3.4 -24.15 18.1 -24.8 L29.5 -25.65 33.25 -25.75 Q44.5 -26.1 55.75 -26.05 L85.6 -25.75 98.25 -25.65 98.2 -31.1 Q93.9 -30.95 90.3 -32.95 L89.7 -33.3 91.95 -35.75 M93.25 -49.9 L97.1 -49.75 98.55 -46.25 99.85 -41.0 97.55 -39.5 97.25 -40.2 96.6 -40.85 Q97.2 -44.85 93.25 -49.9" fill="#872801" fill-rule="evenodd" stroke="none"/>
      <path d="M-100.3 -17.65 L-99.9 -12.5 Q-58.15 -19.8 24.1 -21.55 L33.25 -21.7 Q69.3 -22.3 100.1 -21.75 L100.55 -30.95 100.55 -34.15 92.25 -35.7 91.95 -35.75 91.85 -35.75 92.2 -35.95 M-100.3 -17.65 L-101.3 -32.95 -101.85 -42.95 -101.9 -43.7 M-101.85 -42.95 Q-38.45 -51.8 22.1 -51.8 67.2 -50.9 92.25 -49.95 L93.25 -49.9 97.1 -49.75 98.55 -46.25 99.85 -41.0 97.55 -39.5 94.15 -37.25" fill="none" stroke="#a73e00" stroke-linecap="round" stroke-linejoin="round" stroke-width="2.0"/>
      <path d="M94.15 -74.85 L94.55 -71.65 Q95.35 -64.7 95.1 -57.85 L92.25 -57.3 Q84.3 -55.95 76.1 -55.3 L70.65 -54.75 70.35 -55.15 Q43.95 -53.7 24.6 -53.95 5.25 -54.2 -8.6 -53.7 L-33.3 -52.65 Q-48.95 -53.9 -64.5 -52.35 L-97.95 -50.45 -97.95 -65.7 Q-51.65 -72.55 -4.75 -73.5 L33.05 -75.45 Q55.3 -77.25 77.5 -75.75 L92.25 -74.95 94.15 -74.85" fill="#cc6005" fill-rule="evenodd" stroke="none"/>
      <path d="M-97.95 -50.45 L-64.5 -52.35 Q-48.95 -53.9 -33.3 -52.65 L-8.6 -53.7 Q5.25 -54.2 24.6 -53.95 43.95 -53.7 70.35 -55.15 L70.65 -54.75 76.1 -55.3 Q84.3 -55.95 92.25 -57.3 L95.1 -57.85 Q95.35 -64.7 94.55 -71.65 L94.15 -74.85 97.1 -74.7 98.35 -53.6 49.0 -49.8 Q18.65 -49.55 -12.8 -50.3 -55.5 -51.3 -97.95 -46.85 L-97.95 -50.45" fill="#b74b04" fill-rule="evenodd" stroke="none"/>
      <path d="M-97.95 -50.45 L-97.95 -46.85 Q-55.5 -51.3 -12.8 -50.3 18.65 -49.55 49.0 -49.8 L98.35 -53.6 97.1 -74.7 94.15 -74.85 92.25 -74.95 77.5 -75.75 Q55.3 -77.25 33.05 -75.45 L-4.75 -73.5 Q-51.65 -72.55 -97.95 -65.7 L-97.95 -50.45 Z" fill="none" stroke="#a73e00" stroke-linecap="round" stroke-linejoin="round" stroke-width="2.0"/>
      <path d="M-99.15 -73.9 Q-98.8 -76.8 -99.25 -83.1 -99.7 -90.0 -101.05 -94.0 -76.35 -96.55 -51.75 -100.35 -13.8 -100.4 23.2 -100.6 57.9 -100.8 92.25 -101.75 L93.75 -101.8 93.75 -101.4 Q94.15 -92.9 93.9 -91.0 93.75 -89.7 92.25 -86.65 L92.0 -86.15 82.5 -85.8 66.5 -86.4 65.55 -86.45 -37.65 -80.1 Q-73.35 -77.4 -99.15 -73.9" fill="#cc6005" fill-rule="evenodd" stroke="none"/>
      <path d="M93.75 -101.8 L96.75 -101.9 Q96.5 -98.55 95.8 -96.95 L95.8 -82.25 92.25 -82.3 Q79.45 -82.35 61.75 -81.85 L-3.2 -78.8 Q-86.0 -73.05 -100.2 -70.35 L-100.2 -71.5 Q-99.4 -71.6 -99.15 -73.9 -73.35 -77.4 -37.65 -80.1 L65.55 -86.45 66.5 -86.4 82.5 -85.8 92.0 -86.15 92.25 -86.65 Q93.75 -89.7 93.9 -91.0 94.15 -92.9 93.75 -101.4 L93.75 -101.8" fill="#b74b04" fill-rule="evenodd" stroke="none"/>
      <path d="M96.75 -101.9 Q96.5 -98.55 95.8 -96.95 L95.8 -82.25 92.25 -82.3 Q79.45 -82.35 61.75 -81.85 L-3.2 -78.8 Q-86.0 -73.05 -100.2 -70.35 M-100.2 -71.5 Q-99.4 -71.6 -99.15 -73.9 -98.8 -76.8 -99.25 -83.1 -99.7 -90.0 -101.05 -94.0" fill="none" stroke="#a73e00" stroke-linecap="round" stroke-linejoin="round" stroke-width="2.0"/>
      <path d="M93.75 -101.8 L96.75 -101.9 M-101.05 -94.0 Q-76.35 -96.55 -51.75 -100.35 -13.8 -100.4 23.2 -100.6 57.9 -100.8 92.25 -101.75 L93.75 -101.8" fill="none" stroke="#a73e00" stroke-linecap="round" stroke-linejoin="round" stroke-width="2.0"/>
      <path d="M-98.05 -99.4 Q-91.5 -99.25 -84.25 -99.45 L-62.35 -101.15 -22.45 -103.5 33.4 -105.75 Q63.3 -107.2 92.25 -106.8 L93.5 -106.8 95.1 -110.4 93.85 -114.95 Q92.6 -119.95 92.25 -125.05 92.05 -127.7 92.15 -130.4 L92.25 -130.4 92.45 -130.35 96.15 -130.0 96.15 -128.3 Q95.4 -118.8 98.55 -110.15 L99.05 -108.9 99.55 -107.7 Q100.8 -104.85 102.5 -102.1 L29.2 -103.1 -97.5 -96.6 -98.05 -99.4" fill="#b74b04" fill-rule="evenodd" stroke="none"/>
      <path d="M92.15 -130.4 Q92.05 -127.7 92.25 -125.05 92.6 -119.95 93.85 -114.95 L95.1 -110.4 93.5 -106.8 92.25 -106.8 Q63.3 -107.2 33.4 -105.75 L-22.45 -103.5 -62.35 -101.15 -84.25 -99.45 Q-91.5 -99.25 -98.05 -99.4 L-98.1 -99.5 -99.05 -104.45 -96.6 -106.15 Q-93.1 -108.55 -91.35 -108.35 L-100.1 -109.8 -101.95 -119.1 -100.1 -119.4 -72.4 -124.65 Q-51.55 -128.45 -35.6 -130.1 L-15.9 -131.95 1.5 -133.15 Q22.65 -134.5 54.65 -133.75 L75.05 -131.95 92.15 -130.4" fill="#cc6005" fill-rule="evenodd" stroke="none"/>
      <path d="M-98.05 -99.4 L-97.5 -96.6 29.2 -103.1 102.5 -102.1 Q100.8 -104.85 99.55 -107.7 L99.05 -108.9 98.55 -110.15 Q95.4 -118.8 96.15 -128.3 L96.15 -130.0 92.45 -130.35 92.25 -130.4 92.15 -130.4 75.05 -131.95 54.65 -133.75 Q22.65 -134.5 1.5 -133.15 L-15.9 -131.95 -35.6 -130.1 Q-51.55 -128.45 -72.4 -124.65 L-100.1 -119.4 -101.95 -119.1 -100.1 -109.8 -91.35 -108.35 Q-93.1 -108.55 -96.6 -106.15 L-99.05 -104.45 -98.1 -99.5" fill="none" stroke="#a73e00" stroke-linecap="round" stroke-linejoin="round" stroke-width="2.0"/>
    </g>
    <radialGradient cx="0" cy="0" gradientTransform="matrix(0.1586, 0.0, 0.0, 0.1586, 28.55, 0.75)" gradientUnits="userSpaceOnUse" id="gradient0" r="819.2" spreadMethod="pad">
      <stop offset="0.0" stop-color="#cd6106"/>
      <stop offset="1.0" stop-color="#9a3501"/>
    </radialGradient>
    <g id="shape2" transform="matrix(1.0, 0.0, 0.0, 1.0, 92.95, 29.4)">
      <path d="M62.75 -9.85 Q58.6 -2.95 57.35 8.9 56.9 18.5 59.45 17.8 61.95 17.15 63.1 10.45 66.05 -7.65 75.2 -21.1 76.15 -22.65 76.3 -24.05 76.45 -25.55 71.9 -21.3 66.85 -16.75 62.75 -9.85" fill="#199432" fill-rule="evenodd" stroke="none"/>
      <path d="M60.95 5.1 Q62.9 2.5 65.95 -5.55 69.05 -13.65 67.0 -13.25 62.95 -9.7 61.3 -2.05 59.55 5.5 60.95 5.1" fill="#35a12f" fill-rule="evenodd" stroke="none"/>
      <path d="M47.4 -2.55 Q46.9 4.45 51.2 14.05 55.1 21.7 57.05 20.15 59.0 18.65 57.0 13.05 51.35 -2.15 53.4 -16.2 53.55 -17.8 53.0 -18.95 52.4 -20.1 50.3 -15.05 47.9 -9.6 47.4 -2.55" fill="#199432" fill-rule="evenodd" stroke="none"/>
      <path d="M92.9 7.05 Q90.95 2.75 82.1 1.2 73.35 -0.35 66.8 8.2 63.0 14.7 63.3 17.05 63.65 19.4 67.45 15.5 74.05 7.65 83.35 7.2 88.85 6.85 91.0 7.35 93.25 7.75 92.9 7.05" fill="#199432" fill-rule="evenodd" stroke="none"/>
      <path d="M71.0 8.7 L81.2 6.2 Q87.7 4.65 85.9 3.35 76.95 0.6 72.0 4.85 67.1 9.15 71.0 8.7" fill="#35a12f" fill-rule="evenodd" stroke="none"/>
      <path d="M3.8 -10.8 Q11.8 -5.1 14.3 11.1 14.65 18.05 12.8 17.6 11.0 17.1 10.2 12.25 7.95 -0.85 1.35 -10.65 0.6 -11.7 0.55 -12.8 0.5 -13.9 3.8 -10.8" fill="#2f9d2d" fill-rule="evenodd" stroke="none"/>
      <path d="M20.25 0.95 Q20.65 6.0 17.5 13.0 14.65 18.5 13.25 17.35 11.85 16.3 13.3 12.25 17.35 1.2 15.95 -9.0 15.8 -10.1 16.2 -11.0 16.6 -11.9 18.15 -8.15 19.9 -4.2 20.25 0.95" fill="#2f9d2d" fill-rule="evenodd" stroke="none"/>
      <path d="M-10.95 9.2 Q-9.55 6.1 -3.15 4.95 3.25 3.8 8.0 10.05 13.3 20.25 7.6 15.35 2.75 9.65 -4.0 9.35 -11.75 9.55 -10.95 9.2" fill="#2f9d2d" fill-rule="evenodd" stroke="none"/>
      <path d="M-78.2 -11.9 Q-70.2 -6.2 -67.7 10.0 -67.35 16.95 -69.2 16.5 -71.0 16.0 -71.8 11.15 -74.05 -1.95 -80.65 -11.75 -81.4 -12.8 -81.45 -13.9 -81.5 -15.0 -78.2 -11.9" fill="#2f9d2d" fill-rule="evenodd" stroke="none"/>
      <path d="M-61.7 -0.15 Q-61.3 4.9 -64.45 11.9 -67.3 17.4 -68.7 16.35 -70.1 15.2 -68.65 11.15 -64.6 0.1 -66.0 -10.1 -66.15 -11.2 -65.75 -12.1 -65.35 -13.0 -63.85 -9.25 -62.05 -5.3 -61.7 -0.15" fill="#2f9d2d" fill-rule="evenodd" stroke="none"/>
      <path d="M-92.9 8.05 Q-91.5 4.95 -85.1 3.8 -78.7 2.65 -73.95 8.9 -68.65 19.1 -74.35 14.2 -79.2 8.5 -85.95 8.2 -93.7 8.4 -92.9 8.05" fill="#2f9d2d" fill-rule="evenodd" stroke="none"/>
      <path d="M30.85 6.55 Q34.3 13.4 34.25 18.1 33.65 22.35 30.85 23.5 28.05 24.65 27.5 21.85 27.15 13.35 22.65 4.35 18.2 -4.65 7.95 -7.95 15.5 -9.85 21.45 -5.15 27.45 -0.4 30.85 6.55" fill="#199432" fill-rule="evenodd" stroke="none"/>
      <path d="M19.95 -4.35 Q21.7 -3.6 25.4 0.5 29.2 4.7 31.4 10.6 32.7 15.2 31.05 15.8 29.45 16.4 27.7 11.5 24.0 1.05 19.95 -4.35" fill="#50ad26" fill-rule="evenodd" stroke="none"/>
      <path d="M32.8 10.95 Q34.15 21.6 33.9 22.4 L31.25 22.95 Q30.8 2.75 22.1 -9.65 17.85 -15.95 19.75 -15.4 21.65 -14.85 25.4 -9.75 31.55 0.3 32.8 10.95" fill="#199432" fill-rule="evenodd" stroke="none"/>
      <path d="M22.8 -10.45 Q18.0 -3.55 11.6 -5.45 8.7 -6.65 8.5 -9.55 8.3 -12.45 12.6 -14.95 6.6 -16.9 9.5 -21.1 12.35 -25.25 20.75 -22.65 29.1 -32.45 32.9 -28.0 36.65 -23.65 32.95 -19.05 39.7 -16.9 35.25 -12.3 30.8 -7.75 22.8 -10.45" fill="#f6c15b" fill-rule="evenodd" stroke="none"/>
      <path d="M40.8 -5.15 Q45.9 -10.9 53.65 -10.35 44.05 -5.45 40.4 3.25 36.8 11.95 37.8 20.1 37.95 23.2 35.75 23.55 33.55 23.9 32.4 20.05 31.45 15.4 33.6 8.0 35.75 0.55 40.8 -5.15" fill="#199432" fill-rule="evenodd" stroke="none"/>
      <path d="M41.8 -3.95 Q38.4 2.0 36.1 12.95 35.3 18.1 33.95 17.8 32.7 17.55 33.15 12.85 34.3 6.55 37.25 1.85 40.25 -2.95 41.8 -3.95" fill="#50ad26" fill-rule="evenodd" stroke="none"/>
      <path d="M34.15 -14.65 Q31.7 -12.2 27.45 -11.6 23.2 -11.0 22.85 -12.15 22.7 -14.85 29.3 -17.8 31.6 -18.55 33.75 -17.8 35.9 -17.05 34.15 -14.65" fill="#f7eb77" fill-rule="evenodd" stroke="none"/>
      <path d="M26.55 -27.35 Q29.65 -28.65 31.6 -26.75 34.75 -22.1 29.25 -18.25 26.35 -16.7 23.65 -17.6 21.0 -18.45 22.1 -22.55 23.5 -26.05 26.55 -27.35" fill="#f7eb77" fill-rule="evenodd" stroke="none"/>
      <path d="M25.7 -21.15 Q30.95 -18.3 22.85 -13.85 14.7 -11.2 16.25 -16.7 17.55 -19.0 20.5 -20.35 23.45 -21.75 25.7 -21.15" fill="#f39d35" fill-rule="evenodd" stroke="none"/>
      <path d="M-16.9 -9.65 Q-8.9 -3.95 -6.4 12.25 -6.05 19.2 -7.9 18.75 -9.7 18.25 -10.5 13.4 -12.75 0.3 -19.35 -9.5 -20.1 -10.55 -20.15 -11.65 -20.2 -12.75 -16.9 -9.65" fill="#199432" fill-rule="evenodd" stroke="none"/>
      <path d="M-9.0 9.6 Q-10.4 7.7 -12.65 1.85 -14.85 -4.1 -13.45 -3.75 -10.5 -1.1 -9.25 4.4 -8.0 9.85 -9.0 9.6" fill="#35a12f" fill-rule="evenodd" stroke="none"/>
      <path d="M-0.4 2.15 Q0.0 7.2 -3.15 14.2 -6.0 19.7 -7.4 18.55 -8.8 17.5 -7.35 13.45 -3.3 2.4 -4.7 -7.8 -4.85 -8.9 -4.45 -9.8 -4.05 -10.7 -2.55 -6.95 -0.75 -3.0 -0.4 2.15" fill="#199432" fill-rule="evenodd" stroke="none"/>
      <path d="M-2.0 6.9 Q-3.4 11.7 -4.15 11.0 -4.55 9.0 -3.8 3.6 -3.15 -1.85 -2.0 -1.05 -0.6 2.1 -2.0 6.9" fill="#35a12f" fill-rule="evenodd" stroke="none"/>
      <path d="M-31.65 10.35 Q-30.25 7.25 -23.85 6.1 -17.45 4.95 -12.7 11.2 -7.4 21.4 -13.1 16.5 -17.95 10.8 -24.7 10.5 -32.45 10.7 -31.65 10.35" fill="#199432" fill-rule="evenodd" stroke="none"/>
      <path d="M-15.6 11.5 L-23.0 9.65 Q-27.75 8.5 -26.45 7.65 -19.9 5.6 -16.35 8.7 -12.75 11.8 -15.6 11.5" fill="#35a12f" fill-rule="evenodd" stroke="none"/>
      <path d="M-20.6 13.9 Q-14.9 6.7 -6.65 8.6 -14.2 10.7 -17.7 17.1 -21.3 23.5 -21.75 29.65 -22.25 31.7 -24.25 30.75 -26.3 29.85 -26.55 26.75 -26.3 21.15 -20.6 13.9" fill="#199432" fill-rule="evenodd" stroke="none"/>
      <path d="M-27.5 14.0 Q-25.2 22.9 -27.25 28.15 -28.6 30.8 -30.05 30.15 -31.6 29.65 -31.05 27.45 -29.2 21.75 -30.6 15.05 -32.0 8.4 -38.15 3.55 -29.85 5.1 -27.5 14.0" fill="#199432" fill-rule="evenodd" stroke="none"/>
      <path d="M-15.5 10.9 Q-18.5 14.65 -21.55 22.15 -23.05 25.65 -24.2 25.2 -25.35 24.7 -24.25 21.4 -22.45 17.15 -19.6 14.25 -16.75 11.35 -15.5 10.9" fill="#50ad26" fill-rule="evenodd" stroke="none"/>
      <path d="M-30.65 9.75 Q-29.65 10.7 -28.2 14.45 -26.75 18.3 -26.8 22.9 -28.3 29.9 -28.95 22.55 -29.05 14.45 -30.65 9.75" fill="#50ad26" fill-rule="evenodd" stroke="none"/>
      <path d="M-27.7 21.15 Q-26.7 13.4 -22.25 6.1 -19.55 2.4 -18.2 2.0 -16.85 1.6 -19.9 6.2 -26.25 15.15 -26.55 29.85 L-28.45 29.5 Q-28.65 28.8 -27.7 21.15" fill="#199432" fill-rule="evenodd" stroke="none"/>
      <path d="M-20.35 5.6 Q-26.15 7.55 -29.4 4.25 -32.6 0.9 -27.7 -0.65 -30.4 -3.95 -27.7 -7.2 -24.95 -10.45 -18.85 -3.2 -12.75 -5.15 -10.65 -2.15 -8.65 0.9 -12.95 2.3 -7.35 6.75 -12.2 9.2 -16.85 10.6 -20.35 5.6" fill="#f75e47" fill-rule="evenodd" stroke="none"/>
      <path d="M-12.6 3.2 Q-10.2 6.5 -12.7 7.5 -17.8 7.35 -19.15 3.6 -19.0 2.45 -16.65 2.3 -14.25 2.1 -12.6 3.2" fill="#fb8b3c" fill-rule="evenodd" stroke="none"/>
      <path d="M-23.7 4.75 Q-26.8 4.3 -28.6 2.55 -29.9 0.8 -28.35 0.25 -26.8 -0.3 -25.1 0.25 -20.3 2.4 -20.4 4.35 -20.65 5.15 -23.7 4.75" fill="#fb8b3c" fill-rule="evenodd" stroke="none"/>
      <path d="M-23.05 -6.7 Q-20.85 -5.75 -19.85 -3.2 -19.1 -0.25 -21.0 0.4 -22.95 1.05 -25.0 -0.1 -29.05 -2.85 -26.7 -6.3 -25.3 -7.65 -23.05 -6.7" fill="#fb8b3c" fill-rule="evenodd" stroke="none"/>
      <path d="M-15.3 -3.35 Q-12.95 -3.6 -11.45 -1.85 -10.45 -0.1 -12.15 0.5 -13.85 1.1 -14.8 1.1 -16.45 1.15 -17.45 -0.05 L-18.55 -1.45 Q-17.65 -3.1 -15.3 -3.35" fill="#fb8b3c" fill-rule="evenodd" stroke="none"/>
      <path d="M-20.35 3.15 Q-26.25 0.0 -22.4 -2.1 -18.25 -2.55 -15.5 1.15 -14.45 5.2 -20.35 3.15" fill="#f7e632" fill-rule="evenodd" stroke="none"/>
      <path d="M-45.3 4.95 Q-41.4 -2.1 -35.0 -6.75 -28.6 -11.4 -20.85 -9.1 -31.65 -6.15 -36.7 3.05 -41.75 12.2 -42.5 20.95 -43.15 23.95 -46.05 22.6 -48.9 21.25 -49.3 16.85 -49.15 11.95 -45.3 4.95" fill="#199432" fill-rule="evenodd" stroke="none"/>
      <path d="M-56.3 5.7 Q-52.45 12.7 -52.3 17.6 -52.65 21.8 -54.95 21.9 -57.15 22.05 -57.75 18.95 -58.6 10.4 -64.25 2.45 -69.9 -5.5 -80.75 -8.35 -73.0 -10.65 -66.6 -6.0 -60.2 -1.35 -56.3 5.7" fill="#199432" fill-rule="evenodd" stroke="none"/>
      <path d="M-33.5 -5.85 Q-37.95 -0.45 -42.25 10.25 -44.35 15.25 -45.95 14.55 -47.6 13.9 -46.1 9.2 -43.55 3.1 -39.45 -1.05 -35.3 -5.2 -33.5 -5.85" fill="#50ad26" fill-rule="evenodd" stroke="none"/>
      <path d="M-67.35 -4.5 Q-65.55 -3.85 -61.4 0.3 -57.4 4.45 -54.75 10.55 -53.2 15.2 -54.5 15.8 -55.75 16.3 -57.8 11.35 -62.5 0.75 -67.35 -4.5" fill="#50ad26" fill-rule="evenodd" stroke="none"/>
      <path d="M42.95 2.35 Q36.15 10.95 35.9 17.65 36.25 21.25 38.6 22.4 41.0 23.5 41.55 21.05 42.15 13.7 46.4 6.1 50.6 -1.5 59.55 -4.0 49.7 -6.2 42.95 2.35" fill="#199432" fill-rule="evenodd" stroke="none"/>
    </g>
  </defs>
</svg>
