<?xml version="1.0" encoding="UTF-8" standalone="no"?>
<svg xmlns:xlink="http://www.w3.org/1999/xlink" height="49.85px" width="393.45px" xmlns="http://www.w3.org/2000/svg">
  <g transform="matrix(1.0, 0.0, 0.0, 1.0, -500.0, -398.15)">
    <path d="M745.75 448.0 L744.95 448.0 Q745.4 447.2 745.5 447.35 L745.75 447.95 745.75 448.0 M720.75 423.5 Q721.15 423.0 721.75 422.95 722.35 422.9 722.85 423.3 L720.55 423.75 720.75 423.5" fill="#d41817" fill-rule="evenodd" stroke="none"/>
    <path d="M723.45 448.0 L676.85 448.0 676.85 447.35 679.7 447.3 679.45 447.2 681.0 447.2 706.8 447.0 715.3 446.9 723.45 448.0 M670.85 448.0 L630.1 448.0 630.35 444.85 670.85 444.85 670.85 448.0 M530.1 448.0 L506.45 448.0 503.0 445.85 503.05 435.7 518.0 434.2 518.75 433.95 526.8 434.05 Q527.35 434.05 527.8 433.7 L527.95 433.55 529.05 433.6 530.75 434.2 530.1 448.0 M856.65 401.8 L861.25 420.1 818.05 420.65 816.35 403.9 856.65 401.8 M741.85 439.05 L741.85 438.45 725.8 439.2 724.6 425.45 764.15 426.5 765.75 439.05 741.85 439.05 M576.2 427.0 L576.25 427.0 576.3 426.55 607.9 425.2 611.05 425.2 606.45 444.55 574.35 443.05 576.2 427.0 M558.0 416.45 L557.7 427.0 557.5 427.0 557.45 429.0 532.55 429.8 532.2 427.0 531.4 427.0 530.65 421.1 558.0 416.45" fill="#fc8046" fill-rule="evenodd" stroke="none"/>
    <path d="M796.4 440.45 L796.4 440.25 797.1 440.45 796.4 440.45" fill="#551e11" fill-rule="evenodd" stroke="none"/>
    <path d="M892.45 448.0 L857.15 448.0 856.1 439.65 871.95 438.8 Q872.3 438.75 872.55 438.5 L872.8 437.85 872.75 437.75 866.35 437.35 864.0 428.55 864.6 437.45 853.85 438.05 853.5 438.15 819.65 437.75 818.8 425.85 818.5 425.25 818.05 425.05 818.1 424.95 818.25 424.8 824.9 424.8 825.55 424.55 825.8 423.9 818.25 423.05 818.1 422.85 Q817.85 422.6 817.5 422.5 L814.3 419.9 814.45 419.15 813.2 404.1 816.35 403.9 818.05 420.65 861.25 420.1 856.65 401.8 867.05 401.25 870.0 418.5 Q870.05 419.05 870.5 419.4 L871.45 419.75 871.6 419.75 872.95 423.05 851.25 424.5 851.3 424.55 851.9 424.8 873.9 424.8 874.15 424.95 Q874.7 425.2 875.3 424.95 L876.15 424.15 Q876.4 423.6 876.15 423.0 L874.9 419.85 892.45 420.15 892.45 448.0 M854.1 448.0 L804.15 448.0 804.45 440.55 817.7 440.75 817.85 440.95 Q818.3 441.4 818.9 441.4 819.5 441.4 819.95 440.95 L820.15 440.8 853.25 441.15 854.1 448.0 M792.5 448.0 L745.75 448.0 745.75 447.95 745.5 447.35 Q745.4 447.2 744.95 448.0 L742.9 448.0 742.75 446.9 742.75 440.8 769.9 440.8 770.55 440.55 770.8 439.9 770.6 439.4 770.8 438.8 769.5 426.6 769.5 426.55 769.5 426.45 769.15 423.25 810.9 420.9 811.3 421.35 816.0 425.1 816.9 425.4 817.05 425.4 817.2 425.4 Q817.0 425.65 817.05 425.95 L817.9 437.75 797.2 437.45 Q796.55 437.45 796.1 437.9 L795.95 438.1 Q795.5 437.65 794.9 437.65 794.3 437.65 793.85 438.1 L793.65 438.35 783.85 439.05 783.45 439.15 793.4 440.15 793.35 443.75 792.8 444.0 792.55 444.6 792.5 448.0 M734.75 448.0 L723.45 448.0 715.3 446.9 706.8 447.0 713.9 446.8 714.5 446.5 714.6 446.4 693.6 445.65 692.75 433.95 693.0 433.9 693.1 434.25 693.45 434.6 693.9 434.7 695.7 434.65 696.05 434.55 696.4 434.65 721.65 433.85 721.9 434.15 Q722.4 434.5 723.0 434.45 L724.05 433.9 Q724.4 433.4 724.35 432.8 L723.5 425.15 741.05 422.65 741.0 423.05 Q740.9 423.5 741.1 423.95 L741.7 424.6 742.55 424.8 767.4 423.35 767.75 426.65 767.75 426.75 769.05 438.95 769.05 439.05 765.75 439.05 764.15 426.5 724.6 425.45 725.8 439.2 741.85 438.45 741.85 439.05 Q741.5 439.0 741.25 439.3 740.95 439.55 741.0 439.9 L741.0 440.3 725.95 440.65 726.3 446.3 729.0 446.55 729.0 446.7 Q728.95 447.05 729.2 447.35 729.4 447.6 729.8 447.65 L734.75 448.0 M676.85 448.0 L675.0 448.0 674.8 442.9 674.5 442.3 673.9 442.05 660.95 442.8 661.25 442.4 Q661.25 436.4 659.55 435.5 L656.3 432.55 654.7 431.25 655.05 425.2 668.7 423.85 685.2 424.7 685.8 446.15 681.8 446.45 Q681.45 446.45 681.2 446.75 L681.0 447.2 679.45 447.2 679.7 447.3 676.85 447.35 676.85 448.0 M673.25 448.0 L670.85 448.0 670.85 444.85 630.35 444.85 630.1 448.0 629.1 448.0 629.35 445.5 629.25 444.8 642.35 444.8 643.0 444.55 643.2 444.15 628.85 443.05 Q628.5 443.0 628.25 443.3 628.0 443.5 628.0 443.85 L618.3 441.0 618.05 440.95 617.85 435.7 Q618.75 435.5 619.45 434.95 L653.15 433.55 653.9 433.4 655.75 434.25 Q658.55 435.65 659.45 438.15 L658.75 441.25 658.95 442.9 653.05 443.25 653.25 443.55 653.85 443.8 673.05 443.8 673.25 448.0 M565.9 448.0 L534.35 448.0 533.85 437.7 533.55 437.1 533.5 437.05 533.1 448.0 530.1 448.0 530.75 434.2 529.05 433.6 565.9 435.35 565.9 448.0 M506.45 448.0 L503.0 448.0 503.0 445.85 506.45 448.0 M742.75 412.35 L741.35 420.8 720.45 424.0 Q720.35 424.3 720.4 424.6 L721.25 432.15 696.4 432.9 696.05 432.95 695.6 432.9 694.75 432.9 694.75 423.9 694.5 423.3 Q694.2 423.0 693.85 423.05 693.5 423.0 693.25 423.3 L693.15 423.4 691.8 423.4 693.2 414.85 742.75 412.35 M720.75 423.5 L720.55 423.75 722.85 423.3 Q722.35 422.9 721.75 422.95 721.15 423.0 720.75 423.5 M611.05 425.2 L615.4 425.25 615.4 433.5 615.4 433.7 Q615.45 434.3 615.9 434.65 L616.1 435.4 616.5 446.05 616.75 446.65 617.1 446.85 617.1 446.95 616.85 446.9 Q616.25 446.9 615.8 447.35 L615.75 447.4 572.5 444.2 572.35 445.1 572.15 444.5 Q571.95 444.2 571.6 444.15 L572.95 435.7 573.2 435.7 573.65 435.45 573.95 435.0 573.95 434.95 575.2 427.0 576.2 427.0 574.35 443.05 606.45 444.55 611.05 425.2 M576.3 426.55 L576.3 426.15 598.0 425.1 607.9 425.2 576.3 426.55 M558.0 416.45 L558.05 416.45 574.05 418.1 573.2 427.0 573.4 427.0 572.3 433.9 528.4 431.8 528.95 427.0 529.65 427.0 530.3 421.15 530.5 421.1 530.65 421.1 531.4 427.0 532.2 427.0 532.55 429.8 557.45 429.0 557.5 427.0 557.7 427.0 558.0 416.45" fill="#e45c23" fill-rule="evenodd" stroke="none"/>
    <path d="M503.0 448.0 L500.0 448.0 500.05 434.3 Q500.05 433.75 500.45 433.3 500.85 432.85 501.4 432.8 L510.75 431.9 Q511.1 431.5 511.65 431.45 L517.7 430.9 517.9 430.9 525.45 431.05 526.6 421.0 527.3 421.0 527.45 419.55 Q527.5 419.0 527.95 418.65 528.3 418.25 528.85 418.2 L530.3 418.1 557.8 413.45 558.2 413.4 575.8 415.25 Q576.4 415.3 576.8 415.8 577.2 416.25 577.15 416.9 L576.6 423.1 597.85 422.1 597.9 422.1 616.9 422.25 Q617.5 422.25 617.95 422.7 618.4 423.15 618.4 423.75 L618.4 431.5 618.45 431.55 620.2 431.9 651.75 430.6 652.1 423.75 Q652.15 423.15 652.55 422.75 652.9 422.35 653.45 422.3 L668.45 420.85 668.7 420.85 689.05 421.85 690.45 413.2 Q690.5 412.65 690.9 412.3 691.3 411.9 691.85 411.9 L726.9 410.15 726.9 410.1 749.25 410.1 750.1 420.05 792.55 418.9 792.55 418.95 811.35 417.85 810.05 402.8 Q810.0 402.35 810.2 402.0 L810.75 401.4 Q811.05 401.15 811.5 401.15 L868.25 398.15 Q868.8 398.1 869.25 398.5 L869.8 399.4 872.75 416.8 892.95 417.15 892.95 419.65 893.3 419.8 893.45 420.15 893.45 448.0 892.45 448.0 892.45 420.15 874.9 419.85 876.15 423.0 Q876.4 423.6 876.15 424.15 L875.3 424.95 Q874.7 425.2 874.15 424.95 L873.9 424.8 851.9 424.8 851.3 424.55 851.25 424.5 872.95 423.05 871.6 419.75 871.45 419.75 870.5 419.4 Q870.05 419.05 870.0 418.5 L867.05 401.25 856.65 401.8 816.35 403.9 813.2 404.1 814.45 419.15 814.3 419.9 817.5 422.5 Q817.85 422.6 818.1 422.85 L818.25 423.05 825.8 423.9 825.55 424.55 824.9 424.8 818.25 424.8 818.1 424.95 818.05 425.05 818.5 425.25 818.8 425.85 819.65 437.75 853.5 438.15 853.85 438.05 864.6 437.45 864.0 428.55 866.35 437.35 872.75 437.75 872.8 437.85 872.55 438.5 Q872.3 438.75 871.95 438.8 L856.1 439.65 857.15 448.0 854.1 448.0 853.25 441.15 820.15 440.8 819.95 440.95 Q819.5 441.4 818.9 441.4 818.3 441.4 817.85 440.95 L817.7 440.75 804.45 440.55 804.15 448.0 792.5 448.0 792.55 444.6 792.8 444.0 793.35 443.75 793.4 440.15 783.45 439.15 783.85 439.05 793.65 438.35 793.85 438.1 Q794.3 437.65 794.9 437.65 795.5 437.65 795.95 438.1 L796.1 437.9 Q796.55 437.45 797.2 437.45 L817.9 437.75 817.05 425.95 Q817.0 425.65 817.2 425.4 L817.05 425.4 816.9 425.4 816.0 425.1 811.3 421.35 810.9 420.9 769.15 423.25 769.5 426.45 769.5 426.55 769.5 426.6 770.8 438.8 770.6 439.4 770.8 439.9 770.55 440.55 769.9 440.8 742.75 440.8 742.75 446.9 742.9 448.0 734.75 448.0 729.8 447.65 Q729.4 447.6 729.2 447.35 728.95 447.05 729.0 446.7 L729.0 446.55 726.3 446.3 725.95 440.65 741.0 440.3 741.0 439.9 Q740.95 439.55 741.25 439.3 741.5 439.0 741.85 439.05 L765.75 439.05 769.05 439.05 769.05 438.95 767.75 426.75 767.75 426.65 767.4 423.35 742.55 424.8 741.7 424.6 741.1 423.95 Q740.9 423.5 741.0 423.05 L741.05 422.65 723.5 425.15 724.35 432.8 Q724.4 433.4 724.05 433.9 L723.0 434.45 Q722.4 434.5 721.9 434.15 L721.65 433.85 696.4 434.65 696.05 434.55 695.7 434.65 693.9 434.7 693.45 434.6 693.1 434.25 693.0 433.9 692.75 433.95 693.6 445.65 714.6 446.4 714.5 446.5 713.9 446.8 706.8 447.0 681.0 447.2 681.2 446.75 Q681.45 446.45 681.8 446.45 L685.8 446.15 685.2 424.7 668.7 423.85 655.05 425.2 654.7 431.25 656.3 432.55 659.55 435.5 Q661.25 436.4 661.25 442.4 L660.95 442.8 673.9 442.05 674.5 442.3 674.8 442.9 675.0 448.0 673.25 448.0 673.05 443.8 653.85 443.8 653.25 443.55 653.05 443.25 658.95 442.9 658.75 441.25 659.45 438.15 Q658.55 435.65 655.75 434.25 L653.9 433.4 653.15 433.55 619.45 434.95 Q618.75 435.5 617.85 435.7 L618.05 440.95 618.3 441.0 628.0 443.85 Q628.0 443.5 628.25 443.3 628.5 443.0 628.85 443.05 L643.2 444.15 643.0 444.55 642.35 444.8 629.25 444.8 629.35 445.5 629.1 448.0 565.9 448.0 565.9 435.35 529.05 433.6 527.95 433.55 527.8 433.7 Q527.35 434.05 526.8 434.05 L518.75 433.95 518.0 434.2 503.05 435.7 503.0 445.85 503.0 448.0 M534.35 448.0 L533.1 448.0 533.5 437.05 533.55 437.1 533.85 437.7 534.35 448.0 M796.4 440.45 L797.1 440.45 796.4 440.25 796.4 440.45 M742.75 412.35 L693.2 414.85 691.8 423.4 693.15 423.4 693.25 423.3 Q693.5 423.0 693.85 423.05 694.2 423.0 694.5 423.3 L694.75 423.9 694.75 432.9 695.6 432.9 696.05 432.95 696.4 432.9 721.25 432.15 720.4 424.6 Q720.35 424.3 720.45 424.0 L741.35 420.8 742.75 412.35 M576.2 427.0 L575.2 427.0 573.95 434.95 573.95 435.0 573.65 435.45 573.2 435.7 572.95 435.7 571.6 444.15 Q571.95 444.2 572.15 444.5 L572.35 445.1 572.5 444.2 615.75 447.4 615.8 447.35 Q616.25 446.9 616.85 446.9 L617.1 446.95 617.1 446.85 616.75 446.65 616.5 446.05 616.1 435.4 615.9 434.65 Q615.45 434.3 615.4 433.7 L615.4 433.5 615.4 425.25 611.05 425.2 607.9 425.2 598.0 425.1 576.3 426.15 576.3 426.55 576.25 427.0 576.2 427.0 M530.65 421.1 L530.5 421.1 530.3 421.15 529.65 427.0 528.95 427.0 528.4 431.8 572.3 433.9 573.4 427.0 573.2 427.0 574.05 418.1 558.05 416.45 558.0 416.45 530.65 421.1" fill="#a74014" fill-rule="evenodd" stroke="none"/>
  </g>
</svg>
