<?xml version="1.0" encoding="UTF-8" standalone="no"?>
<svg xmlns:xlink="http://www.w3.org/1999/xlink" height="85.25px" width="48.2px" xmlns="http://www.w3.org/2000/svg">
  <g transform="matrix(1.0, 0.0, 0.0, 1.0, 24.15, 50.95)">
    <path d="M18.55 -26.15 L23.55 -26.15 23.55 29.05 23.75 29.8 22.15 32.0 21.6 32.9 21.45 33.1 21.15 33.45 20.65 33.9 Q4.9 34.7 -10.75 33.8 L-14.9 33.5 -20.3 32.6 Q-22.9 32.05 -24.15 29.55 L-24.15 29.5 -24.0 28.9 -24.0 -21.1 -24.05 -21.2 -23.9 -22.2 -23.35 -25.9 -19.0 -26.1 18.55 -26.1 18.55 -26.15" fill="#3d7db8" fill-rule="evenodd" stroke="none"/>
    <path d="M22.3 -29.4 L24.0 -30.05 24.0 30.05 19.85 32.25 0.9 32.8 Q-10.7 32.75 -22.35 30.0 L-22.35 29.9 -20.2 27.4 -20.15 27.45 Q-8.5 30.2 3.1 30.25 12.7 30.25 22.3 28.35 L22.3 -29.4" fill="#cccccc" fill-rule="evenodd" stroke="none"/>
    <path d="M-18.75 -29.55 L-18.75 -30.0 -18.45 -29.9 Q0.95 -23.8 22.3 -31.15 L22.3 -29.4 22.3 28.35 Q12.7 30.25 3.1 30.25 -8.5 30.2 -20.15 27.45 L-18.75 -29.55" fill="#dddddd" fill-rule="evenodd" stroke="none"/>
    <path d="M-22.35 29.9 L-20.95 -27.45 -20.75 -27.35 -18.75 -29.55 -20.15 27.45 -20.2 27.4 -22.35 29.9" fill="#eaeaea" fill-rule="evenodd" stroke="none"/>
    <path d="M-17.2 -33.6 Q1.95 -25.65 22.35 -31.15 L22.35 28.3 4.0 29.35 Q-7.35 28.8 -18.9 25.45 L-17.5 -33.75 -17.2 -33.6" fill="#ffffff" fill-rule="evenodd" stroke="none"/>
    <path d="M24.0 -30.0 L24.0 30.0 Q2.5 31.0 -16.35 24.75 L-16.35 -35.25 Q5.5 -26.75 24.0 -30.0" fill="#dddddd" fill-rule="evenodd" stroke="none"/>
    <path d="M24.05 -30.05 L24.05 29.95 Q4.4 27.75 -13.45 19.55 L-13.45 -40.45 Q9.75 -26.7 24.05 -30.05" fill="#ffffff" fill-rule="evenodd" stroke="none"/>
    <path d="M24.05 -30.0 L24.05 30.0 Q6.0 24.2 -9.2 13.7 L-9.2 -46.3 Q6.45 -30.5 24.05 -30.0" fill="#cccccc" fill-rule="evenodd" stroke="none"/>
    <path d="M18.65 34.0 L19.6 33.7 20.15 33.05 21.15 32.25 Q21.8 31.9 21.9 31.25 22.2 28.95 22.8 26.65 L23.6 26.8 Q24.05 28.0 23.95 30.6 23.8 33.2 18.65 34.0" fill="#3d7db8" fill-rule="evenodd" stroke="none"/>
    <path d="M22.65 -31.05 L24.05 -30.0 24.05 30.0 22.5 28.85 22.65 -31.05" fill="#3d7db8" fill-rule="evenodd" stroke="none"/>
    <path d="M22.5 28.85 L22.3 28.7 -2.6 9.8 Q-5.75 7.45 -5.7 2.45 L-5.7 -47.55 Q-5.75 -52.6 -2.6 -50.2 L20.9 -32.35 20.9 -32.4 22.65 -31.05 22.5 28.85" fill="#6fb9d7" fill-rule="evenodd" stroke="none"/>
  </g>
</svg>
