<?xml version="1.0" encoding="UTF-8" standalone="no"?>
<svg xmlns:xlink="http://www.w3.org/1999/xlink" height="138.5px" width="403.35px" xmlns="http://www.w3.org/2000/svg">
  <g transform="matrix(1.0, 0.0, 0.0, 1.0, -490.2, -398.15)">
    <path d="M856.6 491.45 L859.0 492.05 Q858.55 492.45 857.9 492.4 857.3 492.35 856.9 491.9 L856.6 491.45 M744.9 448.8 L744.6 448.75 Q745.45 447.15 745.6 447.35 L745.85 447.95 745.55 448.55 744.9 448.8 M720.85 423.5 Q721.25 423.0 721.85 422.95 722.45 422.9 722.95 423.3 L720.65 423.75 720.85 423.5 M539.5 522.5 L533.3 522.3 533.4 522.15 Q533.65 521.9 534.05 521.9 L539.5 521.65 539.5 522.5" fill="#d41817" fill-rule="evenodd" stroke="none"/>
    <path d="M856.75 401.8 L861.35 420.1 818.15 420.65 816.45 403.9 856.75 401.8 M741.95 439.05 L741.95 438.45 725.9 439.2 724.7 425.45 764.25 426.5 765.85 439.05 741.95 439.05 M706.9 447.0 L715.4 446.9 743.45 450.7 743.05 462.4 693.5 463.7 676.95 464.15 676.95 447.35 679.8 447.3 679.55 447.2 681.1 447.2 706.9 447.0 M755.9 485.0 L755.15 503.9 746.2 504.5 743.85 484.6 743.85 484.5 755.9 485.0 M746.6 479.25 L749.75 455.35 788.65 459.7 797.5 481.0 746.6 479.25 M670.95 458.95 L650.15 460.75 648.95 460.7 648.95 460.85 633.9 462.15 629.15 462.55 630.45 444.85 670.95 444.85 670.95 458.95 M697.7 495.65 L696.1 521.75 679.15 515.85 677.0 508.5 678.85 495.4 697.7 495.65 M608.0 425.2 L611.15 425.2 606.55 444.55 574.45 443.05 576.3 427.0 576.35 427.0 576.4 426.55 608.0 425.2 M558.1 416.45 L557.8 427.0 557.6 427.0 557.55 429.0 532.65 429.8 532.3 427.0 531.5 427.0 530.75 421.1 558.1 416.45 M529.15 433.6 L530.85 434.2 530.05 451.7 511.0 450.8 503.1 445.85 503.15 435.7 518.1 434.2 518.85 433.95 526.9 434.05 Q527.45 434.05 527.9 433.7 L528.05 433.55 529.15 433.6 M578.1 477.2 L616.6 479.1 609.0 501.1 574.85 500.2 578.1 477.2 M501.65 506.8 L502.1 492.45 501.8 491.5 501.5 491.2 511.8 489.05 512.45 489.2 526.95 489.1 526.2 503.2 501.65 506.8" fill="#fc8046" fill-rule="evenodd" stroke="none"/>
    <path d="M874.2 471.1 L874.85 471.05 874.85 471.15 874.2 471.1 M796.5 440.45 L796.5 440.25 797.2 440.45 796.5 440.45 M516.9 457.95 L516.9 458.0 516.9 457.95" fill="#551e11" fill-rule="evenodd" stroke="none"/>
    <path d="M856.75 401.8 L867.15 401.25 870.1 418.5 Q870.15 419.05 870.6 419.4 871.0 419.75 871.55 419.75 L871.7 419.75 873.05 423.05 851.35 424.5 851.4 424.55 852.0 424.8 874.0 424.8 874.25 424.95 Q874.8 425.2 875.4 424.95 L876.25 424.15 Q876.5 423.6 876.25 423.0 L875.0 419.85 892.55 420.15 892.55 472.2 892.0 472.05 879.2 472.05 879.15 471.95 878.2 471.45 877.9 471.4 876.25 455.15 880.5 453.9 880.5 453.8 880.5 453.5 874.8 452.1 874.4 452.1 857.75 451.5 857.6 450.15 857.55 450.15 856.2 439.65 872.05 438.8 Q872.4 438.75 872.65 438.5 L872.9 437.85 872.85 437.75 866.45 437.35 864.1 428.55 864.7 437.45 853.95 438.05 853.6 438.15 819.75 437.75 818.9 425.85 818.6 425.25 818.15 425.05 818.2 424.95 818.35 424.8 825.0 424.8 825.65 424.55 825.9 423.9 818.35 423.05 818.2 422.85 Q817.95 422.6 817.6 422.5 L814.4 419.9 814.55 419.15 813.3 404.1 816.45 403.9 818.15 420.65 861.35 420.1 856.75 401.8 M741.95 439.05 Q741.6 439.0 741.35 439.3 741.05 439.55 741.1 439.9 L741.1 440.3 726.05 440.65 726.4 446.3 729.1 446.55 729.1 446.7 Q729.05 447.05 729.3 447.35 729.5 447.6 729.9 447.65 L743.1 448.65 742.85 446.9 742.85 440.8 770.0 440.8 770.65 440.55 770.9 439.9 770.7 439.4 770.9 438.8 769.6 426.6 769.6 426.55 769.6 426.45 769.25 423.25 811.0 420.9 811.4 421.35 816.1 425.1 Q816.5 425.4 817.0 425.4 L817.15 425.4 817.3 425.4 817.15 425.95 818.0 437.75 797.3 437.45 Q796.65 437.45 796.2 437.9 L796.05 438.1 Q795.6 437.65 795.0 437.65 794.4 437.65 793.95 438.1 L793.75 438.35 783.95 439.05 783.55 439.15 793.5 440.15 793.45 443.75 Q793.15 443.75 792.9 444.0 792.65 444.2 792.65 444.6 L792.45 455.3 791.1 454.8 Q790.75 454.65 790.4 454.8 L789.95 455.3 Q789.8 455.6 789.95 455.95 L790.45 456.45 793.0 457.4 793.1 457.4 802.55 460.95 802.6 460.95 803.95 461.45 804.65 461.4 805.1 460.9 805.05 460.25 Q804.9 459.9 804.55 459.8 L803.75 459.5 804.55 440.55 817.8 440.75 817.95 440.95 Q818.4 441.4 819.0 441.4 L820.05 440.95 820.25 440.8 853.35 441.15 854.85 453.15 Q854.95 453.7 855.35 454.05 855.75 454.45 856.3 454.45 L857.1 461.2 855.85 461.35 855.95 462.15 807.9 461.7 810.35 462.45 818.35 462.7 817.0 484.55 740.35 483.6 739.85 492.9 739.75 492.9 739.35 493.2 731.95 493.4 699.75 494.05 701.2 465.8 699.45 465.7 698.0 494.05 681.25 494.05 676.05 493.95 674.15 507.1 631.75 508.75 620.45 508.15 620.7 504.35 620.45 504.3 621.9 489.1 622.05 489.1 622.15 488.05 678.15 488.05 681.65 487.8 650.65 486.3 650.6 461.95 673.2 461.8 673.6 464.0 676.6 463.85 675.95 459.9 675.55 459.1 674.9 442.9 674.6 442.3 Q674.35 442.05 674.0 442.05 L661.05 442.8 661.35 442.4 Q661.35 436.4 659.65 435.5 L656.4 432.55 654.8 431.25 655.15 425.2 668.8 423.85 685.3 424.7 685.9 446.15 681.9 446.45 Q681.55 446.45 681.3 446.75 L681.1 447.2 679.55 447.2 679.8 447.3 676.95 447.35 676.95 464.15 693.5 463.7 711.05 464.1 745.3 465.35 Q745.85 465.35 746.3 464.95 746.7 464.55 746.75 464.0 L747.7 454.3 782.75 454.45 746.5 451.15 Q745.85 451.1 745.4 451.5 L745.2 451.7 744.85 452.5 743.9 462.4 743.05 462.4 743.45 450.7 715.4 446.9 706.9 447.0 714.0 446.8 714.6 446.5 714.7 446.4 693.7 445.65 692.85 433.95 693.1 433.9 693.2 434.25 693.55 434.6 694.0 434.7 695.8 434.65 696.15 434.55 696.5 434.65 721.75 433.85 722.0 434.15 723.1 434.45 Q723.7 434.4 724.15 433.9 724.5 433.4 724.45 432.8 L723.6 425.15 741.15 422.65 741.1 423.05 Q741.0 423.5 741.2 423.95 L741.8 424.6 742.65 424.8 767.5 423.35 767.85 426.65 767.85 426.75 769.15 438.95 769.15 439.05 765.85 439.05 764.25 426.5 724.7 425.45 725.9 439.2 741.95 438.45 741.95 439.05 M755.9 485.0 L792.15 486.5 792.15 506.9 785.2 507.45 785.15 507.75 Q785.1 508.1 785.4 508.4 L786.0 508.65 798.0 508.65 798.6 508.45 793.9 506.9 793.9 486.55 836.35 488.35 Q836.1 488.55 836.15 488.9 L835.15 507.65 807.3 508.4 807.4 508.5 807.45 508.55 808.0 508.8 808.6 508.8 807.2 530.05 765.85 534.65 768.9 508.75 772.05 508.65 Q772.4 508.6 772.65 508.35 L772.9 507.85 745.9 508.75 748.85 507.6 746.2 504.5 755.15 503.9 755.9 485.0 M818.75 484.6 L821.65 463.25 856.2 463.9 857.4 471.4 857.3 471.85 856.75 486.15 818.75 484.6 M837.9 488.9 L837.7 488.4 856.6 489.15 856.6 489.2 856.5 490.8 856.5 491.05 879.15 492.7 879.15 492.85 879.9 505.8 880.9 493.0 880.9 492.8 880.95 492.8 881.6 492.55 881.9 491.95 881.65 491.3 881.05 491.05 859.55 490.1 859.6 489.4 859.6 489.3 859.6 488.9 860.25 473.5 876.35 474.4 876.5 474.4 878.0 474.4 Q878.6 474.4 879.05 474.0 L879.25 473.8 892.55 472.3 892.55 529.7 857.5 531.05 857.25 531.15 857.0 518.2 856.05 534.45 856.0 534.55 810.5 534.0 809.0 532.0 809.75 508.85 852.0 509.8 852.6 509.55 852.9 508.95 852.85 508.75 837.9 507.7 837.9 488.9 M856.6 491.45 L856.9 491.9 Q857.3 492.35 857.9 492.4 858.55 492.45 859.0 492.05 L856.6 491.45 M874.2 471.1 L874.0 471.1 873.9 471.1 863.7 470.65 863.7 454.7 873.2 455.05 874.85 471.0 874.85 471.05 874.2 471.1 M742.85 412.35 L741.45 420.8 720.55 424.0 Q720.45 424.3 720.5 424.6 L721.35 432.15 696.5 432.9 696.15 432.95 695.7 432.9 694.85 432.9 694.85 423.9 694.6 423.3 Q694.3 423.0 693.95 423.05 693.6 423.0 693.35 423.3 L693.25 423.4 691.9 423.4 693.3 414.85 742.85 412.35 M744.9 448.8 L745.55 448.55 745.85 447.95 745.6 447.35 Q745.45 447.15 744.6 448.75 L744.9 448.8 M746.6 479.25 L797.5 481.0 788.65 459.7 749.75 455.35 746.6 479.25 M720.85 423.5 L720.65 423.75 722.95 423.3 Q722.45 422.9 721.85 422.95 721.25 423.0 720.85 423.5 M633.9 462.15 L648.85 461.95 647.4 486.3 622.3 486.3 623.1 474.5 623.75 474.5 624.4 474.25 624.65 473.6 624.4 473.0 Q624.1 472.7 623.75 472.75 L569.35 473.75 569.2 473.1 569.2 473.05 570.4 456.2 570.75 456.0 571.05 455.45 570.85 454.85 570.35 454.1 570.2 453.95 571.15 449.8 625.05 449.45 624.3 462.35 627.35 462.25 627.9 456.1 628.45 455.05 629.45 445.5 629.35 444.8 642.45 444.8 643.1 444.55 643.3 444.15 628.95 443.05 Q628.6 443.0 628.35 443.3 628.1 443.5 628.1 443.85 L618.4 441.0 618.15 440.95 617.95 435.7 Q618.85 435.5 619.55 434.95 L653.25 433.55 654.0 433.4 655.85 434.25 Q658.65 435.65 659.55 438.15 L658.85 441.25 659.05 442.9 653.15 443.25 653.35 443.55 Q653.6 443.8 653.95 443.8 L673.15 443.8 673.75 458.7 670.95 458.95 670.95 444.85 630.45 444.85 629.15 462.55 633.9 462.15 M697.7 495.65 L739.9 496.25 743.35 506.55 744.35 511.6 753.55 512.45 752.6 521.95 696.0 523.9 695.9 523.9 695.0 523.9 Q694.65 523.85 694.4 524.15 694.15 524.35 694.15 524.75 L680.1 524.15 680.05 524.15 679.95 524.15 676.75 524.0 676.0 510.0 676.45 509.75 676.95 508.8 677.0 508.5 679.15 515.85 696.1 521.75 697.7 495.65 M694.85 526.5 L694.55 529.65 681.4 529.65 681.35 529.65 681.0 525.95 694.85 526.5 M700.9 533.65 L700.9 525.5 745.85 524.7 746.55 531.65 700.9 533.65 M671.65 531.65 L632.3 533.35 631.85 533.05 632.15 525.0 Q632.7 525.0 633.15 524.65 633.6 524.2 633.65 523.6 L633.65 523.25 633.7 522.8 634.15 510.65 634.35 510.15 634.2 510.05 634.2 509.6 670.25 510.05 671.65 531.65 M611.15 425.2 L615.5 425.25 615.5 433.5 615.5 433.7 Q615.55 434.3 616.0 434.65 L616.2 435.4 616.6 446.05 616.85 446.65 617.2 446.85 617.2 446.95 616.95 446.9 Q616.35 446.9 615.9 447.35 L615.85 447.4 572.6 444.2 572.45 445.1 572.25 444.5 571.7 444.15 573.05 435.7 573.3 435.7 573.75 435.45 574.05 435.0 574.05 434.95 575.3 427.0 576.3 427.0 574.45 443.05 606.55 444.55 611.15 425.2 M576.4 426.55 L576.4 426.15 598.1 425.1 608.0 425.2 576.4 426.55 M558.1 416.45 L558.15 416.45 574.15 418.1 573.3 427.0 573.5 427.0 572.4 433.9 528.5 431.8 529.05 427.0 529.75 427.0 530.4 421.15 530.6 421.1 530.75 421.1 531.5 427.0 532.3 427.0 532.65 429.8 557.55 429.0 557.6 427.0 557.8 427.0 558.1 416.45 M516.9 457.95 L517.0 457.05 517.35 456.9 518.1 457.1 568.7 455.4 567.45 473.05 567.45 473.1 567.35 474.55 567.45 475.0 567.75 475.35 567.35 485.8 567.3 485.8 Q566.9 485.75 566.65 486.0 566.35 486.2 566.35 486.6 566.3 486.95 566.55 487.25 566.75 487.5 567.15 487.55 L573.65 488.05 574.1 487.95 574.45 487.65 574.6 487.2 575.2 475.45 621.35 474.55 620.6 485.3 616.75 485.35 610.45 503.5 581.05 504.1 580.7 504.15 580.65 504.15 Q580.4 503.85 580.05 503.9 L572.3 504.05 572.65 495.0 572.6 495.05 Q572.25 495.2 572.2 495.6 L570.5 504.1 537.0 504.9 Q536.75 504.9 536.55 505.05 L536.0 504.9 532.7 505.3 532.75 489.05 565.6 486.5 532.6 486.05 532.05 485.9 531.5 486.05 514.15 486.2 516.9 457.95 M578.1 477.2 L574.85 500.2 609.0 501.1 616.6 479.1 578.1 477.2 M503.1 445.85 L511.0 450.8 530.05 451.7 530.85 434.2 529.15 433.6 566.0 435.35 566.0 452.9 534.75 453.7 533.95 437.7 533.65 437.1 533.6 437.05 533.0 453.75 518.0 454.1 517.3 454.3 516.4 454.1 515.5 454.15 Q515.0 454.2 514.65 454.55 L509.3 454.0 503.1 448.45 503.1 445.85 M500.4 463.1 L500.9 463.1 501.75 463.05 502.7 462.55 503.05 461.9 513.75 459.15 511.3 483.95 493.8 485.6 494.45 463.3 500.15 463.1 500.4 463.1 M526.95 489.1 L530.95 489.05 529.4 505.45 501.65 507.75 501.65 506.8 526.2 503.2 526.95 489.1 M537.1 506.65 L538.2 506.6 538.2 519.75 Q538.15 520.1 538.45 520.4 L539.05 520.65 539.55 520.5 539.95 506.55 579.55 505.65 579.55 519.8 554.1 521.15 553.95 521.15 539.7 521.65 539.65 522.15 539.65 522.5 553.3 522.9 555.35 529.6 555.75 529.3 555.95 528.65 555.1 522.85 580.45 521.5 580.95 521.6 590.2 522.2 590.85 531.65 559.0 532.35 558.8 532.4 556.15 533.65 501.0 529.65 501.6 509.5 530.15 507.15 530.2 507.15 530.3 507.15 536.15 506.65 536.6 506.5 537.1 506.65 M539.5 522.5 L539.5 521.65 534.05 521.9 Q533.65 521.9 533.4 522.15 L533.3 522.3 539.5 522.5 M631.6 510.85 L633.1 511.5 632.25 523.4 632.2 523.4 581.55 519.7 582.55 507.1 618.8 506.35 618.65 508.9 618.65 508.95 618.6 509.45 618.6 510.35 620.35 510.35 620.35 509.9 631.7 510.5 631.6 510.85 M629.45 531.95 L592.6 535.65 592.0 522.35 630.4 524.9 629.45 531.95" fill="#e45c23" fill-rule="evenodd" stroke="none"/>
    <path d="M893.55 420.15 L893.55 530.15 893.4 530.5 893.1 530.65 857.9 532.05 856.85 535.2 856.65 535.45 856.35 535.55 810.25 535.0 810.05 534.95 809.85 534.8 807.1 531.1 765.85 535.65 765.5 535.55 765.3 535.2 765.3 535.1 747.1 532.25 747.0 532.5 746.65 532.65 700.95 534.65 700.6 534.55 700.4 534.2 700.5 533.9 694.95 530.45 694.85 530.5 694.5 530.65 681.4 530.65 681.05 530.5 680.9 530.25 672.15 532.05 672.15 532.15 672.05 532.5 671.7 532.65 632.2 534.35 631.85 534.25 631.8 534.25 629.95 532.95 592.7 536.65 592.35 536.55 592.15 536.2 Q592.15 536.0 592.3 535.85 L592.45 535.7 591.1 532.65 590.9 532.65 559.1 533.35 556.4 534.6 556.2 534.65 500.95 530.65 500.6 530.5 500.45 530.15 497.95 530.15 498.95 497.65 Q498.55 497.55 498.35 497.3 L498.2 496.65 498.6 493.5 491.85 492.05 Q491.3 491.9 491.0 491.5 490.65 491.05 490.65 490.5 L490.75 487.6 490.5 487.45 Q490.2 487.2 490.2 486.85 490.15 486.45 490.4 486.2 490.55 486.0 490.8 485.9 L491.5 461.8 Q491.5 461.2 491.95 460.8 492.35 460.4 492.95 460.35 L500.0 460.1 500.05 460.1 500.15 434.3 Q500.15 433.75 500.55 433.3 500.95 432.85 501.5 432.8 L510.85 431.9 Q511.2 431.5 511.75 431.45 L517.8 430.9 518.0 430.9 525.55 431.05 526.7 421.0 527.4 421.0 527.55 419.55 Q527.6 419.0 528.05 418.65 528.4 418.25 528.95 418.2 L530.4 418.1 557.9 413.45 558.3 413.4 575.9 415.25 Q576.5 415.3 576.9 415.8 577.3 416.25 577.25 416.9 L576.7 423.1 597.95 422.1 598.0 422.1 617.0 422.25 Q617.6 422.25 618.05 422.7 618.5 423.15 618.5 423.75 L618.5 431.5 618.55 431.55 620.3 431.9 651.85 430.6 652.2 423.75 Q652.25 423.15 652.65 422.75 653.0 422.35 653.55 422.3 L668.55 420.85 668.8 420.85 689.15 421.85 690.55 413.2 Q690.6 412.65 691.0 412.3 691.4 411.9 691.95 411.9 L727.0 410.15 727.0 410.1 749.35 410.1 750.2 420.05 792.65 418.9 792.65 418.95 811.45 417.85 810.15 402.8 Q810.1 402.35 810.3 402.0 L810.85 401.4 Q811.15 401.15 811.6 401.15 L868.35 398.15 Q868.9 398.1 869.35 398.5 L869.9 399.4 872.85 416.8 893.05 417.15 893.05 419.65 893.4 419.8 893.55 420.15 M816.45 403.9 L813.3 404.1 814.55 419.15 814.4 419.9 817.6 422.5 Q817.95 422.6 818.2 422.85 L818.35 423.05 825.9 423.9 825.65 424.55 825.0 424.8 818.35 424.8 818.2 424.95 818.15 425.05 818.6 425.25 818.9 425.85 819.75 437.75 853.6 438.15 853.95 438.05 864.7 437.45 864.1 428.55 866.45 437.35 872.85 437.75 872.9 437.85 872.65 438.5 Q872.4 438.75 872.05 438.8 L856.2 439.65 857.55 450.15 857.6 450.15 857.75 451.5 874.4 452.1 874.8 452.1 880.5 453.5 880.5 453.8 880.5 453.9 876.25 455.15 877.9 471.4 878.2 471.45 879.15 471.95 879.2 472.05 892.0 472.05 892.55 472.2 892.55 420.15 875.0 419.85 876.25 423.0 Q876.5 423.6 876.25 424.15 L875.4 424.95 Q874.8 425.2 874.25 424.95 L874.0 424.8 852.0 424.8 851.4 424.55 851.35 424.5 873.05 423.05 871.7 419.75 871.55 419.75 Q871.0 419.75 870.6 419.4 870.15 419.05 870.1 418.5 L867.15 401.25 856.75 401.8 816.45 403.9 M681.1 447.2 L681.3 446.75 Q681.55 446.45 681.9 446.45 L685.9 446.15 685.3 424.7 668.8 423.85 655.15 425.2 654.8 431.25 656.4 432.55 659.65 435.5 Q661.35 436.4 661.35 442.4 L661.05 442.8 674.0 442.05 Q674.35 442.05 674.6 442.3 L674.9 442.9 675.55 459.1 675.95 459.9 676.6 463.85 673.6 464.0 673.2 461.8 650.6 461.95 650.65 486.3 681.65 487.8 678.15 488.05 622.15 488.05 622.05 489.1 621.9 489.1 620.45 504.3 620.7 504.35 620.45 508.15 631.75 508.75 674.15 507.1 676.05 493.95 681.25 494.05 698.0 494.05 699.45 465.7 701.2 465.8 699.75 494.05 731.95 493.4 739.35 493.2 739.75 492.9 739.85 492.9 740.35 483.6 817.0 484.55 818.35 462.7 810.35 462.45 807.9 461.7 855.95 462.15 855.85 461.35 857.1 461.2 856.3 454.45 Q855.75 454.45 855.35 454.05 854.95 453.7 854.85 453.15 L853.35 441.15 820.25 440.8 820.05 440.95 819.0 441.4 Q818.4 441.4 817.95 440.95 L817.8 440.75 804.55 440.55 803.75 459.5 804.55 459.8 Q804.9 459.9 805.05 460.25 L805.1 460.9 804.65 461.4 803.95 461.45 802.6 460.95 802.55 460.95 793.1 457.4 793.0 457.4 790.45 456.45 789.95 455.95 Q789.8 455.6 789.95 455.3 L790.4 454.8 Q790.75 454.65 791.1 454.8 L792.45 455.3 792.65 444.6 Q792.65 444.2 792.9 444.0 793.15 443.75 793.45 443.75 L793.5 440.15 783.55 439.15 783.95 439.05 793.75 438.35 793.95 438.1 Q794.4 437.65 795.0 437.65 795.6 437.65 796.05 438.1 L796.2 437.9 Q796.65 437.45 797.3 437.45 L818.0 437.75 817.15 425.95 817.3 425.4 817.15 425.4 817.0 425.4 Q816.5 425.4 816.1 425.1 L811.4 421.35 811.0 420.9 769.25 423.25 769.6 426.45 769.6 426.55 769.6 426.6 770.9 438.8 770.7 439.4 770.9 439.9 770.65 440.55 770.0 440.8 742.85 440.8 742.85 446.9 743.1 448.65 729.9 447.65 Q729.5 447.6 729.3 447.35 729.05 447.05 729.1 446.7 L729.1 446.55 726.4 446.3 726.05 440.65 741.1 440.3 741.1 439.9 Q741.05 439.55 741.35 439.3 741.6 439.0 741.95 439.05 L765.85 439.05 769.15 439.05 769.15 438.95 767.85 426.75 767.85 426.65 767.5 423.35 742.65 424.8 741.8 424.6 741.2 423.95 Q741.0 423.5 741.1 423.05 L741.15 422.65 723.6 425.15 724.45 432.8 Q724.5 433.4 724.15 433.9 723.7 434.4 723.1 434.45 L722.0 434.15 721.75 433.85 696.5 434.65 696.15 434.55 695.8 434.65 694.0 434.7 693.55 434.6 693.2 434.25 693.1 433.9 692.85 433.95 693.7 445.65 714.7 446.4 714.6 446.5 714.0 446.8 706.9 447.0 681.1 447.2 M743.05 462.4 L743.9 462.4 744.85 452.5 745.2 451.7 745.4 451.5 Q745.85 451.1 746.5 451.15 L782.75 454.45 747.7 454.3 746.75 464.0 Q746.7 464.55 746.3 464.95 745.85 465.35 745.3 465.35 L711.05 464.1 693.5 463.7 743.05 462.4 M818.75 484.6 L856.75 486.15 857.3 471.85 857.4 471.4 856.2 463.9 821.65 463.25 818.75 484.6 M746.2 504.5 L748.85 507.6 745.9 508.75 772.9 507.85 772.65 508.35 Q772.4 508.6 772.05 508.65 L768.9 508.75 765.85 534.65 807.2 530.05 808.6 508.8 808.0 508.8 807.45 508.55 807.4 508.5 807.3 508.4 835.15 507.65 836.15 488.9 Q836.1 488.55 836.35 488.35 L793.9 486.55 793.9 506.9 798.6 508.45 798.0 508.65 786.0 508.65 785.4 508.4 Q785.1 508.1 785.15 507.75 L785.2 507.45 792.15 506.9 792.15 486.5 755.9 485.0 743.85 484.5 743.85 484.6 746.2 504.5 M837.9 488.9 L837.9 507.7 852.85 508.75 852.9 508.95 852.6 509.55 852.0 509.8 809.75 508.85 809.0 532.0 810.5 534.0 856.0 534.55 856.05 534.45 857.0 518.2 857.25 531.15 857.5 531.05 892.55 529.7 892.55 472.3 879.25 473.8 879.05 474.0 Q878.6 474.4 878.0 474.4 L876.5 474.4 876.35 474.4 860.25 473.5 859.6 488.9 859.6 489.3 859.6 489.4 859.55 490.1 881.05 491.05 881.65 491.3 881.9 491.95 881.6 492.55 880.95 492.8 880.9 492.8 880.9 493.0 879.9 505.8 879.15 492.85 879.15 492.7 856.5 491.05 856.5 490.8 856.6 489.2 856.6 489.15 837.7 488.4 837.9 488.9 M874.85 471.05 L874.85 471.0 873.2 455.05 863.7 454.7 863.7 470.65 873.9 471.1 874.0 471.1 874.2 471.1 874.85 471.15 874.85 471.05 M796.5 440.45 L797.2 440.45 796.5 440.25 796.5 440.45 M742.85 412.35 L693.3 414.85 691.9 423.4 693.25 423.4 693.35 423.3 Q693.6 423.0 693.95 423.05 694.3 423.0 694.6 423.3 L694.85 423.9 694.85 432.9 695.7 432.9 696.15 432.95 696.5 432.9 721.35 432.15 720.5 424.6 Q720.45 424.3 720.55 424.0 L741.45 420.8 742.85 412.35 M670.95 458.95 L673.75 458.7 673.15 443.8 653.95 443.8 Q653.6 443.8 653.35 443.55 L653.15 443.25 659.05 442.9 658.85 441.25 659.55 438.15 Q658.65 435.65 655.85 434.25 L654.0 433.4 653.25 433.55 619.55 434.95 Q618.85 435.5 617.95 435.7 L618.15 440.95 618.4 441.0 628.1 443.85 Q628.1 443.5 628.35 443.3 628.6 443.0 628.95 443.05 L643.3 444.15 643.1 444.55 642.45 444.8 629.35 444.8 629.45 445.5 628.45 455.05 627.9 456.1 627.35 462.25 624.3 462.35 625.05 449.45 571.15 449.8 570.2 453.95 570.35 454.1 570.85 454.85 571.05 455.45 570.75 456.0 570.4 456.2 569.2 473.05 569.2 473.1 569.35 473.75 623.75 472.75 Q624.1 472.7 624.4 473.0 L624.65 473.6 624.4 474.25 623.75 474.5 623.1 474.5 622.3 486.3 647.4 486.3 648.85 461.95 633.9 462.15 648.95 460.85 648.95 460.7 650.15 460.75 670.95 458.95 M694.85 526.5 L681.0 525.95 681.35 529.65 681.4 529.65 694.55 529.65 694.85 526.5 M677.0 508.5 L676.95 508.8 676.45 509.75 676.0 510.0 676.75 524.0 679.95 524.15 680.05 524.15 680.1 524.15 694.15 524.75 Q694.15 524.35 694.4 524.15 694.65 523.85 695.0 523.9 L695.9 523.9 696.0 523.9 752.6 521.95 753.55 512.45 744.35 511.6 743.35 506.55 739.9 496.25 697.7 495.65 678.85 495.4 677.0 508.5 M700.9 533.65 L746.55 531.65 745.85 524.7 700.9 525.5 700.9 533.65 M671.65 531.65 L670.25 510.05 634.2 509.6 634.2 510.05 634.35 510.15 634.15 510.65 633.7 522.8 633.65 523.25 633.65 523.6 Q633.6 524.2 633.15 524.65 632.7 525.0 632.15 525.0 L631.85 533.05 632.3 533.35 671.65 531.65 M611.15 425.2 L608.0 425.2 598.1 425.1 576.4 426.15 576.4 426.55 576.35 427.0 576.3 427.0 575.3 427.0 574.05 434.95 574.05 435.0 573.75 435.45 573.3 435.7 573.05 435.7 571.7 444.15 572.25 444.5 572.45 445.1 572.6 444.2 615.85 447.4 615.9 447.35 Q616.35 446.9 616.95 446.9 L617.2 446.95 617.2 446.85 616.85 446.65 616.6 446.05 616.2 435.4 616.0 434.65 Q615.55 434.3 615.5 433.7 L615.5 433.5 615.5 425.25 611.15 425.2 M530.75 421.1 L530.6 421.1 530.4 421.15 529.75 427.0 529.05 427.0 528.5 431.8 572.4 433.9 573.5 427.0 573.3 427.0 574.15 418.1 558.15 416.45 558.1 416.45 530.75 421.1 M516.9 457.95 L514.15 486.2 531.5 486.05 532.05 485.9 532.6 486.05 565.6 486.5 532.75 489.05 532.7 505.3 536.0 504.9 536.55 505.05 Q536.75 504.9 537.0 504.9 L570.5 504.1 572.2 495.6 Q572.25 495.2 572.6 495.05 L572.65 495.0 572.3 504.05 580.05 503.9 Q580.4 503.85 580.65 504.15 L580.7 504.15 581.05 504.1 610.45 503.5 616.75 485.35 620.6 485.3 621.35 474.55 575.2 475.45 574.6 487.2 574.45 487.65 574.1 487.95 573.65 488.05 567.15 487.55 Q566.75 487.5 566.55 487.25 566.3 486.95 566.35 486.6 566.35 486.2 566.65 486.0 566.9 485.75 567.3 485.8 L567.35 485.8 567.75 475.35 567.45 475.0 567.35 474.55 567.45 473.1 567.45 473.05 568.7 455.4 518.1 457.1 517.35 456.9 517.0 457.05 516.9 457.95 516.9 458.0 516.9 457.95 M529.15 433.6 L528.05 433.55 527.9 433.7 Q527.45 434.05 526.9 434.05 L518.85 433.95 518.1 434.2 503.15 435.7 503.1 445.85 503.1 448.45 509.3 454.0 514.65 454.55 Q515.0 454.2 515.5 454.15 L516.4 454.1 517.3 454.3 518.0 454.1 533.0 453.75 533.6 437.05 533.65 437.1 533.95 437.7 534.75 453.7 566.0 452.9 566.0 435.35 529.15 433.6 M500.4 463.1 L500.15 463.1 494.45 463.3 493.8 485.6 511.3 483.95 513.75 459.15 503.05 461.9 502.7 462.55 501.75 463.05 500.9 463.1 500.4 463.1 M526.95 489.1 L512.45 489.2 511.8 489.05 501.5 491.2 501.8 491.5 502.1 492.45 501.65 506.8 501.65 507.75 529.4 505.45 530.95 489.05 526.95 489.1 M537.1 506.65 L536.6 506.5 536.15 506.65 530.3 507.15 530.2 507.15 530.15 507.15 501.6 509.5 501.0 529.65 556.15 533.65 558.8 532.4 559.0 532.35 590.85 531.65 590.2 522.2 580.95 521.6 580.45 521.5 555.1 522.85 555.95 528.65 555.75 529.3 555.35 529.6 553.3 522.9 539.65 522.5 539.65 522.15 539.7 521.65 553.95 521.15 554.1 521.15 579.55 519.8 579.55 505.65 539.95 506.55 539.55 520.5 539.05 520.65 538.45 520.4 Q538.15 520.1 538.2 519.75 L538.2 506.6 537.1 506.65 M631.6 510.85 L631.7 510.5 620.35 509.9 620.35 510.35 618.6 510.35 618.6 509.45 618.65 508.95 618.65 508.9 618.8 506.35 582.55 507.1 581.55 519.7 632.2 523.4 632.25 523.4 633.1 511.5 631.6 510.85 M629.45 531.95 L630.4 524.9 592.0 522.35 592.6 535.65 629.45 531.95" fill="#a74014" fill-rule="evenodd" stroke="none"/>
  </g>
</svg>
