<?xml version="1.0" encoding="UTF-8" standalone="no"?>
<svg xmlns:xlink="http://www.w3.org/1999/xlink" height="236.35px" width="555.8px" xmlns="http://www.w3.org/2000/svg">
  <g transform="matrix(1.0, 0.0, 0.0, 1.0, 290.5, 34.15)">
    <path d="M236.35 136.8 Q224.75 146.4 210.95 153.65 177.1 171.55 140.05 180.55 103.2 189.25 65.7 193.75 29.3 198.25 -7.2 200.3 -39.85 202.2 -72.6 202.2 L-84.8 186.15 -68.8 186.4 Q-32.0 186.7 4.6 184.55 41.1 182.5 77.5 178.0 115.0 173.5 151.85 164.8 188.9 155.8 222.75 137.9 236.55 130.65 248.15 121.05 257.4 113.4 265.3 104.3 253.1 122.95 236.35 136.8" fill="#ffffff" fill-opacity="0.15294118" fill-rule="evenodd" stroke="none"/>
    <path d="M136.7 139.0 L126.0 142.1 Q89.4 151.8 52.0 157.25 15.75 162.75 -20.7 165.75 -57.25 168.85 -94.05 169.5 -130.55 170.15 -167.0 168.75 -203.25 167.45 -239.25 163.7 L-271.8 155.65 -282.6 142.7 -290.5 133.2 -290.15 132.0 -261.85 140.35 -229.5 149.25 Q-193.6 153.95 -157.4 156.2 L-84.5 158.9 Q-47.7 159.2 -11.1 157.05 25.4 155.0 61.8 150.5 99.3 146.0 136.15 137.3 L136.7 139.0" fill="#ffffff" fill-opacity="0.3019608" fill-rule="evenodd" stroke="none"/>
    <path d="M-53.15 -1.0 Q-55.1 -3.7 -58.65 -2.35 -62.2 -1.05 -63.5 2.3 -64.85 5.6 -61.15 9.3 -64.25 8.45 -65.15 5.3 -67.6 -3.3 -59.35 -5.95 -53.6 -6.25 -51.2 -1.25 L-50.15 -2.05 -48.0 -2.15 Q-41.5 0.7 -45.5 7.55 -44.9 6.2 -45.4 3.5 -45.9 0.85 -49.75 0.2 L-51.1 0.6 -50.85 4.1 Q-51.25 1.65 -53.15 -1.0 M-18.0 20.45 Q-23.85 16.95 -26.95 23.4 -30.1 29.85 -26.4 33.65 -22.7 37.45 -16.5 33.55 -17.15 39.45 -10.5 42.55 -3.85 45.65 0.2 41.35 4.25 37.0 4.7 34.65 L4.95 30.75 Q7.9 37.3 3.4 42.6 -2.25 48.5 -10.3 46.6 -17.3 44.8 -18.95 38.45 -28.9 39.2 -32.2 30.1 -33.4 26.75 -31.3 23.65 -28.4 19.3 -23.25 18.25 -25.1 9.35 -17.8 4.2 -14.05 1.65 -9.45 2.95 -1.9 5.05 -2.0 13.15 -2.05 14.85 -2.85 16.6 -2.55 10.15 -8.3 8.1 -14.85 5.95 -19.3 10.95 -20.1 11.9 -20.4 13.1 L-21.25 18.05 Q-20.0 18.6 -18.9 19.6 L-18.0 20.45 M4.75 7.0 Q6.05 4.4 8.65 3.5 15.25 1.4 17.75 7.9 18.9 14.8 12.2 17.8 14.85 16.4 16.05 14.0 17.05 11.9 15.95 9.65 12.0 1.9 4.75 7.0 M-33.95 18.05 L-33.05 17.3 -32.6 17.0 -33.95 18.05" fill="#ffffff" fill-opacity="0.7019608" fill-rule="evenodd" stroke="none"/>
    <path d="M27.7 -24.8 L27.4 -21.85 Q26.65 -24.8 27.15 -27.85 22.25 -30.1 19.35 -26.0 17.1 -22.9 18.4 -19.0 20.0 -14.15 25.35 -13.7 20.3 -11.6 16.5 -15.6 11.85 -20.6 16.05 -26.5 19.6 -31.4 25.25 -29.75 26.55 -29.45 27.75 -28.6 31.1 -34.75 38.05 -34.1 47.7 -33.75 47.05 -24.65 46.7 -19.2 42.15 -17.6 45.15 -15.3 44.15 -11.4 42.85 -6.2 37.7 -7.75 35.0 -8.45 33.1 -10.35 36.25 -7.8 39.85 -10.0 42.6 -11.75 41.55 -15.05 41.05 -16.55 39.6 -17.4 41.7 -18.9 42.15 -22.6 42.6 -26.0 40.15 -28.4 39.0 -29.6 37.25 -29.8 32.7 -30.25 29.65 -26.85 L27.7 -24.8" fill="#ffffff" fill-opacity="0.7019608" fill-rule="evenodd" stroke="none"/>
  </g>
</svg>
