<?xml version="1.0" encoding="UTF-8" standalone="no"?>
<svg xmlns:xlink="http://www.w3.org/1999/xlink" height="21.2px" width="23.85px" xmlns="http://www.w3.org/2000/svg">
  <g transform="matrix(1.0, 0.0, 0.0, 1.0, 12.3, 16.75)">
    <path d="M5.45 -13.0 L6.4 -12.15 Q8.4 -9.35 8.4 -6.6 L8.4 -5.25 8.15 -3.6 Q7.7 -1.7 6.3 0.1 L5.45 0.85 Q4.9 0.8 4.9 0.35 4.9 0.15 5.25 -0.15 7.45 -2.4 7.45 -5.25 L7.45 -7.0 Q7.45 -9.0 6.0 -11.05 L5.4 -11.9 4.95 -12.5 Q4.95 -13.0 5.45 -13.0 M0.65 -16.75 L0.65 4.45 0.15 4.45 -7.75 -3.55 -12.3 -3.55 -12.3 -8.85 -7.75 -8.85 0.15 -16.75 0.65 -16.75 M9.6 -12.75 L10.5 -11.05 Q11.55 -8.2 11.55 -5.55 11.55 -2.85 10.5 -0.7 L9.4 1.15 8.45 2.35 7.7 2.8 Q7.2 2.8 7.2 2.25 L7.65 1.75 8.65 0.6 9.7 -1.15 10.45 -3.75 10.6 -6.45 Q10.6 -7.85 10.05 -9.6 9.5 -11.45 8.7 -12.5 L7.75 -13.6 7.2 -14.35 Q7.2 -14.85 7.7 -14.85 L8.45 -14.25 9.6 -12.75 M2.7 -10.25 Q2.7 -10.8 3.2 -10.8 3.9 -10.8 4.7 -8.85 5.25 -7.6 5.25 -6.75 L5.25 -5.25 Q5.25 -4.3 4.7 -3.15 3.75 -1.3 3.1 -1.25 2.65 -1.25 2.65 -1.75 L3.15 -2.3 Q4.3 -3.6 4.3 -5.3 L4.3 -6.65 Q4.3 -8.25 3.3 -9.5 L2.9 -9.85 2.7 -10.25" fill="#ffffff" fill-rule="evenodd" stroke="none"/>
    <path d="M5.45 -13.0 L6.4 -12.15 Q8.4 -9.35 8.4 -6.6 L8.4 -5.25 8.15 -3.6 Q7.7 -1.7 6.3 0.1 L5.45 0.85 Q4.9 0.8 4.9 0.35 4.9 0.15 5.25 -0.15 7.45 -2.4 7.45 -5.25 L7.45 -7.0 Q7.45 -9.0 6.0 -11.05 L5.4 -11.9 4.95 -12.5 Q4.95 -13.0 5.45 -13.0 M9.6 -12.75 L10.5 -11.05 Q11.55 -8.2 11.55 -5.55 11.55 -2.85 10.5 -0.7 L9.4 1.15 8.45 2.35 7.7 2.8 Q7.2 2.8 7.2 2.25 L7.65 1.75 8.65 0.6 9.7 -1.15 10.45 -3.75 10.6 -6.45 Q10.6 -7.85 10.05 -9.6 9.5 -11.45 8.7 -12.5 L7.75 -13.6 7.2 -14.35 Q7.2 -14.85 7.7 -14.85 L8.45 -14.25 9.6 -12.75 M2.7 -10.25 Q2.7 -10.8 3.2 -10.8 3.9 -10.8 4.7 -8.85 5.25 -7.6 5.25 -6.75 L5.25 -5.25 Q5.25 -4.3 4.7 -3.15 3.75 -1.3 3.1 -1.25 2.65 -1.25 2.65 -1.75 L3.15 -2.3 Q4.3 -3.6 4.3 -5.3 L4.3 -6.65 Q4.3 -8.25 3.3 -9.5 L2.9 -9.85 2.7 -10.25" fill="none" stroke="#ffffff" stroke-linecap="round" stroke-linejoin="round" stroke-width="0.05"/>
  </g>
</svg>
