<?xml version="1.0" encoding="UTF-8" standalone="no"?>
<svg xmlns:xlink="http://www.w3.org/1999/xlink" height="124.7px" width="195.35px" xmlns="http://www.w3.org/2000/svg">
  <g transform="matrix(1.0, 0.0, 0.0, 1.0, 101.4, 57.95)">
    <path d="M84.45 -49.65 L86.85 -49.65 88.45 61.25 -93.6 59.85 -93.5 56.9 -95.9 56.8 -91.9 -52.45 84.4 -52.45 84.45 -49.65 -89.7 -49.7 -93.5 56.9 85.9 58.2 84.45 -49.65 Z" fill="none" stroke="#7e2601" stroke-linecap="round" stroke-linejoin="round" stroke-width="11.0"/>
    <path d="M85.9 58.2 L-95.9 56.8 -91.9 -52.45 84.4 -52.45 85.9 58.2" fill="#336633" fill-rule="evenodd" stroke="none"/>
    <path d="M88.45 61.25 L-93.6 59.85 -89.7 -49.7 86.85 -49.65 88.45 61.25 Z" fill="none" stroke="#953e04" stroke-linecap="round" stroke-linejoin="round" stroke-width="8.0"/>
    <path d="M-74.1 -42.15 L74.7 -40.15 76.05 49.45 70.75 50.05 65.65 49.25 Q55.05 47.45 44.45 47.95 26.35 48.8 8.3 48.5 L-23.65 47.65 Q-30.85 47.4 -37.95 47.6 L-53.45 48.55 Q-69.35 49.4 -84.9 46.9 L-84.85 45.2 -84.1 34.0 Q-83.45 23.7 -83.0 2.75 -82.65 -18.15 -81.3 -41.45 L-74.1 -42.15" fill="#fffecb" fill-rule="evenodd" stroke="none"/>
    <path d="M-74.1 -42.15 L74.7 -40.15 76.05 49.45 70.75 50.05 65.65 49.25 Q55.05 47.45 44.45 47.95 26.35 48.8 8.3 48.5 L-23.65 47.65 Q-30.85 47.4 -37.95 47.6 L-53.45 48.55 Q-69.35 49.4 -84.9 46.9 L-84.85 45.2 -84.1 34.0 Q-83.45 23.7 -83.0 2.75 -82.65 -18.15 -81.3 -41.45 L-74.1 -42.15 Z" fill="none" stroke="#fcd57a" stroke-linecap="round" stroke-linejoin="round" stroke-width="2.0"/>
    <path d="M-92.3 52.85 L82.45 54.2 81.05 -48.45 -88.6 -48.45 -92.3 52.85 M84.4 -56.45 Q85.8 -56.45 86.8 -55.3 87.8 -54.15 87.85 -52.5 L89.35 58.15 88.9 60.2 Q88.45 61.1 87.65 61.65 86.8 62.2 85.9 62.2 L-95.95 60.8 Q-96.85 60.8 -97.65 60.25 -98.5 59.65 -98.95 58.7 -99.4 57.7 -99.35 56.65 L-95.35 -52.6 Q-95.3 -54.2 -94.3 -55.3 -93.3 -56.45 -91.9 -56.45 L84.4 -56.45" fill="#ea6004" fill-rule="evenodd" stroke="none"/>
  </g>
</svg>
