<?xml version="1.0" encoding="UTF-8" standalone="no"?>
<svg xmlns:xlink="http://www.w3.org/1999/xlink" height="13.75px" width="13.75px" xmlns="http://www.w3.org/2000/svg">
  <g transform="matrix(1.0, 0.0, 0.0, 1.0, 6.85, 6.85)">
    <path d="M5.95 -3.45 Q6.85 -1.9 6.9 0.0 6.85 1.9 5.95 3.5 5.0 5.0 3.5 5.95 1.95 6.85 0.0 6.9 -1.9 6.85 -3.45 5.95 -5.0 5.0 -5.9 3.5 -6.85 1.95 -6.85 0.0 -6.85 -1.9 -5.9 -3.45 -5.0 -5.0 -3.45 -5.9 -1.9 -6.85 0.0 -6.85 1.9 -6.85 3.5 -5.9 5.0 -5.0 5.95 -3.45" fill="#cccccc" fill-rule="evenodd" stroke="none"/>
    <path d="M3.95 3.95 L3.45 3.6 2.2 2.9 Q1.4 2.5 0.5 2.35 L-1.45 2.4 Q-2.4 2.55 -3.0 2.8 L-3.7 3.05 0.5 -4.25 3.95 3.95" fill="#000000" fill-rule="evenodd" stroke="none"/>
  </g>
</svg>
