<?xml version="1.0" encoding="UTF-8" standalone="no"?>
<svg xmlns:xlink="http://www.w3.org/1999/xlink" height="12.9px" width="15.75px" xmlns="http://www.w3.org/2000/svg">
  <g transform="matrix(1.0, 0.0, 0.0, 1.0, 7.8, 6.4)">
    <path d="M2.25 -5.8 L5.15 -6.35 6.9 -6.25 Q7.45 -5.9 7.7 -4.65 L7.95 -1.7 7.55 1.65 Q7.25 3.35 6.65 4.65 6.1 5.9 5.3 6.35 4.45 6.7 2.9 6.35 L-0.5 5.15 Q-2.3 4.3 -4.0 3.25 L-6.75 1.2 Q-7.8 0.15 -7.8 -0.6 -7.8 -1.2 -6.85 -1.9 L-4.4 -3.35 -1.15 -4.7 2.25 -5.8" fill="#999999" fill-rule="evenodd" stroke="none"/>
    <path d="M4.55 -4.95 Q4.9 -4.7 5.1 -3.8 L5.3 -1.65 5.0 0.8 4.4 3.0 3.4 4.2 Q2.8 4.45 1.65 4.2 L-0.75 3.35 -3.35 1.95 -5.35 0.45 Q-6.1 -0.35 -6.15 -0.85 -6.1 -1.4 -5.15 -2.0 L-2.75 -3.25 0.2 -4.35 2.95 -5.0 4.55 -4.95" fill="#cccccc" fill-rule="evenodd" stroke="none"/>
  </g>
</svg>
