<?xml version="1.0" encoding="UTF-8" standalone="no"?>
<svg xmlns:xlink="http://www.w3.org/1999/xlink" height="30.35px" width="30.35px" xmlns="http://www.w3.org/2000/svg">
  <g transform="matrix(1.0, 0.0, 0.0, 1.0, -0.85, -1.1)">
    <path d="M26.85 27.1 Q22.55 31.45 16.4 31.45 10.25 31.45 5.9 27.1 1.6 22.8 1.6 16.65 1.6 10.5 5.9 6.15 10.25 1.85 16.4 1.85 22.55 1.85 26.85 6.15 31.2 10.5 31.2 16.65 31.2 22.8 26.85 27.1" fill="#78071c" fill-rule="evenodd" stroke="none"/>
    <path d="M26.1 26.35 Q21.8 30.7 15.65 30.7 9.5 30.7 5.15 26.35 0.85 22.05 0.85 15.9 0.85 9.75 5.15 5.4 9.5 1.1 15.65 1.1 21.8 1.1 26.1 5.4 30.45 9.75 30.45 15.9 30.45 22.05 26.1 26.35" fill="#f42023" fill-rule="evenodd" stroke="none"/>
  </g>
</svg>
