<?xml version="1.0" encoding="UTF-8" standalone="no"?>
<svg xmlns:xlink="http://www.w3.org/1999/xlink" height="23.8px" width="23.95px" xmlns="http://www.w3.org/2000/svg">
  <g transform="matrix(1.0, 0.0, 0.0, 1.0, -3.3, -3.75)">
    <path d="M23.75 7.25 Q27.2 10.75 27.25 15.65 27.2 20.55 23.75 24.05 20.25 27.5 15.35 27.55 10.45 27.5 6.95 24.05 3.45 20.55 3.45 15.65 3.45 10.75 6.95 7.25 10.45 3.75 15.35 3.75 20.25 3.75 23.75 7.25" fill="#fcd51f" fill-rule="evenodd" stroke="none"/>
    <path d="M23.6 7.25 L24.05 7.7 Q20.65 4.6 16.1 4.65 11.15 4.65 7.7 8.15 4.2 11.6 4.2 16.5 4.2 21.1 7.25 24.45 L6.8 24.05 Q3.3 20.55 3.3 15.65 3.3 10.75 6.8 7.25 10.3 3.75 15.2 3.75 20.1 3.75 23.6 7.25" fill="#a97e01" fill-rule="evenodd" stroke="none"/>
  </g>
</svg>
