<?xml version="1.0" encoding="UTF-8" standalone="no"?>
<svg xmlns:xlink="http://www.w3.org/1999/xlink" height="17.05px" width="16.65px" xmlns="http://www.w3.org/2000/svg">
  <g transform="matrix(1.0, 0.0, 0.0, 1.0, -7.3, -7.5)">
    <path d="M7.65 12.4 L11.85 8.15 15.8 12.05 19.65 8.2 23.9 12.4 20.05 16.3 23.95 20.2 19.7 24.45 15.8 20.55 11.85 24.55 7.6 20.3 11.5 16.3 7.65 12.4" fill="#851025" fill-rule="evenodd" stroke="none"/>
    <path d="M11.55 7.5 L15.5 11.45 19.4 7.55 23.65 11.8 19.8 15.7 23.7 19.6 19.45 23.85 15.5 19.95 11.55 23.9 7.3 19.65 11.2 15.7 7.35 11.8 11.55 7.5" fill="#e0181c" fill-rule="evenodd" stroke="none"/>
  </g>
</svg>
