<?xml version="1.0" encoding="UTF-8" standalone="no"?>
<svg xmlns:xlink="http://www.w3.org/1999/xlink" height="214.05px" width="180.2px" xmlns="http://www.w3.org/2000/svg">
  <g transform="matrix(1.0, 0.0, 0.0, 1.0, 90.1, 107.05)">
    <path d="M7.25 101.95 L-33.85 99.75 Q-47.2 99.4 -54.5 100.0 -71.45 101.25 -82.85 103.5 L-89.1 104.9 -86.85 98.15 -85.9 94.75 Q-83.6 86.3 -82.0 76.5 L-81.1 70.05 -80.65 66.2 Q-79.2 53.2 -78.9 38.15 L-78.8 30.85 -78.8 25.9 Q-78.95 14.0 -79.7 0.9 L-79.95 -3.35 -80.25 -8.3 -81.8 -29.2 -82.0 -32.0 -82.2 -34.8 -83.5 -51.35 -83.9 -56.05 -84.15 -59.45 -85.9 -79.3 -86.05 -80.9 -86.3 -83.1 Q-87.35 -93.7 -88.15 -98.5 L81.2 -106.05 82.05 -104.1 82.85 -90.6 83.1 -86.05 83.15 -85.2 84.05 -69.55 84.25 -66.0 84.65 -59.05 85.75 -39.95 85.95 -36.35 86.1 -33.85 87.5 -9.4 87.7 -5.65 87.9 -2.1 88.45 7.5 89.0 21.1 89.05 24.6 89.1 26.15 Q89.15 43.3 87.35 56.6 L86.65 61.2 86.0 64.85 Q84.4 72.7 82.0 78.85 L80.6 82.1 Q78.8 85.9 76.7 88.95 73.55 93.5 70.25 96.85 60.65 106.4 49.7 106.0 39.4 99.15 37.5 96.45 36.75 95.45 36.5 94.1 L36.35 93.3 35.8 91.15 Q34.85 91.15 34.85 90.25 34.0 91.65 32.6 92.9 L30.7 94.3 Q27.75 96.25 23.25 97.7 14.45 100.5 7.25 101.95" fill="#fffecb" fill-rule="evenodd" stroke="none"/>
    <path d="M49.7 106.0 Q46.25 105.85 42.65 104.7 L30.7 103.7 7.25 101.95 Q14.45 100.5 23.25 97.7 27.75 96.25 30.7 94.3 L32.6 92.9 Q34.0 91.65 34.85 90.25 34.85 91.15 35.8 91.15 L36.35 93.3 36.5 94.1 Q36.75 95.45 37.5 96.45 39.4 99.15 49.7 106.0" fill="#fffce6" fill-rule="evenodd" stroke="none"/>
    <path d="M7.25 101.95 L-33.85 99.75 Q-47.2 99.4 -54.5 100.0 -71.45 101.25 -82.85 103.5 L-89.1 104.9 -86.85 98.15 -85.9 94.75 Q-83.6 86.3 -82.0 76.5 L-81.1 70.05 -80.65 66.2 Q-79.2 53.2 -78.9 38.15 L-78.8 30.85 -78.8 25.9 Q-78.95 14.0 -79.7 0.9 L-79.95 -3.35 -80.25 -8.3 -81.8 -29.2 -82.0 -32.0 -82.2 -34.8 -83.5 -51.35 -83.9 -56.05 -84.15 -59.45 -85.9 -79.3 -86.05 -80.9 -86.3 -83.1 Q-87.35 -93.7 -88.15 -98.5 L81.2 -106.05 82.05 -104.1 82.85 -90.6 83.1 -86.05 83.15 -85.2 84.05 -69.55 84.25 -66.0 84.65 -59.05 85.75 -39.95 85.95 -36.35 86.1 -33.85 87.5 -9.4 87.7 -5.65 87.9 -2.1 88.45 7.5 89.0 21.1 89.05 24.6 89.1 26.15 Q89.15 43.3 87.35 56.6 L86.65 61.2 86.0 64.85 Q84.4 72.7 82.0 78.85 L80.6 82.1 Q78.8 85.9 76.7 88.95 73.55 93.5 70.25 96.85 60.65 106.4 49.7 106.0 46.25 105.85 42.65 104.7 L30.7 103.7 7.25 101.95 Q14.45 100.5 23.25 97.7 27.75 96.25 30.7 94.3 L32.6 92.9 Q34.0 91.65 34.85 90.25 34.85 91.15 35.8 91.15 L36.35 93.3 36.5 94.1 Q36.75 95.45 37.5 96.45 39.4 99.15 49.7 106.0" fill="none" stroke="#fcd57a" stroke-linecap="round" stroke-linejoin="round" stroke-width="2.0"/>
  </g>
</svg>
