<?xml version="1.0" encoding="UTF-8" standalone="no"?>
<svg xmlns:xlink="http://www.w3.org/1999/xlink" height="17.75px" width="44.45px" xmlns="http://www.w3.org/2000/svg">
  <g transform="matrix(1.0, 0.0, 0.0, 1.0, 7.4, -60.6)">
    <path d="M21.2 61.6 Q21.2 62.5 21.4 62.0 L23.65 65.3 26.2 69.15 Q27.55 71.0 36.05 77.35 32.6 77.2 29.0 76.05 L17.05 75.05 -6.4 73.3 Q0.8 71.85 9.6 69.05 14.1 67.6 17.05 65.65 19.8 63.85 21.2 61.6" fill="#fffce6" fill-rule="evenodd" stroke="none"/>
    <path d="M21.2 61.6 Q19.8 63.85 17.05 65.65 14.1 67.6 9.6 69.05 0.8 71.85 -6.4 73.3 L17.05 75.05 29.0 76.05 Q32.6 77.2 36.05 77.35 27.55 71.0 26.2 69.15 L23.65 65.3 21.4 62.0" fill="none" stroke="#fcd57a" stroke-linecap="round" stroke-linejoin="round" stroke-width="2.0"/>
  </g>
</svg>
