<?xml version="1.0" encoding="UTF-8" standalone="no"?>
<svg xmlns:xlink="http://www.w3.org/1999/xlink" height="63.1px" width="11.25px" xmlns="http://www.w3.org/2000/svg">
  <g transform="matrix(1.0, 0.0, 0.0, 1.0, 5.65, 63.1)">
    <path d="M5.6 -56.9 L4.35 -3.35 4.3 -2.55 3.65 -1.0 Q3.15 -0.15 1.9 0.0 0.65 0.0 0.1 -0.85 L-0.65 -2.5 -0.8 -3.4 -5.65 -54.55 -5.65 -55.45 -5.25 -57.7 Q-5.0 -59.1 -4.15 -60.4 -3.3 -61.75 -1.9 -62.4 -0.55 -63.0 0.8 -63.1 L2.7 -62.75 Q3.95 -61.95 4.55 -60.55 L5.4 -58.1 5.6 -56.9" fill="#8b2b09" fill-rule="evenodd" stroke="none"/>
    <path d="M3.8 -57.5 L4.1 -53.65 4.05 -50.2 3.95 -48.7 3.4 -2.7 2.9 -2.05 Q2.45 -1.45 1.65 -1.4 1.1 -1.45 0.8 -1.95 L0.4 -2.9 0.2 -3.4 -3.9 -47.45 -4.05 -48.85 -4.35 -52.1 -4.35 -55.85 Q-4.25 -57.6 -3.75 -58.55 -3.3 -59.2 -2.1 -59.85 -0.9 -60.55 0.5 -60.75 1.85 -60.95 2.65 -60.25 3.45 -59.35 3.8 -57.5" fill="#f39044" fill-rule="evenodd" stroke="none"/>
    <path d="M4.2 -48.5 L4.05 -46.9 3.4 -2.75 2.95 -2.05 Q2.6 -1.45 1.8 -1.35 1.4 -1.4 1.3 -2.15 L1.5 -3.75 1.65 -4.65 -1.05 -47.0 -1.1 -48.5 -1.15 -51.9 -1.05 -55.85 -0.65 -58.7 Q-0.15 -60.25 0.45 -60.6 L1.7 -60.5 3.05 -59.05 Q3.65 -58.1 3.9 -56.2 L4.2 -52.1 4.2 -48.5" fill="#f0620e" fill-rule="evenodd" stroke="none"/>
    <path d="M-3.9 -58.05 Q-3.55 -59.2 -2.5 -60.1 -1.5 -61.0 -0.45 -61.15 L2.0 -60.8 2.85 -59.65 3.0 -59.0 -0.1 -58.9 -2.25 -57.1 -3.05 -55.9 Q-4.2 -56.9 -3.9 -58.05" fill="#f39044" fill-rule="evenodd" stroke="none"/>
  </g>
</svg>
