<?xml version="1.0" encoding="UTF-8" standalone="no"?>
<svg xmlns:xlink="http://www.w3.org/1999/xlink" height="9.85px" width="10.0px" xmlns="http://www.w3.org/2000/svg">
  <g transform="matrix(1.0, 0.0, 0.0, 1.0, -54.25, -28.3)">
    <path d="M61.15 28.55 Q62.25 28.6 63.2 29.75 64.2 30.9 64.25 32.85 64.2 34.75 63.3 36.0 62.4 37.35 61.15 37.6 L61.95 37.45 62.8 37.35 58.45 38.15 Q56.65 38.1 55.45 36.7 54.3 35.3 54.25 33.25 54.3 31.15 55.45 29.75 56.65 28.35 58.45 28.3 L61.15 28.55" fill="#8b2b09" fill-rule="evenodd" stroke="none"/>
    <path d="M58.8 37.55 Q57.45 37.45 56.5 36.55 55.55 35.55 55.3 34.05 58.15 34.85 61.45 34.85 L61.55 36.95 58.8 37.55" fill="#f0620e" fill-rule="evenodd" stroke="none"/>
    <path d="M58.8 28.85 L61.1 29.0 61.45 34.75 Q58.15 34.75 55.3 33.9 L55.25 33.15 Q55.3 31.3 56.3 30.15 57.3 28.9 58.8 28.85" fill="#f39044" fill-rule="evenodd" stroke="none"/>
    <path d="M64.05 32.95 Q64.05 34.6 63.25 35.8 62.5 36.9 61.1 36.95 59.7 36.9 58.8 35.8 57.9 34.7 57.85 33.0 57.9 31.3 58.8 30.2 59.7 29.1 61.1 29.05 62.5 29.1 63.25 30.15 64.05 31.25 64.05 32.95" fill="#8b2b09" fill-rule="evenodd" stroke="none"/>
    <path d="M63.75 32.9 Q63.75 34.4 63.1 35.3 62.55 36.25 61.35 36.3 60.25 36.25 59.5 35.3 58.75 34.4 58.7 32.9 58.75 31.45 59.5 30.5 60.25 29.55 61.35 29.5 62.45 29.55 63.1 30.5 63.7 31.45 63.75 32.9" fill="#f39044" fill-rule="evenodd" stroke="none"/>
    <path d="M63.75 33.4 Q63.75 34.6 63.1 35.45 62.55 36.25 61.35 36.3 60.25 36.25 59.5 35.5 58.75 34.7 58.7 33.4 58.75 32.2 59.5 31.35 60.25 30.55 61.35 30.5 62.45 30.55 63.1 31.35 63.7 32.2 63.75 33.4" fill="#f0620e" fill-rule="evenodd" stroke="none"/>
  </g>
</svg>
