<?xml version="1.0" encoding="UTF-8" standalone="no"?>
<svg xmlns:xlink="http://www.w3.org/1999/xlink" height="11.9px" width="39.95px" xmlns="http://www.w3.org/2000/svg">
  <g transform="matrix(1.0, 0.0, 0.0, 1.0, -0.4, 0.05)">
    <path d="M40.15 9.15 L0.7 9.3 5.05 7.0 Q5.3 6.15 1.05 3.3 L3.15 3.55 Q5.2 3.95 8.05 6.3 10.2 8.15 7.6 4.75 L4.35 0.65 Q3.85 -0.45 7.2 1.25 10.55 2.9 12.05 5.3 L13.6 3.6 Q15.2 2.05 18.65 0.85 L17.1 2.4 Q15.7 3.85 15.55 5.5 15.6 5.2 18.6 3.15 21.55 1.15 26.35 1.0 26.1 1.0 24.1 2.25 22.15 3.45 21.85 5.5 L24.3 3.8 Q26.6 2.35 28.55 2.15 L27.2 3.85 Q26.05 5.4 26.35 6.3 27.65 7.15 33.5 8.1 L40.15 9.15" fill="#4cab26" fill-rule="evenodd" stroke="none"/>
    <path d="M0.65 9.3 L4.95 7.0 Q5.2 6.15 0.95 3.3 L3.1 3.55 Q5.1 3.95 7.95 6.3 10.15 8.15 7.5 4.75 L4.3 0.65 Q3.8 -0.45 7.15 1.25 10.5 2.9 11.95 5.3 L13.55 3.6 Q15.1 2.0 18.6 0.85 L17.0 2.4 Q15.65 3.8 15.45 5.5 L18.5 3.15 Q21.45 1.15 26.3 1.0 26.0 1.0 24.05 2.25 22.1 3.45 21.8 5.5 L24.25 3.8 Q26.5 2.35 28.45 2.15 L27.15 3.85 Q26.0 5.4 26.3 6.3 27.6 7.15 33.45 8.1 L40.1 9.15" fill="none" stroke="#199432" stroke-linecap="square" stroke-linejoin="bevel" stroke-width="0.5"/>
    <path d="M32.05 10.85 L23.4 10.2 Q19.05 9.35 17.0 10.3 14.9 11.3 11.3 11.75 L7.55 11.55 Q7.55 11.15 8.5 9.9 8.75 8.7 5.9 8.95 L2.75 9.25 12.2 7.55 38.25 9.4 37.0 10.05 32.05 10.85" fill="#4cab26" fill-rule="evenodd" stroke="none"/>
  </g>
</svg>
