<?xml version="1.0" encoding="UTF-8" standalone="no"?>
<svg xmlns:xlink="http://www.w3.org/1999/xlink" height="35.25px" width="69.85px" xmlns="http://www.w3.org/2000/svg">
  <g transform="matrix(1.0, 0.0, 0.0, 1.0, -60.55, -3.8)">
    <path d="M95.1 7.1 Q112.0 9.5 91.45 10.4 81.55 9.95 84.65 8.4 87.75 6.85 95.1 7.1" fill="#87c71f" fill-rule="evenodd" stroke="none"/>
    <path d="M100.9 18.75 Q105.3 28.6 104.9 32.2 104.45 35.75 100.25 29.75 92.65 17.9 82.2 17.25 75.85 16.75 73.35 17.4 70.8 18.0 71.25 16.9 73.5 10.45 83.45 8.05 93.45 5.65 100.9 18.75" fill="#199432" fill-rule="evenodd" stroke="none"/>
    <path d="M95.1 13.55 Q100.6 20.05 96.2 19.4 92.1 17.9 84.65 15.55 77.2 13.15 79.25 11.2 89.5 7.0 95.1 13.55" fill="#35a12f" fill-rule="evenodd" stroke="none"/>
    <path d="M81.8 37.55 Q78.65 34.45 80.4 28.45 84.85 18.1 100.6 8.55 116.35 -0.9 130.4 8.5 114.9 7.1 103.7 16.6 92.55 26.05 87.3 37.2 84.9 40.75 81.8 37.55" fill="#199432" fill-rule="evenodd" stroke="none"/>
    <path d="M92.95 23.4 Q87.75 28.9 85.95 27.15 84.15 25.45 88.4 20.0 94.8 13.35 102.2 9.9 109.6 6.55 112.3 6.55 103.85 11.5 92.95 23.4" fill="#50ad26" fill-rule="evenodd" stroke="none"/>
    <path d="M83.75 35.2 Q83.3 38.95 81.4 38.95 79.45 39.0 79.05 36.2 78.7 28.55 74.15 21.3 69.7 14.1 60.55 11.1 67.2 9.4 72.45 13.75 77.75 18.15 80.8 24.5 83.85 30.9 83.75 35.2" fill="#199432" fill-rule="evenodd" stroke="none"/>
    <path d="M79.4 29.35 Q75.75 19.85 71.85 14.95 73.4 15.65 76.7 19.45 80.05 23.25 81.95 28.75 83.1 32.9 82.0 33.4 80.95 33.85 79.4 29.35" fill="#50ad26" fill-rule="evenodd" stroke="none"/>
  </g>
</svg>
