<?xml version="1.0" encoding="UTF-8" standalone="no"?>
<svg xmlns:xlink="http://www.w3.org/1999/xlink" height="60.7px" width="167.95px" xmlns="http://www.w3.org/2000/svg">
  <g transform="matrix(1.0, 0.0, 0.0, 1.0, -209.55, -609.55)">
    <path d="M374.1 610.2 L374.9 610.2 375.7 610.2 376.5 610.25 375.85 612.0 375.15 613.75 374.4 615.5 373.6 617.25 373.15 618.15 372.8 619.05 372.5 619.95 372.25 620.85 372.05 621.5 371.85 622.1 371.65 622.7 371.5 623.35 371.35 623.9 371.15 624.5 370.95 625.1 370.75 625.7 370.3 627.1 369.85 628.45 369.45 629.85 369.1 631.2 368.4 634.3 367.85 637.4 367.35 640.5 366.95 643.55 366.6 646.15 366.1 648.8 365.4 651.4 364.55 654.1 363.65 656.5 362.8 658.95 361.95 661.35 361.1 663.8 360.65 665.15 360.3 666.5 359.9 667.85 359.55 669.2 255.75 669.15 256.35 668.85 248.3 668.95 240.25 669.15 232.15 669.35 224.05 669.65 221.25 669.7 218.4 669.75 215.55 669.7 212.7 669.65 212.15 669.65 211.6 669.6 211.05 669.6 210.55 669.6 211.3 667.05 212.1 664.5 213.05 662.0 214.1 659.5 214.2 659.15 214.3 658.8 214.4 658.5 214.45 658.15 214.9 656.4 215.5 654.6 216.25 652.85 217.2 651.1 217.85 649.95 218.45 648.85 219.0 647.7 219.45 646.6 220.05 645.15 220.6 643.75 221.15 642.3 221.65 640.9 222.9 637.5 224.2 634.1 225.65 630.65 227.15 627.25 227.95 625.4 228.65 623.55 229.3 621.7 229.8 619.85 230.2 618.45 230.45 617.1 230.65 615.7 230.75 614.35 230.85 613.9 230.95 613.4 231.1 612.95 231.3 612.45 231.55 611.85 231.85 611.25 232.15 610.7 232.45 610.1 241.25 610.15 250.1 610.25 258.95 610.35 267.8 610.5 280.1 610.7 292.4 610.85 304.7 610.9 317.0 610.9 322.4 610.85 327.75 610.75 333.15 610.65 338.55 610.55 343.05 610.4 347.6 610.3 352.1 610.2 356.6 610.1 360.8 610.05 364.95 610.05 369.15 610.1 373.3 610.2 374.1 610.2" fill="#ffffcb" fill-rule="evenodd" stroke="none"/>
    <path d="M376.85 611.95 L376.15 613.65 375.4 615.5 374.55 617.3 374.15 618.1 373.8 618.95 373.5 619.9 373.2 620.85 373.0 621.5 372.8 622.1 372.65 622.7 372.5 623.3 372.4 623.6 372.3 623.9 372.2 624.2 372.1 624.5 372.0 624.8 371.9 625.1 371.85 625.4 371.75 625.7 371.2 627.2 370.75 628.6 370.4 629.95 370.1 631.2 369.45 634.15 368.85 637.15 368.35 640.25 367.95 643.5 367.6 646.05 367.1 648.65 366.4 651.35 365.55 654.1 364.95 655.7 364.35 657.3 363.8 658.9 363.25 660.5 362.05 663.8 362.1 663.8 361.65 665.15 361.3 666.5 360.9 667.85 360.55 669.2 360.4 669.4 360.15 669.55 359.8 669.65 359.4 669.7 255.6 669.65 255.3 669.65 255.1 669.6 254.9 669.5 254.85 669.4 247.45 669.5 239.25 669.65 231.5 669.9 223.95 670.15 221.1 670.2 218.25 670.25 215.4 670.2 212.55 670.15 212.2 670.15 211.9 670.15 211.6 670.1 211.3 670.1 211.1 670.1 210.85 670.1 210.6 670.1 210.4 670.1 210.0 670.05 209.75 669.95 209.6 669.8 209.55 669.6 210.35 666.8 211.25 664.2 212.15 661.8 213.15 659.45 213.25 659.15 213.35 658.8 213.4 658.5 213.45 658.2 213.95 656.3 214.55 654.5 215.35 652.75 216.25 651.0 216.95 649.8 217.55 648.65 218.05 647.6 218.5 646.6 219.3 644.6 219.65 643.65 220.0 642.75 220.35 641.8 220.7 640.9 222.0 637.3 223.35 633.8 224.75 630.45 226.2 627.2 227.0 625.3 227.75 623.4 228.35 621.6 228.85 619.85 229.25 618.45 229.5 617.05 229.7 615.7 229.8 614.35 229.9 613.85 230.0 613.4 230.15 612.9 230.35 612.4 230.6 611.8 230.9 611.2 231.2 610.6 231.5 610.05 231.7 609.85 231.95 609.7 232.25 609.65 232.65 609.6 241.5 609.65 250.4 609.75 259.2 609.85 267.95 610.0 280.25 610.2 292.55 610.35 304.85 610.4 317.15 610.4 323.0 610.35 328.45 610.25 333.65 610.15 338.65 610.05 356.7 609.6 361.3 609.55 365.6 609.55 369.65 609.6 373.45 609.7 374.25 609.7 375.1 609.7 375.9 609.7 376.75 609.75 377.1 609.8 377.35 609.9 377.5 610.1 377.5 610.25 376.85 611.95 M374.75 610.7 L374.0 610.7 373.2 610.7 369.35 610.6 365.3 610.55 361.05 610.55 356.5 610.6 338.5 611.0 333.45 611.15 328.25 611.25 322.75 611.3 316.9 611.35 304.55 611.4 292.2 611.3 279.9 611.2 267.6 610.95 258.85 610.8 250.0 610.7 241.15 610.6 233.15 610.55 233.05 610.7 232.8 611.3 232.5 611.85 232.25 612.45 232.05 612.9 231.9 613.35 231.8 613.8 231.75 614.25 231.65 615.6 231.45 616.95 231.2 618.4 230.75 619.85 230.3 621.6 229.65 623.4 228.95 625.3 228.1 627.3 226.65 630.5 225.3 633.85 223.95 637.3 222.65 640.9 222.3 641.85 221.95 642.75 221.6 643.7 221.2 644.65 220.45 646.6 220.0 647.65 219.45 648.75 218.85 649.9 218.15 651.15 217.25 652.8 216.5 654.55 215.9 656.3 215.45 658.1 215.4 658.45 215.3 658.75 215.2 659.1 215.1 659.45 214.1 661.8 213.2 664.25 212.35 666.8 211.7 669.1 211.8 669.1 212.05 669.1 212.35 669.1 212.6 669.1 212.9 669.1 215.75 669.2 218.55 669.2 221.35 669.2 224.2 669.15 231.7 668.85 239.5 668.65 247.7 668.45 256.5 668.3 256.75 668.35 257.0 668.4 257.2 668.5 257.3 668.6 257.35 668.65 358.7 668.65 358.9 667.85 359.3 666.5 359.65 665.1 360.1 663.75 361.25 660.45 361.8 658.85 362.35 657.25 362.95 655.65 363.55 654.05 364.45 651.3 365.1 648.7 365.6 646.1 365.95 643.55 366.35 640.35 366.9 637.2 367.45 634.15 368.15 631.2 368.45 629.95 368.8 628.6 369.25 627.15 369.8 625.65 369.9 625.35 369.95 625.1 370.05 624.8 370.15 624.5 370.25 624.2 370.35 623.9 370.45 623.6 370.5 623.3 370.7 622.7 370.85 622.05 371.05 621.45 371.3 620.8 371.55 619.85 371.9 618.9 372.25 618.0 372.65 617.2 373.45 615.4 374.2 613.6 374.9 611.85 375.35 610.7 374.75 610.7" fill="#fbd672" fill-rule="evenodd" stroke="none"/>
    <path d="M219.6 665.8 L219.35 666.25 219.35 666.15 219.4 666.1 219.4 666.05 219.35 666.1 219.3 666.1 219.25 666.15 218.9 666.3 218.55 666.45 218.15 666.5 217.75 666.55 217.4 666.55 217.0 666.55 216.65 666.5 216.3 666.4 215.95 666.25 215.7 666.1 215.5 665.95 215.45 665.8 215.45 665.55 215.5 665.35 215.65 665.15 215.8 664.95 215.85 664.9 215.85 664.85 215.75 664.9 215.65 664.95 215.55 664.95 215.4 665.0 216.4 664.6 216.75 664.55 217.0 664.5 217.3 664.45 217.65 664.4 218.0 664.4 218.3 664.45 218.6 664.55 218.9 664.6 219.2 664.7 219.4 664.85 219.6 664.95 219.7 665.1 219.75 665.25 219.75 665.45 219.7 665.6 219.6 665.8" fill="#000000" fill-rule="evenodd" stroke="none"/>
    <path d="M219.45 666.1 L219.3 666.35 219.1 666.6 218.75 666.8 218.4 667.0 218.05 667.1 217.6 667.2 217.15 667.2 216.7 667.25 216.25 667.25 215.8 667.15 215.3 667.05 214.95 666.9 214.7 666.7 214.5 666.5 214.4 666.3 214.35 666.05 214.4 665.85 214.5 665.6 214.7 665.4 215.05 665.15 215.5 665.0 215.9 664.9 216.35 664.8 216.9 664.8 217.45 664.85 217.9 664.9 218.35 665.0 218.8 665.2 219.1 665.4 219.35 665.6 219.45 665.85 219.45 666.1" fill="#ffe617" fill-rule="evenodd" stroke="none"/>
    <path d="M356.2 666.2 L356.2 666.35 356.1 666.55 355.95 666.8 355.7 667.0 355.45 667.2 355.15 667.35 354.75 667.5 354.35 667.55 354.0 667.6 353.6 667.65 353.2 667.6 352.85 667.55 352.75 667.55 352.75 667.6 352.3 667.3 352.15 667.2 352.0 667.05 351.95 666.85 351.95 666.7 351.95 666.55 352.05 666.35 352.15 666.2 352.35 666.0 352.6 665.85 352.9 665.75 353.15 665.6 353.45 665.55 353.8 665.45 354.1 665.4 354.4 665.35 354.7 665.35 355.45 665.4 355.4 665.45 355.35 665.45 355.35 665.5 355.4 665.5 355.5 665.5 355.75 665.65 355.95 665.8 356.15 665.95 356.2 666.2" fill="#000000" fill-rule="evenodd" stroke="none"/>
    <path d="M354.75 665.6 L355.05 665.75 355.3 665.9 355.45 666.1 355.55 666.3 355.55 666.6 355.45 666.85 355.25 667.1 355.0 667.35 354.6 667.55 354.2 667.75 353.8 667.85 353.3 667.95 352.9 668.05 352.45 668.1 352.05 668.1 351.6 668.0 351.2 667.85 350.9 667.7 350.65 667.5 350.5 667.3 350.5 667.0 350.6 666.75 350.8 666.5 351.1 666.2 351.45 665.95 351.85 665.75 352.35 665.6 352.9 665.5 353.35 665.4 353.8 665.4 354.3 665.45 354.75 665.6" fill="#ffe617" fill-rule="evenodd" stroke="none"/>
    <path d="M370.45 612.85 L370.3 613.1 370.1 613.3 369.9 613.45 369.65 613.6 369.3 613.75 368.95 613.85 368.55 613.95 368.2 613.95 368.1 613.95 368.0 613.95 368.1 614.0 368.2 614.05 368.25 614.1 367.35 613.9 366.85 613.75 366.55 613.5 366.4 613.2 366.45 612.9 366.6 612.5 366.95 612.2 367.4 612.0 368.0 611.85 368.7 611.75 368.8 611.75 368.9 611.75 369.25 611.8 369.55 611.9 369.85 612.0 370.05 612.15 370.2 612.3 370.35 612.45 370.45 612.65 370.45 612.85" fill="#000000" fill-rule="evenodd" stroke="none"/>
    <path d="M369.35 612.25 L369.6 612.45 369.75 612.65 369.8 612.9 369.8 613.15 369.65 613.4 369.45 613.65 369.2 613.85 368.85 614.05 368.45 614.2 368.05 614.3 367.65 614.4 367.2 614.4 366.75 614.4 366.3 614.35 365.95 614.2 365.65 614.05 365.4 613.85 365.2 613.65 365.1 613.4 365.1 613.15 365.3 612.85 365.55 612.55 365.9 612.35 366.25 612.15 366.65 612.0 367.05 611.9 367.5 611.85 368.0 611.85 368.45 611.9 368.85 611.95 369.15 612.1 369.35 612.25" fill="#ffe617" fill-rule="evenodd" stroke="none"/>
    <path d="M238.7 613.0 L238.55 613.15 238.3 613.3 238.0 613.45 237.75 613.55 237.5 613.65 237.2 613.7 236.85 613.75 236.55 613.75 236.25 613.75 235.65 613.7 235.6 613.65 235.3 613.5 235.1 613.35 235.0 613.2 234.95 613.0 234.9 612.85 234.95 612.65 235.1 612.45 235.3 612.25 235.65 612.05 236.0 611.9 236.35 611.8 236.7 611.7 237.1 611.65 237.45 611.6 237.8 611.65 238.15 611.7 238.2 611.7 238.25 611.75 238.35 611.75 238.3 611.7 238.3 611.65 238.25 611.6 238.75 611.95 238.9 612.05 238.95 612.2 239.0 612.35 238.95 612.5 238.95 612.65 238.85 612.85 238.7 613.0" fill="#000000" fill-rule="evenodd" stroke="none"/>
    <path d="M237.95 611.35 L238.2 611.5 238.4 611.7 238.55 611.95 238.55 612.2 238.45 612.45 238.25 612.7 237.95 612.95 237.55 613.2 237.15 613.4 236.7 613.5 236.2 613.6 235.7 613.7 235.25 613.7 234.8 613.65 234.35 613.55 234.1 613.4 233.9 613.2 233.75 613.05 233.65 612.8 233.7 612.6 233.8 612.35 234.0 612.15 234.35 611.9 234.65 611.7 235.05 611.5 235.45 611.35 235.9 611.25 236.3 611.2 236.7 611.15 237.15 611.2 237.55 611.25 237.95 611.35" fill="#ffe617" fill-rule="evenodd" stroke="none"/>
  </g>
</svg>
