<?xml version="1.0" encoding="UTF-8" standalone="no"?>
<svg xmlns:xlink="http://www.w3.org/1999/xlink" height="60.85px" width="168.25px" xmlns="http://www.w3.org/2000/svg">
  <g transform="matrix(1.0, 0.0, 0.0, 1.0, -208.9, -599.45)">
    <path d="M374.6 600.0 L375.15 600.05 375.65 600.05 376.15 600.05 375.65 602.45 375.0 604.9 374.25 607.3 373.4 609.75 373.3 610.1 373.25 610.4 373.2 610.7 373.15 611.05 372.85 612.75 372.35 614.5 371.75 616.2 370.9 617.95 370.35 619.05 369.8 620.15 369.35 621.25 368.95 622.35 368.5 623.8 368.0 625.2 367.55 626.6 367.15 628.05 366.1 631.45 365.0 634.9 363.8 638.4 362.45 641.9 361.75 643.8 361.15 645.7 360.65 647.65 360.2 649.55 359.9 651.0 359.7 652.45 359.6 653.9 359.6 655.35 359.55 655.8 359.45 656.3 359.35 656.8 359.15 657.35 358.9 657.95 358.65 658.55 358.4 659.2 358.1 659.8 348.9 659.75 339.7 659.6 330.5 659.45 321.35 659.3 308.6 659.05 295.9 658.85 283.25 658.75 270.6 658.75 265.1 658.8 259.6 658.85 254.1 658.95 248.55 659.1 243.95 659.2 239.35 659.3 234.75 659.4 230.15 659.45 225.9 659.5 221.6 659.5 217.35 659.45 213.15 659.35 212.35 659.35 211.5 659.35 210.7 659.3 209.9 659.3 210.75 657.45 211.6 655.65 212.5 653.85 213.4 652.0 213.9 651.1 214.35 650.15 214.7 649.25 215.05 648.3 215.3 647.65 215.55 647.05 215.8 646.4 216.0 645.8 216.2 645.15 216.45 644.55 216.7 643.95 216.9 643.35 217.5 641.95 218.05 640.55 218.55 639.2 218.95 637.8 219.85 634.7 220.65 631.6 221.35 628.55 221.95 625.55 222.5 622.95 Q222.75 621.7 223.15 620.4 L224.0 617.85 225.0 615.3 226.05 612.95 227.05 610.6 228.0 608.3 229.0 606.0 229.45 604.7 229.9 603.45 230.35 602.15 230.8 600.9 331.65 600.6 331.1 600.9 339.0 600.75 346.9 600.6 354.85 600.35 362.8 600.05 365.6 599.95 368.4 599.95 371.2 599.95 374.05 600.0 374.6 600.0" fill="#ffffcb" fill-rule="evenodd" stroke="none"/>
    <path d="M376.55 602.65 L375.9 605.15 375.2 607.5 374.4 609.75 374.3 610.05 374.2 610.4 374.15 610.7 374.15 611.0 373.8 612.8 373.35 614.55 372.7 616.3 371.9 618.0 371.25 619.2 370.75 620.3 370.3 621.35 369.95 622.35 369.3 624.35 369.0 625.25 368.7 626.2 368.4 627.1 368.15 628.05 367.05 631.65 365.9 635.15 364.7 638.55 363.45 641.9 362.75 643.9 362.1 645.85 361.6 647.7 361.25 649.55 Q361.0 650.3 360.9 651.0 L360.7 652.45 360.65 653.9 360.6 655.3 360.55 655.8 360.45 656.3 360.35 656.8 360.15 657.35 359.9 657.95 359.65 658.6 359.4 659.2 359.05 659.85 358.9 660.05 358.65 660.15 358.3 660.25 357.95 660.3 348.7 660.25 339.45 660.1 330.25 659.95 321.15 659.8 308.45 659.55 295.75 659.35 283.1 659.25 270.5 659.25 264.5 659.3 258.9 659.35 253.55 659.45 248.45 659.6 230.05 659.95 225.35 660.0 220.95 660.0 216.85 659.95 213.0 659.85 212.15 659.85 211.3 659.85 210.5 659.8 209.65 659.8 209.3 659.75 209.05 659.6 208.9 659.45 208.95 659.25 209.7 657.5 210.55 655.7 211.5 653.8 212.45 651.95 212.9 651.1 213.35 650.2 213.7 649.3 214.1 648.25 214.35 647.65 214.6 647.0 214.8 646.4 215.0 645.75 215.1 645.45 215.25 645.15 215.35 644.85 215.45 644.55 215.6 644.25 215.7 643.95 215.8 643.65 215.95 643.3 216.55 641.8 217.1 640.4 217.6 639.05 218.0 637.8 218.85 634.8 219.65 631.8 220.35 628.75 221.0 625.55 221.5 623.05 222.15 620.5 223.0 617.9 224.05 615.25 224.75 613.7 225.4 612.15 226.05 610.6 226.7 609.1 228.05 605.95 228.5 604.7 228.95 603.4 229.4 602.15 229.8 600.9 229.95 600.7 230.2 600.55 230.55 600.45 230.95 600.4 331.8 600.1 332.05 600.15 332.3 600.2 332.5 600.3 332.6 600.4 339.8 600.25 347.85 600.05 355.5 599.8 362.9 599.55 365.7 599.45 368.5 599.45 371.35 599.45 374.15 599.5 374.5 599.5 374.8 599.5 375.1 599.55 375.35 599.55 375.6 599.55 375.85 599.55 376.05 599.55 376.3 599.55 376.65 599.6 376.95 599.7 377.1 599.85 377.15 600.05 376.55 602.65 M374.7 600.5 L374.45 600.5 374.2 600.5 373.9 600.5 371.05 600.45 368.25 600.4 365.5 600.45 362.7 600.5 355.35 600.8 347.65 601.05 339.6 601.2 331.0 601.4 330.7 601.35 330.45 601.3 330.3 601.2 330.15 601.1 231.6 601.35 231.35 602.15 230.9 603.45 230.45 604.7 229.95 606.0 228.65 609.15 228.0 610.65 227.35 612.2 226.65 613.75 225.95 615.3 224.95 617.9 224.1 620.5 223.45 623.0 222.95 625.5 222.3 628.65 221.6 631.75 220.8 634.8 219.95 637.75 219.55 639.05 219.1 640.4 218.5 641.85 217.85 643.4 217.75 643.65 217.65 643.95 217.55 644.25 217.45 644.6 217.3 644.85 217.2 645.15 217.1 645.45 217.0 645.75 216.75 646.4 216.55 647.05 216.3 647.7 216.05 648.35 215.65 649.35 215.25 650.3 214.85 651.2 214.4 652.05 213.4 653.9 212.5 655.8 211.65 657.6 211.1 658.8 211.7 658.8 212.5 658.8 213.3 658.8 217.2 658.95 221.3 659.0 225.65 659.0 230.3 658.95 248.65 658.55 253.8 658.45 259.15 658.35 264.75 658.3 270.75 658.25 283.4 658.25 296.1 658.35 308.85 658.5 321.55 658.75 330.6 658.95 339.8 659.1 349.0 659.2 357.35 659.25 357.4 659.1 357.65 658.5 357.9 657.9 358.15 657.3 358.35 656.8 358.45 656.35 358.5 655.85 358.55 655.35 358.6 653.95 358.7 652.55 358.9 651.05 359.25 649.55 359.6 647.7 360.15 645.8 360.75 643.85 361.5 641.85 362.75 638.5 363.95 635.15 365.1 631.65 366.15 628.0 366.45 627.1 366.7 626.15 367.0 625.25 367.35 624.3 368.0 622.35 368.35 621.3 368.8 620.25 369.35 619.1 369.95 617.85 370.75 616.2 371.35 614.55 371.85 612.8 372.15 611.05 372.2 610.75 372.25 610.4 372.35 610.1 372.4 609.75 373.2 607.5 373.95 605.15 374.6 602.7 375.1 600.5 374.95 600.5 374.7 600.5 M330.8 600.4 L330.8 600.45 331.0 600.3 330.8 600.4" fill="#fbd672" fill-rule="evenodd" stroke="none"/>
    <path d="M371.45 604.25 L371.25 604.45 371.25 604.5 371.2 604.5 371.15 604.55 371.25 604.55 371.3 604.5 371.4 604.45 371.55 604.4 371.65 604.4 371.25 604.55 370.7 604.75 370.4 604.85 370.1 604.9 369.8 604.95 369.45 604.95 369.15 604.95 368.85 604.9 368.55 604.85 368.25 604.8 367.95 604.65 367.7 604.55 367.5 604.45 367.4 604.3 367.35 604.15 367.35 604.0 367.4 603.85 367.45 603.65 367.7 603.15 367.7 603.25 367.65 603.3 367.65 603.4 367.7 603.35 367.75 603.35 367.75 603.3 368.1 603.15 368.45 603.0 368.8 602.95 369.25 602.9 369.6 602.9 369.95 602.9 370.3 602.95 370.65 603.05 371.0 603.2 371.3 603.35 371.5 603.5 371.55 603.65 371.55 603.85 371.5 604.05 371.45 604.25" fill="#000000" fill-rule="evenodd" stroke="none"/>
    <path d="M372.65 603.6 L372.55 603.85 372.4 604.05 372.0 604.25 371.6 604.4 371.2 604.5 370.75 604.6 370.25 604.6 369.7 604.6 369.2 604.5 368.75 604.4 368.35 604.25 368.0 604.05 367.75 603.85 367.6 603.6 367.65 603.4 367.75 603.15 367.95 602.9 368.25 602.7 368.6 602.5 368.95 602.4 369.35 602.3 369.8 602.3 370.25 602.25 370.7 602.25 371.15 602.35 371.65 602.45 372.0 602.6 372.3 602.75 372.5 602.95 372.6 603.15 372.65 603.4 372.65 603.6" fill="#ffe617" fill-rule="evenodd" stroke="none"/>
    <path d="M237.7 603.7 L237.5 603.85 237.25 604.0 237.0 604.1 236.7 604.25 236.4 604.3 236.1 604.4 235.8 604.45 235.5 604.45 235.2 604.5 234.45 604.45 234.45 604.4 234.55 604.4 234.65 604.4 234.6 604.35 234.45 604.35 234.2 604.2 234.0 604.1 233.85 603.9 233.8 603.7 233.85 603.55 233.9 603.35 234.1 603.15 234.35 602.95 Q234.45 602.8 234.6 602.75 L234.9 602.6 235.25 602.5 235.7 602.4 236.0 602.35 236.4 602.3 236.75 602.35 237.15 602.4 237.25 602.4 237.2 602.35 237.65 602.65 237.8 602.75 237.9 602.9 237.95 603.05 237.9 603.2 237.9 603.35 237.85 603.5 237.7 603.7 M237.2 602.3 L237.15 602.3 237.1 602.25 237.2 602.3" fill="#000000" fill-rule="evenodd" stroke="none"/>
    <path d="M238.75 602.05 L239.05 602.2 239.25 602.4 239.4 602.6 239.35 602.85 239.25 603.1 239.05 603.4 238.75 603.65 238.4 603.85 238.0 604.05 237.5 604.2 237.0 604.3 236.55 604.4 236.1 604.4 235.65 604.35 235.2 604.2 234.9 604.1 234.7 603.95 234.55 603.75 234.45 603.55 234.5 603.3 234.6 603.05 234.8 602.8 235.05 602.55 235.45 602.35 235.85 602.2 236.25 602.1 236.7 602.0 237.1 601.9 237.55 601.85 237.95 601.85 238.35 601.95 238.75 602.05" fill="#ffe617" fill-rule="evenodd" stroke="none"/>
    <path d="M220.35 656.15 L220.35 656.55 220.1 656.9 219.75 657.2 219.3 657.45 218.7 657.6 217.95 657.75 217.95 657.7 217.85 657.7 217.75 657.7 217.4 657.65 217.1 657.55 216.8 657.45 216.6 657.3 216.45 657.15 216.3 656.95 216.25 656.75 216.3 656.5 216.45 656.3 216.65 656.1 216.85 655.9 217.1 655.75 217.5 655.6 217.85 655.5 218.25 655.4 218.65 655.4 218.8 655.4 218.7 655.35 218.65 655.3 219.5 655.45 219.95 655.65 220.25 655.9 220.35 656.15" fill="#000000" fill-rule="evenodd" stroke="none"/>
    <path d="M221.2 655.3 L221.45 655.5 221.65 655.75 221.7 656.0 221.7 656.3 221.45 656.6 221.2 656.85 220.85 657.1 220.45 657.3 220.05 657.45 219.65 657.55 219.15 657.6 218.65 657.6 218.2 657.55 217.8 657.5 217.55 657.35 217.3 657.2 217.1 657.0 216.95 656.75 216.9 656.55 216.95 656.25 217.1 656.0 217.35 655.75 217.6 655.5 217.95 655.3 218.35 655.15 218.8 655.05 219.2 655.0 219.65 654.95 220.15 654.95 220.55 655.05 220.95 655.15 221.2 655.3" fill="#ffe617" fill-rule="evenodd" stroke="none"/>
    <path d="M355.2 657.3 L355.0 657.5 354.65 657.7 354.3 657.85 353.95 658.0 353.55 658.1 353.15 658.15 352.8 658.15 352.4 658.15 352.05 658.05 351.95 658.05 351.9 658.0 351.85 658.0 351.9 658.1 351.95 658.15 351.95 658.2 352.0 658.25 351.4 657.8 351.25 657.7 351.15 657.55 351.15 657.4 351.2 657.2 351.2 657.05 351.25 656.85 351.4 656.7 351.55 656.55 351.85 656.4 352.1 656.25 352.35 656.1 352.6 656.0 352.95 655.95 353.3 655.9 353.6 655.9 353.95 655.9 354.5 655.95 354.55 655.95 354.55 656.0 354.6 656.0 354.9 656.15 355.1 656.3 355.25 656.5 355.3 656.7 355.35 656.9 355.3 657.1 355.2 657.3" fill="#000000" fill-rule="evenodd" stroke="none"/>
    <path d="M355.85 656.1 L356.15 656.3 356.4 656.45 356.55 656.65 356.65 656.9 356.65 657.1 356.5 657.35 356.3 657.6 356.0 657.85 355.7 658.1 355.3 658.25 354.85 658.4 354.4 658.55 354.0 658.6 353.55 658.65 353.15 658.6 352.7 658.5 352.3 658.4 352.0 658.25 351.75 658.05 351.6 657.8 351.6 657.55 351.7 657.3 351.9 657.0 352.2 656.7 352.6 656.5 353.0 656.3 353.45 656.15 353.95 656.05 354.45 655.95 354.95 655.95 355.45 656.0 355.85 656.1" fill="#ffe617" fill-rule="evenodd" stroke="none"/>
  </g>
</svg>
