<?xml version="1.0" encoding="UTF-8" standalone="no"?>
<svg xmlns:xlink="http://www.w3.org/1999/xlink" height="121.45px" width="150.9px" xmlns="http://www.w3.org/2000/svg">
  <g transform="matrix(1.0, 0.0, 0.0, 1.0, -466.2, -8.9)">
    <path d="M614.75 21.6 L615.0 26.35 615.2 31.1 615.4 35.9 615.65 40.7 615.8 45.95 615.8 51.15 615.6 56.35 615.25 61.55 614.85 67.7 614.55 73.85 614.3 80.05 614.2 86.25 614.15 89.05 614.15 91.85 614.25 94.65 614.4 97.4 614.4 98.6 614.45 99.8 614.45 101.05 614.5 102.25 614.5 103.5 614.5 104.75 614.5 106.0 614.6 107.25 614.6 109.1 614.65 110.9 614.8 112.75 614.95 114.6 615.3 118.2 615.6 121.75 615.85 125.35 616.05 128.95 615.25 129.0 614.45 129.05 613.6 129.05 612.8 129.05 608.55 129.25 604.25 129.35 600.0 129.3 595.75 129.2 591.2 129.0 586.65 128.8 582.05 128.55 577.55 128.35 572.05 128.05 566.6 127.85 561.15 127.7 555.7 127.55 543.2 127.55 530.65 127.65 518.1 127.9 505.5 128.3 496.5 128.65 487.45 128.85 478.4 129.05 469.45 129.1 469.3 127.9 469.2 126.7 469.1 125.55 469.05 124.35 469.0 123.3 469.0 122.3 469.05 121.35 469.15 120.45 469.5 117.6 469.75 114.8 469.95 112.0 470.0 109.2 470.1 105.4 470.1 101.65 470.0 97.85 469.8 94.1 469.45 87.25 469.15 80.35 468.95 73.5 468.85 66.7 468.8 63.85 468.75 61.05 468.65 58.2 468.55 55.35 468.45 53.15 468.25 50.95 468.05 48.7 467.75 46.45 467.4 43.0 467.25 39.5 467.25 36.0 Q467.25 34.25 467.4 32.5 L467.45 31.9 467.45 31.25 467.45 30.6 467.45 29.9 467.25 25.0 467.15 20.05 467.15 15.1 467.3 10.15 467.8 10.15 468.3 10.1 468.85 10.1 469.45 10.05 472.3 9.95 475.1 9.9 477.9 9.95 480.7 10.05 488.6 10.6 496.5 11.05 504.45 11.4 512.4 11.65 511.9 11.05 614.65 11.05 614.7 13.7 614.7 16.35 614.7 18.95 614.75 21.6" fill="#ffffcb" fill-rule="evenodd" stroke="none"/>
    <path d="M615.7 11.05 L615.7 13.65 615.7 16.3 615.75 18.95 615.8 21.55 616.05 28.0 616.2 31.1 616.35 34.25 616.5 37.45 616.7 40.6 616.85 46.05 616.8 51.35 616.65 56.55 616.3 61.65 615.85 68.1 615.55 74.3 615.3 80.35 615.2 86.3 615.15 88.85 615.2 91.5 615.25 94.35 615.4 97.35 615.4 98.0 615.4 98.6 615.45 99.2 615.45 99.8 615.45 100.4 615.5 101.0 615.5 101.6 615.5 102.25 615.5 103.5 615.5 104.7 615.55 105.95 615.6 107.2 615.6 109.2 615.7 111.1 615.8 112.85 616.0 114.45 616.35 118.2 616.6 121.9 616.85 125.45 617.1 128.9 617.05 129.25 616.85 129.6 616.55 129.85 616.2 129.95 615.35 130.0 614.5 130.05 613.65 130.05 612.8 130.05 608.9 130.25 604.8 130.35 600.4 130.3 595.75 130.2 577.5 129.35 572.45 129.05 567.2 128.85 561.65 128.7 555.7 128.55 543.25 128.55 530.7 128.65 518.1 128.9 505.55 129.3 496.6 129.65 487.6 129.85 478.5 130.05 469.45 130.1 469.1 130.05 468.8 129.85 468.6 129.6 468.5 129.25 468.35 128.0 468.25 126.8 468.15 125.6 468.1 124.4 468.05 123.35 468.05 122.35 468.1 121.35 468.2 120.35 468.5 117.65 468.8 114.9 469.0 112.05 469.05 109.15 469.15 105.6 469.15 101.9 469.05 98.1 468.85 94.2 468.5 87.6 468.2 80.9 468.0 73.95 467.9 66.7 467.9 64.85 467.85 63.05 467.8 61.2 467.7 59.3 467.6 55.35 467.5 53.35 467.35 51.25 467.1 49.0 466.85 46.6 Q466.6 44.9 466.5 43.2 L466.3 39.7 466.3 36.1 Q466.3 34.3 466.45 32.45 L466.5 31.85 466.5 31.2 466.5 30.55 466.5 29.9 466.3 25.4 466.2 20.6 466.2 15.55 466.35 10.15 466.4 9.75 466.6 9.45 Q466.75 9.3 466.95 9.25 L467.3 9.15 467.55 9.15 467.75 9.15 468.0 9.15 468.25 9.15 468.55 9.1 468.85 9.1 469.15 9.05 469.45 9.05 472.3 8.95 475.15 8.9 477.95 8.95 480.75 9.05 488.1 9.6 495.75 10.0 503.8 10.4 511.05 10.65 511.05 10.6 511.2 10.4 511.4 10.2 511.65 10.1 511.9 10.05 614.7 10.05 615.1 10.15 615.4 10.35 615.6 10.65 615.7 11.05 M613.7 13.7 L613.7 12.05 513.35 12.05 513.3 12.1 513.15 12.3 512.9 12.5 512.65 12.6 512.4 12.65 503.75 12.35 495.65 12.0 488.0 11.55 480.65 11.05 477.9 10.9 475.1 10.9 472.3 10.95 469.45 11.05 469.2 11.05 468.9 11.1 468.65 11.1 468.4 11.1 468.3 11.1 468.15 15.55 468.15 20.6 468.25 25.35 468.5 29.9 468.5 30.6 468.45 31.3 468.45 31.95 468.4 32.55 468.25 36.15 468.25 39.6 468.45 43.0 468.75 46.35 469.05 48.8 469.3 51.1 469.45 53.25 469.55 55.3 469.7 59.25 469.75 61.15 469.8 63.0 469.85 64.85 469.85 66.7 469.95 73.9 470.15 80.8 470.45 87.5 470.85 94.05 471.0 98.0 471.1 101.9 471.1 105.6 471.0 109.2 470.95 112.15 470.75 115.0 470.45 117.8 470.15 120.5 470.05 121.5 470.0 122.4 470.0 123.35 470.05 124.25 470.1 125.45 470.2 126.65 470.3 127.8 470.35 128.1 478.5 128.05 487.55 127.85 496.55 127.65 505.5 127.35 518.05 126.9 530.65 126.65 543.25 126.55 555.75 126.55 561.7 126.7 567.25 126.85 572.5 127.05 577.6 127.35 595.8 128.2 600.4 128.3 604.75 128.35 608.9 128.25 612.8 128.05 613.65 128.05 614.45 128.0 615.05 128.0 614.9 125.6 614.65 122.05 614.35 118.4 614.0 114.7 613.85 113.0 613.7 111.2 613.65 109.3 613.6 107.3 613.55 106.05 613.5 104.75 613.5 103.5 613.5 102.25 613.5 101.65 613.5 101.05 613.5 100.45 613.45 99.85 613.45 99.25 613.45 98.65 613.4 98.05 613.4 97.45 613.3 94.4 613.2 91.55 613.2 88.85 613.2 86.25 613.35 80.3 613.55 74.2 613.9 67.95 614.3 61.5 614.65 56.45 614.85 51.35 614.85 46.1 614.7 40.75 614.5 37.55 614.35 34.35 614.2 31.2 614.1 28.1 613.8 21.65 613.75 19.0 613.7 16.35 613.7 13.7" fill="#fbd672" fill-rule="evenodd" stroke="none"/>
    <path d="M474.9 16.65 L474.9 16.55 475.0 17.55 475.05 17.9 475.05 18.2 475.0 18.5 474.9 18.85 474.75 19.1 474.55 19.35 474.25 19.6 473.95 19.8 473.6 19.95 473.3 20.1 472.95 20.2 472.65 20.25 472.3 20.15 472.05 20.05 471.75 19.95 471.5 19.85 470.6 19.05 470.75 19.1 470.85 19.2 470.9 19.25 471.0 19.35 471.1 19.35 471.05 19.3 471.0 19.25 471.0 19.15 470.9 18.75 470.85 18.35 470.85 17.95 470.9 17.55 471.0 17.2 471.25 16.9 471.55 16.65 471.95 16.35 472.35 16.15 472.7 16.05 473.05 16.0 473.45 16.05 473.85 16.1 474.2 16.25 474.5 16.5 474.8 16.85 474.8 16.9 474.85 16.95 474.9 16.95 474.9 16.85 474.9 16.75 474.9 16.65" fill="#000000" fill-rule="evenodd" stroke="none"/>
    <path d="M472.65 14.7 L473.1 14.8 473.55 14.85 473.95 15.0 474.25 15.25 474.55 15.55 474.8 16.05 474.95 16.5 475.0 17.0 474.95 17.45 474.75 17.9 474.45 18.35 474.05 18.75 473.55 19.05 Q473.35 19.2 473.1 19.3 L472.6 19.45 472.05 19.5 471.5 19.45 471.1 19.35 470.7 19.1 470.35 18.8 470.05 18.4 469.95 17.95 469.9 17.5 469.95 17.05 470.05 16.6 470.25 16.15 470.5 15.75 470.8 15.4 471.2 15.1 471.7 14.9 472.2 14.75 472.65 14.7" fill="#ffe617" fill-rule="evenodd" stroke="none"/>
    <path d="M609.1 14.2 L609.55 14.35 609.85 14.6 610.1 14.9 610.3 15.3 610.5 15.75 610.6 16.15 610.65 16.55 610.6 16.9 610.5 17.3 610.25 17.65 610.0 17.95 609.7 18.2 609.6 18.2 609.55 18.25 609.5 18.3 609.6 18.3 609.7 18.4 609.75 18.4 608.9 18.5 608.6 18.5 608.3 18.45 608.05 18.3 607.75 18.1 607.45 18.0 607.2 17.8 606.95 17.5 606.75 17.2 606.6 16.85 606.55 16.55 606.5 16.2 606.55 15.9 606.55 15.55 606.65 15.25 606.85 14.95 607.05 14.7 607.55 14.15 607.55 14.2 607.65 14.2 608.0 14.1 608.4 14.05 608.8 14.1 609.1 14.2" fill="#000000" fill-rule="evenodd" stroke="none"/>
    <path d="M607.85 13.2 L608.25 13.4 608.65 13.55 609.05 13.85 609.4 14.15 609.7 14.6 609.9 15.1 610.0 15.6 610.05 16.1 610.0 16.6 609.85 17.0 609.65 17.4 609.35 17.75 609.0 18.0 608.5 18.25 608.05 18.35 607.6 18.35 607.15 18.2 606.65 18.0 606.2 17.7 605.85 17.3 605.55 16.8 605.35 16.25 605.2 15.75 605.2 15.2 605.25 14.7 605.5 14.25 605.75 13.9 606.1 13.55 606.55 13.3 Q606.75 13.15 607.0 13.15 L607.4 13.1 607.85 13.2" fill="#ffe617" fill-rule="evenodd" stroke="none"/>
    <path d="M610.6 123.5 L610.55 123.95 610.45 124.35 610.25 124.7 610.0 125.0 609.75 125.3 609.45 125.55 609.1 125.7 608.75 125.8 608.65 125.8 608.55 125.8 608.55 125.85 607.85 125.6 607.3 125.3 606.9 124.85 606.65 124.25 606.55 123.5 606.6 122.8 606.85 122.2 607.2 121.75 607.75 121.4 608.7 121.05 608.65 121.1 608.55 121.15 608.45 121.3 608.55 121.3 608.65 121.3 609.0 121.35 609.35 121.45 609.7 121.7 610.0 122.0 610.25 122.35 610.4 122.7 610.5 123.1 610.6 123.5" fill="#000000" fill-rule="evenodd" stroke="none"/>
    <path d="M608.15 120.45 L608.55 120.6 608.95 120.85 609.3 121.1 609.6 121.5 609.8 122.0 609.9 122.5 610.0 123.0 609.95 123.5 609.8 124.0 609.6 124.45 609.3 124.8 609.05 125.15 608.7 125.4 608.3 125.55 607.85 125.6 607.35 125.65 606.9 125.55 606.5 125.35 606.15 125.0 605.8 124.6 605.55 124.15 605.35 123.65 605.25 123.0 605.3 122.5 605.45 121.95 605.7 121.5 606.05 121.1 606.4 120.8 606.8 120.55 607.25 120.45 607.75 120.4 608.15 120.45" fill="#ffe617" fill-rule="evenodd" stroke="none"/>
    <path d="M476.25 122.3 L476.45 122.6 476.7 122.9 476.8 123.2 476.9 123.55 476.9 123.85 476.85 124.2 476.85 124.55 476.8 124.85 476.65 125.15 476.5 125.4 475.85 126.2 475.85 126.1 475.9 126.0 475.95 125.9 476.0 125.8 475.85 125.8 475.8 125.9 475.45 126.0 475.05 126.05 474.7 126.0 474.35 125.9 474.0 125.7 473.65 125.45 473.35 125.15 473.05 124.8 472.95 124.35 472.85 123.95 472.85 123.55 472.95 123.2 473.05 122.8 473.25 122.45 473.5 122.15 473.85 121.9 473.85 121.85 473.9 121.8 473.95 121.8 473.9 121.8 474.5 121.7 474.85 121.65 475.15 121.7 475.5 121.75 475.8 121.9 476.0 122.1 476.25 122.3" fill="#000000" fill-rule="evenodd" stroke="none"/>
    <path d="M474.4 121.95 L474.9 122.1 475.3 122.4 475.7 122.8 476.0 123.25 476.2 123.85 476.3 124.35 476.35 124.85 476.3 125.35 476.05 125.85 475.8 126.25 475.45 126.55 475.0 126.75 474.55 126.9 474.15 127.0 473.75 126.9 473.35 126.75 472.95 126.55 472.55 126.25 472.25 125.9 472.0 125.45 471.75 124.95 471.6 124.45 471.55 124.0 471.6 123.55 471.75 123.1 471.95 122.75 472.25 122.4 472.55 122.05 473.0 121.85 473.5 121.75 473.95 121.8 474.4 121.95" fill="#ffe617" fill-rule="evenodd" stroke="none"/>
  </g>
</svg>
