<?xml version="1.0" encoding="UTF-8" standalone="no"?>
<svg xmlns:xlink="http://www.w3.org/1999/xlink" height="105.05px" width="161.0px" xmlns="http://www.w3.org/2000/svg">
  <g transform="matrix(1.0, 0.0, 0.0, 1.0, -482.75, -344.65)">
    <path d="M633.2 355.85 L633.8 360.0 634.35 364.15 634.95 368.35 635.6 372.5 636.15 377.1 636.55 381.65 636.75 386.15 636.8 390.7 636.85 395.95 637.0 401.3 637.25 406.65 637.6 412.0 637.8 414.4 638.05 416.8 638.3 419.2 638.65 421.6 638.75 422.65 638.9 423.65 639.0 424.7 639.15 425.75 639.25 426.8 639.35 427.9 639.45 428.95 639.6 430.05 639.75 431.6 640.0 433.15 640.25 434.75 640.55 436.3 641.15 439.35 641.7 442.45 642.25 445.5 642.75 448.55 641.95 448.6 641.1 448.6 640.3 448.6 639.5 448.6 635.3 448.8 631.05 448.9 626.8 448.85 622.6 448.75 618.1 448.6 613.55 448.4 609.0 448.2 604.45 448.0 599.05 447.75 593.6 447.6 588.2 447.45 582.75 447.35 570.35 447.35 557.9 447.4 545.5 447.65 533.05 448.0 524.15 448.25 515.2 448.45 506.25 448.6 497.35 448.65 497.1 447.65 496.9 446.6 496.7 445.6 496.5 444.6 496.35 443.7 496.3 442.85 496.25 442.05 496.2 441.25 496.3 438.85 496.3 436.45 496.25 434.05 496.0 431.65 495.75 428.4 495.4 425.2 494.95 421.95 494.4 418.75 493.35 412.8 492.4 406.9 491.55 401.0 490.8 395.1 490.45 392.65 490.1 390.2 489.75 387.75 489.4 385.25 489.05 383.35 488.7 381.4 488.25 379.45 487.75 377.5 487.05 374.5 486.55 371.45 486.2 368.4 486.0 365.35 486.0 364.8 485.95 364.25 485.9 363.65 485.85 363.1 485.1 358.75 484.55 354.45 484.1 350.1 483.7 345.8 484.2 345.75 484.75 345.75 485.3 345.7 485.85 345.7 488.7 345.6 491.55 345.55 494.4 345.6 497.2 345.65 505.25 346.2 513.25 346.6 521.25 346.9 529.3 347.1 528.75 346.55 632.3 346.6 632.5 348.9 632.7 351.25 632.95 353.55 633.2 355.85" fill="#ffffcb" fill-rule="evenodd" stroke="none"/>
    <path d="M631.55 348.9 L631.4 347.45 530.3 347.4 530.25 347.45 530.1 347.65 529.9 347.8 529.65 347.9 529.4 347.95 520.65 347.7 512.45 347.4 504.75 347.0 497.3 346.5 494.5 346.45 491.7 346.4 488.85 346.45 486.0 346.55 485.7 346.55 485.45 346.55 485.2 346.6 484.9 346.6 484.8 346.6 485.15 350.5 485.65 354.9 486.2 359.1 486.85 363.05 486.9 363.65 487.0 364.25 487.0 364.85 487.0 365.4 487.2 368.5 487.55 371.55 488.1 374.5 488.75 377.4 489.25 379.5 489.75 381.5 490.1 383.4 490.4 385.2 490.9 388.6 491.15 390.25 491.4 391.85 491.6 393.45 491.8 395.05 492.6 401.25 493.5 407.25 494.4 413.05 495.4 418.65 495.95 422.05 496.45 425.35 496.8 428.55 497.05 431.6 497.25 434.15 497.3 436.6 497.3 439.0 497.25 441.3 497.25 442.15 497.3 442.9 497.35 443.7 497.5 444.5 497.7 445.5 497.9 446.5 498.1 447.55 498.15 447.8 506.25 447.7 515.2 447.6 524.1 447.4 532.95 447.1 545.4 446.75 557.85 446.55 570.3 446.45 582.75 446.5 588.65 446.6 594.15 446.75 599.4 446.9 604.5 447.15 622.6 447.85 627.2 448.0 631.5 448.0 635.6 447.9 639.45 447.75 640.25 447.75 641.05 447.75 641.65 447.75 641.35 445.7 640.8 442.65 640.25 439.55 639.65 436.4 639.35 434.95 639.05 433.4 638.85 431.75 638.65 430.05 638.5 428.95 638.4 427.85 638.3 426.8 638.2 425.7 638.15 425.2 638.1 424.7 638.0 424.15 637.95 423.65 637.9 423.15 637.85 422.65 637.75 422.1 637.7 421.6 637.35 419.0 637.05 416.55 636.8 414.2 636.65 412.0 636.3 406.85 636.05 401.6 635.9 396.2 635.85 390.6 635.8 386.2 635.6 381.75 635.2 377.25 634.65 372.55 634.2 369.75 633.8 367.0 633.4 364.25 633.05 361.5 632.25 355.9 634.25 355.8 635.0 361.45 635.4 364.15 635.8 366.9 636.2 369.65 636.6 372.45 637.2 377.2 637.6 381.8 637.8 386.3 637.85 390.75 637.9 396.3 638.05 401.65 638.3 406.9 638.65 412.0 638.8 414.2 639.0 416.5 639.3 418.95 639.7 421.5 639.75 422.05 639.8 422.6 639.85 423.1 639.9 423.6 640.0 424.15 640.05 424.65 640.1 425.2 640.15 425.7 640.25 426.8 640.35 427.85 640.5 428.9 640.65 429.95 640.8 431.7 641.0 433.3 641.3 434.75 641.55 436.15 642.2 439.35 642.75 442.5 643.3 445.55 643.75 448.45 643.75 448.8 643.55 449.1 643.3 449.3 642.95 449.35 642.1 449.4 641.25 449.45 640.45 449.45 639.6 449.45 635.75 449.65 631.65 449.7 627.3 449.7 622.7 449.6 604.55 448.85 599.5 448.6 594.25 448.45 588.75 448.3 582.85 448.2 570.5 448.15 558.05 448.25 545.6 448.45 533.2 448.8 524.35 449.1 515.4 449.3 506.45 449.4 497.5 449.5 497.1 449.45 496.8 449.25 496.55 449.05 496.45 448.75 496.2 447.7 495.95 446.65 495.75 445.65 495.55 444.6 495.45 443.75 495.35 442.9 495.3 442.05 495.3 441.15 495.35 438.85 495.35 436.5 495.3 434.05 495.1 431.6 494.85 428.55 494.5 425.4 494.05 422.1 493.45 418.75 492.45 413.1 491.55 407.3 490.65 401.3 489.85 395.05 489.65 393.45 489.45 391.9 489.2 390.3 488.95 388.65 488.45 385.25 488.15 383.5 487.8 381.65 487.35 379.7 486.8 377.6 486.15 374.65 485.6 371.6 485.25 368.45 485.05 365.3 485.05 364.75 485.0 364.2 484.95 363.65 484.9 363.05 484.25 359.1 483.65 354.9 483.15 350.45 482.75 345.75 482.8 345.4 483.0 345.15 483.25 344.95 483.65 344.9 483.85 344.9 484.1 344.9 484.35 344.85 484.6 344.85 484.85 344.85 485.15 344.8 485.5 344.8 485.8 344.8 488.65 344.7 491.5 344.65 494.35 344.7 497.2 344.75 504.65 345.25 512.4 345.65 520.55 345.95 527.85 346.2 527.85 346.15 527.95 345.95 528.15 345.8 528.4 345.7 528.7 345.65 632.25 345.7 632.65 345.75 633.0 345.95 633.2 346.25 633.3 346.6 633.55 348.85 633.75 351.2 634.0 353.5 634.25 355.8 632.25 355.85 632.0 353.55 631.75 351.2 631.55 348.9" fill="#fbd672" fill-rule="evenodd" stroke="none"/>
    <path d="M492.05 351.5 L492.05 351.35 492.25 352.25 492.3 352.55 492.35 352.85 492.3 353.1 492.25 353.4 492.1 353.65 491.95 353.85 491.7 354.05 491.4 354.25 491.1 354.4 490.75 354.5 490.45 354.55 490.15 354.6 489.8 354.55 489.5 354.45 489.2 354.35 488.9 354.25 488.05 353.65 488.1 353.65 488.2 353.7 488.3 353.75 488.35 353.8 488.4 353.8 488.4 353.75 488.35 353.7 488.35 353.65 488.2 353.3 488.1 353.0 488.1 352.65 488.1 352.25 488.2 351.95 488.4 351.7 488.7 351.45 489.05 351.2 489.4 351.05 489.8 350.95 490.15 350.9 490.5 350.95 490.95 351.0 491.3 351.1 491.65 351.35 491.95 351.65 492.0 351.7 492.05 351.7 492.05 351.75 492.1 351.8 492.1 351.7 492.05 351.65 492.05 351.55 492.05 351.5" fill="#000000" fill-rule="evenodd" stroke="none"/>
    <path d="M490.0 349.8 L490.45 349.85 490.85 350.0 491.2 350.2 491.55 350.5 491.85 350.9 492.05 351.35 492.1 351.75 492.15 352.2 492.0 352.55 491.7 352.95 491.35 353.3 490.9 353.6 490.45 353.8 489.95 353.9 489.4 353.95 488.9 353.95 488.45 353.8 488.05 353.6 487.65 353.35 487.3 353.0 487.15 352.6 487.05 352.2 487.05 351.8 487.1 351.4 487.25 351.0 487.5 350.7 487.8 350.35 488.15 350.1 488.65 349.9 489.1 349.8 489.55 349.75 490.0 349.8" fill="#ffe617" fill-rule="evenodd" stroke="none"/>
    <path d="M628.7 351.75 L628.6 352.1 628.4 352.4 628.15 352.65 627.9 352.9 627.75 352.9 627.7 352.95 627.75 352.95 627.8 352.95 627.9 353.05 627.1 353.15 626.8 353.15 626.5 353.05 626.2 352.95 625.9 352.8 625.6 352.7 625.35 352.5 625.05 352.25 624.8 352.0 624.65 351.7 624.55 351.4 624.5 351.15 624.5 350.85 624.55 350.55 624.6 350.25 624.75 350.0 624.9 349.8 625.5 349.2 625.45 349.25 625.4 349.3 625.4 349.35 625.35 349.4 625.4 349.4 625.45 349.35 625.5 349.35 625.85 349.25 626.25 349.25 626.65 349.25 627.0 349.35 627.4 349.5 627.75 349.7 628.05 350.0 628.25 350.35 628.5 350.7 628.65 351.05 628.7 351.4 628.7 351.75" fill="#000000" fill-rule="evenodd" stroke="none"/>
    <path d="M626.0 348.65 L626.45 348.8 626.85 349.05 627.25 349.35 627.6 349.7 627.85 350.15 628.0 350.6 628.05 351.0 628.05 351.45 627.9 351.85 627.75 352.2 627.5 352.45 627.15 352.7 626.7 352.9 626.2 353.0 625.75 353.0 625.3 352.9 624.75 352.7 624.3 352.45 623.9 352.05 623.6 351.65 623.3 351.2 623.15 350.7 623.1 350.25 623.1 349.8 623.3 349.4 623.55 349.1 623.85 348.8 Q624.05 348.65 624.3 348.55 L624.75 348.45 625.15 348.4 625.6 348.5 626.0 348.65" fill="#ffe617" fill-rule="evenodd" stroke="none"/>
    <path d="M636.95 443.9 L636.95 444.25 636.8 444.6 636.65 444.9 636.45 445.2 636.25 445.4 635.95 445.6 635.6 445.75 635.25 445.85 635.2 445.85 635.1 445.85 635.05 445.85 635.1 445.9 634.35 445.7 633.8 445.45 633.35 445.05 633.05 444.55 632.9 443.9 632.95 443.3 633.1 442.8 633.45 442.4 633.95 442.1 634.85 441.8 634.75 441.9 634.6 442.0 634.65 442.0 634.75 442.0 634.8 442.0 635.2 442.05 635.55 442.15 635.9 442.35 636.25 442.6 636.45 442.9 636.65 443.2 636.8 443.55 636.95 443.9" fill="#000000" fill-rule="evenodd" stroke="none"/>
    <path d="M635.45 441.85 L635.75 442.2 635.95 442.6 636.15 443.05 636.3 443.5 636.25 443.9 636.15 444.3 635.95 444.7 635.75 445.0 635.5 445.3 635.2 445.5 634.8 445.65 634.3 445.7 633.8 445.7 633.35 445.65 632.95 445.45 632.6 445.2 632.25 444.85 631.95 444.45 631.7 444.0 631.55 443.45 631.55 443.0 631.7 442.6 631.9 442.2 632.2 441.85 632.5 441.55 632.9 441.4 633.3 441.3 633.8 441.25 634.25 441.3 634.65 441.4 635.05 441.6 635.45 441.85" fill="#ffe617" fill-rule="evenodd" stroke="none"/>
    <path d="M503.75 443.05 L503.95 443.3 504.15 443.6 504.25 443.85 504.3 444.15 504.3 444.4 504.3 444.7 504.25 445.0 504.2 445.25 504.0 445.45 503.5 446.05 503.5 445.95 503.5 445.9 503.55 445.75 503.5 445.75 503.4 445.85 503.05 445.95 502.65 446.0 502.3 445.95 501.9 445.85 501.55 445.7 501.2 445.5 500.9 445.2 500.55 444.9 500.4 444.55 500.3 444.2 500.25 443.85 500.3 443.55 500.4 443.25 500.55 442.95 500.75 442.65 501.05 442.45 501.05 442.4 501.1 442.4 501.15 442.35 501.1 442.35 501.7 442.3 502.05 442.25 502.35 442.25 502.7 442.35 503.0 442.45 503.25 442.6 503.5 442.8 503.75 443.05" fill="#000000" fill-rule="evenodd" stroke="none"/>
    <path d="M501.6 442.55 L502.1 442.65 502.55 442.9 502.95 443.25 503.3 443.65 503.6 444.15 503.75 444.55 503.8 445.0 503.8 445.45 503.6 445.85 503.4 446.2 503.1 446.45 502.65 446.6 502.25 446.75 501.8 446.8 501.4 446.75 501.0 446.6 500.55 446.45 500.15 446.2 499.8 445.85 499.5 445.5 499.25 445.05 499.05 444.65 498.95 444.25 498.95 443.9 499.1 443.5 499.25 443.2 499.5 442.9 499.8 442.6 500.2 442.4 500.7 442.35 501.15 442.4 501.6 442.55" fill="#ffe617" fill-rule="evenodd" stroke="none"/>
  </g>
</svg>
