<?xml version="1.0" encoding="UTF-8" standalone="no"?>
<svg xmlns:xlink="http://www.w3.org/1999/xlink" height="66.55px" width="48.55px" xmlns="http://www.w3.org/2000/svg">
  <g transform="matrix(1.0, 0.0, 0.0, 1.0, 22.6, 33.85)">
    <path d="M-16.35 -29.0 L-16.35 -29.05 Q-16.35 -29.95 -15.7 -30.65 L-14.75 -31.2 -14.55 -31.6 -14.45 -31.9 Q-13.85 -33.05 -12.6 -33.2 L-12.55 -33.2 -11.9 -33.0 -11.2 -32.8 -10.75 -32.4 -10.35 -32.55 -10.15 -32.5 -9.6 -32.35 Q-9.1 -32.9 -8.25 -33.0 L-3.15 -33.15 -2.0 -33.05 Q-1.25 -32.9 -0.75 -32.2 L-1.15 -32.7 Q-0.15 -32.05 -0.1 -30.4 L-0.05 -29.45 4.25 -32.95 Q5.25 -33.85 6.6 -33.85 7.95 -33.9 9.4 -32.7 10.85 -31.55 13.75 -29.75 14.8 -29.15 14.9 -27.95 L14.7 -26.85 14.3 -26.15 Q13.6 -25.25 12.5 -25.2 L12.15 -25.25 12.2 -23.15 12.3 -21.1 12.3 -20.2 Q12.3 -19.35 11.9 -18.75 L11.25 -18.15 9.9 -17.8 Q8.7 -17.8 8.0 -18.6 7.45 -19.2 7.4 -20.15 L7.4 -21.1 7.35 -23.3 7.3 -25.45 7.25 -26.4 Q7.3 -27.35 7.7 -27.8 L6.65 -28.65 5.95 -28.0 Q6.45 -27.55 6.55 -26.35 L6.55 -25.9 6.6 -25.05 6.6 -24.5 6.25 -22.0 Q5.65 -19.9 3.9 -18.35 3.2 -17.6 2.15 -17.55 L1.0 -17.75 0.35 -18.15 -0.25 -18.9 -0.6 -18.5 Q-1.35 -17.7 -2.6 -17.65 L-3.7 -17.65 -5.7 -17.55 -6.8 -17.55 Q-7.85 -17.5 -8.55 -18.05 L-9.05 -17.95 -9.1 -17.95 -9.7 -18.05 -9.85 -17.85 -10.45 -17.45 -11.45 -17.2 -12.5 -17.35 -13.1 -17.7 -13.15 -17.85 -13.75 -17.75 Q-14.55 -17.75 -15.15 -18.1 -16.15 -18.65 -16.2 -19.85 L-16.05 -20.85 -16.05 -20.95 -15.5 -23.0 -15.5 -23.05 Q-16.1 -23.6 -16.15 -24.7 -16.05 -25.75 -15.65 -26.2 L-14.9 -26.75 -15.2 -26.9 -15.35 -27.05 -15.55 -27.25 Q-16.3 -27.95 -16.35 -29.0 M-8.1 -29.55 L-7.4 -29.6 Q-7.45 -28.8 -7.65 -28.35 -7.95 -27.4 -8.6 -26.6 L-8.85 -25.9 -8.5 -25.4 Q-8.3 -25.1 -7.8 -25.15 -7.5 -25.15 -7.25 -25.35 -6.3 -26.2 -5.85 -27.6 -5.5 -28.6 -5.45 -29.65 L-3.7 -29.7 -3.45 -29.4 Q-3.4 -27.65 -3.8 -27.6 L-4.15 -27.6 -4.9 -27.55 -5.45 -27.15 -5.5 -26.55 -5.35 -25.8 -4.6 -25.55 -3.85 -25.5 -3.3 -25.5 -2.3 -25.7 Q-1.8 -25.95 -1.7 -26.7 -1.4 -27.35 -1.45 -30.35 -1.5 -31.2 -1.9 -31.45 -2.05 -31.75 -3.15 -31.7 L-8.2 -31.55 Q-8.95 -31.5 -9.0 -30.6 -8.9 -29.6 -8.1 -29.55 M-9.6 -30.95 L-10.3 -31.1 Q-10.8 -31.05 -11.0 -30.65 L-11.95 -28.55 -12.3 -28.9 -11.55 -30.4 -11.45 -30.95 Q-11.45 -31.4 -11.85 -31.55 L-12.55 -31.75 Q-13.0 -31.7 -13.15 -31.25 L-13.75 -29.85 -14.1 -29.9 -14.75 -29.65 -14.95 -29.0 Q-14.95 -28.55 -14.6 -28.15 L-12.95 -26.85 -13.9 -25.55 -14.0 -25.55 -14.55 -25.3 -14.8 -24.65 -14.5 -23.9 -13.75 -23.7 -12.55 -23.9 -12.55 -22.9 -12.8 -23.25 -13.4 -23.4 Q-14.05 -23.4 -14.15 -22.75 -14.4 -21.2 -14.75 -20.4 L-14.85 -19.85 Q-14.85 -19.45 -14.5 -19.25 L-13.75 -19.1 Q-13.25 -19.1 -13.15 -19.65 L-12.6 -21.5 -12.55 -22.05 -12.45 -19.4 -12.2 -18.7 -11.5 -18.55 Q-11.0 -18.55 -10.8 -18.75 L-10.6 -19.5 -10.75 -24.3 -10.35 -24.45 Q-10.25 -23.85 -9.6 -23.85 -8.85 -23.9 -8.8 -24.5 -8.85 -25.85 -9.4 -26.85 -9.6 -27.35 -10.25 -27.35 L-10.8 -27.05 -9.55 -29.25 Q-9.25 -29.8 -9.25 -30.35 -9.25 -30.75 -9.6 -30.95 M-11.45 -26.05 L-11.35 -25.95 -11.25 -25.9 -11.65 -25.85 -11.45 -26.05 M0.4 -28.1 Q0.05 -27.95 0.0 -27.5 0.0 -26.95 0.3 -26.6 0.7 -26.15 1.25 -26.2 L2.1 -26.5 Q3.65 -27.6 6.2 -30.2 L6.7 -30.35 6.95 -30.2 Q9.35 -28.0 11.2 -27.0 11.95 -26.6 12.45 -26.6 12.95 -26.65 13.25 -27.0 L13.5 -27.95 13.05 -28.6 8.55 -31.65 Q7.45 -32.55 6.65 -32.5 5.8 -32.5 5.15 -31.9 L0.4 -28.1 M-0.7 -25.55 Q-0.1 -24.85 0.0 -23.75 L0.1 -21.45 0.2 -21.55 Q1.1 -22.3 1.45 -23.15 L1.7 -24.5 1.7 -24.65 1.7 -24.9 1.3 -24.8 Q0.2 -24.75 -0.65 -25.55 L-0.7 -25.55 M-1.4 -23.65 Q-1.4 -25.05 -2.8 -25.0 L-7.0 -24.9 Q-8.4 -24.85 -8.4 -23.45 L-8.3 -21.15 -8.8 -23.1 Q-9.05 -23.6 -9.7 -23.6 -10.4 -23.5 -10.4 -22.85 L-10.35 -22.65 -9.95 -19.95 Q-9.8 -19.3 -9.1 -19.25 -8.35 -19.3 -8.25 -19.85 -8.05 -18.85 -6.85 -18.9 L-2.65 -19.0 Q-1.3 -19.05 -1.3 -20.4 L-1.4 -23.65 M3.05 -26.25 L3.1 -24.7 Q3.15 -23.5 2.7 -22.55 2.25 -21.5 1.05 -20.5 L0.85 -19.9 Q0.9 -19.45 1.2 -19.2 1.5 -18.9 2.1 -18.95 2.65 -18.95 2.95 -19.3 4.4 -20.7 4.95 -22.4 L5.2 -24.45 5.15 -26.35 4.95 -27.05 4.05 -27.3 3.3 -27.05 3.05 -26.25 M7.85 -28.0 L7.9 -28.05 8.0 -28.15 7.85 -28.0 M7.25 -29.2 L7.1 -29.1 7.2 -29.15 7.15 -29.15 7.25 -29.2 M8.9 -27.15 Q8.6 -26.85 8.6 -26.35 L8.8 -20.15 Q8.8 -19.8 9.1 -19.5 9.35 -19.15 9.85 -19.2 10.5 -19.2 10.75 -19.55 L10.9 -20.25 10.75 -26.45 10.4 -27.2 9.65 -27.45 8.9 -27.15 M6.45 20.4 L6.45 20.75 8.9 20.1 10.15 19.65 9.85 18.8 10.35 17.45 Q10.55 17.2 10.9 17.05 L11.9 16.85 12.1 16.85 Q12.6 16.25 13.65 16.2 14.6 16.2 15.3 16.95 L15.55 17.35 16.0 18.05 16.25 18.45 16.4 18.95 16.55 19.55 16.05 20.85 15.65 21.05 15.0 21.3 14.6 21.45 14.25 21.4 14.1 21.6 14.05 21.6 14.05 21.65 14.05 21.75 13.8 22.9 Q14.3 22.3 15.15 22.25 L23.75 22.0 Q24.8 22.0 25.55 23.0 25.95 23.65 25.95 24.45 26.0 25.3 25.6 25.9 25.0 27.0 23.85 27.1 L15.3 27.3 Q14.15 27.3 13.5 26.3 13.1 25.65 13.05 24.85 13.0 24.05 13.4 23.35 L12.7 23.85 10.95 24.55 6.6 25.8 6.65 26.6 6.65 27.1 7.45 27.15 12.15 26.6 13.35 26.75 14.15 27.25 Q14.9 27.95 15.0 28.9 15.05 29.8 14.5 30.55 L13.95 31.1 12.95 31.45 7.6 32.05 Q5.05 32.1 3.6 31.15 1.85 30.0 1.7 27.35 L0.65 27.75 -7.9 27.95 -7.7 28.4 -7.4 28.95 -7.25 29.5 -7.2 29.95 Q-7.15 31.05 -7.95 31.8 -8.7 32.45 -9.65 32.45 -10.7 32.4 -11.35 31.6 L-13.6 31.85 -16.45 32.25 -18.85 32.55 -19.85 32.7 Q-21.05 32.85 -21.85 32.1 -22.55 31.4 -22.6 30.4 L-22.6 30.3 Q-22.6 29.5 -22.1 28.8 L-20.9 28.05 -18.25 20.2 -18.25 20.25 Q-17.75 18.4 -15.8 18.35 -14.9 18.4 -14.25 19.0 -13.45 19.65 -13.45 20.7 L-13.45 21.05 -13.5 21.4 Q-13.8 22.75 -15.45 27.2 L-14.75 27.15 -14.05 27.05 -14.25 26.45 -14.4 25.9 -14.4 25.8 Q-14.35 24.8 -13.75 24.15 -13.05 23.45 -12.05 23.4 -10.75 23.3 -10.0 24.35 L-9.8 24.0 Q-9.2 23.0 -8.05 22.9 L-6.7 22.9 -3.75 22.8 -0.8 22.7 0.5 22.65 Q1.1 22.65 1.6 23.0 L1.55 21.35 1.55 20.25 1.75 19.15 2.2 18.5 Q2.9 17.85 3.9 17.8 4.9 17.75 5.5 18.35 6.4 19.0 6.45 20.15 L6.45 20.4 M24.4 23.7 Q24.1 23.4 23.8 23.4 L15.2 23.65 Q14.8 23.65 14.6 24.0 L14.45 24.8 14.65 25.55 15.25 25.95 23.85 25.7 24.4 25.3 24.55 24.45 24.4 23.7 M1.2 25.95 L1.35 25.15 1.15 24.35 Q0.95 24.05 0.5 24.05 L-8.0 24.25 Q-8.45 24.3 -8.6 24.65 L-8.8 25.45 -8.55 26.2 Q-8.35 26.55 -7.95 26.55 L0.6 26.35 1.2 25.95 M-15.85 19.75 Q-16.7 19.7 -16.9 20.6 -17.3 22.25 -19.85 29.2 L-20.3 29.25 Q-20.75 29.3 -21.0 29.6 L-21.25 30.35 -20.9 31.1 Q-20.6 31.4 -20.05 31.3 L-10.75 30.1 -10.6 30.4 Q-10.3 31.05 -9.65 31.05 L-8.9 30.75 Q-8.55 30.45 -8.55 30.0 L-8.65 29.5 -9.7 27.55 -11.0 25.35 Q-11.35 24.75 -11.95 24.8 L-12.7 25.1 Q-13.05 25.4 -13.05 25.85 L-12.85 26.4 -11.8 28.15 -17.45 28.9 -14.85 21.1 -14.85 20.75 Q-14.85 20.3 -15.15 20.1 -15.5 19.75 -15.85 19.75 M-5.95 -23.05 L-3.85 -23.15 Q-3.4 -23.15 -3.4 -22.7 L-3.35 -21.35 Q-3.35 -20.9 -3.75 -20.9 L-5.9 -20.85 Q-6.3 -20.85 -6.35 -21.25 L-6.4 -22.6 Q-6.4 -23.05 -5.95 -23.05 M13.05 18.15 L13.3 18.8 14.0 19.8 14.55 20.1 Q15.15 20.1 15.15 19.55 L15.05 19.0 14.25 17.85 13.7 17.6 Q13.05 17.6 13.05 18.15 M12.5 18.5 Q12.2 18.2 11.95 18.25 11.25 18.25 11.25 18.8 L11.5 19.4 12.2 20.45 Q12.4 20.7 12.8 20.7 L13.2 20.55 13.35 20.15 13.25 19.6 12.5 18.5 M4.65 19.45 Q4.4 19.15 3.9 19.2 3.5 19.2 3.2 19.5 2.9 19.8 2.9 20.3 L3.1 27.15 Q3.2 29.15 4.4 30.0 5.45 30.7 7.6 30.7 L12.7 30.1 13.4 29.7 13.6 29.0 13.25 28.25 Q12.85 27.95 12.3 28.0 L7.5 28.5 5.85 28.35 Q5.3 28.1 5.25 27.1 L5.15 24.7 Q10.6 23.4 12.1 22.65 12.7 22.35 12.7 21.75 L12.4 21.0 Q12.1 20.65 11.7 20.65 L11.1 20.75 5.1 22.5 5.05 20.2 Q5.05 19.7 4.65 19.45" fill="#281433" fill-rule="evenodd" stroke="none"/>
    <path d="M-9.6 -30.95 Q-9.25 -30.75 -9.25 -30.35 -9.25 -29.8 -9.55 -29.25 L-10.8 -27.05 -10.25 -27.35 Q-9.6 -27.35 -9.4 -26.85 -8.85 -25.85 -8.8 -24.5 -8.85 -23.9 -9.6 -23.85 -10.25 -23.85 -10.35 -24.45 L-10.75 -24.3 -10.6 -19.5 -10.8 -18.75 Q-11.0 -18.55 -11.5 -18.55 L-12.2 -18.7 -12.45 -19.4 -12.55 -22.05 -12.6 -21.5 -13.15 -19.65 Q-13.25 -19.1 -13.75 -19.1 L-14.5 -19.25 Q-14.85 -19.45 -14.85 -19.85 L-14.75 -20.4 Q-14.4 -21.2 -14.15 -22.75 -14.05 -23.4 -13.4 -23.4 L-12.8 -23.25 -12.55 -22.9 -12.55 -23.9 -13.75 -23.7 -14.5 -23.9 -14.8 -24.65 -14.55 -25.3 -14.0 -25.55 -13.9 -25.55 -12.95 -26.85 -14.6 -28.15 Q-14.95 -28.55 -14.95 -29.0 L-14.75 -29.65 -14.1 -29.9 -13.75 -29.85 -13.15 -31.25 Q-13.0 -31.7 -12.55 -31.75 L-11.85 -31.55 Q-11.45 -31.4 -11.45 -30.95 L-11.55 -30.4 -12.3 -28.9 -11.95 -28.55 -11.0 -30.65 Q-10.8 -31.05 -10.3 -31.1 L-9.6 -30.95 M-8.1 -29.55 Q-8.9 -29.6 -9.0 -30.6 -8.95 -31.5 -8.2 -31.55 L-3.15 -31.7 Q-2.05 -31.75 -1.9 -31.45 -1.5 -31.2 -1.45 -30.35 -1.4 -27.35 -1.7 -26.7 -1.8 -25.95 -2.3 -25.7 L-3.3 -25.5 -3.85 -25.5 -4.6 -25.55 -5.35 -25.8 -5.5 -26.55 -5.45 -27.15 -4.9 -27.55 -4.15 -27.6 -3.8 -27.6 Q-3.4 -27.65 -3.45 -29.4 L-3.7 -29.7 -5.45 -29.65 Q-5.5 -28.6 -5.85 -27.6 -6.3 -26.2 -7.25 -25.35 -7.5 -25.15 -7.8 -25.15 -8.3 -25.1 -8.5 -25.4 L-8.85 -25.9 -8.6 -26.6 Q-7.95 -27.4 -7.65 -28.35 -7.45 -28.8 -7.4 -29.6 L-8.1 -29.55 M-11.25 -25.9 L-10.75 -26.05 -10.85 -26.4 -10.9 -26.6 -10.8 -26.9 -11.45 -26.05 -11.65 -25.85 -11.25 -25.9 M0.4 -28.1 L5.15 -31.9 Q5.8 -32.5 6.65 -32.5 7.45 -32.55 8.55 -31.65 L13.05 -28.6 13.5 -27.95 13.25 -27.0 Q12.95 -26.65 12.45 -26.6 11.95 -26.6 11.2 -27.0 9.35 -28.0 6.95 -30.2 L6.7 -30.35 6.2 -30.2 Q3.65 -27.6 2.1 -26.5 L1.25 -26.2 Q0.7 -26.15 0.3 -26.6 0.0 -26.95 0.0 -27.5 0.05 -27.95 0.4 -28.1 M3.05 -26.25 L3.3 -27.05 4.05 -27.3 4.95 -27.05 5.15 -26.35 5.2 -24.45 4.95 -22.4 Q4.4 -20.7 2.95 -19.3 2.65 -18.95 2.1 -18.95 1.5 -18.9 1.2 -19.2 0.9 -19.45 0.85 -19.9 L1.05 -20.5 Q2.25 -21.5 2.7 -22.55 3.15 -23.5 3.1 -24.7 L3.05 -26.25 M-1.4 -23.65 L-1.3 -20.4 Q-1.3 -19.05 -2.65 -19.0 L-6.85 -18.9 Q-8.05 -18.85 -8.25 -19.85 -8.35 -19.3 -9.1 -19.25 -9.8 -19.3 -9.95 -19.95 L-10.35 -22.65 -10.4 -22.85 Q-10.4 -23.5 -9.7 -23.6 -9.05 -23.6 -8.8 -23.1 L-8.3 -21.15 -8.4 -23.45 Q-8.4 -24.85 -7.0 -24.9 L-2.8 -25.0 Q-1.4 -25.05 -1.4 -23.65 M8.9 -27.15 L9.65 -27.45 10.4 -27.2 10.75 -26.45 10.9 -20.25 10.75 -19.55 Q10.5 -19.2 9.85 -19.2 9.35 -19.15 9.1 -19.5 8.8 -19.8 8.8 -20.15 L8.6 -26.35 Q8.6 -26.85 8.9 -27.15 M4.65 19.45 Q5.05 19.7 5.05 20.2 L5.1 22.5 11.1 20.75 11.7 20.65 Q12.1 20.65 12.4 21.0 L12.7 21.75 Q12.7 22.35 12.1 22.65 10.6 23.4 5.15 24.7 L5.25 27.1 Q5.3 28.1 5.85 28.35 L7.5 28.5 12.3 28.0 Q12.85 27.95 13.25 28.25 L13.6 29.0 13.4 29.7 12.7 30.1 7.6 30.7 Q5.45 30.7 4.4 30.0 3.2 29.15 3.1 27.15 L2.9 20.3 Q2.9 19.8 3.2 19.5 3.5 19.2 3.9 19.2 4.4 19.15 4.65 19.45 M12.5 18.5 L13.25 19.6 13.35 20.15 13.2 20.55 12.8 20.7 Q12.4 20.7 12.2 20.45 L11.5 19.4 11.25 18.8 Q11.25 18.25 11.95 18.25 12.2 18.2 12.5 18.5 M13.05 18.15 Q13.05 17.6 13.7 17.6 L14.25 17.85 15.05 19.0 15.15 19.55 Q15.15 20.1 14.55 20.1 L14.0 19.8 13.3 18.8 13.05 18.15 M-5.95 -23.05 Q-6.4 -23.05 -6.4 -22.6 L-6.35 -21.25 Q-6.3 -20.85 -5.9 -20.85 L-3.75 -20.9 Q-3.35 -20.9 -3.35 -21.35 L-3.4 -22.7 Q-3.4 -23.15 -3.85 -23.15 L-5.95 -23.05 M-15.85 19.75 Q-15.5 19.75 -15.15 20.1 -14.85 20.3 -14.85 20.75 L-14.85 21.1 -17.45 28.9 -11.8 28.15 -12.85 26.4 -13.05 25.85 Q-13.05 25.4 -12.7 25.1 L-11.95 24.8 Q-11.35 24.75 -11.0 25.35 L-9.7 27.55 -8.65 29.5 -8.55 30.0 Q-8.55 30.45 -8.9 30.75 L-9.65 31.05 Q-10.3 31.05 -10.6 30.4 L-10.75 30.1 -20.05 31.3 Q-20.6 31.4 -20.9 31.1 L-21.25 30.35 -21.0 29.6 Q-20.75 29.3 -20.3 29.25 L-19.85 29.2 Q-17.3 22.25 -16.9 20.6 -16.7 19.7 -15.85 19.75 M1.2 25.95 L0.6 26.35 -7.95 26.55 Q-8.35 26.55 -8.55 26.2 L-8.8 25.45 -8.6 24.65 Q-8.45 24.3 -8.0 24.25 L0.5 24.05 Q0.95 24.05 1.15 24.35 L1.35 25.15 1.2 25.95 M24.4 23.7 L24.55 24.45 24.4 25.3 23.85 25.7 15.25 25.95 14.65 25.55 14.45 24.8 14.6 24.0 Q14.8 23.65 15.2 23.65 L23.8 23.4 Q24.1 23.4 24.4 23.7" fill="#ffffff" fill-rule="evenodd" stroke="none"/>
  </g>
</svg>
