<?xml version="1.0" encoding="UTF-8" standalone="no"?>
<svg xmlns:xlink="http://www.w3.org/1999/xlink" height="53.2px" width="48.7px" xmlns="http://www.w3.org/2000/svg">
  <g transform="matrix(1.0, 0.0, 0.0, 1.0, 24.35, 41.7)">
    <path d="M23.75 -41.1 L23.75 10.9 -23.75 10.9 -23.75 -41.1 23.75 -41.1" fill="#ffffff" fill-rule="evenodd" stroke="none"/>
    <path d="M23.75 -41.1 L23.75 10.9 -23.75 10.9 -23.75 -41.1 23.75 -41.1 Z" fill="none" stroke="#000000" stroke-linecap="round" stroke-linejoin="round" stroke-opacity="0.19215687" stroke-width="1.25"/>
    <path d="M21.3 -31.65 L21.3 -34.2 16.55 -34.2 16.55 -31.65 21.3 -31.65 M21.3 -27.1 L21.3 -29.65 16.55 -29.65 16.55 -27.1 21.3 -27.1 M21.3 -36.2 L21.3 -38.75 16.55 -38.75 16.55 -36.2 21.3 -36.2 M16.55 -0.6 L21.3 -0.6 21.3 -3.15 16.55 -3.15 16.55 -0.6 M16.55 -5.15 L21.3 -5.15 21.3 -7.7 16.55 -7.7 16.55 -5.15 M16.55 -9.7 L21.3 -9.7 21.3 -12.25 16.55 -12.25 16.55 -9.7 M16.55 -18.0 L21.3 -18.0 21.3 -20.55 16.55 -20.55 16.55 -18.0 M16.55 -14.25 L21.3 -14.25 21.3 -16.0 16.55 -16.0 16.55 -14.25 M21.3 -25.1 L16.55 -25.1 16.55 -22.55 21.3 -22.55 21.3 -25.1 M22.3 -39.5 L22.3 9.75 -22.25 9.75 -22.25 -39.5 22.3 -39.5 M16.55 8.5 L21.3 8.5 21.3 5.95 16.55 5.95 16.55 8.5 M16.55 3.95 L21.3 3.95 21.3 1.4 16.55 1.4 16.55 3.95 M-16.5 -38.75 L-21.25 -38.75 -21.25 -36.2 -16.5 -36.2 -16.5 -38.75 M-16.5 -29.65 L-21.25 -29.65 -21.25 -27.1 -16.5 -27.1 -16.5 -29.65 M-16.5 -34.2 L-21.25 -34.2 -21.25 -31.65 -16.5 -31.65 -16.5 -34.2 M-21.25 -20.55 L-21.25 -18.0 -16.5 -18.0 -16.5 -20.55 -21.25 -20.55 M-21.25 -16.0 L-21.25 -14.25 -16.5 -14.25 -16.5 -16.0 -21.25 -16.0 M-21.25 -3.15 L-21.25 -0.6 -16.5 -0.6 -16.5 -3.15 -21.25 -3.15 M-21.25 -7.7 L-21.25 -5.15 -16.5 -5.15 -16.5 -7.7 -21.25 -7.7 M-21.25 -12.25 L-21.25 -9.7 -16.5 -9.7 -16.5 -12.25 -21.25 -12.25 M-16.5 -25.1 L-21.25 -25.1 -21.25 -22.55 -16.5 -22.55 -16.5 -25.1 M-21.25 1.4 L-21.25 3.95 -16.5 3.95 -16.5 1.4 -21.25 1.4 M-21.25 5.95 L-21.25 8.5 -16.5 8.5 -16.5 5.95 -21.25 5.95" fill="#000033" fill-rule="evenodd" stroke="none"/>
  </g>
</svg>
