<?xml version="1.0" encoding="UTF-8" standalone="no"?>
<svg xmlns:xlink="http://www.w3.org/1999/xlink" height="46.75px" width="30.05px" xmlns="http://www.w3.org/2000/svg">
  <g transform="matrix(1.0, 0.0, 0.0, 1.0, 0.0, 0.0)">
    <path d="M30.05 22.75 L0.0 22.75 0.0 0.0 30.05 0.0 30.05 22.75 M18.65 3.55 L18.8 3.3 18.6 3.45 18.65 3.55" fill="#ff0000" fill-rule="evenodd" stroke="none"/>
    <path d="M0.0 26.45 L0.0 26.3 0.1 26.3 0.0 26.45" fill="#ffcc00" fill-rule="evenodd" stroke="none"/>
    <path d="M15.8 46.75 L17.65 46.4 20.45 46.75 15.8 46.75" fill="#159ad6" fill-rule="evenodd" stroke="none"/>
    <path d="M0.0 26.45 L0.1 26.3 0.0 26.3 0.0 24.0 30.05 24.0 30.05 46.75 20.45 46.75 17.65 46.4 15.8 46.75 0.0 46.75 0.0 26.45" fill="#ff0000" fill-rule="evenodd" stroke="none"/>
  </g>
</svg>
