<?xml version="1.0" encoding="UTF-8" standalone="no"?>
<svg xmlns:xlink="http://www.w3.org/1999/xlink" height="25.85px" width="27.75px" xmlns="http://www.w3.org/2000/svg">
  <g transform="matrix(1.0, 0.0, 0.0, 1.0, 13.95, 12.05)">
    <path d="M2.65 -8.85 Q3.45 -8.05 3.45 -6.8 L3.3 -5.8 1.95 -1.35 4.15 -0.65 4.3 -2.75 Q4.35 -3.55 5.05 -4.0 5.75 -4.5 6.7 -4.5 9.15 -4.5 9.15 -2.05 L8.8 0.95 Q11.3 1.95 11.3 3.5 11.3 4.45 10.7 5.3 10.05 6.25 9.1 6.25 8.5 6.25 7.75 5.8 6.2 9.05 4.2 10.7 3.45 11.3 2.5 11.3 1.35 11.3 0.55 10.55 -0.25 9.8 -0.25 8.8 -0.25 8.15 0.45 7.45 2.5 5.5 3.1 4.15 1.8 3.45 0.4 3.05 -1.25 6.0 -2.4 7.2 -4.35 9.15 -7.05 9.15 -9.1 9.15 -10.3 7.8 -11.45 6.55 -11.45 4.9 -11.55 1.35 -8.55 -0.7 -6.55 -2.1 -2.7 -2.1 L-1.75 -5.1 -6.05 -4.65 Q-7.15 -4.6 -7.8 -5.35 -8.35 -6.0 -8.35 -6.95 -8.35 -7.75 -7.8 -8.4 -7.3 -9.0 -6.4 -9.05 L0.7 -9.55 Q1.85 -9.6 2.65 -8.85 M-4.7 2.15 Q-5.9 2.15 -6.95 3.6 L-7.2 4.4 -7.0 4.95 -6.55 5.2 -6.45 5.15 -5.2 3.85 -4.2 2.25 -4.7 2.15" fill="#ff3300" fill-rule="evenodd" stroke="none"/>
    <path d="M2.65 -8.85 Q3.45 -8.05 3.45 -6.8 L3.3 -5.8 1.95 -1.35 4.15 -0.65 4.3 -2.75 Q4.35 -3.55 5.05 -4.0 5.75 -4.5 6.7 -4.5 9.15 -4.5 9.15 -2.05 L8.8 0.95 Q11.3 1.95 11.3 3.5 11.3 4.45 10.7 5.3 10.05 6.25 9.1 6.25 8.5 6.25 7.75 5.8 6.2 9.05 4.2 10.7 3.45 11.3 2.5 11.3 1.35 11.3 0.55 10.55 -0.25 9.8 -0.25 8.8 -0.25 8.15 0.45 7.45 2.5 5.5 3.1 4.15 1.8 3.45 0.4 3.05 -1.25 6.0 -2.4 7.2 -4.35 9.15 -7.05 9.15 -9.1 9.15 -10.3 7.8 -11.45 6.55 -11.45 4.9 -11.55 1.35 -8.55 -0.7 -6.55 -2.1 -2.7 -2.1 L-1.75 -5.1 -6.05 -4.65 Q-7.15 -4.6 -7.8 -5.35 -8.35 -6.0 -8.35 -6.95 -8.35 -7.75 -7.8 -8.4 -7.3 -9.0 -6.4 -9.05 L0.7 -9.55 Q1.85 -9.6 2.65 -8.85 M-4.7 2.15 Q-5.9 2.15 -6.95 3.6 L-7.2 4.4 -7.0 4.95 -6.55 5.2 -6.45 5.15 -5.2 3.85 -4.2 2.25 -4.7 2.15" fill="none" stroke="#ffffff" stroke-linecap="round" stroke-linejoin="round" stroke-width="5.0"/>
    <path d="M3.45 -6.8 L3.3 -5.8 1.95 -1.35 4.15 -0.65 4.3 -2.75 Q4.35 -3.55 5.05 -4.0 5.75 -4.5 6.7 -4.5 9.15 -4.5 9.15 -2.05 L8.8 0.95 Q11.3 1.95 11.3 3.5 11.3 4.45 10.7 5.3 10.05 6.25 9.1 6.25 8.5 6.25 7.75 5.8 6.2 9.05 4.2 10.7 3.45 11.3 2.5 11.3 1.35 11.3 0.55 10.55 -0.25 9.8 -0.25 8.8 -0.25 8.15 0.45 7.45 2.5 5.5 3.1 4.15 1.8 3.45 0.4 3.05 -1.25 6.0 -2.4 7.2 -4.35 9.15 -7.05 9.15 -9.1 9.15 -10.3 7.8 -11.45 6.55 -11.45 4.9 -11.55 1.35 -8.55 -0.7 -6.55 -2.1 -2.7 -2.1 L-1.75 -5.1 -6.05 -4.65 Q-7.15 -4.6 -7.8 -5.35 -8.35 -6.0 -8.35 -6.95 -8.35 -7.75 -7.8 -8.4 -7.3 -9.0 -6.4 -9.05 L0.7 -9.55 Q1.85 -9.6 2.65 -8.85 3.45 -8.05 3.45 -6.8 M-4.7 2.15 Q-5.9 2.15 -6.95 3.6 L-7.2 4.4 -7.0 4.95 -6.55 5.2 -6.45 5.15 -5.2 3.85 -4.2 2.25 -4.7 2.15" fill="#ff3300" fill-rule="evenodd" stroke="none"/>
  </g>
</svg>
