<?xml version="1.0" encoding="UTF-8" standalone="no"?>
<svg xmlns:xlink="http://www.w3.org/1999/xlink" height="24.9px" width="13.5px" xmlns="http://www.w3.org/2000/svg">
  <g transform="matrix(1.0, 0.0, 0.0, 1.0, 1.75, 2.0)">
    <path d="M7.95 -0.7 Q7.95 0.2 7.05 0.2 L5.7 0.05 Q5.4 0.0 5.4 -0.85 5.4 -1.8 6.9 -2.0 L7.95 -0.7 M3.3 20.4 Q3.3 22.9 -0.2 22.9 -1.75 22.9 -1.75 21.45 -1.75 20.5 -0.85 19.35 0.15 18.1 1.25 18.1 3.0 18.1 3.3 20.4 M11.75 7.2 Q11.75 8.9 10.7 8.9 8.75 8.9 8.75 7.4 8.75 5.95 10.55 5.95 11.75 5.95 11.75 7.2" fill="#ff0000" fill-rule="evenodd" stroke="none"/>
  </g>
</svg>
