<?xml version="1.0" encoding="UTF-8" standalone="no"?>
<svg xmlns:xlink="http://www.w3.org/1999/xlink" height="27.2px" width="35.05px" xmlns="http://www.w3.org/2000/svg">
  <g transform="matrix(1.0, 0.0, 0.0, 1.0, 1.05, 2.65)">
    <path d="M7.7 -1.55 L8.1 -0.25 Q8.1 0.4 6.55 0.95 4.2 0.95 4.25 -0.85 4.25 -2.65 6.65 -2.65 7.15 -2.65 7.7 -1.55 M20.4 1.6 Q20.4 -0.7 23.8 -0.55 L24.05 0.85 Q24.05 3.6 21.75 3.6 20.7 3.6 20.45 2.65 L20.4 1.6 M27.4 15.95 Q28.8 13.85 31.5 13.85 32.45 13.85 33.25 14.75 34.0 15.6 34.0 16.45 34.0 17.15 33.4 17.95 32.75 18.75 32.75 20.15 32.75 20.95 32.1 21.8 31.1 23.1 29.2 23.1 27.4 23.1 26.7 21.45 L26.35 19.65 Q26.35 17.55 27.4 15.95 M3.3 24.55 Q1.1 24.55 -0.1 23.2 -1.05 22.15 -1.05 21.0 -1.05 16.8 3.6 16.8 4.75 16.8 5.95 18.45 7.05 19.9 7.05 20.65 7.05 24.55 3.3 24.55 M11.45 4.25 Q13.05 4.25 12.95 7.5 12.95 8.35 11.9 9.0 10.8 9.65 9.45 9.65 7.35 9.65 7.35 7.85 7.35 4.25 11.45 4.25" fill="#ff0000" fill-rule="evenodd" stroke="none"/>
  </g>
</svg>
