<?xml version="1.0" encoding="UTF-8" standalone="no"?>
<svg xmlns:xlink="http://www.w3.org/1999/xlink" height="29.55px" width="34.85px" xmlns="http://www.w3.org/2000/svg">
  <g transform="matrix(1.0, 0.0, 0.0, 1.0, 0.55, 3.6)">
    <path d="M26.0 -0.8 Q27.3 0.45 27.3 0.95 27.3 2.1 26.5 3.6 25.5 5.45 24.15 5.45 20.2 5.45 20.2 1.6 20.2 0.4 21.6 -0.8 23.0 -2.0 24.4 -2.0 L26.0 -0.8 M8.4 -2.6 Q9.25 -1.7 9.25 -0.7 9.25 0.05 8.55 1.15 7.75 2.45 6.8 2.45 2.95 2.45 2.95 -0.5 2.95 -3.6 6.15 -3.6 7.4 -3.6 8.4 -2.6 M34.3 17.45 Q34.3 19.4 32.4 22.1 30.25 25.2 27.65 25.2 25.15 25.2 23.65 22.2 22.55 19.95 22.55 17.85 22.55 15.3 24.45 13.65 26.6 11.8 30.55 11.8 34.15 11.8 34.3 17.45 M14.85 8.3 Q14.85 9.95 13.7 11.3 12.25 12.95 9.8 12.95 6.7 12.95 5.6 9.4 5.6 5.15 12.4 5.15 14.55 5.15 14.85 8.3 M17.35 21.45 Q18.45 21.45 18.45 23.45 18.45 25.95 16.1 25.95 15.0 25.95 14.55 25.15 L14.35 24.25 Q14.35 21.45 17.35 21.45 M10.85 21.45 Q10.85 25.0 3.15 25.0 -0.9 25.0 -0.5 21.9 -0.5 15.4 5.3 15.4 8.95 15.4 10.85 21.45" fill="#ff0000" fill-rule="evenodd" stroke="none"/>
  </g>
</svg>
