<?xml version="1.0" encoding="UTF-8" standalone="no"?>
<svg xmlns:xlink="http://www.w3.org/1999/xlink" height="35.1px" width="37.35px" xmlns="http://www.w3.org/2000/svg">
  <g transform="matrix(1.0, 0.0, 0.0, 1.0, 2.7, 8.25)">
    <path d="M13.3 -3.05 Q13.3 -1.2 12.15 1.25 L11.3 2.7 13.7 2.55 Q18.45 2.55 18.8 8.4 18.8 10.5 17.05 12.85 15.1 15.45 12.15 15.8 12.85 17.0 12.95 19.05 12.95 26.85 6.9 26.85 2.55 26.85 -0.1 25.1 -2.7 23.4 -2.7 20.65 -2.7 14.6 6.35 14.2 3.75 12.45 3.75 10.3 3.75 6.5 6.15 4.55 -1.3 4.05 -1.3 -0.9 -1.3 -2.75 1.4 -5.3 4.45 -8.25 7.9 -8.25 L10.5 -7.7 Q12.95 -7.7 13.3 -3.05 M28.95 5.35 Q28.95 6.5 28.1 7.45 L30.45 7.4 Q33.45 7.4 34.65 14.6 34.65 16.65 32.1 19.7 29.25 23.1 26.25 23.1 23.75 23.1 21.4 19.9 19.45 17.25 19.45 16.2 19.45 14.3 23.0 10.75 L24.25 9.5 23.6 9.5 Q21.15 9.5 20.05 6.65 L19.45 3.65 Q19.45 2.5 20.65 1.2 22.05 -0.3 23.8 0.05 28.95 0.95 28.95 5.35" fill="#ff0000" fill-rule="evenodd" stroke="none"/>
  </g>
</svg>
