<?xml version="1.0" encoding="UTF-8" standalone="no"?>
<svg xmlns:xlink="http://www.w3.org/1999/xlink" height="35.0px" width="42.1px" xmlns="http://www.w3.org/2000/svg">
  <g transform="matrix(1.0, 0.0, 0.0, 1.0, 6.85, 6.3)">
    <path d="M15.9 -2.8 Q15.9 -1.2 15.1 0.5 18.25 0.9 19.6 4.5 20.4 6.55 20.45 8.65 L20.3 10.1 Q23.25 7.75 29.45 7.75 34.35 7.75 35.25 17.35 35.25 20.45 33.65 22.85 31.45 26.25 26.75 26.25 17.25 26.25 17.25 18.4 17.25 16.5 17.55 15.0 L17.5 15.05 Q15.4 17.45 12.95 18.4 L13.75 21.4 Q13.75 23.1 11.2 25.75 8.3 28.7 5.4 28.7 -0.55 28.7 -3.95 24.35 -6.85 20.65 -6.85 15.7 -6.85 11.75 -4.65 10.35 -2.9 9.25 1.25 8.95 L1.4 7.5 1.45 7.1 Q-0.05 6.55 -1.5 5.6 -4.65 3.5 -4.65 1.75 -4.65 -0.25 -2.3 -2.7 0.45 -5.5 3.9 -5.5 L7.7 -4.65 Q7.9 -4.65 9.4 -5.45 10.9 -6.3 12.95 -6.3 15.9 -6.3 15.9 -2.8 M33.25 -4.5 Q34.85 -3.25 34.85 -2.1 34.85 0.0 31.7 3.6 28.1 7.7 24.6 7.7 21.6 7.7 19.95 4.6 18.75 2.35 18.75 0.25 18.75 -2.35 21.05 -4.05 23.75 -6.05 28.85 -6.05 31.4 -6.05 33.25 -4.5" fill="#ff0000" fill-rule="evenodd" stroke="none"/>
  </g>
</svg>
