<?xml version="1.0" encoding="UTF-8" standalone="no"?>
<svg xmlns:xlink="http://www.w3.org/1999/xlink" height="56.8px" width="100.0px" xmlns="http://www.w3.org/2000/svg">
  <g transform="matrix(1.0, 0.0, 0.0, 1.0, 70.5, -21.2)">
    <path d="M26.9 75.95 Q1.85 72.95 -21.25 74.0 -18.85 48.5 -19.15 21.7 L29.0 23.6 Q26.3 51.05 26.9 75.95" fill="#ffffcb" fill-rule="evenodd" stroke="none"/>
    <path d="M26.9 75.95 Q1.85 72.95 -21.25 74.0 -18.85 48.5 -19.15 21.7 L29.0 23.6 Q26.3 51.05 26.9 75.95 Z" fill="none" stroke="#fcd57a" stroke-linecap="round" stroke-linejoin="round" stroke-width="1.0"/>
    <path d="M-21.85 77.5 L-70.0 76.45 -68.85 24.1 -20.7 25.15 -21.85 77.5" fill="#ffffcb" fill-rule="evenodd" stroke="none"/>
    <path d="M-21.85 77.5 L-70.0 76.45 -68.85 24.1 -20.7 25.15 -21.85 77.5 Z" fill="none" stroke="#fcd57a" stroke-linecap="round" stroke-linejoin="round" stroke-width="1.0"/>
  </g>
</svg>
