<?xml version="1.0" encoding="UTF-8" standalone="no"?>
<svg xmlns:xlink="http://www.w3.org/1999/xlink" height="53.4px" width="75.7px" xmlns="http://www.w3.org/2000/svg">
  <g transform="matrix(1.0, 0.0, 0.0, 1.0, 41.4, 40.65)">
    <path d="M-23.55 -19.5 L-23.5 -19.8 -23.55 -19.8 -23.55 -19.5 M-26.3 -25.9 L-26.35 -26.3 -26.55 -27.8 -27.65 -27.55 Q-29.6 -27.55 -31.0 -28.95 L-31.65 -29.95 -30.4 -27.15 -29.75 -27.0 -29.3 -26.65 Q-27.45 -26.1 -26.2 -25.35 L-26.3 -25.9 M-31.9 -19.8 L-32.1 -19.0 -31.6 -19.55 -31.9 -19.8 M19.65 -15.45 L19.85 -15.05 20.0 -14.45 20.9 -15.5 20.7 -15.8 20.5 -15.95 19.65 -15.45 M23.45 -15.8 Q22.05 -15.9 21.45 -14.65 22.3 -13.55 23.6 -13.85 24.5 -14.15 24.8 -15.05 24.3 -15.7 23.45 -15.8 M16.4 -13.5 L16.35 -13.45 16.4 -13.45 16.4 -13.5 M17.9 -14.4 L17.1 -13.95 16.55 -13.65 16.5 -13.55 18.15 -14.25 18.05 -14.5 17.9 -14.4 M17.7 -19.85 L17.75 -19.7 17.75 -19.8 17.7 -19.85 M26.05 -20.2 L25.6 -19.8 26.3 -19.05 26.05 -20.2 M25.45 -30.0 L24.75 -29.0 Q23.35 -27.65 21.45 -27.6 L20.25 -27.85 20.0 -26.0 19.95 -25.75 19.8 -25.0 Q21.1 -25.95 23.35 -26.65 L23.9 -27.05 24.1 -27.1 25.45 -30.0 M31.05 -35.1 Q31.9 -33.2 31.85 -31.35 31.8 -29.5 31.35 -28.2 L30.05 -25.45 Q31.5 -24.3 32.65 -22.1 34.15 -19.35 34.3 -15.75 34.4 -12.85 32.4 -11.15 31.8 -10.75 31.05 -10.75 L31.0 -10.75 30.9 -10.7 Q30.4 -10.2 29.65 -10.35 L27.8 -10.4 27.75 -10.4 Q26.55 -10.25 25.8 -11.2 L25.05 -10.95 24.9 -10.9 Q23.95 -8.4 21.0 -7.7 L19.65 -7.9 16.85 -9.35 Q16.0 -9.85 15.85 -10.85 15.15 -11.0 14.35 -11.4 L14.3 -11.45 13.2 -10.05 11.65 -8.35 9.95 -6.9 Q8.2 -5.5 6.2 -4.55 L5.25 -4.15 4.25 -3.7 2.2 -3.05 2.45 -3.15 1.95 -3.0 1.95 -2.95 Q3.0 -2.2 3.05 -0.85 L2.8 0.25 3.4 1.1 4.5 2.3 Q5.75 3.45 6.6 5.25 7.4 6.95 7.4 8.25 L7.4 8.6 7.4 8.55 7.4 9.65 7.4 10.75 Q7.35 11.55 6.8 12.15 6.2 12.7 5.4 12.75 L-11.9 12.75 Q-13.75 12.6 -13.9 10.75 L-13.9 8.55 -13.95 8.25 Q-13.8 6.55 -13.15 5.25 -12.3 3.5 -11.05 2.3 L-9.95 1.1 -9.2 0.15 -9.6 -0.85 Q-9.55 -2.2 -8.45 -2.95 L-8.5 -3.05 -8.5 -3.1 -8.75 -3.15 -8.5 -3.05 -10.25 -3.6 -10.85 -3.8 -11.1 -3.9 -11.65 -4.15 -11.9 -4.25 -12.1 -4.35 -12.6 -4.6 -12.85 -4.7 -14.2 -5.45 -14.5 -5.65 -16.0 -6.7 -16.15 -6.85 -19.0 -9.45 -20.25 -10.95 -20.35 -11.05 -20.55 -11.35 -21.7 -10.95 -21.75 -10.9 -21.85 -10.85 -23.4 -10.05 -24.75 -9.85 Q-26.35 -10.2 -27.4 -10.7 L-28.1 -10.55 -30.85 -10.9 -31.6 -11.2 Q-32.35 -10.25 -33.5 -10.35 L-35.45 -10.3 Q-36.2 -10.15 -36.7 -10.65 L-36.85 -10.75 -38.6 -10.7 Q-39.35 -10.65 -39.95 -11.1 -41.45 -12.3 -41.4 -14.2 -40.95 -17.8 -38.85 -21.35 L-38.5 -22.0 Q-37.4 -24.0 -36.15 -25.15 L-37.55 -28.15 Q-38.05 -29.45 -38.1 -31.3 -38.15 -33.15 -37.25 -35.05 -35.9 -37.7 -32.9 -38.65 -30.25 -40.0 -25.8 -37.2 L-25.15 -37.5 -24.0 -37.9 -22.85 -38.25 -15.8 -39.75 -14.9 -39.9 -14.2 -39.95 -13.05 -40.1 -12.4 -40.2 -11.5 -40.25 -10.55 -40.35 -10.2 -40.4 -8.5 -40.5 -7.8 -40.55 -6.25 -40.6 -5.5 -40.6 -4.3 -40.65 -3.15 -40.65 -1.95 -40.65 -0.8 -40.6 -0.25 -40.6 0.8 -40.55 1.9 -40.5 2.95 -40.45 3.95 -40.4 4.45 -40.35 6.35 -40.2 8.1 -39.95 8.65 -39.9 8.95 -39.85 Q14.5 -39.0 16.9 -38.2 L18.7 -37.6 19.55 -37.25 Q24.0 -40.05 26.65 -38.75 29.65 -37.75 31.05 -35.1" fill="#794b0c" fill-rule="evenodd" stroke="none"/>
    <path d="M-0.7 -4.75 L-0.7 -2.25 Q-0.95 -1.3 1.9 2.4 4.1 4.6 4.75 6.05 5.65 8.6 5.3 8.5 L-11.95 8.5 Q-12.25 8.6 -11.35 6.05 -10.7 4.6 -8.5 2.4 -5.45 -1.7 -5.9 -2.45 L-5.9 -4.75 -0.7 -4.75" fill="#ff9900" fill-rule="evenodd" stroke="none"/>
    <path d="M2.9 4.8 L-0.05 2.2 Q-1.55 0.2 -1.7 -2.0 L-1.7 -4.4 -1.35 -4.75 -0.7 -4.75 -0.7 -2.25 Q-0.95 -1.3 1.85 2.4 4.1 4.6 4.75 6.05 5.65 8.6 5.3 8.5 L4.85 8.5 Q4.35 5.95 2.9 4.8" fill="#b99117" fill-rule="evenodd" stroke="none"/>
    <path d="M-5.6 2.9 Q-7.9 5.1 -7.6 6.2 L-6.95 8.5 -11.95 8.5 Q-12.25 8.6 -11.35 6.05 -10.7 4.6 -8.5 2.4 -5.45 -1.75 -5.9 -2.45 L-5.9 -4.75 -2.9 -4.75 -2.8 -4.45 -3.3 -1.6 Q-3.85 1.0 -5.6 2.9" fill="#aa8515" fill-rule="evenodd" stroke="none"/>
    <path d="M-5.9 -4.65 L-3.95 -4.75 Q-3.8 -2.55 -8.15 3.45 -11.7 7.45 -11.5 8.5 L-11.95 8.5 Q-12.25 8.6 -11.35 6.05 -10.7 4.6 -8.5 2.4 -5.45 -1.75 -5.9 -2.45 L-5.9 -4.65" fill="#ffd915" fill-rule="evenodd" stroke="none"/>
    <path d="M5.35 9.5 L-11.95 9.5 -11.95 8.25 5.35 8.25 5.35 9.5" fill="#5c480b" fill-rule="evenodd" stroke="none"/>
    <path d="M5.35 9.75 L-11.95 9.75 -11.95 8.5 5.35 8.5 5.35 9.75" fill="#ff9900" fill-rule="evenodd" stroke="none"/>
    <path d="M2.55 9.75 Q2.75 9.4 3.6 9.1 4.5 8.75 4.55 8.5 L5.4 8.5 5.4 9.75 2.55 9.75" fill="#b99117" fill-rule="evenodd" stroke="none"/>
    <path d="M-5.9 -2.25 L-5.9 -2.75 -0.7 -2.75 -0.7 -2.3 -5.9 -2.25" fill="#5c480b" fill-rule="evenodd" stroke="none"/>
    <path d="M-0.05 -3.1 Q-0.1 -2.7 -0.55 -2.65 L-6.05 -2.6 Q-6.5 -2.65 -6.55 -3.1 -6.5 -3.55 -6.05 -3.6 L-0.55 -3.6 Q-0.1 -3.55 -0.05 -3.1" fill="#ff9900" fill-rule="evenodd" stroke="none"/>
    <path d="M-5.85 -2.65 L-6.05 -2.65 Q-6.5 -2.65 -6.55 -3.1 -6.5 -3.55 -6.05 -3.6 L-5.9 -3.6 -5.85 -2.65" fill="#b99117" fill-rule="evenodd" stroke="none"/>
    <path d="M1.0 -0.85 Q0.95 -0.25 0.35 -0.2 L-7.0 -0.2 Q-7.6 -0.25 -7.65 -0.85 -7.6 -1.45 -7.0 -1.5 L0.35 -1.5 Q0.95 -1.45 1.0 -0.85" fill="#ff9900" fill-rule="evenodd" stroke="none"/>
    <path d="M0.25 0.15 L0.35 0.25 -6.9 0.25 -6.85 0.2 -6.6 -0.25 0.05 -0.25 0.25 0.15" fill="#5c480b" fill-rule="evenodd" stroke="none"/>
    <path d="M-6.35 -0.7 L-6.3 -1.5 -4.65 -1.5 -4.6 -0.7 -4.6 -0.2 -6.35 -0.2 -6.35 -0.7" fill="#ffd915" fill-rule="evenodd" stroke="none"/>
    <path d="M-6.75 -0.2 L-7.0 -0.2 Q-7.6 -0.25 -7.65 -0.85 -7.6 -1.45 -7.0 -1.5 L-6.8 -1.5 -6.75 -0.2" fill="#b99117" fill-rule="evenodd" stroke="none"/>
    <path d="M-5.9 -3.95 L-5.9 -4.75 -0.7 -4.75 -0.7 -3.95 Q-5.25 -3.75 -5.9 -3.95" fill="#5c480b" fill-rule="evenodd" stroke="none"/>
    <path d="M13.8 -14.35 Q9.1 -6.9 1.65 -5.05 0.05 -4.35 -2.3 -4.35 L-3.2 -4.35 -4.05 -4.35 Q-6.4 -4.35 -8.05 -5.05 -15.5 -6.9 -20.2 -14.35 -24.9 -21.8 -25.05 -34.7 L-3.3 -36.9 18.6 -34.75 Q18.5 -21.85 13.8 -14.35" fill="#f7aa01" fill-rule="evenodd" stroke="none"/>
    <path d="M-0.5 -12.75 Q6.45 -10.75 11.15 -22.8 11.45 -22.6 12.6 -19.0 13.75 -15.4 14.2 -15.05 9.45 -6.95 1.65 -5.0 0.05 -4.35 -2.3 -4.3 L-3.2 -4.35 -4.05 -4.3 Q-6.4 -4.35 -8.05 -5.0 -15.5 -6.85 -20.2 -14.3 -24.9 -21.75 -25.05 -34.65 L-2.55 -36.55 Q-4.4 -35.5 -6.4 -28.85 -7.1 -25.05 -5.7 -19.5 -4.3 -13.95 -0.5 -12.75 M18.6 -34.7 L18.6 -34.25 -0.45 -36.4 18.6 -34.7" fill="#ff9900" fill-rule="evenodd" stroke="none"/>
    <path d="M12.35 -34.5 L17.45 -34.0 Q17.85 -34.1 18.2 -30.0 18.55 -25.9 14.3 -16.75 8.65 -6.8 3.35 -5.75 -1.95 -4.65 -2.35 -5.25 5.5 -6.95 8.6 -13.9 11.7 -20.9 12.1 -27.45 L12.35 -34.5" fill="#ffd915" fill-rule="evenodd" stroke="none"/>
    <path d="M-25.55 -34.05 L-25.65 -33.95 Q-25.05 -33.25 -25.05 -32.25 -25.3 -29.8 -27.7 -29.6 -30.15 -29.8 -30.4 -32.25 L-30.15 -33.45 Q-30.65 -34.4 -31.75 -34.2 -35.9 -32.25 -32.3 -26.3 -28.7 -20.4 -24.15 -17.35 -19.7 -14.95 -20.45 -14.4 -20.35 -14.1 -21.5 -13.15 -23.7 -12.4 -23.6 -12.85 L-23.35 -13.9 -23.1 -14.4 -22.05 -14.1 Q-21.1 -13.9 -21.15 -14.8 L-27.3 -18.6 Q-32.55 -21.7 -35.75 -28.85 -36.45 -30.65 -35.9 -33.15 -35.4 -35.65 -32.35 -36.8 -29.2 -37.5 -27.45 -35.95 L-25.55 -34.05" fill="#ff9900" fill-rule="evenodd" stroke="none"/>
    <path d="M-25.55 -34.05 L-27.45 -35.95 Q-29.2 -37.5 -32.35 -36.8 -35.4 -35.65 -35.9 -33.15 -36.45 -30.65 -35.75 -28.85 -32.55 -21.7 -27.3 -18.6 L-21.15 -14.8 Q-21.1 -13.9 -22.05 -14.1 L-23.1 -14.4 -23.35 -13.9 -23.6 -12.85 Q-23.7 -12.4 -21.5 -13.15 -20.35 -14.1 -20.45 -14.4 -19.7 -14.95 -24.15 -17.35 -28.7 -20.4 -32.3 -26.3 -35.9 -32.25 -31.75 -34.2 -30.65 -34.4 -30.15 -33.45 L-30.4 -32.25 Q-30.15 -29.8 -27.7 -29.6 -25.3 -29.8 -25.05 -32.25 -25.05 -33.25 -25.65 -33.95 L-25.55 -34.05 Z" fill="none" stroke="#b36e0b" stroke-linecap="square" stroke-linejoin="bevel" stroke-width="1.0"/>
    <path d="M-29.05 -32.25 Q-28.95 -33.5 -27.7 -33.6 -26.5 -33.5 -26.4 -32.25 -26.5 -31.05 -27.7 -30.95 -28.95 -31.05 -29.05 -32.25" fill="#f7bf11" fill-rule="evenodd" stroke="none"/>
    <path d="M-27.7 -32.75 Q-28.65 -32.7 -29.0 -31.85 L-29.05 -32.25 Q-28.95 -33.5 -27.7 -33.6 -26.5 -33.5 -26.4 -32.25 L-26.45 -31.85 Q-26.75 -32.7 -27.7 -32.75" fill="#dc880e" fill-rule="evenodd" stroke="none"/>
    <path d="M-25.5 -34.05 L-25.65 -33.95 Q-25.05 -33.25 -25.05 -32.25 -25.25 -29.85 -27.7 -29.6 -30.15 -29.85 -30.4 -32.25 L-30.15 -33.3 -29.85 -31.65 Q-29.45 -30.25 -27.6 -30.1 -25.75 -30.3 -25.7 -31.75 -25.65 -33.2 -26.4 -33.95 -28.15 -35.7 -31.75 -35.8 -35.3 -35.85 -35.7 -28.85 -36.4 -30.65 -35.9 -33.15 -35.4 -35.65 -32.35 -36.8 -29.2 -37.5 -27.4 -35.95 L-25.5 -34.05" fill="#f7bf11" fill-rule="evenodd" stroke="none"/>
    <path d="M-25.05 -34.7 L-21.65 -34.55 Q-21.85 -34.25 -21.9 -29.15 -21.95 -24.0 -19.7 -17.4 -17.45 -10.8 -10.75 -6.05 L-10.4 -5.8 Q-16.9 -8.35 -20.9 -15.6 -24.9 -22.85 -25.05 -34.7" fill="#ffd915" fill-rule="evenodd" stroke="none"/>
    <path d="M-15.05 -35.65 Q-15.9 -35.1 -16.6 -33.3 -17.3 -31.55 -17.15 -30.1 L-14.7 -25.35 Q-14.7 -23.8 -15.3 -21.3 -15.9 -18.8 -14.1 -14.95 L-10.35 -7.5 -14.25 -12.0 -18.3 -16.8 -19.75 -23.65 -21.0 -30.1 -20.8 -33.65 -15.05 -35.65" fill="#aa8515" fill-rule="evenodd" stroke="none"/>
    <path d="M-23.25 -35.0 L-17.1 -34.85 Q-18.35 -24.95 -15.55 -18.25 -12.75 -11.55 -9.5 -8.15 L-5.95 -4.75 Q-15.0 -6.9 -18.7 -14.1 -22.35 -21.3 -22.9 -27.9 -23.45 -34.55 -23.25 -35.0" fill="#aa8515" fill-rule="evenodd" stroke="none"/>
    <path d="M18.65 -34.75 Q18.5 -21.85 13.85 -14.4 9.15 -6.9 1.7 -5.05 0.05 -4.4 -2.25 -4.35 L-3.15 -4.35 -4.0 -4.35 Q-6.35 -4.35 -8.0 -5.05 -11.8 -6.0 -15.0 -8.5 L-11.55 -6.7 -9.1 -5.8 -2.3 -5.25 Q7.35 -6.5 11.4 -12.95 15.5 -19.4 16.3 -26.1 17.05 -32.75 16.8 -34.75 L18.65 -34.75" fill="#ff9900" fill-rule="evenodd" stroke="none"/>
    <path d="M-4.65 3.95 L-2.95 4.0 -0.3 4.0 Q1.55 4.65 0.05 6.25 -0.85 6.8 -2.85 6.9 -4.85 7.05 -5.2 6.35 -5.05 4.3 -4.65 3.95" fill="#ffd915" fill-rule="evenodd" stroke="none"/>
    <path d="M6.95 -27.35 Q7.15 -30.0 9.05 -30.25 10.95 -30.0 11.1 -27.4 10.95 -24.75 9.05 -24.5 7.15 -24.75 6.95 -27.35" fill="#ffff66" fill-rule="evenodd" stroke="none"/>
    <path d="M-8.7 8.5 L-9.3 9.75 -11.95 9.75 -11.95 8.5 -8.7 8.5" fill="#ffd915" fill-rule="evenodd" stroke="none"/>
    <path d="M-11.5 8.5 L-5.9 8.5 -5.95 9.5 -6.05 9.75 -11.35 9.75 Q-11.7 9.3 -11.5 8.5" fill="#aa8515" fill-rule="evenodd" stroke="none"/>
    <path d="M5.35 10.7 L-11.95 10.7 -11.95 9.45 5.35 9.45 5.35 10.7" fill="#000000" fill-rule="evenodd" stroke="none"/>
    <path d="M0.4 -0.2 L-1.05 -0.2 -0.95 -0.8 -1.25 -1.5 0.4 -1.5 Q1.0 -1.45 1.05 -0.85 1.0 -0.25 0.4 -0.2" fill="#b99117" fill-rule="evenodd" stroke="none"/>
    <path d="M-6.35 3.45 L-5.6 2.9 Q-6.1 2.5 -4.05 1.9 -1.6 1.85 -0.55 2.45 0.45 3.05 -1.2 2.9 L-6.35 3.45" fill="#aa8515" fill-rule="evenodd" stroke="none"/>
    <path d="M-4.3 1.1 Q-4.55 1.4 -3.15 1.9 -0.75 2.1 -0.45 2.5 L-2.85 2.7 -5.4 2.65 -5.6 2.0 -4.3 1.1" fill="#aa8515" fill-rule="evenodd" stroke="none"/>
    <path d="M-6.0 9.45 L2.5 9.45 Q2.35 10.1 1.45 10.7 L-5.6 10.7 Q-6.2 9.85 -6.0 9.45" fill="#1a1a1a" fill-rule="evenodd" stroke="none"/>
    <path d="M-30.55 -33.95 Q-30.15 -33.8 -30.1 -33.65 L-30.25 -33.6 -30.55 -33.95 M-31.9 -34.4 L-31.35 -34.25 -31.75 -34.2 Q-35.85 -32.2 -32.3 -26.3 -28.7 -20.35 -24.15 -17.35 -19.65 -14.95 -20.45 -14.4 -20.3 -14.1 -21.5 -13.15 -23.7 -12.4 -23.6 -12.8 L-23.3 -13.85 -23.05 -14.35 -22.0 -14.1 Q-21.1 -13.9 -21.15 -14.75 L-23.05 -16.05 Q-22.95 -16.4 -23.55 -16.65 -27.35 -18.3 -31.4 -23.25 -35.45 -28.15 -34.7 -32.2 -33.6 -34.9 -31.9 -34.4" fill="#aa8515" fill-rule="evenodd" stroke="none"/>
    <path d="M-24.35 -13.85 Q-24.25 -14.85 -23.25 -14.95 -22.25 -14.85 -22.15 -13.85 -22.25 -12.85 -23.25 -12.75 -24.25 -12.85 -24.35 -13.85" fill="#aa8515" fill-rule="evenodd" stroke="none"/>
    <path d="M-22.15 -13.85 Q-22.25 -12.8 -23.25 -12.75 -24.25 -12.8 -24.35 -13.85 L-24.25 -14.25 -22.15 -14.1 -22.15 -14.05 -22.15 -13.85" fill="#aa8515" fill-rule="evenodd" stroke="none"/>
    <path d="M-23.8 -13.85 Q-23.75 -14.4 -23.2 -14.45 -22.7 -14.4 -22.65 -13.85 -22.7 -13.35 -23.2 -13.3 -23.75 -13.35 -23.8 -13.85" fill="#f7bf11" fill-rule="evenodd" stroke="none"/>
    <path d="M29.45 -28.9 Q26.25 -21.75 21.05 -18.65 15.8 -15.55 14.9 -14.8 14.85 -13.95 15.75 -14.15 L16.8 -14.45 Q16.85 -14.15 17.05 -13.95 L17.35 -12.85 Q17.45 -12.45 15.25 -13.2 14.05 -14.15 14.2 -14.45 13.4 -15.0 17.85 -17.4 22.4 -20.45 26.0 -26.35 29.6 -32.3 25.45 -34.25 24.35 -34.45 23.8 -33.5 L24.1 -32.3 Q23.85 -29.85 21.45 -29.65 19.0 -29.85 18.75 -32.3 18.75 -33.3 19.35 -34.0 L19.25 -34.1 21.15 -36.0 Q22.9 -37.5 26.05 -36.85 29.1 -35.7 29.6 -33.2 30.15 -30.7 29.45 -28.9" fill="#ff9900" fill-rule="evenodd" stroke="none"/>
    <path d="M29.45 -28.9 Q26.25 -21.75 21.05 -18.65 15.8 -15.55 14.9 -14.8 14.85 -13.95 15.75 -14.15 L16.8 -14.45 Q16.85 -14.15 17.05 -13.95 L17.35 -12.85 Q17.45 -12.45 15.25 -13.2 14.05 -14.15 14.2 -14.45 13.4 -15.0 17.85 -17.4 22.4 -20.45 26.0 -26.35 29.6 -32.3 25.45 -34.25 24.35 -34.45 23.8 -33.5 L24.1 -32.3 Q23.85 -29.85 21.45 -29.65 19.0 -29.85 18.75 -32.3 18.75 -33.3 19.35 -34.0 L19.25 -34.1 21.15 -36.0 Q22.9 -37.5 26.05 -36.85 29.1 -35.7 29.6 -33.2 30.15 -30.7 29.45 -28.9 Z" fill="none" stroke="#b36e0b" stroke-linecap="square" stroke-linejoin="bevel" stroke-width="1.0"/>
    <path d="M21.4 -32.8 Q20.45 -32.75 20.1 -31.9 L20.05 -32.3 Q20.15 -33.55 21.4 -33.65 22.6 -33.55 22.7 -32.3 L22.65 -31.9 Q22.3 -32.75 21.4 -32.8" fill="#dc880e" fill-rule="evenodd" stroke="none"/>
    <path d="M29.45 -28.9 Q29.0 -35.95 25.45 -35.85 21.85 -35.75 20.1 -34.0 19.35 -33.2 19.45 -31.8 19.5 -30.35 21.35 -30.15 23.2 -30.3 23.55 -31.7 L23.85 -33.35 24.1 -32.3 Q23.85 -29.85 21.4 -29.65 19.0 -29.85 18.75 -32.3 18.75 -33.3 19.35 -34.0 L19.25 -34.1 21.15 -36.0 Q22.9 -37.5 26.05 -36.85 29.1 -35.7 29.6 -33.2 30.15 -30.7 29.45 -28.9" fill="#f7bf11" fill-rule="evenodd" stroke="none"/>
    <path d="M25.15 -23.3 Q21.1 -18.35 17.3 -16.7 16.7 -16.45 16.8 -16.05 15.15 -15.2 14.9 -14.8 14.85 -13.9 15.75 -14.1 L16.8 -14.4 17.05 -13.9 17.35 -12.85 Q17.45 -12.4 15.25 -13.2 14.05 -14.1 14.2 -14.4 13.4 -14.95 17.85 -17.4 22.4 -20.4 26.0 -26.35 29.6 -32.25 25.45 -34.25 L25.15 -34.3 25.65 -34.45 Q27.3 -34.95 28.4 -32.25 29.2 -28.2 25.15 -23.3 M24.2 -33.9 L23.95 -33.65 23.8 -33.7 24.2 -33.9" fill="#aa8515" fill-rule="evenodd" stroke="none"/>
    <path d="M18.05 -13.9 Q17.95 -12.9 16.95 -12.8 15.95 -12.9 15.85 -13.9 15.95 -14.9 16.95 -15.0 17.95 -14.9 18.05 -13.9" fill="#aa8515" fill-rule="evenodd" stroke="none"/>
    <path d="M15.85 -13.9 L15.9 -14.1 15.9 -14.15 18.0 -14.3 18.05 -13.9 Q17.95 -12.85 16.95 -12.75 15.95 -12.85 15.85 -13.9" fill="#aa8515" fill-rule="evenodd" stroke="none"/>
    <path d="M17.55 -13.9 Q17.5 -13.4 17.0 -13.35 16.45 -13.4 16.4 -13.9 16.45 -14.45 17.0 -14.5 17.5 -14.45 17.55 -13.9" fill="#f7bf11" fill-rule="evenodd" stroke="none"/>
    <path d="M17.0 -14.15 Q16.55 -14.1 16.45 -13.75 L16.4 -13.9 Q16.45 -14.45 17.0 -14.5 17.5 -14.45 17.55 -13.9 L17.55 -13.75 Q17.4 -14.1 17.0 -14.15" fill="#dc880e" fill-rule="evenodd" stroke="none"/>
    <path d="M-26.55 -19.75 L-27.8 -17.5 -29.1 -15.25 Q-29.65 -13.8 -27.9 -12.55 L-30.65 -12.85 Q-32.1 -13.95 -31.8 -15.65 -30.45 -18.2 -29.2 -19.35 -28.45 -21.15 -29.8 -22.4 L-31.55 -24.5 -30.7 -24.75 Q-27.85 -24.05 -26.8 -22.75 -25.8 -21.25 -26.5 -19.7 L-26.55 -19.75" fill="#d9d9d9" fill-rule="evenodd" stroke="none"/>
    <path d="M-33.4 -24.75 L-32.0 -24.6 Q-32.45 -24.55 -33.45 -22.25 -35.45 -16.4 -33.2 -12.35 L-35.65 -12.3 Q-37.15 -13.5 -36.9 -16.1 -36.65 -18.65 -36.0 -20.9 -35.2 -24.35 -33.4 -24.75" fill="#d9d9d9" fill-rule="evenodd" stroke="none"/>
    <path d="M-31.85 -25.1 L-31.85 -24.7 -33.5 -22.15 Q-37.2 -16.6 -36.0 -12.75 L-37.6 -12.75 -38.75 -12.7 Q-39.95 -13.9 -38.95 -16.4 L-36.7 -21.1 Q-34.75 -24.95 -31.85 -25.1" fill="#d72019" fill-rule="evenodd" stroke="none"/>
    <path d="M-25.65 -21.4 Q-25.5 -18.5 -28.1 -17.0 L-28.9 -15.5 Q-28.6 -18.35 -28.1 -19.75 -27.95 -22.1 -29.8 -23.55 L-28.05 -23.2 -25.65 -21.4" fill="#961c18" fill-rule="evenodd" stroke="none"/>
    <path d="M-28.9 -15.55 L-28.1 -17.05 -28.65 -16.1 Q-28.95 -14.5 -26.25 -14.0 L-21.6 -13.3 -24.4 -11.85 Q-29.45 -13.2 -28.9 -15.55" fill="#d72019" fill-rule="evenodd" stroke="none"/>
    <path d="M-31.7 -24.05 L-31.2 -25.0 Q-28.0 -24.45 -26.45 -23.1 -25.15 -21.7 -25.5 -20.1 -26.75 -22.95 -31.7 -24.05" fill="#d72019" fill-rule="evenodd" stroke="none"/>
    <path d="M-30.75 -25.15 Q-30.7 -23.25 -32.4 -23.7 -33.6 -23.95 -32.65 -25.3 L-30.75 -25.15" fill="#cccccc" fill-rule="evenodd" stroke="none"/>
    <path d="M-30.55 -25.15 Q-30.5 -23.25 -32.2 -23.7 -33.4 -23.95 -32.45 -25.3 L-30.55 -25.15" fill="#d72019" fill-rule="evenodd" stroke="none"/>
    <path d="M23.95 -22.5 Q22.55 -21.25 23.35 -19.45 24.55 -18.3 25.95 -15.75 26.25 -14.05 24.8 -12.95 L22.05 -12.6 Q23.8 -13.9 23.25 -15.35 L21.95 -17.6 20.65 -19.8 Q19.95 -21.35 20.95 -22.85 22.0 -24.15 24.8 -24.85 L25.65 -24.6 23.95 -22.5" fill="#d9d9d9" fill-rule="evenodd" stroke="none"/>
    <path d="M27.5 -24.85 Q29.35 -24.45 30.15 -21.0 30.8 -18.75 31.05 -16.2 31.3 -13.6 29.8 -12.4 L27.35 -12.4 Q29.6 -16.55 27.6 -22.35 26.55 -24.65 26.2 -24.7 L27.5 -24.85" fill="#d9d9d9" fill-rule="evenodd" stroke="none"/>
    <path d="M26.0 -25.15 Q28.85 -25.0 30.85 -21.15 32.0 -19.0 32.25 -16.45 32.5 -13.95 31.15 -12.75 L30.0 -12.8 28.4 -12.8 Q30.45 -16.65 27.65 -22.2 L26.0 -24.75 26.0 -25.15" fill="#d72019" fill-rule="evenodd" stroke="none"/>
    <path d="M22.25 -17.05 Q19.65 -18.5 19.8 -21.4 L22.2 -23.25 23.95 -23.6 Q22.1 -22.1 22.25 -19.8 22.75 -18.4 23.05 -15.55 L22.25 -17.05" fill="#961c18" fill-rule="evenodd" stroke="none"/>
    <path d="M20.55 -9.7 L17.75 -11.15 Q19.55 -11.55 21.35 -13.0 23.2 -14.4 22.75 -16.15 L22.2 -17.1 23.05 -15.6 Q23.3 -14.35 23.2 -12.4 23.1 -10.45 20.55 -9.7" fill="#d72019" fill-rule="evenodd" stroke="none"/>
    <path d="M25.8 -24.15 Q20.85 -23.05 19.65 -20.2 19.25 -21.8 20.6 -23.2 22.15 -24.5 25.35 -25.1 L25.8 -24.15" fill="#d72019" fill-rule="evenodd" stroke="none"/>
    <path d="M26.55 -23.75 Q24.85 -23.3 24.9 -25.2 L26.8 -25.35 Q27.7 -24.0 26.55 -23.75" fill="#cccccc" fill-rule="evenodd" stroke="none"/>
    <path d="M26.35 -23.75 Q24.65 -23.3 24.7 -25.2 L26.6 -25.35 Q27.5 -24.0 26.35 -23.75" fill="#d72019" fill-rule="evenodd" stroke="none"/>
    <path d="M-10.05 -20.65 Q-9.5 -24.7 -3.75 -25.05 2.05 -24.7 2.6 -20.7 2.05 -16.7 -3.75 -16.3 -9.5 -16.7 -10.05 -20.65" fill="#b7640e" fill-rule="evenodd" stroke="none"/>
    <path d="M1.35 -23.3 L-9.1 -18.35 Q-10.0 -19.4 -10.05 -20.65 -9.5 -24.65 -3.75 -25.05 -0.5 -24.95 1.35 -23.3" fill="#ffd915" fill-rule="evenodd" stroke="none"/>
    <path d="M-9.55 -20.65 Q-9.05 -24.2 -3.7 -24.55 1.6 -24.25 2.1 -20.65 1.6 -17.1 -3.7 -16.8 -9.05 -17.1 -9.55 -20.65" fill="#ce7f0d" fill-rule="evenodd" stroke="none"/>
    <path d="M-3.75 -24.55 L-1.05 -24.1 -7.3 -17.6 Q-8.75 -18.35 -9.3 -19.5 L-4.45 -24.5 -3.75 -24.55" fill="#ffd915" fill-rule="evenodd" stroke="none"/>
    <path d="M-13.7 -26.95 Q-13.5 -29.2 -11.25 -29.4 -9.05 -29.2 -8.85 -26.95 -9.05 -24.75 -11.25 -24.55 -13.5 -24.75 -13.7 -26.95" fill="#b7640e" fill-rule="evenodd" stroke="none"/>
    <path d="M-11.25 -29.4 Q-9.8 -29.35 -9.1 -28.1 L-13.5 -25.95 -13.7 -26.95 Q-13.5 -29.2 -11.25 -29.4" fill="#ffd915" fill-rule="evenodd" stroke="none"/>
    <path d="M-13.2 -26.95 Q-13.05 -28.75 -11.25 -28.9 -9.5 -28.75 -9.3 -26.95 -9.5 -25.2 -11.25 -25.0 -13.05 -25.2 -13.2 -26.95" fill="#ce7f0d" fill-rule="evenodd" stroke="none"/>
    <path d="M-10.7 -28.85 L-9.85 -28.3 -12.55 -25.6 -13.1 -26.4 -10.7 -28.85" fill="#ffd915" fill-rule="evenodd" stroke="none"/>
    <path d="M-6.15 -29.4 Q-5.95 -31.65 -3.7 -31.85 -1.5 -31.65 -1.3 -29.45 -1.5 -27.2 -3.7 -27.0 -5.95 -27.2 -6.15 -29.4" fill="#b7640e" fill-rule="evenodd" stroke="none"/>
    <path d="M-3.7 -31.85 Q-2.25 -31.8 -1.55 -30.55 L-5.95 -28.4 -6.15 -29.4 Q-5.95 -31.65 -3.7 -31.85" fill="#ffd915" fill-rule="evenodd" stroke="none"/>
    <path d="M-5.65 -29.4 Q-5.5 -31.2 -3.7 -31.35 -1.95 -31.2 -1.75 -29.4 -1.95 -27.65 -3.7 -27.45 -5.5 -27.65 -5.65 -29.4" fill="#ce7f0d" fill-rule="evenodd" stroke="none"/>
    <path d="M-3.2 -31.25 L-2.35 -30.75 -5.05 -28.0 -5.6 -28.85 -3.2 -31.25" fill="#ffd915" fill-rule="evenodd" stroke="none"/>
    <path d="M1.4 -26.95 Q1.6 -29.2 3.85 -29.4 6.05 -29.2 6.25 -26.95 6.05 -24.75 3.85 -24.55 1.6 -24.75 1.4 -26.95" fill="#b7640e" fill-rule="evenodd" stroke="none"/>
    <path d="M3.85 -29.4 Q5.3 -29.3 6.0 -28.1 L1.6 -25.95 1.4 -26.95 Q1.6 -29.2 3.85 -29.4" fill="#ffd915" fill-rule="evenodd" stroke="none"/>
    <path d="M1.85 -27.0 Q2.0 -28.8 3.8 -28.95 5.55 -28.8 5.75 -27.0 5.55 -25.25 3.8 -25.05 2.0 -25.25 1.85 -27.0" fill="#ce7f0d" fill-rule="evenodd" stroke="none"/>
    <path d="M4.35 -28.85 L5.2 -28.3 2.5 -25.6 Q2.1 -25.9 1.95 -26.45 L4.35 -28.85" fill="#ffd915" fill-rule="evenodd" stroke="none"/>
    <path d="M18.55 -34.6 L18.6 -34.6 18.6 -32.85 18.55 -32.85 13.05 -34.4 Q7.6 -35.7 -3.2 -35.9 -14.0 -35.7 -19.45 -34.35 L-24.9 -32.8 -25.0 -32.8 -25.05 -34.55 -24.9 -34.55 -24.35 -34.75 Q-24.85 -34.95 -21.0 -36.2 -17.15 -37.5 -3.3 -37.7 10.55 -37.55 14.5 -36.25 18.45 -34.95 18.0 -34.8 L18.55 -34.6" fill="#9f7c0d" fill-rule="evenodd" stroke="none"/>
    <path d="M18.95 -34.85 Q18.9 -34.05 18.1 -33.95 L12.75 -35.45 Q7.45 -36.75 -3.15 -36.95 -13.7 -36.75 -19.05 -35.45 L-24.4 -33.95 Q-25.15 -34.0 -25.25 -34.8 -25.2 -35.55 -24.4 -35.65 L-19.05 -37.15 Q-13.7 -38.45 -3.15 -38.65 7.45 -38.45 12.75 -37.15 L18.1 -35.65 Q18.9 -35.6 18.95 -34.85" fill="#f7aa01" fill-rule="evenodd" stroke="none"/>
    <path d="M18.95 -34.85 Q18.9 -34.05 18.1 -33.95 L12.75 -35.45 Q7.45 -36.75 -3.15 -36.95 -13.7 -36.75 -19.05 -35.45 L-24.4 -33.95 Q-25.15 -34.0 -25.25 -34.8 -25.2 -35.55 -24.4 -35.65 L-19.05 -37.15 Q-13.7 -38.45 -3.15 -38.65 7.45 -38.45 12.75 -37.15 L18.1 -35.65 Q18.9 -35.6 18.95 -34.85" fill="#f7aa01" fill-rule="evenodd" stroke="none"/>
    <path d="M-3.2 -37.7 L-16.3 -36.7 -16.3 -36.85 -16.25 -37.65 -3.2 -38.65 8.65 -37.9 8.7 -36.9 -3.2 -37.7" fill="#ffd915" fill-rule="evenodd" stroke="none"/>
    <path d="M-22.25 -36.35 L-22.35 -35.65 -22.25 -34.65 -24.4 -33.95 Q-25.15 -34.0 -25.25 -34.8 -25.2 -35.55 -24.4 -35.65 L-22.25 -36.35 M18.1 -35.7 Q18.9 -35.6 18.95 -34.85 18.9 -34.05 18.1 -34.0 L16.25 -34.6 16.35 -35.7 16.35 -36.3 18.1 -35.7" fill="#ff9900" fill-rule="evenodd" stroke="none"/>
  </g>
</svg>
