<?xml version="1.0" encoding="UTF-8" standalone="no"?>
<svg xmlns:xlink="http://www.w3.org/1999/xlink" height="27.0px" width="25.6px" xmlns="http://www.w3.org/2000/svg">
  <g transform="matrix(1.0, 0.0, 0.0, 1.0, 12.9, 13.15)">
    <path d="M2.5 -3.0 L2.5 1.65 4.95 1.65 Q5.5 1.65 5.5 1.1 L5.5 -2.45 Q5.5 -3.0 4.95 -3.0 L2.5 -3.0 M10.2 -3.95 L10.2 2.6 Q10.2 6.0 6.85 6.0 L2.5 6.0 2.5 9.15 Q2.5 10.0 2.0 10.6 1.35 11.35 -0.1 11.35 -1.45 11.35 -2.15 10.6 -2.75 10.05 -2.75 9.15 L-2.75 6.0 -7.05 6.0 Q-10.4 6.0 -10.4 2.6 L-10.4 -3.95 Q-10.4 -7.35 -7.05 -7.35 L-2.75 -7.35 -2.75 -8.45 Q-2.75 -9.5 -1.95 -10.05 -1.35 -10.65 -0.1 -10.65 1.05 -10.65 1.8 -10.05 2.5 -9.5 2.5 -8.45 L2.5 -7.35 6.85 -7.35 Q10.2 -7.35 10.2 -3.95 M-5.55 -2.45 L-5.55 1.1 Q-5.55 1.65 -5.0 1.65 L-2.75 1.65 -2.75 -3.0 -5.0 -3.0 Q-5.55 -3.0 -5.55 -2.45" fill="#66ccff" fill-rule="evenodd" stroke="none"/>
    <path d="M2.5 -3.0 L2.5 1.65 4.95 1.65 Q5.5 1.65 5.5 1.1 L5.5 -2.45 Q5.5 -3.0 4.95 -3.0 L2.5 -3.0 M10.2 -3.95 L10.2 2.6 Q10.2 6.0 6.85 6.0 L2.5 6.0 2.5 9.15 Q2.5 10.0 2.0 10.6 1.35 11.35 -0.1 11.35 -1.45 11.35 -2.15 10.6 -2.75 10.05 -2.75 9.15 L-2.75 6.0 -7.05 6.0 Q-10.4 6.0 -10.4 2.6 L-10.4 -3.95 Q-10.4 -7.35 -7.05 -7.35 L-2.75 -7.35 -2.75 -8.45 Q-2.75 -9.5 -1.95 -10.05 -1.35 -10.65 -0.1 -10.65 1.05 -10.65 1.8 -10.05 2.5 -9.5 2.5 -8.45 L2.5 -7.35 6.85 -7.35 Q10.2 -7.35 10.2 -3.95 M-5.55 -2.45 L-5.55 1.1 Q-5.55 1.65 -5.0 1.65 L-2.75 1.65 -2.75 -3.0 -5.0 -3.0 Q-5.55 -3.0 -5.55 -2.45" fill="none" stroke="#ffffff" stroke-linecap="round" stroke-linejoin="round" stroke-width="5.0"/>
    <path d="M10.2 -3.95 L10.2 2.6 Q10.2 6.0 6.85 6.0 L2.5 6.0 2.5 9.15 Q2.5 10.0 2.0 10.6 1.35 11.35 -0.1 11.35 -1.45 11.35 -2.15 10.6 -2.75 10.05 -2.75 9.15 L-2.75 6.0 -7.05 6.0 Q-10.4 6.0 -10.4 2.6 L-10.4 -3.95 Q-10.4 -7.35 -7.05 -7.35 L-2.75 -7.35 -2.75 -8.45 Q-2.75 -9.5 -1.95 -10.05 -1.35 -10.65 -0.1 -10.65 1.05 -10.65 1.8 -10.05 2.5 -9.5 2.5 -8.45 L2.5 -7.35 6.85 -7.35 Q10.2 -7.35 10.2 -3.95 M2.5 -3.0 L2.5 1.65 4.95 1.65 Q5.5 1.65 5.5 1.1 L5.5 -2.45 Q5.5 -3.0 4.95 -3.0 L2.5 -3.0 M-5.55 -2.45 L-5.55 1.1 Q-5.55 1.65 -5.0 1.65 L-2.75 1.65 -2.75 -3.0 -5.0 -3.0 Q-5.55 -3.0 -5.55 -2.45" fill="#3399ff" fill-rule="evenodd" stroke="none"/>
  </g>
</svg>
