<?xml version="1.0" encoding="UTF-8" standalone="no"?>
<svg xmlns:xlink="http://www.w3.org/1999/xlink" height="25.25px" width="31.55px" xmlns="http://www.w3.org/2000/svg">
  <g transform="matrix(1.0, 0.0, 0.0, 1.0, 0.5, 0.5)">
    <path d="M9.5 17.15 L9.35 17.25 10.0 18.75 Q10.2 19.5 9.85 20.2 9.55 20.85 8.45 21.05 L7.65 21.1 Q6.8 20.95 6.3 20.45 L5.65 19.4 5.4 18.35 5.35 17.9 5.65 17.85 6.5 17.7 Q5.45 17.2 4.95 16.35 4.55 15.4 4.7 14.25 4.8 13.15 5.45 11.95 6.05 10.8 6.65 10.2 L7.85 9.3 8.4 8.7 Q8.65 7.85 8.15 6.9 L6.75 5.05 5.35 3.7 4.6 2.8 4.55 2.3 4.5 2.5 Q4.4 2.85 4.45 3.3 4.5 3.8 4.9 4.1 L6.15 5.55 Q6.75 6.4 6.95 7.35 7.1 7.95 6.8 8.45 L6.5 8.8 6.2 9.15 5.5 9.8 Q4.75 10.75 4.4 11.75 3.75 13.3 3.85 14.9 L3.95 15.9 4.05 16.85 4.35 17.95 4.35 18.15 4.35 18.25 5.0 20.35 5.6 21.15 6.25 21.6 6.45 21.8 6.8 21.95 7.85 22.2 8.7 22.25 9.15 22.15 9.2 22.15 9.25 22.15 10.4 21.75 Q10.0 20.95 10.1 19.95 L10.4 18.95 10.95 18.05 10.8 17.4 10.8 16.1 10.3 16.65 9.5 17.15 M29.8 5.3 L29.7 5.4 29.35 6.2 28.1 7.6 Q27.3 8.25 25.95 8.7 L24.6 8.95 23.55 8.95 22.65 8.85 21.6 8.65 20.35 8.65 18.1 9.15 16.2 10.25 15.1 11.0 Q14.25 11.7 14.85 11.75 L15.1 11.75 16.05 11.7 17.6 11.75 Q18.75 11.8 20.1 12.35 L19.3 11.75 18.7 11.5 17.9 11.25 17.25 11.3 17.2 11.3 16.95 11.25 16.25 11.25 15.8 11.15 16.65 11.05 17.3 10.95 17.85 10.85 20.9 10.35 23.7 10.0 24.1 9.9 26.9 8.95 27.8 8.4 28.95 7.1 28.95 7.05 29.0 6.95 29.45 6.15 29.85 5.15 29.8 5.3 M19.85 18.75 L20.0 18.6 19.55 18.9 18.15 19.5 15.9 19.65 14.75 19.45 Q13.5 19.1 12.85 18.5 12.25 17.85 12.0 17.05 11.8 16.25 11.9 15.45 12.05 14.25 12.4 13.8 L12.7 13.4 12.05 13.7 11.7 14.45 11.35 15.4 11.3 15.55 11.3 15.6 11.2 17.0 11.45 18.05 Q11.75 18.9 12.35 19.45 L12.75 19.75 Q13.65 20.25 14.75 20.4 L17.1 20.2 19.25 19.3 19.85 18.75 M17.4 14.9 L17.8 14.9 18.6 14.6 Q18.8 14.4 18.55 14.3 L17.9 14.2 17.1 14.15 16.55 14.15 15.65 13.45 14.65 13.0 15.5 13.65 16.0 14.5 16.9 14.65 17.8 14.7 17.4 14.9 M14.05 12.9 L14.3 12.9 13.95 12.65 13.45 12.15 13.05 11.6 12.8 11.3 12.7 11.9 12.65 12.35 12.4 13.15 14.0 12.9 14.05 12.9 M4.2 18.8 L3.35 18.95 Q2.6 18.85 1.9 18.15 1.2 17.45 0.85 16.0 0.5 14.5 0.9 13.55 1.3 12.65 2.0 12.25 2.5 11.95 2.95 11.9 2.25 11.9 1.55 12.35 0.7 12.8 0.25 13.85 -0.15 14.95 0.25 16.6 L0.3 16.9 0.35 17.2 0.8 18.25 0.95 18.55 1.45 19.15 Q2.2 19.95 3.05 20.0 L4.15 19.9 4.45 19.7 4.2 18.8 M15.75 23.9 L16.7 23.6 Q17.75 23.3 18.4 22.6 L17.95 22.8 16.65 23.15 14.85 23.25 13.55 22.95 11.85 21.8 Q11.35 21.1 11.3 20.45 11.3 19.8 11.7 19.35 L11.75 19.3 11.45 19.1 11.25 18.75 11.25 18.7 Q10.7 19.5 10.65 20.1 10.55 20.7 10.85 21.55 L11.05 22.0 Q11.25 22.5 11.95 23.05 12.7 23.55 14.2 23.85 L14.55 23.9 14.6 23.9 15.75 23.9" fill="#c2d6d4" fill-rule="evenodd" stroke="none"/>
    <path d="M4.5 2.5 L4.55 2.3 4.6 2.8 5.35 3.7 6.75 5.05 8.15 6.9 Q8.65 7.85 8.4 8.7 L7.85 9.3 6.65 10.2 Q6.05 10.8 5.45 11.95 4.8 13.15 4.7 14.25 4.55 15.4 4.95 16.35 5.45 17.2 6.5 17.7 L5.65 17.85 5.35 17.9 5.4 18.35 5.65 19.4 6.3 20.45 Q6.8 20.95 7.65 21.1 L8.45 21.05 Q9.55 20.85 9.85 20.2 10.2 19.5 10.0 18.75 L9.35 17.25 9.5 17.15 8.85 17.45 11.05 14.9 12.25 12.65 12.8 11.05 12.7 11.9 12.8 11.3 13.05 11.6 13.45 12.15 13.95 12.65 14.3 12.9 14.05 12.9 Q14.8 13.0 15.3 13.4 L16.0 14.5 15.5 13.65 14.65 13.0 15.65 13.45 16.55 14.15 17.1 14.15 17.9 14.2 18.55 14.3 Q18.8 14.4 18.6 14.6 L17.8 14.9 17.4 14.9 16.35 15.05 15.05 14.7 15.45 14.7 15.7 14.65 Q15.6 13.9 15.15 13.6 14.75 13.25 14.2 13.2 L12.9 13.35 12.7 13.4 12.4 13.8 Q12.05 14.25 11.9 15.45 11.8 16.25 12.0 17.05 12.25 17.85 12.85 18.5 13.5 19.1 14.75 19.45 L15.9 19.65 18.15 19.5 19.55 18.9 20.0 18.6 19.85 18.75 20.75 17.5 Q21.3 16.25 21.25 15.0 L21.15 14.35 20.4 12.7 19.8 12.1 19.3 11.75 20.1 12.35 Q18.75 11.8 17.6 11.75 L16.05 11.7 15.1 11.75 14.85 11.75 Q14.25 11.7 15.1 11.0 L16.2 10.25 18.1 9.15 20.35 8.65 21.6 8.65 22.65 8.85 23.55 8.95 24.6 8.95 25.95 8.7 Q27.3 8.25 28.1 7.6 L29.35 6.2 29.7 5.4 29.8 5.3 30.05 3.9 Q30.0 2.55 29.35 1.75 28.7 0.95 27.65 0.8 L26.1 1.1 25.3 1.55 Q24.7 1.85 23.85 2.3 L20.65 3.75 17.1 5.35 13.9 6.7 11.95 7.45 11.75 7.55 11.9 6.05 11.75 3.9 Q11.55 2.75 11.0 1.85 10.5 0.9 9.4 0.35 L8.8 0.15 8.1 0.0 6.35 0.25 6.15 0.35 Q5.35 0.85 4.9 1.55 L4.5 2.5 M10.4 18.95 L10.1 19.95 Q10.0 20.95 10.4 21.75 10.05 20.95 10.15 19.95 L10.4 18.95 M8.7 22.25 L7.85 22.2 6.8 21.95 7.85 22.2 8.7 22.25 M2.95 11.9 Q2.5 11.95 2.0 12.25 1.3 12.65 0.9 13.55 0.5 14.5 0.85 16.0 1.2 17.45 1.9 18.15 2.6 18.85 3.35 18.95 L4.2 18.8 4.05 17.95 Q3.65 16.5 3.6 14.9 3.65 13.5 4.15 12.15 L3.95 12.05 3.5 11.95 2.95 11.9 M17.3 10.95 L16.65 11.05 15.8 11.15 16.7 11.05 17.3 10.95 M27.8 8.4 L26.9 8.95 24.1 9.9 23.7 10.0 24.1 9.9 26.9 8.95 27.8 8.4 M15.75 23.9 L17.25 23.45 Q18.5 22.8 19.1 21.75 19.7 20.7 19.25 19.6 18.1 20.3 16.95 20.5 L14.8 20.65 Q13.55 20.5 12.6 20.0 L11.7 19.35 Q11.3 19.8 11.3 20.45 11.35 21.1 11.85 21.8 L13.55 22.95 14.85 23.25 16.65 23.15 17.95 22.8 18.4 22.6 Q17.75 23.3 16.7 23.6 L15.75 23.9" fill="#ffffff" fill-rule="evenodd" stroke="none"/>
    <path d="M9.5 17.15 L10.3 16.65 10.8 16.1 10.8 17.4 10.95 18.05 10.4 18.95 10.15 19.95 Q10.05 20.95 10.4 21.75 L9.25 22.15 9.2 22.15 9.15 22.15 8.7 22.25 7.85 22.2 6.8 21.95 6.45 21.8 6.25 21.6 5.6 21.15 5.0 20.35 4.35 18.25 4.35 18.15 4.35 17.95 4.05 16.85 3.95 15.9 3.85 14.9 Q3.75 13.3 4.4 11.75 4.75 10.75 5.5 9.8 4.7 10.75 4.3 11.75 L4.2 11.9 4.05 11.75 3.5 11.6 Q2.55 11.55 1.7 12.0 0.75 12.5 0.3 13.6 -0.2 14.75 0.2 16.55 L0.3 16.9 0.25 16.6 Q-0.15 14.95 0.25 13.85 0.7 12.8 1.55 12.35 2.25 11.9 2.95 11.9 L3.5 11.95 3.95 12.05 4.15 12.15 Q3.65 13.5 3.6 14.9 3.65 16.5 4.05 17.95 L4.2 18.8 4.45 19.7 4.15 19.9 3.05 20.0 Q2.2 19.95 1.45 19.15 L0.95 18.55 1.5 19.25 Q2.35 20.1 3.25 20.2 L4.45 20.0 4.55 19.95 4.9 20.65 6.4 22.15 Q7.35 22.65 8.25 22.75 L9.65 22.7 10.7 22.25 10.85 22.6 11.8 23.4 14.0 24.15 14.35 24.2 Q15.85 24.35 17.05 23.75 18.35 23.2 19.0 22.1 19.65 21.0 19.45 19.55 20.35 18.85 20.9 17.75 21.4 16.65 21.35 15.4 L21.15 14.35 21.25 15.0 Q21.3 16.25 20.75 17.5 L19.85 18.75 19.25 19.3 17.1 20.2 14.75 20.4 Q13.65 20.25 12.75 19.75 L12.35 19.45 Q11.75 18.9 11.45 18.05 L11.2 17.0 11.3 15.6 11.3 15.55 11.35 15.4 11.7 14.45 12.05 13.7 12.7 13.4 12.9 13.35 14.2 13.2 Q14.75 13.25 15.15 13.6 15.6 13.9 15.7 14.65 L15.45 14.7 15.05 14.7 16.35 15.05 17.4 14.9 17.8 14.7 16.9 14.65 16.0 14.5 15.3 13.4 Q14.8 13.0 14.05 12.9 L14.0 12.9 12.4 13.15 12.65 12.35 12.7 11.9 12.8 11.05 12.25 12.65 11.05 14.9 8.85 17.45 9.5 17.15 M6.8 8.45 Q7.1 7.95 6.95 7.35 6.75 6.4 6.15 5.55 L4.9 4.1 Q4.5 3.8 4.45 3.3 4.4 2.85 4.5 2.5 L4.9 1.55 Q5.35 0.85 6.15 0.35 L6.35 0.25 6.0 0.4 Q5.05 0.85 4.6 1.6 4.1 2.35 4.1 3.05 4.1 3.8 4.55 4.2 L5.9 5.6 6.85 7.4 6.8 8.45 M8.8 0.15 L9.4 0.35 Q10.5 0.9 11.0 1.85 11.55 2.75 11.75 3.9 L11.9 6.05 11.75 7.55 11.95 7.45 12.05 5.9 11.85 3.7 11.05 1.6 Q10.45 0.65 9.4 0.3 L8.8 0.15 M25.3 1.55 L26.1 1.1 27.65 0.8 Q28.7 0.95 29.35 1.75 30.0 2.55 30.05 3.9 L29.8 5.3 29.85 5.15 29.45 6.15 29.0 6.95 28.95 7.05 28.95 7.1 27.8 8.4 26.9 8.95 24.1 9.9 23.7 10.0 20.9 10.35 17.85 10.85 17.3 10.95 16.7 11.05 15.8 11.15 16.25 11.25 16.95 11.25 17.2 11.3 17.25 11.3 17.9 11.25 18.7 11.5 19.3 11.75 19.8 12.1 18.5 11.25 22.5 10.55 26.45 9.6 Q28.3 8.85 29.45 7.2 30.5 5.45 30.55 4.0 30.5 2.55 29.7 1.65 28.9 0.7 27.85 0.6 27.0 0.5 26.3 0.95 L25.3 1.55 M11.7 19.35 L12.6 20.0 Q13.55 20.5 14.8 20.65 L16.95 20.5 Q18.1 20.3 19.25 19.6 19.7 20.7 19.1 21.75 18.5 22.8 17.25 23.45 L15.75 23.9 14.6 23.9 14.55 23.9 14.2 23.85 Q12.7 23.55 11.95 23.05 11.25 22.5 11.05 22.0 L10.85 21.55 Q10.55 20.7 10.65 20.1 10.7 19.5 11.25 18.7 L11.25 18.75 11.45 19.1 11.75 19.3 11.7 19.35" fill="#2d4c76" fill-rule="evenodd" stroke="none"/>
    <path d="M5.5 9.8 L6.2 9.15 6.5 8.8 6.8 8.45 6.85 7.4 5.9 5.6 4.55 4.2 Q4.1 3.8 4.1 3.05 4.1 2.35 4.6 1.6 5.05 0.85 6.0 0.4 L6.35 0.25 8.1 0.0 8.8 0.15 9.4 0.3 Q10.45 0.65 11.05 1.6 L11.85 3.7 12.05 5.9 11.95 7.45 13.9 6.7 17.1 5.35 20.65 3.75 23.85 2.3 Q24.7 1.85 25.3 1.55 M19.8 12.1 L20.4 12.7 21.15 14.35 21.35 15.4 Q21.4 16.65 20.9 17.75 20.35 18.85 19.45 19.55 19.65 21.0 19.0 22.1 18.35 23.2 17.05 23.75 15.85 24.35 14.35 24.2 L14.0 24.15 11.8 23.4 10.85 22.6 10.7 22.25 9.65 22.7 8.25 22.75 Q7.35 22.65 6.4 22.15 L4.9 20.65 4.55 19.95 4.45 20.0 3.25 20.2 Q2.35 20.1 1.5 19.25 L0.95 18.55 0.8 18.25 0.35 17.2 0.3 16.9 0.2 16.55 Q-0.2 14.75 0.3 13.6 0.75 12.5 1.7 12.0 2.55 11.55 3.5 11.6 L4.05 11.75 4.2 11.9 4.3 11.75 Q4.7 10.75 5.5 9.8" fill="none" stroke="#2d4c76" stroke-linecap="round" stroke-linejoin="round" stroke-width="1.0"/>
    <path d="M25.3 1.55 L26.3 0.95 Q27.0 0.5 27.85 0.6 28.9 0.7 29.7 1.65 30.5 2.55 30.55 4.0 30.5 5.45 29.45 7.2 28.3 8.85 26.45 9.6 L22.5 10.55 18.5 11.25 19.8 12.1" fill="none" stroke="#2d4c76" stroke-linecap="round" stroke-linejoin="round" stroke-width="1.0"/>
  </g>
</svg>
