<?xml version="1.0" encoding="UTF-8" standalone="no"?>
<svg xmlns:xlink="http://www.w3.org/1999/xlink" height="7.8px" width="8.45px" xmlns="http://www.w3.org/2000/svg">
  <g transform="matrix(1.0, 0.0, 0.0, 1.0, 4.2, -13.35)">
    <path d="M3.5 14.6 L-2.25 20.8 -2.8 21.05 Q-3.1 21.05 -3.3 20.85 L-3.55 20.3 -3.35 19.85 2.4 13.65 Q2.6 13.4 2.95 13.4 L3.45 13.65 3.65 14.15 3.5 14.6 M3.8 17.65 Q4.25 18.2 4.25 19.1 4.25 19.9 3.8 20.5 3.25 21.1 2.3 21.15 1.4 21.15 0.85 20.45 0.35 19.8 0.35 19.1 0.35 18.3 0.85 17.75 1.35 17.1 2.3 17.1 3.25 17.1 3.8 17.65 M2.7 19.05 Q2.7 18.15 2.3 18.2 1.9 18.15 1.9 19.05 1.9 19.95 2.3 20.0 2.7 19.95 2.7 19.05 M-0.8 13.95 Q-0.3 14.45 -0.3 15.35 -0.3 16.15 -0.75 16.75 -1.3 17.4 -2.25 17.4 -3.15 17.4 -3.75 16.7 L-4.2 15.4 Q-4.2 14.6 -3.75 14.05 -3.2 13.35 -2.25 13.35 -1.3 13.35 -0.8 13.95 M-1.9 15.9 L-1.85 15.35 Q-1.85 14.4 -2.25 14.45 -2.65 14.4 -2.65 15.35 -2.65 16.25 -2.2 16.25 L-1.9 15.9" fill="#ffffff" fill-rule="evenodd" stroke="none"/>
  </g>
</svg>
