<?xml version="1.0" encoding="UTF-8" standalone="no"?>
<svg xmlns:xlink="http://www.w3.org/1999/xlink" height="181.3px" width="159.05px" xmlns="http://www.w3.org/2000/svg">
  <g transform="matrix(1.0, 0.0, 0.0, 1.0, 89.3, 91.8)">
    <path d="M41.8 -68.7 Q42.65 -67.75 43.15 -66.05 44.05 -62.9 44.05 -58.35 44.05 -54.7 43.45 -50.45 42.9 -46.2 41.75 -41.55 L42.25 -40.85 42.95 -39.75 43.4 -39.05 Q45.75 -38.85 46.6 -37.5 L46.9 -36.25 Q46.95 -35.55 46.5 -34.55 46.95 -32.7 46.95 -30.45 46.95 -25.8 44.9 -19.35 L44.8 -19.05 44.65 -18.5 Q46.55 -15.9 46.55 -13.2 46.55 -11.45 45.75 -9.75 45.0 -8.05 43.45 -6.5 41.95 -5.0 39.45 -3.85 L39.4 -3.2 Q39.4 -2.7 39.6 -2.55 39.75 -2.4 39.85 -2.4 L40.2 -2.3 40.7 -2.0 40.95 -1.5 Q40.9 -1.05 40.55 -0.9 L39.95 -0.7 36.3 -0.3 29.5 -0.5 Q25.4 -0.85 20.0 -2.2 17.65 -2.6 15.7 -3.3 L15.9 -1.8 16.15 -0.1 16.25 0.85 Q25.15 9.6 25.2 22.8 L25.15 23.4 26.3 23.4 27.8 23.4 28.75 23.35 29.2 24.55 Q30.6 27.65 31.2 30.9 L31.75 32.0 31.6 32.85 31.35 32.5 30.45 32.5 28.75 32.55 26.85 32.6 25.25 32.65 24.4 32.65 24.0 32.65 23.35 35.15 27.5 36.9 31.75 38.45 35.15 39.5 Q36.7 38.25 38.3 38.0 L41.05 38.15 Q41.9 38.45 42.5 39.0 L43.4 40.2 Q45.65 40.3 47.6 41.2 49.5 42.05 51.0 43.35 52.5 44.65 53.35 46.05 L54.1 47.0 54.65 47.4 58.5 47.85 62.85 48.25 67.3 48.45 Q68.1 48.45 68.7 48.95 69.3 49.4 69.6 50.2 L69.75 51.4 Q69.8 52.3 69.35 53.25 L67.95 55.0 Q65.8 56.75 62.2 56.5 L62.4 56.85 62.8 57.5 63.0 57.9 63.2 58.65 Q63.2 59.35 62.65 60.1 62.1 60.8 60.9 61.25 L58.0 61.1 57.9 61.05 57.65 60.95 56.35 61.1 54.55 60.55 Q53.4 59.9 52.8 58.8 52.25 57.7 52.1 56.55 L51.9 54.85 51.9 54.8 51.75 54.5 51.0 53.6 48.25 53.05 46.9 53.35 Q46.25 53.65 45.8 54.05 L45.25 54.65 45.35 55.1 45.55 55.75 46.15 57.95 Q46.5 59.25 46.5 60.6 L46.45 61.7 Q46.2 62.9 45.4 63.8 44.6 64.65 43.4 65.1 L41.25 65.25 39.35 64.25 38.8 63.35 38.7 62.35 38.8 61.3 38.8 61.1 38.95 58.7 38.7 55.9 37.35 57.3 31.85 62.05 27.0 66.5 23.25 70.1 27.25 69.55 32.7 69.0 Q35.65 68.8 38.5 68.9 L43.65 69.55 Q46.65 70.35 48.85 71.95 51.0 73.6 52.1 75.85 52.95 77.65 52.9 79.6 52.9 81.55 52.0 83.4 51.2 85.05 49.05 86.05 46.95 87.05 43.1 87.5 L37.35 87.9 29.6 88.1 20.85 88.05 12.05 87.85 4.15 87.5 -1.8 87.1 Q-3.65 86.85 -4.4 85.25 -4.85 84.3 -4.8 83.3 L-4.55 81.55 -3.9 80.1 Q-1.75 77.05 1.1 74.0 4.0 71.0 7.05 68.35 L12.8 63.45 8.0 61.25 3.3 59.5 -0.6 58.25 -3.3 57.6 -13.25 58.6 -21.1 59.95 Q-22.9 60.4 -24.5 61.0 L-27.35 62.2 -28.85 62.8 -30.1 63.05 -30.7 63.15 -34.75 62.8 Q-36.75 62.1 -38.45 60.5 -40.15 58.9 -41.4 56.5 L-44.95 58.75 -48.7 61.25 -52.0 63.6 -54.1 65.45 -55.5 67.45 -57.0 70.2 -58.25 73.25 Q-58.75 74.75 -58.85 76.05 -56.75 77.15 -55.3 78.9 -53.9 80.65 -53.6 82.5 L-53.5 83.35 Q-53.55 85.65 -55.5 87.5 L-57.0 88.35 -59.25 88.9 -62.85 89.3 -66.85 89.5 -72.0 89.45 -77.5 89.2 -82.5 88.8 -86.25 88.2 Q-88.2 87.7 -88.95 86.35 -89.5 85.4 -89.2 84.3 -88.15 80.85 -86.4 77.3 -84.6 73.65 -82.2 70.15 -79.8 66.6 -76.85 63.5 -73.95 60.4 -70.6 58.0 -67.25 55.6 -63.65 54.2 -61.95 53.6 -60.75 53.5 L-58.8 53.55 Q-58.05 53.7 -57.65 53.95 L-56.5 53.2 -54.45 51.9 -52.45 50.6 -51.6 50.05 -47.45 47.35 -43.4 44.8 -42.85 41.2 -42.0 37.95 -41.1 35.45 -40.5 33.55 -39.95 32.45 Q-39.65 32.15 -39.3 32.1 L-38.65 32.1 -38.45 32.1 -36.8 32.15 -34.9 32.15 -33.35 31.85 -29.5 29.85 -24.85 27.1 -24.5 26.9 -20.25 24.15 -16.4 21.5 -16.7 18.55 Q-16.65 17.6 -15.8 17.25 L-14.45 17.3 Q-13.7 17.55 -13.05 18.15 -9.95 17.1 -8.05 15.4 -6.1 13.65 -4.95 11.6 -3.8 9.5 -3.05 7.4 -2.7 2.8 -1.95 -0.4 -1.2 -3.55 0.25 -5.35 1.75 -7.1 4.3 -7.5 L7.3 -7.25 Q8.55 -6.75 9.4 -5.95 L9.4 -6.35 Q5.65 -8.7 2.4 -12.1 -0.85 -15.5 -3.5 -19.55 -6.15 -23.6 -8.15 -27.75 -10.1 -31.95 -11.3 -35.85 L-11.4 -36.5 -11.2 -37.05 -10.55 -37.15 -10.05 -36.95 -9.9 -36.85 -9.7 -36.7 -10.2 -38.3 -10.6 -39.85 -10.65 -40.35 -10.6 -40.85 -10.25 -41.25 Q-9.65 -41.6 -8.8 -40.85 -7.25 -39.7 -5.3 -39.25 L-1.3 -39.05 Q0.7 -39.35 2.45 -40.15 4.15 -40.95 5.2 -42.2 L5.7 -42.85 7.95 -45.5 10.25 -47.6 Q11.45 -48.55 13.1 -49.3 14.75 -50.1 17.1 -50.75 16.0 -52.7 14.65 -55.7 L11.9 -62.3 Q10.45 -65.95 9.2 -69.95 7.9 -73.95 7.05 -77.95 6.15 -82.0 5.9 -85.75 L5.85 -86.6 Q5.85 -88.45 6.4 -89.65 7.0 -90.9 8.1 -91.45 9.5 -92.1 11.3 -91.45 13.1 -90.8 15.1 -88.95 17.1 -87.05 19.2 -83.7 21.3 -80.35 23.15 -75.65 24.95 -70.9 26.2 -64.8 27.45 -58.75 27.75 -51.35 32.0 -50.4 35.25 -48.25 L35.45 -54.4 Q35.7 -57.5 36.1 -60.5 L37.1 -66.15 Q37.45 -67.75 38.2 -68.65 38.9 -69.55 39.9 -69.6 40.95 -69.6 41.8 -68.7" fill="#ffffff" fill-rule="evenodd" stroke="none"/>
  </g>
</svg>
