<?xml version="1.0" encoding="UTF-8" standalone="no"?>
<svg xmlns:xlink="http://www.w3.org/1999/xlink" height="62.9px" width="62.7px" xmlns="http://www.w3.org/2000/svg">
  <g transform="matrix(1.0, 0.0, 0.0, 1.0, -29.25, 28.55)">
    <path d="M91.95 -5.55 Q91.9 -3.95 91.1 -3.25 90.35 -2.5 89.3 -2.55 88.25 -2.6 87.3 -3.4 L81.4 -3.2 75.45 -2.55 Q72.45 -2.1 69.45 -0.95 66.4 0.15 63.4 2.15 62.15 2.95 61.6 2.8 61.05 2.6 60.9 1.85 L60.95 0.2 61.2 -1.4 61.4 -2.1 63.4 -4.1 66.05 -7.6 68.6 -12.3 Q69.75 -14.95 70.25 -18.0 70.75 -21.05 70.25 -24.4 69.2 -25.55 69.45 -26.6 69.65 -27.65 70.85 -28.2 L73.9 -28.45 Q76.25 -28.0 78.8 -26.45 81.35 -24.9 83.7 -22.6 86.1 -20.25 88.0 -17.45 89.9 -14.6 90.95 -11.55 92.05 -8.5 91.95 -5.55" fill="#644d0d" fill-rule="evenodd" stroke="none"/>
    <path d="M83.0 -22.05 Q85.3 -19.8 87.2 -17.05 89.1 -14.3 90.15 -11.35 91.25 -8.4 91.2 -5.55 91.1 -4.05 90.4 -3.55 89.7 -3.05 88.9 -3.3 88.05 -3.5 87.5 -4.1 87.35 -6.45 86.65 -8.55 85.9 -10.7 84.8 -12.65 L82.4 -16.35 Q80.5 -19.05 77.65 -21.2 74.8 -23.35 70.9 -24.65 70.15 -25.5 70.2 -26.3 70.25 -27.1 71.1 -27.55 L73.7 -27.7 Q75.85 -27.25 78.25 -25.8 L83.0 -22.05" fill="#dee22b" fill-rule="evenodd" stroke="none"/>
    <path d="M83.95 -13.2 L85.75 -9.3 Q86.45 -7.15 86.7 -4.1 L81.05 -3.9 75.25 -3.2 Q72.3 -2.7 69.4 -1.65 66.5 -0.55 63.65 1.3 62.5 2.1 62.0 2.0 61.5 1.95 61.5 1.35 L61.65 0.0 62.1 -1.3 62.3 -1.85 64.55 -4.4 67.1 -8.05 69.45 -12.55 Q70.45 -15.05 70.9 -17.9 71.35 -20.75 71.0 -23.85 74.4 -22.7 77.1 -20.8 79.8 -18.9 81.55 -16.6 L83.95 -13.2" fill="#dee22b" fill-rule="evenodd" stroke="none"/>
    <path d="M86.1 -17.6 Q87.95 -15.05 89.15 -12.05 90.4 -9.1 90.6 -5.85 90.65 -4.65 90.2 -4.35 89.8 -4.0 89.25 -4.1 L88.4 -4.35 Q88.95 -4.35 89.3 -4.9 89.65 -5.45 89.65 -6.65 89.65 -7.85 89.1 -9.75 88.0 -13.2 85.9 -16.4 83.75 -19.6 81.15 -22.05 78.5 -24.5 75.85 -25.7 73.25 -26.95 71.1 -26.45 71.15 -27.1 71.9 -27.2 L73.55 -27.1 75.1 -26.7 Q76.4 -26.4 78.25 -25.2 L82.2 -22.05 Q84.25 -20.1 86.1 -17.6" fill="#f0f299" fill-rule="evenodd" stroke="none"/>
    <path d="M82.4 -16.4 Q80.5 -19.05 77.7 -21.15 74.9 -23.25 71.1 -24.55 L72.05 -24.6 73.05 -24.25 Q76.8 -22.95 79.7 -20.6 82.6 -18.25 84.5 -15.1 86.4 -11.95 87.25 -8.2 L87.6 -5.7 87.45 -4.6 Q87.25 -6.85 86.5 -8.9 L84.7 -12.8 82.4 -16.4" fill="#b3a11b" fill-rule="evenodd" stroke="none"/>
    <path d="M85.7 -4.65 L78.75 -4.4 Q75.15 -4.1 71.55 -2.9 67.95 -1.7 64.35 0.65 L64.65 -0.1 64.8 -1.1 64.9 -1.65 Q68.0 -3.25 70.85 -4.3 L76.2 -5.9 80.4 -6.7 82.9 -6.95 Q83.6 -6.95 83.85 -7.7 84.1 -8.45 83.95 -9.65 L83.45 -12.2 84.9 -9.15 85.5 -6.65 85.7 -4.65" fill="#b3a11b" fill-rule="evenodd" stroke="none"/>
    <path d="M78.4 -12.45 Q76.95 -10.8 74.9 -9.15 72.85 -7.55 70.65 -6.1 L66.65 -3.4 63.85 -1.45 61.95 -0.15 Q61.5 0.1 61.6 -0.25 L62.15 -1.1 62.9 -2.1 63.3 -2.6 64.1 -3.3 66.1 -5.55 68.6 -9.4 Q69.9 -11.7 70.95 -14.85 72.0 -18.0 72.45 -22.05 L74.05 -21.4 76.45 -20.05 78.8 -18.1 Q79.9 -17.0 80.35 -15.7 79.9 -14.1 78.4 -12.45" fill="#f0f299" fill-rule="evenodd" stroke="none"/>
    <path d="M76.1 -26.3 Q77.05 -26.0 77.6 -25.5 78.15 -25.05 78.05 -24.65 77.9 -24.3 77.2 -24.25 L75.5 -24.5 Q74.5 -24.8 73.95 -25.3 73.4 -25.75 73.5 -26.15 73.65 -26.5 74.4 -26.55 L76.1 -26.3" fill="#f0f299" fill-rule="evenodd" stroke="none"/>
    <path d="M75.9 -26.25 L76.95 -25.75 77.25 -25.15 Q77.15 -24.9 76.65 -24.85 L75.5 -25.05 Q74.8 -25.25 74.45 -25.6 74.05 -25.9 74.1 -26.15 74.2 -26.4 74.7 -26.4 L75.9 -26.25" fill="#ffffff" fill-rule="evenodd" stroke="none"/>
    <path d="M68.05 -8.9 Q68.6 -9.75 69.2 -10.2 L70.1 -10.45 Q70.45 -10.25 70.35 -9.5 L69.7 -7.9 68.6 -6.6 Q68.0 -6.2 67.65 -6.35 67.35 -6.6 67.45 -7.3 L68.05 -8.9" fill="#f0f299" fill-rule="evenodd" stroke="none"/>
    <path d="M68.5 -8.9 L69.25 -9.8 69.9 -9.95 70.05 -9.3 69.6 -8.2 68.85 -7.3 68.2 -7.1 Q68.0 -7.3 68.05 -7.75 L68.5 -8.9" fill="#ffffff" fill-rule="evenodd" stroke="none"/>
    <path d="M65.45 -0.35 L64.95 -0.2 64.0 0.0 Q63.6 0.05 63.65 -0.15 L64.85 -0.85 68.15 -2.4 72.0 -3.75 76.1 -4.2 Q73.8 -3.85 71.05 -2.85 68.3 -1.85 65.45 -0.35" fill="#7f562d" fill-rule="evenodd" stroke="none"/>
    <path d="M71.05 -13.55 L69.3 -9.05 Q68.35 -7.15 66.95 -5.5 L63.4 -2.0 61.15 -0.2 Q60.6 0.15 60.8 -0.2 L61.55 -1.2 62.6 -2.35 63.15 -2.95 65.25 -4.85 67.65 -7.7 Q68.9 -9.5 70.2 -12.4 71.45 -15.3 72.65 -19.8 L71.05 -13.55" fill="#ffffff" fill-rule="evenodd" stroke="none"/>
    <path d="M66.35 0.5 Q66.75 1.95 66.65 3.15 66.6 4.35 66.1 4.8 L64.7 5.8 62.65 7.25 60.8 8.55 Q60.0 9.05 59.95 9.1 L53.7 0.4 54.45 -0.25 56.15 -1.75 57.95 -3.4 59.1 -4.45 60.2 -4.55 62.45 -3.95 Q63.75 -3.4 64.95 -2.1 65.95 -0.9 66.35 0.5" fill="#4e1d13" fill-rule="evenodd" stroke="none"/>
    <path d="M66.0 2.95 Q65.9 3.8 65.45 4.2 L64.25 5.1 62.35 6.5 60.65 7.75 59.9 8.3 54.75 0.65 55.45 0.05 56.95 -1.3 58.6 -2.75 59.6 -3.7 60.55 -3.75 62.4 -3.2 Q63.5 -2.7 64.45 -1.45 L65.75 0.95 66.0 2.95" fill="#ffffff" fill-rule="evenodd" stroke="none"/>
    <path d="M65.85 3.2 Q65.8 4.0 65.35 4.4 L64.15 5.3 62.25 6.7 60.55 7.95 59.8 8.5 54.65 0.85 55.35 0.25 56.85 -1.1 58.5 -2.55 59.5 -3.5 60.4 -3.55 Q61.15 -3.5 62.15 -2.95 63.15 -2.4 64.1 -1.15 L65.45 1.2 Q65.85 2.35 65.85 3.2" fill="#cea546" fill-rule="evenodd" stroke="none"/>
    <path d="M64.1 -1.15 L59.05 2.95 56.25 0.7 61.25 -3.3 Q61.95 -3.1 62.65 -2.55 L64.1 -1.15" fill="#efcf67" fill-rule="evenodd" stroke="none"/>
    <path d="M63.35 -2.0 L58.25 2.1 57.0 0.95 61.95 -3.0 63.35 -2.0" fill="#ffffff" fill-rule="evenodd" stroke="none"/>
    <path d="M59.65 3.85 L64.95 0.0 65.7 1.8 65.8 3.3 60.9 7.0 59.65 3.85" fill="#ab771f" fill-rule="evenodd" stroke="none"/>
    <path d="M65.8 2.5 L60.6 6.3 59.9 4.55 65.25 0.75 65.8 2.5" fill="#794d26" fill-rule="evenodd" stroke="none"/>
    <path d="M60.65 3.05 Q61.85 5.05 61.85 7.55 61.85 10.0 60.65 12.0 59.45 14.0 57.5 15.2 55.5 16.35 53.0 16.4 50.55 16.35 48.55 15.2 46.55 14.0 45.35 12.0 44.2 10.0 44.15 7.55 44.2 5.05 45.35 3.05 46.55 1.1 48.55 -0.1 50.55 -1.3 53.0 -1.3 55.5 -1.3 57.5 -0.1 59.45 1.1 60.65 3.05" fill="#781001" fill-rule="evenodd" stroke="none"/>
    <path d="M61.15 7.5 Q61.15 9.75 60.05 11.6 58.95 13.45 57.15 14.55 55.3 15.6 53.0 15.65 50.75 15.6 48.9 14.55 47.05 13.45 46.0 11.6 44.9 9.75 44.85 7.5 44.9 5.2 46.0 3.4 47.05 1.55 48.9 0.45 50.75 -0.65 53.0 -0.65 55.3 -0.65 57.15 0.45 58.95 1.55 60.05 3.35 61.15 5.2 61.15 7.5" fill="#bf2909" fill-rule="evenodd" stroke="none"/>
    <path d="M56.55 1.5 Q55.0 0.6 53.05 0.55 51.2 0.6 49.7 1.4 48.15 2.25 47.2 3.7 46.2 5.15 46.05 6.95 L46.0 6.65 Q46.05 4.7 47.0 3.1 47.9 1.5 49.5 0.55 51.1 -0.4 53.1 -0.4 55.05 -0.4 56.65 0.55 58.25 1.5 59.2 3.1 60.15 4.7 60.15 6.65 L60.1 7.35 Q60.0 5.45 59.05 3.9 58.1 2.4 56.55 1.5" fill="#ec461b" fill-rule="evenodd" stroke="none"/>
    <path d="M51.3 2.25 Q51.35 1.35 52.15 0.8 52.95 0.2 54.15 0.2 55.35 0.2 56.15 0.8 57.0 1.35 57.0 2.25 57.0 3.1 56.15 3.7 55.35 4.25 54.15 4.3 52.95 4.25 52.15 3.7 51.35 3.1 51.3 2.25" fill="#ec461b" fill-rule="evenodd" stroke="none"/>
    <path d="M56.7 15.15 Q54.85 16.3 52.7 17.15 L48.55 18.55 45.1 19.0 Q43.6 18.95 43.05 18.25 42.4 17.3 42.3 15.95 42.25 14.6 42.55 13.15 42.85 11.7 43.4 10.4 L44.5 8.35 46.1 6.6 48.2 4.85 50.05 3.5 50.85 2.95 51.45 4.7 Q51.7 5.55 51.6 6.45 51.5 7.4 50.75 8.55 50.15 9.25 49.7 10.15 L49.05 11.75 Q48.8 12.5 48.85 12.7 48.9 12.85 49.75 13.0 L51.9 13.25 54.65 13.35 57.5 13.25 59.8 12.85 56.7 15.15" fill="#781001" fill-rule="evenodd" stroke="none"/>
    <path d="M61.45 11.5 L62.6 11.85 63.85 12.8 Q64.45 13.4 64.7 14.55 64.95 16.05 64.55 17.2 64.1 18.4 63.25 19.25 62.35 20.15 61.25 20.7 60.85 22.1 59.25 23.45 L55.4 26.45 52.7 28.0 48.85 29.75 44.5 31.35 40.45 32.4 37.45 32.6 Q36.3 32.35 35.65 31.35 35.0 30.3 34.65 28.8 L34.25 25.75 34.15 22.95 34.15 21.15 Q34.15 19.6 34.75 17.9 35.4 16.25 36.45 14.65 37.55 13.05 38.95 11.8 40.55 10.3 41.7 8.4 42.9 6.45 43.7 4.4 L45.15 0.25 Q45.3 -0.2 45.95 -0.5 L47.4 -0.7 Q48.25 -0.65 49.05 -0.2 49.85 0.3 50.4 1.3 51.05 2.75 51.05 4.05 51.0 5.4 50.45 6.6 L48.95 8.85 47.55 10.85 Q47.05 11.8 46.95 12.45 46.85 13.15 47.15 13.25 L50.85 13.8 54.95 13.6 58.3 13.1 59.95 12.85 60.65 11.9 60.9 11.45 61.45 11.5" fill="#1d3f60" fill-rule="evenodd" stroke="none"/>
    <path d="M61.7 12.1 Q62.4 12.3 63.05 12.85 63.7 13.45 63.95 14.65 64.2 16.1 63.8 17.2 L62.45 19.1 60.5 20.45 59.65 20.85 58.7 21.25 58.1 21.65 57.65 22.25 Q57.5 22.6 57.75 22.4 58.45 21.8 59.15 21.55 L60.25 21.15 Q59.65 22.25 58.35 23.35 L55.1 25.8 Q54.2 26.45 52.55 27.3 L48.8 29.05 44.6 30.6 40.7 31.65 37.8 31.85 Q36.7 31.65 36.05 30.65 35.4 29.7 35.1 28.3 34.8 26.9 34.75 25.4 L34.65 22.75 34.65 21.0 Q34.65 19.5 35.25 17.95 35.9 16.4 36.95 14.9 L39.35 12.25 Q40.95 10.8 42.15 8.9 L44.25 4.95 45.7 0.9 Q45.95 0.3 46.75 0.0 L48.45 0.1 Q49.4 0.45 50.1 1.8 50.6 2.95 50.5 4.2 50.4 5.45 49.8 6.65 49.25 7.85 48.35 8.85 47.45 9.85 47.0 10.95 46.55 12.05 46.5 12.85 46.4 13.65 46.7 13.75 L49.55 14.25 52.8 14.25 55.95 13.9 58.4 13.55 59.55 13.35 60.15 12.65 60.65 11.95 61.7 12.1" fill="#ffffff" fill-rule="evenodd" stroke="none"/>
    <path d="M60.5 20.4 L59.65 20.8 58.7 21.2 58.1 21.6 57.65 22.2 Q57.5 22.5 57.75 22.35 58.45 21.75 59.15 21.5 L60.25 21.1 Q59.65 22.2 58.35 23.3 L55.1 25.75 Q54.2 26.4 52.55 27.25 L48.8 29.0 44.6 30.55 40.7 31.6 37.8 31.8 37.7 31.8 34.8 26.05 34.65 22.95 34.65 20.95 Q34.65 19.6 35.15 18.15 35.7 16.75 36.6 15.4 35.95 17.1 36.0 18.55 36.05 19.95 37.15 21.6 37.9 22.7 39.4 23.55 40.85 24.35 43.0 24.7 45.15 25.05 47.85 24.6 50.55 24.2 53.75 22.85 L55.3 21.75 56.95 20.3 Q57.85 19.55 59.0 19.1 61.15 18.3 62.45 17.2 63.7 16.05 64.0 14.75 64.2 16.15 63.75 17.25 63.3 18.3 62.45 19.1 L60.5 20.4" fill="#b8d2ca" fill-rule="evenodd" stroke="none"/>
    <path d="M49.9 1.45 L50.1 1.8 Q50.6 2.9 50.5 4.15 50.4 5.4 49.8 6.65 49.25 7.85 48.35 8.85 L47.15 10.6 Q47.45 9.5 48.35 7.95 L49.8 4.65 Q50.2 3.1 49.9 1.45" fill="#b8d2ca" fill-rule="evenodd" stroke="none"/>
    <path d="M40.0 24.7 Q40.9 26.75 40.9 28.7 40.85 30.65 40.05 32.05 39.25 33.5 37.9 34.0 L35.0 34.3 Q33.55 34.05 32.3 32.85 31.05 31.65 30.15 29.35 29.55 27.75 29.35 26.1 29.15 24.5 29.35 23.15 29.55 21.8 30.2 21.0 30.95 20.05 32.1 19.7 L34.5 19.6 Q35.75 19.9 36.9 20.8 39.05 22.6 40.0 24.7" fill="#1d3f60" fill-rule="evenodd" stroke="none"/>
    <path d="M36.45 21.4 Q38.4 23.05 39.3 24.95 40.2 26.85 40.2 28.6 40.25 30.4 39.55 31.7 38.85 33.0 37.65 33.45 L33.7 33.25 Q31.8 32.35 30.6 29.2 30.05 27.7 29.85 26.25 29.65 24.75 29.85 23.55 30.05 22.3 30.6 21.55 31.3 20.65 32.3 20.35 L34.35 20.3 Q35.4 20.55 36.45 21.4" fill="#ffffff" fill-rule="evenodd" stroke="none"/>
    <path d="M36.8 28.4 L38.05 29.25 39.35 29.3 Q39.9 29.05 40.2 28.0 40.35 30.0 39.65 31.45 38.95 32.9 37.65 33.4 L33.7 33.25 Q31.8 32.3 30.6 29.2 29.95 27.45 29.8 25.75 29.65 24.1 30.0 22.8 L30.7 22.7 31.9 22.75 Q32.8 22.85 33.65 23.6 L35.1 25.4 36.05 27.3 36.8 28.4" fill="#b8d2ca" fill-rule="evenodd" stroke="none"/>
    <path d="M31.65 23.8 Q31.65 23.35 32.0 23.4 32.35 23.45 32.8 23.85 L33.75 25.25 34.6 27.4 Q34.95 28.6 34.9 29.7 34.85 30.8 34.2 31.45 33.6 32.1 32.2 32.0 31.45 31.1 31.25 29.75 31.05 28.4 31.15 27.05 L31.45 24.75 31.65 23.8" fill="#1d3f60" fill-rule="evenodd" stroke="none"/>
  </g>
</svg>
