<?xml version="1.0" encoding="UTF-8" standalone="no"?>
<svg xmlns:xlink="http://www.w3.org/1999/xlink" height="179.9px" width="116.55px" xmlns="http://www.w3.org/2000/svg">
  <g transform="matrix(1.0, 0.0, 0.0, 1.0, 0.0, 0.0)">
    <path d="M53.7 116.35 L53.65 116.1 53.6 116.1 53.7 116.35 M40.2 88.5 L40.4 90.0 40.55 91.1 40.7 90.15 41.35 88.85 40.2 88.5 M95.45 63.45 L98.55 63.45 Q102.35 65.3 105.1 68.15 L111.9 75.05 112.35 75.95 114.75 80.25 Q116.55 83.6 116.55 85.9 116.55 87.7 115.2 88.6 L111.4 90.35 Q104.05 93.5 98.0 100.8 94.65 104.85 88.2 116.75 L72.95 130.8 70.95 132.55 Q71.5 132.7 72.1 133.0 74.0 133.85 75.5 135.15 77.0 136.45 77.85 137.85 L78.6 138.8 79.15 139.2 83.0 139.65 87.35 140.05 91.8 140.25 Q92.6 140.25 93.2 140.75 93.8 141.2 94.1 142.0 L94.25 143.2 Q94.3 144.1 93.85 145.05 93.4 146.0 92.45 146.8 90.3 148.55 86.7 148.3 L86.9 148.65 87.3 149.3 87.5 149.7 87.7 150.45 Q87.7 151.15 87.15 151.9 86.6 152.6 85.4 153.05 L82.5 152.9 82.4 152.85 82.15 152.75 80.85 152.9 79.05 152.35 Q77.9 151.7 77.3 150.6 76.75 149.5 76.6 148.35 L76.4 146.65 76.4 146.6 76.25 146.3 75.5 145.4 72.75 144.85 71.4 145.15 Q70.75 145.45 70.3 145.85 L69.75 146.45 69.85 146.9 70.05 147.55 70.65 149.75 Q71.0 151.05 71.0 152.4 L70.95 153.5 Q70.7 154.7 69.9 155.6 L67.9 156.9 65.75 157.05 63.85 156.05 63.3 155.15 63.2 154.15 63.3 153.1 63.3 152.9 63.45 150.5 63.2 147.7 61.85 149.1 56.35 153.85 51.5 158.3 47.75 161.9 51.75 161.35 57.2 160.8 Q60.15 160.6 63.0 160.7 L68.15 161.35 Q71.15 162.15 73.35 163.75 75.5 165.4 76.6 167.65 77.45 169.45 77.4 171.4 77.4 173.35 76.5 175.2 75.7 176.85 73.55 177.85 71.45 178.85 67.6 179.3 L61.85 179.7 54.1 179.9 45.35 179.85 36.55 179.65 28.65 179.3 22.7 178.9 Q20.85 178.65 20.1 177.05 19.65 176.1 19.7 175.1 19.7 174.15 19.95 173.35 20.15 172.5 20.6 171.9 22.75 168.85 25.6 165.8 28.5 162.8 31.55 160.15 L37.3 155.25 32.5 153.05 27.8 151.3 23.9 150.05 21.2 149.4 11.25 150.4 Q6.85 150.9 3.4 151.75 1.6 152.2 0.0 152.8 L0.0 118.7 4.25 115.95 8.1 113.3 Q7.8 111.8 7.8 110.35 7.85 109.4 8.7 109.05 L10.05 109.1 Q10.8 109.35 11.45 109.95 14.55 108.9 16.45 107.2 18.4 105.45 19.55 103.4 20.7 101.3 21.45 99.2 21.8 94.6 22.55 91.4 23.3 88.25 24.75 86.45 26.25 84.7 28.8 84.3 L31.8 84.55 Q33.05 85.05 33.9 85.85 L33.9 85.45 Q30.15 83.1 26.9 79.7 23.65 76.3 21.0 72.25 18.35 68.2 16.35 64.05 14.4 59.85 13.2 55.95 L13.1 55.3 Q13.05 54.95 13.3 54.75 L13.95 54.65 14.45 54.85 14.6 54.95 14.8 55.1 14.7 54.8 14.7 54.75 14.3 53.5 13.9 51.95 13.85 51.45 13.9 50.95 14.25 50.55 Q14.85 50.2 15.7 50.95 17.25 52.1 19.2 52.55 L23.2 52.75 Q25.2 52.45 26.95 51.65 28.65 50.85 29.7 49.6 L30.2 48.95 32.45 46.3 34.75 44.2 37.6 42.5 Q39.25 41.7 41.6 41.05 L39.15 36.1 Q37.8 33.1 36.4 29.5 L33.7 21.85 Q32.4 17.85 31.55 13.85 30.65 9.8 30.4 6.05 L30.35 5.2 Q30.35 3.35 30.9 2.15 31.5 0.9 32.6 0.35 34.0 -0.3 35.8 0.35 37.6 1.0 39.6 2.85 41.6 4.75 43.7 8.1 45.8 11.45 47.65 16.15 49.45 20.9 50.7 27.0 51.95 33.05 52.25 40.45 56.5 41.4 59.75 43.55 L59.95 37.4 Q60.2 34.3 60.6 31.3 L61.6 25.65 Q61.95 24.05 62.7 23.15 63.4 22.25 64.4 22.2 65.45 22.2 66.3 23.1 67.15 24.05 67.65 25.75 68.55 28.9 68.55 33.45 68.55 37.1 67.95 41.35 67.4 45.6 66.25 50.25 L66.75 50.95 67.45 52.05 67.9 52.75 Q70.25 52.95 71.1 54.3 71.4 54.75 71.4 55.55 L71.0 57.25 Q71.45 59.1 71.45 61.35 71.45 66.0 69.4 72.45 L69.3 72.75 69.15 73.3 Q71.05 75.9 71.05 78.6 71.05 80.35 70.25 82.05 L68.95 84.2 71.1 84.75 79.25 86.8 Q81.2 84.0 83.55 82.0 L87.8 78.65 92.7 74.1 Q94.85 71.8 95.1 68.0 L95.45 63.45" fill="#ffffff" fill-rule="evenodd" stroke="none"/>
  </g>
</svg>
