<?xml version="1.0" encoding="UTF-8" standalone="no"?>
<svg xmlns:xlink="http://www.w3.org/1999/xlink" height="175.7px" width="115.8px" xmlns="http://www.w3.org/2000/svg">
  <g transform="matrix(1.0, 0.0, 0.0, 1.0, 57.9, 87.85)">
    <path d="M-0.95 -4.85 L0.6 -2.0 1.7 1.0 2.65 0.5 Q3.25 0.15 3.7 -0.05 L4.2 -0.35 Q6.2 -1.45 7.75 -2.15 L5.9 -2.6 Q2.7 -3.5 -0.95 -4.85 M3.45 -21.45 L3.45 -21.4 3.35 -21.25 3.2 -21.1 Q2.2 -18.5 0.0 -16.55 -2.15 -14.55 -5.4 -13.4 L-0.2 -11.7 4.5 -10.25 7.75 -9.35 9.2 -9.5 Q9.65 -9.85 9.8 -10.7 L8.65 -11.45 7.95 -12.15 Q7.5 -12.65 7.5 -13.4 L7.55 -13.9 Q5.95 -14.65 5.2 -16.25 4.8 -17.25 4.8 -18.35 4.8 -19.25 5.1 -20.25 L4.75 -20.35 Q4.4 -20.55 4.3 -20.95 L4.2 -21.85 4.15 -23.25 3.85 -22.25 3.45 -21.45 M-39.35 -40.75 L-38.1 -45.4 Q-37.2 -47.9 -35.7 -50.35 L-35.6 -50.55 -35.3 -50.95 Q-37.2 -51.15 -38.95 -51.8 -39.6 -49.15 -41.45 -47.5 L-41.4 -46.7 -41.4 -46.2 Q-41.2 -41.15 -39.85 -36.65 L-39.35 -40.75 M4.8 -38.75 L5.55 -40.25 6.15 -41.45 4.45 -41.6 4.8 -38.75 M44.15 -73.7 Q46.9 -71.55 49.7 -68.15 52.7 -64.45 54.65 -60.5 56.6 -56.5 57.4 -52.6 58.2 -48.65 57.7 -45.1 57.3 -42.3 56.1 -40.1 54.95 -37.95 53.1 -36.6 L52.7 -36.4 52.0 -35.95 51.6 -35.7 41.7 -31.15 41.45 -31.15 Q37.7 -31.4 33.85 -33.35 L33.0 -33.05 31.45 -32.55 29.85 -32.0 28.85 -31.7 28.9 -30.75 28.9 -29.55 28.9 -28.95 28.95 -28.5 28.75 -27.35 27.9 -26.35 26.6 -25.75 26.7 -24.1 Q26.7 -21.85 26.1 -19.7 25.55 -17.55 24.5 -15.85 23.5 -14.15 22.15 -13.25 22.05 -11.95 21.05 -10.95 20.0 -10.0 18.2 -9.55 17.8 -7.5 16.95 -5.7 16.15 -3.95 14.4 -2.85 L14.25 -2.75 16.25 -2.1 Q17.35 -1.55 18.05 -0.7 18.75 0.2 19.0 1.25 L19.25 3.6 19.05 6.25 18.6 8.75 Q20.6 7.5 23.3 6.85 L29.1 6.6 Q32.25 7.05 35.55 8.95 38.3 10.6 40.0 13.35 41.75 16.05 42.25 19.45 42.85 24.1 41.1 28.8 39.3 33.45 35.3 37.75 31.15 42.1 27.25 44.7 23.3 47.3 19.8 48.6 L13.7 50.35 7.15 50.65 Q4.2 50.4 2.0 49.6 -0.25 48.75 -1.6 47.7 -3.8 46.05 -4.85 43.8 -5.95 41.55 -5.95 38.85 -5.95 36.45 -5.1 33.9 -4.2 31.3 -2.5 28.65 L-2.6 27.85 Q-2.6 26.55 -2.1 25.25 L-0.85 22.75 0.65 20.6 -0.4 20.85 -3.35 21.7 Q-5.25 22.25 -8.2 23.65 L-9.0 26.85 -9.7 30.9 -9.75 31.05 -10.85 32.7 Q-10.5 35.95 -9.5 39.2 -8.55 42.45 -7.3 45.35 L-4.8 50.6 -1.9 55.35 0.75 59.5 3.25 64.05 Q4.45 66.35 5.15 68.7 5.85 71.0 5.9 73.25 5.9 75.65 4.8 77.85 4.1 79.0 3.0 79.9 L0.6 81.3 -1.95 82.1 -5.0 82.3 Q-6.35 82.2 -7.15 81.6 -7.45 81.35 -7.3 81.0 -7.1 80.65 -6.7 80.7 L-4.35 80.75 -1.4 80.1 1.3 78.8 Q2.5 77.95 3.05 76.85 3.65 75.35 3.65 73.65 3.65 71.6 2.9 69.3 2.15 67.05 1.0 64.75 L-1.6 60.2 -4.25 55.95 -5.75 53.65 -7.05 51.55 -9.5 46.5 -11.65 40.75 -13.2 34.85 -15.2 36.05 -15.2 38.25 -15.2 40.55 -15.15 43.1 Q-13.95 44.0 -13.55 45.0 -12.15 45.55 -10.9 46.85 -9.65 48.2 -8.65 50.25 -7.5 52.65 -6.95 55.45 -6.35 58.25 -6.35 61.3 -6.35 64.55 -7.0 67.95 -7.65 71.35 -8.9 74.75 -10.4 78.6 -13.15 81.6 -15.85 84.55 -19.3 86.2 -22.75 87.9 -26.4 87.85 -29.25 87.8 -31.75 86.65 -34.25 85.45 -36.1 83.35 -37.6 81.55 -38.4 79.4 -39.2 77.2 -39.2 74.8 L-39.05 72.8 Q-38.55 69.45 -37.25 66.55 -35.95 63.6 -34.15 60.95 L-30.4 55.75 -29.95 55.15 -28.95 53.8 -27.95 52.45 -27.5 51.8 -26.7 50.5 -26.05 49.15 -25.1 46.3 Q-24.55 45.2 -23.8 44.5 L-23.8 43.95 -23.8 43.2 -23.75 42.85 -23.75 42.2 -23.7 40.6 -23.65 38.7 -23.6 37.0 -23.55 36.05 Q-25.6 35.15 -27.7 33.25 L-29.25 31.2 -30.4 28.7 -30.85 25.9 -30.75 24.5 -30.65 24.3 -27.35 19.45 -26.95 18.85 -26.65 18.4 -26.55 16.1 Q-26.55 13.65 -26.9 10.45 -27.25 7.2 -28.05 3.45 -28.8 -0.65 -30.05 -4.25 -31.3 -7.9 -32.95 -10.85 -34.05 -12.45 -36.3 -14.95 L-40.6 -20.05 Q-42.95 -23.0 -45.25 -26.8 -47.55 -30.6 -49.4 -35.4 -51.2 -40.2 -52.1 -46.1 L-53.15 -46.8 Q-54.55 -48.1 -55.05 -49.3 -55.5 -50.5 -55.45 -51.35 L-55.35 -52.45 -55.8 -53.95 -56.4 -56.05 -57.0 -58.25 -57.45 -60.0 -57.9 -66.9 Q-57.9 -71.6 -56.95 -75.15 -56.0 -78.7 -54.25 -80.95 -52.45 -83.2 -49.8 -84.0 -46.25 -85.0 -42.4 -83.6 -40.25 -85.45 -37.9 -86.55 -35.5 -87.6 -33.1 -87.8 -30.7 -88.0 -28.55 -87.25 -26.3 -86.45 -24.6 -84.55 -22.85 -82.65 -21.75 -80.0 -20.6 -77.4 -20.05 -74.3 -19.45 -71.25 -19.45 -68.0 -19.45 -65.9 -19.75 -63.8 -18.65 -63.8 -17.6 -63.2 L-15.65 -61.75 -14.0 -59.8 -13.75 -59.45 -13.45 -58.95 Q-10.5 -58.35 -8.25 -57.4 L-4.6 -55.6 -4.15 -60.35 Q-3.75 -62.8 -2.95 -65.1 -2.15 -67.35 -0.9 -69.25 0.3 -71.15 1.9 -72.4 5.3 -74.9 9.4 -73.55 11.15 -73.0 12.55 -71.75 13.95 -70.55 15.0 -68.8 L16.4 -71.05 18.0 -73.45 19.15 -75.15 19.35 -75.5 19.55 -75.8 20.15 -76.55 20.75 -77.15 Q22.4 -78.55 24.9 -79.15 L30.5 -79.5 34.15 -78.9 Q36.3 -78.35 38.85 -77.1 41.4 -75.9 44.15 -73.7" fill="#ffffff" fill-rule="evenodd" stroke="none"/>
  </g>
</svg>
