<?xml version="1.0" encoding="UTF-8" standalone="no"?>
<svg xmlns:xlink="http://www.w3.org/1999/xlink" height="129.5px" width="115.8px" xmlns="http://www.w3.org/2000/svg">
  <g transform="matrix(1.0, 0.0, 0.0, 1.0, 0.0, 0.0)">
    <path d="M22.6 36.9 L18.95 36.1 Q18.3 38.7 16.45 40.4 L16.5 41.15 16.5 41.65 Q16.7 46.75 18.05 51.25 18.15 49.4 18.55 47.15 18.95 44.9 19.8 42.45 20.7 39.95 22.2 37.5 L22.3 37.35 22.6 36.9 M65.65 85.7 L63.8 85.25 56.95 83.0 58.5 85.85 59.6 88.85 60.55 88.35 61.6 87.8 62.1 87.5 65.65 85.7 M61.25 66.6 L61.1 66.75 Q60.1 69.35 57.9 71.3 55.75 73.25 52.5 74.45 L57.7 76.15 62.4 77.6 65.65 78.5 67.1 78.35 Q67.55 78.0 67.7 77.15 L66.55 76.4 65.85 75.7 Q65.4 75.2 65.4 74.45 L65.45 73.95 Q63.85 73.15 63.1 71.6 62.7 70.6 62.7 69.5 62.7 68.6 63.0 67.6 L62.65 67.5 62.2 66.9 62.1 66.0 62.05 64.6 61.75 65.6 61.35 66.4 61.35 66.45 61.25 66.6 M62.7 49.15 L63.45 47.6 64.05 46.45 62.35 46.3 62.7 49.15 M102.05 14.15 Q104.8 16.35 107.6 19.7 110.6 23.45 112.55 27.4 114.5 31.35 115.3 35.3 116.1 39.2 115.6 42.75 115.2 45.55 114.0 47.75 112.85 49.9 111.0 51.25 L110.6 51.5 109.9 51.95 109.5 52.2 99.6 56.7 99.35 56.75 Q95.6 56.45 91.75 54.55 L90.9 54.8 89.35 55.35 87.75 55.85 86.75 56.2 86.8 57.15 86.8 58.35 86.8 58.9 86.85 59.35 86.65 60.5 85.8 61.5 84.5 62.1 84.6 63.75 Q84.6 66.0 84.0 68.15 83.45 70.3 82.4 72.0 81.4 73.7 80.05 74.6 79.95 75.9 78.95 76.9 77.9 77.85 76.1 78.3 L74.85 82.15 Q74.05 83.9 72.3 85.0 L72.15 85.1 Q73.2 85.25 74.15 85.75 75.25 86.3 75.95 87.15 76.65 88.05 76.9 89.1 L77.15 91.45 76.95 94.1 76.5 96.6 Q78.5 95.35 81.2 94.7 L87.0 94.45 Q90.15 94.9 93.45 96.8 96.2 98.45 97.9 101.2 99.65 103.9 100.15 107.3 100.75 111.95 99.0 116.65 97.2 121.3 93.2 125.6 L89.15 129.5 52.3 129.5 Q51.95 128.15 51.95 126.7 51.95 124.35 52.8 121.75 53.7 119.15 55.4 116.5 L55.3 115.7 Q55.3 114.4 55.8 113.1 L57.05 110.6 58.55 108.45 57.5 108.7 54.55 109.55 Q52.65 110.1 49.7 111.5 L48.9 114.7 48.2 118.75 48.15 118.95 47.05 120.55 Q47.4 123.85 48.4 127.1 L49.15 129.5 46.55 129.5 46.25 128.6 Q45.3 125.6 44.7 122.75 L42.7 123.95 42.7 126.15 42.7 128.45 42.7 129.5 34.15 129.5 34.2 128.5 34.25 126.55 34.3 124.85 34.35 123.9 Q32.3 123.0 30.2 121.15 L28.65 119.1 Q27.95 117.95 27.5 116.55 27.05 115.2 27.05 113.75 L27.15 112.35 27.25 112.15 30.55 107.3 30.95 106.7 31.25 106.25 31.35 103.95 31.0 98.3 29.85 91.3 Q29.1 87.2 27.85 83.6 26.6 79.95 24.95 77.0 L21.6 72.9 17.3 67.8 Q14.95 64.85 12.65 61.05 10.35 57.25 8.5 52.45 6.7 47.65 5.8 41.8 L4.75 41.1 Q3.35 39.75 2.85 38.6 2.4 37.4 2.45 36.5 L2.55 35.4 2.1 33.95 1.5 31.8 0.9 29.6 0.45 27.85 Q0.0 24.2 0.0 20.95 0.0 16.3 0.95 12.7 1.9 9.15 3.65 6.9 5.45 4.65 8.1 3.9 11.65 2.85 15.5 4.3 17.65 2.4 20.0 1.35 22.4 0.25 24.8 0.05 27.2 -0.15 29.35 0.6 31.6 1.45 33.3 3.35 35.05 5.25 36.15 7.85 37.3 10.5 37.85 13.55 38.45 16.65 38.45 19.85 L38.15 24.05 Q39.25 24.1 40.3 24.65 L42.25 26.15 43.9 28.1 44.15 28.4 44.45 28.95 Q47.4 29.5 49.65 30.45 L53.3 32.25 Q53.3 29.95 53.75 27.5 54.15 25.1 54.95 22.8 55.75 20.5 57.0 18.6 58.2 16.7 59.8 15.45 63.2 12.95 67.3 14.3 69.05 14.9 70.45 16.1 71.85 17.3 72.9 19.05 L74.3 16.85 75.9 14.45 77.05 12.7 77.25 12.4 77.45 12.1 78.05 11.35 78.65 10.75 Q80.3 9.35 82.8 8.75 L88.4 8.35 92.05 9.0 Q94.2 9.55 96.75 10.75 99.3 12.0 102.05 14.15" fill="#ffffff" fill-rule="evenodd" stroke="none"/>
  </g>
</svg>
