<?xml version="1.0" encoding="UTF-8" standalone="no"?>
<svg xmlns:xlink="http://www.w3.org/1999/xlink" height="79.8px" width="99.25px" xmlns="http://www.w3.org/2000/svg">
  <g transform="matrix(1.0, 0.0, 0.0, 1.0, 67.35, 15.8)">
    <path d="M30.15 -13.85 Q29.6 -13.0 28.6 -12.7 27.35 -13.1 27.35 -14.3 27.35 -15.35 28.6 -15.8 L30.15 -13.85 M31.9 9.75 Q31.9 12.2 28.6 13.2 24.95 14.3 15.7 14.3 14.1 14.3 12.4 13.45 12.2 14.15 12.2 12.75 12.2 12.4 13.25 12.15 13.7 10.35 17.5 9.15 L14.95 8.9 Q14.0 8.75 11.2 7.55 L10.9 7.15 23.75 6.4 Q24.8 5.55 26.1 5.55 31.15 5.55 30.85 7.4 31.9 8.05 31.9 9.75 M2.3 14.4 Q1.2 15.45 -4.7 17.75 -8.9 19.4 -9.35 20.95 -5.55 19.45 -3.55 19.0 L-2.6 19.35 -2.45 19.8 Q-7.4 21.8 -17.25 27.75 L-27.6 33.9 -28.6 35.6 Q-30.2 37.95 -33.4 37.95 -36.65 37.95 -37.5 36.1 -37.7 35.65 -37.7 33.95 -37.7 27.35 -22.3 21.8 -4.2 16.5 1.1 13.85 L2.3 14.4 M25.95 30.0 L26.4 30.85 Q26.05 32.0 24.75 32.0 L23.55 31.35 Q24.2 30.1 25.0 29.75 L25.95 30.0 M0.15 52.25 Q-0.9 53.45 -2.45 53.45 -4.5 53.45 -4.5 51.05 -4.5 50.05 -3.7 48.95 -2.75 47.7 -1.35 47.7 1.1 47.7 1.1 50.05 1.1 51.2 0.15 52.25 M-8.1 -8.8 Q-7.7 -8.7 -7.7 -7.35 -7.7 -5.3 -11.1 -4.6 -12.7 -5.9 -12.7 -6.3 -12.7 -9.75 -10.0 -9.05 L-8.1 -8.8 M-39.8 9.55 Q-39.8 10.6 -40.5 10.9 L-42.05 11.3 Q-43.45 10.8 -43.45 9.1 L-43.2 7.8 Q-43.45 7.55 -42.05 7.55 -40.35 7.55 -39.9 8.5 -39.7 9.0 -39.8 9.55 M-49.95 54.15 Q-49.15 53.35 -48.25 53.35 -47.5 53.35 -46.85 54.35 L-46.4 55.45 Q-46.4 55.85 -46.75 56.95 L-48.5 57.4 Q-50.65 57.4 -50.65 55.4 -50.65 54.9 -49.95 54.15 M-62.8 58.6 L-61.9 58.9 Q-61.45 59.15 -61.45 60.0 -61.45 61.4 -63.25 62.75 -64.85 64.0 -65.9 64.0 L-67.35 63.7 Q-67.35 61.6 -65.2 59.95 -63.9 58.9 -62.8 58.6" fill="#d5ffff" fill-rule="evenodd" stroke="none"/>
  </g>
</svg>
