<?xml version="1.0" encoding="UTF-8" standalone="no"?>
<svg xmlns:xlink="http://www.w3.org/1999/xlink" height="50.45px" width="59.7px" xmlns="http://www.w3.org/2000/svg">
  <g transform="matrix(1.0, 0.0, 0.0, 1.0, 51.6, -15.25)">
    <path d="M8.1 62.6 Q7.35 64.0 6.15 64.65 L4.7 62.7 Q4.7 61.75 5.05 61.55 L6.45 61.45 Q7.35 61.45 8.1 62.6 M-30.0 36.4 Q-30.0 37.5 -32.5 39.05 -33.85 38.45 -33.85 37.25 -33.85 35.95 -31.65 35.05 L-30.25 35.3 -30.0 36.4 M-33.3 47.85 Q-32.45 44.55 -27.55 40.15 -22.6 35.75 -18.2 34.35 -17.9 34.75 -17.9 35.4 -17.9 36.2 -22.45 40.4 L-22.4 40.4 Q-21.2 40.4 -20.5 41.6 L-20.5 41.65 Q-17.85 39.4 -16.6 39.7 L-18.55 42.2 Q-19.25 43.0 -20.25 43.45 -20.75 44.85 -22.95 47.45 -26.1 51.15 -28.6 51.15 -33.2 51.15 -33.2 48.7 L-33.1 47.95 -33.3 47.85 M-38.45 46.2 Q-38.15 46.85 -38.15 47.4 -38.15 48.6 -39.1 49.1 L-42.05 49.95 -42.9 49.75 Q-43.2 49.65 -43.2 48.8 -43.2 47.85 -42.55 46.75 -41.6 45.1 -39.8 45.1 -38.9 45.1 -38.45 46.2 M-4.5 40.45 Q-4.5 41.0 -5.25 41.9 -6.15 43.0 -7.25 43.0 L-9.2 42.35 -9.35 41.1 Q-9.35 40.25 -8.65 39.35 -7.85 38.25 -6.65 38.25 -4.7 38.25 -4.5 40.45 M-46.75 17.25 L-47.0 18.45 Q-47.3 18.45 -48.25 18.9 -50.3 18.9 -51.6 17.25 -50.35 15.8 -48.25 15.25 -46.75 16.6 -46.75 17.25 M-42.05 61.8 Q-42.05 60.35 -40.15 60.35 -39.2 60.35 -38.4 61.45 -39.4 63.15 -40.15 63.15 -40.95 63.15 -41.8 62.45 -42.05 63.15 -42.05 61.8 M-27.2 60.7 Q-26.6 61.75 -26.6 62.55 -26.6 63.6 -27.9 64.65 -29.2 65.7 -30.25 65.7 -32.9 65.7 -32.75 61.35 -32.75 58.95 -30.25 58.95 -28.25 58.95 -27.2 60.7 M-20.55 59.1 Q-20.3 59.7 -20.35 60.35 -20.35 61.15 -20.75 61.85 -21.55 63.1 -23.5 63.15 -25.05 62.6 -25.05 60.75 -25.05 60.1 -24.3 59.15 -23.4 57.95 -22.4 57.95 -21.0 57.95 -20.55 59.1" fill="#d5ffff" fill-rule="evenodd" stroke="none"/>
  </g>
</svg>
