<?xml version="1.0" encoding="UTF-8" standalone="no"?>
<svg xmlns:xlink="http://www.w3.org/1999/xlink" height="44.7px" width="78.1px" xmlns="http://www.w3.org/2000/svg">
  <g transform="matrix(1.0, 0.0, 0.0, 1.0, 72.6, -33.4)">
    <path d="M5.15 75.1 L5.35 75.0 5.5 75.95 4.7 77.6 3.9 78.1 3.1 77.8 Q2.8 77.6 2.8 76.7 2.8 75.35 4.15 74.8 L5.15 75.1 M-68.6 35.3 L-69.15 36.25 Q-69.5 36.9 -70.45 36.9 -72.45 36.9 -72.6 34.7 -72.6 33.4 -70.15 33.4 -69.3 33.4 -68.6 35.3 M-18.05 55.65 Q-18.35 55.8 -18.35 54.45 -18.35 53.55 -16.2 52.0 L-14.7 54.0 -14.85 55.3 -15.2 55.65 Q-15.7 56.0 -16.55 56.0 L-18.05 55.65 M-34.35 72.85 Q-34.2 73.2 -34.2 74.0 -34.2 74.85 -34.75 75.95 L-35.85 76.35 Q-37.5 76.0 -37.5 74.15 -37.5 71.8 -35.85 71.8 -34.7 71.8 -34.35 72.85" fill="#d5ffff" fill-rule="evenodd" stroke="none"/>
  </g>
</svg>
