<?xml version="1.0" encoding="UTF-8" standalone="no"?>
<svg xmlns:xlink="http://www.w3.org/1999/xlink" height="50.95px" width="74.1px" xmlns="http://www.w3.org/2000/svg">
  <g transform="matrix(1.0, 0.0, 0.0, 1.0, 79.8, -33.5)">
    <path d="M-21.45 41.25 Q-21.45 42.3 -22.5 42.3 L-23.45 42.15 -23.55 41.4 Q-23.55 40.2 -22.2 40.2 -21.45 40.2 -21.45 41.25 M-5.75 36.3 L-5.7 37.0 Q-5.7 38.4 -7.05 38.4 -8.1 38.4 -8.1 37.2 -8.1 35.7 -6.75 35.7 -6.0 35.7 -5.75 36.3 M-46.05 35.4 Q-46.05 36.9 -48.1 36.9 -50.05 36.9 -49.55 35.15 -49.55 33.5 -48.3 33.5 -46.05 33.5 -46.05 35.4 M-57.05 48.65 L-56.85 49.35 Q-56.85 50.45 -58.1 50.45 -59.55 50.45 -59.45 49.05 -59.45 48.05 -58.4 48.05 -57.4 48.05 -57.05 48.65 M-43.35 45.8 L-46.35 47.75 Q-49.95 50.5 -52.7 55.5 L-54.9 59.9 Q-57.6 63.9 -61.35 63.9 -64.35 63.9 -64.65 60.0 -64.65 55.9 -58.35 52.1 -54.85 50.0 -43.8 45.3 L-43.35 45.8 M-40.55 60.9 Q-38.8 60.9 -38.45 62.05 -38.25 62.65 -38.4 63.3 -38.4 65.25 -40.75 65.25 -42.7 65.25 -43.05 63.15 -43.05 60.9 -40.55 60.9 M-75.75 54.2 L-75.6 55.1 Q-75.6 57.3 -77.85 57.3 -79.95 57.3 -79.8 55.2 -79.8 53.4 -77.4 53.4 -76.15 53.4 -75.75 54.2 M-63.9 81.95 L-63.6 82.95 Q-63.6 84.45 -65.45 84.45 -67.65 84.45 -67.4 82.8 -67.4 80.9 -65.4 80.9 -64.45 80.9 -63.9 81.95" fill="#87f8ec" fill-rule="evenodd" stroke="none"/>
  </g>
</svg>
