<?xml version="1.0" encoding="UTF-8" standalone="no"?>
<svg xmlns:xlink="http://www.w3.org/1999/xlink" height="58.55px" width="73.05px" xmlns="http://www.w3.org/2000/svg">
  <g transform="matrix(1.0, 0.0, 0.0, 1.0, 97.95, -38.85)">
    <path d="M-25.05 39.6 L-24.9 40.4 Q-24.9 41.4 -26.3 41.4 -27.9 41.4 -27.45 40.1 -27.45 38.85 -25.8 38.85 -25.35 38.85 -25.05 39.6 M-58.05 47.9 L-57.75 49.2 Q-57.75 50.05 -58.55 50.85 -59.5 51.75 -60.85 51.75 -63.0 51.75 -62.75 49.5 -62.75 46.65 -60.25 46.65 -58.7 46.65 -58.05 47.9 M-72.45 46.95 L-72.3 47.95 Q-72.3 49.25 -73.35 49.25 -74.8 49.25 -74.7 47.4 -74.7 46.05 -73.55 46.05 -72.8 46.05 -72.45 46.95 M-51.05 63.3 Q-51.05 64.7 -53.1 64.7 -55.2 64.7 -54.75 63.2 -54.75 60.45 -53.3 60.45 -51.85 60.45 -51.3 61.8 -51.05 62.5 -51.05 63.3 M-61.8 66.8 Q-61.8 68.05 -63.3 69.6 -65.05 71.4 -67.4 71.4 -72.85 71.4 -71.9 66.25 -71.9 64.7 -70.8 63.15 -69.2 60.9 -66.3 60.9 -63.9 60.9 -62.6 63.8 -61.95 65.3 -61.8 66.8 M-62.25 96.25 Q-62.25 95.15 -61.05 95.15 L-60.0 96.25 Q-60.0 97.0 -60.15 97.05 L-61.2 97.4 Q-62.25 97.4 -62.25 96.25 M-95.6 85.3 Q-95.6 86.3 -96.6 86.3 -97.95 86.3 -97.95 84.9 -97.95 83.85 -96.95 83.85 -95.6 83.85 -95.6 85.3" fill="#87f8ec" fill-rule="evenodd" stroke="none"/>
  </g>
</svg>
