<?xml version="1.0" encoding="UTF-8" standalone="no"?>
<svg xmlns:xlink="http://www.w3.org/1999/xlink" height="90.8px" width="343.4px" xmlns="http://www.w3.org/2000/svg">
  <g transform="matrix(1.0, 0.0, 0.0, 1.0, 177.85, -49.55)">
    <path d="M115.25 62.85 Q165.5 76.1 165.55 94.95 165.5 113.75 115.25 127.05 102.15 130.5 87.65 133.1 57.3 138.4 20.8 139.85 7.7 140.35 -6.15 140.35 -20.95 140.3 -34.8 139.75 -69.45 138.3 -98.45 133.3 -113.8 130.65 -127.6 127.05 -177.85 113.75 -177.85 94.95 -177.85 76.1 -127.6 62.85 -113.8 59.2 -98.45 56.55 -69.45 51.55 -34.8 50.15 -20.95 49.55 -6.15 49.55 7.7 49.55 20.8 50.05 57.3 51.45 87.65 56.8 102.15 59.35 115.25 62.85" fill="url(#gradient0)" fill-rule="evenodd" stroke="none"/>
  </g>
  <defs>
    <linearGradient gradientTransform="matrix(0.0, -0.0511, 0.2096, 0.0, -6.15, 90.6)" gradientUnits="userSpaceOnUse" id="gradient0" spreadMethod="pad" x1="-819.2" x2="819.2">
      <stop offset="0.0" stop-color="#330000"/>
      <stop offset="1.0" stop-color="#330000" stop-opacity="0.0"/>
    </linearGradient>
  </defs>
</svg>
