<?xml version="1.0" encoding="UTF-8" standalone="no"?>
<svg xmlns:xlink="http://www.w3.org/1999/xlink" height="116.0px" width="148.0px" xmlns="http://www.w3.org/2000/svg">
  <g transform="matrix(1.0, 0.0, 0.0, 1.0, -2.5, 0.0)">
    <path d="M146.1 10.8 L146.25 10.8 146.1 10.8 M146.65 9.15 L146.95 10.9 Q150.5 31.5 150.5 58.55 150.5 82.55 147.1 104.3 L146.65 107.05 Q116.8 115.75 76.75 116.0 35.45 116.0 6.05 107.05 L5.5 103.5 Q2.5 83.4 2.5 58.55 2.5 30.4 5.65 11.05 L5.95 9.7 6.05 9.0 Q35.4 -0.05 76.75 0.0 116.0 -0.05 146.65 9.0 L146.65 9.15" fill="#0000ff" fill-rule="evenodd" stroke="none"/>
  </g>
</svg>
