<?xml version="1.0" encoding="UTF-8" standalone="no"?>
<svg xmlns:xlink="http://www.w3.org/1999/xlink" height="96.6px" width="303.5px" xmlns="http://www.w3.org/2000/svg">
  <g transform="matrix(1.0, 0.0, 0.0, 1.0, -19.8, -34.55)">
    <path d="M183.2 78.95 L192.75 79.3 Q197.7 80.6 202.35 84.35 207.0 88.1 210.7 94.25 214.4 100.4 216.5 109.05 L239.75 110.4 259.05 112.3 Q267.5 113.4 272.75 114.8 277.95 116.25 279.15 118.1 280.3 119.95 276.55 122.35 L296.5 124.8 312.15 126.85 321.55 128.45 Q324.4 129.1 322.55 129.4 L313.1 129.7 296.45 128.85 271.9 126.4 Q262.45 129.5 252.0 130.55 241.55 131.6 231.05 130.85 220.55 130.15 211.1 127.85 201.65 125.55 194.25 121.95 188.5 124.45 180.2 126.4 171.9 128.4 161.9 129.55 L141.2 130.6 Q130.4 130.6 119.65 129.0 108.9 127.45 99.05 124.0 89.2 120.6 81.05 114.95 70.55 117.95 60.55 117.1 50.6 116.2 42.2 112.6 33.85 109.0 28.15 103.65 22.45 98.35 20.55 92.4 18.65 86.4 21.55 80.9 24.5 75.35 33.35 71.35 42.25 67.3 58.1 65.85 57.1 58.1 59.7 52.15 62.3 46.25 67.7 42.3 73.05 38.3 80.45 36.35 87.85 34.4 96.5 34.55 105.1 34.7 114.1 37.0 123.15 39.25 131.8 43.8 140.45 48.35 147.95 55.2 155.45 62.0 161.0 71.25 166.55 80.45 169.3 92.15 171.3 86.6 174.95 83.3 178.6 79.95 183.2 78.95" fill="url(#gradient0)" fill-rule="evenodd" stroke="none"/>
  </g>
  <defs>
    <linearGradient gradientTransform="matrix(0.2131, 0.0832, -0.0214, 0.0549, 122.45, 49.4)" gradientUnits="userSpaceOnUse" id="gradient0" x1="-819.2" x2="819.2">
      <stop offset="0.0" stop-color="#5de1ed"/>
      <stop offset="1.0" stop-color="#ffffff"/>
    </linearGradient>
  </defs>
</svg>
