<?xml version="1.0" encoding="UTF-8" standalone="no"?>
<svg xmlns:xlink="http://www.w3.org/1999/xlink" height="127.8px" width="930.0px" xmlns="http://www.w3.org/2000/svg">
  <g transform="matrix(1.0, 0.0, 0.0, 1.0, 11.0, -25.75)">
    <path d="M889.85 31.25 Q898.05 35.4 904.45 42.1 910.85 48.8 914.85 57.65 918.75 66.5 918.95 74.85 919.25 83.15 916.6 90.5 914.0 97.95 909.3 103.95 904.6 110.05 898.55 114.25 892.5 118.55 885.85 120.7 879.25 122.75 872.8 122.3 866.4 121.85 860.9 118.45 850.05 127.5 839.9 133.3 829.7 139.15 820.7 141.95 811.7 144.75 804.3 144.75 796.95 144.8 791.7 142.3 786.35 139.75 783.65 135.0 773.9 142.75 765.5 147.0 757.05 151.35 750.25 152.75 743.45 154.1 738.5 153.05 733.55 152.0 730.75 149.05 727.95 146.05 727.55 141.65 716.25 144.6 709.95 145.1 703.65 145.5 701.7 144.2 699.75 142.8 701.5 140.35 703.2 137.9 707.85 135.05 712.55 132.25 719.45 129.8 726.4 127.3 734.9 125.85 736.4 120.2 738.65 115.05 740.9 109.9 743.95 105.75 746.95 101.55 750.8 98.8 754.5 96.05 759.1 95.3 763.65 94.45 769.0 96.1 773.5 85.15 780.95 81.0 788.5 76.9 798.6 79.8 806.1 64.2 815.0 53.35 823.9 42.6 833.65 36.25 843.3 29.8 853.15 27.4 863.0 25.0 872.3 26.05 881.65 27.1 889.85 31.25" fill="#feffff" fill-rule="evenodd" stroke="none"/>
    <path d="M895.05 79.85 Q898.15 86.0 898.6 92.3 899.05 98.55 897.35 104.3 895.6 109.95 892.15 114.35 888.6 118.75 883.7 121.05 878.85 123.35 873.05 122.9 867.25 122.45 860.9 118.45 850.0 127.55 839.85 133.35 829.7 139.15 820.7 141.95 811.7 144.75 804.3 144.8 796.9 144.8 791.65 142.35 786.35 139.85 783.65 135.05 773.85 142.75 765.45 147.05 757.0 151.35 750.25 152.75 L738.45 153.1 Q733.5 152.05 730.75 149.05 727.95 146.1 727.5 141.65 720.25 143.6 715.1 144.45 L706.75 145.25 700.65 144.7 Q699.25 144.25 700.85 143.5 702.45 142.7 706.65 141.7 L717.1 139.45 731.4 136.95 Q733.1 133.35 736.05 130.5 738.95 127.7 742.55 125.95 746.15 124.25 749.95 123.95 753.75 123.55 757.25 124.9 760.75 126.15 763.5 129.4 764.05 123.75 765.9 119.3 767.7 114.75 770.4 111.5 773.05 108.2 776.05 106.3 779.0 104.35 781.85 104.0 784.7 103.6 786.95 104.9 789.15 106.2 790.25 109.3 797.75 93.7 806.3 83.25 814.85 72.85 823.9 66.9 832.9 60.9 841.85 58.75 850.8 56.55 859.15 57.4 867.4 58.2 874.45 61.4 881.5 64.55 886.85 69.35 892.1 74.15 895.05 79.85" fill="url(#gradient0)" fill-rule="evenodd" stroke="none"/>
    <path d="M104.7 146.85 Q100.6 148.15 96.1 148.6 91.6 149.05 87.05 148.75 L78.45 147.45 Q74.35 146.45 71.2 144.9 68.2 146.2 63.65 147.15 L53.75 148.5 Q48.35 148.85 42.7 148.4 37.1 147.9 31.85 146.35 26.55 144.8 22.35 141.85 18.4 143.0 14.05 142.55 9.7 142.1 5.55 140.4 1.35 138.65 -2.15 136.05 -5.7 133.45 -8.0 130.25 -10.3 127.1 -10.85 123.65 -11.45 120.25 -9.8 116.95 -8.15 113.65 -3.7 110.8 0.75 108.0 8.4 105.95 7.95 102.2 9.55 99.4 11.1 96.6 14.2 94.85 17.3 93.1 21.4 92.45 25.55 91.8 30.15 92.3 34.75 92.8 39.35 94.5 43.95 96.25 47.95 99.2 51.95 102.2 54.9 106.5 57.9 110.8 59.25 116.4 60.35 113.55 62.8 112.2 65.25 110.9 68.55 111.3 71.85 111.7 75.35 113.9 78.9 116.1 82.0 120.2 85.15 124.3 87.3 130.5 94.0 130.85 99.2 132.35 104.4 133.85 107.65 135.85 110.95 137.85 111.75 139.85 112.65 141.8 110.65 143.15 L121.05 144.85 Q125.3 145.8 126.9 146.65 128.5 147.45 126.9 147.9 L119.9 148.2 104.7 146.85" fill="#ffffff" fill-rule="evenodd" stroke="none"/>
    <path d="M55.45 120.8 Q58.9 125.55 60.45 132.0 61.5 129.1 63.55 127.65 65.55 126.15 68.05 126.15 70.55 126.1 73.05 127.55 75.55 128.95 77.65 131.9 79.7 134.85 80.8 139.3 L93.1 140.1 102.45 141.25 Q106.2 141.9 107.45 142.85 108.7 143.75 106.7 145.05 L115.3 146.1 122.05 147.0 126.1 147.7 Q127.3 147.95 126.55 148.1 L122.45 148.2 115.3 147.85 104.7 146.8 Q100.6 148.15 96.1 148.6 91.55 149.05 87.1 148.7 L78.5 147.4 Q74.35 146.4 71.2 144.9 68.2 146.15 63.65 147.15 L53.75 148.45 Q48.35 148.8 42.75 148.35 37.05 147.9 31.85 146.35 26.6 144.75 22.4 141.85 17.1 143.35 12.15 142.65 7.2 141.9 3.35 139.7 -0.5 137.5 -2.5 134.6 -4.5 131.7 -3.9 128.75 -3.3 125.85 0.6 123.65 4.5 121.45 12.5 120.7 11.95 116.35 13.9 113.4 15.85 110.4 19.55 108.85 23.25 107.3 28.0 107.2 32.7 107.1 37.75 108.55 42.75 109.95 47.35 113.05 51.95 116.1 55.45 120.8" fill="url(#gradient1)" fill-rule="evenodd" stroke="none"/>
    <path d="M599.5 109.95 Q604.1 111.15 609.15 111.35 L619.25 110.75 Q624.25 109.9 628.75 108.4 633.2 106.8 636.65 104.6 640.1 105.95 645.2 106.7 L656.3 107.5 668.6 106.4 Q674.85 105.35 680.55 103.0 686.35 100.6 690.8 96.65 695.35 97.7 700.15 96.75 704.95 95.85 709.5 93.4 714.1 90.9 717.85 87.4 721.6 83.9 723.95 79.85 726.35 75.75 726.75 71.5 727.25 67.3 725.15 63.45 723.15 59.55 718.05 56.5 712.95 53.4 704.25 51.55 704.55 46.9 702.6 43.65 700.7 40.35 697.15 38.5 693.6 36.65 688.95 36.15 L679.25 36.8 Q674.15 37.8 669.15 40.3 664.15 42.8 659.8 46.8 655.55 50.75 652.55 56.3 649.5 61.8 648.25 68.8 646.9 65.35 644.1 63.95 641.25 62.6 637.6 63.4 634.0 64.15 630.2 67.1 626.4 70.1 623.2 75.4 619.95 80.7 617.85 88.45 610.5 89.5 604.75 91.75 599.05 94.0 595.5 96.75 592.05 99.5 591.2 102.0 590.3 104.45 592.65 105.95 585.8 107.4 581.15 108.9 576.5 110.4 574.75 111.6 573.0 112.75 574.85 113.15 L582.65 112.9 Q588.65 112.2 599.5 109.95" fill="#ffffff" fill-rule="evenodd" stroke="none"/>
    <path d="M652.8 73.9 Q649.25 80.0 647.9 87.95 646.55 84.55 644.2 82.95 641.9 81.25 639.1 81.5 636.3 81.65 633.65 83.65 630.9 85.6 628.75 89.35 626.65 93.15 625.65 98.7 L612.0 100.7 Q605.9 101.75 601.7 102.95 597.5 104.05 596.25 105.35 594.9 106.6 597.15 107.95 L587.65 110.0 580.2 111.7 575.7 112.9 Q574.45 113.3 575.25 113.45 L579.85 113.15 587.75 112.15 599.5 109.95 Q604.15 111.2 609.15 111.4 L619.2 110.75 Q624.25 109.95 628.7 108.4 633.3 106.8 636.7 104.7 640.1 105.95 645.25 106.8 L656.3 107.5 668.55 106.45 Q674.9 105.4 680.6 103.05 686.35 100.6 690.8 96.7 696.8 98.1 702.25 96.8 707.75 95.45 711.9 92.45 716.05 89.4 718.15 85.7 720.15 81.95 719.35 78.4 718.5 74.9 714.05 72.55 709.55 70.25 700.6 70.0 700.95 64.65 698.65 61.2 696.25 57.7 692.05 56.15 687.85 54.6 682.6 54.85 677.3 55.15 671.8 57.35 666.3 59.5 661.35 63.7 656.4 67.85 652.8 73.9" fill="url(#gradient2)" fill-rule="evenodd" stroke="none"/>
    <path d="M180.7 75.55 Q176.2 73.4 172.8 70.7 167.15 66.15 164.55 60.85 161.85 55.6 161.95 50.4 162.0 45.2 164.6 41.0 167.15 36.8 172.1 34.5 177.0 32.15 184.05 32.65 191.0 33.1 199.95 37.25 208.85 41.35 219.45 50.0 226.75 48.0 233.9 48.35 241.05 48.65 247.3 50.65 253.55 52.65 258.15 55.8 262.7 58.95 264.8 62.65 266.9 66.3 265.75 69.9 271.45 70.2 275.55 71.95 279.6 73.7 282.1 76.35 284.65 79.0 285.65 81.9 286.65 84.75 286.15 87.25 289.85 87.75 292.05 89.35 294.2 90.95 294.85 93.1 295.4 95.2 294.35 97.4 293.25 99.6 290.5 101.35 299.0 103.25 303.7 105.15 308.3 107.05 308.85 108.4 309.0 108.9 308.6 109.25 308.7 108.9 307.9 108.55 L304.25 107.35 298.4 106.0 291.25 104.65 283.8 103.4 Q286.0 102.0 286.05 100.75 286.1 99.5 284.6 98.3 283.05 97.1 280.5 96.15 277.9 95.2 274.85 94.5 L268.8 93.4 Q269.4 90.1 267.05 87.4 264.75 84.7 259.7 83.0 254.6 81.2 247.0 80.85 249.1 74.85 246.95 71.25 244.75 67.7 237.9 67.2 231.05 66.75 219.1 70.1 209.45 63.15 201.75 59.8 194.05 56.5 188.35 56.1 182.7 55.6 179.15 57.15 175.55 58.75 174.2 61.55 172.85 64.35 173.8 67.55 174.7 70.8 178.0 73.65 L180.7 75.55" fill="#feffff" fill-rule="evenodd" stroke="none"/>
    <path d="M308.6 109.25 L308.35 109.5 Q307.15 110.2 302.65 110.0 298.15 109.8 290.25 108.25 282.35 106.7 270.8 103.5 264.4 106.25 258.9 106.05 253.35 105.9 249.15 103.65 244.95 101.3 242.5 97.8 236.85 99.5 230.5 99.65 224.15 99.85 217.2 97.9 210.15 95.9 202.65 91.15 195.1 86.4 187.1 78.15 183.4 77.1 180.7 75.55 L178.0 73.65 Q174.7 70.8 173.8 67.55 172.85 64.35 174.2 61.55 175.55 58.75 179.15 57.15 182.7 55.6 188.35 56.1 194.05 56.5 201.75 59.8 209.45 63.15 219.1 70.1 231.05 66.75 237.9 67.2 244.75 67.7 246.95 71.25 249.1 74.85 247.0 80.85 254.6 81.2 259.7 83.0 264.75 84.7 267.05 87.4 269.4 90.1 268.8 93.4 L274.85 94.5 Q277.9 95.2 280.5 96.15 283.05 97.1 284.6 98.3 286.1 99.5 286.05 100.75 286.0 102.0 283.8 103.4 L291.25 104.65 298.4 106.0 304.25 107.35 307.9 108.55 Q308.7 108.9 308.6 109.25" fill="url(#gradient3)" fill-rule="evenodd" stroke="none"/>
  </g>
  <defs>
    <linearGradient gradientTransform="matrix(-0.0749, 0.026, -0.026, -0.0749, 865.75, 88.75)" gradientUnits="userSpaceOnUse" id="gradient0" x1="-819.2" x2="819.2">
      <stop offset="0.0" stop-color="#5de1ed"/>
      <stop offset="1.0" stop-color="#e6f6f9"/>
    </linearGradient>
    <linearGradient gradientTransform="matrix(0.175, 0.0521, -0.0135, 0.0453, -5.8, 119.05)" gradientUnits="userSpaceOnUse" id="gradient1" x1="-819.2" x2="819.2">
      <stop offset="0.0" stop-color="#5de1ed"/>
      <stop offset="1.0" stop-color="#e6f6f9"/>
    </linearGradient>
    <linearGradient gradientTransform="matrix(-0.1918, 0.0789, 0.0177, 0.0542, 720.85, 66.4)" gradientUnits="userSpaceOnUse" id="gradient2" x1="-819.2" x2="819.2">
      <stop offset="0.0" stop-color="#5de1ed"/>
      <stop offset="1.0" stop-color="#e6f6f9"/>
    </linearGradient>
    <linearGradient gradientTransform="matrix(0.0935, 0.059, -0.0109, 0.0379, 232.3, 81.05)" gradientUnits="userSpaceOnUse" id="gradient3" x1="-819.2" x2="819.2">
      <stop offset="0.0" stop-color="#5de1ed"/>
      <stop offset="1.0" stop-color="#e6f6f9"/>
    </linearGradient>
  </defs>
</svg>
