<?xml version="1.0" encoding="UTF-8" standalone="no"?>
<svg xmlns:xlink="http://www.w3.org/1999/xlink" height="210.0px" width="72.6px" xmlns="http://www.w3.org/2000/svg">
  <g transform="matrix(1.0, 0.0, 0.0, 1.0, 36.25, 105.0)">
    <path d="M32.9 -79.1 L28.75 -69.55 28.55 -69.6 27.55 -65.95 Q22.4 -46.75 19.55 -27.5 16.85 -9.0 15.75 14.6 14.2 32.75 14.2 51.05 14.2 69.45 15.5 87.85 L15.95 94.65 -21.1 105.0 -30.6 71.1 -32.25 60.25 Q-35.65 39.8 -36.0 19.05 L-36.25 -1.35 -36.2 -9.65 -36.25 -14.35 -36.2 -14.1 -36.15 -14.6 Q-34.65 -46.75 -31.15 -78.55 L-30.7 -82.45 -30.9 -82.5 -30.55 -87.45 32.9 -79.1 M19.15 -70.6 L22.6 -70.1 24.15 -73.85 -24.25 -81.85 -24.75 -77.2 -20.9 -76.6 Q-21.05 -74.15 -20.0 -72.0 -18.95 -69.7 -16.8 -68.3 L-16.7 -69.1 Q-16.35 -71.1 -15.45 -72.4 -14.6 -73.7 -13.65 -73.5 -12.7 -73.3 -12.25 -71.75 -11.85 -70.15 -12.15 -68.15 L-12.45 -66.95 Q-9.75 -66.95 -7.8 -68.7 -5.6 -70.6 -4.9 -74.2 L4.15 -72.85 Q3.85 -70.05 4.95 -67.95 5.95 -65.9 8.0 -64.9 L8.2 -65.95 Q8.65 -67.55 9.5 -68.45 10.35 -69.4 11.1 -69.1 11.85 -68.9 12.05 -67.6 12.2 -66.3 11.75 -64.7 L11.6 -64.25 Q14.4 -64.5 16.55 -66.5 18.25 -68.15 19.15 -70.6 M5.5 -53.5 L10.6 -52.9 1.2 10.75 2.4 11.0 12.05 -54.4 5.7 -55.2 5.5 -53.5 M-9.6 -56.6 L-9.7 -54.9 -3.1 -54.1 -6.0 -33.3 -3.9 -32.9 -0.75 -55.6 -9.6 -56.6 M-17.85 -56.45 L-19.0 -35.6 -17.55 -35.3 -16.35 -57.75 -22.65 -58.5 -22.7 -57.05 -17.85 -56.45" fill="url(#gradient0)" fill-rule="evenodd" stroke="none"/>
    <path d="M-30.55 -87.45 L-29.95 -105.0 36.35 -89.75 32.9 -79.1 -30.55 -87.45 M-20.9 -76.6 L-24.75 -77.2 -24.25 -81.85 24.15 -73.85 22.6 -70.1 19.15 -70.6 4.15 -72.85 -4.9 -74.2 -20.9 -76.6 M-9.6 -56.6 L-0.75 -55.6 -3.9 -32.9 -6.0 -33.3 -3.1 -54.1 -9.7 -54.9 -9.6 -56.6 M5.5 -53.5 L5.7 -55.2 12.05 -54.4 2.4 11.0 1.2 10.75 10.6 -52.9 5.5 -53.5 M-17.85 -56.45 L-22.7 -57.05 -22.65 -58.5 -16.35 -57.75 -17.55 -35.3 -19.0 -35.6 -17.85 -56.45" fill="url(#gradient1)" fill-rule="evenodd" stroke="none"/>
    <path d="M19.15 -70.6 Q18.25 -68.15 16.55 -66.5 14.4 -64.5 11.6 -64.25 L11.75 -64.7 Q12.2 -66.3 12.05 -67.6 11.85 -68.9 11.1 -69.1 10.35 -69.4 9.5 -68.45 8.65 -67.55 8.2 -65.95 L8.0 -64.9 Q5.95 -65.9 4.95 -67.95 3.85 -70.05 4.15 -72.85 L19.15 -70.6 M-4.9 -74.2 Q-5.6 -70.6 -7.8 -68.7 -9.75 -66.95 -12.45 -66.95 L-12.15 -68.15 Q-11.85 -70.15 -12.25 -71.75 -12.7 -73.3 -13.65 -73.5 -14.6 -73.7 -15.45 -72.4 -16.35 -71.1 -16.7 -69.1 L-16.8 -68.3 Q-18.95 -69.7 -20.0 -72.0 -21.05 -74.15 -20.9 -76.6 L-4.9 -74.2" fill="url(#gradient2)" fill-rule="evenodd" stroke="none"/>
  </g>
  <defs>
    <radialGradient cx="0" cy="0" gradientTransform="matrix(0.1646, 0.0, 0.0, 0.1646, -86.1, 58.75)" gradientUnits="userSpaceOnUse" id="gradient0" r="819.2">
      <stop offset="0.0" stop-color="#809ac8"/>
      <stop offset="0.3803921568627451" stop-color="#7e91ba"/>
      <stop offset="0.8941176470588236" stop-color="#51618f"/>
    </radialGradient>
    <radialGradient cx="0" cy="0" gradientTransform="matrix(0.1666, 0.0, 0.0, 0.1666, -84.85, 59.8)" gradientUnits="userSpaceOnUse" id="gradient1" r="819.2">
      <stop offset="0.0" stop-color="#cecfde"/>
      <stop offset="0.42745098039215684" stop-color="#969ec1"/>
      <stop offset="0.7137254901960784" stop-color="#6d78a7"/>
    </radialGradient>
    <radialGradient cx="0" cy="0" gradientTransform="matrix(0.0819, 0.0, 0.0, 0.0819, -4.9, -39.4)" gradientUnits="userSpaceOnUse" id="gradient2" r="819.2">
      <stop offset="0.16862745098039217" stop-color="#cecfde"/>
      <stop offset="0.5843137254901961" stop-color="#969ec1"/>
      <stop offset="0.8941176470588236" stop-color="#6d78a7"/>
    </radialGradient>
  </defs>
</svg>
