<?xml version="1.0" encoding="UTF-8" standalone="no"?>
<svg xmlns:xlink="http://www.w3.org/1999/xlink" height="54.9px" width="47.65px" xmlns="http://www.w3.org/2000/svg">
  <g transform="matrix(1.0, 0.0, 0.0, 1.0, 25.85, -12.6)">
    <path d="M3.75 33.4 L3.1 26.05 -2.75 25.8 -5.15 28.3 -4.2 33.65 -19.4 37.45 -23.25 21.2 -16.55 15.2 19.2 17.75 18.1 41.2 3.25 45.0 5.55 51.9 5.55 53.3 8.25 53.05 9.05 64.9 -8.05 62.95 -9.2 54.85 3.35 53.55 -7.7 53.65 -8.45 38.45 3.75 33.4" fill="#000000" fill-rule="evenodd" stroke="none"/>
    <path d="M3.75 33.4 L-8.45 38.45 -7.7 53.65 3.35 53.55 -9.2 54.85 -8.05 62.95 9.05 64.9 8.25 53.05 5.55 53.3 5.55 51.9 3.25 45.0 18.1 41.2 19.2 17.75 -16.55 15.2 -23.25 21.2 -19.4 37.45 -4.2 33.65 -5.15 28.3 -2.75 25.8 3.1 26.05 3.75 33.4 Z" fill="none" stroke="#f8350f" stroke-linecap="round" stroke-linejoin="round" stroke-width="5.25"/>
    <path d="M3.75 33.4 L3.1 26.05 -2.75 25.8 -5.15 28.3 -4.2 33.65 -19.4 37.45 -23.25 21.2 -16.55 15.2 19.2 17.75 18.1 41.2 3.25 45.0 5.55 51.9 5.55 53.3 8.25 53.05 9.05 64.9 -8.05 62.95 -9.2 54.85 3.35 53.55 -7.7 53.65 -8.45 38.45 3.75 33.4" fill="#000000" fill-rule="evenodd" stroke="none"/>
    <path d="M-19.95 21.9 L-16.1 17.35 15.1 20.15 15.15 20.15 15.45 38.4 15.3 38.25 2.8 42.05 1.65 44.0 1.5 44.05 4.15 52.1 1.25 49.05 -4.3 49.45 -4.8 41.15 -7.0 40.05 -7.05 39.35 5.2 34.25 5.15 33.55 7.4 32.5 6.9 22.35 -3.45 22.7 -7.65 26.45 -6.8 27.9 -6.65 27.8 -5.8 32.6 -6.15 32.65 -8.65 30.3 -17.0 32.4 -19.35 21.9 -19.95 21.9 M-5.6 57.7 L4.9 56.1 4.25 60.3 4.05 60.1 -5.05 59.8 -5.1 58.2 -5.6 57.7 M4.15 52.15 L4.15 52.1 4.15 52.15" fill="#f7f619" fill-rule="evenodd" stroke="none"/>
    <path d="M15.45 38.4 L16.75 39.95 16.75 40.1 1.65 44.0 2.8 42.05 15.3 38.25 15.45 38.4 M-21.7 21.8 L-19.95 21.9 -19.35 21.9 -17.0 32.4 -8.65 30.3 -6.15 32.65 -18.4 35.75 -21.7 21.8 M-6.65 27.8 L-6.8 27.9 -7.65 26.45 -3.45 22.7 6.9 22.35 7.4 32.5 5.15 33.55 4.35 24.7 -3.3 24.4 -6.65 27.8 M-7.0 40.05 L-4.8 41.15 -4.3 49.45 1.25 49.05 4.15 52.1 4.15 52.15 -6.4 52.25 -7.0 40.05 M4.25 60.3 L7.1 63.3 -6.85 61.7 -7.65 56.05 -7.2 56.0 -5.6 57.7 -5.1 58.2 -5.05 59.8 4.05 60.1 4.25 60.3" fill="#d8901f" fill-rule="evenodd" stroke="none"/>
    <path d="M15.45 38.4 L15.15 20.15 15.1 20.15 -16.1 17.35 -19.95 21.9 -21.7 21.8 -21.75 21.65 -16.1 16.6 17.75 19.0 16.75 39.95 15.45 38.4 M7.1 63.3 L4.25 60.3 4.9 56.1 -5.6 57.7 -7.2 56.0 6.95 54.55 7.55 63.35 7.1 63.3" fill="#f6f8b1" fill-rule="evenodd" stroke="none"/>
    <path d="M15.45 38.4 L15.15 20.15 15.1 20.15 -16.1 17.35 -19.95 21.9 -21.7 21.8 -21.75 21.65 -16.1 16.6 17.75 19.0 16.75 39.95 15.45 38.4 M-7.2 56.0 L6.95 54.55 7.55 63.35 7.1 63.3 4.25 60.3 4.9 56.1 -5.6 57.7 -7.2 56.0" fill="#f6f8b1" fill-rule="evenodd" stroke="none"/>
    <path d="M-19.95 21.9 L-16.1 17.35 15.1 20.15 15.15 20.15 15.45 38.4 15.3 38.25 2.8 42.05 1.65 44.0 1.5 44.05 4.15 52.1 1.25 49.05 -4.3 49.45 -4.8 41.15 -7.0 40.05 -7.05 39.35 5.2 34.25 5.15 33.55 7.4 32.5 6.9 22.35 -3.45 22.7 -7.65 26.45 -6.8 27.9 -6.65 27.8 -5.8 32.6 -6.15 32.65 -8.65 30.3 -17.0 32.4 -19.35 21.9 -19.95 21.9 M-5.6 57.7 L4.9 56.1 4.25 60.3 4.05 60.1 -5.05 59.8 -5.1 58.2 -5.6 57.7 M4.15 52.15 L4.15 52.1 4.15 52.15" fill="#f7f619" fill-rule="evenodd" stroke="none"/>
    <path d="M15.45 38.4 L16.75 39.95 16.75 40.1 1.65 44.0 2.8 42.05 15.3 38.25 15.45 38.4 M-21.7 21.8 L-19.95 21.9 -19.35 21.9 -17.0 32.4 -8.65 30.3 -6.15 32.65 -18.4 35.75 -21.7 21.8 M-6.65 27.8 L-6.8 27.9 -7.65 26.45 -3.45 22.7 6.9 22.35 7.4 32.5 5.15 33.55 4.35 24.7 -3.3 24.4 -6.65 27.8 M-7.0 40.05 L-4.8 41.15 -4.3 49.45 1.25 49.05 4.15 52.1 4.15 52.15 -6.4 52.25 -7.0 40.05 M-7.2 56.0 L-5.6 57.7 -5.1 58.2 -5.05 59.8 4.05 60.1 4.25 60.3 7.1 63.3 -6.85 61.7 -7.65 56.05 -7.2 56.0" fill="#d8901f" fill-rule="evenodd" stroke="none"/>
  </g>
</svg>
