<?xml version="1.0" encoding="UTF-8" standalone="no"?>
<svg xmlns:xlink="http://www.w3.org/1999/xlink" height="440.25px" width="396.3px" xmlns="http://www.w3.org/2000/svg">
  <g transform="matrix(1.0, 0.0, 0.0, 1.0, 220.4, 204.3)">
    <clipPath id="clipPath0" transform="matrix(1.0, 0.0, 0.0, 1.0, 0.0, 0.0)">
      <path d="M-95.1 129.9 L-96.25 129.0 -95.0 131.25 -95.1 129.9 M-93.5 129.3 L-94.05 128.6 Q-93.3 131.45 -93.5 129.3 M-95.15 127.15 L-95.35 127.4 Q-94.2 128.1 -95.15 127.15 M-82.9 126.7 L-81.35 127.9 -81.1 131.5 -77.0 134.2 -74.5 141.85 -74.85 142.4 Q-75.85 143.7 -77.1 142.65 L-79.35 133.65 -81.6 132.35 -82.9 126.7 M-103.1 115.5 Q-102.45 115.0 -101.4 114.7 L-101.5 114.95 -101.7 115.4 Q-102.05 116.9 -101.5 114.95 L-101.4 114.8 -101.4 114.7 -104.4 104.25 -103.45 115.35 -103.1 115.5 M-89.45 121.15 L-89.2 117.1 -93.65 122.65 -92.9 124.2 -89.45 121.15 M-99.55 103.1 L-100.45 100.85 -100.8 102.15 -101.6 110.95 -99.55 103.1 M-90.05 89.9 L-90.6 91.0 -87.25 89.2 -90.05 89.9 M-96.1 92.2 L-93.75 92.4 -91.55 90.7 -92.9 90.25 -96.1 92.2 M-98.05 93.15 L-100.05 98.9 -98.9 100.35 -96.75 92.5 -98.05 93.15 M-101.9 96.6 L-101.9 97.25 -98.5 92.05 -101.25 93.0 -102.15 94.55 Q-104.35 99.1 -101.9 96.6 M-39.4 59.3 L-40.05 56.8 -39.8 53.45 -40.8 58.35 -39.4 59.3 M-80.9 85.75 L-77.75 81.4 -78.1 80.0 -80.4 81.45 -84.35 88.6 -82.1 88.8 -80.9 85.75 M-78.15 79.95 L-78.7 77.75 -79.45 80.45 -78.15 79.95 M-73.6 77.2 L-73.05 76.85 -73.6 77.05 -73.6 77.2 M-71.4 80.2 L-71.75 80.35 -71.9 80.7 -71.75 81.05 -71.4 81.2 -71.05 81.05 -70.9 80.7 Q-70.9 80.5 -71.05 80.35 -71.2 80.2 -71.4 80.2 M-73.4 78.1 Q-73.8 77.05 -73.45 78.3 L-73.4 78.1 M-68.75 74.35 L-67.55 74.4 -65.85 73.1 -68.75 74.35 M-47.05 67.55 L-47.1 66.25 -64.2 73.3 -58.35 76.7 -47.05 67.55 M-49.45 38.1 L-47.2 35.2 -50.2 59.95 -49.45 38.1 M-34.75 19.85 L-34.1 19.8 -31.0 16.75 -31.15 9.2 -30.05 17.15 -31.7 18.9 -21.1 18.6 -20.65 16.35 Q-19.85 18.0 -18.75 18.15 L-20.65 20.75 -21.2 22.1 Q-21.55 21.15 -23.15 20.45 -25.15 19.55 -27.95 19.55 -30.75 19.55 -32.75 20.45 -34.75 21.3 -34.75 22.55 -34.75 23.8 -32.75 24.7 -30.75 25.55 -27.95 25.55 L-24.35 25.1 Q-29.05 27.85 -34.7 24.25 L-38.4 61.3 -38.75 60.6 -39.0 60.8 -38.45 61.75 -38.7 64.25 -40.6 61.5 -41.55 63.85 -46.75 66.05 -46.6 68.1 -57.85 77.3 -64.3 73.85 -62.9 77.85 -61.5 79.0 -64.25 78.25 -65.65 75.05 -66.45 76.0 -65.45 77.45 -67.75 77.65 -68.65 78.9 -68.65 78.95 -68.4 79.3 -68.05 79.8 -70.3 81.35 -67.65 82.4 -70.9 83.2 -68.95 86.3 -71.75 83.65 -72.5 85.45 -77.1 104.2 -78.8 104.6 -78.0 103.65 -73.1 85.35 -72.95 85.0 Q-71.9 83.1 -73.7 83.3 L-79.05 88.9 -83.55 91.4 -86.3 89.95 -96.35 93.85 -99.5 115.25 -98.15 116.95 -99.75 117.8 -94.05 122.0 -83.7 110.15 -85.2 124.9 -83.25 126.4 -85.4 125.65 -87.1 115.25 -89.3 119.0 -88.8 121.15 -89.75 123.25 -92.65 124.65 -89.75 135.55 -93.8 134.75 -97.2 130.55 -97.1 128.35 -103.55 117.95 -105.4 116.15 -105.9 102.5 -103.95 100.85 -103.9 92.9 -93.8 88.25 -88.05 87.25 -84.85 88.25 -79.45 77.95 -80.9 76.1 Q-78.05 76.8 -79.2 76.1 L-82.25 71.5 -78.55 74.4 -77.05 73.2 -81.4 67.8 -74.15 75.3 -80.5 63.0 -73.65 74.05 -72.65 66.9 -71.3 66.05 -72.6 76.5 -67.05 72.35 -68.65 71.45 -66.8 72.15 -65.6 71.45 -62.9 67.95 -63.85 70.65 -42.65 59.85 -40.35 26.85 -42.75 28.7 -38.7 23.1 -45.65 26.8 -38.75 22.25 -40.9 21.3 -35.8 20.7 -34.75 19.85 M-20.75 6.55 Q-21.35 7.9 -21.55 9.65 L-22.15 7.15 -20.25 5.65 -20.75 6.55 M-13.75 7.8 L-13.75 7.2 Q-15.0 8.05 -14.2 9.8 L-13.75 7.8 M24.4 116.75 Q23.95 117.1 24.05 117.25 24.9 119.25 24.4 116.75 M24.05 119.8 L23.35 122.0 30.25 127.3 24.05 119.8 M36.25 107.1 Q38.25 106.95 36.15 106.7 L36.25 107.1 M37.1 109.0 Q37.7 110.55 38.2 107.75 L36.45 107.65 37.1 109.0 M30.45 106.65 L31.1 108.45 25.05 119.85 28.5 121.2 34.25 136.8 34.8 139.1 32.75 136.7 30.4 128.8 22.8 123.6 22.2 127.2 26.5 136.9 21.25 127.65 23.7 114.85 23.45 116.3 23.9 115.2 25.75 114.3 26.3 111.35 28.15 111.0 26.15 105.1 25.6 97.85 27.8 105.55 29.15 106.2 27.95 106.2 29.25 110.3 30.45 106.65 M35.05 103.5 L34.9 103.2 Q32.15 98.7 32.3 102.0 L35.05 103.5 M38.5 104.05 L36.2 102.9 39.25 106.15 38.5 104.05 M38.0 102.35 Q39.0 102.9 38.2 102.4 L38.0 102.35 M41.05 117.5 L40.8 109.8 38.7 107.6 39.25 110.75 40.45 111.35 41.05 117.5 M52.95 117.35 Q51.8 114.55 53.05 117.25 L52.95 117.35 M45.75 108.9 Q46.4 107.75 45.55 109.0 L45.75 108.9 M46.2 108.45 Q46.35 107.45 45.8 108.15 L46.2 108.45 M45.15 106.9 L44.85 106.85 Q44.55 107.65 45.15 106.9 M82.7 -119.75 Q82.85 -119.6 83.1 -119.6 L83.5 -119.75 83.65 -120.15 83.5 -120.55 83.1 -120.7 82.7 -120.55 82.55 -120.15 Q82.55 -119.9 82.7 -119.75 M104.75 -129.25 L106.75 -130.25 103.9 -120.9 100.9 -119.5 98.85 -111.3 92.6 -105.3 93.9 -103.2 100.2 -102.7 95.75 -101.95 97.8 -100.75 92.55 -101.9 97.15 -95.45 93.85 -98.6 96.15 -92.15 92.0 -99.8 96.2 -89.0 90.95 -98.75 94.8 -83.95 90.55 -96.35 90.15 -91.6 89.7 -97.7 88.6 -96.45 86.95 -97.4 82.3 -98.8 72.2 -87.6 70.4 -88.2 68.4 -86.1 65.5 -83.7 63.7 -83.75 61.75 -82.2 58.2 -74.6 51.95 -64.3 52.15 -61.7 48.5 -52.2 52.1 -53.75 52.35 -58.1 52.65 -53.65 48.45 -51.55 40.9 -24.45 -11.0 -2.05 -12.2 10.15 23.65 48.0 24.2 77.65 31.55 97.45 41.8 102.4 44.55 105.15 45.0 102.25 47.75 99.35 46.9 103.65 45.5 106.55 51.15 102.25 46.6 107.85 51.35 106.2 48.05 109.15 52.2 109.8 50.25 110.7 65.15 122.3 65.15 126.6 68.05 132.2 64.65 127.1 64.65 122.75 48.85 110.55 47.6 110.65 47.8 113.45 50.65 113.4 47.85 115.1 Q46.6 112.2 47.45 116.7 L50.65 118.05 47.45 117.55 47.2 120.85 48.25 120.0 48.35 119.3 48.4 118.55 Q48.4 118.0 48.85 119.35 L47.3 122.75 49.95 135.95 41.4 122.15 41.1 119.95 39.7 118.05 39.0 111.85 37.2 111.1 35.55 108.95 35.3 107.5 32.15 107.05 35.15 106.1 31.35 103.2 31.35 101.4 27.2 97.6 30.3 106.2 29.9 106.2 26.9 97.45 25.55 96.9 25.3 93.45 25.7 95.2 28.3 97.15 24.85 87.6 24.25 79.5 24.3 83.3 22.85 74.55 24.1 77.4 21.8 46.95 -12.8 11.85 -13.9 11.3 -15.6 13.75 -15.45 11.35 Q-15.45 8.55 -16.35 6.55 -17.25 4.55 -18.55 4.55 L-18.9 4.6 -18.05 3.9 -15.35 4.8 -16.55 -4.85 -15.9 -6.25 -18.95 -13.3 -13.9 -5.8 40.1 -26.5 47.25 -51.4 50.2 -66.45 60.95 -83.75 75.9 -95.65 88.1 -102.65 91.35 -103.5 89.05 -108.7 87.8 -109.3 84.3 -116.8 79.5 -120.9 80.2 -122.55 79.45 -125.25 80.75 -128.9 80.8 -128.9 81.2 -128.2 81.2 -127.55 80.6 -126.4 87.1 -116.6 87.8 -113.35 91.5 -105.55 97.65 -111.3 97.0 -112.8 94.2 -111.25 95.85 -113.45 96.35 -113.45 97.55 -113.95 100.1 -122.4 99.95 -120.3 103.3 -122.5 104.75 -129.25" fill="#ff0000" fill-rule="evenodd" stroke="none"/>
    </clipPath>
    <g clip-path="url(#clipPath0)">
      <use data-characterId="73" height="163.2" transform="matrix(1.0, 0.0, 0.0, 1.0, 12.65, 4.65)" width="163.25" xlink:href="#shape1"/>
      <use data-characterId="72" height="283.3" transform="matrix(1.0, 0.0, 0.0, 1.0, -220.4, -47.35)" width="272.7" xlink:href="#morphshape0"/>
    </g>
  </g>
  <defs>
    <g id="shape1" transform="matrix(1.0, 0.0, 0.0, 1.0, -12.65, -4.65)">
      <path d="M94.25 4.65 Q128.05 4.65 151.95 28.55 175.9 52.45 175.9 86.25 175.9 120.05 151.95 143.95 128.05 167.85 94.25 167.85 60.45 167.85 36.55 143.95 12.65 120.05 12.65 86.25 12.65 52.45 36.55 28.55 60.45 4.65 94.25 4.65" fill="url(#gradient0)" fill-rule="evenodd" stroke="none"/>
    </g>
    <radialGradient cx="0" cy="0" gradientTransform="matrix(0.1, 0.0, 0.0, 0.1, 94.25, 86.25)" gradientUnits="userSpaceOnUse" id="gradient0" r="819.2" spreadMethod="pad">
      <stop offset="0.4627450980392157" stop-color="#dce4ef" stop-opacity="0.5019608"/>
      <stop offset="1.0" stop-color="#889fc9" stop-opacity="0.0"/>
    </radialGradient>
    <g id="morphshape0" transform="matrix(1.0, 0.0, 0.0, 1.0, 220.4, 47.35)">
      <path d="M-178.05 78.55 Q-178.05 125.05 -145.1 158.0 -112.2 190.95 -65.65 190.95 -19.1 190.95 13.8 158.0 46.7 125.05 46.65 78.55 46.7 32.0 13.8 -0.95 -19.1 -33.85 -65.65 -33.8 -112.2 -33.85 -145.1 -0.95 -178.05 32.0 -178.05 78.55" fill="url(#gradient1)" fill-rule="evenodd" stroke="none"/>
      <path d="M-178.05 78.55 Q-178.05 32.0 -145.1 -0.95 -112.2 -33.85 -65.65 -33.8 -19.1 -33.85 13.8 -0.95 46.7 32.0 46.65 78.55 46.7 125.05 13.8 158.0 -19.1 190.95 -65.65 190.95 -112.2 190.95 -145.1 158.0 -178.05 125.05 -178.05 78.55 Z" fill="none" stroke="#000000" stroke-linecap="round" stroke-linejoin="round" stroke-opacity="0.0" stroke-width="1.0"/>
    </g>
    <radialGradient cx="0" cy="0" gradientTransform="matrix(0.1377, 0.0, 0.0, 0.1377, -65.6, 78.45)" gradientUnits="userSpaceOnUse" id="gradient1" r="819.2" spreadMethod="pad">
      <stop offset="0.4627450980392157" stop-color="#dce4ef" stop-opacity="0.5019608"/>
      <stop offset="1.0" stop-color="#889fc9" stop-opacity="0.0"/>
    </radialGradient>
  </defs>
</svg>
