<?xml version="1.0" encoding="UTF-8" standalone="no"?>
<svg xmlns:xlink="http://www.w3.org/1999/xlink" height="95.75px" width="96.5px" xmlns="http://www.w3.org/2000/svg">
  <g transform="matrix(1.0, 0.0, 0.0, 1.0, 48.25, 51.25)">
    <path d="M-48.25 -50.0 L-48.25 -49.9 -48.25 35.4 Q-48.25 36.9 -48.25 38.4 -48.25 39.45 -48.25 40.5 L-48.1 41.65 Q-47.8 42.6 -47.1 43.3 -45.9 44.5 -44.25 44.5 1.1 40.75 39.45 44.0 40.95 44.15 42.45 44.3 43.35 44.4 44.25 44.5 L45.7 44.25 Q46.45 43.95 47.05 43.3 48.25 42.15 48.25 40.5 L48.25 -38.0 Q48.25 -41.25 48.25 -44.5 40.85 -38.85 31.2 -37.3 19.7 -35.4 4.9 -39.4 L-1.25 -41.25 Q-12.15 -45.95 -22.05 -48.25 -36.25 -51.6 -48.25 -50.0" fill="#cc6699" fill-rule="evenodd" stroke="none">
      <animate attributeName="fill" dur="2s" repeatCount="indefinite" values="#cc6699;#cc669a"/>
      <animate attributeName="fill-opacity" dur="2s" repeatCount="indefinite" values="1.0;1.0"/>
      <animate attributeName="d" dur="2s" repeatCount="indefinite" values="M-48.25 -50.0 L-48.25 -49.9 -48.25 35.4 Q-48.25 36.9 -48.25 38.4 -48.25 39.45 -48.25 40.5 L-48.1 41.65 Q-47.8 42.6 -47.1 43.3 -45.9 44.5 -44.25 44.5 1.1 40.75 39.45 44.0 40.95 44.15 42.45 44.3 43.35 44.4 44.25 44.5 L45.7 44.25 Q46.45 43.95 47.05 43.3 48.25 42.15 48.25 40.5 L48.25 -38.0 Q48.25 -41.25 48.25 -44.5 40.85 -38.85 31.2 -37.3 19.7 -35.4 4.9 -39.4 L-1.25 -41.25 Q-12.15 -45.95 -22.05 -48.25 -36.25 -51.6 -48.25 -50.0;M-48.25 -44.5 L-48.25 -44.5 -48.25 40.5 Q-48.25 42.15 -47.1 43.3 -46.3 44.1 -45.3 44.35 L-44.25 44.5 Q-43.25 44.45 -42.3 44.4 -40.7 44.25 -39.1 44.1 6.05 40.7 44.25 44.5 45.9 44.5 47.05 43.3 47.75 42.65 48.05 41.85 L48.25 40.5 Q48.25 39.7 48.25 38.9 48.25 37.3 48.25 35.7 L48.25 -42.5 Q45.8 -39.8 43.0 -38.5 35.6 -35.1 25.85 -42.1 16.4 -49.55 1.25 -51.25 L-5.15 -50.6 Q-14.55 -48.8 -24.85 -42.35 -38.75 -33.65 -48.25 -44.5"/>
    </path>
    <path d="M-48.25 -50.0 Q-36.25 -51.6 -22.05 -48.25 -12.15 -45.95 -1.25 -41.25 L4.9 -39.4 Q19.7 -35.4 31.2 -37.3 40.85 -38.85 48.25 -44.5 48.25 -41.25 48.25 -38.0 L48.25 40.5 Q48.25 42.15 47.05 43.3 46.45 43.95 45.7 44.25 L44.25 44.5 Q43.35 44.4 42.45 44.3 40.95 44.15 39.45 44.0 1.1 40.75 -44.25 44.5 -45.9 44.5 -47.1 43.3 -47.8 42.6 -48.1 41.65 L-48.25 40.5 Q-48.25 39.45 -48.25 38.4 -48.25 36.9 -48.25 35.4 L-48.25 -49.9 -48.25 -50.0" fill="none" stroke="#000000" stroke-linecap="round" stroke-linejoin="round" stroke-opacity="0.0" stroke-width="1.0">
      <animate attributeName="stroke" dur="2s" repeatCount="indefinite" values="#000000;#000001"/>
      <animate attributeName="stroke-width" dur="2s" repeatCount="indefinite" values="0.0;0.0"/>
      <animate attributeName="fill-opacity" dur="2s" repeatCount="indefinite" values="0.0;0.0"/>
      <animate attributeName="d" dur="2s" repeatCount="indefinite" values="M-48.25 -50.0 Q-36.25 -51.6 -22.05 -48.25 -12.15 -45.95 -1.25 -41.25 L4.9 -39.4 Q19.7 -35.4 31.2 -37.3 40.85 -38.85 48.25 -44.5 48.25 -41.25 48.25 -38.0 L48.25 40.5 Q48.25 42.15 47.05 43.3 46.45 43.95 45.7 44.25 L44.25 44.5 Q43.35 44.4 42.45 44.3 40.95 44.15 39.45 44.0 1.1 40.75 -44.25 44.5 -45.9 44.5 -47.1 43.3 -47.8 42.6 -48.1 41.65 L-48.25 40.5 Q-48.25 39.45 -48.25 38.4 -48.25 36.9 -48.25 35.4 L-48.25 -49.9 -48.25 -50.0;M-48.25 -44.5 Q-38.75 -33.65 -24.85 -42.35 -14.55 -48.8 -5.15 -50.6 L1.25 -51.25 Q16.4 -49.55 25.85 -42.1 35.6 -35.1 43.0 -38.5 45.8 -39.8 48.25 -42.5 L48.25 35.7 Q48.25 37.3 48.25 38.9 48.25 39.7 48.25 40.5 L48.05 41.85 Q47.75 42.65 47.05 43.3 45.9 44.5 44.25 44.5 6.05 40.7 -39.1 44.1 -40.7 44.25 -42.3 44.4 -43.25 44.45 -44.25 44.5 L-45.3 44.35 Q-46.3 44.1 -47.1 43.3 -48.25 42.15 -48.25 40.5 L-48.25 -44.5 -48.25 -44.5"/>
    </path>
  </g>
</svg>
