<?xml version="1.0" encoding="UTF-8" standalone="no"?>
<svg xmlns:xlink="http://www.w3.org/1999/xlink" height="95.75px" width="96.5px" xmlns="http://www.w3.org/2000/svg">
  <g transform="matrix(1.0, 0.0, 0.0, 1.0, 48.25, 51.25)">
    <path d="M-48.25 -44.5 L-48.25 -44.5 -48.25 40.5 Q-48.25 42.15 -47.1 43.3 L-46.15 44.0 Q-45.3 44.5 -44.25 44.5 L-43.25 44.4 Q-41.7 44.3 -40.15 44.2 5.65 40.65 44.25 44.5 45.8 44.5 46.95 43.45 L47.05 43.3 Q48.1 42.3 48.25 40.9 L48.25 40.5 Q48.25 39.15 48.25 37.8 L48.25 -42.5 45.7 -40.15 Q37.4 -33.8 25.85 -42.1 16.4 -49.55 1.25 -51.25 L-2.5 -51.0 Q-13.1 -49.75 -24.85 -42.35 -38.75 -33.65 -48.25 -44.5" fill="#cc6699" fill-rule="evenodd" stroke="none">
      <animate attributeName="fill" dur="2s" repeatCount="indefinite" values="#cc6699;#cc669a"/>
      <animate attributeName="fill-opacity" dur="2s" repeatCount="indefinite" values="1.0;1.0"/>
      <animate attributeName="d" dur="2s" repeatCount="indefinite" values="M-48.25 -44.5 L-48.25 -44.5 -48.25 40.5 Q-48.25 42.15 -47.1 43.3 L-46.15 44.0 Q-45.3 44.5 -44.25 44.5 L-43.25 44.4 Q-41.7 44.3 -40.15 44.2 5.65 40.65 44.25 44.5 45.8 44.5 46.95 43.45 L47.05 43.3 Q48.1 42.3 48.25 40.9 L48.25 40.5 Q48.25 39.15 48.25 37.8 L48.25 -42.5 45.7 -40.15 Q37.4 -33.8 25.85 -42.1 16.4 -49.55 1.25 -51.25 L-2.5 -51.0 Q-13.1 -49.75 -24.85 -42.35 -38.75 -33.65 -48.25 -44.5;M-48.25 -50.0 L-48.25 -49.9 -48.25 36.3 Q-48.25 37.8 -48.25 39.3 L-48.25 40.5 Q-48.25 41.65 -47.7 42.55 L-47.1 43.3 Q-45.9 44.5 -44.25 44.5 2.2 40.65 41.4 44.2 42.85 44.35 44.25 44.5 L44.45 44.5 Q45.95 44.45 47.05 43.3 L47.35 43.0 Q48.25 41.95 48.25 40.5 L48.25 -41.0 48.25 -44.5 Q39.8 -50.95 27.65 -50.25 16.45 -49.6 2.1 -42.9 L-1.25 -41.25 Q-15.05 -35.95 -26.05 -37.3 -39.2 -38.9 -48.25 -50.0"/>
    </path>
    <path d="M-48.25 -44.5 Q-38.75 -33.65 -24.85 -42.35 -13.1 -49.75 -2.5 -51.0 L1.25 -51.25 Q16.4 -49.55 25.85 -42.1 37.4 -33.8 45.7 -40.15 L48.25 -42.5 48.25 37.8 Q48.25 39.15 48.25 40.5 L48.25 40.9 Q48.1 42.3 47.05 43.3 L46.95 43.45 Q45.8 44.5 44.25 44.5 5.65 40.65 -40.15 44.2 -41.7 44.3 -43.25 44.4 L-44.25 44.5 Q-45.3 44.5 -46.15 44.0 L-47.1 43.3 Q-48.25 42.15 -48.25 40.5 L-48.25 -44.5 -48.25 -44.5" fill="none" stroke="#000000" stroke-linecap="round" stroke-linejoin="round" stroke-opacity="0.0" stroke-width="1.0">
      <animate attributeName="stroke" dur="2s" repeatCount="indefinite" values="#000000;#000001"/>
      <animate attributeName="stroke-width" dur="2s" repeatCount="indefinite" values="0.0;0.0"/>
      <animate attributeName="fill-opacity" dur="2s" repeatCount="indefinite" values="0.0;0.0"/>
      <animate attributeName="d" dur="2s" repeatCount="indefinite" values="M-48.25 -44.5 Q-38.75 -33.65 -24.85 -42.35 -13.1 -49.75 -2.5 -51.0 L1.25 -51.25 Q16.4 -49.55 25.85 -42.1 37.4 -33.8 45.7 -40.15 L48.25 -42.5 48.25 37.8 Q48.25 39.15 48.25 40.5 L48.25 40.9 Q48.1 42.3 47.05 43.3 L46.95 43.45 Q45.8 44.5 44.25 44.5 5.65 40.65 -40.15 44.2 -41.7 44.3 -43.25 44.4 L-44.25 44.5 Q-45.3 44.5 -46.15 44.0 L-47.1 43.3 Q-48.25 42.15 -48.25 40.5 L-48.25 -44.5 -48.25 -44.5;M-48.25 -50.0 Q-39.2 -38.9 -26.05 -37.3 -15.05 -35.95 -1.25 -41.25 L2.1 -42.9 Q16.45 -49.6 27.65 -50.25 39.8 -50.95 48.25 -44.5 L48.25 -41.0 48.25 40.5 Q48.25 41.95 47.35 43.0 L47.05 43.3 Q45.95 44.45 44.45 44.5 L44.25 44.5 Q42.85 44.35 41.4 44.2 2.2 40.65 -44.25 44.5 -45.9 44.5 -47.1 43.3 L-47.7 42.55 Q-48.25 41.65 -48.25 40.5 L-48.25 39.3 Q-48.25 37.8 -48.25 36.3 L-48.25 -49.9 -48.25 -50.0"/>
    </path>
  </g>
</svg>
