<?xml version="1.0" encoding="UTF-8" standalone="no"?>
<svg xmlns:xlink="http://www.w3.org/1999/xlink" height="94.8px" width="96.5px" xmlns="http://www.w3.org/2000/svg">
  <g transform="matrix(1.0, 0.0, 0.0, 1.0, 48.25, 50.3)">
    <path d="M-48.25 -50.0 L-48.25 -49.9 -48.25 37.4 Q-48.25 38.95 -48.25 40.5 L-48.25 40.5 Q-48.25 42.15 -47.1 43.3 L-46.9 43.5 Q-45.75 44.5 -44.25 44.5 3.55 40.55 43.7 44.4 L44.25 44.5 Q45.65 44.5 46.65 43.65 L47.05 43.3 Q48.1 42.3 48.25 40.95 L48.25 40.5 48.25 -44.2 48.25 -44.5 Q39.1 -51.45 25.65 -50.1 13.85 -48.9 -1.25 -41.25 L-2.05 -40.95 Q-15.0 -36.15 -25.4 -37.2 -38.95 -38.6 -48.25 -50.0" fill="#cc6699" fill-rule="evenodd" stroke="none">
      <animate attributeName="fill" dur="2s" repeatCount="indefinite" values="#cc6699;#cc669a"/>
      <animate attributeName="fill-opacity" dur="2s" repeatCount="indefinite" values="1.0;1.0"/>
      <animate attributeName="d" dur="2s" repeatCount="indefinite" values="M-48.25 -50.0 L-48.25 -49.9 -48.25 37.4 Q-48.25 38.95 -48.25 40.5 L-48.25 40.5 Q-48.25 42.15 -47.1 43.3 L-46.9 43.5 Q-45.75 44.5 -44.25 44.5 3.55 40.55 43.7 44.4 L44.25 44.5 Q45.65 44.5 46.65 43.65 L47.05 43.3 Q48.1 42.3 48.25 40.95 L48.25 40.5 48.25 -44.2 48.25 -44.5 Q39.1 -51.45 25.65 -50.1 13.85 -48.9 -1.25 -41.25 L-2.05 -40.95 Q-15.0 -36.15 -25.4 -37.2 -38.95 -38.6 -48.25 -50.0;M-48.25 -44.5 L-48.25 -44.5 -48.25 40.5 Q-48.25 42.15 -47.1 43.3 L-47.0 43.4 Q-45.9 44.45 -44.45 44.5 L-44.25 44.5 Q-42.8 44.4 -41.35 44.3 5.1 40.6 44.25 44.5 L44.85 44.45 Q46.1 44.3 47.05 43.3 L47.4 42.95 Q48.25 41.9 48.25 40.5 L48.25 40.1 48.25 -42.5 48.05 -42.3 Q40.65 -36.6 25.85 -40.6 14.85 -45.8 -1.45 -45.75 L-1.75 -45.75 Q-10.0 -45.8 -23.85 -40.35 -37.75 -34.9 -48.25 -44.5"/>
    </path>
    <path d="M-48.25 -50.0 Q-38.95 -38.6 -25.4 -37.2 -15.0 -36.15 -2.05 -40.95 L-1.25 -41.25 Q13.85 -48.9 25.65 -50.1 39.1 -51.45 48.25 -44.5 L48.25 -44.2 48.25 40.5 48.25 40.95 Q48.1 42.3 47.05 43.3 L46.65 43.65 Q45.65 44.5 44.25 44.5 L43.7 44.4 Q3.55 40.55 -44.25 44.5 -45.75 44.5 -46.9 43.5 L-47.1 43.3 Q-48.25 42.15 -48.25 40.5 L-48.25 40.5 Q-48.25 38.95 -48.25 37.4 L-48.25 -49.9 -48.25 -50.0" fill="none" stroke="#000000" stroke-linecap="round" stroke-linejoin="round" stroke-opacity="0.0" stroke-width="1.0">
      <animate attributeName="stroke" dur="2s" repeatCount="indefinite" values="#000000;#000001"/>
      <animate attributeName="stroke-width" dur="2s" repeatCount="indefinite" values="0.0;0.0"/>
      <animate attributeName="fill-opacity" dur="2s" repeatCount="indefinite" values="0.0;0.0"/>
      <animate attributeName="d" dur="2s" repeatCount="indefinite" values="M-48.25 -50.0 Q-38.95 -38.6 -25.4 -37.2 -15.0 -36.15 -2.05 -40.95 L-1.25 -41.25 Q13.85 -48.9 25.65 -50.1 39.1 -51.45 48.25 -44.5 L48.25 -44.2 48.25 40.5 48.25 40.95 Q48.1 42.3 47.05 43.3 L46.65 43.65 Q45.65 44.5 44.25 44.5 L43.7 44.4 Q3.55 40.55 -44.25 44.5 -45.75 44.5 -46.9 43.5 L-47.1 43.3 Q-48.25 42.15 -48.25 40.5 L-48.25 40.5 Q-48.25 38.95 -48.25 37.4 L-48.25 -49.9 -48.25 -50.0;M-48.25 -44.5 Q-37.75 -34.9 -23.85 -40.35 -10.0 -45.8 -1.75 -45.75 L-1.45 -45.75 Q14.85 -45.8 25.85 -40.6 40.65 -36.6 48.05 -42.3 L48.25 -42.5 48.25 40.1 48.25 40.5 Q48.25 41.9 47.4 42.95 L47.05 43.3 Q46.1 44.3 44.85 44.45 L44.25 44.5 Q5.1 40.6 -41.35 44.3 -42.8 44.4 -44.25 44.5 L-44.45 44.5 Q-45.9 44.45 -47.0 43.4 L-47.1 43.3 Q-48.25 42.15 -48.25 40.5 L-48.25 -44.5 -48.25 -44.5"/>
    </path>
  </g>
</svg>
