<?xml version="1.0" encoding="UTF-8" standalone="no"?>
<svg xmlns:xlink="http://www.w3.org/1999/xlink" height="95.0px" width="96.5px" xmlns="http://www.w3.org/2000/svg">
  <g transform="matrix(1.0, 0.0, 0.0, 1.0, 48.25, 50.5)">
    <path d="M-48.25 -44.5 L-48.25 40.5 Q-48.25 42.15 -47.1 43.3 L-46.25 44.0 Q-45.35 44.5 -44.25 44.5 L-43.25 44.4 Q-41.7 44.3 -40.15 44.2 5.6 40.65 44.25 44.5 45.75 44.5 46.85 43.5 L47.05 43.3 Q48.05 42.35 48.2 41.0 L48.25 40.5 Q48.25 39.2 48.25 37.9 L48.25 -42.5 Q47.0 -41.5 45.5 -40.75 38.25 -37.25 25.85 -40.6 14.75 -45.85 -1.75 -45.75 L-4.1 -45.65 Q-11.9 -45.05 -23.85 -40.35 -37.75 -34.9 -48.25 -44.5" fill="#cc6699" fill-rule="evenodd" stroke="none">
      <animate attributeName="fill" dur="2s" repeatCount="indefinite" values="#cc6699;#cc669a"/>
      <animate attributeName="fill-opacity" dur="2s" repeatCount="indefinite" values="1.0;1.0"/>
      <animate attributeName="d" dur="2s" repeatCount="indefinite" values="M-48.25 -44.5 L-48.25 40.5 Q-48.25 42.15 -47.1 43.3 L-46.25 44.0 Q-45.35 44.5 -44.25 44.5 L-43.25 44.4 Q-41.7 44.3 -40.15 44.2 5.6 40.65 44.25 44.5 45.75 44.5 46.85 43.5 L47.05 43.3 Q48.05 42.35 48.2 41.0 L48.25 40.5 Q48.25 39.2 48.25 37.9 L48.25 -42.5 Q47.0 -41.5 45.5 -40.75 38.25 -37.25 25.85 -40.6 14.75 -45.85 -1.75 -45.75 L-4.1 -45.65 Q-11.9 -45.05 -23.85 -40.35 -37.75 -34.9 -48.25 -44.5;M-48.25 -50.0 L-48.25 36.3 Q-48.25 37.8 -48.25 39.3 L-48.25 40.5 Q-48.25 41.7 -47.65 42.65 L-47.1 43.3 Q-45.9 44.5 -44.25 44.5 2.25 40.65 41.5 44.2 42.9 44.35 44.25 44.5 L44.55 44.5 Q46.0 44.4 47.05 43.3 L47.4 42.95 Q48.25 41.9 48.25 40.5 L48.25 -41.1 Q48.25 -42.8 48.25 -44.5 40.15 -38.3 29.35 -37.0 17.0 -35.5 1.1 -40.5 L-1.25 -41.25 Q-11.8 -45.8 -21.4 -48.1 -35.95 -51.65 -48.25 -50.0"/>
    </path>
    <path d="M-48.25 -44.5 Q-37.75 -34.9 -23.85 -40.35 -11.9 -45.05 -4.1 -45.65 L-1.75 -45.75 Q14.75 -45.85 25.85 -40.6 38.25 -37.25 45.5 -40.75 47.0 -41.5 48.25 -42.5 L48.25 37.9 Q48.25 39.2 48.25 40.5 L48.2 41.0 Q48.05 42.35 47.05 43.3 L46.85 43.5 Q45.75 44.5 44.25 44.5 5.6 40.65 -40.15 44.2 -41.7 44.3 -43.25 44.4 L-44.25 44.5 Q-45.35 44.5 -46.25 44.0 L-47.1 43.3 Q-48.25 42.15 -48.25 40.5 L-48.25 -44.5" fill="none" stroke="#000000" stroke-linecap="round" stroke-linejoin="round" stroke-opacity="0.0" stroke-width="1.0">
      <animate attributeName="stroke" dur="2s" repeatCount="indefinite" values="#000000;#000001"/>
      <animate attributeName="stroke-width" dur="2s" repeatCount="indefinite" values="0.0;0.0"/>
      <animate attributeName="fill-opacity" dur="2s" repeatCount="indefinite" values="0.0;0.0"/>
      <animate attributeName="d" dur="2s" repeatCount="indefinite" values="M-48.25 -44.5 Q-37.75 -34.9 -23.85 -40.35 -11.9 -45.05 -4.1 -45.65 L-1.75 -45.75 Q14.75 -45.85 25.85 -40.6 38.25 -37.25 45.5 -40.75 47.0 -41.5 48.25 -42.5 L48.25 37.9 Q48.25 39.2 48.25 40.5 L48.2 41.0 Q48.05 42.35 47.05 43.3 L46.85 43.5 Q45.75 44.5 44.25 44.5 5.6 40.65 -40.15 44.2 -41.7 44.3 -43.25 44.4 L-44.25 44.5 Q-45.35 44.5 -46.25 44.0 L-47.1 43.3 Q-48.25 42.15 -48.25 40.5 L-48.25 -44.5;M-48.25 -50.0 Q-35.95 -51.65 -21.4 -48.1 -11.8 -45.8 -1.25 -41.25 L1.1 -40.5 Q17.0 -35.5 29.35 -37.0 40.15 -38.3 48.25 -44.5 48.25 -42.8 48.25 -41.1 L48.25 40.5 Q48.25 41.9 47.4 42.95 L47.05 43.3 Q46.0 44.4 44.55 44.5 L44.25 44.5 Q42.9 44.35 41.5 44.2 2.25 40.65 -44.25 44.5 -45.9 44.5 -47.1 43.3 L-47.65 42.65 Q-48.25 41.7 -48.25 40.5 L-48.25 39.3 Q-48.25 37.8 -48.25 36.3 L-48.25 -50.0"/>
    </path>
  </g>
</svg>
