<?xml version="1.0" encoding="UTF-8" standalone="no"?>
<svg xmlns:xlink="http://www.w3.org/1999/xlink" height="315.0px" width="121.3px" xmlns="http://www.w3.org/2000/svg">
  <g transform="matrix(1.0, 0.0, 0.0, 1.0, 60.1, 165.6)">
    <use data-characterId="49" height="223.8" transform="matrix(0.8124, 0.0, 0.0, 0.9, -54.4276, -74.9593)" width="120.25" xlink:href="#shape0"/>
  </g>
  <defs>
    <g id="shape0" transform="matrix(1.0, 0.0, 0.0, 1.0, 60.1, 111.9)">
      <path d="M-16.45 -111.9 Q-15.45 -111.15 -8.9 -106.75 -2.9 -102.7 1.4 -99.4 15.1 -88.75 23.25 -76.7 28.6 -79.45 44.95 -80.6 L60.15 -81.2 53.55 -64.0 49.0 -63.15 38.2 -20.4 35.45 -9.55 32.1 24.7 29.0 50.85 23.2 83.6 -3.25 111.9 -26.75 99.2 -44.3 84.7 -43.85 79.85 -43.55 79.9 -30.3 27.25 -18.25 33.45 Q-7.25 9.65 -8.4 -33.1 -9.05 -54.45 -11.8 -71.0 L-39.0 -46.8 -38.15 -42.5 -41.8 -47.1 -10.15 -77.7 -16.45 -111.9 M7.8 -64.9 L8.5 -65.7 1.15 -70.7 0.75 -70.95 -1.0 -72.25 -1.4 -67.5 Q-1.25 -61.75 1.45 -56.75 L1.8 -56.2 Q1.85 -60.4 3.8 -60.3 4.7 -60.35 5.5 -58.75 6.3 -57.2 6.45 -55.0 6.6 -52.8 5.95 -51.15 8.8 -48.8 11.3 -48.6 13.75 -48.4 13.9 -50.5 14.45 -57.75 7.8 -64.9 M42.1 -58.95 Q35.9 -59.6 33.15 -58.95 25.95 -57.4 24.2 -49.95 23.7 -47.95 25.5 -46.1 L25.45 -47.75 Q25.5 -50.15 26.3 -51.7 27.05 -53.25 28.1 -53.1 29.15 -52.95 29.85 -51.2 30.55 -49.45 30.5 -47.1 L30.05 -44.15 Q33.0 -43.95 35.65 -45.95 39.15 -48.6 41.0 -54.05 41.9 -56.8 42.1 -58.95" fill="url(#gradient0)" fill-rule="evenodd" stroke="none"/>
      <path d="M0.75 -70.95 L1.15 -70.7 8.5 -65.7 7.8 -64.9 Q5.75 -67.15 1.15 -70.65 L0.75 -70.95" fill="url(#gradient1)" fill-rule="evenodd" stroke="none"/>
      <path d="M7.8 -64.9 Q14.45 -57.75 13.9 -50.5 13.75 -48.4 11.3 -48.6 8.8 -48.8 5.95 -51.15 6.6 -52.8 6.45 -55.0 6.3 -57.2 5.5 -58.75 4.7 -60.35 3.8 -60.3 1.85 -60.4 1.8 -56.2 L1.45 -56.75 Q-1.25 -61.75 -1.4 -67.5 L-1.0 -72.25 0.75 -70.95 1.15 -70.65 Q5.75 -67.15 7.8 -64.9 M42.1 -58.95 Q41.9 -56.8 41.0 -54.05 39.15 -48.6 35.65 -45.95 33.0 -43.95 30.05 -44.15 L30.5 -47.1 Q30.55 -49.45 29.85 -51.2 29.15 -52.95 28.1 -53.1 27.05 -53.25 26.3 -51.7 25.5 -50.15 25.45 -47.75 L25.5 -46.1 Q23.7 -47.95 24.2 -49.95 25.95 -57.4 33.15 -58.95 35.9 -59.6 42.1 -58.95" fill="url(#gradient2)" fill-rule="evenodd" stroke="none"/>
      <path d="M-16.45 -111.9 L-10.15 -77.7 -41.8 -47.1 -45.55 -58.3 -44.8 -63.95 -16.45 -111.9 M-38.15 -42.5 L-39.0 -46.8 -11.8 -71.0 Q-9.05 -54.45 -8.4 -33.1 -7.25 9.65 -18.25 33.45 L-30.3 27.25 -43.55 79.9 -43.85 79.85 -44.3 84.7 -44.8 84.95 Q-44.95 84.0 -47.6 78.8 -50.25 73.55 -53.35 75.55 -56.45 77.55 -60.1 70.65 L-54.1 37.15 -42.05 26.95 Q-35.15 0.15 -36.35 -26.0 -36.8 -34.15 -37.9 -41.3 L-38.15 -42.5" fill="url(#gradient3)" fill-rule="evenodd" stroke="none"/>
    </g>
    <radialGradient cx="0" cy="0" gradientTransform="matrix(0.1587, 0.0, 0.0, 0.1587, -74.6, 85.6)" gradientUnits="userSpaceOnUse" id="gradient0" r="819.2">
      <stop offset="0.0" stop-color="#809ac8"/>
      <stop offset="0.3803921568627451" stop-color="#7e91ba"/>
      <stop offset="0.8941176470588236" stop-color="#51618f"/>
    </radialGradient>
    <radialGradient cx="0" cy="0" gradientTransform="matrix(0.1499, 0.0, 0.0, 0.1499, -445.8, 64.4)" gradientUnits="userSpaceOnUse" id="gradient1" r="819.2">
      <stop offset="0.0" stop-color="#809ac8"/>
      <stop offset="0.3803921568627451" stop-color="#7e91ba"/>
      <stop offset="0.8941176470588236" stop-color="#51618f"/>
    </radialGradient>
    <radialGradient cx="0" cy="0" gradientTransform="matrix(0.0817, 0.0, 0.0, 0.0817, 9.55, -26.55)" gradientUnits="userSpaceOnUse" id="gradient2" r="819.2">
      <stop offset="0.16862745098039217" stop-color="#cecfde"/>
      <stop offset="0.5843137254901961" stop-color="#969ec1"/>
      <stop offset="0.8941176470588236" stop-color="#6d78a7"/>
    </radialGradient>
    <radialGradient cx="0" cy="0" gradientTransform="matrix(0.1577, 0.0, 0.0, 0.1577, -56.4, 83.8)" gradientUnits="userSpaceOnUse" id="gradient3" r="819.2">
      <stop offset="0.0" stop-color="#cecfde"/>
      <stop offset="0.42745098039215684" stop-color="#969ec1"/>
      <stop offset="0.7137254901960784" stop-color="#6d78a7"/>
    </radialGradient>
  </defs>
</svg>
