<?xml version="1.0" encoding="UTF-8" standalone="no"?>
<svg xmlns:xlink="http://www.w3.org/1999/xlink" height="344.95px" width="391.95px" xmlns="http://www.w3.org/2000/svg">
  <g transform="matrix(1.0, 0.0, 0.0, 1.0, 195.95, 172.45)">
    <use data-characterId="153" height="344.95" transform="matrix(0.7715, 0.0, 0.0, 0.7715, -151.1754, -133.0451)" width="391.95" xlink:href="#shape0"/>
  </g>
  <defs>
    <g id="shape0" transform="matrix(1.0, 0.0, 0.0, 1.0, 195.95, 172.45)">
      <path d="M146.1 -169.4 L170.85 -169.7 186.75 -170.4 Q191.85 -170.8 192.05 -171.45 193.75 -121.35 194.45 -80.55 195.15 -39.75 194.95 -7.35 194.8 25.05 193.9 49.95 193.0 74.9 191.6 93.4 190.15 111.9 188.3 124.9 186.5 137.85 184.4 146.35 182.35 154.85 180.2 159.85 178.05 164.8 175.95 167.25 173.85 169.7 172.0 170.55 173.65 171.15 168.75 171.4 163.9 171.6 153.5 171.45 L128.35 171.0 95.4 170.05 56.8 168.95 14.6 167.7 -29.05 166.6 -72.0 165.75 Q-93.05 165.4 -112.2 165.35 -131.3 165.25 -147.5 165.55 L-175.75 166.5 Q-187.9 167.2 -194.95 168.4 -192.45 164.95 -190.75 156.15 -189.1 147.4 -188.1 134.3 -187.15 121.25 -186.7 104.9 -186.3 88.6 -186.35 69.95 -186.35 51.35 -186.7 31.5 L-187.5 -8.5 -188.5 -48.0 -189.4 -84.95 -189.95 -117.35 Q-190.1 -132.2 -189.9 -143.2 -189.65 -154.2 -188.9 -160.45 -188.2 -166.65 -186.8 -167.1 -189.15 -168.1 -185.4 -168.8 L-172.75 -169.95 -150.65 -170.65 -121.0 -170.95 -85.55 -170.9 -46.2 -170.7 -4.7 -170.35 37.1 -169.95 77.4 -169.6 114.3 -169.35 Q131.7 -169.3 146.1 -169.4" fill="#f0f0f0" fill-rule="evenodd" stroke="none"/>
      <path d="M146.1 -169.4 L170.85 -169.7 186.75 -170.4 Q191.85 -170.8 192.05 -171.45 193.75 -121.35 194.45 -80.55 195.15 -39.75 194.95 -7.35 194.8 25.05 193.9 49.95 193.0 74.9 191.6 93.4 190.15 111.9 188.3 124.9 186.5 137.85 184.4 146.35 182.35 154.85 180.2 159.85 178.05 164.8 175.95 167.25 173.85 169.7 172.0 170.55 173.65 171.15 168.75 171.4 163.9 171.6 153.5 171.45 L128.35 171.0 95.4 170.05 56.8 168.95 14.6 167.7 -29.05 166.6 -72.0 165.75 Q-93.05 165.4 -112.2 165.35 -131.3 165.25 -147.5 165.55 L-175.75 166.5 Q-187.9 167.2 -194.95 168.4 -192.45 164.95 -190.75 156.15 -189.1 147.4 -188.1 134.3 -187.15 121.25 -186.7 104.9 -186.3 88.6 -186.35 69.95 -186.35 51.35 -186.7 31.5 L-187.5 -8.5 -188.5 -48.0 -189.4 -84.95 -189.95 -117.35 Q-190.1 -132.2 -189.9 -143.2 -189.65 -154.2 -188.9 -160.45 -188.2 -166.65 -186.8 -167.1 -189.15 -168.1 -185.4 -168.8 L-172.75 -169.95 -150.65 -170.65 -121.0 -170.95 -85.55 -170.9 -46.2 -170.7 -4.7 -170.35 37.1 -169.95 77.4 -169.6 114.3 -169.35 Q131.7 -169.3 146.1 -169.4 Z" fill="none" stroke="#cccccc" stroke-linecap="square" stroke-linejoin="bevel" stroke-width="2.0"/>
    </g>
  </defs>
</svg>
