<?xml version="1.0" encoding="UTF-8" standalone="no"?>
<svg xmlns:xlink="http://www.w3.org/1999/xlink" height="290.0px" width="84.95px" xmlns="http://www.w3.org/2000/svg">
  <g transform="matrix(1.0, 0.0, 0.0, 1.0, 41.25, 124.4)">
    <use data-characterId="46" height="191.35" transform="matrix(0.8056, -0.0141, 0.0158, 0.8997, -27.9884, -31.9753)" width="82.0" xlink:href="#shape0"/>
  </g>
  <defs>
    <g id="shape0" transform="matrix(1.0, 0.0, 0.0, 1.0, 41.0, 95.7)">
      <path d="M28.2 -95.6 L28.45 -94.5 28.15 -95.6 28.2 -95.6" fill="#000000" fill-rule="evenodd" stroke="none"/>
      <path d="M37.9 -44.7 L37.3 -43.75 38.8 -24.1 Q39.3 -14.35 40.45 92.75 L32.85 95.65 -1.45 87.4 Q-5.85 45.55 -7.35 32.75 -12.95 -15.5 -23.1 -43.8 L-21.15 -44.15 -18.0 -44.6 -15.9 -44.8 -10.25 -44.85 -6.35 -44.5 -3.6 -44.05 -0.65 -43.25 Q5.2 -51.5 15.7 -57.55 L17.9 -58.75 21.2 -60.45 Q25.25 -62.4 28.65 -63.4 L37.35 -44.3 37.9 -44.7 M-30.65 -47.2 L-30.9 -47.25 -41.0 -69.7 -37.5 -69.45 -28.9 -68.6 Q-15.4 -66.85 -8.3 -63.7 -0.9 -76.75 11.35 -86.0 19.35 -92.1 28.15 -95.7 L28.2 -95.6 28.15 -95.6 Q26.45 -88.7 28.95 -78.75 30.15 -73.8 31.75 -70.2 26.1 -70.0 17.45 -64.05 7.75 -57.4 -2.15 -45.9 -9.1 -47.8 -20.75 -47.65 L-30.65 -47.2 M11.8 -53.35 Q8.65 -50.45 5.25 -45.15 3.55 -40.4 6.5 -38.3 9.3 -36.3 13.3 -38.3 L14.3 -39.0 Q12.8 -40.25 12.25 -43.15 11.8 -45.3 12.25 -47.0 12.6 -48.7 13.65 -48.95 14.65 -49.2 15.65 -47.8 16.65 -46.45 17.1 -44.3 L17.3 -42.45 Q19.75 -45.95 20.95 -50.05 22.35 -54.95 21.6 -59.35 18.7 -58.2 16.25 -56.7 13.8 -55.2 11.8 -53.35 M10.4 46.95 L11.5 46.45 -5.15 -24.55 -0.55 -26.2 -0.9 -27.75 -6.65 -25.7 10.4 46.95 M13.3 -30.85 L13.0 -32.45 5.05 -29.55 20.05 70.65 21.1 70.0 7.25 -28.65 13.3 -30.85 M20.6 -34.1 L25.0 -35.7 24.8 -37.0 19.1 -34.95 28.55 74.5 29.85 73.9 20.6 -34.1 M-5.5 -40.05 Q-4.7 -40.35 -3.75 -39.35 -2.85 -38.4 -2.25 -36.7 L-1.9 -35.05 Q-0.55 -36.4 -1.2 -39.4 -1.85 -42.5 -3.8 -43.4 -4.8 -43.9 -6.45 -44.15 L-10.3 -44.45 -17.95 -44.35 Q-15.1 -39.35 -11.7 -37.05 -9.3 -35.45 -5.9 -34.85 L-6.05 -35.25 Q-6.6 -36.95 -6.45 -38.35 -6.25 -39.75 -5.5 -40.05" fill="url(#gradient0)" fill-rule="evenodd" stroke="none"/>
      <path d="M28.45 -94.5 L39.5 -57.75 41.0 -46.7 37.9 -44.7 37.35 -44.3 28.65 -63.4 Q25.25 -62.4 21.2 -60.45 L17.9 -58.75 15.7 -57.55 Q5.2 -51.5 -0.65 -43.25 L-3.6 -44.05 -6.35 -44.5 -10.25 -44.85 -15.9 -44.8 -18.0 -44.6 -21.15 -44.15 -23.1 -43.8 -23.15 -43.8 -30.95 -47.15 -30.65 -47.2 -20.75 -47.65 Q-9.1 -47.8 -2.15 -45.9 7.75 -57.4 17.45 -64.05 26.1 -70.0 31.75 -70.2 30.15 -73.8 28.95 -78.75 26.45 -88.7 28.15 -95.6 L28.45 -94.5 M20.6 -34.1 L29.85 73.9 28.55 74.5 19.1 -34.95 24.8 -37.0 25.0 -35.7 20.6 -34.1 M13.3 -30.85 L7.25 -28.65 21.1 70.0 20.05 70.65 5.05 -29.55 13.0 -32.45 13.3 -30.85 M10.4 46.95 L-6.65 -25.7 -0.9 -27.75 -0.55 -26.2 -5.15 -24.55 11.5 46.45 10.4 46.95" fill="url(#gradient1)" fill-rule="evenodd" stroke="none"/>
      <path d="M11.8 -53.35 Q13.8 -55.2 16.25 -56.7 18.7 -58.2 21.6 -59.35 22.35 -54.95 20.95 -50.05 19.75 -45.95 17.3 -42.45 L17.1 -44.3 Q16.65 -46.45 15.65 -47.8 14.65 -49.2 13.65 -48.95 12.6 -48.7 12.25 -47.0 11.8 -45.3 12.25 -43.15 12.8 -40.25 14.3 -39.0 L13.3 -38.3 Q9.3 -36.3 6.5 -38.3 3.55 -40.4 5.25 -45.15 8.65 -50.45 11.8 -53.35 M-5.5 -40.05 Q-6.25 -39.75 -6.45 -38.35 -6.6 -36.95 -6.05 -35.25 L-5.9 -34.85 Q-9.3 -35.45 -11.7 -37.05 -15.1 -39.35 -17.95 -44.35 L-10.3 -44.45 -6.45 -44.15 Q-4.8 -43.9 -3.8 -43.4 -1.85 -42.5 -1.2 -39.4 -0.55 -36.4 -1.9 -35.05 L-2.25 -36.7 Q-2.85 -38.4 -3.75 -39.35 -4.7 -40.35 -5.5 -40.05" fill="url(#gradient2)" fill-rule="evenodd" stroke="none"/>
    </g>
    <radialGradient cx="0" cy="0" gradientTransform="matrix(0.1499, 0.0, 0.0, 0.1499, 78.65, 76.6)" gradientUnits="userSpaceOnUse" id="gradient0" r="819.2">
      <stop offset="0.0" stop-color="#809ac8"/>
      <stop offset="0.3803921568627451" stop-color="#7e91ba"/>
      <stop offset="0.8941176470588236" stop-color="#51618f"/>
    </radialGradient>
    <radialGradient cx="0" cy="0" gradientTransform="matrix(0.1498, 0.0, 0.0, 0.1498, 77.95, 76.0)" gradientUnits="userSpaceOnUse" id="gradient1" r="819.2">
      <stop offset="0.0" stop-color="#cecfde"/>
      <stop offset="0.42745098039215684" stop-color="#969ec1"/>
      <stop offset="0.7137254901960784" stop-color="#6d78a7"/>
    </radialGradient>
    <radialGradient cx="0" cy="0" gradientTransform="matrix(0.0896, 0.0, 0.0, 0.0896, 8.85, -12.45)" gradientUnits="userSpaceOnUse" id="gradient2" r="819.2">
      <stop offset="0.16862745098039217" stop-color="#cecfde"/>
      <stop offset="0.5843137254901961" stop-color="#969ec1"/>
      <stop offset="0.8941176470588236" stop-color="#6d78a7"/>
    </radialGradient>
  </defs>
</svg>
