<?xml version="1.0" encoding="UTF-8" standalone="no"?>
<svg xmlns:xlink="http://www.w3.org/1999/xlink" height="126.9px" width="138.15px" xmlns="http://www.w3.org/2000/svg">
  <g transform="matrix(1.0, 0.0, 0.0, 1.0, 19.6, 35.75)">
    <clipPath id="clipPath0" transform="matrix(1.0, 0.0, 0.0, 1.0, 0.0, 0.0)">
      <path d="M26.85 27.4 L26.75 26.0 Q26.25 18.9 29.6 9.75 L29.9 8.9 30.0 8.7 30.05 8.5 Q29.95 8.2 30.1 7.85 30.4 7.15 31.15 7.4 L33.55 8.35 33.5 8.4 67.65 22.4 67.65 22.35 69.9 23.3 70.3 23.6 Q70.5 23.9 70.35 24.4 L70.3 24.5 70.2 24.6 69.9 24.85 69.25 26.3 Q64.75 36.0 58.7 40.7 59.55 40.2 62.85 39.85 L64.85 39.4 70.85 36.6 72.9 35.25 73.6 34.75 74.6 34.0 75.4 33.2 Q76.95 31.65 77.1 30.2 L77.1 29.45 Q76.95 28.4 76.05 27.4 L75.8 27.2 74.6 27.25 74.45 27.35 74.25 27.5 74.1 28.65 Q72.95 30.75 70.65 30.1 L70.15 29.75 70.0 29.65 69.45 29.05 Q68.75 28.05 69.2 26.6 69.55 25.7 70.35 25.3 L70.25 25.15 Q70.55 24.9 72.75 24.15 74.9 23.4 77.55 25.2 L77.55 25.25 79.2 27.5 Q79.7 28.6 79.5 29.85 78.95 32.35 77.7 33.7 72.1 39.05 66.2 39.9 L61.35 40.65 61.35 40.7 60.75 40.75 59.15 41.1 Q58.75 41.85 59.7 42.05 L59.85 42.05 Q60.3 41.5 61.15 41.75 62.0 42.2 61.7 43.15 L60.65 43.85 60.6 43.9 58.9 42.75 58.85 42.75 58.65 42.3 Q58.15 41.35 58.4 41.2 L58.35 40.95 Q58.2 41.05 58.0 41.2 56.25 42.45 54.45 43.3 49.1 45.9 43.55 45.1 L43.45 45.15 41.05 44.75 40.8 45.5 40.85 45.5 Q41.2 45.7 41.1 46.15 L40.5 46.4 40.45 46.35 40.3 46.75 40.1 47.45 40.95 47.8 Q41.45 48.05 41.3 48.65 41.0 49.1 40.45 49.0 L40.2 48.9 40.9 51.95 Q42.1 54.75 42.15 56.35 42.0 59.0 41.75 58.8 L41.7 58.8 41.55 59.25 41.4 59.65 41.3 59.9 40.95 60.8 25.15 54.35 25.55 53.5 25.5 53.45 25.95 52.3 26.0 52.3 26.35 52.45 26.4 52.5 26.5 52.25 Q27.2 51.15 31.35 49.15 L34.5 47.1 33.65 46.75 33.75 46.7 34.1 46.4 34.3 46.5 34.35 46.45 33.75 46.2 Q33.2 45.9 33.4 45.35 33.65 44.85 34.25 45.05 L36.1 45.85 36.75 45.3 35.45 44.75 35.6 44.45 35.5 44.4 Q35.1 44.15 35.2 43.7 35.4 43.3 35.85 43.45 L36.0 43.5 37.7 44.2 37.8 44.1 36.15 43.25 36.1 43.25 36.3 42.75 Q35.3 42.15 34.65 41.45 L33.65 40.7 32.75 39.9 32.7 39.85 32.3 39.45 Q27.8 35.0 26.95 28.2 L26.8 28.25 Q26.8 28.65 25.4 29.0 L25.35 29.0 24.05 28.9 Q23.15 28.75 23.35 28.55 22.8 28.1 23.05 27.35 L23.05 27.3 23.3 26.95 Q23.75 26.5 24.5 26.75 25.2 27.1 25.15 27.85 L25.15 27.9 25.25 28.0 26.1 28.05 26.3 27.7 26.25 27.55 25.3 26.2 25.0 25.8 25.05 25.8 22.15 21.9 Q18.55 17.1 18.3 9.4 L18.3 9.35 18.3 9.4 Q18.3 7.55 19.75 5.45 20.2 4.7 20.9 4.3 L21.4 4.0 22.75 3.55 24.4 3.45 Q27.5 4.0 28.55 6.05 29.55 8.1 29.55 8.5 L29.5 8.5 29.45 8.5 29.4 8.55 Q29.65 9.3 29.35 10.15 L29.3 10.3 29.0 10.8 28.65 11.2 28.3 11.5 27.8 11.75 Q26.95 12.05 25.85 11.75 23.7 10.65 24.45 8.3 24.65 7.8 25.0 7.45 L25.05 7.45 25.15 7.35 25.1 7.15 25.05 7.15 24.9 6.7 25.0 6.75 24.3 6.1 23.9 6.0 22.4 6.35 21.25 7.2 20.35 9.5 Q20.15 10.95 20.5 13.0 21.55 19.75 24.55 24.2 L26.85 27.4" fill="#006699" fill-rule="evenodd" stroke="none"/>
      <path d="M25.35 29.0 L25.4 29.0 M58.85 42.75 L58.9 42.75 M70.0 29.65 L70.15 29.75" fill="none" stroke="#b36e0b" stroke-linecap="square" stroke-linejoin="bevel" stroke-width="1.0"/>
      <path d="M26.85 27.4 L24.55 24.2 Q21.55 19.75 20.5 13.0 20.15 10.95 20.35 9.5 L21.25 7.2 M24.3 6.1 L25.0 6.75 M25.1 7.15 L25.15 7.35 25.05 7.45 M28.3 11.5 L28.65 11.2 M29.35 10.15 Q29.65 9.3 29.4 8.55 L29.45 8.5 M29.5 8.5 L29.55 8.5 Q29.55 8.1 28.55 6.05 27.5 4.0 24.4 3.45 L22.75 3.55 21.4 4.0 M18.3 9.35 L18.3 9.4 Q18.55 17.1 22.15 21.9 L25.05 25.8 M25.3 26.2 L26.25 27.55 M26.1 28.05 L25.25 28.0 25.15 27.9 M25.4 29.0 Q26.8 28.65 26.8 28.25 L26.95 28.2 M58.65 42.3 L58.85 42.75 M58.9 42.75 L60.6 43.9 60.65 43.85 M59.85 42.05 L59.7 42.05 Q58.75 41.85 59.15 41.1 L60.75 40.75 M61.35 40.65 L66.2 39.9 Q72.1 39.05 77.7 33.7 78.95 32.35 79.5 29.85 79.7 28.6 79.2 27.5 L77.55 25.25 M70.15 29.75 L70.65 30.1 Q72.95 30.75 74.1 28.65 L74.25 27.5 74.45 27.35 M74.6 27.25 L75.8 27.2 M77.1 30.2 Q76.95 31.65 75.4 33.2 M70.85 36.6 L64.85 39.4 62.85 39.85 Q59.55 40.2 58.7 40.7" fill="none" stroke="#006699" stroke-linecap="square" stroke-linejoin="bevel" stroke-width="1.0"/>
    </clipPath>
    <g clip-path="url(#clipPath0)">
      <use data-characterId="5" height="120.05" transform="matrix(0.5604, -0.5604, 0.04, 0.04, 5.9245, 66.5551)" width="147.0" xlink:href="#shape1"/>
    </g>
  </g>
  <defs>
    <g id="shape1" transform="matrix(1.0, 0.0, 0.0, 1.0, 19.3, 91.45)">
      <path d="M-19.3 -91.45 L127.7 -91.45 127.7 28.6 -19.3 28.6 -19.3 -91.45" fill="#ffffff" fill-opacity="0.49803922" fill-rule="evenodd" stroke="none"/>
    </g>
  </defs>
</svg>
