<?xml version="1.0" encoding="UTF-8" standalone="no"?>
<svg xmlns:xlink="http://www.w3.org/1999/xlink" height="95.75px" width="96.5px" xmlns="http://www.w3.org/2000/svg">
  <g transform="matrix(1.0, 0.0, 0.0, 1.0, 48.25, 51.25)">
    <use data-characterId="21" height="95.75" transform="matrix(1.0, 0.0, 0.0, 1.0, -48.25, -51.25)" width="96.5" xlink:href="#morphshape0"/>
  </g>
  <defs>
    <g id="morphshape0" transform="matrix(1.0, 0.0, 0.0, 1.0, 48.25, 51.25)">
      <path d="M-48.2 -48.2 L-48.2 -48.15 -48.2 37.65 Q-48.2 39.2 -47.8 40.6 L-47.5 41.65 Q-47.2 42.6 -46.5 43.2 L-45.75 43.65 Q-44.45 44.45 -42.85 44.4 3.4 40.65 42.4 44.3 43.9 44.4 45.2 44.15 L45.35 44.1 Q46.7 43.75 47.5 42.5 L47.7 42.15 Q48.3 41.0 48.3 39.6 L48.3 -41.5 47.45 -43.1 Q39.05 -45.35 27.1 -47.6 16.45 -49.6 1.85 -45.65 L-1.65 -44.45 Q-14.4 -40.45 -25.65 -38.95 -39.05 -37.2 -48.25 -48.2" fill="#cc6699" fill-rule="evenodd" stroke="none"/>
      <path d="M-48.25 -48.2 Q-39.05 -37.2 -25.65 -38.95 -14.4 -40.45 -1.65 -44.45 L1.85 -45.65 Q16.45 -49.6 27.1 -47.6 39.05 -45.35 47.45 -43.1 L48.3 -41.5 48.3 39.6 Q48.3 41.0 47.7 42.15 L47.5 42.5 Q46.7 43.75 45.35 44.1 L45.2 44.15 Q43.9 44.4 42.4 44.3 3.4 40.65 -42.85 44.4 -44.45 44.45 -45.75 43.65 L-46.5 43.2 Q-47.2 42.6 -47.5 41.65 L-47.8 40.6 Q-48.2 39.2 -48.2 37.65 L-48.2 -48.15 -48.2 -48.2" fill="none" stroke="#000000" stroke-linecap="round" stroke-linejoin="round" stroke-opacity="0.0" stroke-width="1.0"/>
    </g>
  </defs>
</svg>
