<?xml version="1.0" encoding="UTF-8" standalone="no"?>
<svg xmlns:xlink="http://www.w3.org/1999/xlink" height="95.75px" width="96.5px" xmlns="http://www.w3.org/2000/svg">
  <g transform="matrix(1.0, 0.0, 0.0, 1.0, 48.25, 51.25)">
    <use data-characterId="21" height="95.75" transform="matrix(1.0, 0.0, 0.0, 1.0, -48.25, -51.25)" width="96.5" xlink:href="#morphshape0"/>
  </g>
  <defs>
    <g id="morphshape0" transform="matrix(1.0, 0.0, 0.0, 1.0, 48.25, 51.25)">
      <path d="M-48.25 -49.05 L-48.25 -48.95 -48.25 37.05 Q-48.25 38.6 -48.05 40.05 L-47.9 41.15 Q-47.75 42.2 -47.1 42.95 L-46.45 43.55 Q-45.2 44.5 -43.55 44.5 2.8 40.7 41.9 44.3 43.35 44.4 44.7 44.35 L44.9 44.3 Q46.3 44.1 47.25 42.9 L47.5 42.6 Q48.25 41.5 48.25 40.05 L48.25 -41.25 47.8 -43.7 Q39.4 -47.8 27.35 -48.75 16.45 -49.6 1.95 -44.45 L-1.45 -43.05 Q-14.65 -38.5 -25.8 -38.25 -39.1 -37.95 -48.25 -49.0" fill="#cc6699" fill-rule="evenodd" stroke="none"/>
      <path d="M-48.25 -49.0 Q-39.1 -37.95 -25.8 -38.25 -14.65 -38.5 -1.45 -43.05 L1.95 -44.45 Q16.45 -49.6 27.35 -48.75 39.4 -47.8 47.8 -43.7 L48.25 -41.25 48.25 40.05 Q48.25 41.5 47.5 42.6 L47.25 42.9 Q46.3 44.1 44.9 44.3 L44.7 44.35 Q43.35 44.4 41.9 44.3 2.8 40.7 -43.55 44.5 -45.2 44.5 -46.45 43.55 L-47.1 42.95 Q-47.75 42.2 -47.9 41.15 L-48.05 40.05 Q-48.25 38.6 -48.25 37.05 L-48.25 -48.95 -48.25 -49.05" fill="none" stroke="#000000" stroke-linecap="round" stroke-linejoin="round" stroke-opacity="0.0" stroke-width="1.0"/>
    </g>
  </defs>
</svg>
