<?xml version="1.0" encoding="UTF-8" standalone="no"?>
<svg xmlns:xlink="http://www.w3.org/1999/xlink" height="95.75px" width="96.5px" xmlns="http://www.w3.org/2000/svg">
  <g transform="matrix(1.0, 0.0, 0.0, 1.0, 48.25, 51.25)">
    <use data-characterId="21" height="95.75" transform="matrix(1.0, 0.0, 0.0, 1.0, -48.25, -51.25)" width="96.5" xlink:href="#morphshape0"/>
  </g>
  <defs>
    <g id="morphshape0" transform="matrix(1.0, 0.0, 0.0, 1.0, 48.25, 51.25)">
      <path d="M-48.35 -49.55 L-48.35 -49.45 -48.35 36.65 Q-48.35 38.15 -48.25 39.6 L-48.15 40.75 Q-48.1 41.85 -47.5 42.7 L-46.85 43.4 Q-45.6 44.5 -43.95 44.5 2.45 40.65 41.6 44.2 43.05 44.35 44.45 44.4 L44.65 44.4 Q46.1 44.25 47.1 43.1 L47.4 42.8 Q48.25 41.75 48.25 40.3 L48.25 -41.1 48.05 -44.1 Q39.6 -49.5 27.5 -49.55 16.45 -49.55 2.05 -43.55 L-1.35 -42.0 Q-14.9 -37.05 -25.95 -37.7 -39.15 -38.45 -48.25 -49.55" fill="#cc6699" fill-rule="evenodd" stroke="none"/>
      <path d="M-48.25 -49.55 Q-39.15 -38.45 -25.95 -37.7 -14.9 -37.05 -1.35 -42.0 L2.05 -43.55 Q16.45 -49.55 27.5 -49.55 39.6 -49.5 48.05 -44.1 L48.25 -41.1 48.25 40.3 Q48.25 41.75 47.4 42.8 L47.1 43.1 Q46.1 44.25 44.65 44.4 L44.45 44.4 Q43.05 44.35 41.6 44.2 2.45 40.65 -43.95 44.5 -45.6 44.5 -46.85 43.4 L-47.5 42.7 Q-48.1 41.85 -48.15 40.75 L-48.25 39.6 Q-48.35 38.15 -48.35 36.65 L-48.35 -49.45 -48.35 -49.55" fill="none" stroke="#000000" stroke-linecap="round" stroke-linejoin="round" stroke-opacity="0.0" stroke-width="1.0"/>
    </g>
  </defs>
</svg>
