<?xml version="1.0" encoding="UTF-8" standalone="no"?>
<svg xmlns:xlink="http://www.w3.org/1999/xlink" height="95.75px" width="96.5px" xmlns="http://www.w3.org/2000/svg">
  <g transform="matrix(1.0, 0.0, 0.0, 1.0, 48.25, 51.25)">
    <use data-characterId="21" height="95.75" transform="matrix(1.0, 0.0, 0.0, 1.0, -48.25, -51.25)" width="96.5" xlink:href="#morphshape0"/>
  </g>
  <defs>
    <g id="morphshape0" transform="matrix(1.0, 0.0, 0.0, 1.0, 48.25, 51.25)">
      <path d="M-48.3 -49.95 L-48.3 -49.85 -48.3 36.35 Q-48.3 37.85 -48.3 39.35 L-48.3 40.55 Q-48.3 41.7 -47.75 42.6 L-47.15 43.35 Q-45.95 44.5 -44.3 44.5 2.15 40.65 41.35 44.2 42.8 44.35 44.2 44.5 L44.4 44.5 Q45.9 44.45 47.0 43.3 L47.3 43.0 Q48.2 41.95 48.2 40.5 L48.2 -41.0 48.15 -44.4 Q39.7 -50.6 27.55 -50.1 16.4 -49.6 2.05 -43.05 L-1.3 -41.45 Q-15.05 -36.25 -26.05 -37.4 -39.2 -38.8 -48.25 -49.9" fill="#cc6699" fill-rule="evenodd" stroke="none"/>
      <path d="M-48.25 -49.9 Q-39.2 -38.8 -26.05 -37.4 -15.05 -36.25 -1.3 -41.45 L2.05 -43.05 Q16.4 -49.6 27.55 -50.1 39.7 -50.6 48.15 -44.4 L48.2 -41.0 48.2 40.5 Q48.2 41.95 47.3 43.0 L47.0 43.3 Q45.9 44.45 44.4 44.5 L44.2 44.5 Q42.8 44.35 41.35 44.2 2.15 40.65 -44.3 44.5 -45.95 44.5 -47.15 43.35 L-47.75 42.6 Q-48.3 41.7 -48.3 40.55 L-48.3 39.35 Q-48.3 37.85 -48.3 36.35 L-48.3 -49.85 -48.3 -49.95" fill="none" stroke="#000000" stroke-linecap="round" stroke-linejoin="round" stroke-opacity="0.0" stroke-width="1.0"/>
    </g>
  </defs>
</svg>
