<?xml version="1.0" encoding="UTF-8" standalone="no"?>
<svg xmlns:xlink="http://www.w3.org/1999/xlink" height="95.75px" width="96.5px" xmlns="http://www.w3.org/2000/svg">
  <g transform="matrix(1.0, 0.0, 0.0, 1.0, 48.25, 51.25)">
    <use data-characterId="22" height="94.8" transform="matrix(1.0, 0.0, 0.0, 1.0, -48.25, -50.3)" width="96.5" xlink:href="#morphshape0"/>
  </g>
  <defs>
    <g id="morphshape0" transform="matrix(1.0, 0.0, 0.0, 1.0, 48.25, 50.3)">
      <path d="M-48.25 -49.8 L-48.25 -49.7 -48.25 37.5 Q-48.25 39.05 -48.2 40.6 L-48.2 40.6 Q-48.15 42.25 -47.0 43.35 L-46.8 43.55 Q-45.65 44.5 -44.15 44.5 3.6 40.55 43.7 44.4 L44.25 44.5 Q45.65 44.5 46.65 43.65 L47.05 43.3 Q48.1 42.3 48.25 40.95 L48.25 40.5 48.25 -44.1 48.25 -44.4 Q39.15 -50.85 25.65 -49.7 13.9 -48.75 -1.25 -41.4 L-2.05 -41.1 Q-14.8 -36.5 -25.35 -37.3 -38.9 -38.45 -48.25 -49.8" fill="#cc6699" fill-rule="evenodd" stroke="none"/>
      <path d="M-48.25 -49.8 Q-38.9 -38.45 -25.35 -37.3 -14.8 -36.5 -2.05 -41.1 L-1.25 -41.4 Q13.9 -48.75 25.65 -49.7 39.15 -50.85 48.25 -44.4 L48.25 -44.1 48.25 40.5 48.25 40.95 Q48.1 42.3 47.05 43.3 L46.65 43.65 Q45.65 44.5 44.25 44.5 L43.7 44.4 Q3.6 40.55 -44.15 44.5 -45.65 44.5 -46.8 43.55 L-47.0 43.35 Q-48.15 42.25 -48.2 40.6 L-48.2 40.6 Q-48.25 39.05 -48.25 37.5 L-48.25 -49.7 -48.25 -49.8 Z" fill="none" stroke="#000000" stroke-linecap="round" stroke-linejoin="round" stroke-opacity="0.0" stroke-width="1.0"/>
    </g>
  </defs>
</svg>
