<?xml version="1.0" encoding="UTF-8" standalone="no"?>
<svg xmlns:xlink="http://www.w3.org/1999/xlink" height="95.75px" width="96.5px" xmlns="http://www.w3.org/2000/svg">
  <g transform="matrix(1.0, 0.0, 0.0, 1.0, 48.25, 51.25)">
    <use data-characterId="22" height="94.8" transform="matrix(1.0, 0.0, 0.0, 1.0, -48.25, -50.3)" width="96.5" xlink:href="#morphshape0"/>
  </g>
  <defs>
    <g id="morphshape0" transform="matrix(1.0, 0.0, 0.0, 1.0, 48.25, 50.3)">
      <path d="M-48.4 -49.2 L-48.4 -49.1 -48.4 37.85 Q-48.4 39.4 -48.2 40.9 L-48.2 40.9 Q-48.0 42.45 -46.8 43.4 L-46.6 43.55 Q-45.4 44.35 -43.9 44.35 3.7 40.45 43.7 44.3 L44.25 44.4 Q45.65 44.4 46.65 43.55 L47.05 43.2 Q48.05 42.2 48.2 40.85 L48.2 40.4 48.2 -43.95 48.15 -44.15 Q39.3 -49.1 25.65 -48.6 14.0 -48.4 -1.3 -41.95 L-2.0 -41.7 Q-14.2 -37.7 -25.15 -37.7 -38.75 -38.0 -48.25 -49.1" fill="#cc6699" fill-rule="evenodd" stroke="none"/>
      <path d="M-48.25 -49.1 Q-38.75 -38.0 -25.15 -37.7 -14.2 -37.7 -2.0 -41.7 L-1.3 -41.95 Q14.0 -48.4 25.65 -48.6 39.3 -49.1 48.15 -44.15 L48.2 -43.95 48.2 40.4 48.2 40.85 Q48.05 42.2 47.05 43.2 L46.65 43.55 Q45.65 44.4 44.25 44.4 L43.7 44.3 Q3.7 40.45 -43.9 44.35 -45.4 44.35 -46.6 43.55 L-46.8 43.4 Q-48.0 42.45 -48.2 40.9 L-48.2 40.9 Q-48.4 39.4 -48.4 37.85 L-48.4 -49.1 -48.4 -49.2" fill="none" stroke="#000000" stroke-linecap="round" stroke-linejoin="round" stroke-opacity="0.0" stroke-width="1.0"/>
    </g>
  </defs>
</svg>
