<?xml version="1.0" encoding="UTF-8" standalone="no"?>
<svg xmlns:xlink="http://www.w3.org/1999/xlink" height="95.75px" width="96.5px" xmlns="http://www.w3.org/2000/svg">
  <g transform="matrix(1.0, 0.0, 0.0, 1.0, 48.25, 51.25)">
    <use data-characterId="22" height="94.8" transform="matrix(1.0, 0.0, 0.0, 1.0, -48.25, -50.3)" width="96.5" xlink:href="#morphshape0"/>
  </g>
  <defs>
    <g id="morphshape0" transform="matrix(1.0, 0.0, 0.0, 1.0, 48.25, 50.3)">
      <path d="M-48.3 -48.0 L-48.3 -47.95 -48.3 38.5 Q-48.3 40.1 -47.9 41.5 L-47.85 41.55 Q-47.45 43.0 -46.2 43.75 L-46.0 43.9 Q-44.75 44.5 -43.25 44.45 4.05 40.6 43.85 44.45 L44.4 44.5 Q45.75 44.45 46.75 43.55 L47.15 43.2 Q48.15 42.2 48.25 40.85 L48.25 40.4 48.25 -43.55 48.2 -43.65 Q39.7 -46.05 25.75 -46.65 14.25 -47.75 -1.3 -42.85 L-1.9 -42.65 Q-13.15 -39.6 -24.8 -38.3 -38.5 -37.25 -48.25 -48.0" fill="#cc6699" fill-rule="evenodd" stroke="none"/>
      <path d="M-48.25 -48.0 Q-38.5 -37.25 -24.8 -38.3 -13.15 -39.6 -1.9 -42.65 L-1.3 -42.85 Q14.25 -47.75 25.75 -46.65 39.7 -46.05 48.2 -43.65 L48.25 -43.55 48.25 40.4 48.25 40.85 Q48.15 42.2 47.15 43.2 L46.75 43.55 Q45.75 44.45 44.4 44.5 L43.85 44.45 Q4.05 40.6 -43.25 44.45 -44.75 44.5 -46.0 43.9 L-46.2 43.75 Q-47.45 43.0 -47.85 41.55 L-47.9 41.5 Q-48.3 40.1 -48.3 38.5 L-48.3 -47.95 -48.3 -48.0" fill="none" stroke="#000000" stroke-linecap="round" stroke-linejoin="round" stroke-opacity="0.0" stroke-width="1.0"/>
    </g>
  </defs>
</svg>
