<?xml version="1.0" encoding="UTF-8" standalone="no"?>
<svg xmlns:xlink="http://www.w3.org/1999/xlink" height="95.75px" width="96.5px" xmlns="http://www.w3.org/2000/svg">
  <g transform="matrix(1.0, 0.0, 0.0, 1.0, 48.25, 51.25)">
    <use data-characterId="22" height="94.8" transform="matrix(1.0, 0.0, 0.0, 1.0, -48.25, -50.3)" width="96.5" xlink:href="#morphshape0"/>
  </g>
  <defs>
    <g id="morphshape0" transform="matrix(1.0, 0.0, 0.0, 1.0, 48.25, 50.3)">
      <path d="M-48.2 -46.5 L-48.2 -46.45 -48.2 39.4 Q-48.2 41.0 -47.45 42.3 L-47.4 42.35 Q-46.7 43.6 -45.35 44.05 L-45.15 44.1 Q-43.8 44.4 -42.35 44.35 4.6 40.55 44.1 44.45 L44.7 44.45 Q46.0 44.35 46.95 43.4 L47.3 43.05 Q48.2 42.0 48.25 40.6 L48.25 40.2 48.25 -43.15 48.1 -43.15 Q40.05 -42.0 25.75 -44.05 14.45 -46.95 -1.4 -44.15 L-1.9 -44.05 Q-11.85 -42.35 -24.45 -39.25 -38.2 -36.25 -48.25 -46.5" fill="#cc6699" fill-rule="evenodd" stroke="none"/>
      <path d="M-48.25 -46.5 Q-38.2 -36.25 -24.45 -39.25 -11.85 -42.35 -1.9 -44.05 L-1.4 -44.15 Q14.45 -46.95 25.75 -44.05 40.05 -42.0 48.1 -43.15 L48.25 -43.15 48.25 40.2 48.25 40.6 Q48.2 42.0 47.3 43.05 L46.95 43.4 Q46.0 44.35 44.7 44.45 L44.1 44.45 Q4.6 40.55 -42.35 44.35 -43.8 44.4 -45.15 44.1 L-45.35 44.05 Q-46.7 43.6 -47.4 42.35 L-47.45 42.3 Q-48.2 41.0 -48.2 39.4 L-48.2 -46.45 -48.2 -46.5" fill="none" stroke="#000000" stroke-linecap="round" stroke-linejoin="round" stroke-opacity="0.0" stroke-width="1.0"/>
    </g>
  </defs>
</svg>
