<?xml version="1.0" encoding="UTF-8" standalone="no"?>
<svg xmlns:xlink="http://www.w3.org/1999/xlink" height="95.75px" width="96.5px" xmlns="http://www.w3.org/2000/svg">
  <g transform="matrix(1.0, 0.0, 0.0, 1.0, 48.25, 51.25)">
    <use data-characterId="20" height="95.75" transform="matrix(1.0, 0.0, 0.0, 1.0, -48.25, -51.25)" width="96.5" xlink:href="#morphshape0"/>
  </g>
  <defs>
    <g id="morphshape0" transform="matrix(1.0, 0.0, 0.0, 1.0, 48.25, 51.25)">
      <path d="M-48.3 -49.85 L-48.3 -49.75 -48.3 35.55 Q-48.3 37.05 -48.25 38.55 -48.25 39.6 -48.2 40.65 L-48.0 41.75 Q-47.7 42.65 -47.0 43.35 -45.8 44.5 -44.15 44.5 1.2 40.75 39.55 44.0 41.05 44.15 42.55 44.25 43.45 44.35 44.35 44.4 L45.75 44.1 Q46.5 43.8 47.1 43.15 48.25 42.0 48.25 40.35 L48.25 -38.15 Q48.2 -41.25 48.1 -44.35 40.7 -38.75 31.05 -37.45 19.6 -35.8 4.8 -39.75 L-1.35 -41.55 Q-12.2 -46.05 -22.1 -48.1 -36.3 -51.1 -48.25 -49.85" fill="#cc6699" fill-rule="evenodd" stroke="none"/>
      <path d="M-48.25 -49.85 Q-36.3 -51.1 -22.1 -48.1 -12.2 -46.05 -1.35 -41.55 L4.8 -39.75 Q19.6 -35.8 31.05 -37.45 40.7 -38.75 48.1 -44.35 48.2 -41.25 48.25 -38.15 L48.25 40.35 Q48.25 42.0 47.1 43.15 46.5 43.8 45.75 44.1 L44.35 44.4 Q43.45 44.35 42.55 44.25 41.05 44.15 39.55 44.0 1.2 40.75 -44.15 44.5 -45.8 44.5 -47.0 43.35 -47.7 42.65 -48.0 41.75 L-48.2 40.65 Q-48.25 39.6 -48.25 38.55 -48.3 37.05 -48.3 35.55 L-48.3 -49.75 -48.3 -49.85" fill="none" stroke="#000000" stroke-linecap="round" stroke-linejoin="round" stroke-opacity="0.0" stroke-width="1.0"/>
    </g>
  </defs>
</svg>
