<?xml version="1.0" encoding="UTF-8" standalone="no"?>
<svg xmlns:xlink="http://www.w3.org/1999/xlink" height="95.75px" width="96.5px" xmlns="http://www.w3.org/2000/svg">
  <g transform="matrix(1.0, 0.0, 0.0, 1.0, 48.25, 51.25)">
    <use data-characterId="23" height="95.0" transform="matrix(1.0, 0.0, 0.0, 1.0, -48.25, -50.5)" width="96.5" xlink:href="#morphshape0"/>
  </g>
  <defs>
    <g id="morphshape0" transform="matrix(1.0, 0.0, 0.0, 1.0, 48.25, 50.5)">
      <path d="M-48.35 -46.25 L-48.35 39.15 Q-48.35 40.75 -47.55 42.0 L-46.95 42.85 Q-46.35 43.55 -45.4 43.85 L-44.55 44.0 Q-43.1 44.3 -41.5 44.25 4.5 40.6 43.35 44.35 44.8 44.4 46.0 43.75 L46.25 43.6 Q47.4 42.9 47.85 41.65 L48.0 41.2 Q48.25 40.0 48.25 38.65 L48.25 -42.1 Q47.4 -41.95 46.35 -41.95 38.85 -37.6 26.95 -39.55 15.45 -42.75 -0.85 -44.2 L-3.2 -44.35 Q-11.85 -45.3 -23.1 -42.75 -37.2 -40.05 -48.25 -46.2" fill="#cc6699" fill-rule="evenodd" stroke="none"/>
      <path d="M-48.25 -46.2 Q-37.2 -40.05 -23.1 -42.75 -11.85 -45.3 -3.2 -44.35 L-0.85 -44.2 Q15.45 -42.75 26.95 -39.55 38.85 -37.6 46.35 -41.95 47.4 -41.95 48.25 -42.1 L48.25 38.65 Q48.25 40.0 48.0 41.2 L47.85 41.65 Q47.4 42.9 46.25 43.6 L46.0 43.75 Q44.8 44.4 43.35 44.35 4.5 40.6 -41.5 44.25 -43.1 44.3 -44.55 44.0 L-45.4 43.85 Q-46.35 43.55 -46.95 42.85 L-47.55 42.0 Q-48.35 40.75 -48.35 39.15 L-48.35 -46.25" fill="none" stroke="#000000" stroke-linecap="round" stroke-linejoin="round" stroke-opacity="0.0" stroke-width="1.0"/>
    </g>
  </defs>
</svg>
