<?xml version="1.0" encoding="UTF-8" standalone="no"?>
<svg xmlns:xlink="http://www.w3.org/1999/xlink" height="95.75px" width="96.5px" xmlns="http://www.w3.org/2000/svg">
  <g transform="matrix(1.0, 0.0, 0.0, 1.0, 48.25, 51.25)">
    <use data-characterId="23" height="95.0" transform="matrix(1.0, 0.0, 0.0, 1.0, -48.25, -50.5)" width="96.5" xlink:href="#morphshape0"/>
  </g>
  <defs>
    <g id="morphshape0" transform="matrix(1.0, 0.0, 0.0, 1.0, 48.25, 50.5)">
      <path d="M-48.25 -47.65 L-48.25 38.05 Q-48.25 39.6 -47.75 40.95 L-47.35 41.95 Q-46.95 42.85 -46.15 43.4 L-45.4 43.7 Q-44.05 44.3 -42.45 44.25 3.7 40.55 42.7 44.25 44.15 44.35 45.4 44.0 L45.65 43.9 Q46.9 43.4 47.55 42.2 L47.75 41.8 Q48.2 40.65 48.2 39.3 L48.2 -41.75 Q47.65 -42.25 47.0 -42.85 39.3 -37.85 27.8 -38.6 16.0 -40.1 -0.15 -42.85 L-2.5 -43.2 Q-11.85 -45.45 -22.5 -44.65 -36.75 -44.2 -48.25 -47.55" fill="#cc6699" fill-rule="evenodd" stroke="none"/>
      <path d="M-48.25 -47.55 Q-36.75 -44.2 -22.5 -44.65 -11.85 -45.45 -2.5 -43.2 L-0.15 -42.85 Q16.0 -40.1 27.8 -38.6 39.3 -37.85 47.0 -42.85 47.65 -42.25 48.2 -41.75 L48.2 39.3 Q48.2 40.65 47.75 41.8 L47.55 42.2 Q46.9 43.4 45.65 43.9 L45.4 44.0 Q44.15 44.35 42.7 44.25 3.7 40.55 -42.45 44.25 -44.05 44.3 -45.4 43.7 L-46.15 43.4 Q-46.95 42.85 -47.35 41.95 L-47.75 40.95 Q-48.25 39.6 -48.25 38.05 L-48.25 -47.65" fill="none" stroke="#000000" stroke-linecap="round" stroke-linejoin="round" stroke-opacity="0.0" stroke-width="1.0"/>
    </g>
  </defs>
</svg>
