<?xml version="1.0" encoding="UTF-8" standalone="no"?>
<svg xmlns:xlink="http://www.w3.org/1999/xlink" height="95.75px" width="96.5px" xmlns="http://www.w3.org/2000/svg">
  <g transform="matrix(1.0, 0.0, 0.0, 1.0, 48.25, 51.25)">
    <use data-characterId="23" height="95.0" transform="matrix(1.0, 0.0, 0.0, 1.0, -48.25, -50.5)" width="96.5" xlink:href="#morphshape0"/>
  </g>
  <defs>
    <g id="morphshape0" transform="matrix(1.0, 0.0, 0.0, 1.0, 48.25, 50.5)">
      <path d="M-48.3 -48.65 L-48.3 37.35 Q-48.3 38.9 -48.0 40.3 L-47.8 41.4 Q-47.6 42.45 -46.9 43.15 L-46.25 43.6 Q-44.95 44.5 -43.3 44.5 3.0 40.7 42.1 44.3 43.5 44.4 44.8 44.25 L45.1 44.2 Q46.45 43.9 47.3 42.75 L47.6 42.35 Q48.25 41.25 48.25 39.85 L48.25 -41.45 Q47.95 -42.5 47.6 -43.6 39.7 -38.05 28.5 -37.9 16.45 -38.1 0.4 -41.85 L-1.95 -42.4 Q-11.8 -45.65 -22.0 -46.2 -36.4 -47.5 -48.25 -48.65" fill="#cc6699" fill-rule="evenodd" stroke="none"/>
      <path d="M-48.25 -48.65 Q-36.4 -47.5 -22.0 -46.2 -11.8 -45.65 -1.95 -42.4 L0.4 -41.85 Q16.45 -38.1 28.5 -37.9 39.7 -38.05 47.6 -43.6 47.95 -42.5 48.25 -41.45 L48.25 39.85 Q48.25 41.25 47.6 42.35 L47.3 42.75 Q46.45 43.9 45.1 44.2 L44.8 44.25 Q43.5 44.4 42.1 44.3 3.0 40.7 -43.3 44.5 -44.95 44.5 -46.25 43.6 L-46.9 43.15 Q-47.6 42.45 -47.8 41.4 L-48.0 40.3 Q-48.3 38.9 -48.3 37.35 L-48.3 -48.65" fill="none" stroke="#000000" stroke-linecap="round" stroke-linejoin="round" stroke-opacity="0.0" stroke-width="1.0"/>
    </g>
  </defs>
</svg>
