<?xml version="1.0" encoding="UTF-8" standalone="no"?>
<svg xmlns:xlink="http://www.w3.org/1999/xlink" height="95.75px" width="96.5px" xmlns="http://www.w3.org/2000/svg">
  <g transform="matrix(1.0, 0.0, 0.0, 1.0, 48.25, 51.25)">
    <use data-characterId="23" height="95.0" transform="matrix(1.0, 0.0, 0.0, 1.0, -48.25, -50.5)" width="96.5" xlink:href="#morphshape0"/>
  </g>
  <defs>
    <g id="morphshape0" transform="matrix(1.0, 0.0, 0.0, 1.0, 48.25, 50.5)">
      <path d="M-48.25 -49.35 L-48.25 36.8 Q-48.25 38.3 -48.1 39.75 L-48.0 40.9 Q-47.9 42.0 -47.25 42.85 L-46.65 43.4 Q-45.4 44.45 -43.75 44.45 2.65 40.65 41.85 44.25 43.25 44.4 44.55 44.4 L44.85 44.4 Q46.25 44.2 47.2 43.05 L47.5 42.7 Q48.25 41.6 48.25 40.2 L48.25 -41.25 Q48.1 -42.65 47.95 -44.1 39.95 -38.2 28.95 -37.4 16.75 -36.65 0.8 -41.1 L-1.55 -41.75 Q-11.8 -45.75 -21.65 -47.25 -36.15 -49.8 -48.25 -49.4" fill="#cc6699" fill-rule="evenodd" stroke="none"/>
      <path d="M-48.25 -49.4 Q-36.15 -49.8 -21.65 -47.25 -11.8 -45.75 -1.55 -41.75 L0.8 -41.1 Q16.75 -36.65 28.95 -37.4 39.95 -38.2 47.95 -44.1 48.1 -42.65 48.25 -41.25 L48.25 40.2 Q48.25 41.6 47.5 42.7 L47.2 43.05 Q46.25 44.2 44.85 44.4 L44.55 44.4 Q43.25 44.4 41.85 44.25 2.65 40.65 -43.75 44.45 -45.4 44.45 -46.65 43.4 L-47.25 42.85 Q-47.9 42.0 -48.0 40.9 L-48.1 39.75 Q-48.25 38.3 -48.25 36.8 L-48.25 -49.35" fill="none" stroke="#000000" stroke-linecap="round" stroke-linejoin="round" stroke-opacity="0.0" stroke-width="1.0"/>
    </g>
  </defs>
</svg>
