<?xml version="1.0" encoding="UTF-8" standalone="no"?>
<svg xmlns:xlink="http://www.w3.org/1999/xlink" height="95.75px" width="96.5px" xmlns="http://www.w3.org/2000/svg">
  <g transform="matrix(1.0, 0.0, 0.0, 1.0, 48.25, 51.25)">
    <use data-characterId="23" height="95.0" transform="matrix(1.0, 0.0, 0.0, 1.0, -48.25, -50.5)" width="96.5" xlink:href="#morphshape0"/>
  </g>
  <defs>
    <g id="morphshape0" transform="matrix(1.0, 0.0, 0.0, 1.0, 48.25, 50.5)">
      <path d="M-48.3 -49.85 L-48.3 36.4 Q-48.3 37.9 -48.25 39.4 L-48.25 40.6 Q-48.25 41.8 -47.65 42.7 L-47.1 43.35 Q-45.9 44.5 -44.25 44.5 2.25 40.65 41.5 44.2 42.9 44.35 44.25 44.45 L44.55 44.45 Q46.0 44.35 47.05 43.25 L47.4 42.9 Q48.25 41.85 48.25 40.45 L48.25 -41.1 Q48.2 -42.75 48.15 -44.4 40.05 -38.25 29.2 -37.1 16.9 -35.8 1.0 -40.65 L-1.35 -41.4 Q-11.8 -45.8 -21.45 -47.9 -36.0 -51.2 -48.25 -49.85" fill="#cc6699" fill-rule="evenodd" stroke="none"/>
      <path d="M-48.25 -49.85 Q-36.0 -51.2 -21.45 -47.9 -11.8 -45.8 -1.35 -41.4 L1.0 -40.65 Q16.9 -35.8 29.2 -37.1 40.05 -38.25 48.15 -44.4 48.2 -42.75 48.25 -41.1 L48.25 40.45 Q48.25 41.85 47.4 42.9 L47.05 43.25 Q46.0 44.35 44.55 44.45 L44.25 44.45 Q42.9 44.35 41.5 44.2 2.25 40.65 -44.25 44.5 -45.9 44.5 -47.1 43.35 L-47.65 42.7 Q-48.25 41.8 -48.25 40.6 L-48.25 39.4 Q-48.3 37.9 -48.3 36.4 L-48.3 -49.85" fill="none" stroke="#000000" stroke-linecap="round" stroke-linejoin="round" stroke-opacity="0.0" stroke-width="1.0"/>
    </g>
  </defs>
</svg>
