<?xml version="1.0" encoding="UTF-8" standalone="no"?>
<svg xmlns:xlink="http://www.w3.org/1999/xlink" height="95.75px" width="96.5px" xmlns="http://www.w3.org/2000/svg">
  <g transform="matrix(1.0, 0.0, 0.0, 1.0, 48.25, 51.25)">
    <use data-characterId="20" height="95.75" transform="matrix(1.0, 0.0, 0.0, 1.0, -48.25, -51.25)" width="96.5" xlink:href="#morphshape0"/>
  </g>
  <defs>
    <g id="morphshape0" transform="matrix(1.0, 0.0, 0.0, 1.0, 48.25, 51.25)">
      <path d="M-48.4 -49.35 L-48.4 -49.25 -48.4 36.0 Q-48.4 37.5 -48.25 38.95 -48.15 39.95 -48.05 40.9 L-47.8 41.95 Q-47.4 42.8 -46.65 43.4 -45.4 44.45 -43.75 44.45 1.6 40.75 39.95 44.05 41.45 44.2 42.9 44.2 43.8 44.2 44.65 44.2 L45.95 43.85 Q46.6 43.5 47.15 42.85 48.2 41.65 48.2 40.0 L48.2 -38.45 Q47.95 -41.05 47.65 -43.8 40.25 -38.4 30.6 -37.8 19.35 -36.95 4.5 -40.7 L-1.7 -42.25 Q-12.45 -46.25 -22.4 -47.6 -36.55 -49.6 -48.25 -49.4" fill="#cc6699" fill-rule="evenodd" stroke="none"/>
      <path d="M-48.25 -49.4 Q-36.55 -49.6 -22.4 -47.6 -12.45 -46.25 -1.7 -42.25 L4.5 -40.7 Q19.35 -36.95 30.6 -37.8 40.25 -38.4 47.65 -43.8 47.95 -41.05 48.2 -38.45 L48.2 40.0 Q48.2 41.65 47.15 42.85 46.6 43.5 45.95 43.85 L44.65 44.2 Q43.8 44.2 42.9 44.2 41.45 44.2 39.95 44.05 1.6 40.75 -43.75 44.45 -45.4 44.45 -46.65 43.4 -47.4 42.8 -47.8 41.95 L-48.05 40.9 Q-48.15 39.95 -48.25 38.95 -48.4 37.5 -48.4 36.0 L-48.4 -49.25 -48.4 -49.35" fill="none" stroke="#000000" stroke-linecap="round" stroke-linejoin="round" stroke-opacity="0.0" stroke-width="1.0"/>
    </g>
  </defs>
</svg>
