<?xml version="1.0" encoding="UTF-8" standalone="no"?>
<svg xmlns:xlink="http://www.w3.org/1999/xlink" height="95.75px" width="96.5px" xmlns="http://www.w3.org/2000/svg">
  <g transform="matrix(1.0, 0.0, 0.0, 1.0, 48.25, 51.25)">
    <use data-characterId="20" height="95.75" transform="matrix(1.0, 0.0, 0.0, 1.0, -48.25, -51.25)" width="96.5" xlink:href="#morphshape0"/>
  </g>
  <defs>
    <g id="morphshape0" transform="matrix(1.0, 0.0, 0.0, 1.0, 48.25, 51.25)">
      <path d="M-48.35 -48.55 L-48.35 -48.5 -48.35 36.7 Q-48.35 38.25 -48.05 39.65 -47.85 40.65 -47.6 41.5 L-47.2 42.4 Q-46.7 43.1 -45.95 43.6 -44.65 44.45 -43.0 44.4 2.3 40.75 40.6 44.15 42.15 44.25 43.55 44.05 44.4 43.95 45.15 43.8 L46.3 43.25 Q46.85 42.8 47.3 42.1 48.2 40.85 48.2 39.2 L48.2 -39.2 Q47.6 -40.95 46.9 -43.05 39.5 -37.95 29.8 -38.55 18.8 -39.0 3.9 -42.4 L-2.3 -43.6 Q-12.8 -46.65 -22.8 -46.75 -36.9 -47.1 -48.25 -48.6" fill="#cc6699" fill-rule="evenodd" stroke="none"/>
      <path d="M-48.25 -48.6 Q-36.9 -47.1 -22.8 -46.75 -12.8 -46.65 -2.3 -43.6 L3.9 -42.4 Q18.8 -39.0 29.8 -38.55 39.5 -37.95 46.9 -43.05 47.6 -40.95 48.2 -39.2 L48.2 39.2 Q48.2 40.85 47.3 42.1 46.85 42.8 46.3 43.25 L45.15 43.8 Q44.4 43.95 43.55 44.05 42.15 44.25 40.6 44.15 2.3 40.75 -43.0 44.4 -44.65 44.45 -45.95 43.6 -46.7 43.1 -47.2 42.4 L-47.6 41.5 Q-47.85 40.65 -48.05 39.65 -48.35 38.25 -48.35 36.7 L-48.35 -48.5 -48.35 -48.55" fill="none" stroke="#000000" stroke-linecap="round" stroke-linejoin="round" stroke-opacity="0.0" stroke-width="1.0"/>
    </g>
  </defs>
</svg>
