<?xml version="1.0" encoding="UTF-8" standalone="no"?>
<svg xmlns:xlink="http://www.w3.org/1999/xlink" height="95.75px" width="96.5px" xmlns="http://www.w3.org/2000/svg">
  <g transform="matrix(1.0, 0.0, 0.0, 1.0, 48.25, 51.25)">
    <use data-characterId="20" height="95.75" transform="matrix(1.0, 0.0, 0.0, 1.0, -48.25, -51.25)" width="96.5" xlink:href="#morphshape0"/>
  </g>
  <defs>
    <g id="morphshape0" transform="matrix(1.0, 0.0, 0.0, 1.0, 48.25, 51.25)">
      <path d="M-48.2 -47.5 L-48.2 -47.45 -48.2 37.7 Q-48.2 39.25 -47.7 40.6 -47.35 41.55 -46.9 42.25 L-46.35 42.95 Q-45.75 43.45 -44.95 43.8 -43.55 44.4 -41.9 44.35 3.35 40.75 41.65 44.25 43.2 44.35 44.55 43.9 45.35 43.65 46.0 43.35 L46.9 42.6 Q47.3 42.1 47.65 41.4 48.3 40.05 48.3 38.4 L48.3 -39.95 Q47.2 -40.55 45.95 -41.8 38.55 -37.15 28.85 -39.4 18.25 -41.65 3.3 -44.65 L-2.95 -45.4 Q-13.2 -47.2 -23.3 -45.6 -37.35 -43.6 -48.25 -47.55" fill="#cc6699" fill-rule="evenodd" stroke="none"/>
      <path d="M-48.25 -47.55 Q-37.35 -43.6 -23.3 -45.6 -13.2 -47.2 -2.95 -45.4 L3.3 -44.65 Q18.25 -41.65 28.85 -39.4 38.55 -37.15 45.95 -41.8 47.2 -40.55 48.3 -39.95 L48.3 38.4 Q48.3 40.05 47.65 41.4 47.3 42.1 46.9 42.6 L46.0 43.35 Q45.35 43.65 44.55 43.9 43.2 44.35 41.65 44.25 3.35 40.75 -41.9 44.35 -43.55 44.4 -44.95 43.8 -45.75 43.45 -46.35 42.95 L-46.9 42.25 Q-47.35 41.55 -47.7 40.6 -48.2 39.25 -48.2 37.7 L-48.2 -47.45 -48.2 -47.5" fill="none" stroke="#000000" stroke-linecap="round" stroke-linejoin="round" stroke-opacity="0.0" stroke-width="1.0"/>
    </g>
  </defs>
</svg>
