<?xml version="1.0" encoding="UTF-8" standalone="no"?>
<svg xmlns:xlink="http://www.w3.org/1999/xlink" height="95.75px" width="96.5px" xmlns="http://www.w3.org/2000/svg">
  <g transform="matrix(1.0, 0.0, 0.0, 1.0, 48.25, 51.25)">
    <use data-characterId="20" height="95.75" transform="matrix(1.0, 0.0, 0.0, 1.0, -48.25, -51.25)" width="96.5" xlink:href="#morphshape0"/>
  </g>
  <defs>
    <g id="morphshape0" transform="matrix(1.0, 0.0, 0.0, 1.0, 48.25, 51.25)">
      <path d="M-48.3 -46.3 L-48.3 -46.25 -48.3 38.85 Q-48.3 40.45 -47.5 41.7 -46.95 42.6 -46.25 43.1 L-45.45 43.55 Q-44.65 43.8 -43.8 44.0 -42.3 44.25 -40.7 44.15 4.5 40.65 42.75 44.3 44.35 44.35 45.6 43.55 46.35 43.15 46.85 42.6 L47.45 41.6 Q47.7 40.95 47.9 40.2 48.25 38.75 48.25 37.15 L48.25 -41.15 Q46.55 -40.25 44.6 -40.35 37.2 -36.25 27.5 -40.65 17.4 -45.25 2.35 -47.65 L-3.95 -47.75 Q-13.8 -47.95 -24.0 -44.15 -38.0 -39.15 -48.25 -46.2" fill="#cc6699" fill-rule="evenodd" stroke="none"/>
      <path d="M-48.25 -46.2 Q-38.0 -39.15 -24.0 -44.15 -13.8 -47.95 -3.95 -47.75 L2.35 -47.65 Q17.4 -45.25 27.5 -40.65 37.2 -36.25 44.6 -40.35 46.55 -40.25 48.25 -41.15 L48.25 37.15 Q48.25 38.75 47.9 40.2 47.7 40.95 47.45 41.6 L46.85 42.6 Q46.35 43.15 45.6 43.55 44.35 44.35 42.75 44.3 4.5 40.65 -40.7 44.15 -42.3 44.25 -43.8 44.0 -44.65 43.8 -45.45 43.55 L-46.25 43.1 Q-46.95 42.6 -47.5 41.7 -48.3 40.45 -48.3 38.85 L-48.3 -46.25 -48.3 -46.3" fill="none" stroke="#000000" stroke-linecap="round" stroke-linejoin="round" stroke-opacity="0.0" stroke-width="1.0"/>
    </g>
  </defs>
</svg>
