<?xml version="1.0" encoding="UTF-8" standalone="no"?>
<svg xmlns:xlink="http://www.w3.org/1999/xlink" height="95.75px" width="96.5px" xmlns="http://www.w3.org/2000/svg">
  <g transform="matrix(1.0, 0.0, 0.0, 1.0, 48.25, 51.25)">
    <use data-characterId="21" height="95.75" transform="matrix(1.0, 0.0, 0.0, 1.0, -48.25, -51.25)" width="96.5" xlink:href="#morphshape0"/>
  </g>
  <defs>
    <g id="morphshape0" transform="matrix(1.0, 0.0, 0.0, 1.0, 48.25, 51.25)">
      <path d="M-48.2 -46.0 L-48.2 -45.95 -48.2 39.35 Q-48.2 40.95 -47.35 42.2 L-46.65 43.05 Q-46.05 43.7 -45.15 43.95 L-44.25 44.1 Q-42.8 44.35 -41.2 44.3 4.75 40.65 43.5 44.4 45.0 44.45 46.2 43.7 L46.35 43.6 Q47.5 42.85 47.9 41.5 L48.0 41.15 Q48.25 39.9 48.25 38.5 L48.25 -42.1 46.4 -41.3 Q38.05 -38.35 26.35 -44.25 16.45 -49.55 1.5 -49.0 L-2.15 -48.4 Q-13.6 -46.1 -25.15 -41.0 -38.85 -35.05 -48.25 -45.95" fill="#cc6699" fill-rule="evenodd" stroke="none"/>
      <path d="M-48.25 -45.95 Q-38.85 -35.05 -25.15 -41.0 -13.6 -46.1 -2.15 -48.4 L1.5 -49.0 Q16.45 -49.55 26.35 -44.25 38.05 -38.35 46.4 -41.3 L48.25 -42.1 48.25 38.5 Q48.25 39.9 48.0 41.15 L47.9 41.5 Q47.5 42.85 46.35 43.6 L46.2 43.7 Q45.0 44.45 43.5 44.4 4.75 40.65 -41.2 44.3 -42.8 44.35 -44.25 44.1 L-45.15 43.95 Q-46.05 43.7 -46.65 43.05 L-47.35 42.2 Q-48.2 40.95 -48.2 39.35 L-48.2 -45.95 -48.2 -46.0" fill="none" stroke="#000000" stroke-linecap="round" stroke-linejoin="round" stroke-opacity="0.0" stroke-width="1.0"/>
    </g>
  </defs>
</svg>
