<?xml version="1.0" encoding="UTF-8" standalone="no"?>
<svg xmlns:xlink="http://www.w3.org/1999/xlink" height="95.75px" width="96.5px" xmlns="http://www.w3.org/2000/svg">
  <g transform="matrix(1.0, 0.0, 0.0, 1.0, 48.25, 51.25)">
    <use data-characterId="21" height="95.75" transform="matrix(1.0, 0.0, 0.0, 1.0, -48.25, -51.25)" width="96.5" xlink:href="#morphshape0"/>
  </g>
  <defs>
    <g id="morphshape0" transform="matrix(1.0, 0.0, 0.0, 1.0, 48.25, 51.25)">
      <path d="M-48.25 -47.15 L-48.25 -47.1 -48.25 38.5 Q-48.25 40.1 -47.65 41.4 L-47.15 42.35 Q-46.7 43.15 -45.9 43.6 L-45.1 43.9 Q-43.7 44.45 -42.1 44.4 4.0 40.7 42.9 44.4 44.4 44.45 45.65 44.0 L45.8 43.9 Q47.05 43.35 47.65 42.05 L47.8 41.7 Q48.25 40.5 48.25 39.1 L48.25 -41.8 46.95 -42.3 Q38.6 -42.2 26.75 -46.1 16.45 -49.6 1.7 -47.2 L-1.85 -46.25 Q-14.0 -43.0 -25.4 -39.9 -38.95 -36.25 -48.25 -47.2" fill="#cc6699" fill-rule="evenodd" stroke="none"/>
      <path d="M-48.25 -47.2 Q-38.95 -36.25 -25.4 -39.9 -14.0 -43.0 -1.85 -46.25 L1.7 -47.2 Q16.45 -49.6 26.75 -46.1 38.6 -42.2 46.95 -42.3 L48.25 -41.8 48.25 39.1 Q48.25 40.5 47.8 41.7 L47.65 42.05 Q47.05 43.35 45.8 43.9 L45.65 44.0 Q44.4 44.45 42.9 44.4 4.0 40.7 -42.1 44.4 -43.7 44.45 -45.1 43.9 L-45.9 43.6 Q-46.7 43.15 -47.15 42.35 L-47.65 41.4 Q-48.25 40.1 -48.25 38.5 L-48.25 -47.1 -48.25 -47.15" fill="none" stroke="#000000" stroke-linecap="round" stroke-linejoin="round" stroke-opacity="0.0" stroke-width="1.0"/>
    </g>
  </defs>
</svg>
