<?xml version="1.0" encoding="UTF-8" standalone="no"?>
<svg xmlns:xlink="http://www.w3.org/1999/xlink" height="459.85px" width="129.05px" xmlns="http://www.w3.org/2000/svg">
  <g transform="matrix(1.0, 0.0, 0.0, 1.0, 76.0, 267.75)">
    <use data-characterId="76" height="98.85" transform="matrix(0.9106, 0.0, 0.0, 0.9106, -55.568, 28.7642)" width="99.25" xlink:href="#shape0"/>
  </g>
  <defs>
    <g id="shape0" transform="matrix(1.0, 0.0, 0.0, 1.0, 49.6, 49.4)">
      <path d="M12.15 -46.9 L13.4 -47.25 13.55 -47.2 Q14.25 -47.6 12.75 -47.95 15.55 -47.55 13.7 -47.05 L13.75 -47.05 13.15 -46.75 11.25 -46.4 12.2 -46.8 12.15 -46.9 M14.15 -46.9 Q15.8 -47.35 14.05 -47.85 13.25 -48.45 10.7 -48.8 15.25 -48.2 15.1 -47.15 14.7 -45.4 0.9 -45.8 L0.9 -45.95 Q12.65 -45.6 14.15 -46.9 M3.7 -47.8 Q6.4 -48.05 9.0 -47.9 L8.85 -47.95 9.15 -47.9 10.0 -47.85 10.6 -47.8 10.0 -48.0 11.15 -47.75 12.25 -47.6 11.35 -47.2 10.95 -47.3 9.6 -47.0 10.6 -47.35 9.95 -47.45 9.85 -47.5 8.5 -47.15 9.45 -47.55 3.7 -47.8 M11.55 -47.15 L12.35 -47.45 11.5 -47.95 Q14.0 -47.65 12.85 -47.25 L12.05 -46.95 11.95 -47.0 10.8 -46.85 11.8 -47.05 11.55 -47.15 M12.2 -46.8 L12.1 -46.75 12.2 -46.8 M0.3 -46.0 L0.3 -45.8 Q-14.05 -46.3 -13.75 -48.15 -13.5 -49.1 -9.35 -49.4 -12.55 -49.1 -12.95 -48.35 -14.15 -47.85 -12.05 -47.25 -9.45 -46.25 0.3 -46.0 M-8.5 -38.3 L-8.45 -38.3 -5.35 -38.5 -3.1 -37.9 Q-0.6 -37.0 0.5 -35.65 2.05 -37.5 4.95 -38.45 L9.7 -37.15 10.1 -37.05 10.1 -33.8 4.35 -35.05 4.05 -34.85 3.5 -34.95 2.75 -33.75 0.85 -32.05 0.9 -27.9 -0.8 -28.1 -0.5 -31.65 -4.15 -35.15 -9.45 -34.55 -8.8 -38.25 -8.5 -38.3 M-4.0 -32.0 L-2.8 -31.4 -2.45 -31.0 Q-2.2 -30.15 -2.5 -29.1 L-4.4 -28.1 Q-4.75 -30.6 -5.35 -31.15 L-7.2 -32.95 -4.0 -32.0 M8.9 -32.35 Q9.0 -31.35 8.45 -31.2 L4.8 -29.7 6.05 -27.55 3.9 -28.45 3.45 -31.05 4.7 -32.0 8.9 -32.35 M1.9 -15.85 L5.45 -16.85 8.95 -17.8 6.6 -11.5 -0.15 -15.2 1.9 -15.85 M5.35 -25.15 L0.6 -25.6 -2.25 -25.25 -1.15 -26.55 3.2 -26.3 5.35 -25.15 M7.05 -22.65 Q8.1 -21.8 7.1 -20.8 6.35 -20.05 2.7 -19.55 L-2.55 -19.75 Q-6.3 -20.15 -6.5 -20.6 L-7.05 -22.3 0.55 -24.0 7.05 -22.65 M6.4 -11.05 L3.1 -3.8 0.75 -11.15 2.45 -13.4 6.4 -11.05 M36.4 -3.95 L38.95 -2.6 Q41.3 -1.6 42.7 -1.5 43.2 -1.4 43.35 -1.9 L43.2 -1.35 43.15 -1.35 43.1 -1.3 Q41.5 -0.65 38.6 -1.85 37.05 -2.2 35.55 -3.25 L36.4 -3.95 M41.85 -3.3 L41.25 -3.55 44.5 -2.45 Q47.35 -1.6 48.4 -2.05 L48.85 -2.35 49.3 -2.85 Q49.4 -2.45 48.85 -1.85 48.2 -1.2 47.7 -1.2 L43.85 -1.95 43.4 -2.7 41.85 -3.3 M-49.25 -4.45 L-49.1 -4.55 -48.2 -3.65 Q-47.05 -3.15 -44.5 -4.05 L-40.9 -4.95 -40.5 -5.05 -43.4 -4.1 -43.45 -4.1 -43.5 -3.95 -43.7 -3.4 -46.35 -2.9 -46.95 -2.8 -47.65 -2.75 Q-48.25 -2.75 -48.9 -3.5 -49.5 -4.15 -49.25 -4.45 M-43.1 -2.7 Q-43.5 -2.9 -43.4 -3.3 L-42.75 -2.8 Q-40.9 -3.05 -38.95 -3.85 L-36.3 -5.15 -35.45 -4.4 Q-36.85 -3.55 -38.55 -3.05 -41.9 -2.05 -43.05 -2.7 L-43.1 -2.7 M-0.15 -47.55 L-0.15 -47.5 -8.0 -47.3 -7.6 -47.2 -8.6 -47.35 -9.75 -47.5 -9.05 -47.3 Q-10.8 -47.45 -10.85 -47.7 L-11.35 -47.8 Q-11.45 -47.55 -10.4 -47.25 -13.05 -47.5 -11.9 -47.95 L-12.4 -48.25 -9.7 -48.85 Q-10.2 -48.65 -9.95 -48.45 L-9.55 -48.2 -8.55 -48.4 -9.4 -48.15 -8.5 -47.95 -7.4 -48.2 -8.35 -47.9 -8.1 -47.85 -7.6 -47.75 -6.25 -48.15 -7.15 -47.65 Q-3.95 -47.1 -0.15 -47.55 M-1.3 -15.25 L-5.85 -11.75 Q-7.95 -15.0 -9.5 -19.0 L-1.3 -15.25 M-1.35 -11.2 L-2.7 -4.95 -5.75 -11.5 -2.9 -13.45 -1.35 -11.2" fill="#c3c4df" fill-rule="evenodd" stroke="none"/>
      <path d="M13.75 -47.05 L13.7 -47.05 Q15.55 -47.55 12.75 -47.95 14.25 -47.6 13.55 -47.2 L13.4 -47.25 12.15 -46.9 9.2 -46.55 12.05 -46.95 12.85 -47.25 Q14.0 -47.65 11.5 -47.95 L12.35 -47.45 11.55 -47.15 9.95 -46.85 11.35 -47.2 12.25 -47.6 11.15 -47.75 10.0 -48.0 10.6 -47.8 10.0 -47.85 9.15 -47.9 8.85 -47.95 9.0 -47.9 Q6.4 -48.05 3.7 -47.8 L1.5 -47.55 1.5 -47.65 1.5 -47.75 Q7.0 -49.05 10.65 -48.5 L10.9 -48.45 11.45 -48.35 14.05 -47.85 Q15.8 -47.35 14.15 -46.9 L13.9 -46.8 7.35 -46.0 10.9 -46.35 11.05 -46.4 11.25 -46.4 13.15 -46.75 13.8 -47.0 13.75 -47.05 M-38.7 -9.95 L-37.45 -7.15 -28.05 -8.4 -15.3 -9.5 -14.55 -11.0 -11.35 -10.75 -12.7 -7.85 -8.1 -4.15 Q-4.15 -1.05 -1.2 0.8 -4.1 -1.1 -7.75 -4.3 L-11.95 -8.2 -11.05 -11.45 -12.6 -11.65 -11.75 -11.55 -10.0 -17.5 -9.0 -17.1 Q-5.5 -8.2 -0.15 0.65 L-1.2 0.8 Q-3.95 1.55 -4.0 5.0 -4.05 6.9 -2.75 8.25 -1.5 9.5 0.4 9.55 2.25 9.6 3.6 8.35 4.9 7.05 4.95 5.15 5.0 4.0 4.55 3.1 L4.75 4.85 Q4.75 8.8 0.55 8.75 -3.6 8.55 -3.6 4.7 -3.45 1.0 -0.05 0.8 L0.65 0.8 1.5 0.85 2.7 1.15 Q2.15 0.85 1.55 0.7 3.85 -3.15 9.5 -17.7 L13.85 -13.3 15.35 -13.6 11.9 -12.65 13.1 -9.35 Q7.7 -2.6 3.4 0.4 7.85 -2.5 13.8 -9.1 L12.75 -12.0 14.25 -11.2 17.5 -8.85 Q25.7 -8.2 36.95 -6.05 L37.05 -6.0 37.6 -5.9 38.15 -6.75 38.2 -6.85 38.95 -8.65 38.25 -6.85 38.2 -6.75 Q37.4 -5.25 36.1 -4.15 L35.15 -3.5 17.5 -3.25 18.45 -7.8 14.15 8.55 11.1 22.7 -0.2 15.85 -9.2 20.55 -11.85 5.9 -15.5 -8.1 -14.65 -3.75 -35.1 -4.6 Q-36.85 -5.85 -37.95 -8.0 L-38.7 -9.95 M0.0 -47.3 L-0.65 -47.2 -8.45 -46.65 -9.3 -46.75 -11.65 -47.15 -12.05 -47.25 Q-14.15 -47.85 -12.95 -48.35 L-12.55 -48.5 Q-10.75 -49.25 -5.95 -49.25 L-9.7 -48.85 -12.4 -48.25 -11.9 -47.95 Q-13.05 -47.5 -10.4 -47.25 -11.45 -47.55 -11.35 -47.8 L-10.85 -47.7 Q-10.8 -47.45 -9.05 -47.3 L-9.75 -47.5 -8.6 -47.35 -7.6 -47.2 -8.0 -47.3 -0.15 -47.5 0.0 -47.3 M9.7 -37.15 L11.55 -36.65 12.05 -19.0 Q5.5 -17.45 -8.5 -19.45 L-8.7 -22.15 Q-1.65 -24.65 0.3 -24.65 3.15 -24.75 9.95 -22.65 L10.3 -22.55 9.95 -19.05 10.9 -21.6 10.9 -21.65 11.45 -23.0 Q10.45 -24.5 3.35 -27.85 L2.5 -31.1 6.65 -33.3 2.25 -31.9 4.5 -34.45 7.5 -34.25 4.05 -34.85 4.35 -35.05 10.1 -33.8 10.1 -37.05 9.7 -37.15 M2.75 -33.75 L1.6 -31.9 1.8 -27.9 -1.7 -27.65 -0.5 -31.65 -0.8 -28.1 0.9 -27.9 0.85 -32.05 2.75 -33.75 M-4.15 -35.15 L-8.15 -34.5 -4.4 -34.45 -1.6 -31.65 -7.3 -33.65 -4.0 -32.0 -7.2 -32.95 -5.35 -31.15 Q-4.75 -30.6 -4.4 -28.1 L-2.5 -29.1 Q-2.2 -30.15 -2.45 -31.0 L-2.8 -31.4 -1.65 -30.8 -2.35 -27.85 -7.5 -25.2 Q-9.4 -24.1 -9.95 -23.35 -9.55 -21.65 -8.55 -19.45 L-11.6 -19.9 -10.55 -38.15 -8.5 -38.3 -8.8 -38.25 -9.45 -34.55 -4.15 -35.15 M8.9 -32.35 L4.7 -32.0 3.45 -31.05 3.9 -28.45 6.05 -27.55 4.8 -29.7 8.45 -31.2 Q9.0 -31.35 8.9 -32.35 M3.6 -26.8 L9.6 -23.3 Q2.15 -25.2 0.15 -25.2 L-0.1 -25.2 Q-2.5 -25.1 -8.75 -22.8 L-8.75 -23.2 -1.95 -27.0 -1.65 -26.55 3.65 -26.7 3.6 -26.8 M5.35 -25.15 L3.2 -26.3 -1.15 -26.55 -2.25 -25.25 0.6 -25.6 5.35 -25.15 M5.45 -16.85 L1.9 -15.85 -0.4 -15.55 Q-1.5 -15.5 -4.4 -16.8 L5.45 -16.85 M7.05 -22.65 L0.55 -24.0 -7.05 -22.3 -6.5 -20.6 Q-6.3 -20.15 -2.55 -19.75 L2.7 -19.55 Q6.35 -20.05 7.1 -20.8 8.1 -21.8 7.05 -22.65 M43.2 -1.35 L43.35 -1.9 Q43.2 -1.4 42.7 -1.5 41.3 -1.6 38.95 -2.6 L36.4 -3.95 Q37.6 -5.1 38.3 -6.7 L44.75 -3.85 49.1 -3.0 48.85 -2.35 48.4 -2.05 Q47.35 -1.6 44.5 -2.45 L41.25 -3.55 41.85 -3.3 39.95 -4.05 40.35 -3.6 Q41.6 -3.45 42.9 -2.65 L43.4 -2.0 43.2 -1.35 M0.8 1.75 Q3.35 1.9 3.25 4.75 3.15 7.65 0.45 7.6 -2.45 7.55 -2.3 4.6 -2.25 1.65 0.5 1.75 L0.55 1.75 0.8 1.75 M2.2 21.55 Q4.8 20.0 6.55 20.9 8.85 22.05 10.5 25.5 L7.95 36.3 6.8 37.75 Q4.95 39.9 3.75 40.0 2.55 40.0 1.45 39.1 L1.0 38.6 0.75 22.6 2.2 21.55 M0.95 1.6 L0.5 1.6 0.45 1.6 Q-2.8 1.6 -2.8 4.8 -2.8 8.1 0.45 8.15 3.7 8.3 3.75 4.9 3.7 1.8 0.95 1.6 M0.05 38.45 L-3.9 40.65 -6.05 37.55 -8.6 23.75 -5.1 19.65 -0.65 18.8 -0.45 20.2 -0.05 23.05 -0.05 23.2 0.05 23.8 0.05 38.45 M-40.9 -4.95 L-44.5 -4.05 Q-47.05 -3.15 -48.2 -3.65 L-49.1 -4.55 -49.25 -4.45 -49.05 -4.55 -44.65 -5.3 Q-43.95 -5.4 -38.0 -7.9 L-37.95 -7.75 Q-37.3 -6.25 -36.3 -5.15 L-38.95 -3.85 Q-40.9 -3.05 -42.75 -2.8 L-43.4 -3.3 Q-43.5 -2.9 -43.1 -2.7 -44.3 -3.25 -42.9 -4.0 -41.6 -4.75 -40.3 -4.85 -39.6 -5.0 -39.85 -5.35 L-40.9 -4.95 M-43.5 -3.95 L-43.45 -4.1 -43.4 -4.1 -43.5 -3.95" fill="#96a2c9" fill-rule="evenodd" stroke="none"/>
      <path d="M0.9 -45.95 L0.9 -45.8 0.85 -43.0 5.75 -41.15 11.75 -40.95 Q12.25 -39.85 12.1 -20.2 14.15 -17.6 15.3 -15.4 L15.4 -15.35 15.45 -15.35 15.5 -15.35 15.55 -15.35 23.45 -12.75 Q32.5 -9.9 38.95 -8.65 L38.2 -6.85 38.15 -6.75 37.6 -5.9 37.05 -6.0 36.95 -6.05 Q25.7 -8.2 17.5 -8.85 L14.25 -11.2 12.75 -12.0 13.8 -9.1 Q7.85 -2.5 3.4 0.4 7.7 -2.6 13.1 -9.35 L11.9 -12.65 15.35 -13.6 13.85 -13.3 9.5 -17.7 Q3.85 -3.15 1.55 0.7 2.15 0.85 2.7 1.15 L1.5 0.85 0.65 0.8 -0.05 0.8 Q-3.45 1.0 -3.6 4.7 -3.6 8.55 0.55 8.75 4.75 8.8 4.75 4.85 L4.55 3.1 Q5.0 4.0 4.95 5.15 4.9 7.05 3.6 8.35 2.25 9.6 0.4 9.55 -1.5 9.5 -2.75 8.25 -4.05 6.9 -4.0 5.0 -3.95 1.55 -1.2 0.8 L-0.15 0.65 Q-5.5 -8.2 -9.0 -17.1 L-10.0 -17.5 -11.75 -11.55 -12.6 -11.65 -11.05 -11.45 -11.95 -8.2 -7.75 -4.3 Q-4.1 -1.1 -1.2 0.8 -4.15 -1.05 -8.1 -4.15 L-12.7 -7.85 -11.35 -10.75 -14.55 -11.0 -15.3 -9.5 -28.05 -8.4 -37.45 -7.15 -38.7 -9.95 Q-28.4 -11.65 -15.1 -15.85 L-15.05 -15.85 -12.2 -20.8 -10.8 -41.25 Q-4.85 -41.2 0.25 -42.8 L0.3 -45.8 0.3 -46.0 0.35 -47.1 0.0 -47.3 -0.15 -47.5 -0.15 -47.55 -0.15 -47.65 Q-0.2 -48.25 0.7 -48.3 1.5 -48.3 1.5 -47.75 L1.5 -47.65 1.5 -47.55 Q1.45 -47.15 0.95 -47.05 L0.9 -45.95 M9.7 -37.15 L4.95 -38.45 Q2.05 -37.5 0.5 -35.65 -0.6 -37.0 -3.1 -37.9 L-5.35 -38.5 -8.45 -38.3 -8.5 -38.3 -10.55 -38.15 -11.6 -19.9 -8.55 -19.45 Q-9.55 -21.65 -9.95 -23.35 -9.4 -24.1 -7.5 -25.2 L-2.35 -27.85 -1.65 -30.8 -2.8 -31.4 -4.0 -32.0 -7.3 -33.65 -1.6 -31.65 -4.4 -34.45 -8.15 -34.5 -4.15 -35.15 -0.5 -31.65 -1.7 -27.65 1.8 -27.9 1.6 -31.9 2.75 -33.75 3.5 -34.95 4.05 -34.85 7.5 -34.25 4.5 -34.45 2.25 -31.9 6.65 -33.3 2.5 -31.1 3.35 -27.85 Q10.45 -24.5 11.45 -23.0 L10.9 -21.65 10.9 -21.6 9.95 -19.05 10.3 -22.55 9.95 -22.65 Q3.15 -24.75 0.3 -24.65 -1.65 -24.65 -8.7 -22.15 L-8.5 -19.45 Q5.5 -17.45 12.05 -19.0 L11.55 -36.65 9.7 -37.15 M3.6 -26.8 L3.65 -26.7 -1.65 -26.55 -1.95 -27.0 -8.75 -23.2 -8.75 -22.8 Q-2.5 -25.1 -0.1 -25.2 L0.15 -25.2 Q2.15 -25.2 9.6 -23.3 L3.6 -26.8 M1.9 -15.85 L-0.15 -15.2 6.6 -11.5 8.95 -17.8 5.45 -16.85 -4.4 -16.8 Q-1.5 -15.5 -0.4 -15.55 L1.9 -15.85 M6.4 -11.05 L2.45 -13.4 0.75 -11.15 3.1 -3.8 6.4 -11.05 M-38.7 -9.95 L-37.95 -8.0 Q-36.85 -5.85 -35.1 -4.6 L-14.65 -3.75 -15.5 -8.1 -11.85 5.9 -9.2 20.55 -0.2 15.85 11.1 22.7 14.15 8.55 18.45 -7.8 17.5 -3.25 35.15 -3.5 36.1 -4.15 Q37.4 -5.25 38.2 -6.75 L38.25 -6.85 38.95 -8.65 38.35 -6.8 44.25 -4.1 49.25 -3.05 Q50.0 -2.95 49.35 -1.85 48.7 -0.7 47.65 -0.75 L43.7 -1.6 Q43.6 -0.9 42.55 -0.9 39.25 -1.0 38.1 -1.55 36.65 -2.3 35.25 -3.0 L35.15 -2.95 17.4 -2.8 14.9 9.55 Q9.15 36.85 8.65 37.5 L7.95 38.4 Q6.1 47.65 5.65 48.8 4.95 50.25 1.45 48.55 L0.45 44.7 Q-1.3 47.55 -2.4 48.65 -3.95 50.15 -6.3 48.6 -7.55 47.8 -6.5 44.35 L-5.9 40.7 -6.2 40.45 -9.6 22.7 -10.05 21.05 -9.95 20.95 -14.55 -3.25 -35.1 -4.15 -35.15 -4.15 Q-37.7 -3.0 -38.1 -2.8 L-42.6 -2.35 -43.7 -3.0 -47.65 -2.3 Q-48.8 -2.3 -49.4 -3.4 -49.95 -4.5 -49.15 -4.65 L-44.2 -5.5 Q-43.45 -5.75 -38.05 -8.1 L-38.7 -9.95 M43.2 -1.35 L43.4 -2.0 42.9 -2.65 Q41.6 -3.45 40.35 -3.6 L39.95 -4.05 41.85 -3.3 43.4 -2.7 43.85 -1.95 47.7 -1.2 Q48.2 -1.2 48.85 -1.85 49.4 -2.45 49.3 -2.85 L48.85 -2.35 49.1 -3.0 44.75 -3.85 38.3 -6.7 Q37.6 -5.1 36.4 -3.95 L35.55 -3.25 Q37.05 -2.2 38.6 -1.85 41.5 -0.65 43.1 -1.3 L43.15 -1.35 43.2 -1.35 M0.8 1.75 L0.55 1.75 0.5 1.75 Q-2.25 1.65 -2.3 4.6 -2.45 7.55 0.45 7.6 3.15 7.65 3.25 4.75 3.35 1.9 0.8 1.75 M0.95 1.6 Q3.7 1.8 3.75 4.9 3.7 8.3 0.45 8.15 -2.8 8.1 -2.8 4.8 -2.8 1.6 0.45 1.6 L0.5 1.6 0.95 1.6 M2.2 21.55 L0.75 22.6 1.0 38.6 1.45 39.1 Q2.55 40.0 3.75 40.0 4.95 39.9 6.8 37.75 L7.95 36.3 10.5 25.5 Q8.85 22.05 6.55 20.9 4.8 20.0 2.2 21.55 M0.05 38.45 L0.05 23.8 -0.05 23.2 -0.05 23.05 -0.45 20.2 -0.65 18.8 -5.1 19.65 -8.6 23.75 -6.05 37.55 -3.9 40.65 0.05 38.45 M-40.9 -4.95 L-39.85 -5.35 Q-39.6 -5.0 -40.3 -4.85 -41.6 -4.75 -42.9 -4.0 -44.3 -3.25 -43.1 -2.7 L-43.05 -2.7 Q-41.9 -2.05 -38.55 -3.05 -36.85 -3.55 -35.45 -4.4 L-36.3 -5.15 Q-37.3 -6.25 -37.95 -7.75 L-38.0 -7.9 Q-43.95 -5.4 -44.65 -5.3 L-49.05 -4.55 -49.25 -4.45 Q-49.5 -4.15 -48.9 -3.5 -48.25 -2.75 -47.65 -2.75 L-46.95 -2.8 -46.35 -2.9 -43.7 -3.4 -43.5 -3.95 -43.4 -4.1 -40.5 -5.05 -40.9 -4.95 M-1.3 -15.25 L-9.5 -19.0 Q-7.95 -15.0 -5.85 -11.75 L-1.3 -15.25 M-1.35 -11.2 L-2.9 -13.45 -5.75 -11.5 -2.7 -4.95 -1.35 -11.2" fill="#3d4f6e" fill-rule="evenodd" stroke="none"/>
    </g>
  </defs>
</svg>
