<?xml version="1.0" encoding="UTF-8" standalone="no"?>
<svg xmlns:xlink="http://www.w3.org/1999/xlink" height="44.2px" width="52.95px" xmlns="http://www.w3.org/2000/svg">
  <g transform="matrix(1.0, 0.0, 0.0, 1.0, 4.6, 4.25)">
    <use data-characterId="134" height="58.05" transform="matrix(0.7008, 0.0, 0.0, 0.7008, -2.5569, -2.4092)" width="69.55" xlink:href="#shape0"/>
  </g>
  <defs>
    <g id="shape0" transform="matrix(1.0, 0.0, 0.0, 1.0, 33.4, 30.05)">
      <path d="M0.3 -6.6 L-22.0 -13.65 -9.55 -17.75 0.3 -12.25 0.3 -6.6" fill="#fd3e3e" fill-rule="evenodd" stroke="none"/>
      <path d="M11.0 -9.8 L17.2 -10.1 13.2 -8.85 12.95 -8.75 3.15 -5.7 0.15 -4.75 0.0 -4.7 -28.15 -13.5 -11.25 -18.75 -9.55 -17.75 -22.0 -13.65 0.3 -6.6 11.0 -9.8 M31.5 -13.65 L26.95 -13.85 21.45 -14.05 7.75 -14.2 -21.65 -28.55 4.3 -28.2 31.5 -13.65" fill="#feb4b4" fill-rule="evenodd" stroke="none"/>
      <path d="M5.0 -9.6 L4.9 -9.5 11.0 -9.8 0.3 -6.6 0.3 -12.25 4.85 -9.7 4.6 -9.95 5.0 -9.6" fill="#fe5656" fill-rule="evenodd" stroke="none"/>
      <path d="M2.15 -12.4 L2.25 -12.4 2.4 -12.3 2.15 -12.4 M0.0 -4.7 L0.15 -4.75 3.15 -5.7 12.95 -8.75 13.2 -8.85 17.2 -10.1 11.0 -9.8 4.9 -9.5 5.0 -9.6 7.75 -14.2 21.45 -14.05 26.95 -13.85 31.5 -13.65 30.75 -10.75 28.0 -10.6 26.35 16.1 17.4 19.15 11.5 21.0 0.05 24.55 0.05 -4.7 0.0 -4.7" fill="#fe7878" fill-rule="evenodd" stroke="none"/>
      <path d="M11.5 21.0 L17.4 19.15 34.65 23.6 27.6 23.15 28.85 25.9 17.1 22.65 17.05 22.65 11.5 21.0" fill="#fd024e" fill-rule="evenodd" stroke="none"/>
      <path d="M2.15 -12.4 L2.4 -12.3 2.25 -12.4 2.15 -12.4 M7.75 -14.2 L5.0 -9.6 4.6 -9.95 4.85 -9.7 0.3 -12.25 -9.55 -17.75 -11.25 -18.75 -22.1 -24.8 -22.2 -24.55 -21.65 -28.55 7.75 -14.2 M-28.15 -13.5 L0.0 -4.7 0.0 24.55 -11.45 20.95 -11.1 20.85 -16.0 19.3 -16.35 19.4 -25.75 16.45 -28.15 -13.5" fill="#ff9999" fill-rule="evenodd" stroke="none"/>
      <path d="M-11.45 20.95 L-21.6 24.25 -21.65 24.25 -28.6 26.5 -27.0 23.95 -31.9 24.3 -24.1 21.85 -24.05 21.85 -16.35 19.4 -16.0 19.3 -11.1 20.85 -11.45 20.95" fill="#ff3366" fill-rule="evenodd" stroke="none"/>
      <path d="M0.0 -4.7 L0.05 -4.7 0.05 24.55 11.5 21.0 17.05 22.65 17.1 22.65 28.85 25.9 27.6 23.15 34.65 23.6 17.4 19.15 26.35 16.1 28.0 -10.6 30.75 -10.75 31.5 -13.65 4.3 -28.2 -21.65 -28.55 -22.2 -24.55 -22.1 -24.8 -11.25 -18.75 -28.15 -13.5 -25.75 16.45 -16.35 19.4 -24.05 21.85 -24.1 21.85 -31.9 24.3 -27.0 23.95 -28.6 26.5 -21.65 24.25 -21.6 24.25 -11.45 20.95 0.0 24.55 0.0 -4.7 Z" fill="none" stroke="#fd024e" stroke-linecap="round" stroke-linejoin="round" stroke-width="3.0"/>
      <path d="M0.3 -20.95 L0.2 -21.0 -22.0 -13.65 0.3 -6.6 23.25 -13.45 0.3 -20.95 M28.15 -13.5 L13.2 -8.85 12.95 -8.75 3.15 -5.7 0.15 -4.75 0.0 -4.7 -28.15 -13.5 0.0 -22.25 28.15 -13.5" fill="#feb4b4" fill-rule="evenodd" stroke="none"/>
      <path d="M0.0 -4.7 L0.15 -4.75 3.15 -5.7 12.95 -8.75 13.2 -8.85 28.15 -13.5 26.35 16.1 17.4 19.15 11.5 21.0 0.05 24.55 0.05 -4.7 0.0 -4.7" fill="#fe7878" fill-rule="evenodd" stroke="none"/>
      <path d="M11.5 21.0 L17.4 19.15 34.65 23.6 27.6 23.15 28.85 25.9 17.1 22.65 17.05 22.65 11.5 21.0" fill="#fd024e" fill-rule="evenodd" stroke="none"/>
      <path d="M-28.15 -13.5 L0.0 -4.7 0.0 24.55 -11.45 20.95 -11.1 20.85 -16.0 19.3 -16.35 19.4 -25.75 16.45 -28.15 -13.5" fill="#ff9999" fill-rule="evenodd" stroke="none"/>
      <path d="M-11.45 20.95 L-21.6 24.25 -21.65 24.25 -28.6 26.5 -27.0 23.95 -31.9 24.3 -24.1 21.85 -24.05 21.85 -16.35 19.4 -16.0 19.3 -11.1 20.85 -11.45 20.95" fill="#ff3366" fill-rule="evenodd" stroke="none"/>
      <path d="M0.3 -6.6 L0.3 -20.95 23.25 -13.45 0.3 -6.6" fill="#fe5656" fill-rule="evenodd" stroke="none"/>
      <path d="M0.3 -6.6 L-22.0 -13.65 0.2 -21.0 0.3 -20.95 0.3 -6.6" fill="#fd3e3e" fill-rule="evenodd" stroke="none"/>
      <path d="M2.15 -12.4 L2.25 -12.4 2.4 -12.3 2.15 -12.4 M5.0 -9.6 L7.75 -14.2 Q18.7 -14.3 31.5 -13.65 L30.75 -10.75 4.9 -9.5 5.0 -9.6" fill="#fe7878" fill-rule="evenodd" stroke="none"/>
      <path d="M7.75 -14.2 L-21.65 -28.55 4.3 -28.2 31.5 -13.65 Q18.7 -14.3 7.75 -14.2" fill="#feb4b4" fill-rule="evenodd" stroke="none"/>
      <path d="M2.15 -12.4 L2.4 -12.3 2.25 -12.4 2.15 -12.4 M7.75 -14.2 L5.0 -9.6 4.6 -9.95 4.85 -9.7 -22.1 -24.8 -22.2 -24.55 -21.65 -28.55 7.75 -14.2" fill="#ff9999" fill-rule="evenodd" stroke="none"/>
    </g>
  </defs>
</svg>
