<?xml version="1.0" encoding="UTF-8" standalone="no"?>
<svg xmlns:xlink="http://www.w3.org/1999/xlink" height="116.0px" width="152.0px" xmlns="http://www.w3.org/2000/svg">
  <g transform="matrix(1.0, 0.0, 0.0, 1.0, 0.0, 0.0)">
    <clipPath id="clipPath0" transform="matrix(1.0, 0.0, 0.0, 1.0, 0.0, 0.0)">
      <path d="M146.1 10.8 L146.25 10.8 146.1 10.8 M146.65 9.15 L146.95 10.9 Q150.5 31.5 150.5 58.55 150.5 82.55 147.1 104.3 L146.65 107.05 Q116.8 115.75 76.75 116.0 35.45 116.0 6.05 107.05 L5.5 103.5 Q2.5 83.4 2.5 58.55 2.5 30.4 5.65 11.05 L5.95 9.7 6.05 9.0 Q35.4 -0.05 76.75 0.0 116.0 -0.05 146.65 9.0 L146.65 9.15" fill="#0000ff" fill-rule="evenodd" stroke="none"/>
    </clipPath>
    <g clip-path="url(#clipPath0)">
      <use data-characterId="374" height="120.0" id="my_video" transform="matrix(0.95, 0.0, 0.0, 0.9667, 0.0, 0.0)" width="160.0" xlink:href="#tag0"/>
    </g>
    <use data-characterId="376" height="8.0" id="m_bufferingMeter" transform="matrix(1.0, 0.0, 0.0, 1.0, 30.0, 96.0)" width="100.0" xlink:href="#sprite0"/>
  </g>
  <defs>
    <g id="sprite0" transform="matrix(1.0, 0.0, 0.0, 1.0, 50.0, 4.0)">
      <use data-characterId="375" height="8.0" id="m_bufferingBar" transform="matrix(1.0, 0.0, 0.0, 1.0, -50.0, -4.0)" width="100.0" xlink:href="#sprite1"/>
    </g>
    <g id="sprite1" transform="matrix(1.0, 0.0, 0.0, 1.0, 0.0, 0.0)">
      <use data-characterId="5" height="120.05" transform="matrix(0.6803, 0.0, 0.0, 0.0666, 0.0208, 0.0062)" width="147.0" xlink:href="#shape1"/>
    </g>
    <g id="shape1" transform="matrix(1.0, 0.0, 0.0, 1.0, 19.3, 91.45)">
      <path d="M-19.3 -91.45 L127.7 -91.45 127.7 28.6 -19.3 28.6 -19.3 -91.45" fill="#ffffff" fill-rule="evenodd" stroke="none"/>
    </g>
  </defs>
</svg>
