<?xml version="1.0" encoding="UTF-8" standalone="no"?>
<svg xmlns:xlink="http://www.w3.org/1999/xlink" height="47.2px" width="84.25px" xmlns="http://www.w3.org/2000/svg">
  <g transform="matrix(1.0, 0.0, 0.0, 1.0, 1.65, 1.65)">
    <use data-characterId="293" height="17.6" transform="matrix(0.5627, 0.0, 0.0, 0.5627, -1.6327, 26.1267)" width="17.1" xlink:href="#shape0"/>
    <use data-characterId="293" height="17.6" transform="matrix(0.5627, 0.0, 0.0, 0.5627, 7.1173, -1.6733)" width="17.1" xlink:href="#shape0"/>
    <use data-characterId="293" height="17.6" transform="matrix(0.3688, 0.0, 0.0, 0.3688, 76.315, 26.7228)" width="17.1" xlink:href="#shape0"/>
    <use data-characterId="293" height="17.6" transform="matrix(0.4167, 0.0, 0.0, 0.4167, 26.6084, 2.6043)" width="17.1" xlink:href="#shape0"/>
  </g>
  <defs>
    <g id="shape0" transform="matrix(1.0, 0.0, 0.0, 1.0, 8.5, 8.75)">
      <path d="M0.05 8.6 Q-1.4 1.65 -8.25 0.1 -1.4 -1.55 0.05 -8.5 1.45 -1.5 8.35 0.1 1.45 1.65 0.05 8.6" fill="#ffd915" fill-opacity="0.9098039" fill-rule="evenodd" stroke="none"/>
      <path d="M0.05 8.6 Q-1.4 1.65 -8.25 0.1 -1.4 -1.55 0.05 -8.5 1.45 -1.5 8.35 0.1 1.45 1.65 0.05 8.6 Z" fill="none" stroke="#ffff99" stroke-linecap="square" stroke-linejoin="bevel" stroke-opacity="0.9098039" stroke-width="0.5"/>
    </g>
  </defs>
</svg>
