<?xml version="1.0" encoding="UTF-8" standalone="no"?>
<svg xmlns:xlink="http://www.w3.org/1999/xlink" height="454.65px" width="126.45px" xmlns="http://www.w3.org/2000/svg">
  <g transform="matrix(1.0, 0.0, 0.0, 1.0, 74.7, 261.55)">
    <use data-characterId="63" height="95.3" transform="matrix(0.9688, 0.0, 0.0, 0.9688, -57.635, -10.9097)" width="97.25" xlink:href="#shape0"/>
  </g>
  <defs>
    <g id="shape0" transform="matrix(1.0, 0.0, 0.0, 1.0, 48.6, 44.6)">
      <path d="M0.7 -41.45 L13.25 -40.95 Q16.3 -41.45 17.8 -42.15 19.4 -42.9 17.55 -43.35 15.25 -44.25 8.65 -44.25 L17.4 -43.1 16.9 -42.7 Q15.2 -43.45 11.25 -43.6 15.35 -43.25 16.5 -42.55 L16.6 -42.3 Q16.5 -41.9 14.7 -41.65 16.15 -42.05 16.05 -42.4 L15.7 -42.35 Q14.75 -42.9 12.35 -43.15 L12.25 -43.15 12.55 -43.1 12.35 -43.15 13.95 -42.8 15.4 -42.25 14.7 -42.1 12.9 -41.6 13.95 -42.0 12.15 -41.75 11.95 -41.7 10.95 -41.55 11.35 -41.65 Q6.25 -41.2 0.8 -41.75 L0.85 -41.95 Q0.8 -42.75 -0.1 -42.7 0.6 -42.65 0.55 -42.15 0.65 -41.65 -0.3 -41.55 -1.15 -41.55 -1.2 -42.15 -1.2 -42.55 -0.65 -42.65 -1.3 -42.55 -1.35 -42.05 -9.25 -43.5 -13.8 -42.8 -16.9 -42.35 -18.3 -41.65 -20.0 -40.9 -18.1 -40.4 -15.7 -39.55 -9.2 -39.55 -16.55 -40.1 -17.95 -40.7 L-17.8 -40.8 Q-18.55 -41.05 -18.5 -41.3 -18.4 -41.75 -16.6 -41.95 -18.4 -41.5 -17.5 -41.0 L-17.4 -41.05 Q-15.45 -40.35 -11.75 -40.2 -15.8 -40.55 -17.0 -41.2 L-16.7 -41.3 -16.7 -41.35 Q-16.6 -41.8 -14.85 -42.0 -16.05 -41.7 -16.05 -41.35 -14.95 -40.85 -12.8 -40.65 -15.15 -41.0 -15.85 -41.5 L-14.35 -41.7 -12.85 -42.15 -13.75 -41.8 -12.8 -41.9 -12.5 -41.9 -11.3 -42.15 -11.85 -41.95 Q-6.85 -42.35 -1.3 -41.7 -1.2 -41.2 -0.6 -41.1 L-0.5 -39.4 Q-8.05 -39.0 -13.65 -39.4 -19.55 -39.85 -19.7 -40.9 -19.85 -41.55 -17.7 -42.2 -15.55 -43.15 -9.1 -43.75 L-2.8 -44.25 -2.7 -44.25 -0.75 -44.4 0.2 -44.45 0.4 -44.45 0.6 -44.45 0.75 -44.45 7.4 -44.6 17.05 -43.9 Q19.05 -43.5 19.15 -42.9 19.4 -41.9 13.85 -40.9 L0.3 -39.45 0.25 -41.15 0.7 -41.45 M-9.25 -34.05 L-0.5 -34.75 -0.15 -34.7 0.25 -34.7 0.45 -34.7 7.9 -33.75 11.7 -25.05 10.35 -25.15 8.2 -24.05 7.3 -24.65 2.85 -28.15 2.85 -28.2 3.45 -28.95 7.85 -28.9 8.75 -28.55 9.2 -28.1 8.85 -28.5 9.0 -28.45 8.8 -28.55 5.85 -32.25 2.6 -30.0 1.9 -30.25 1.35 -30.75 1.75 -30.2 1.8 -28.65 0.0 -28.25 -1.95 -28.7 -2.0 -29.9 -1.5 -30.85 -0.6 -31.35 -2.2 -30.8 -2.85 -29.4 -4.0 -31.15 -7.0 -31.85 -9.3 -27.8 -4.15 -29.55 -3.6 -28.95 -9.0 -24.5 -9.3 -24.3 -9.25 -24.25 -9.6 -24.0 -9.2 -24.25 -8.6 -23.8 -9.6 -24.0 -11.35 -23.9 -13.25 -23.15 -9.25 -34.05 M8.4 -28.85 L8.6 -28.7 8.3 -28.85 8.4 -28.85 M-0.55 -27.1 L-1.65 -27.45 -1.8 -27.5 -0.55 -27.1 M15.55 -23.25 L14.6 -20.1 Q13.3 -16.15 12.1 -13.65 L11.1 -11.7 Q10.25 -10.4 9.5 -9.85 L7.45 -8.85 8.35 -14.8 11.75 -16.55 13.1 -17.35 13.75 -17.75 14.0 -18.6 13.3 -18.1 11.85 -17.15 Q10.15 -16.15 8.45 -15.4 L9.75 -24.15 10.4 -24.45 12.0 -24.4 14.2 -23.8 Q14.8 -23.55 15.55 -23.25 M-15.7 -19.9 L-16.4 -21.9 -11.3 -23.0 -8.75 -22.8 -6.85 -13.45 -12.5 -14.15 -13.35 -14.3 -13.6 -14.35 -13.35 -13.8 -13.2 -13.75 -12.4 -13.6 -6.7 -12.9 -5.65 -7.65 -5.05 -7.5 -6.2 -12.85 -1.5 -12.55 0.4 -12.65 0.75 -7.15 1.3 -7.25 Q-2.75 -6.3 -9.2 -8.75 -10.6 -9.25 -12.0 -11.35 L-13.05 -13.15 -14.3 -15.85 -15.7 -19.9 M0.9 -12.65 Q4.1 -13.05 7.75 -14.55 L6.85 -8.65 1.3 -7.25 0.9 -12.65 M5.8 -21.9 L9.15 -23.85 7.9 -15.1 Q4.25 -13.55 0.9 -13.2 L0.5 -19.9 Q2.3 -19.85 5.8 -21.9 M-11.9 -10.9 Q-10.4 -8.5 -8.95 -7.95 -2.55 -5.55 1.4 -6.45 7.65 -7.75 9.8 -9.25 L10.9 -10.5 10.5 -7.55 Q3.85 -4.25 1.45 -3.55 L0.35 -3.4 0.2 -3.4 Q-8.5 -4.65 -10.1 -5.45 L-10.35 -5.55 -10.45 -5.65 Q-11.1 -6.4 -11.9 -10.9 M35.55 7.0 L38.2 8.65 Q40.1 9.75 41.9 10.0 42.4 9.95 42.55 9.4 L42.35 10.15 42.3 10.2 Q41.4 10.85 37.9 9.8 36.0 9.05 34.8 8.0 L35.55 7.0 M40.6 7.4 L43.6 8.5 Q46.3 9.55 47.45 8.9 L48.3 7.8 Q48.4 8.25 47.9 9.1 L47.05 10.0 46.8 10.05 43.0 9.25 42.55 8.3 40.35 7.35 40.6 7.4 M-8.2 -22.65 L-7.0 -22.2 Q-2.8 -20.55 -0.05 -19.95 L0.35 -13.15 -1.5 -13.05 -6.25 -13.4 -8.2 -22.65 M-35.65 9.55 L-34.85 10.45 Q-36.05 11.6 -37.75 12.4 -41.0 13.8 -42.15 13.15 L-42.45 12.55 -42.5 12.3 -42.45 12.35 -41.8 12.9 Q-40.25 12.7 -38.15 11.35 L-35.65 9.55 M-40.55 10.2 L-42.55 11.3 -42.9 12.25 -46.65 13.3 -46.9 13.25 -47.8 12.45 -48.0 12.2 -48.25 11.65 -48.3 11.15 -47.35 12.2 Q-46.15 12.8 -43.55 11.6 L-40.55 10.2" fill="#c3c4df" fill-rule="evenodd" stroke="none"/>
      <path d="M0.8 -41.75 Q6.25 -41.2 11.35 -41.65 L10.95 -41.55 11.95 -41.7 12.15 -41.75 13.95 -42.0 12.9 -41.6 14.7 -42.1 15.4 -42.25 13.95 -42.8 12.35 -43.15 12.55 -43.1 12.25 -43.15 12.35 -43.15 Q14.75 -42.9 15.7 -42.35 L16.05 -42.4 Q16.15 -42.05 14.7 -41.65 16.5 -41.9 16.6 -42.3 L16.5 -42.55 Q15.35 -43.25 11.25 -43.6 15.2 -43.45 16.9 -42.7 L17.4 -43.1 8.65 -44.25 Q15.25 -44.25 17.55 -43.35 19.4 -42.9 17.8 -42.15 16.3 -41.45 13.25 -40.95 L0.7 -41.45 0.8 -41.75 M-0.5 -39.4 L-0.6 -41.1 -0.6 -41.4 0.0 -41.4 0.25 -35.15 -0.35 -35.15 -0.5 -39.4 M-1.3 -41.7 Q-6.85 -42.35 -11.85 -41.95 L-11.3 -42.15 -12.5 -41.9 -12.8 -41.9 -13.75 -41.8 -12.85 -42.15 -14.35 -41.7 -15.85 -41.5 Q-15.15 -41.0 -12.8 -40.65 -14.95 -40.85 -16.05 -41.35 -16.05 -41.7 -14.85 -42.0 -16.6 -41.8 -16.7 -41.35 L-16.7 -41.3 -17.0 -41.2 Q-15.8 -40.55 -11.75 -40.2 -15.45 -40.35 -17.4 -41.05 L-17.5 -41.0 Q-18.4 -41.5 -16.6 -41.95 -18.4 -41.75 -18.5 -41.3 -18.55 -41.05 -17.8 -40.8 L-17.95 -40.7 Q-16.55 -40.1 -9.2 -39.55 -15.7 -39.55 -18.1 -40.4 -20.0 -40.9 -18.3 -41.65 -16.9 -42.35 -13.8 -42.8 -9.25 -43.5 -1.35 -42.05 L-1.35 -41.9 -1.3 -41.7 M7.9 -33.75 L13.95 -24.15 11.7 -25.05 7.9 -33.75 M8.2 -24.05 L5.9 -22.9 Q2.1 -20.95 0.35 -21.35 -2.0 -21.8 -6.95 -23.35 L-8.6 -23.8 -9.2 -24.25 -2.95 -28.25 -2.9 -28.25 -2.8 -27.35 Q-0.2 -26.1 0.7 -26.45 1.5 -26.7 2.5 -27.45 L7.95 -24.15 7.3 -24.65 8.2 -24.05 M-13.25 -23.15 L-15.35 -22.3 -9.25 -34.05 -13.25 -23.15 M8.3 -28.85 L6.05 -30.3 3.25 -30.05 3.25 -30.15 6.05 -31.15 8.4 -28.85 8.3 -28.85 M7.85 -28.9 L3.45 -28.95 2.85 -28.2 3.2 -29.95 5.9 -29.55 7.85 -28.9 M1.75 -30.2 L2.0 -29.8 Q2.5 -28.8 2.15 -28.35 L0.6 -27.0 -0.55 -27.1 -1.8 -27.5 -2.2 -27.85 Q-2.65 -28.35 -2.1 -29.65 L-2.0 -29.9 -1.95 -28.7 0.0 -28.25 1.8 -28.65 1.75 -30.2 M-9.3 -27.8 L-6.6 -30.95 -4.15 -30.55 -3.7 -29.75 -6.45 -29.9 -9.3 -27.8 -6.3 -29.1 -4.15 -29.55 -3.65 -29.65 -3.35 -29.2 -3.6 -28.95 -4.15 -29.55 -9.3 -27.8 M-9.0 -24.5 L-9.25 -24.25 -9.3 -24.3 -9.0 -24.5 M2.6 -30.0 L2.35 -29.85 1.9 -30.25 2.6 -30.0 M44.75 6.85 L44.95 6.9 45.95 7.1 46.45 7.2 48.1 7.55 Q48.65 7.65 48.05 8.8 47.6 9.75 47.05 10.0 L47.9 9.1 Q48.4 8.25 48.3 7.8 L47.45 8.9 Q46.3 9.55 43.6 8.5 L40.6 7.4 39.05 6.75 39.5 7.3 Q40.65 7.4 42.1 8.4 L42.55 9.3 42.55 9.4 Q42.4 9.95 41.9 10.0 40.1 9.75 38.2 8.65 L35.55 7.0 37.1 3.55 37.15 3.3 Q43.1 6.6 43.8 6.65 L44.75 6.85 M-13.15 -9.2 L-12.85 -9.5 -13.85 -8.4 -13.15 -9.2 M6.4 -0.1 L3.05 6.35 1.4 0.25 3.05 -1.95 6.4 -0.1 M10.9 -10.5 L11.6 -11.6 10.5 -7.55 Q8.8 -3.6 6.45 -0.35 L1.45 -3.55 Q3.85 -4.25 10.5 -7.55 L10.9 -10.5 M0.2 -3.4 L-0.25 -3.45 -7.6 0.1 -10.1 -5.45 Q-8.5 -4.65 0.2 -3.4 M-10.45 -5.65 Q-11.25 -6.55 -12.9 -12.7 L-11.9 -10.9 Q-11.1 -6.4 -10.45 -5.65 M-38.35 3.3 L-36.9 6.9 -27.8 4.7 -18.0 2.9 -15.3 1.1 -15.1 1.0 -15.75 2.75 -10.45 7.2 -10.4 7.2 Q-5.9 10.7 -2.65 12.3 -5.85 10.65 -10.05 7.05 L-14.9 2.5 -14.95 2.5 -13.7 -0.8 -17.65 -1.7 -15.9 -1.4 -11.0 -5.85 -6.7 2.95 Q-3.3 9.75 -1.65 12.1 -2.75 12.4 -3.55 13.3 -4.8 14.7 -4.7 16.45 -4.65 18.25 -3.3 19.5 -2.0 20.75 -0.15 20.7 1.65 20.7 2.9 19.35 4.15 17.95 4.05 16.2 4.0 14.35 2.65 13.15 1.6 12.1 0.2 11.95 6.05 3.25 9.95 -5.55 L11.15 -6.05 13.2 -0.35 12.45 -0.25 13.45 3.0 Q7.55 8.2 2.55 11.35 7.75 8.3 14.4 3.3 L12.75 0.45 16.0 0.2 17.25 1.55 Q25.4 2.05 36.65 4.35 L37.75 0.6 37.1 3.15 36.65 4.35 Q35.75 6.4 34.45 7.7 L16.6 9.0 17.45 2.4 15.0 11.05 Q14.55 12.1 11.55 14.95 L8.65 28.6 0.3 24.4 -9.9 30.8 -13.6 17.8 Q-17.5 13.3 -17.85 12.45 L-20.55 4.65 -19.35 10.05 Q-31.35 9.9 -34.45 10.1 -36.3 8.55 -37.5 5.8 L-38.35 3.3 M1.85 13.7 Q0.85 12.8 -0.45 12.9 L-0.95 12.95 Q-1.95 13.1 -2.7 13.9 -3.65 14.85 -3.55 16.2 -3.4 19.35 -0.25 19.3 2.9 19.15 2.9 16.0 2.8 14.65 1.85 13.7 M0.8 26.95 L4.6 27.6 8.05 31.5 6.25 40.05 4.3 42.75 0.4 40.95 0.3 30.75 0.8 26.95 M2.35 13.1 Q3.6 14.2 3.65 15.85 3.65 17.45 2.5 18.65 1.35 19.8 -0.35 19.85 -2.05 19.95 -3.25 18.85 -4.5 17.7 -4.55 16.1 -4.6 14.5 -3.45 13.35 -2.65 12.5 -1.55 12.2 L-0.6 12.05 0.1 12.1 Q1.35 12.2 2.35 13.1 M2.4 15.8 Q2.45 16.95 1.7 17.85 0.9 18.75 -0.25 18.75 -3.0 18.85 -3.05 16.0 -3.15 13.35 -0.85 13.05 L-0.55 13.0 -0.45 13.0 Q2.25 12.95 2.4 15.8 M-3.55 7.65 Q-6.3 1.9 -7.4 0.6 L-2.95 -1.8 -1.0 0.35 -3.55 7.65 M-48.25 11.65 Q-48.5 11.05 -48.1 10.95 L-43.9 9.7 Q-43.2 9.55 -37.55 5.9 L-37.5 6.15 Q-36.7 8.15 -35.65 9.55 L-38.15 11.35 Q-40.25 12.7 -41.8 12.9 L-42.45 12.35 -42.45 12.25 Q-42.35 11.6 -42.05 11.35 -40.7 10.25 -39.55 10.05 -38.9 9.9 -39.15 9.45 L-40.55 10.2 -43.55 11.6 Q-46.15 12.8 -47.35 12.2 L-48.3 11.15 -48.25 11.65 M-46.9 13.25 Q-47.45 13.05 -48.0 12.2 L-47.8 12.45 -46.9 13.25 M-0.45 30.15 L-0.5 41.2 Q-1.7 42.4 -3.15 42.35 -4.3 42.3 -6.1 40.5 L-7.3 39.25 -9.1 33.55 -8.3 32.0 Q-6.95 29.65 -5.45 28.9 -4.0 28.1 -1.7 29.35 L-0.45 30.15" fill="#96a2c9" fill-rule="evenodd" stroke="none"/>
      <path d="M0.7 -41.45 L0.25 -41.15 0.3 -39.45 0.45 -35.15 7.75 -34.35 15.55 -23.25 Q14.8 -23.55 14.2 -23.8 L12.0 -24.4 10.4 -24.45 9.75 -24.15 8.45 -15.4 Q10.15 -16.15 11.85 -17.15 L13.3 -18.1 14.0 -18.6 13.75 -17.75 13.1 -17.35 11.75 -16.55 8.35 -14.8 7.45 -8.85 9.5 -9.85 Q10.25 -10.4 11.1 -11.7 L12.1 -13.65 Q13.3 -16.15 14.6 -20.1 L12.0 -11.55 15.55 -6.6 22.35 -4.0 Q31.45 -0.75 37.75 0.6 L37.2 3.05 43.3 6.45 44.75 6.85 43.8 6.65 Q43.1 6.6 37.15 3.3 L37.1 3.55 35.55 7.0 34.8 8.0 Q36.0 9.05 37.9 9.8 41.4 10.85 42.3 10.2 L42.35 10.15 42.55 9.4 42.55 9.3 42.1 8.4 Q40.65 7.4 39.5 7.3 L39.05 6.75 40.6 7.4 40.35 7.35 42.55 8.3 43.0 9.25 46.8 10.05 47.05 10.0 Q47.6 9.75 48.05 8.8 48.65 7.65 48.1 7.55 L46.45 7.2 48.15 7.5 Q48.95 7.6 48.45 9.15 47.85 10.65 46.8 10.6 L42.95 9.75 Q42.85 10.65 41.85 10.65 38.4 10.85 37.4 10.15 L34.5 8.35 34.45 8.4 16.5 9.7 16.1 11.7 Q15.6 12.75 12.6 15.3 L6.5 42.6 6.2 42.8 6.85 45.95 Q7.9 48.9 6.75 49.65 L2.9 49.8 0.15 46.4 Q0.0 49.4 -0.8 49.8 -4.15 51.45 -4.85 50.05 L-7.2 41.1 -7.95 40.3 Q-8.45 39.7 -14.4 18.65 L-18.65 13.15 -19.2 10.75 Q-31.35 10.6 -34.45 10.8 L-34.5 10.75 -37.25 12.75 Q-38.05 13.4 -41.6 13.6 -42.3 13.6 -42.6 13.2 L-42.8 12.75 Q-45.1 13.7 -46.6 13.9 -47.65 14.0 -48.3 12.55 -48.95 11.05 -48.2 10.9 L-43.4 9.45 -37.6 5.75 -38.35 3.3 Q-28.55 0.45 -16.15 -5.65 L-13.15 -9.2 -13.85 -8.4 -12.85 -9.5 -12.75 -9.65 -12.65 -9.7 -15.7 -19.9 -14.3 -15.85 -13.05 -13.15 -12.0 -11.35 Q-10.6 -9.25 -9.2 -8.75 -2.75 -6.3 1.3 -7.25 L0.75 -7.15 0.4 -12.65 -1.5 -12.55 -6.2 -12.85 -5.05 -7.5 -5.65 -7.65 -6.7 -12.9 -12.4 -13.6 -13.2 -13.75 -13.35 -13.8 -13.6 -14.35 -13.35 -14.3 -12.5 -14.15 -6.85 -13.45 -8.75 -22.8 -11.3 -23.0 -16.4 -21.9 -16.25 -21.95 -16.45 -22.6 -9.4 -34.65 -0.75 -35.15 -0.35 -35.15 0.25 -35.15 0.0 -41.4 -0.6 -41.4 -0.6 -41.1 Q-1.2 -41.2 -1.3 -41.7 L-1.35 -41.9 -1.35 -42.05 Q-1.3 -42.55 -0.65 -42.65 -1.2 -42.55 -1.2 -42.15 -1.15 -41.55 -0.3 -41.55 0.65 -41.65 0.55 -42.15 0.6 -42.65 -0.1 -42.7 0.8 -42.75 0.85 -41.95 L0.8 -41.75 0.7 -41.45 M7.9 -33.75 L0.45 -34.7 0.25 -34.7 -0.15 -34.7 -0.5 -34.75 -9.25 -34.05 -15.35 -22.3 -13.25 -23.15 -11.35 -23.9 -9.6 -24.0 -8.6 -23.8 -6.95 -23.35 Q-2.0 -21.8 0.35 -21.35 2.1 -20.95 5.9 -22.9 L8.2 -24.05 10.35 -25.15 11.7 -25.05 13.95 -24.15 7.9 -33.75 M8.4 -28.85 L6.05 -31.15 3.25 -30.15 3.25 -30.05 6.05 -30.3 8.3 -28.85 8.6 -28.7 8.4 -28.85 M7.85 -28.9 L5.9 -29.55 3.2 -29.95 2.85 -28.2 2.85 -28.15 7.3 -24.65 7.95 -24.15 2.5 -27.45 Q1.5 -26.7 0.7 -26.45 -0.2 -26.1 -2.8 -27.35 L-2.9 -28.25 -2.95 -28.25 -9.2 -24.25 -9.6 -24.0 -9.25 -24.25 -9.0 -24.5 -3.6 -28.95 -3.35 -29.2 -3.65 -29.65 -4.15 -29.55 -6.3 -29.1 -9.3 -27.8 -6.45 -29.9 -3.7 -29.75 -4.15 -30.55 -6.6 -30.95 -9.3 -27.8 -7.0 -31.85 -4.0 -31.15 -2.85 -29.4 -2.2 -30.8 -0.6 -31.35 -1.5 -30.85 -2.0 -29.9 -2.1 -29.65 Q-2.65 -28.35 -2.2 -27.85 L-1.8 -27.5 -1.65 -27.45 -0.55 -27.1 0.6 -27.0 2.15 -28.35 Q2.5 -28.8 2.0 -29.8 L1.75 -30.2 1.35 -30.75 1.9 -30.25 2.35 -29.85 2.6 -30.0 5.85 -32.25 8.8 -28.55 9.0 -28.45 8.85 -28.5 9.2 -28.1 8.75 -28.55 7.85 -28.9 M5.8 -21.9 Q2.3 -19.85 0.5 -19.9 L0.9 -13.2 Q4.25 -13.55 7.9 -15.1 L9.15 -23.85 5.8 -21.9 M0.9 -12.65 L1.3 -7.25 6.85 -8.65 7.75 -14.55 Q4.1 -13.05 0.9 -12.65 M6.4 -0.1 L3.05 -1.95 1.4 0.25 3.05 6.35 6.4 -0.1 M10.9 -10.5 L9.8 -9.25 Q7.65 -7.75 1.4 -6.45 -2.55 -5.55 -8.95 -7.95 -10.4 -8.5 -11.9 -10.9 L-12.9 -12.7 Q-11.25 -6.55 -10.45 -5.65 L-10.35 -5.55 -10.1 -5.45 -7.6 0.1 -0.25 -3.45 0.2 -3.4 0.35 -3.4 1.45 -3.55 6.45 -0.35 Q8.8 -3.6 10.5 -7.55 L11.6 -11.6 10.9 -10.5 M-38.35 3.3 L-37.5 5.8 Q-36.3 8.55 -34.45 10.1 -31.35 9.9 -19.35 10.05 L-20.55 4.65 -17.85 12.45 Q-17.5 13.3 -13.6 17.8 L-9.9 30.8 0.3 24.4 8.65 28.6 11.55 14.95 Q14.55 12.1 15.0 11.05 L17.45 2.4 16.6 9.0 34.45 7.7 Q35.75 6.4 36.65 4.35 L37.1 3.15 37.75 0.6 36.65 4.35 Q25.4 2.05 17.25 1.55 L16.0 0.2 12.75 0.45 14.4 3.3 Q7.75 8.3 2.55 11.35 7.55 8.2 13.45 3.0 L12.45 -0.25 13.2 -0.35 11.15 -6.05 9.95 -5.55 Q6.05 3.25 0.2 11.95 1.6 12.1 2.65 13.15 4.0 14.35 4.05 16.2 4.15 17.95 2.9 19.35 1.65 20.7 -0.15 20.7 -2.0 20.75 -3.3 19.5 -4.65 18.25 -4.7 16.45 -4.8 14.7 -3.55 13.3 -2.75 12.4 -1.65 12.1 -3.3 9.75 -6.7 2.95 L-11.0 -5.85 -15.9 -1.4 -17.65 -1.7 -13.7 -0.8 -14.95 2.5 -14.9 2.5 -10.05 7.05 Q-5.85 10.65 -2.65 12.3 -5.9 10.7 -10.4 7.2 L-10.45 7.2 -15.75 2.75 -15.1 1.0 -15.3 1.1 -18.0 2.9 -27.8 4.7 -36.9 6.9 -38.35 3.3 M1.85 13.7 Q2.8 14.65 2.9 16.0 2.9 19.15 -0.25 19.3 -3.4 19.35 -3.55 16.2 -3.65 14.85 -2.7 13.9 -1.95 13.1 -0.95 12.95 L-0.45 12.9 Q0.85 12.8 1.85 13.7 M2.4 15.8 Q2.25 12.95 -0.45 13.0 L-0.55 13.0 -0.85 13.05 Q-3.15 13.35 -3.05 16.0 -3.0 18.85 -0.25 18.75 0.9 18.75 1.7 17.85 2.45 16.95 2.4 15.8 M2.35 13.1 Q1.35 12.2 0.1 12.1 L-0.6 12.05 -1.55 12.2 Q-2.65 12.5 -3.45 13.35 -4.6 14.5 -4.55 16.1 -4.5 17.7 -3.25 18.85 -2.05 19.95 -0.35 19.85 1.35 19.8 2.5 18.65 3.65 17.45 3.65 15.85 3.6 14.2 2.35 13.1 M0.8 26.95 L0.3 30.75 0.4 40.95 4.3 42.75 6.25 40.05 8.05 31.5 4.6 27.6 0.8 26.95 M-8.2 -22.65 L-6.25 -13.4 -1.5 -13.05 0.35 -13.15 -0.05 -19.95 Q-2.8 -20.55 -7.0 -22.2 L-8.2 -22.65 M-35.65 9.55 Q-36.7 8.15 -37.5 6.15 L-37.55 5.9 Q-43.2 9.55 -43.9 9.7 L-48.1 10.95 Q-48.5 11.05 -48.25 11.65 L-48.0 12.2 Q-47.45 13.05 -46.9 13.25 L-46.65 13.3 -42.9 12.25 -42.55 11.3 -40.55 10.2 -39.15 9.45 Q-38.9 9.9 -39.55 10.05 -40.7 10.25 -42.05 11.35 -42.35 11.6 -42.45 12.25 L-42.45 12.35 -42.5 12.3 -42.45 12.55 -42.15 13.15 Q-41.0 13.8 -37.75 12.4 -36.05 11.6 -34.85 10.45 L-35.65 9.55 M-3.55 7.65 L-1.0 0.35 -2.95 -1.8 -7.4 0.6 Q-6.3 1.9 -3.55 7.65 M-0.45 30.15 L-1.7 29.35 Q-4.0 28.1 -5.45 28.9 -6.95 29.65 -8.3 32.0 L-9.1 33.55 -7.3 39.25 -6.1 40.5 Q-4.3 42.3 -3.15 42.35 -1.7 42.4 -0.5 41.2 L-0.45 30.15" fill="#3d4f6e" fill-rule="evenodd" stroke="none"/>
    </g>
  </defs>
</svg>
