<?xml version="1.0" encoding="UTF-8" standalone="no"?>
<svg xmlns:xlink="http://www.w3.org/1999/xlink" height="7.9px" width="31.35px" xmlns="http://www.w3.org/2000/svg">
  <g transform="matrix(1.0, 0.0, 0.0, 1.0, -0.3, -2.0)">
    <g transform="matrix(1.0, 0.0, 0.0, 1.0, 0.0, 0.0)">
      <use fill="#ffffff" height="7.9" transform="matrix(0.0078, 0.0, 0.0, 0.0078, 0.0, 9.0)" width="31.35" xlink:href="#font_Arial_Black_S0"/>
      <use fill="#ffffff" height="7.9" transform="matrix(0.0078, 0.0, 0.0, 0.0078, 5.8, 9.0)" width="31.35" xlink:href="#font_Arial_Black_O0"/>
      <use fill="#ffffff" height="7.9" transform="matrix(0.0078, 0.0, 0.0, 0.0078, 12.45, 9.0)" width="31.35" xlink:href="#font_Arial_Black_U0"/>
      <use fill="#ffffff" height="7.9" transform="matrix(0.0078, 0.0, 0.0, 0.0078, 19.1, 9.0)" width="31.35" xlink:href="#font_Arial_Black_N0"/>
      <use fill="#ffffff" height="7.9" transform="matrix(0.0078, 0.0, 0.0, 0.0078, 25.75, 9.0)" width="31.35" xlink:href="#font_Arial_Black_D0"/>
    </g>
  </g>
  <defs>
    <g id="font_Arial_Black_S0">
      <path d="M36.0 -242.5 L36.0 -242.5 Q45.5 -131.5 117.5 -60.0 189.5 12.0 376.0 12.0 482.5 12.0 552.0 -18.5 622.0 -49.5 661.0 -108.5 700.0 -168.0 700.0 -238.5 700.0 -298.5 671.0 -346.5 641.5 -395.0 577.5 -427.5 513.5 -460.5 365.5 -492.5 305.5 -505.0 289.0 -519.0 272.0 -533.0 272.0 -550.5 272.0 -574.5 292.0 -591.5 312.5 -608.0 352.0 -608.0 400.5 -608.0 428.0 -585.0 455.5 -562.5 464.0 -512.0 L676.0 -524.5 Q662.0 -639.0 588.5 -691.5 515.0 -744.0 375.0 -744.0 260.5 -744.0 195.0 -715.5 129.5 -686.5 96.5 -636.5 64.0 -586.5 64.0 -530.0 64.0 -444.5 128.0 -389.0 191.0 -334.0 340.0 -300.5 430.5 -280.5 455.5 -258.0 480.0 -235.5 480.0 -207.0 480.0 -177.5 454.0 -154.5 428.0 -132.0 379.5 -132.0 315.0 -132.0 280.5 -176.5 259.0 -203.5 252.0 -256.0 L36.0 -242.5" fill-rule="evenodd" stroke="none"/>
    </g>
    <g id="font_Arial_Black_O0">
      <path d="M276.0 -363.5 L276.0 -363.5 Q276.0 -475.0 316.5 -523.5 357.5 -572.0 424.5 -572.0 494.5 -572.0 535.0 -524.5 576.0 -476.5 576.0 -373.5 576.0 -250.5 537.0 -203.5 497.5 -156.0 426.5 -156.0 357.0 -156.0 316.5 -204.5 276.0 -252.5 276.0 -363.5 M48.0 -365.5 L48.0 -365.5 Q48.0 -237.5 98.5 -152.0 148.5 -67.0 229.5 -27.5 310.5 12.0 433.5 12.0 555.0 12.0 636.5 -33.5 718.0 -79.0 761.0 -161.5 804.0 -243.5 804.0 -371.5 804.0 -548.0 705.5 -646.0 607.0 -744.0 425.0 -744.0 247.0 -744.0 147.5 -644.0 48.0 -544.5 48.0 -365.5" fill-rule="evenodd" stroke="none"/>
    </g>
    <g id="font_Arial_Black_U0">
      <path d="M548.0 -287.0 L548.0 -287.0 Q548.0 -226.0 515.5 -193.0 483.5 -160.0 426.5 -160.0 369.0 -160.0 336.5 -193.5 304.0 -227.0 304.0 -287.0 L304.0 -732.0 76.0 -732.0 76.0 -296.0 Q76.0 -242.5 97.0 -172.5 110.0 -129.0 145.0 -88.0 180.0 -47.5 222.5 -25.0 265.0 -3.0 328.0 4.5 391.0 12.0 444.0 12.0 536.5 12.0 602.0 -12.5 649.5 -30.0 692.5 -73.0 735.5 -116.0 756.0 -173.5 776.0 -231.5 776.0 -296.0 L776.0 -732.0 548.0 -732.0 548.0 -287.0" fill-rule="evenodd" stroke="none"/>
    </g>
    <g id="font_Arial_Black_N0">
      <path d="M76.0 0.0 L76.0 0.0 288.0 0.0 288.0 -404.0 564.0 0.0 776.0 0.0 776.0 -732.0 564.0 -732.0 564.0 -326.0 286.5 -732.0 76.0 -732.0 76.0 0.0" fill-rule="evenodd" stroke="none"/>
    </g>
    <g id="font_Arial_Black_D0">
      <path d="M363.5 -564.0 L363.5 -564.0 Q449.5 -564.0 487.0 -521.5 524.0 -479.0 524.0 -363.5 524.0 -276.5 507.5 -238.0 490.5 -199.0 461.5 -183.5 432.0 -168.0 362.5 -168.0 L308.0 -168.0 308.0 -564.0 363.5 -564.0 M80.0 0.0 L80.0 0.0 415.5 0.0 Q475.5 0.0 550.0 -20.0 604.0 -34.5 651.5 -78.0 698.5 -122.0 725.5 -186.5 752.0 -251.0 752.0 -368.5 752.0 -443.5 734.0 -510.5 716.0 -577.0 676.5 -627.5 636.5 -678.0 575.5 -705.0 514.5 -732.0 415.5 -732.0 L80.0 -732.0 80.0 0.0" fill-rule="evenodd" stroke="none"/>
    </g>
  </defs>
</svg>
