<?xml version="1.0" encoding="UTF-8" standalone="no"?>
<svg xmlns:xlink="http://www.w3.org/1999/xlink" height="15.1px" width="37.6px" xmlns="http://www.w3.org/2000/svg">
  <g transform="matrix(1.0, 0.0, 0.0, 1.0, -1.8, 0.85)">
    <g transform="matrix(1.0, 0.0, 0.0, 1.0, 0.0, 0.0)">
      <use fill="#e0181c" height="15.1" transform="matrix(0.0137, 0.0, 0.0, 0.0137, 0.0, 12.0)" width="37.6" xlink:href="#font______________0"/>
      <use fill="#e0181c" height="15.1" transform="matrix(0.0137, 0.0, 0.0, 0.0137, 13.2, 12.0)" width="37.6" xlink:href="#font______________1"/>
      <use fill="#e0181c" height="15.1" transform="matrix(0.0137, 0.0, 0.0, 0.0137, 26.4, 12.0)" width="37.6" xlink:href="#font______________2"/>
    </g>
  </g>
  <defs>
    <g id="font______________0">
      <path d="M907.5 -50.0 L907.5 -50.0 Q907.5 -152.5 782.5 -152.5 775.0 -152.5 689.0 -142.5 602.0 -132.0 545.0 -132.0 441.5 -132.0 407.5 -138.0 342.0 -151.5 342.0 -196.5 342.0 -276.5 498.5 -338.0 583.5 -370.5 830.5 -431.0 900.0 -449.5 900.0 -515.0 900.0 -558.0 873.5 -590.0 846.0 -626.5 799.0 -626.5 765.0 -626.5 672.0 -601.0 578.5 -576.5 548.0 -559.0 L513.0 -769.0 Q506.0 -804.0 475.0 -823.5 449.5 -839.5 413.5 -839.5 369.5 -839.5 337.0 -812.0 304.0 -784.5 304.0 -740.5 304.0 -728.0 321.5 -639.0 338.0 -543.5 353.5 -487.5 253.0 -450.5 190.5 -354.5 133.0 -267.0 133.0 -181.0 133.0 -56.5 259.0 8.0 365.5 62.5 520.0 62.5 704.5 62.5 818.0 39.0 861.0 31.0 883.5 5.0 907.5 -18.5 907.5 -50.0" fill-rule="evenodd" stroke="none"/>
    </g>
    <g id="font______________1">
      <path d="M945.0 -311.5 L945.0 -311.5 Q945.0 -355.5 907.5 -385.0 870.5 -413.5 825.5 -413.5 786.5 -413.5 755.5 -379.0 737.5 -357.5 704.5 -299.0 663.5 -223.0 622.5 -186.5 557.0 -127.0 465.0 -127.0 409.5 -127.0 388.0 -149.5 365.5 -173.0 365.5 -236.5 365.5 -303.0 376.0 -440.5 386.0 -577.5 386.0 -645.0 386.0 -684.0 384.0 -719.0 380.0 -767.0 345.0 -793.5 315.5 -815.0 271.5 -815.0 227.5 -815.0 196.5 -785.5 165.0 -755.5 169.0 -708.5 173.0 -668.5 173.0 -618.5 173.0 -553.0 164.0 -418.0 154.5 -282.5 154.5 -223.0 154.5 -84.0 229.5 -6.0 303.0 71.5 443.5 71.5 796.5 71.5 937.0 -272.5 945.0 -293.0 945.0 -311.5 M811.0 -635.0 L811.0 -635.0 Q811.0 -654.5 799.0 -676.0 761.0 -737.0 739.5 -766.0 722.0 -787.5 695.5 -787.5 674.0 -787.5 657.5 -773.0 641.0 -761.0 641.0 -740.5 641.0 -722.0 654.5 -703.5 699.5 -639.0 717.0 -611.5 732.0 -590.0 762.0 -590.0 781.5 -590.0 795.5 -602.0 811.0 -615.5 811.0 -635.0 M950.5 -714.5 L950.5 -714.5 Q950.5 -734.0 939.0 -754.5 900.0 -816.0 878.5 -845.0 862.0 -866.5 834.5 -866.5 813.0 -866.5 796.5 -853.0 780.5 -839.5 780.5 -819.0 780.5 -800.5 793.5 -782.5 838.5 -718.0 856.0 -690.0 871.5 -669.5 901.0 -669.5 920.5 -669.5 935.0 -682.0 950.5 -694.0 950.5 -714.5" fill-rule="evenodd" stroke="none"/>
    </g>
    <g id="font______________2">
      <path d="M527.5 -64.5 L527.5 -64.5 Q509.0 -52.0 476.0 -52.0 456.5 -52.0 442.5 -62.5 429.0 -72.5 427.0 -84.0 420.0 -117.5 474.0 -117.5 494.5 -117.5 511.0 -101.5 527.5 -84.0 527.5 -64.5 M951.5 -238.5 L951.5 -238.5 Q951.5 -385.0 848.0 -461.0 765.0 -522.0 651.5 -522.0 620.5 -522.0 593.0 -516.0 701.5 -583.5 751.5 -628.5 796.5 -670.5 796.5 -697.5 796.5 -745.5 762.0 -779.0 727.0 -813.0 678.0 -806.0 624.5 -800.5 470.0 -790.5 315.5 -781.5 262.0 -781.5 215.0 -781.5 188.5 -750.5 161.0 -720.0 161.0 -680.0 161.0 -642.0 185.5 -616.5 214.0 -587.5 261.0 -586.5 292.0 -585.5 375.0 -600.0 463.0 -613.5 474.0 -615.5 417.0 -568.5 291.0 -479.0 157.5 -384.0 105.5 -342.0 67.5 -312.5 67.5 -257.0 67.5 -223.0 101.5 -196.5 135.0 -170.0 175.0 -170.0 218.0 -170.0 238.5 -191.5 326.5 -282.5 395.5 -316.5 470.0 -353.0 582.5 -353.0 652.5 -353.0 701.5 -319.5 750.5 -286.5 750.5 -247.0 750.5 -160.5 687.0 -148.5 627.5 -265.0 467.0 -265.0 370.5 -265.0 312.5 -208.0 258.0 -156.5 258.0 -84.0 258.0 -10.0 332.0 39.0 408.5 91.0 527.5 91.0 719.0 91.0 819.0 31.0 951.5 -48.0 951.5 -238.5" fill-rule="evenodd" stroke="none"/>
    </g>
  </defs>
</svg>
