<?xml version="1.0" encoding="UTF-8" standalone="no"?>
<svg xmlns:xlink="http://www.w3.org/1999/xlink" height="12.85px" width="67.05px" xmlns="http://www.w3.org/2000/svg">
  <g transform="matrix(1.0, 0.0, 0.0, 1.0, -1.2, 0.95)">
    <g transform="matrix(1.0, 0.0, 0.0, 1.0, 0.0, 0.0)">
      <use fill="#ffffff" height="12.85" transform="matrix(0.0117, 0.0, 0.0, 0.0117, 0.0, 10.0)" width="67.05" xlink:href="#font______________0"/>
      <use fill="#ffffff" height="12.85" transform="matrix(0.0117, 0.0, 0.0, 0.0117, 12.8, 10.0)" width="67.05" xlink:href="#font______________1"/>
      <use fill="#ffffff" height="12.85" transform="matrix(0.0117, 0.0, 0.0, 0.0117, 25.6, 10.0)" width="67.05" xlink:href="#font______________2"/>
      <use fill="#ffffff" height="12.85" transform="matrix(0.0117, 0.0, 0.0, 0.0117, 38.4, 10.0)" width="67.05" xlink:href="#font______________3"/>
    </g>
    <g transform="matrix(1.0, 0.0, 0.0, 1.0, 0.0, 0.0)">
      <use fill="#ffffff" height="12.85" transform="matrix(0.0117, 0.0, 0.0, 0.0117, 51.2, 10.0)" width="67.05" xlink:href="#font______________2"/>
    </g>
    <g transform="matrix(1.0, 0.0, 0.0, 1.0, 0.0, 0.0)">
      <use fill="#ffffff" height="12.85" transform="matrix(0.0117, 0.0, 0.0, 0.0117, 64.7, 10.0)" width="67.05" xlink:href="#font______________4"/>
    </g>
  </g>
  <defs>
    <g id="font______________0">
      <path d="M925.5 -74.5 L925.5 -74.5 Q925.5 -111.5 896.0 -137.0 867.5 -163.0 817.0 -163.0 825.5 -163.0 745.5 -149.5 663.5 -136.0 550.0 -133.0 478.0 -131.0 477.0 -131.0 321.5 -131.0 321.5 -180.0 321.5 -201.5 330.0 -228.5 338.0 -255.0 338.0 -269.5 338.0 -306.0 300.0 -330.5 264.0 -352.0 226.5 -352.0 164.0 -352.0 129.0 -290.0 100.5 -238.5 100.5 -174.0 100.5 55.5 541.5 55.5 553.0 55.5 597.0 56.5 640.0 58.5 667.5 58.5 925.5 58.5 925.5 -74.5 M862.0 -653.5 L862.0 -653.5 Q862.0 -696.5 833.5 -724.0 801.0 -754.5 743.5 -750.5 631.0 -741.5 529.5 -741.5 417.0 -741.5 282.5 -752.5 232.5 -757.5 202.0 -728.0 172.0 -698.5 172.0 -658.5 172.0 -619.5 195.5 -591.0 224.5 -560.0 274.5 -557.0 424.0 -544.5 562.0 -544.5 674.0 -544.5 765.0 -553.0 811.0 -557.0 837.5 -587.5 862.0 -615.5 862.0 -653.5" fill-rule="evenodd" stroke="none"/>
    </g>
    <g id="font______________1">
      <path d="M939.0 -237.5 L939.0 -237.5 Q939.0 -346.0 853.0 -413.5 766.0 -482.5 627.5 -482.5 581.5 -482.5 521.0 -464.0 468.0 -448.5 436.5 -429.0 451.5 -470.0 467.0 -517.0 633.0 -525.5 755.5 -547.0 840.5 -562.0 840.5 -632.0 840.5 -670.5 817.0 -697.5 792.5 -724.0 749.5 -724.0 732.0 -724.0 715.0 -720.0 674.0 -708.5 614.5 -705.5 568.5 -703.5 519.0 -700.5 529.5 -723.0 529.5 -749.5 529.5 -786.5 510.0 -811.0 487.5 -839.5 446.5 -839.5 375.0 -839.5 344.0 -791.5 327.5 -769.0 312.5 -694.0 257.0 -694.0 167.0 -700.5 115.5 -703.5 85.0 -675.0 53.5 -645.0 53.5 -606.0 53.5 -565.0 79.0 -537.5 108.5 -507.0 162.0 -507.0 178.0 -507.0 211.0 -510.0 243.5 -512.0 260.0 -512.0 236.5 -406.5 193.5 -333.0 171.0 -294.0 169.0 -293.0 161.0 -274.5 161.0 -245.5 161.0 -206.0 188.5 -183.5 216.0 -159.5 258.0 -159.5 312.5 -159.5 344.0 -196.5 438.5 -310.0 617.5 -310.0 673.0 -310.0 702.5 -288.5 731.0 -270.5 731.0 -242.5 731.0 -160.5 594.0 -132.0 549.0 -122.0 492.5 -122.0 435.0 -122.0 399.5 -131.0 301.0 -131.0 301.0 -48.0 301.0 -5.0 325.5 24.5 356.5 62.5 412.5 62.5 430.0 62.5 482.5 65.5 527.5 67.5 545.0 66.5 939.0 41.0 939.0 -237.5" fill-rule="evenodd" stroke="none"/>
    </g>
    <g id="font______________2">
      <path d="M936.0 -244.5 L936.0 -244.5 Q936.0 -383.0 835.5 -448.5 758.0 -499.5 636.0 -499.5 463.0 -499.5 352.5 -419.0 364.5 -494.5 368.5 -527.5 370.5 -536.5 370.5 -546.0 370.5 -581.5 343.0 -608.0 313.5 -634.0 277.5 -634.0 172.0 -634.0 154.5 -549.0 129.0 -425.0 118.0 -272.5 111.5 -213.0 144.5 -180.0 172.0 -151.5 219.0 -151.5 248.0 -151.5 278.5 -167.0 310.5 -181.0 326.5 -202.5 355.5 -236.5 431.0 -267.0 520.0 -302.0 613.5 -302.0 710.5 -302.0 710.5 -248.0 710.5 -122.0 477.0 -122.0 454.5 -122.0 422.0 -124.0 389.0 -125.0 381.0 -125.0 336.0 -125.0 310.5 -94.0 285.5 -66.5 285.5 -26.5 285.5 17.5 321.5 46.0 355.5 76.0 408.5 76.0 408.5 76.0 476.0 78.0 525.5 80.0 558.0 77.0 936.0 45.0 936.0 -244.5 M705.5 -711.5 L705.5 -711.5 Q705.5 -772.0 636.0 -786.5 576.5 -797.5 516.0 -808.0 441.5 -822.0 392.0 -839.5 374.0 -847.0 347.0 -847.0 308.5 -847.0 283.5 -816.0 258.0 -786.5 258.0 -747.5 258.0 -685.0 332.0 -654.5 433.0 -612.5 570.5 -606.0 576.5 -606.0 589.0 -603.0 601.0 -601.0 606.0 -601.0 653.5 -601.0 680.0 -638.0 705.5 -669.5 705.5 -711.5" fill-rule="evenodd" stroke="none"/>
    </g>
    <g id="font______________3">
      <path d="M495.5 -383.0 L495.5 -383.0 Q493.5 -143.5 452.5 -143.5 432.0 -143.5 390.0 -163.0 381.0 -168.0 369.5 -168.0 338.0 -168.0 312.5 -141.5 376.0 -297.0 415.0 -446.5 438.5 -449.5 448.5 -449.5 495.5 -449.5 495.5 -383.0 M698.5 -378.0 L698.5 -378.0 Q698.5 -516.0 635.0 -584.5 584.5 -637.0 510.0 -637.0 497.5 -637.0 485.5 -635.0 L462.0 -633.0 Q480.5 -720.0 480.5 -728.0 480.5 -768.0 451.5 -792.5 422.0 -816.0 384.0 -816.0 345.0 -816.0 316.5 -794.5 285.5 -768.0 279.5 -720.0 274.5 -688.0 257.0 -615.5 182.5 -606.0 139.5 -601.0 97.5 -596.0 75.0 -571.5 52.5 -547.0 52.5 -514.0 52.5 -445.5 97.5 -421.0 118.0 -410.5 146.5 -410.5 172.0 -410.5 208.0 -418.0 152.5 -237.5 69.5 -89.0 57.5 -67.5 57.5 -36.0 57.5 3.0 96.5 29.5 129.0 51.0 175.0 51.0 218.0 51.0 248.0 -2.0 260.0 -25.5 280.5 -72.5 277.5 -5.0 349.0 32.0 407.5 60.5 478.0 60.5 636.0 60.5 681.0 -143.5 698.5 -216.0 698.5 -378.0 M971.0 -306.0 L971.0 -306.0 Q971.0 -316.5 966.5 -331.5 901.0 -600.0 834.5 -697.5 807.0 -737.0 773.0 -737.0 729.0 -737.0 694.5 -718.0 654.5 -696.5 654.5 -660.5 654.5 -639.0 668.5 -600.0 681.0 -573.5 692.5 -547.0 702.5 -520.0 732.0 -421.0 763.0 -317.5 781.5 -266.0 803.0 -207.0 865.5 -207.0 908.5 -207.0 939.0 -233.5 971.0 -258.0 971.0 -306.0" fill-rule="evenodd" stroke="none"/>
    </g>
    <g id="font______________4">
      <path d="M304.0 -66.5 L304.0 -66.5 Q304.0 -115.5 265.0 -150.5 226.5 -186.5 172.0 -186.5 118.0 -186.5 80.0 -151.5 41.0 -115.5 41.0 -66.5 41.0 -17.5 79.0 17.5 118.0 52.5 172.0 52.5 226.5 52.5 265.0 17.5 304.0 -17.5 304.0 -66.5 M289.0 -659.5 L289.0 -659.5 Q293.0 -719.0 261.0 -751.5 228.5 -785.5 173.0 -785.5 114.5 -785.5 84.0 -752.5 52.5 -719.0 56.5 -658.5 L80.0 -295.0 Q82.0 -263.0 107.5 -244.5 133.0 -226.5 168.0 -226.5 205.0 -226.5 232.5 -243.5 261.0 -262.0 263.0 -295.0 L289.0 -659.5" fill-rule="evenodd" stroke="none"/>
    </g>
  </defs>
</svg>
