<?xml version="1.0" encoding="UTF-8" standalone="no"?>
<svg xmlns:xlink="http://www.w3.org/1999/xlink" height="39.05px" width="76.35px" xmlns="http://www.w3.org/2000/svg">
  <g transform="matrix(1.0, 0.0, 0.0, 1.0, -1.85, 0.0)">
    <g transform="matrix(1.0, 0.0, 0.0, 1.0, 0.0, 0.0)">
      <use fill="#ffff00" height="39.05" transform="matrix(0.0391, 0.0, 0.0, 0.0391, 0.0, 34.0)" width="76.35" xlink:href="#font______________0"/>
      <use fill="#ffff00" height="39.05" transform="matrix(0.0391, 0.0, 0.0, 0.0391, 39.6, 34.0)" width="76.35" xlink:href="#font______________1"/>
    </g>
  </g>
  <defs>
    <g id="font______________0">
      <path d="M867.5 -125.0 L867.5 -125.0 Q819.0 -124.0 791.5 -108.5 751.5 -90.0 751.5 -53.0 751.5 -47.0 762.0 -26.5 777.0 9.0 800.0 64.5 813.0 95.5 852.0 95.5 897.0 94.0 938.0 75.0 976.0 55.5 976.0 19.5 976.0 -11.0 932.0 -93.0 913.5 -122.0 867.5 -125.0 M647.0 -121.0 L647.0 -121.0 Q599.0 -120.0 571.5 -105.5 531.5 -86.0 531.5 -49.0 531.5 -43.0 538.5 -23.5 549.0 12.5 564.5 65.5 573.5 95.5 600.0 95.5 646.0 94.0 689.0 74.0 728.0 53.5 728.0 15.5 728.0 -13.5 695.5 -91.0 682.0 -119.0 647.0 -121.0 M431.0 -121.0 L431.0 -121.0 Q378.0 -120.0 348.0 -103.5 303.0 -82.0 303.0 -41.0 303.0 -36.0 310.5 -17.5 320.5 16.5 335.0 66.5 343.0 95.5 367.5 95.5 416.0 94.0 460.0 74.0 499.5 53.5 499.5 15.5 499.5 -13.5 472.0 -91.0 461.0 -119.0 431.0 -121.0 M300.0 -540.5 L300.0 -540.5 300.0 -613.5 340.0 -613.5 340.0 -540.5 300.0 -540.5 M300.0 -301.0 L300.0 -301.0 300.0 -372.5 340.0 -372.5 340.0 -301.0 300.0 -301.0 M499.5 -540.5 L499.5 -540.5 499.5 -613.5 535.5 -613.5 535.5 -540.5 499.5 -540.5 M499.5 -301.0 L499.5 -301.0 499.5 -372.5 535.5 -372.5 535.5 -301.0 499.5 -301.0 M695.5 -540.5 L695.5 -540.5 695.5 -613.5 732.0 -613.5 732.0 -540.5 695.5 -540.5 M695.5 -301.0 L695.5 -301.0 695.5 -372.5 732.0 -372.5 732.0 -301.0 695.5 -301.0 M235.5 -845.0 L235.5 -845.0 Q210.0 -840.5 195.5 -821.0 148.5 -757.5 90.0 -698.5 65.5 -666.5 63.5 -645.0 63.5 -616.5 104.5 -592.0 123.0 -579.5 139.5 -572.5 L139.5 -540.5 120.0 -540.5 Q83.0 -540.5 67.5 -525.5 47.0 -507.0 47.0 -456.5 47.0 -409.5 67.5 -392.0 87.0 -372.5 120.0 -372.5 L139.5 -372.5 139.5 -301.0 135.0 -301.0 Q98.5 -301.0 84.0 -284.5 63.5 -267.0 63.5 -217.0 63.5 -170.0 84.0 -152.5 99.5 -137.0 124.0 -134.0 105.5 -125.0 95.5 -105.5 83.0 -67.5 58.5 -13.5 47.0 11.5 47.0 26.5 47.0 58.5 86.0 77.0 125.0 101.5 164.0 103.5 202.0 102.5 223.5 70.5 246.0 42.0 265.0 -31.5 271.5 -64.5 271.5 -77.0 271.5 -109.5 245.0 -122.0 232.5 -129.0 218.0 -133.0 L888.0 -133.0 Q930.0 -133.0 948.5 -158.5 959.5 -175.0 959.5 -217.0 959.5 -269.5 941.0 -283.5 924.5 -300.0 892.0 -301.0 L892.0 -372.5 904.0 -372.5 Q946.0 -372.5 964.5 -399.5 976.0 -414.5 976.0 -456.5 976.0 -509.0 956.5 -523.0 940.0 -540.5 904.0 -540.5 L892.0 -540.5 892.0 -613.5 Q924.5 -616.5 939.0 -636.0 951.5 -655.5 951.5 -697.5 951.5 -744.5 936.0 -763.0 921.5 -781.5 879.5 -781.5 L359.5 -781.5 Q355.5 -805.0 316.5 -823.5 269.5 -843.5 235.5 -845.0" fill-rule="evenodd" stroke="none"/>
    </g>
    <g id="font______________1">
      <path d="M407.5 -349.0 L407.5 -349.0 451.5 -349.0 Q496.5 -349.0 516.0 -376.0 518.0 -380.0 520.0 -384.0 563.0 -355.5 595.0 -330.5 610.5 -320.5 627.5 -320.5 655.5 -320.5 691.0 -360.5 719.0 -394.0 720.0 -429.0 719.0 -464.0 691.0 -485.5 649.0 -518.0 607.5 -543.5 584.5 -556.0 563.0 -557.0 527.5 -555.0 498.5 -517.0 497.5 -516.0 496.5 -515.0 480.5 -525.5 451.5 -525.5 L407.5 -525.5 407.5 -565.0 Q410.5 -563.0 415.0 -561.0 444.5 -542.5 475.0 -540.5 504.0 -541.5 519.0 -565.0 533.5 -587.5 547.0 -629.5 550.0 -626.5 555.0 -623.5 614.5 -586.5 655.5 -556.0 673.0 -544.5 691.0 -544.5 708.5 -544.5 728.0 -559.0 L728.0 -322.5 583.5 -297.0 Q552.0 -295.0 534.5 -273.5 526.5 -265.0 521.0 -252.0 501.0 -285.5 474.0 -315.5 456.5 -333.0 435.0 -333.0 421.0 -333.0 407.5 -330.5 L407.5 -349.0 M168.0 -789.5 L168.0 -789.5 Q122.0 -787.5 97.5 -775.0 59.5 -757.5 59.5 -725.0 59.5 -718.0 67.5 -693.0 80.0 -649.0 98.5 -582.5 108.5 -544.5 139.5 -544.5 175.0 -546.0 207.0 -561.0 216.0 -566.0 223.5 -573.5 L223.5 -525.5 139.5 -525.5 Q100.5 -525.5 85.0 -508.0 63.5 -489.5 63.5 -437.0 63.5 -387.0 85.0 -369.5 105.5 -349.0 139.5 -349.0 L181.5 -349.0 Q108.5 -251.0 47.0 -199.5 23.5 -179.0 23.5 -141.5 26.5 -110.5 50.0 -86.0 92.0 -45.0 139.5 -45.0 165.0 -45.0 208.0 -102.5 215.0 -112.5 223.5 -124.0 L223.5 15.5 Q223.5 45.0 245.0 64.5 269.5 91.0 315.5 91.0 367.5 91.0 390.0 64.5 407.5 45.0 407.5 15.5 L407.5 -114.5 Q408.5 -111.5 410.5 -108.5 422.0 -89.0 443.5 -89.0 483.5 -89.0 518.0 -115.5 525.5 -121.0 531.5 -128.0 531.5 -127.0 532.5 -127.0 554.0 -99.5 600.0 -97.0 L728.0 -121.0 728.0 11.5 Q728.0 43.0 749.5 63.5 775.0 91.0 823.5 91.0 877.5 91.0 901.0 63.5 919.5 42.0 919.5 11.5 L919.5 -155.5 Q950.5 -162.0 970.0 -184.5 988.0 -209.0 988.0 -253.0 988.0 -299.0 965.5 -326.5 948.5 -346.0 919.5 -351.0 L919.5 -749.5 Q919.5 -787.5 893.0 -808.0 867.5 -829.5 823.5 -829.5 777.0 -829.5 755.5 -808.0 728.0 -787.5 728.0 -749.5 L728.0 -734.0 Q694.5 -756.5 660.5 -775.0 636.0 -787.5 611.5 -789.5 583.5 -787.5 561.0 -766.0 556.0 -773.0 546.0 -778.0 516.0 -793.5 475.0 -793.5 438.5 -793.5 424.0 -761.0 418.0 -734.0 407.5 -700.5 L407.5 -752.5 Q407.5 -789.5 382.0 -809.0 357.5 -829.5 315.5 -829.5 271.5 -829.5 250.0 -809.0 223.5 -789.5 223.5 -752.5 L223.5 -685.0 Q217.0 -712.5 208.0 -748.5 196.5 -785.5 168.0 -789.5" fill-rule="evenodd" stroke="none"/>
    </g>
  </defs>
</svg>
