<?xml version="1.0" encoding="UTF-8" standalone="no"?>
<svg xmlns:xlink="http://www.w3.org/1999/xlink" height="14.9px" width="63.45px" xmlns="http://www.w3.org/2000/svg">
  <g transform="matrix(1.0, 0.0, 0.0, 1.0, -18.15, 1.65)">
    <g transform="matrix(1.0, 0.0, 0.0, 1.0, 0.0, 0.0)">
      <use fill="#999999" height="14.9" transform="matrix(0.0127, 0.0, 0.0, 0.0127, 18.0, 11.0)" width="63.45" xlink:href="#font______________0"/>
      <use fill="#999999" height="14.9" transform="matrix(0.0127, 0.0, 0.0, 0.0127, 31.0, 11.0)" width="63.45" xlink:href="#font______________1"/>
      <use fill="#999999" height="14.9" transform="matrix(0.0127, 0.0, 0.0, 0.0127, 44.0, 11.0)" width="63.45" xlink:href="#font______________2"/>
      <use fill="#999999" height="14.9" transform="matrix(0.0127, 0.0, 0.0, 0.0127, 57.0, 11.0)" width="63.45" xlink:href="#font______________1"/>
      <use fill="#999999" height="14.9" transform="matrix(0.0127, 0.0, 0.0, 0.0127, 70.0, 11.0)" width="63.45" xlink:href="#font______________3"/>
    </g>
  </g>
  <defs>
    <g id="font______________0">
      <path d="M447.5 -781.5 L447.5 -781.5 Q415.0 -781.5 399.5 -765.0 384.0 -750.5 384.0 -708.5 384.0 -666.5 399.5 -651.0 416.0 -633.0 447.5 -633.0 L560.0 -633.0 560.0 -613.5 468.0 -613.5 Q436.5 -613.5 422.0 -598.0 407.5 -584.5 407.5 -544.5 407.5 -505.0 422.0 -489.5 437.5 -473.0 468.0 -473.0 L879.5 -473.0 Q913.5 -473.0 929.0 -495.5 940.0 -512.0 940.0 -544.5 940.0 -584.5 927.0 -598.0 912.5 -613.5 879.5 -613.5 L772.0 -613.5 772.0 -633.0 907.5 -633.0 Q943.0 -633.0 960.5 -657.5 972.0 -674.0 972.0 -708.5 972.0 -751.5 958.5 -765.0 943.0 -781.5 907.5 -781.5 L765.0 -781.5 Q759.0 -800.5 746.5 -813.0 726.0 -837.5 663.5 -837.5 605.0 -837.5 583.5 -812.0 571.5 -800.5 566.5 -781.5 L447.5 -781.5 M215.0 -45.0 L215.0 -45.0 Q195.5 -45.0 195.5 -64.5 L195.5 -101.5 Q195.5 -121.0 215.0 -121.0 L219.0 -121.0 Q239.5 -121.0 239.5 -101.5 L239.5 -64.5 Q239.5 -45.0 219.0 -45.0 L215.0 -45.0 M131.0 -253.0 L131.0 -253.0 Q55.5 -253.0 55.5 -177.0 L55.5 11.5 Q55.5 87.0 131.0 87.0 L303.0 87.0 Q366.5 87.0 377.0 35.0 383.0 45.0 393.0 54.5 430.0 93.0 479.5 95.5 495.5 95.5 521.0 75.0 560.0 44.0 590.0 -8.0 620.5 -62.5 633.0 -140.5 640.0 -181.0 640.0 -209.0 640.0 -243.5 620.5 -256.0 598.0 -275.5 556.0 -277.5 549.0 -276.5 544.0 -276.5 L544.0 -297.0 Q544.0 -317.5 563.0 -317.5 L779.5 -317.5 Q804.0 -317.5 804.0 -297.0 L804.0 -248.0 Q799.0 -254.0 792.5 -258.0 770.0 -273.5 735.5 -273.5 695.5 -273.5 676.0 -258.0 655.5 -237.5 655.5 -213.0 L655.5 -24.5 Q655.5 36.0 680.0 60.5 708.5 91.0 772.0 91.0 L848.0 91.0 Q930.0 83.0 959.5 34.0 988.0 -13.5 988.0 -85.0 986.0 -113.5 968.5 -129.0 946.0 -143.5 915.5 -145.5 870.5 -141.5 860.0 -116.5 855.0 -93.0 849.0 -84.0 843.0 -72.5 831.5 -72.5 L827.5 -72.5 Q816.0 -72.5 816.0 -85.0 L816.0 -207.0 Q817.0 -206.0 818.0 -203.5 839.5 -189.5 888.0 -189.5 928.0 -189.5 949.5 -205.0 972.0 -218.0 972.0 -253.0 L972.0 -324.5 Q972.0 -452.5 875.5 -452.5 L472.0 -452.5 Q376.0 -452.5 376.0 -324.5 L376.0 -249.0 Q376.0 -218.0 397.5 -200.5 417.0 -185.5 460.0 -185.5 470.0 -185.5 479.5 -185.5 472.0 -142.5 460.0 -115.5 441.5 -79.0 395.5 -53.0 387.0 -48.0 380.0 -41.0 L380.0 -177.0 Q380.0 -253.0 303.0 -253.0 L131.0 -253.0 M120.0 -389.0 L120.0 -389.0 Q92.0 -389.0 80.0 -377.0 67.5 -365.5 67.5 -333.0 67.5 -299.0 80.0 -286.5 93.0 -273.5 120.0 -273.5 L315.5 -273.5 Q344.0 -273.5 358.5 -292.0 367.5 -305.0 367.5 -333.0 367.5 -365.5 356.5 -377.0 344.0 -389.0 315.5 -389.0 L120.0 -389.0 M120.0 -525.5 L120.0 -525.5 Q92.0 -525.5 80.0 -513.0 67.5 -501.5 67.5 -469.0 67.5 -435.0 80.0 -423.0 93.0 -408.5 120.0 -408.5 L319.5 -408.5 Q348.0 -408.5 362.5 -428.0 371.5 -441.5 371.5 -469.0 371.5 -501.5 360.5 -513.0 348.0 -525.5 319.5 -525.5 L120.0 -525.5 M107.5 -677.0 L107.5 -677.0 Q78.0 -677.0 64.5 -662.5 51.0 -650.0 51.0 -613.5 51.0 -575.5 64.5 -561.0 80.0 -544.5 107.5 -544.5 L336.0 -544.5 Q366.5 -544.5 381.0 -567.5 391.0 -581.5 391.0 -613.5 391.0 -650.0 379.0 -662.5 365.5 -677.0 336.0 -677.0 L107.5 -677.0 M124.0 -817.0 L124.0 -817.0 Q97.5 -817.0 86.0 -806.0 71.5 -792.5 71.5 -756.5 71.5 -723.0 86.0 -710.5 100.5 -697.5 124.0 -697.5 L323.5 -697.5 Q354.5 -697.5 367.5 -715.5 376.0 -727.0 376.0 -756.5 376.0 -794.5 361.5 -805.0 349.0 -817.0 323.5 -817.0 L124.0 -817.0" fill-rule="evenodd" stroke="none"/>
    </g>
    <g id="font______________1">
      <path d="M338.0 -288.5 L338.0 -288.5 Q328.5 -267.0 294.0 -219.0 258.0 -172.0 241.5 -164.0 239.5 -162.0 236.5 -162.0 226.5 -162.0 217.0 -172.0 208.0 -181.0 208.0 -195.5 208.0 -213.0 220.0 -229.5 265.0 -292.0 315.5 -292.0 326.5 -292.0 338.0 -288.5 M998.5 -234.5 L998.5 -234.5 Q998.5 -301.0 892.0 -343.0 907.5 -412.5 907.5 -471.0 907.5 -575.5 802.0 -575.5 762.0 -575.5 732.0 -555.0 701.5 -534.5 700.5 -500.5 700.5 -461.0 692.5 -412.5 627.5 -436.0 600.0 -442.5 636.0 -542.5 657.5 -632.0 663.5 -653.5 663.5 -674.0 663.5 -727.0 630.0 -761.0 596.0 -794.5 547.0 -791.5 290.0 -771.0 243.5 -770.0 205.0 -769.0 182.5 -742.5 161.0 -715.5 161.0 -680.0 161.0 -639.0 184.5 -611.5 212.0 -579.5 259.0 -581.5 381.0 -594.0 441.5 -601.0 407.5 -489.5 400.5 -473.0 237.5 -473.0 151.5 -414.5 24.5 -325.5 27.5 -176.0 28.5 -105.5 76.0 -52.0 129.0 7.0 216.0 7.0 331.0 7.0 413.5 -77.0 463.0 -127.0 533.5 -253.0 592.0 -236.5 648.0 -208.0 622.5 -149.5 536.5 -66.5 505.0 -36.0 505.0 -8.0 505.0 35.0 539.5 65.5 574.5 97.5 623.5 97.5 662.5 97.5 694.5 71.5 780.5 2.0 847.0 -136.0 878.5 -117.5 904.0 -117.5 944.0 -117.5 973.0 -157.5 998.5 -193.5 998.5 -234.5" fill-rule="evenodd" stroke="none"/>
    </g>
    <g id="font______________2">
      <path d="M472.0 -805.0 L472.0 -805.0 Q431.0 -805.0 416.0 -783.5 393.0 -759.0 391.0 -712.5 393.0 -670.5 411.5 -648.0 431.0 -621.5 472.0 -621.5 L529.5 -621.5 Q506.0 -528.5 481.5 -472.0 455.5 -407.5 386.0 -296.0 371.5 -274.5 371.5 -253.0 371.5 -209.0 403.5 -183.5 448.5 -145.5 487.5 -145.5 531.5 -148.5 567.5 -185.5 608.5 -253.0 648.0 -368.5 662.5 -414.5 674.0 -459.5 688.0 -408.5 706.5 -362.5 762.0 -240.5 819.0 -177.0 848.0 -147.5 871.5 -145.5 922.5 -146.5 962.5 -188.5 994.5 -222.0 995.5 -269.5 995.5 -298.0 967.5 -324.5 903.0 -400.5 870.5 -483.5 839.5 -561.0 823.5 -701.5 808.0 -805.0 688.0 -805.0 L472.0 -805.0 M124.0 -493.5 L124.0 -493.5 Q84.0 -493.5 66.5 -472.0 47.0 -447.5 47.0 -401.5 47.0 -352.0 64.5 -335.0 80.0 -309.0 124.0 -309.0 L147.5 -309.0 Q164.0 -309.0 164.0 -288.5 L164.0 -196.5 Q164.0 -182.0 148.5 -168.0 107.5 -127.0 68.5 -91.0 43.0 -63.5 43.0 -37.0 43.0 9.0 71.5 43.0 115.5 91.0 164.0 91.0 200.5 91.0 259.0 21.5 269.5 7.0 275.5 7.0 285.5 7.0 295.0 21.5 377.0 79.0 572.5 79.0 L875.5 79.0 Q943.0 79.0 970.0 44.0 995.5 13.5 995.5 -49.0 995.5 -82.0 973.0 -105.5 955.5 -125.0 928.0 -125.0 860.0 -125.0 764.0 -119.0 654.5 -112.5 525.5 -112.5 437.5 -112.5 387.0 -139.0 355.5 -153.5 355.5 -189.5 L355.5 -372.5 Q355.5 -493.5 231.5 -493.5 L124.0 -493.5 M199.5 -813.0 L199.5 -813.0 Q157.5 -813.0 115.5 -792.5 71.5 -767.0 71.5 -733.0 75.0 -721.0 87.0 -696.5 108.5 -653.5 140.5 -589.0 156.5 -546.0 195.5 -540.5 242.5 -540.5 290.0 -570.5 332.0 -592.0 332.0 -633.0 332.0 -687.0 278.5 -768.0 247.0 -813.0 199.5 -813.0" fill-rule="evenodd" stroke="none"/>
    </g>
    <g id="font______________3">
      <path d="M303.0 -313.5 L303.0 -313.5 Q279.5 -313.5 279.5 -337.0 L279.5 -489.5 Q279.5 -513.0 303.0 -513.0 L399.5 -513.0 399.5 -313.5 303.0 -313.5 M623.5 -313.5 L623.5 -313.5 623.5 -513.0 728.0 -513.0 Q751.5 -513.0 751.5 -489.5 L751.5 -337.0 Q751.5 -313.5 728.0 -313.5 L623.5 -313.5 M215.0 -697.5 L215.0 -697.5 Q71.5 -697.5 71.5 -553.0 L71.5 -273.5 Q71.5 -129.0 215.0 -129.0 L399.5 -129.0 399.5 7.0 Q399.5 44.0 425.0 67.5 454.5 99.5 512.0 99.5 574.5 99.5 602.0 67.5 623.5 43.0 623.5 7.0 L623.5 -129.0 808.0 -129.0 Q951.5 -129.0 951.5 -273.5 L951.5 -553.0 Q951.5 -697.5 808.0 -697.5 L623.5 -697.5 623.5 -745.5 Q623.5 -788.5 592.0 -812.0 562.0 -837.5 512.0 -837.5 458.0 -837.5 432.0 -812.0 399.5 -788.5 399.5 -745.5 L399.5 -697.5 215.0 -697.5" fill-rule="evenodd" stroke="none"/>
    </g>
  </defs>
</svg>
