<?xml version="1.0" encoding="UTF-8" standalone="no"?>
<svg xmlns:xlink="http://www.w3.org/1999/xlink" height="10.85px" width="38.2px" xmlns="http://www.w3.org/2000/svg">
  <g transform="matrix(1.0, 0.0, 0.0, 1.0, -0.05, -0.15)">
    <g transform="matrix(1.0, 0.0, 0.0, 1.0, 0.0, 0.0)">
      <use fill="#d8c785" height="10.85" transform="matrix(0.0107, 0.0, 0.0, 0.0107, 0.0, 10.0)" width="38.2" xlink:href="#font_Arial_Narrow_W0"/>
      <use fill="#d8c785" height="10.85" transform="matrix(0.0107, 0.0, 0.0, 0.0107, 7.95, 10.0)" width="38.2" xlink:href="#font_Arial_Narrow_A0"/>
      <use fill="#d8c785" height="10.85" transform="matrix(0.0107, 0.0, 0.0, 0.0107, 14.4, 10.0)" width="38.2" xlink:href="#font_Arial_Narrow_N0"/>
      <use fill="#d8c785" height="10.85" transform="matrix(0.0107, 0.0, 0.0, 0.0107, 20.8, 10.0)" width="38.2" xlink:href="#font_Arial_Narrow_T0"/>
      <use fill="#d8c785" height="10.85" transform="matrix(0.0107, 0.0, 0.0, 0.0107, 26.2, 10.0)" width="38.2" xlink:href="#font_Arial_Narrow_E0"/>
      <use fill="#d8c785" height="10.85" transform="matrix(0.0107, 0.0, 0.0, 0.0107, 32.15, 10.0)" width="38.2" xlink:href="#font_Arial_Narrow_D0"/>
    </g>
  </g>
  <defs>
    <g id="font_Arial_Narrow_W0">
      <path d="M282.5 0.0 L282.5 0.0 398.0 -549.0 515.5 0.0 654.0 0.0 792.0 -732.0 666.0 -732.0 578.0 -218.5 472.0 -732.0 324.5 -732.0 218.0 -226.5 130.0 -732.0 4.0 -732.0 144.0 0.0 282.5 0.0" fill-rule="evenodd" stroke="none"/>
    </g>
    <g id="font_Arial_Narrow_A0">
      <path d="M218.5 -288.0 L218.5 -288.0 302.0 -560.5 385.5 -288.0 218.5 -288.0 M367.0 -732.0 L367.0 -732.0 237.0 -732.0 0.0 0.0 130.0 0.0 180.5 -164.0 423.5 -164.0 474.0 0.0 604.0 0.0 367.0 -732.0" fill-rule="evenodd" stroke="none"/>
    </g>
    <g id="font_Arial_Narrow_N0">
      <path d="M180.0 0.0 L180.0 0.0 180.0 -477.5 419.0 0.0 544.0 0.0 544.0 -732.0 428.0 -732.0 428.0 -243.0 185.0 -732.0 64.0 -732.0 64.0 0.0 180.0 0.0" fill-rule="evenodd" stroke="none"/>
    </g>
    <g id="font_Arial_Narrow_T0">
      <path d="M316.0 0.0 L316.0 0.0 316.0 -608.0 492.0 -608.0 492.0 -732.0 20.0 -732.0 20.0 -608.0 196.0 -608.0 196.0 0.0 316.0 0.0" fill-rule="evenodd" stroke="none"/>
    </g>
    <g id="font_Arial_Narrow_E0">
      <path d="M520.0 0.0 L520.0 0.0 520.0 -124.0 184.0 -124.0 184.0 -324.0 488.0 -324.0 488.0 -448.0 184.0 -448.0 184.0 -608.0 508.0 -608.0 508.0 -732.0 64.0 -732.0 64.0 0.0 520.0 0.0" fill-rule="evenodd" stroke="none"/>
    </g>
    <g id="font_Arial_Narrow_D0">
      <path d="M239.5 -608.0 L239.5 -608.0 Q313.5 -608.0 339.0 -601.5 373.5 -593.0 397.5 -566.0 421.5 -539.0 432.5 -492.5 444.0 -445.5 444.0 -364.0 444.0 -286.0 433.0 -238.0 422.0 -190.5 405.0 -168.0 388.0 -146.0 361.5 -135.0 335.0 -124.0 276.0 -124.0 L184.0 -124.0 184.0 -608.0 239.5 -608.0 M64.0 0.0 L64.0 0.0 292.0 0.0 Q365.5 0.0 412.5 -20.5 459.0 -41.5 492.0 -82.5 525.0 -123.5 546.5 -193.5 568.0 -263.5 568.0 -358.5 568.0 -464.0 547.5 -535.0 527.0 -605.5 491.0 -650.0 455.0 -694.5 412.5 -713.5 369.5 -732.0 285.5 -732.0 L64.0 -732.0 64.0 0.0" fill-rule="evenodd" stroke="none"/>
    </g>
  </defs>
</svg>
