<?xml version="1.0" encoding="UTF-8" standalone="no"?>
<svg xmlns:xlink="http://www.w3.org/1999/xlink" height="25.0px" width="41.0px" xmlns="http://www.w3.org/2000/svg">
  <g transform="matrix(1.0, 0.0, 0.0, 1.0, 2.0, 2.0)">
    <g transform="matrix(1.0, 0.0, 0.0, 1.0, -2.0, -2.0)">
      <use fill="#ffffff" height="25.0" transform="matrix(0.0166, 0.0, 0.0, 0.0166, 14.8, 12.45)" width="41.0" xlink:href="#font_HelveticaRounded_LT_Std_Blk_00"/>
    </g>
  </g>
  <defs>
    <g id="font_HelveticaRounded_LT_Std_Blk_00">
      <path d="M40.0 -361.0 L40.0 -361.0 Q42.5 -160.0 125.5 -73.0 208.5 14.0 342.0 12.0 475.5 14.0 558.5 -73.0 641.5 -160.0 644.0 -361.0 643.5 -532.0 567.0 -629.0 490.0 -726.0 342.0 -728.0 194.0 -726.0 117.0 -629.0 40.5 -532.0 40.0 -361.0 L40.0 -361.0 M432.0 -358.0 L432.0 -358.0 Q432.0 -232.5 408.5 -188.5 385.5 -145.0 342.0 -148.0 298.5 -145.0 275.0 -188.5 252.0 -232.5 252.0 -358.0 248.0 -571.0 342.0 -568.0 435.5 -571.0 432.0 -358.0 L432.0 -358.0" fill-rule="evenodd" stroke="none"/>
    </g>
  </defs>
</svg>
