<?xml version="1.0" encoding="UTF-8" standalone="no"?>
<svg xmlns:xlink="http://www.w3.org/1999/xlink" height="89.9px" width="64.1px" xmlns="http://www.w3.org/2000/svg">
  <g transform="matrix(1.0, 0.0, 0.0, 1.0, 16.6, 20.25)">
    <use data-characterId="263" height="46.75" transform="matrix(1.0, 0.0, 0.0, 1.0, 0.0, 0.0)" width="30.05" xlink:href="#shape0"/>
    <clipPath id="clipPath0" transform="matrix(1.0, 0.0, 0.0, 1.0, 0.0, 0.0)">
      <path d="M30.05 0.0 L30.05 22.75 0.0 22.75 0.0 0.0 30.05 0.0 M18.65 3.55 L18.8 3.3 18.6 3.45 18.65 3.55" fill="#ff0000" fill-rule="evenodd" stroke="none"/>
    </clipPath>
    <g clip-path="url(#clipPath0)">
      <use data-characterId="265" height="18.35" transform="matrix(3.5829, 0.0, 0.0, 3.5831, -15.2029, -20.2439)" width="17.5" xlink:href="#shape2"/>
      <use data-characterId="272" height="27.2" transform="matrix(1.0, 0.0, 0.0, 1.0, -1.05, -2.65)" width="35.05" xlink:href="#shape3"/>
    </g>
    <clipPath id="clipPath1" transform="matrix(1.0, 0.0, 0.0, 1.0, 0.0, 0.0)">
      <path d="M0.0 26.45 L0.1 26.3 0.0 26.3 0.0 24.0 30.05 24.0 30.05 46.75 20.45 46.75 17.65 46.4 15.8 46.75 0.0 46.75 0.0 26.45" fill="#ff0000" fill-rule="evenodd" stroke="none"/>
    </clipPath>
    <g clip-path="url(#clipPath1)">
      <use data-characterId="265" height="18.35" transform="matrix(3.5829, 0.0, 0.0, 3.5831, -16.6029, 3.9061)" width="17.5" xlink:href="#shape2"/>
      <use data-characterId="273" height="29.55" transform="matrix(1.0, 0.0, 0.0, 1.0, -1.95, 20.55)" width="34.85" xlink:href="#shape5"/>
    </g>
    <use data-characterId="274" height="46.75" transform="matrix(1.0, 0.0, 0.0, 1.0, 0.0, 0.0)" width="30.05" xlink:href="#shape6"/>
  </g>
  <defs>
    <g id="shape0" transform="matrix(1.0, 0.0, 0.0, 1.0, 0.0, 0.0)">
      <path d="M30.05 22.75 L0.0 22.75 0.0 0.0 30.05 0.0 30.05 22.75 M18.65 3.55 L18.8 3.3 18.6 3.45 18.65 3.55" fill="#ff0000" fill-rule="evenodd" stroke="none"/>
      <path d="M0.0 26.45 L0.0 26.3 0.1 26.3 0.0 26.45" fill="#ffcc00" fill-rule="evenodd" stroke="none"/>
      <path d="M15.8 46.75 L17.65 46.4 20.45 46.75 15.8 46.75" fill="#159ad6" fill-rule="evenodd" stroke="none"/>
      <path d="M0.0 26.45 L0.1 26.3 0.0 26.3 0.0 24.0 30.05 24.0 30.05 46.75 20.45 46.75 17.65 46.4 15.8 46.75 0.0 46.75 0.0 26.45" fill="#ff0000" fill-rule="evenodd" stroke="none"/>
    </g>
    <g id="shape2" transform="matrix(1.0, 0.0, 0.0, 1.0, -6.0, -27.45)">
      <path d="M21.75 31.2 Q20.7 31.8 20.7 33.5 20.7 35.85 23.5 36.9 19.85 38.65 19.3 39.85 18.85 41.0 18.9 43.0 L18.35 42.35 Q17.45 41.6 15.9 41.6 14.5 41.6 12.7 43.35 11.0 44.95 10.9 45.8 10.75 45.7 10.75 45.3 L11.25 41.95 Q11.25 40.4 10.3 39.75 9.05 39.0 6.0 39.25 7.35 38.95 8.35 37.9 9.5 36.7 9.5 35.6 9.5 34.75 8.45 33.2 7.4 31.75 6.35 30.95 8.2 32.0 9.25 32.0 11.05 32.0 11.45 30.4 L11.6 28.15 12.0 28.6 Q12.55 29.0 14.15 29.0 16.1 29.0 17.2 27.6 L17.4 27.45 Q16.85 28.4 16.85 28.95 16.85 31.25 20.55 31.3 L21.75 31.2" fill="#ffcc00" fill-rule="evenodd" stroke="none"/>
    </g>
    <g id="shape3" transform="matrix(1.0, 0.0, 0.0, 1.0, 1.05, 2.65)">
      <path d="M7.7 -1.55 L8.1 -0.25 Q8.1 0.4 6.55 0.95 4.2 0.95 4.25 -0.85 4.25 -2.65 6.65 -2.65 7.15 -2.65 7.7 -1.55 M20.4 1.6 Q20.4 -0.7 23.8 -0.55 L24.05 0.85 Q24.05 3.6 21.75 3.6 20.7 3.6 20.45 2.65 L20.4 1.6 M27.4 15.95 Q28.8 13.85 31.5 13.85 32.45 13.85 33.25 14.75 34.0 15.6 34.0 16.45 34.0 17.15 33.4 17.95 32.75 18.75 32.75 20.15 32.75 20.95 32.1 21.8 31.1 23.1 29.2 23.1 27.4 23.1 26.7 21.45 L26.35 19.65 Q26.35 17.55 27.4 15.95 M3.3 24.55 Q1.1 24.55 -0.1 23.2 -1.05 22.15 -1.05 21.0 -1.05 16.8 3.6 16.8 4.75 16.8 5.95 18.45 7.05 19.9 7.05 20.65 7.05 24.55 3.3 24.55 M11.45 4.25 Q13.05 4.25 12.95 7.5 12.95 8.35 11.9 9.0 10.8 9.65 9.45 9.65 7.35 9.65 7.35 7.85 7.35 4.25 11.45 4.25" fill="#ff0000" fill-rule="evenodd" stroke="none"/>
    </g>
    <g id="shape5" transform="matrix(1.0, 0.0, 0.0, 1.0, 0.55, 3.6)">
      <path d="M26.0 -0.8 Q27.3 0.45 27.3 0.95 27.3 2.1 26.5 3.6 25.5 5.45 24.15 5.45 20.2 5.45 20.2 1.6 20.2 0.4 21.6 -0.8 23.0 -2.0 24.4 -2.0 L26.0 -0.8 M8.4 -2.6 Q9.25 -1.7 9.25 -0.7 9.25 0.05 8.55 1.15 7.75 2.45 6.8 2.45 2.95 2.45 2.95 -0.5 2.95 -3.6 6.15 -3.6 7.4 -3.6 8.4 -2.6 M34.3 17.45 Q34.3 19.4 32.4 22.1 30.25 25.2 27.65 25.2 25.15 25.2 23.65 22.2 22.55 19.95 22.55 17.85 22.55 15.3 24.45 13.65 26.6 11.8 30.55 11.8 34.15 11.8 34.3 17.45 M14.85 8.3 Q14.85 9.95 13.7 11.3 12.25 12.95 9.8 12.95 6.7 12.95 5.6 9.4 5.6 5.15 12.4 5.15 14.55 5.15 14.85 8.3 M17.35 21.45 Q18.45 21.45 18.45 23.45 18.45 25.95 16.1 25.95 15.0 25.95 14.55 25.15 L14.35 24.25 Q14.35 21.45 17.35 21.45 M10.85 21.45 Q10.85 25.0 3.15 25.0 -0.9 25.0 -0.5 21.9 -0.5 15.4 5.3 15.4 8.95 15.4 10.85 21.45" fill="#ff0000" fill-rule="evenodd" stroke="none"/>
    </g>
    <g id="shape6" transform="matrix(1.0, 0.0, 0.0, 1.0, 0.0, 0.0)">
      <path d="M30.05 22.75 L0.0 22.75 0.0 0.0 30.05 0.0 30.05 22.75 M0.0 46.75 L0.0 24.0 30.05 24.0 30.05 46.75 0.0 46.75 M18.8 3.3 L18.6 3.45 18.65 3.55 18.8 3.3" fill="#000033" fill-opacity="0.3019608" fill-rule="evenodd" stroke="none"/>
    </g>
  </defs>
</svg>
