<?xml version="1.0" encoding="UTF-8" standalone="no"?>
<svg xmlns:xlink="http://www.w3.org/1999/xlink" height="138.3px" width="117.55px" xmlns="http://www.w3.org/2000/svg">
  <g transform="matrix(1.0, 0.0, 0.0, 1.0, -20.45, 23.15)">
    <use data-characterId="216" height="121.6" id="news_btn" transform="matrix(1.0, 0.0, 0.0, 1.0, 20.45, -6.45)" width="115.55" xlink:href="#button0"/>
  </g>
  <defs>
    <g id="button0" transform="matrix(1.0, 0.0, 0.0, 1.0, 3.2, 6.45)">
      <use data-characterId="210" height="115.15" transform="matrix(1.0, 0.0, 0.0, 1.0, 0.0, 0.0)" width="102.4" xlink:href="#shape0"/>
      <use data-characterId="211" height="63.1" transform="matrix(0.4389, 0.8969, -0.8969, 0.4389, 109.4174, 4.1394)" width="11.25" xlink:href="#shape1"/>
      <use data-characterId="212" height="9.35" transform="matrix(1.0, 0.0, 0.0, 1.0, 54.4, 32.9)" width="9.45" xlink:href="#shape2"/>
    </g>
    <g id="shape0" transform="matrix(1.0, 0.0, 0.0, 1.0, 0.0, 0.0)">
      <path d="M48.4 63.65 L65.05 61.75 Q64.3 63.45 63.55 67.9 62.85 72.3 62.25 78.25 L61.15 90.5 60.4 102.2 59.85 110.95 59.65 114.4 50.3 115.15 Q50.7 113.35 50.75 108.95 L50.55 98.75 49.95 86.9 49.3 75.5 48.65 67.0 48.4 63.65" fill="#a2360d" fill-rule="evenodd" stroke="none"/>
      <path d="M50.85 62.2 L62.25 60.8 Q61.75 62.5 61.25 66.85 L60.3 77.15 Q59.85 83.05 59.55 89.3 L58.85 100.9 58.5 109.55 58.3 112.95 53.1 112.65 Q53.4 110.9 53.3 106.6 L53.0 96.6 52.4 84.9 51.65 73.8 51.05 65.45 50.85 62.2" fill="#bd6e41" fill-rule="evenodd" stroke="none"/>
      <path d="M57.15 57.45 L63.05 57.1 Q62.05 60.55 61.35 65.95 L60.25 77.65 59.45 90.2 59.1 101.65 58.9 110.0 58.85 113.2 56.1 112.7 Q55.95 111.0 55.95 106.3 L56.05 95.45 56.4 82.65 56.75 70.35 57.05 61.1 57.15 57.45" fill="#ab4b1e" fill-rule="evenodd" stroke="none"/>
      <path d="M54.35 69.7 L53.4 68.75 52.45 62.15 64.25 61.15 60.1 76.25 57.55 79.1 Q57.25 75.4 56.25 73.1 55.25 70.75 54.35 69.7" fill="#ab4b1e" fill-rule="evenodd" stroke="none"/>
      <path d="M94.6 18.35 Q97.8 19.4 99.75 22.55 101.6 25.7 102.15 30.25 102.7 34.8 102.0 39.95 101.2 45.1 99.15 50.2 97.1 55.3 93.7 59.5 90.35 63.75 85.65 66.45 L81.0 66.95 68.5 67.75 59.65 68.15 51.35 68.5 45.15 68.75 42.75 68.85 27.55 60.0 21.3 0.15 Q24.15 -0.35 27.4 0.65 30.65 1.65 33.85 3.4 L39.6 7.1 43.85 10.3 45.45 11.65 48.75 13.15 Q52.1 14.5 58.4 16.15 64.7 17.8 73.85 18.6 82.95 19.4 94.6 18.35" fill="#ad0000" fill-rule="evenodd" stroke="none"/>
      <path d="M101.05 38.65 Q100.45 43.7 98.6 48.75 96.65 53.8 93.45 58.05 90.2 62.25 85.5 64.9 L42.0 64.85 25.0 58.15 45.65 12.85 Q46.45 13.35 50.55 14.9 54.75 16.4 61.45 18.0 68.1 19.6 76.45 20.25 L93.85 19.6 Q96.8 19.85 98.6 22.4 100.35 25.05 101.0 29.35 101.65 33.55 101.05 38.65" fill="#e47058" fill-rule="evenodd" stroke="none"/>
      <path d="M99.05 30.95 Q99.7 35.15 99.15 40.1 98.6 45.1 96.8 50.05 95.0 55.05 91.9 59.15 88.75 63.3 84.2 65.85 L79.85 66.2 68.0 66.8 59.8 67.1 51.6 67.45 45.2 67.75 42.7 67.85 24.6 58.5 35.95 7.6 37.95 9.3 Q40.0 10.95 44.3 13.25 48.55 15.6 55.15 17.8 61.8 19.9 71.0 21.1 80.15 22.15 92.0 21.35 94.8 21.55 96.55 24.15 98.35 26.75 99.05 30.95" fill="#c11614" fill-rule="evenodd" stroke="none"/>
      <path d="M90.5 46.4 L95.9 42.7 Q97.9 41.15 98.45 40.95 97.4 46.55 95.75 50.5 94.1 54.45 92.4 56.95 90.7 59.45 89.6 60.55 L88.4 61.75 85.55 62.0 78.35 62.7 68.7 63.6 58.65 64.4 50.1 64.9 Q46.4 65.1 44.95 64.85 43.3 64.6 41.65 63.0 39.95 61.4 38.45 59.2 L35.75 54.8 33.8 51.15 33.1 49.7 Q44.3 52.9 53.4 53.65 62.45 54.35 69.55 53.35 76.6 52.4 81.8 50.45 86.95 48.55 90.5 46.4" fill="#b00b0b" fill-rule="evenodd" stroke="none"/>
      <path d="M45.4 22.2 Q46.8 26.65 46.95 32.55 47.15 38.55 46.5 44.9 L45.1 56.65 43.5 65.45 42.8 68.9 40.65 67.95 35.0 65.95 Q31.4 64.8 26.9 63.95 L21.9 63.0 19.65 62.5 19.1 62.3 19.15 62.3 17.45 59.25 13.55 51.3 Q11.3 46.4 9.3 40.5 7.35 34.55 6.6 28.6 5.9 22.6 7.35 17.55 8.4 14.1 10.75 10.85 13.05 7.6 16.3 5.25 19.5 2.9 23.25 2.1 27.0 1.4 30.9 2.95 34.85 4.55 38.55 9.2 42.3 13.85 45.4 22.2" fill="#ad0000" fill-rule="evenodd" stroke="none"/>
      <path d="M43.5 22.55 Q44.85 27.2 45.1 33.0 45.3 38.8 44.8 44.75 44.4 50.75 43.6 55.75 L42.25 63.85 41.65 67.0 40.1 66.45 36.3 65.2 31.35 63.65 26.35 62.5 21.9 61.55 Q20.5 61.2 20.2 60.95 L19.85 60.8 18.4 58.15 14.9 51.25 Q12.9 46.9 10.95 41.6 9.1 36.35 8.1 30.95 14.85 24.8 23.2 20.95 31.5 17.05 40.6 15.45 42.2 18.55 43.5 22.55" fill="#e47058" fill-rule="evenodd" stroke="none"/>
      <path d="M41.65 23.25 Q42.9 27.55 43.15 33.0 43.35 38.5 42.9 44.05 L41.7 54.35 40.45 61.95 39.85 64.9 37.75 64.0 32.4 62.2 Q29.2 61.15 25.3 60.45 L20.35 59.45 19.1 59.1 19.25 59.05 17.65 56.25 13.95 49.1 Q11.85 44.65 10.0 39.35 8.2 34.05 7.45 28.8 6.8 23.5 8.15 19.15 9.55 14.8 12.45 11.4 15.35 8.0 19.1 6.3 22.85 4.6 27.0 5.4 31.05 6.3 34.85 10.55 38.7 14.75 41.65 23.25" fill="#d72019" fill-rule="evenodd" stroke="none"/>
      <path d="M38.35 38.5 L37.95 39.8 Q33.2 38.0 28.95 37.35 L21.2 36.8 15.75 37.15 13.7 37.5 Q13.15 37.15 12.85 36.1 12.5 35.0 12.3 33.75 L12.0 31.5 11.95 30.5 Q17.4 28.35 22.25 28.2 L30.8 28.9 Q34.5 29.8 36.65 30.8 L38.75 31.85 Q39.15 33.65 38.95 35.45 L38.35 38.5" fill="#ad0000" fill-rule="evenodd" stroke="none"/>
      <path d="M33.55 6.25 Q37.35 9.2 40.6 15.5 L32.1 14.7 Q27.6 14.7 23.1 16.1 18.6 17.6 14.7 21.1 10.8 24.7 8.1 31.0 7.5 27.55 7.5 24.3 7.5 21.1 8.4 18.3 9.75 14.05 12.45 10.65 15.1 7.2 18.55 5.2 22.05 3.2 25.9 3.3 29.75 3.4 33.55 6.25" fill="#c11614" fill-rule="evenodd" stroke="none"/>
      <path d="M21.65 2.9 Q17.4 3.95 14.65 6.65 11.9 9.4 10.25 12.85 8.65 16.3 7.85 19.6 7.15 22.9 6.95 25.05 L6.75 27.3 3.0 29.0 Q2.7 25.75 2.65 22.35 2.65 19.0 3.45 15.7 4.3 12.4 6.65 9.3 9.05 6.2 13.5 3.45 17.15 1.3 19.8 0.9 L24.05 1.0 22.5 3.05 21.65 2.9" fill="#ad0000" fill-rule="evenodd" stroke="none"/>
      <path d="M28.65 2.8 L16.25 2.5 Q11.8 4.1 9.1 7.25 6.45 10.3 5.1 14.05 3.8 17.75 3.35 21.15 2.9 24.55 2.95 26.75 L3.0 29.05 0.0 27.5 Q0.35 20.7 2.15 15.9 3.95 11.15 6.4 8.15 8.75 5.2 10.65 3.8 L13.25 2.15 15.45 1.25 Q16.95 0.65 19.0 0.25 L23.5 0.4 Q26.0 0.9 28.65 2.8" fill="#ad0000" fill-rule="evenodd" stroke="none"/>
      <path d="M21.8 2.8 Q17.75 3.7 15.0 6.4 12.25 9.1 10.6 12.5 8.9 15.95 8.05 19.25 7.15 22.5 6.9 24.65 L6.6 26.9 2.75 28.25 Q2.4 24.05 2.85 19.65 3.35 15.2 5.9 11.05 8.45 6.8 14.05 3.35 17.55 1.25 20.0 0.9 L24.1 1.0 22.6 2.95 21.8 2.8" fill="#ad0000" fill-rule="evenodd" stroke="none"/>
      <path d="M87.5 65.1 L86.1 66.1 41.6 69.5 Q42.2 68.75 42.65 67.2 L43.45 63.95 43.95 61.1 44.15 59.9 Q45.05 60.9 48.85 61.35 L58.15 61.9 69.5 61.75 80.55 61.4 89.0 60.95 92.35 60.7 90.25 62.9 87.5 65.1" fill="#d72019" fill-rule="evenodd" stroke="none"/>
      <path d="M87.5 65.1 L86.1 66.1 41.6 69.5 Q42.2 68.75 42.65 67.2 L43.45 63.95 43.95 61.1 44.15 59.9 Q49.85 61.2 56.4 61.7 L69.25 62.1 80.8 61.7 89.15 61.05 92.35 60.7 90.25 62.9 87.5 65.1" fill="#c75409" fill-rule="evenodd" stroke="none"/>
      <path d="M90.2 61.55 L88.6 63.3 86.6 64.85 85.65 65.5 43.2 68.45 43.95 65.6 44.5 62.55 44.7 61.2 Q54.25 62.7 62.5 62.95 70.7 63.25 76.95 62.9 L86.6 62.0 90.2 61.55" fill="#c65b21" fill-rule="evenodd" stroke="none"/>
      <path d="M46.0 14.1 L44.8 13.5 42.05 12.0 39.15 10.0 36.15 7.15 Q34.3 5.35 31.95 3.85 29.65 2.4 27.3 2.5 L27.7 2.35 29.2 2.3 Q30.25 2.45 32.25 3.3 34.25 4.3 36.75 6.3 L41.65 10.35 Q44.05 12.3 45.75 12.9 L46.0 14.1" fill="#e47058" fill-rule="evenodd" stroke="none"/>
      <path d="M49.85 62.0 L49.95 62.1 48.25 62.0 Q47.15 62.05 46.2 62.55 45.3 63.05 45.2 64.1 L44.65 66.05 43.7 67.7 43.4 68.15 43.9 66.45 44.45 63.45 44.7 61.7 45.05 61.35 45.4 61.3 48.75 61.75 49.85 62.0" fill="#e8ae82" fill-rule="evenodd" stroke="none"/>
      <path d="M73.3 25.55 L66.1 24.8 56.05 25.1 Q50.5 25.8 44.6 28.0 L46.25 25.55 48.85 24.8 Q51.35 24.1 55.65 23.55 59.95 23.0 65.2 23.4 70.5 23.85 76.05 26.1 L73.3 25.55" fill="#ad0000" fill-rule="evenodd" stroke="none"/>
      <path d="M31.65 28.25 Q30.9 27.5 29.55 26.6 28.1 25.75 26.1 25.25 24.05 24.8 21.4 25.25 18.75 25.75 15.6 27.7 L14.45 27.3 9.15 19.35 10.75 17.85 Q12.35 16.4 15.2 14.7 18.05 13.05 21.85 12.25 25.65 11.5 30.15 12.8 34.65 14.1 39.55 18.6 L33.05 28.45 31.65 28.25" fill="#732d00" fill-rule="evenodd" stroke="none"/>
      <path d="M28.9 11.45 L29.15 12.7 17.2 13.65 16.9 12.9 Q16.75 12.15 16.85 10.95 16.95 9.65 17.85 8.1 19.05 6.1 20.65 5.45 22.3 4.8 23.85 5.1 25.45 5.4 26.45 6.3 27.45 7.3 28.05 8.8 L28.9 11.45" fill="#732d00" fill-rule="evenodd" stroke="none"/>
      <path d="M31.6 27.55 L30.45 26.5 Q29.3 25.6 27.1 24.8 L21.65 24.45 Q18.45 24.85 14.35 27.4 L8.5 18.7 10.1 17.2 Q11.7 15.75 14.55 14.05 17.4 12.4 21.2 11.6 25.0 10.85 29.5 12.15 34.0 13.45 38.9 17.95 L31.6 27.55" fill="#953b00" fill-rule="evenodd" stroke="none"/>
      <path d="M27.75 11.6 L28.0 12.85 16.05 13.8 15.75 13.05 Q15.6 12.3 15.7 11.1 15.8 9.8 16.7 8.25 17.9 6.25 19.5 5.6 21.15 4.95 22.7 5.25 24.3 5.55 25.3 6.45 26.3 7.45 26.9 8.95 L27.75 11.6" fill="#953b00" fill-rule="evenodd" stroke="none"/>
      <path d="M21.4 7.45 Q22.95 7.45 24.35 8.7 L25.1 10.25 25.35 12.25 25.55 13.85 Q27.55 14.15 30.0 15.1 32.4 16.0 34.95 17.95 L31.1 25.1 29.95 24.2 Q28.8 23.5 26.65 22.9 L21.6 22.75 Q18.7 23.15 15.2 25.5 L10.2 19.1 11.0 18.3 13.35 16.45 Q14.75 15.4 16.8 14.5 16.7 13.6 17.15 11.95 17.55 10.35 18.45 9.15 19.8 7.45 21.4 7.45" fill="#732d00" fill-rule="evenodd" stroke="none"/>
      <path d="M24.4 9.35 Q25.25 10.2 25.45 11.65 L25.8 14.05 26.55 14.15 Q20.05 17.65 14.4 22.55 L12.15 19.1 13.6 17.65 Q15.0 16.35 18.0 14.9 17.9 14.05 18.25 12.65 18.65 11.2 19.45 10.05 20.85 8.3 22.0 8.2 23.1 8.1 24.4 9.35" fill="#fd8d1c" fill-rule="evenodd" stroke="none"/>
      <path d="M15.95 24.95 L14.4 22.6 Q20.0 17.7 26.55 14.2 L29.9 15.15 33.6 16.75 Q27.6 19.1 22.25 22.6 19.5 23.0 15.95 24.95" fill="#fcae53" fill-rule="evenodd" stroke="none"/>
      <path d="M27.05 22.9 L22.25 22.65 Q27.6 19.05 33.55 16.75 L35.85 18.25 31.05 25.05 30.05 24.2 Q29.0 23.5 27.05 22.9" fill="#fda13d" fill-rule="evenodd" stroke="none"/>
      <path d="M35.0 5.9 Q38.25 8.7 40.5 12.3 42.7 15.85 44.05 19.25 45.45 22.6 46.05 24.85 L46.65 27.2 38.55 29.9 34.7 28.55 34.5 27.1 34.0 23.6 33.4 19.3 Q32.7 13.95 31.25 9.8 29.85 5.75 27.15 3.75 25.55 2.75 24.35 2.35 L23.6 2.15 Q20.5 1.6 17.8 2.2 15.05 2.85 12.9 3.95 10.8 5.05 9.5 6.0 L12.5 3.5 Q14.35 2.05 17.15 1.3 L23.95 1.1 24.05 0.95 25.15 1.35 Q26.35 1.6 27.45 2.15 31.8 3.15 35.0 5.9" fill="#ad0000" fill-rule="evenodd" stroke="none"/>
      <path d="M46.15 23.1 L46.8 25.3 38.3 28.65 37.9 27.35 36.75 22.95 34.85 14.65 Q33.8 10.35 31.6 7.65 29.35 4.95 27.05 3.65 24.65 2.3 23.35 2.05 L23.75 1.55 24.05 1.0 Q25.15 1.25 25.7 1.6 L26.25 2.0 Q30.9 2.65 34.35 5.2 37.8 7.7 40.15 11.05 42.6 14.45 44.0 17.7 L46.15 23.1" fill="#c11614" fill-rule="evenodd" stroke="none"/>
      <path d="M30.65 7.45 Q27.75 3.05 23.65 2.2 L19.0 2.05 Q16.8 2.4 14.95 3.1 11.2 4.9 8.85 8.0 6.5 11.0 5.25 14.5 4.0 17.95 3.45 21.05 L2.85 26.2 2.8 28.2 0.75 27.25 Q1.45 19.25 3.55 14.4 5.6 9.55 7.9 7.05 10.25 4.55 11.9 3.7 14.05 2.2 17.25 1.35 20.5 0.5 24.75 1.3 28.8 2.15 31.3 5.15 33.9 8.1 35.3 12.05 36.75 16.0 37.4 19.8 L38.2 26.05 38.3 28.7 35.85 28.1 35.7 26.7 35.2 23.15 34.6 18.85 Q33.55 11.85 30.65 7.45" fill="#e47058" fill-rule="evenodd" stroke="none"/>
      <path d="M40.05 44.75 Q40.15 46.4 39.5 50.25 38.85 54.1 36.55 60.75 L20.5 58.1 19.2 55.8 16.8 50.7 14.5 44.8 Q13.5 41.9 13.45 40.1 L15.3 39.5 20.55 38.8 28.9 39.45 Q33.75 40.35 39.85 43.15 L40.05 44.75" fill="#ad0000" fill-rule="evenodd" stroke="none"/>
      <path d="M16.9 9.4 Q17.2 8.35 18.2 7.25 19.15 6.15 20.85 5.9 L20.95 6.4 20.15 6.6 Q19.3 6.85 18.25 7.7 17.25 8.65 16.5 10.55 L16.9 9.4" fill="#ba7337" fill-rule="evenodd" stroke="none"/>
      <path d="M14.95 26.25 L12.75 23.95 14.95 25.75 17.5 24.9 14.95 26.25" fill="#ba7337" fill-rule="evenodd" stroke="none"/>
      <path d="M67.1 49.6 L70.75 49.5 72.3 49.35 71.4 51.15 70.3 53.95 69.75 55.4 72.4 55.75 Q71.85 56.4 71.7 57.5 L71.5 59.4 71.5 60.35 Q70.55 59.85 68.85 59.7 L65.45 59.5 62.45 59.7 61.2 59.8 62.15 55.25 66.7 55.05 66.75 53.75 63.25 54.15 62.8 48.8 Q64.95 49.5 67.1 49.6" fill="#ad0000" fill-rule="evenodd" stroke="none"/>
      <path d="M70.2 52.0 L69.25 54.45 68.85 55.8 71.35 56.35 71.05 57.55 Q70.95 58.3 71.0 58.95 L71.05 59.6 Q70.1 59.0 68.6 58.85 L65.6 58.65 63.05 58.75 61.95 58.85 62.7 55.95 66.7 55.8 67.4 53.25 63.8 53.45 63.35 49.9 Q65.4 50.6 67.15 50.7 L69.95 50.55 71.0 50.35 70.2 52.0" fill="#ffff00" fill-rule="evenodd" stroke="none"/>
      <path d="M63.7 45.15 Q62.8 45.55 62.1 46.85 L60.9 49.4 60.45 50.7 50.45 49.15 Q50.9 48.45 50.9 47.05 L50.6 43.95 50.1 41.25 49.85 40.1 Q53.3 41.85 56.45 43.0 L61.6 44.6 63.7 45.15" fill="#ad0000" fill-rule="evenodd" stroke="none"/>
      <path d="M62.3 45.45 Q61.45 45.75 61.05 46.75 60.55 47.8 60.35 48.75 L60.15 49.75 51.5 48.65 Q51.95 47.7 51.75 46.05 L51.2 42.9 50.75 41.35 Q53.9 42.95 56.5 43.85 L60.65 45.1 62.3 45.45" fill="#ffff00" fill-rule="evenodd" stroke="none"/>
      <path d="M60.2 58.8 L60.0 60.0 Q57.25 59.15 54.15 58.85 L48.85 58.7 46.55 58.8 Q47.15 57.8 47.45 56.15 L47.75 52.8 47.8 49.95 47.8 48.75 Q52.1 51.1 55.4 51.65 L60.55 51.9 62.5 51.55 Q61.95 51.95 61.5 53.25 61.0 54.6 60.75 56.1 L60.2 58.8" fill="#ad0000" fill-rule="evenodd" stroke="none"/>
      <path d="M59.65 57.55 L59.6 58.9 Q56.8 58.0 54.1 57.85 51.35 57.7 49.55 57.85 L47.6 58.05 Q48.35 56.7 48.6 54.85 L48.65 51.55 48.55 50.05 Q52.75 52.4 55.6 52.9 L59.7 53.15 60.95 52.8 Q60.3 53.35 60.05 54.8 59.7 56.2 59.65 57.55" fill="#ffff00" fill-rule="evenodd" stroke="none"/>
      <path d="M79.05 50.15 L80.35 49.75 79.8 56.7 78.0 56.2 75.25 56.0 72.75 56.0 71.65 56.05 Q72.35 55.6 72.25 54.3 L71.75 52.0 71.3 50.85 Q73.6 51.05 75.65 50.8 L79.05 50.15" fill="#ad0000" fill-rule="evenodd" stroke="none"/>
      <path d="M79.5 50.9 L79.15 55.8 Q78.45 55.35 76.9 55.25 L74.05 55.2 72.65 55.25 Q73.05 54.7 73.0 53.9 L72.75 52.45 72.45 51.8 76.3 51.85 78.65 51.25 79.5 50.9" fill="#ffff00" fill-rule="evenodd" stroke="none"/>
      <path d="M89.85 51.35 L89.15 52.7 92.45 56.25 Q91.6 56.4 90.85 57.4 L89.65 59.35 89.15 60.4 86.55 56.2 Q86.45 55.95 85.9 56.6 L84.7 58.3 83.45 60.15 82.95 60.95 Q82.7 60.05 81.6 59.5 80.55 58.95 79.25 58.65 L77.0 58.3 76.0 58.25 Q76.8 58.2 78.4 57.0 L81.7 54.2 84.55 51.45 85.85 50.2 83.6 50.5 81.0 51.25 79.8 51.6 Q80.2 50.85 79.95 49.35 L79.25 46.35 78.3 43.7 77.85 42.55 Q82.05 43.8 86.0 44.05 89.95 44.2 92.55 43.9 L95.15 43.7 Q94.45 43.85 93.55 45.15 L91.5 48.25 89.85 51.35" fill="#ad0000" fill-rule="evenodd" stroke="none"/>
      <path d="M85.45 45.15 L90.7 45.15 92.9 44.95 Q92.15 45.15 91.35 46.25 L89.7 48.9 88.45 51.55 87.9 52.75 91.2 55.7 Q90.4 55.85 89.9 56.7 89.4 57.6 89.25 58.4 L89.05 59.35 86.4 55.1 Q85.9 55.2 85.15 56.35 L83.65 58.75 83.0 60.0 Q82.6 58.75 81.5 58.35 L79.35 57.95 78.5 58.0 Q79.4 57.75 80.75 56.65 L83.75 53.7 86.3 50.65 87.35 49.35 84.95 49.5 82.25 50.05 80.95 50.4 Q81.45 49.35 81.1 47.85 L80.3 45.25 79.7 44.05 Q82.45 45.0 85.45 45.15" fill="#ffff00" fill-rule="evenodd" stroke="none"/>
      <path d="M21.35 59.4 L21.45 58.8 Q21.6 58.3 22.0 58.2 22.4 58.15 22.75 58.6 L23.25 59.7 23.1 60.85 22.55 61.45 22.3 61.45 22.35 61.45 22.65 61.4 Q22.9 61.25 22.95 60.7 L22.65 60.85 22.0 60.75 Q21.6 60.5 21.35 59.4 M19.35 56.05 L20.8 56.15 22.15 56.3 29.55 57.2 35.8 58.3 36.7 58.5 37.25 58.6 42.0 59.6 44.1 60.0 Q44.55 62.85 43.95 65.05 L42.5 68.45 41.65 69.7 Q36.95 66.8 32.95 65.5 28.95 64.2 25.9 63.85 L21.2 63.6 19.45 63.75 15.85 56.05 19.35 56.05 M25.05 57.35 L24.35 57.25 21.85 57.0 20.55 56.9 17.6 56.9 19.85 62.75 20.0 62.7 20.0 62.75 20.4 62.7 22.1 62.7 22.7 62.75 Q25.5 62.8 30.1 63.85 L34.2 65.05 38.55 66.95 41.4 68.45 42.2 66.65 Q42.85 64.75 43.05 60.8 L41.2 60.4 36.35 59.35 29.9 58.05 25.05 57.35 M34.25 62.15 L34.25 61.75 Q34.35 60.8 34.85 60.25 35.35 59.65 35.95 59.7 36.55 59.8 36.9 60.5 37.25 61.2 37.15 62.15 37.0 63.05 36.5 63.6 36.0 64.2 35.4 64.15 L35.6 64.15 36.35 63.35 35.8 63.5 Q35.35 63.5 34.85 63.1 34.4 62.6 34.5 61.05 L34.3 61.7 34.25 62.15" fill="#c75409" fill-rule="evenodd" stroke="none"/>
      <path d="M21.95 58.05 Q21.45 58.15 21.2 58.85 20.9 59.45 21.05 60.3 21.2 61.2 21.65 61.7 22.1 62.25 22.65 62.15 L23.45 61.4 Q23.7 60.75 23.55 59.9 L22.95 58.5 Q22.5 58.0 21.95 58.05 M20.0 62.7 L19.85 62.75 17.6 56.9 20.55 56.9 21.85 57.0 24.35 57.25 25.05 57.35 32.1 58.5 35.9 59.3 35.3 59.25 35.75 59.4 Q34.95 59.4 34.4 60.05 33.7 60.75 33.55 62.0 33.4 63.15 33.9 64.05 34.3 64.9 35.2 65.0 36.05 65.1 36.7 64.4 37.4 63.7 37.6 62.5 37.7 61.25 37.25 60.4 L36.7 59.75 38.35 60.4 39.7 61.15 40.5 62.0 40.95 63.4 40.55 66.1 40.1 67.7 38.55 66.95 34.2 65.05 30.1 63.85 Q25.5 62.8 22.7 62.75 L22.1 62.7 20.4 62.7 20.0 62.7 M41.15 60.55 L40.65 60.4 39.65 60.15 41.15 60.5 41.15 60.55" fill="#fcae53" fill-rule="evenodd" stroke="none"/>
      <path d="M22.3 61.45 L22.55 61.45 23.1 60.85 23.25 59.7 22.75 58.6 Q22.4 58.15 22.0 58.2 21.6 58.3 21.45 58.8 L21.35 59.4 21.35 59.45 21.35 59.9 21.65 60.9 Q21.85 61.35 22.3 61.4 L22.3 61.45 M21.95 58.05 Q22.5 58.0 22.95 58.5 L23.55 59.9 Q23.7 60.75 23.45 61.4 L22.65 62.15 Q22.1 62.25 21.65 61.7 21.2 61.2 21.05 60.3 20.9 59.45 21.2 58.85 21.45 58.15 21.95 58.05 M35.75 59.4 L35.95 59.4 36.7 59.75 37.25 60.4 Q37.7 61.25 37.6 62.5 37.4 63.7 36.7 64.4 36.05 65.1 35.2 65.0 34.3 64.9 33.9 64.05 33.4 63.15 33.55 62.0 33.7 60.75 34.4 60.05 34.95 59.4 35.75 59.4 M35.4 64.15 Q36.0 64.2 36.5 63.6 37.0 63.05 37.15 62.15 37.25 61.2 36.9 60.5 36.55 59.8 35.95 59.7 35.35 59.65 34.85 60.25 34.35 60.8 34.25 61.75 L34.25 62.15 34.25 63.1 Q34.35 63.8 35.15 64.15 L35.4 64.15" fill="#b84100" fill-rule="evenodd" stroke="none"/>
      <path d="M22.3 61.45 L22.3 61.4 Q21.85 61.35 21.65 60.9 L21.35 59.9 21.35 59.45 21.35 59.4 Q21.6 60.5 22.0 60.75 L22.65 60.85 22.95 60.7 Q22.9 61.25 22.65 61.4 L22.35 61.45 22.3 61.45 M35.4 64.15 L35.15 64.15 Q34.35 63.8 34.25 63.1 L34.25 62.15 34.3 61.7 34.5 61.05 Q34.4 62.6 34.85 63.1 35.35 63.5 35.8 63.5 L36.35 63.35 35.6 64.15 35.4 64.15" fill="#d47d2d" fill-rule="evenodd" stroke="none"/>
      <path d="M25.05 57.35 L29.9 58.05 36.35 59.35 41.2 60.4 43.05 60.8 Q42.85 64.75 42.2 66.65 L41.4 68.45 38.55 66.95 40.1 67.7 40.55 66.1 40.95 63.4 40.5 62.0 39.7 61.15 38.35 60.4 36.7 59.75 35.95 59.4 35.75 59.4 35.3 59.25 35.9 59.3 32.1 58.5 25.05 57.35 M20.4 62.7 L20.0 62.75 20.0 62.7 20.4 62.7 M41.15 60.55 L41.15 60.5 39.65 60.15 40.65 60.4 41.15 60.55" fill="#fcd197" fill-rule="evenodd" stroke="none"/>
      <path d="M52.75 53.4 L56.15 54.35 57.8 54.8 55.05 55.05 52.25 54.6 50.95 54.2 Q50.65 55.15 50.0 55.65 L49.25 56.05 Q49.9 55.45 50.05 54.55 L50.1 52.9 49.9 52.05 Q50.9 52.75 52.75 53.4 M56.5 46.15 L54.95 46.25 54.15 46.25 Q54.15 46.85 53.75 47.3 L53.0 48.0 52.55 48.3 Q53.0 47.8 52.95 46.7 L52.8 44.6 52.55 43.6 Q53.3 44.3 54.55 44.8 L56.75 45.6 57.8 45.85 56.5 46.15 M63.0 58.35 L63.45 56.6 66.5 56.5 Q65.7 56.55 65.0 56.95 64.1 57.4 63.55 57.85 L63.0 58.35 M64.55 52.6 L64.55 51.45 64.25 50.85 Q65.25 50.9 65.7 51.2 L66.1 51.5 Q65.1 51.55 64.75 52.15 L64.55 52.6 M73.65 52.45 Q74.2 52.9 75.3 52.85 L77.35 52.65 77.65 52.55 Q77.2 52.7 76.6 53.0 L74.6 54.1 73.65 54.7 73.75 53.4 73.65 52.45 M83.0 45.9 L85.85 46.5 87.35 46.65 84.2 47.1 82.9 46.9 Q83.0 48.05 82.6 48.85 L82.1 49.75 Q82.25 49.2 82.0 48.05 L81.35 45.95 80.95 44.95 Q81.45 45.5 83.0 45.9" fill="#ffffff" fill-rule="evenodd" stroke="none"/>
      <path d="M21.05 56.25 L19.6 56.15 19.5 55.9 17.05 50.8 14.75 44.9 Q13.75 42.0 13.7 40.25 L15.6 39.65 20.8 38.9 29.15 39.6 Q34.0 40.45 40.1 43.25 L40.3 44.85 Q40.4 46.5 39.75 50.35 39.2 53.55 37.5 58.7 L36.95 58.6 36.05 58.4 Q37.25 54.65 37.85 51.9 L38.8 46.2 38.85 44.25 Q33.15 41.65 28.8 40.9 L21.4 40.35 Q18.4 40.6 16.85 41.1 L15.3 41.7 Q15.35 43.4 16.35 46.1 17.4 48.8 18.8 51.7 L21.05 56.25" fill="#ad0000" fill-rule="evenodd" stroke="none"/>
      <path d="M21.05 56.25 L18.8 51.7 Q17.4 48.8 16.35 46.1 15.35 43.4 15.3 41.7 L16.85 41.1 Q18.4 40.6 21.4 40.35 L28.8 40.9 Q33.15 41.65 38.85 44.25 L38.8 46.2 37.85 51.9 Q37.25 54.65 36.05 58.4 L29.8 57.3 22.4 56.4 21.05 56.25 M26.85 41.25 L22.7 40.7 Q19.95 40.65 16.15 42.0 L16.55 43.75 Q16.9 45.3 17.6 47.4 18.25 49.4 19.15 50.75 L18.8 49.8 18.1 47.3 17.45 44.6 Q17.2 43.35 17.35 42.85 L19.2 42.15 23.4 41.25 Q25.9 40.95 28.3 41.85 L26.85 41.25" fill="#d72019" fill-rule="evenodd" stroke="none"/>
      <path d="M26.85 41.25 L28.3 41.85 Q25.9 40.95 23.4 41.25 L19.2 42.15 17.35 42.85 Q17.2 43.35 17.45 44.6 L18.1 47.3 18.8 49.8 19.15 50.75 Q18.25 49.4 17.6 47.4 16.9 45.3 16.55 43.75 L16.15 42.0 Q19.95 40.65 22.7 40.7 L26.85 41.25" fill="#e47058" fill-rule="evenodd" stroke="none"/>
    </g>
    <g id="shape1" transform="matrix(1.0, 0.0, 0.0, 1.0, 5.65, 63.1)">
      <path d="M5.6 -56.9 L4.35 -3.35 4.3 -2.55 3.65 -1.0 Q3.15 -0.15 1.9 0.0 0.65 0.0 0.1 -0.85 L-0.65 -2.5 -0.8 -3.4 -5.65 -54.55 -5.65 -55.45 -5.25 -57.7 Q-5.0 -59.1 -4.15 -60.4 -3.3 -61.75 -1.9 -62.4 -0.55 -63.0 0.8 -63.1 L2.7 -62.75 Q3.95 -61.95 4.55 -60.55 L5.4 -58.1 5.6 -56.9" fill="#8b2b09" fill-rule="evenodd" stroke="none"/>
      <path d="M3.8 -57.5 L4.1 -53.65 4.05 -50.2 3.95 -48.7 3.4 -2.7 2.9 -2.05 Q2.45 -1.45 1.65 -1.4 1.1 -1.45 0.8 -1.95 L0.4 -2.9 0.2 -3.4 -3.9 -47.45 -4.05 -48.85 -4.35 -52.1 -4.35 -55.85 Q-4.25 -57.6 -3.75 -58.55 -3.3 -59.2 -2.1 -59.85 -0.9 -60.55 0.5 -60.75 1.85 -60.95 2.65 -60.25 3.45 -59.35 3.8 -57.5" fill="#f39044" fill-rule="evenodd" stroke="none"/>
      <path d="M4.2 -48.5 L4.05 -46.9 3.4 -2.75 2.95 -2.05 Q2.6 -1.45 1.8 -1.35 1.4 -1.4 1.3 -2.15 L1.5 -3.75 1.65 -4.65 -1.05 -47.0 -1.1 -48.5 -1.15 -51.9 -1.05 -55.85 -0.65 -58.7 Q-0.15 -60.25 0.45 -60.6 L1.7 -60.5 3.05 -59.05 Q3.65 -58.1 3.9 -56.2 L4.2 -52.1 4.2 -48.5" fill="#f0620e" fill-rule="evenodd" stroke="none"/>
      <path d="M-3.9 -58.05 Q-3.55 -59.2 -2.5 -60.1 -1.5 -61.0 -0.45 -61.15 L2.0 -60.8 2.85 -59.65 3.0 -59.0 -0.1 -58.9 -2.25 -57.1 -3.05 -55.9 Q-4.2 -56.9 -3.9 -58.05" fill="#f39044" fill-rule="evenodd" stroke="none"/>
    </g>
    <g id="shape2" transform="matrix(1.0, 0.0, 0.0, 1.0, -78.05, -32.9)">
      <path d="M84.6 33.1 Q85.65 33.15 86.5 34.25 87.45 35.35 87.5 37.2 87.45 39.0 86.6 40.2 85.75 41.45 84.6 41.7 L85.35 41.6 86.15 41.45 82.0 42.25 Q80.3 42.2 79.2 40.85 78.1 39.55 78.05 37.55 78.1 35.6 79.2 34.25 80.3 32.95 82.0 32.9 L84.6 33.1" fill="#8b2b09" fill-rule="evenodd" stroke="none"/>
      <path d="M82.35 41.65 Q81.1 41.6 80.2 40.7 79.25 39.8 79.05 38.35 81.75 39.1 84.9 39.1 L85.0 41.1 82.35 41.65" fill="#f0620e" fill-rule="evenodd" stroke="none"/>
      <path d="M82.35 33.45 L84.55 33.6 84.9 39.05 Q81.75 39.05 79.05 38.25 L79.0 37.5 Q79.05 35.75 80.0 34.65 80.9 33.5 82.35 33.45" fill="#f39044" fill-rule="evenodd" stroke="none"/>
      <path d="M87.35 37.3 Q87.35 38.9 86.55 40.0 85.85 41.0 84.55 41.05 83.2 41.0 82.35 40.0 81.5 38.95 81.45 37.35 81.5 35.75 82.35 34.7 83.2 33.65 84.55 33.6 85.85 33.65 86.55 34.65 87.35 35.7 87.35 37.3" fill="#8b2b09" fill-rule="evenodd" stroke="none"/>
      <path d="M87.05 37.3 Q87.05 38.65 86.45 39.55 85.9 40.45 84.8 40.5 83.75 40.45 83.0 39.55 82.3 38.65 82.25 37.3 82.3 35.9 83.0 35.0 83.75 34.1 84.8 34.05 85.8 34.1 86.45 35.0 87.0 35.9 87.05 37.3" fill="#f39044" fill-rule="evenodd" stroke="none"/>
      <path d="M87.05 37.75 Q87.05 38.9 86.45 39.65 85.9 40.45 84.8 40.5 83.75 40.45 83.0 39.75 82.3 38.95 82.25 37.75 82.3 36.6 83.0 35.8 83.75 35.05 84.8 35.0 85.8 35.05 86.45 35.8 87.0 36.6 87.05 37.75" fill="#f0620e" fill-rule="evenodd" stroke="none"/>
    </g>
  </defs>
</svg>
