<?xml version="1.0" encoding="UTF-8" standalone="no"?>
<svg xmlns:xlink="http://www.w3.org/1999/xlink" height="138.3px" width="117.55px" xmlns="http://www.w3.org/2000/svg">
  <g transform="matrix(1.0, 0.0, 0.0, 1.0, -20.45, 23.15)">
    <use data-characterId="217" height="115.15" transform="matrix(1.0, 0.0, 0.0, 1.0, 23.65, 0.0)" width="102.4" xlink:href="#shape0"/>
    <use data-characterId="218" height="19.85" transform="matrix(1.0, 0.0, 0.0, 1.0, 37.35, 38.85)" width="26.6" xlink:href="#shape1"/>
    <use data-characterId="211" height="63.1" transform="matrix(0.4735, 0.8776, -0.8776, 0.4735, 131.6519, 2.1639)" width="11.25" xlink:href="#shape2"/>
    <use data-characterId="212" height="9.35" transform="matrix(1.0, 0.0, 0.0, 1.0, 78.05, 32.9)" width="9.45" xlink:href="#shape3"/>
  </g>
  <defs>
    <g id="shape0" transform="matrix(1.0, 0.0, 0.0, 1.0, -23.65, 0.0)">
      <path d="M72.05 63.65 L88.7 61.75 Q87.95 63.45 87.2 67.9 86.5 72.3 85.9 78.25 L84.8 90.5 84.05 102.2 83.5 110.95 83.3 114.4 73.95 115.15 Q74.35 113.35 74.4 108.95 L74.2 98.75 73.6 86.9 72.95 75.5 72.3 67.0 72.05 63.65" fill="#a2360d" fill-rule="evenodd" stroke="none"/>
      <path d="M74.5 62.2 L85.9 60.8 Q85.4 62.5 84.9 66.85 L83.95 77.15 Q83.5 83.05 83.2 89.3 L82.5 100.9 82.15 109.55 81.95 112.95 76.75 112.65 Q77.05 110.9 76.95 106.6 L76.65 96.6 76.05 84.9 75.3 73.8 74.7 65.45 74.5 62.2" fill="#bd6e41" fill-rule="evenodd" stroke="none"/>
      <path d="M80.8 57.45 L86.7 57.1 Q85.7 60.55 85.0 65.95 84.35 71.3 83.9 77.65 L83.1 90.2 82.75 101.65 82.55 110.0 82.5 113.2 79.75 112.7 Q79.6 111.0 79.6 106.3 L79.7 95.45 80.05 82.65 80.4 70.35 80.7 61.1 80.8 57.45" fill="#ab4b1e" fill-rule="evenodd" stroke="none"/>
      <path d="M77.05 68.75 L76.1 62.15 87.9 61.15 83.75 76.25 81.2 79.1 Q80.9 75.4 79.9 73.1 78.9 70.75 78.0 69.7 L77.05 68.75" fill="#ab4b1e" fill-rule="evenodd" stroke="none"/>
      <path d="M97.5 18.6 Q106.6 19.4 118.25 18.35 121.45 19.4 123.4 22.55 125.25 25.7 125.8 30.25 126.35 34.8 125.65 39.95 124.85 45.1 122.8 50.2 120.75 55.3 117.35 59.5 114.0 63.75 109.3 66.45 L104.65 66.95 92.15 67.75 83.3 68.15 75.0 68.5 68.8 68.75 66.4 68.85 51.2 60.0 44.95 0.15 Q47.8 -0.35 51.05 0.65 54.3 1.65 57.5 3.4 L63.25 7.1 Q65.9 8.95 67.5 10.3 L69.1 11.65 72.4 13.15 Q75.75 14.5 82.05 16.15 88.35 17.8 97.5 18.6" fill="#ad0000" fill-rule="evenodd" stroke="none"/>
      <path d="M109.15 64.9 L65.65 64.85 48.65 58.15 69.3 12.85 74.2 14.9 Q78.4 16.4 85.1 18.0 91.75 19.6 100.1 20.25 L117.5 19.6 Q120.45 19.85 122.25 22.4 124.0 25.05 124.65 29.35 125.3 33.55 124.7 38.65 124.1 43.7 122.25 48.75 120.3 53.8 117.1 58.05 113.85 62.25 109.15 64.9" fill="#e47058" fill-rule="evenodd" stroke="none"/>
      <path d="M115.5 59.15 Q112.4 63.35 107.85 65.85 L103.5 66.2 91.6 66.8 83.45 67.05 75.25 67.45 68.85 67.75 66.35 67.85 48.25 58.5 59.55 7.6 61.6 9.3 Q63.65 10.95 67.95 13.25 72.2 15.6 78.8 17.75 85.45 19.9 94.65 21.05 103.8 22.15 115.65 21.35 118.45 21.55 120.2 24.15 122.0 26.75 122.65 30.95 123.35 35.15 122.8 40.1 122.25 45.1 120.4 50.05 118.65 55.05 115.5 59.15" fill="#c11614" fill-rule="evenodd" stroke="none"/>
      <path d="M122.1 40.95 Q121.05 46.55 119.4 50.5 117.75 54.45 116.05 56.95 114.35 59.45 113.25 60.55 L112.05 61.75 109.2 62.0 102.0 62.7 92.35 63.6 82.3 64.4 73.75 64.9 Q70.05 65.1 68.6 64.85 66.95 64.6 65.3 63.0 63.6 61.4 62.1 59.2 L59.4 54.8 57.45 51.15 56.75 49.7 Q67.95 52.9 77.05 53.65 86.1 54.35 93.2 53.35 100.25 52.4 105.45 50.45 110.6 48.55 114.15 46.4 L119.55 42.7 Q121.55 41.15 122.1 40.95" fill="#b00b0b" fill-rule="evenodd" stroke="none"/>
      <path d="M62.2 9.2 Q65.95 13.85 69.05 22.2 70.45 26.65 70.6 32.55 70.8 38.55 70.15 44.9 L68.75 56.65 67.15 65.45 66.45 68.9 64.3 67.95 58.65 65.95 Q55.05 64.8 50.55 63.95 L45.55 63.0 43.3 62.5 42.75 62.3 42.8 62.3 41.1 59.25 Q39.45 56.25 37.2 51.3 34.95 46.4 32.95 40.5 31.0 34.55 30.25 28.6 29.55 22.6 31.0 17.55 32.05 14.1 34.4 10.85 36.7 7.6 39.95 5.25 43.15 2.9 46.9 2.1 50.65 1.4 54.55 2.95 58.5 4.55 62.2 9.2" fill="#ad0000" fill-rule="evenodd" stroke="none"/>
      <path d="M64.25 15.45 Q65.85 18.55 67.15 22.55 68.5 27.2 68.75 33.0 68.95 38.8 68.45 44.75 68.05 50.75 67.25 55.75 L65.9 63.85 65.3 67.0 63.75 66.45 59.95 65.2 55.0 63.65 50.0 62.5 45.55 61.55 Q44.15 61.2 43.85 60.95 L43.5 60.8 42.05 58.15 38.55 51.25 Q36.55 46.9 34.6 41.6 32.75 36.35 31.75 30.95 38.5 24.8 46.85 20.95 55.15 17.05 64.25 15.45" fill="#e47058" fill-rule="evenodd" stroke="none"/>
      <path d="M65.3 23.25 Q66.55 27.55 66.8 33.0 67.0 38.5 66.55 44.05 L65.35 54.35 64.1 61.95 63.5 64.9 61.4 64.0 56.05 62.2 Q52.85 61.15 48.95 60.45 L44.0 59.45 42.75 59.1 42.9 59.05 41.3 56.25 37.6 49.1 Q35.5 44.65 33.65 39.35 31.85 34.05 31.1 28.8 30.45 23.5 31.8 19.15 33.2 14.8 36.1 11.4 39.0 8.0 42.75 6.3 46.5 4.6 50.65 5.4 54.7 6.3 58.5 10.55 62.35 14.75 65.3 23.25" fill="#d72019" fill-rule="evenodd" stroke="none"/>
      <path d="M60.3 30.8 L62.4 31.85 Q62.8 33.65 62.6 35.45 L62.0 38.5 61.6 39.8 Q56.85 38.0 52.6 37.35 L44.85 36.8 39.4 37.15 37.35 37.5 Q36.8 37.15 36.5 36.1 L35.95 33.75 35.65 31.5 35.6 30.5 Q41.05 28.35 45.9 28.2 L54.45 28.9 Q58.15 29.8 60.3 30.8" fill="#ad0000" fill-rule="evenodd" stroke="none"/>
      <path d="M64.25 15.5 L55.75 14.7 Q51.25 14.7 46.75 16.1 42.25 17.6 38.35 21.1 34.45 24.7 31.75 31.0 31.15 27.55 31.15 24.3 31.15 21.1 32.05 18.3 33.4 14.05 36.1 10.65 38.75 7.2 42.2 5.2 45.7 3.2 49.55 3.3 53.4 3.4 57.2 6.25 61.0 9.2 64.25 15.5" fill="#c11614" fill-rule="evenodd" stroke="none"/>
      <path d="M47.7 1.0 L46.15 3.05 45.3 2.9 Q41.05 3.95 38.3 6.65 35.55 9.4 33.9 12.85 32.3 16.3 31.5 19.6 30.8 22.9 30.6 25.05 L30.4 27.3 26.65 29.0 Q26.35 25.75 26.3 22.35 26.3 19.0 27.1 15.7 27.95 12.4 30.3 9.3 32.7 6.2 37.15 3.45 40.8 1.3 43.45 0.9 L47.7 1.0" fill="#ad0000" fill-rule="evenodd" stroke="none"/>
      <path d="M52.3 2.8 L39.9 2.5 Q35.45 4.1 32.75 7.25 30.1 10.3 28.75 14.05 27.45 17.75 27.0 21.15 26.55 24.55 26.6 26.75 L26.65 29.05 23.65 27.5 Q24.0 20.7 25.8 15.9 27.6 11.15 30.05 8.15 32.4 5.2 34.3 3.8 36.3 2.35 36.9 2.15 L39.1 1.25 Q40.6 0.65 42.65 0.25 L47.15 0.4 Q49.65 0.9 52.3 2.8" fill="#ad0000" fill-rule="evenodd" stroke="none"/>
      <path d="M37.7 3.35 Q41.2 1.25 43.65 0.9 L47.75 1.0 46.25 2.95 45.45 2.8 Q41.4 3.7 38.65 6.4 35.9 9.1 34.25 12.5 32.55 15.95 31.7 19.25 30.8 22.5 30.55 24.65 L30.25 26.9 26.4 28.25 Q26.05 24.05 26.5 19.65 27.0 15.2 29.55 11.05 32.1 6.8 37.7 3.35" fill="#ad0000" fill-rule="evenodd" stroke="none"/>
      <path d="M112.65 60.95 L116.0 60.7 Q115.4 61.7 113.9 62.9 L111.15 65.1 109.75 66.1 65.25 69.5 Q65.85 68.75 66.3 67.2 L67.1 63.95 67.6 61.1 67.8 59.9 Q68.7 60.9 72.5 61.35 L81.8 61.9 93.15 61.75 104.2 61.4 112.65 60.95" fill="#d72019" fill-rule="evenodd" stroke="none"/>
      <path d="M112.8 61.05 L116.0 60.7 Q115.4 61.7 113.9 62.9 L111.15 65.1 109.75 66.1 65.25 69.5 Q65.85 68.75 66.3 67.2 L67.1 63.95 67.6 61.1 67.8 59.9 Q73.5 61.2 80.05 61.7 L92.9 62.1 104.45 61.7 112.8 61.05" fill="#c75409" fill-rule="evenodd" stroke="none"/>
      <path d="M113.85 61.55 L112.25 63.3 110.25 64.85 109.3 65.5 66.85 68.45 67.6 65.6 68.15 62.55 68.35 61.2 86.15 62.95 Q94.35 63.25 100.6 62.9 L110.25 62.0 113.85 61.55" fill="#c65b21" fill-rule="evenodd" stroke="none"/>
      <path d="M69.65 14.1 L68.45 13.5 65.7 12.0 62.8 10.0 59.8 7.15 Q57.95 5.35 55.6 3.85 53.3 2.4 50.95 2.5 L51.35 2.35 52.85 2.3 Q53.9 2.45 55.9 3.3 57.9 4.3 60.4 6.3 L65.3 10.35 Q67.7 12.3 69.4 12.9 L69.65 14.1" fill="#e47058" fill-rule="evenodd" stroke="none"/>
      <path d="M73.5 62.0 L73.6 62.1 71.9 62.0 Q70.8 62.05 69.85 62.55 68.95 63.05 68.85 64.1 L68.3 66.05 67.35 67.7 67.05 68.15 67.55 66.45 68.1 63.45 68.35 61.7 68.7 61.35 69.05 61.3 72.4 61.75 73.5 62.0" fill="#e8ae82" fill-rule="evenodd" stroke="none"/>
      <path d="M96.95 25.55 L89.75 24.8 79.7 25.1 Q74.15 25.8 68.25 28.0 L69.9 25.55 72.5 24.8 Q75.0 24.1 79.3 23.55 83.6 23.0 88.85 23.4 94.15 23.85 99.7 26.1 L96.95 25.55" fill="#ad0000" fill-rule="evenodd" stroke="none"/>
      <path d="M56.7 28.45 L55.3 28.25 Q54.55 27.5 53.2 26.6 51.75 25.75 49.75 25.25 47.7 24.8 45.05 25.25 42.4 25.75 39.25 27.7 L38.1 27.3 32.8 19.35 34.4 17.85 Q36.0 16.4 38.85 14.7 41.7 13.05 45.5 12.25 49.3 11.5 53.8 12.8 58.3 14.1 63.2 18.6 L56.7 28.45" fill="#732d00" fill-rule="evenodd" stroke="none"/>
      <path d="M52.8 12.7 L40.85 13.65 40.55 12.9 Q40.4 12.15 40.5 10.95 40.6 9.65 41.5 8.1 42.7 6.1 44.3 5.45 45.95 4.8 47.5 5.1 49.1 5.4 50.1 6.3 51.1 7.3 51.7 8.8 L52.55 11.45 52.8 12.7" fill="#732d00" fill-rule="evenodd" stroke="none"/>
      <path d="M55.25 27.55 L54.1 26.5 Q52.95 25.6 50.75 24.8 L45.3 24.45 Q42.1 24.85 38.0 27.4 L32.15 18.7 33.75 17.2 Q35.35 15.75 38.2 14.05 41.05 12.4 44.85 11.6 48.65 10.85 53.15 12.15 57.65 13.45 62.55 17.95 L55.25 27.55" fill="#953b00" fill-rule="evenodd" stroke="none"/>
      <path d="M51.65 12.85 L39.7 13.8 39.4 13.05 Q39.25 12.3 39.35 11.1 39.45 9.8 40.35 8.25 41.55 6.25 43.15 5.6 44.8 4.95 46.35 5.25 47.95 5.55 48.95 6.45 49.95 7.45 50.55 8.95 L51.4 11.6 51.65 12.85" fill="#953b00" fill-rule="evenodd" stroke="none"/>
      <path d="M49.2 13.85 Q51.2 14.15 53.65 15.1 56.05 16.0 58.6 17.95 L54.75 25.1 53.6 24.2 Q52.45 23.5 50.3 22.9 L45.25 22.75 Q42.35 23.15 38.85 25.5 L33.85 19.1 34.65 18.3 37.0 16.45 Q38.4 15.4 40.45 14.5 40.35 13.6 40.8 11.95 41.2 10.35 42.1 9.15 43.45 7.45 45.05 7.45 46.6 7.45 48.0 8.7 48.5 9.25 48.75 10.25 L49.0 12.25 49.2 13.85" fill="#732d00" fill-rule="evenodd" stroke="none"/>
      <path d="M49.45 14.05 L50.2 14.15 Q43.7 17.65 38.05 22.55 L35.8 19.1 37.25 17.65 Q38.65 16.35 41.65 14.9 41.55 14.05 41.9 12.65 42.3 11.2 43.1 10.05 44.5 8.3 45.65 8.2 46.75 8.1 48.05 9.35 48.9 10.2 49.1 11.65 L49.45 14.05" fill="#fd8d1c" fill-rule="evenodd" stroke="none"/>
      <path d="M38.05 22.6 Q43.65 17.7 50.2 14.2 L53.55 15.15 Q55.35 15.75 57.25 16.75 51.25 19.1 45.9 22.6 43.15 23.0 39.6 24.95 L38.05 22.6" fill="#fcae53" fill-rule="evenodd" stroke="none"/>
      <path d="M45.9 22.65 Q51.25 19.05 57.2 16.75 L59.5 18.25 54.7 25.05 53.7 24.2 Q52.65 23.5 50.7 22.9 L45.9 22.65" fill="#fda13d" fill-rule="evenodd" stroke="none"/>
      <path d="M58.65 5.9 Q61.9 8.7 64.15 12.3 66.35 15.85 67.7 19.25 69.1 22.6 69.7 24.85 L70.3 27.2 62.2 29.9 58.35 28.55 58.15 27.1 57.65 23.6 57.05 19.3 Q56.35 13.95 54.9 9.8 53.5 5.75 50.8 3.75 49.2 2.75 48.0 2.35 L47.25 2.15 Q44.15 1.6 41.45 2.2 38.7 2.85 36.55 3.95 34.45 5.05 33.15 6.0 L36.15 3.5 Q38.0 2.05 40.8 1.3 L47.6 1.1 47.7 0.95 48.8 1.35 Q50.0 1.6 51.1 2.15 55.45 3.15 58.65 5.9" fill="#ad0000" fill-rule="evenodd" stroke="none"/>
      <path d="M69.8 23.1 L70.45 25.3 61.95 28.65 61.55 27.35 60.4 22.95 58.5 14.65 Q57.45 10.35 55.25 7.65 53.0 4.95 50.7 3.65 48.3 2.3 47.0 2.05 L47.4 1.55 47.7 1.0 Q48.8 1.25 49.35 1.6 L49.9 2.0 Q54.55 2.65 58.0 5.2 61.45 7.7 63.8 11.05 66.25 14.45 67.65 17.7 L69.8 23.1" fill="#c11614" fill-rule="evenodd" stroke="none"/>
      <path d="M48.4 1.3 Q52.45 2.15 54.95 5.15 57.55 8.1 58.95 12.05 60.4 16.0 61.05 19.8 L61.85 26.05 61.95 28.7 59.5 28.1 59.35 26.7 58.85 23.15 58.25 18.85 Q57.2 11.85 54.3 7.45 51.4 3.05 47.3 2.2 L42.65 2.05 Q40.45 2.4 38.6 3.1 34.85 4.9 32.5 8.0 30.15 11.0 28.9 14.5 27.65 17.95 27.1 21.05 L26.5 26.2 26.45 28.2 24.4 27.25 Q25.1 19.25 27.2 14.4 29.25 9.55 31.55 7.05 33.9 4.55 35.55 3.7 37.7 2.2 40.9 1.35 44.15 0.5 48.4 1.3" fill="#e47058" fill-rule="evenodd" stroke="none"/>
      <path d="M60.2 60.75 L44.15 58.1 42.85 55.8 40.45 50.7 38.15 44.8 Q37.15 41.9 37.1 40.1 37.1 40.05 38.95 39.5 L44.2 38.8 52.55 39.45 Q57.4 40.35 63.5 43.15 L63.7 44.75 Q63.8 46.4 63.15 50.25 62.5 54.1 60.2 60.75" fill="#ad0000" fill-rule="evenodd" stroke="none"/>
      <path d="M40.15 10.55 L40.55 9.4 Q40.85 8.35 41.85 7.25 42.8 6.15 44.5 5.9 L44.6 6.4 43.8 6.6 Q42.95 6.85 41.9 7.7 40.9 8.65 40.15 10.55" fill="#ba7337" fill-rule="evenodd" stroke="none"/>
      <path d="M36.4 23.95 L38.6 25.75 41.15 24.9 38.6 26.25 36.4 23.95" fill="#ba7337" fill-rule="evenodd" stroke="none"/>
      <path d="M90.75 49.6 L94.4 49.5 95.95 49.35 95.05 51.15 93.95 53.95 93.4 55.4 96.05 55.75 Q95.5 56.4 95.35 57.5 L95.15 59.4 95.15 60.35 Q94.2 59.85 92.5 59.7 L89.1 59.5 86.1 59.7 84.85 59.8 85.8 55.25 90.35 55.05 90.4 53.75 86.9 54.15 86.45 48.8 Q88.6 49.5 90.75 49.6" fill="#ad0000" fill-rule="evenodd" stroke="none"/>
      <path d="M93.6 50.55 L94.65 50.35 93.85 52.0 92.9 54.45 92.5 55.8 95.0 56.35 94.7 57.55 Q94.6 58.3 94.65 58.95 L94.7 59.6 Q93.75 59.0 92.25 58.85 L89.25 58.65 86.7 58.75 85.6 58.85 86.35 55.95 90.35 55.8 91.05 53.25 87.45 53.45 87.0 49.9 90.8 50.7 93.6 50.55" fill="#ffff00" fill-rule="evenodd" stroke="none"/>
      <path d="M85.25 44.6 L87.35 45.15 Q86.45 45.55 85.75 46.85 L84.55 49.4 84.1 50.7 74.1 49.15 Q74.55 48.45 74.55 47.05 L74.25 43.95 73.75 41.25 73.5 40.1 Q76.95 41.85 80.1 43.0 L85.25 44.6" fill="#ad0000" fill-rule="evenodd" stroke="none"/>
      <path d="M84.7 46.75 Q84.2 47.8 84.0 48.75 L83.8 49.75 75.15 48.65 Q75.6 47.7 75.4 46.05 L74.85 42.9 74.4 41.35 Q77.55 42.95 80.15 43.85 L84.3 45.1 85.95 45.45 Q85.1 45.75 84.7 46.75" fill="#ffff00" fill-rule="evenodd" stroke="none"/>
      <path d="M84.2 51.9 L86.15 51.55 Q85.6 51.95 85.15 53.25 84.65 54.6 84.4 56.1 L83.85 58.8 83.65 60.0 Q80.9 59.15 77.8 58.85 L72.5 58.7 70.2 58.8 Q70.8 57.8 71.1 56.15 L71.4 52.8 71.45 49.95 71.45 48.75 Q75.75 51.1 79.05 51.65 L84.2 51.9" fill="#ad0000" fill-rule="evenodd" stroke="none"/>
      <path d="M83.35 53.15 L84.6 52.8 Q83.95 53.35 83.7 54.8 83.35 56.2 83.3 57.55 L83.25 58.9 Q80.45 58.0 77.75 57.85 75.0 57.7 73.2 57.85 L71.25 58.05 Q72.0 56.7 72.25 54.85 L72.3 51.55 72.2 50.05 Q76.4 52.4 79.25 52.9 L83.35 53.15" fill="#ffff00" fill-rule="evenodd" stroke="none"/>
      <path d="M102.7 50.15 L104.0 49.75 103.45 56.7 Q102.9 56.35 101.65 56.2 L98.9 56.0 96.4 56.0 95.3 56.05 Q96.0 55.6 95.9 54.3 L95.4 52.0 94.95 50.85 Q97.25 51.05 99.3 50.8 L102.7 50.15" fill="#ad0000" fill-rule="evenodd" stroke="none"/>
      <path d="M103.15 50.9 L102.8 55.8 Q102.1 55.35 100.55 55.25 L97.7 55.2 96.3 55.25 96.65 53.9 96.4 52.45 96.1 51.8 99.95 51.85 102.3 51.25 103.15 50.9" fill="#ffff00" fill-rule="evenodd" stroke="none"/>
      <path d="M116.2 43.9 L118.8 43.7 Q118.1 43.85 117.2 45.15 L115.15 48.25 Q114.15 49.95 113.5 51.35 L112.8 52.7 116.1 56.25 Q115.25 56.4 114.5 57.4 L113.3 59.35 112.8 60.4 110.2 56.2 Q110.1 55.95 109.55 56.6 L108.35 58.3 107.1 60.15 106.6 60.95 Q106.35 60.05 105.25 59.5 104.2 58.95 102.9 58.65 L100.65 58.3 99.65 58.25 Q100.45 58.2 102.05 57.0 L105.35 54.2 108.2 51.45 109.5 50.2 107.25 50.5 104.65 51.25 103.45 51.6 Q103.85 50.85 103.6 49.35 L102.9 46.35 101.95 43.7 101.5 42.55 Q105.7 43.8 109.65 44.05 113.6 44.2 116.2 43.9" fill="#ad0000" fill-rule="evenodd" stroke="none"/>
      <path d="M114.35 45.15 L116.55 44.95 Q115.8 45.15 115.0 46.25 L113.35 48.9 112.1 51.55 111.55 52.75 114.85 55.7 Q114.05 55.85 113.55 56.7 113.05 57.6 112.9 58.4 L112.7 59.35 110.05 55.1 Q109.55 55.2 108.8 56.35 L107.3 58.75 106.65 60.0 Q106.25 58.75 105.15 58.35 L103.0 57.95 102.15 58.0 104.4 56.65 107.4 53.7 109.95 50.65 111.0 49.35 108.6 49.5 105.9 50.05 104.6 50.4 Q105.1 49.35 104.75 47.85 L103.95 45.25 103.35 44.05 Q106.1 45.0 109.1 45.15 L114.35 45.15" fill="#ffff00" fill-rule="evenodd" stroke="none"/>
      <path d="M43.0 56.05 L44.45 56.15 45.8 56.3 53.2 57.2 59.45 58.3 60.35 58.5 60.9 58.6 65.65 59.6 67.75 60.0 Q68.2 62.85 67.6 65.05 L66.15 68.45 65.3 69.7 Q60.6 66.8 56.6 65.5 52.6 64.2 49.55 63.85 L44.85 63.6 43.1 63.75 39.5 56.05 43.0 56.05 M45.0 59.4 L45.1 58.8 Q45.25 58.3 45.65 58.2 46.05 58.15 46.4 58.6 L46.9 59.7 Q47.0 60.35 46.75 60.85 L46.2 61.45 45.95 61.45 46.0 61.45 46.3 61.4 46.6 60.7 46.3 60.85 45.65 60.75 Q45.25 60.5 45.0 59.4 M48.7 57.35 L48.0 57.25 45.5 57.0 44.2 56.9 41.25 56.9 43.5 62.75 43.65 62.7 43.65 62.75 44.05 62.7 45.75 62.7 46.35 62.75 Q49.15 62.8 53.75 63.85 L57.85 65.05 62.2 66.95 65.05 68.45 65.85 66.65 Q66.5 64.75 66.7 60.8 L64.85 60.4 60.0 59.35 53.55 58.05 48.7 57.35 M57.9 62.15 L57.9 61.75 Q58.0 60.8 58.5 60.25 59.0 59.65 59.6 59.7 60.2 59.8 60.55 60.5 60.9 61.2 60.8 62.15 60.65 63.05 60.15 63.6 59.65 64.2 59.05 64.15 L59.25 64.15 60.0 63.35 59.45 63.5 Q59.0 63.5 58.5 63.1 58.05 62.6 58.15 61.05 L57.95 61.7 57.9 62.15" fill="#c75409" fill-rule="evenodd" stroke="none"/>
      <path d="M43.65 62.7 L43.5 62.75 41.25 56.9 44.2 56.9 45.5 57.0 48.0 57.25 48.7 57.35 55.75 58.5 59.55 59.3 58.95 59.25 59.4 59.4 Q58.6 59.4 58.05 60.05 57.35 60.75 57.2 62.0 57.05 63.15 57.55 64.05 57.95 64.9 58.85 65.0 59.7 65.1 60.35 64.4 61.05 63.7 61.25 62.5 61.35 61.25 60.9 60.4 L60.35 59.75 62.0 60.4 Q63.0 60.8 63.35 61.15 L64.15 62.0 64.6 63.4 64.2 66.1 63.75 67.7 62.2 66.95 57.85 65.05 53.75 63.85 Q49.15 62.8 46.35 62.75 L45.75 62.7 44.05 62.7 43.65 62.7 M45.6 58.05 Q45.1 58.15 44.85 58.85 44.55 59.45 44.7 60.3 44.85 61.2 45.3 61.7 45.75 62.25 46.3 62.15 L47.1 61.4 Q47.35 60.75 47.2 59.9 47.0 59.05 46.6 58.5 46.15 58.0 45.6 58.05 M64.3 60.4 L63.3 60.15 64.8 60.5 64.8 60.55 64.3 60.4" fill="#fcae53" fill-rule="evenodd" stroke="none"/>
      <path d="M45.0 59.4 L45.0 59.45 45.0 59.9 45.3 60.9 Q45.5 61.35 45.95 61.4 L45.95 61.45 46.2 61.45 46.75 60.85 Q47.0 60.35 46.9 59.7 L46.4 58.6 Q46.05 58.15 45.65 58.2 45.25 58.3 45.1 58.8 L45.0 59.4 M45.6 58.05 Q46.15 58.0 46.6 58.5 47.0 59.05 47.2 59.9 47.35 60.75 47.1 61.4 L46.3 62.15 Q45.75 62.25 45.3 61.7 44.85 61.2 44.7 60.3 44.55 59.45 44.85 58.85 45.1 58.15 45.6 58.05 M59.4 59.4 L59.6 59.4 Q60.0 59.5 60.35 59.75 L60.9 60.4 Q61.35 61.25 61.25 62.5 61.05 63.7 60.35 64.4 59.7 65.1 58.85 65.0 57.95 64.9 57.55 64.05 57.05 63.15 57.2 62.0 57.35 60.75 58.05 60.05 58.6 59.4 59.4 59.4 M59.05 64.15 Q59.65 64.2 60.15 63.6 60.65 63.05 60.8 62.15 60.9 61.2 60.55 60.5 60.2 59.8 59.6 59.7 59.0 59.65 58.5 60.25 58.0 60.8 57.9 61.75 L57.9 62.15 57.9 63.1 Q58.0 63.8 58.8 64.15 L59.05 64.15" fill="#b84100" fill-rule="evenodd" stroke="none"/>
      <path d="M45.95 61.45 L45.95 61.4 Q45.5 61.35 45.3 60.9 L45.0 59.9 45.0 59.45 45.0 59.4 Q45.25 60.5 45.65 60.75 L46.3 60.85 46.6 60.7 46.3 61.4 46.0 61.45 45.95 61.45 M59.05 64.15 L58.8 64.15 Q58.0 63.8 57.9 63.1 L57.9 62.15 57.95 61.7 58.15 61.05 Q58.05 62.6 58.5 63.1 59.0 63.5 59.45 63.5 L60.0 63.35 59.25 64.15 59.05 64.15" fill="#d47d2d" fill-rule="evenodd" stroke="none"/>
      <path d="M48.7 57.35 L53.55 58.05 60.0 59.35 64.85 60.4 66.7 60.8 Q66.5 64.75 65.85 66.65 L65.05 68.45 62.2 66.95 63.75 67.7 64.2 66.1 64.6 63.4 64.15 62.0 63.35 61.15 Q63.0 60.8 62.0 60.4 L60.35 59.75 Q60.0 59.5 59.6 59.4 L59.4 59.4 58.95 59.25 59.55 59.3 55.75 58.5 48.7 57.35 M44.05 62.7 L43.65 62.75 43.65 62.7 44.05 62.7 M64.3 60.4 L64.8 60.55 64.8 60.5 63.3 60.15 64.3 60.4" fill="#fcd197" fill-rule="evenodd" stroke="none"/>
      <path d="M76.4 53.4 L79.8 54.35 81.45 54.8 78.7 55.05 75.9 54.6 74.6 54.2 Q74.3 55.15 73.65 55.65 L72.9 56.05 Q73.55 55.45 73.7 54.55 L73.75 52.9 73.55 52.05 Q74.55 52.75 76.4 53.4 M80.15 46.15 L78.6 46.25 77.8 46.25 Q77.8 46.85 77.4 47.3 L76.65 48.0 76.2 48.3 Q76.65 47.8 76.6 46.7 L76.45 44.6 76.2 43.6 Q76.95 44.3 78.2 44.8 L80.4 45.6 81.45 45.85 80.15 46.15 M87.1 56.6 L90.15 56.5 Q89.35 56.55 88.65 56.95 L87.2 57.85 86.65 58.35 87.1 56.6 M88.4 52.15 L88.2 52.6 88.2 51.45 87.9 50.85 89.35 51.2 89.75 51.5 Q88.75 51.55 88.4 52.15 M98.95 52.85 L101.0 52.65 101.3 52.55 100.25 53.0 98.25 54.1 97.3 54.7 97.4 53.4 97.3 52.45 Q97.85 52.9 98.95 52.85 M109.5 46.5 L111.0 46.65 107.85 47.1 106.55 46.9 Q106.65 48.05 106.25 48.85 L105.75 49.75 Q105.9 49.2 105.65 48.05 L105.0 45.95 104.6 44.95 Q105.1 45.5 106.65 45.9 L109.5 46.5" fill="#ffffff" fill-rule="evenodd" stroke="none"/>
    </g>
    <g id="shape1" transform="matrix(1.0, 0.0, 0.0, 1.0, -37.35, -38.85)">
      <path d="M44.7 56.25 L43.25 56.15 43.15 55.9 40.7 50.8 Q39.4 47.8 38.4 44.9 37.4 42.0 37.35 40.25 L39.25 39.65 Q41.05 39.05 44.45 38.9 L52.8 39.6 Q57.65 40.45 63.75 43.25 L63.95 44.85 Q64.05 46.5 63.4 50.35 62.85 53.55 61.15 58.7 L60.6 58.6 59.7 58.4 Q60.9 54.65 61.5 51.9 L62.45 46.2 62.5 44.25 Q56.8 41.65 52.45 40.9 L45.05 40.35 Q42.05 40.6 40.5 41.1 L38.95 41.7 Q39.0 43.4 40.0 46.1 41.05 48.8 42.45 51.7 L44.7 56.25" fill="#ad0000" fill-rule="evenodd" stroke="none"/>
      <path d="M44.7 56.25 L42.45 51.7 Q41.05 48.8 40.0 46.1 39.0 43.4 38.95 41.7 L40.5 41.1 Q42.05 40.6 45.05 40.35 L52.45 40.9 Q56.8 41.65 62.5 44.25 L62.45 46.2 61.5 51.9 Q60.9 54.65 59.7 58.4 L53.45 57.3 46.05 56.4 44.7 56.25 M50.5 41.25 L46.35 40.7 Q43.6 40.65 39.8 42.0 L40.2 43.75 Q40.55 45.3 41.25 47.4 41.9 49.4 42.8 50.75 L42.45 49.8 41.75 47.3 41.1 44.6 Q40.85 43.35 41.0 42.85 L42.85 42.15 Q44.55 41.5 47.05 41.25 49.55 40.95 51.95 41.85 L50.5 41.25" fill="#d72019" fill-rule="evenodd" stroke="none"/>
      <path d="M50.5 41.25 L51.95 41.85 Q49.55 40.95 47.05 41.25 44.55 41.5 42.85 42.15 L41.0 42.85 Q40.85 43.35 41.1 44.6 L41.75 47.3 42.45 49.8 42.8 50.75 Q41.9 49.4 41.25 47.4 40.55 45.3 40.2 43.75 L39.8 42.0 Q43.6 40.65 46.35 40.7 L50.5 41.25" fill="#e47058" fill-rule="evenodd" stroke="none"/>
    </g>
    <g id="shape2" transform="matrix(1.0, 0.0, 0.0, 1.0, 5.65, 63.1)">
      <path d="M5.6 -56.9 L4.35 -3.35 4.3 -2.55 3.65 -1.0 Q3.15 -0.15 1.9 0.0 0.65 0.0 0.1 -0.85 L-0.65 -2.5 -0.8 -3.4 -5.65 -54.55 -5.65 -55.45 -5.25 -57.7 Q-5.0 -59.1 -4.15 -60.4 -3.3 -61.75 -1.9 -62.4 -0.55 -63.0 0.8 -63.1 L2.7 -62.75 Q3.95 -61.95 4.55 -60.55 L5.4 -58.1 5.6 -56.9" fill="#8b2b09" fill-rule="evenodd" stroke="none"/>
      <path d="M3.8 -57.5 L4.1 -53.65 4.05 -50.2 3.95 -48.7 3.4 -2.7 2.9 -2.05 Q2.45 -1.45 1.65 -1.4 1.1 -1.45 0.8 -1.95 L0.4 -2.9 0.2 -3.4 -3.9 -47.45 -4.05 -48.85 -4.35 -52.1 -4.35 -55.85 Q-4.25 -57.6 -3.75 -58.55 -3.3 -59.2 -2.1 -59.85 -0.9 -60.55 0.5 -60.75 1.85 -60.95 2.65 -60.25 3.45 -59.35 3.8 -57.5" fill="#f39044" fill-rule="evenodd" stroke="none"/>
      <path d="M4.2 -48.5 L4.05 -46.9 3.4 -2.75 2.95 -2.05 Q2.6 -1.45 1.8 -1.35 1.4 -1.4 1.3 -2.15 L1.5 -3.75 1.65 -4.65 -1.05 -47.0 -1.1 -48.5 -1.15 -51.9 -1.05 -55.85 -0.65 -58.7 Q-0.15 -60.25 0.45 -60.6 L1.7 -60.5 3.05 -59.05 Q3.65 -58.1 3.9 -56.2 L4.2 -52.1 4.2 -48.5" fill="#f0620e" fill-rule="evenodd" stroke="none"/>
      <path d="M-3.9 -58.05 Q-3.55 -59.2 -2.5 -60.1 -1.5 -61.0 -0.45 -61.15 L2.0 -60.8 2.85 -59.65 3.0 -59.0 -0.1 -58.9 -2.25 -57.1 -3.05 -55.9 Q-4.2 -56.9 -3.9 -58.05" fill="#f39044" fill-rule="evenodd" stroke="none"/>
    </g>
    <g id="shape3" transform="matrix(1.0, 0.0, 0.0, 1.0, -78.05, -32.9)">
      <path d="M84.6 33.1 Q85.65 33.15 86.5 34.25 87.45 35.35 87.5 37.2 87.45 39.0 86.6 40.2 85.75 41.45 84.6 41.7 L85.35 41.6 86.15 41.45 82.0 42.25 Q80.3 42.2 79.2 40.85 78.1 39.55 78.05 37.55 78.1 35.6 79.2 34.25 80.3 32.95 82.0 32.9 L84.6 33.1" fill="#8b2b09" fill-rule="evenodd" stroke="none"/>
      <path d="M82.35 41.65 Q81.1 41.6 80.2 40.7 79.25 39.8 79.05 38.35 81.75 39.1 84.9 39.1 L85.0 41.1 82.35 41.65" fill="#f0620e" fill-rule="evenodd" stroke="none"/>
      <path d="M82.35 33.45 L84.55 33.6 84.9 39.05 Q81.75 39.05 79.05 38.25 L79.0 37.5 Q79.05 35.75 80.0 34.65 80.9 33.5 82.35 33.45" fill="#f39044" fill-rule="evenodd" stroke="none"/>
      <path d="M87.35 37.3 Q87.35 38.9 86.55 40.0 85.85 41.0 84.55 41.05 83.2 41.0 82.35 40.0 81.5 38.95 81.45 37.35 81.5 35.75 82.35 34.7 83.2 33.65 84.55 33.6 85.85 33.65 86.55 34.65 87.35 35.7 87.35 37.3" fill="#8b2b09" fill-rule="evenodd" stroke="none"/>
      <path d="M87.05 37.3 Q87.05 38.65 86.45 39.55 85.9 40.45 84.8 40.5 83.75 40.45 83.0 39.55 82.3 38.65 82.25 37.3 82.3 35.9 83.0 35.0 83.75 34.1 84.8 34.05 85.8 34.1 86.45 35.0 87.0 35.9 87.05 37.3" fill="#f39044" fill-rule="evenodd" stroke="none"/>
      <path d="M87.05 37.75 Q87.05 38.9 86.45 39.65 85.9 40.45 84.8 40.5 83.75 40.45 83.0 39.75 82.3 38.95 82.25 37.75 82.3 36.6 83.0 35.8 83.75 35.05 84.8 35.0 85.8 35.05 86.45 35.8 87.0 36.6 87.05 37.75" fill="#f0620e" fill-rule="evenodd" stroke="none"/>
    </g>
  </defs>
</svg>
