<?xml version="1.0" encoding="UTF-8" standalone="no"?>
<svg xmlns:xlink="http://www.w3.org/1999/xlink" height="283.2px" width="222.2px" xmlns="http://www.w3.org/2000/svg">
  <g transform="matrix(1.0, 0.0, 0.0, 1.0, 100.95, 123.95)">
    <use data-characterId="224" height="283.2" transform="matrix(1.0, 0.0, 0.0, 1.0, -100.95, -123.95)" width="222.2" xlink:href="#shape0"/>
    <clipPath id="clipPath0" transform="matrix(1.0, 0.0, 0.0, 1.0, 0.0, 0.0)">
      <path d="M97.95 64.65 L-90.25 58.5 -90.25 -100.3 98.35 -98.1 97.95 64.65" fill="#000000" fill-rule="evenodd" stroke="none"/>
    </clipPath>
    <g clip-path="url(#clipPath0)">
      <use data-characterId="250" height="35.8" transform="matrix(1.0, 0.0, 0.0, 1.0, -85.8, -32.6)" width="196.45" xlink:href="#shape2"/>
      <clipPath id="clipPath1" transform="matrix(1.0316, 0.0, 0.0, 1.0316, -582.1, -789.05)">
        <path d="M492.35 736.5 L643.25 736.45 660.95 767.1 514.55 766.95 492.35 736.5" fill="#ff0000" fill-rule="evenodd" stroke="none"/>
        <path d="M492.35 736.5 L643.25 736.45 660.95 767.1 514.55 766.95 492.35 736.5 Z" fill="none" stroke="#000000" stroke-linecap="square" stroke-linejoin="bevel" stroke-opacity="0.003921569" stroke-width="0.05"/>
      </clipPath>
    </g>
    <g clip-path="url(#clipPath1)">
      <use data-characterId="252" height="31.1" transform="matrix(1.0316, 0.0, 0.0, 1.0316, -75.1122, -29.6257)" width="170.35" xlink:href="#shape4"/>
    </g>
    <g clip-path="url(#clipPath0)">
      <use data-characterId="253" height="52.95" transform="matrix(1.0, 0.0, 0.0, 1.0, -85.8, -49.85)" width="197.1" xlink:href="#shape5"/>
    </g>
    <use data-characterId="227" height="63.1" transform="matrix(1.0, 0.0, 0.0, 1.0, -72.5, 46.1)" width="170.35" xlink:href="#shape6"/>
  </g>
  <defs>
    <g id="shape0" transform="matrix(1.0, 0.0, 0.0, 1.0, 100.95, 123.95)">
      <path d="M117.4 -123.2 L120.5 -114.75 120.5 -111.4 118.65 -112.05 118.65 -107.95 120.4 -107.3 116.3 152.25 108.2 158.5 111.1 -102.05 105.35 -104.55 104.8 -113.5 105.5 -113.2 105.25 -115.7 105.05 -116.9 104.65 -119.65 117.4 -123.2 M-66.6 120.1 L-66.35 154.05 -72.1 156.9 -78.75 -94.8 -78.6 -94.8 -73.4 -90.45 -73.25 -90.6 -67.0 108.7 -69.25 108.7 -68.95 120.15 -66.6 120.1" fill="#c5cf5a" fill-rule="evenodd" stroke="none"/>
      <path d="M108.2 158.5 L98.4 157.9 98.0 120.8 -66.6 120.1 -68.95 120.15 -69.25 108.7 -67.0 108.7 98.0 107.65 98.4 -92.95 98.4 -96.95 -78.6 -94.8 -78.75 -94.8 -72.1 156.9 -81.25 154.9 -91.05 -103.1 111.1 -102.05 108.2 158.5 M-99.75 -105.0 L-99.75 -111.25 -97.65 -111.3 104.8 -113.5 105.35 -104.55 -99.75 -105.0 M-98.1 -113.8 L-100.2 -113.7 -100.2 -115.9 104.65 -119.65 105.05 -116.9 -98.1 -113.8" fill="#cdf7bb" fill-rule="evenodd" stroke="none"/>
      <path d="M-91.05 -103.1 L-99.75 -105.0 105.35 -104.55 111.1 -102.05 -91.05 -103.1 M-97.85 -112.8 L-98.1 -113.8 105.05 -116.9 105.25 -115.7 -97.85 -112.8 M-78.6 -94.8 L98.4 -96.95 98.4 -92.95 -73.25 -90.6 -73.4 -90.45 -78.6 -94.8" fill="#7e9b53" fill-rule="evenodd" stroke="none"/>
      <path d="M-97.65 -111.3 L-97.85 -112.8 105.25 -115.7 105.5 -113.2 104.8 -113.5 -97.65 -111.3" fill="#d0d97b" fill-rule="evenodd" stroke="none"/>
      <path d="M-100.2 -115.9 L-91.1 -119.7 117.4 -123.2 104.65 -119.65 -100.2 -115.9" fill="#effce9" fill-rule="evenodd" stroke="none"/>
      <path d="M117.4 -123.2 L120.5 -114.75 120.5 -111.4 118.65 -112.05 118.65 -107.95 120.4 -107.3 116.3 152.25 M98.4 157.9 L98.0 120.8 -66.6 120.1 -66.35 154.05 M-81.25 154.9 L-91.05 -103.1 -99.75 -105.0 -99.75 -111.25 -97.65 -111.3 -97.85 -112.8 M-98.1 -113.8 L-100.2 -113.7 -100.2 -115.9 -91.1 -119.7 117.4 -123.2" fill="none" stroke="#498231" stroke-linecap="round" stroke-linejoin="round" stroke-width="1.5"/>
      <path d="M116.3 152.25 L108.2 158.5 98.4 157.9 M-66.35 154.05 L-72.1 156.9 -81.25 154.9" fill="none" stroke="#bdca46" stroke-linecap="round" stroke-linejoin="round" stroke-width="1.5"/>
    </g>
    <g id="shape2" transform="matrix(1.0, 0.0, 0.0, 1.0, 85.8, 32.6)">
      <path d="M110.65 3.1 L-57.65 3.2 -85.8 -31.9 90.8 -32.6 110.65 3.1" fill="#274e27" fill-rule="evenodd" stroke="none"/>
    </g>
    <g id="shape4" transform="matrix(1.0, 0.0, 0.0, 1.0, -491.45, -736.15)">
      <path d="M654.6 759.05 L654.8 759.35 655.0 759.65 655.2 759.95 655.4 760.25 655.6 760.55 655.8 760.85 656.0 761.2 656.25 761.5 656.5 761.95 656.85 762.4 657.25 762.9 657.7 763.35 658.55 764.25 659.35 765.15 660.1 766.0 660.85 766.9 660.05 766.95 659.25 766.95 658.45 766.95 657.65 766.95 653.5 767.0 649.3 767.0 645.1 767.0 640.9 766.95 636.4 766.9 631.9 766.85 627.35 766.8 622.85 766.75 617.45 766.65 612.05 766.6 606.65 766.55 601.3 766.55 588.95 766.55 576.65 766.55 564.35 766.6 552.05 766.7 543.25 766.8 534.4 766.85 525.55 766.85 516.75 766.9 516.4 766.6 516.05 766.3 515.75 766.0 515.5 765.7 515.25 765.45 515.1 765.2 514.95 764.95 514.85 764.75 514.7 764.05 514.45 763.35 514.15 762.65 513.7 761.9 513.1 761.0 512.4 760.05 511.6 759.1 510.75 758.15 509.1 756.4 507.55 754.65 506.1 752.9 504.7 751.15 504.15 750.45 503.55 749.7 502.95 749.0 502.3 748.25 501.8 747.7 501.2 747.1 500.55 746.55 499.85 745.95 498.85 745.05 498.0 744.15 497.35 743.25 496.8 742.3 496.75 742.15 496.65 742.0 496.55 741.8 496.4 741.65 495.25 740.35 494.2 739.05 493.3 737.75 492.45 736.45 492.95 736.45 493.5 736.45 494.05 736.45 494.6 736.45 497.45 736.4 500.3 736.4 503.15 736.4 506.0 736.45 514.15 736.6 522.25 736.7 530.35 736.8 538.45 736.9 537.85 736.7 642.0 736.75 642.4 737.45 642.8 738.15 643.25 738.85 643.7 739.55 644.65 740.8 645.55 742.05 646.5 743.25 647.5 744.5 648.4 745.9 649.2 747.25 649.8 748.6 650.2 749.9 650.7 751.5 651.3 753.05 652.0 754.65 652.75 756.2 653.15 756.9 653.6 757.6 654.05 758.35 654.6 759.05" fill="#c2c29a" fill-rule="evenodd" stroke="none"/>
      <path d="M653.75 759.2 L653.65 759.05 653.05 758.3 652.55 757.55 652.15 756.85 651.8 756.2 651.05 754.7 650.35 753.15 649.75 751.55 649.2 749.9 648.8 748.6 648.25 747.3 647.45 745.95 646.5 744.55 645.85 743.7 645.2 742.9 644.6 742.05 644.0 741.25 642.7 739.55 642.25 738.85 641.8 738.15 641.4 737.5 641.15 737.05 539.4 737.0 539.3 737.05 539.1 737.1 538.85 737.15 538.6 737.15 529.8 737.1 521.55 737.0 513.7 736.85 506.15 736.7 503.35 736.7 500.5 736.7 497.7 736.7 494.8 736.7 494.55 736.7 494.25 736.7 494.0 736.75 493.75 736.75 493.65 736.75 494.35 737.9 495.35 739.2 496.35 740.45 497.4 741.65 497.55 741.85 497.65 742.0 497.75 742.2 497.8 742.35 498.35 743.3 499.0 744.2 499.85 745.05 500.8 745.95 501.55 746.55 502.25 747.15 502.8 747.7 503.3 748.25 504.15 749.25 504.55 749.75 504.95 750.2 505.35 750.7 505.7 751.15 507.15 753.0 508.65 754.75 510.15 756.5 511.7 758.15 512.65 759.15 513.45 760.1 514.1 761.05 514.65 761.95 515.15 762.65 515.45 763.4 515.7 764.1 515.85 764.75 515.95 765.0 516.1 765.25 516.25 765.45 516.45 765.7 516.7 766.0 517.0 766.3 517.35 766.6 517.4 766.65 525.4 766.65 534.3 766.6 543.1 766.55 551.85 766.45 564.15 766.4 576.5 766.3 588.85 766.3 601.15 766.3 607.0 766.35 612.5 766.4 617.75 766.45 622.75 766.5 640.8 766.75 645.35 766.75 649.6 766.75 653.65 766.75 657.5 766.7 658.3 766.7 659.1 766.7 659.7 766.7 659.2 766.1 658.45 765.2 657.6 764.3 656.75 763.4 656.35 762.95 655.95 762.5 655.6 762.05 655.3 761.55 655.05 761.2 654.8 760.9 654.6 760.55 654.45 760.25 654.35 760.1 654.25 759.95 654.15 759.8 654.05 759.65 653.95 759.5 653.85 759.35 653.75 759.2 M653.75 756.25 L654.1 756.9 654.5 757.55 655.0 758.25 655.6 759.05 655.7 759.2 655.8 759.35 655.9 759.5 656.0 759.65 656.1 759.8 656.2 759.95 656.3 760.1 656.4 760.25 656.6 760.55 656.75 760.9 657.0 761.2 657.2 761.5 657.55 762.0 657.9 762.5 658.25 762.9 658.65 763.3 659.55 764.25 660.35 765.15 661.1 766.05 661.8 766.9 661.8 767.0 661.7 767.1 661.45 767.15 661.1 767.15 660.25 767.2 659.4 767.2 658.6 767.2 657.8 767.2 654.0 767.25 649.95 767.25 645.6 767.25 641.0 767.25 623.0 767.0 617.95 766.95 612.75 766.9 607.3 766.85 601.45 766.8 589.15 766.8 576.85 766.8 564.55 766.85 552.25 766.95 543.5 767.05 534.7 767.1 525.8 767.15 516.9 767.15 516.55 767.15 516.25 767.1 515.95 767.0 515.8 766.95 515.45 766.65 515.15 766.35 514.85 766.05 514.55 765.75 514.3 765.45 514.15 765.2 514.0 765.0 513.9 764.7 513.75 764.05 513.5 763.35 513.2 762.65 512.75 761.95 512.2 761.05 511.5 760.1 510.7 759.15 509.8 758.15 508.25 756.5 506.7 754.8 505.2 753.0 503.75 751.15 503.4 750.7 503.0 750.25 502.6 749.75 502.2 749.3 501.35 748.25 500.85 747.75 500.3 747.2 499.65 746.6 498.9 746.0 497.9 745.1 497.05 744.2 496.35 743.25 495.85 742.3 495.75 742.15 495.7 742.0 495.55 741.85 495.45 741.65 494.35 740.5 493.35 739.25 492.4 737.9 491.45 736.45 491.5 736.35 491.65 736.3 491.9 736.25 492.25 736.2 492.5 736.2 492.75 736.2 492.95 736.2 493.2 736.2 493.5 736.2 493.8 736.2 494.1 736.2 494.45 736.2 497.3 736.15 500.15 736.15 503.0 736.15 505.9 736.2 513.45 736.35 521.25 736.45 529.5 736.55 536.85 736.65 536.85 736.6 536.95 736.55 537.15 736.5 537.4 736.5 537.65 736.45 641.85 736.5 642.25 736.55 642.6 736.6 642.85 736.7 643.0 736.8 643.4 737.45 643.8 738.15 644.25 738.85 644.7 739.55 645.95 741.25 646.55 742.05 647.2 742.85 647.8 743.7 648.5 744.5 649.45 745.95 650.25 747.3 650.8 748.65 651.2 749.95 651.75 751.6 652.35 753.2 653.0 754.7 653.75 756.25" fill="#bfa357" fill-rule="evenodd" stroke="none"/>
      <path d="M497.65 738.8 L497.75 738.85 497.5 738.8 497.65 738.8 M497.85 738.85 L497.95 738.9 497.75 738.85 497.85 738.85 M501.35 738.25 L501.45 738.25 501.45 738.2 501.65 738.4 501.8 738.5 501.8 738.6 501.85 738.65 501.8 738.75 501.7 738.8 501.55 738.9 501.3 738.95 501.0 739.0 500.75 739.05 500.4 739.1 500.1 739.1 499.8 739.1 499.45 739.1 499.15 739.05 498.85 739.05 498.55 739.0 498.05 738.9 498.0 738.85 497.95 738.85 497.9 738.8 497.75 738.7 497.6 738.6 497.55 738.5 497.5 738.4 497.6 738.3 497.75 738.25 498.0 738.15 498.35 738.1 498.7 738.05 499.05 738.0 499.4 738.0 499.8 738.0 500.2 738.0 500.6 738.05 501.0 738.15 501.35 738.2 501.35 738.25" fill="#000000" fill-rule="evenodd" stroke="none"/>
      <path d="M501.5 738.25 L501.55 738.4 501.45 738.5 501.2 738.6 500.9 738.7 500.45 738.8 500.05 738.85 499.55 738.9 499.0 738.9 498.45 738.9 498.0 738.85 497.6 738.8 497.15 738.7 496.75 738.6 496.55 738.5 496.45 738.4 496.4 738.25 496.45 738.15 496.55 738.05 Q496.6 737.95 496.7 737.95 L497.0 737.85 497.35 737.75 497.8 737.7 498.25 737.65 498.7 737.65 499.15 737.65 499.65 737.7 500.05 737.75 500.45 737.8 500.8 737.9 501.1 738.0 501.35 738.15 501.5 738.25" fill="#c2af11" fill-rule="evenodd" stroke="none"/>
      <path d="M638.5 738.0 L638.65 738.1 638.75 738.2 638.8 738.3 638.7 738.4 638.55 738.5 638.35 738.55 638.1 738.65 638.05 738.65 638.05 738.7 637.35 738.7 637.05 738.7 636.7 738.7 636.4 738.65 636.05 738.6 635.75 738.55 635.45 738.5 635.2 738.45 634.9 738.35 634.75 738.3 634.6 738.2 634.55 738.1 634.5 738.05 634.5 737.95 634.55 737.85 634.65 737.8 634.85 737.7 635.25 737.55 635.25 737.6 635.3 737.6 635.35 737.6 635.75 737.55 636.15 737.55 636.5 737.55 636.85 737.6 637.3 737.6 637.7 737.7 638.0 737.75 638.25 737.85 638.5 738.0 M635.25 737.55 L635.35 737.55 635.3 737.55 635.25 737.55" fill="#000000" fill-rule="evenodd" stroke="none"/>
      <path d="M637.1 737.6 L637.5 737.7 637.75 737.85 637.95 737.95 638.05 738.1 638.1 738.2 638.0 738.35 637.85 738.45 637.6 738.5 637.3 738.6 636.85 738.65 636.4 738.7 635.9 738.7 635.45 738.65 634.9 738.6 634.4 738.5 634.0 738.4 633.65 738.25 633.3 738.15 633.15 738.0 633.05 737.85 633.0 737.7 633.15 737.6 633.4 737.5 633.65 737.4 634.1 737.35 634.5 737.3 634.95 737.3 635.4 737.35 635.8 737.4 636.25 737.4 636.7 737.5 637.1 737.6" fill="#c2af11" fill-rule="evenodd" stroke="none"/>
      <path d="M652.15 765.0 L652.15 765.05 652.2 765.05 652.15 765.0 M654.7 765.6 L654.7 765.7 654.65 765.8 654.5 765.85 654.3 765.95 654.1 766.0 653.85 766.1 653.5 766.1 653.2 766.15 653.1 766.15 653.05 766.15 653.0 766.15 652.25 766.1 651.7 766.0 651.25 765.9 650.9 765.75 650.7 765.55 650.65 765.4 650.8 765.25 651.1 765.15 651.55 765.05 652.4 764.95 652.35 765.0 652.2 765.0 652.25 765.0 652.35 765.0 652.4 765.0 652.8 765.05 653.15 765.05 653.55 765.1 653.9 765.2 654.15 765.3 654.35 765.35 654.55 765.45 654.7 765.6" fill="#000000" fill-rule="evenodd" stroke="none"/>
      <path d="M653.85 765.3 L654.0 765.45 654.05 765.6 653.95 765.7 653.8 765.8 653.6 765.9 653.4 766.0 653.1 766.05 652.7 766.1 652.25 766.1 651.75 766.1 651.3 766.1 650.85 766.05 650.5 765.95 650.1 765.85 649.8 765.75 649.55 765.6 649.35 765.45 649.3 765.3 649.4 765.2 649.55 765.05 649.85 764.95 650.1 764.9 650.45 764.85 650.9 764.8 651.4 764.8 651.8 764.8 652.25 764.85 652.65 764.9 653.05 765.0 653.35 765.1 653.65 765.2 653.85 765.3" fill="#c2af11" fill-rule="evenodd" stroke="none"/>
      <path d="M522.9 765.45 L523.05 765.5 523.15 765.6 523.15 765.7 523.2 765.75 523.2 765.85 523.15 765.9 523.0 766.0 522.45 766.2 522.5 766.15 522.55 766.15 522.55 766.1 522.6 766.1 522.5 766.1 522.4 766.1 522.05 766.15 521.7 766.15 521.35 766.15 520.95 766.1 520.6 766.05 520.2 766.0 519.85 765.9 519.5 765.85 519.3 765.7 519.15 765.6 519.1 765.5 519.15 765.45 519.15 765.35 519.3 765.25 519.5 765.15 519.75 765.1 519.85 765.1 519.8 765.1 520.4 765.05 520.7 765.05 521.05 765.05 521.35 765.1 521.7 765.1 521.95 765.15 522.2 765.2 522.45 765.3 522.75 765.35 522.9 765.45" fill="#000000" fill-rule="evenodd" stroke="none"/>
      <path d="M522.65 765.7 L522.75 765.8 522.8 765.95 522.65 766.05 522.5 766.15 522.2 766.25 521.8 766.3 521.4 766.35 521.0 766.35 520.55 766.35 520.15 766.3 519.7 766.25 519.3 766.15 518.9 766.1 518.6 765.95 518.25 765.85 518.05 765.7 517.9 765.6 517.85 765.5 517.95 765.4 518.05 765.3 518.25 765.2 518.55 765.15 518.95 765.05 519.4 765.05 519.9 765.05 520.35 765.1 520.85 765.15 521.3 765.2 521.75 765.3 522.15 765.45 522.45 765.55 522.65 765.7" fill="#c2af11" fill-rule="evenodd" stroke="none"/>
    </g>
    <g id="shape5" transform="matrix(1.0, 0.0, 0.0, 1.0, 85.8, 49.85)">
      <path d="M90.8 -32.65 L91.4 -47.85 111.3 -11.65 110.65 3.1 90.8 -32.65" fill="#142814" fill-rule="evenodd" stroke="none"/>
      <path d="M90.85 -33.5 L90.85 -32.6 -85.8 -31.85 -85.15 -48.95 91.3 -49.85 90.95 -33.5 90.85 -33.5" fill="#336633" fill-rule="evenodd" stroke="none"/>
    </g>
    <g id="shape6" transform="matrix(1.0, 0.0, 0.0, 1.0, 72.5, -46.1)">
      <path d="M97.85 107.65 L-70.6 109.2 -72.5 46.35 97.85 46.1 97.85 107.65" fill="#2e5a2e" fill-rule="evenodd" stroke="none"/>
    </g>
  </defs>
</svg>
