<?xml version="1.0" encoding="UTF-8" standalone="no"?>
<svg xmlns:xlink="http://www.w3.org/1999/xlink" height="283.2px" width="222.2px" xmlns="http://www.w3.org/2000/svg">
  <g transform="matrix(1.0, 0.0, 0.0, 1.0, 100.95, 123.95)">
    <use data-characterId="224" height="283.2" transform="matrix(1.0, 0.0, 0.0, 1.0, -100.95, -123.95)" width="222.2" xlink:href="#shape0"/>
    <clipPath id="clipPath0" transform="matrix(1.0, 0.0, 0.0, 1.0, 0.0, 0.0)">
      <path d="M97.95 64.65 L-90.25 58.5 -90.25 -100.3 98.35 -98.1 97.95 64.65" fill="#000000" fill-rule="evenodd" stroke="none"/>
    </clipPath>
    <g clip-path="url(#clipPath0)">
      <clipPath id="clipPath1" transform="matrix(1.0298, 0.0, 0.0, 1.0325, -288.5, -666.4)">
        <path d="M229.3 599.55 L375.9 599.35 360.0 659.25 209.4 659.05 229.3 599.55" fill="#ff0000" fill-rule="evenodd" stroke="none"/>
        <path d="M229.3 599.55 L375.9 599.35 360.0 659.25 209.4 659.05 229.3 599.55 Z" fill="none" stroke="#000000" stroke-linecap="square" stroke-linejoin="bevel" stroke-opacity="0.003921569" stroke-width="0.05"/>
      </clipPath>
    </g>
    <g clip-path="url(#clipPath1)">
      <use data-characterId="229" height="60.7" transform="matrix(1.0316, 0.0, 0.0, 1.0316, -73.7748, -47.9783)" width="167.95" xlink:href="#shape3"/>
    </g>
    <g clip-path="url(#clipPath0)">
      <clipPath id="clipPath2" transform="matrix(1.0304, 0.0, 0.0, 1.0333, -289.05, -667.5)">
        <path d="M229.3 599.55 L375.9 599.35 360.0 659.25 209.4 659.05 229.3 599.55" fill="#ff0000" fill-rule="evenodd" stroke="none"/>
        <path d="M229.3 599.55 L375.9 599.35 360.0 659.25 209.4 659.05 229.3 599.55 Z" fill="none" stroke="#000000" stroke-linecap="square" stroke-linejoin="bevel" stroke-opacity="0.003921569" stroke-width="0.05"/>
      </clipPath>
    </g>
    <g clip-path="url(#clipPath2)">
      <use data-characterId="230" height="60.7" transform="matrix(1.0316, 0.0, 0.0, 1.0316, -74.2391, -48.5973)" width="168.05" xlink:href="#shape4"/>
    </g>
    <g clip-path="url(#clipPath0)">
      <clipPath id="clipPath3" transform="matrix(1.031, 0.0, 0.0, 1.0307, -289.4, -675.65)">
        <path d="M229.3 599.55 L375.9 599.35 360.0 659.25 209.4 659.05 229.3 599.55" fill="#ff0000" fill-rule="evenodd" stroke="none"/>
        <path d="M229.3 599.55 L375.9 599.35 360.0 659.25 209.4 659.05 229.3 599.55 Z" fill="none" stroke="#000000" stroke-linecap="square" stroke-linejoin="bevel" stroke-opacity="0.003921569" stroke-width="0.05"/>
      </clipPath>
    </g>
    <g clip-path="url(#clipPath3)">
      <use data-characterId="231" height="60.85" transform="matrix(1.0316, 0.0, 0.0, 1.0316, -74.4454, -58.3977)" width="168.25" xlink:href="#shape5"/>
    </g>
    <g clip-path="url(#clipPath0)">
      <clipPath id="clipPath4" transform="matrix(1.0316, 0.0, 0.0, 1.0316, -289.95, -676.8)">
        <path d="M229.3 599.55 L375.9 599.35 360.0 659.25 209.4 659.05 229.3 599.55" fill="#ff0000" fill-rule="evenodd" stroke="none"/>
        <path d="M229.3 599.55 L375.9 599.35 360.0 659.25 209.4 659.05 229.3 599.55 Z" fill="none" stroke="#000000" stroke-linecap="square" stroke-linejoin="bevel" stroke-opacity="0.003921569" stroke-width="0.05"/>
      </clipPath>
    </g>
    <g clip-path="url(#clipPath4)">
      <use data-characterId="232" height="60.85" transform="matrix(1.0316, 0.0, 0.0, 1.0316, -74.858, -59.0166)" width="168.35" xlink:href="#shape6"/>
    </g>
    <g clip-path="url(#clipPath0)">
      <use data-characterId="233" height="70.35" transform="matrix(1.0, 0.0, 0.0, 1.0, -86.45, -66.15)" width="194.6" xlink:href="#shape7"/>
      <use data-characterId="234" height="60.9" transform="matrix(1.0316, 0.0, 0.0, 1.0316, -76.1475, -64.2263)" width="168.75" xlink:href="#shape8"/>
      <use data-characterId="235" height="83.65" transform="matrix(1.0, 0.0, 0.0, 1.0, -86.45, -65.9)" width="195.75" xlink:href="#shape9"/>
    </g>
    <use data-characterId="227" height="63.1" transform="matrix(1.0, 0.0, 0.0, 1.0, -72.5, 46.1)" width="170.35" xlink:href="#shape10"/>
  </g>
  <defs>
    <g id="shape0" transform="matrix(1.0, 0.0, 0.0, 1.0, 100.95, 123.95)">
      <path d="M117.4 -123.2 L120.5 -114.75 120.5 -111.4 118.65 -112.05 118.65 -107.95 120.4 -107.3 116.3 152.25 108.2 158.5 111.1 -102.05 105.35 -104.55 104.8 -113.5 105.5 -113.2 105.25 -115.7 105.05 -116.9 104.65 -119.65 117.4 -123.2 M-66.6 120.1 L-66.35 154.05 -72.1 156.9 -78.75 -94.8 -78.6 -94.8 -73.4 -90.45 -73.25 -90.6 -67.0 108.7 -69.25 108.7 -68.95 120.15 -66.6 120.1" fill="#c5cf5a" fill-rule="evenodd" stroke="none"/>
      <path d="M108.2 158.5 L98.4 157.9 98.0 120.8 -66.6 120.1 -68.95 120.15 -69.25 108.7 -67.0 108.7 98.0 107.65 98.4 -92.95 98.4 -96.95 -78.6 -94.8 -78.75 -94.8 -72.1 156.9 -81.25 154.9 -91.05 -103.1 111.1 -102.05 108.2 158.5 M-99.75 -105.0 L-99.75 -111.25 -97.65 -111.3 104.8 -113.5 105.35 -104.55 -99.75 -105.0 M-98.1 -113.8 L-100.2 -113.7 -100.2 -115.9 104.65 -119.65 105.05 -116.9 -98.1 -113.8" fill="#cdf7bb" fill-rule="evenodd" stroke="none"/>
      <path d="M-91.05 -103.1 L-99.75 -105.0 105.35 -104.55 111.1 -102.05 -91.05 -103.1 M-97.85 -112.8 L-98.1 -113.8 105.05 -116.9 105.25 -115.7 -97.85 -112.8 M-78.6 -94.8 L98.4 -96.95 98.4 -92.95 -73.25 -90.6 -73.4 -90.45 -78.6 -94.8" fill="#7e9b53" fill-rule="evenodd" stroke="none"/>
      <path d="M-97.65 -111.3 L-97.85 -112.8 105.25 -115.7 105.5 -113.2 104.8 -113.5 -97.65 -111.3" fill="#d0d97b" fill-rule="evenodd" stroke="none"/>
      <path d="M-100.2 -115.9 L-91.1 -119.7 117.4 -123.2 104.65 -119.65 -100.2 -115.9" fill="#effce9" fill-rule="evenodd" stroke="none"/>
      <path d="M117.4 -123.2 L120.5 -114.75 120.5 -111.4 118.65 -112.05 118.65 -107.95 120.4 -107.3 116.3 152.25 M98.4 157.9 L98.0 120.8 -66.6 120.1 -66.35 154.05 M-81.25 154.9 L-91.05 -103.1 -99.75 -105.0 -99.75 -111.25 -97.65 -111.3 -97.85 -112.8 M-98.1 -113.8 L-100.2 -113.7 -100.2 -115.9 -91.1 -119.7 117.4 -123.2" fill="none" stroke="#498231" stroke-linecap="round" stroke-linejoin="round" stroke-width="1.5"/>
      <path d="M116.3 152.25 L108.2 158.5 98.4 157.9 M-66.35 154.05 L-72.1 156.9 -81.25 154.9" fill="none" stroke="#bdca46" stroke-linecap="round" stroke-linejoin="round" stroke-width="1.5"/>
    </g>
    <g id="shape3" transform="matrix(1.0, 0.0, 0.0, 1.0, -209.55, -609.55)">
      <path d="M374.1 610.2 L374.9 610.2 375.7 610.2 376.5 610.25 375.85 612.0 375.15 613.75 374.4 615.5 373.6 617.25 373.15 618.15 372.8 619.05 372.5 619.95 372.25 620.85 372.05 621.5 371.85 622.1 371.65 622.7 371.5 623.35 371.35 623.9 371.15 624.5 370.95 625.1 370.75 625.7 370.3 627.1 369.85 628.45 369.45 629.85 369.1 631.2 368.4 634.3 367.85 637.4 367.35 640.5 366.95 643.55 366.6 646.15 366.1 648.8 365.4 651.4 364.55 654.1 363.65 656.5 362.8 658.95 361.95 661.35 361.1 663.8 360.65 665.15 360.3 666.5 359.9 667.85 359.55 669.2 255.75 669.15 256.35 668.85 248.3 668.95 240.25 669.15 232.15 669.35 224.05 669.65 221.25 669.7 218.4 669.75 215.55 669.7 212.7 669.65 212.15 669.65 211.6 669.6 211.05 669.6 210.55 669.6 211.3 667.05 212.1 664.5 213.05 662.0 214.1 659.5 214.2 659.15 214.3 658.8 214.4 658.5 214.45 658.15 214.9 656.4 215.5 654.6 216.25 652.85 217.2 651.1 217.85 649.95 218.45 648.85 219.0 647.7 219.45 646.6 220.05 645.15 220.6 643.75 221.15 642.3 221.65 640.9 222.9 637.5 224.2 634.1 225.65 630.65 227.15 627.25 227.95 625.4 228.65 623.55 229.3 621.7 229.8 619.85 230.2 618.45 230.45 617.1 230.65 615.7 230.75 614.35 230.85 613.9 230.95 613.4 231.1 612.95 231.3 612.45 231.55 611.85 231.85 611.25 232.15 610.7 232.45 610.1 241.25 610.15 250.1 610.25 258.95 610.35 267.8 610.5 280.1 610.7 292.4 610.85 304.7 610.9 317.0 610.9 322.4 610.85 327.75 610.75 333.15 610.65 338.55 610.55 343.05 610.4 347.6 610.3 352.1 610.2 356.6 610.1 360.8 610.05 364.95 610.05 369.15 610.1 373.3 610.2 374.1 610.2" fill="#ffffcb" fill-rule="evenodd" stroke="none"/>
      <path d="M376.85 611.95 L376.15 613.65 375.4 615.5 374.55 617.3 374.15 618.1 373.8 618.95 373.5 619.9 373.2 620.85 373.0 621.5 372.8 622.1 372.65 622.7 372.5 623.3 372.4 623.6 372.3 623.9 372.2 624.2 372.1 624.5 372.0 624.8 371.9 625.1 371.85 625.4 371.75 625.7 371.2 627.2 370.75 628.6 370.4 629.95 370.1 631.2 369.45 634.15 368.85 637.15 368.35 640.25 367.95 643.5 367.6 646.05 367.1 648.65 366.4 651.35 365.55 654.1 364.95 655.7 364.35 657.3 363.8 658.9 363.25 660.5 362.05 663.8 362.1 663.8 361.65 665.15 361.3 666.5 360.9 667.85 360.55 669.2 360.4 669.4 360.15 669.55 359.8 669.65 359.4 669.7 255.6 669.65 255.3 669.65 255.1 669.6 254.9 669.5 254.85 669.4 247.45 669.5 239.25 669.65 231.5 669.9 223.95 670.15 221.1 670.2 218.25 670.25 215.4 670.2 212.55 670.15 212.2 670.15 211.9 670.15 211.6 670.1 211.3 670.1 211.1 670.1 210.85 670.1 210.6 670.1 210.4 670.1 210.0 670.05 209.75 669.95 209.6 669.8 209.55 669.6 210.35 666.8 211.25 664.2 212.15 661.8 213.15 659.45 213.25 659.15 213.35 658.8 213.4 658.5 213.45 658.2 213.95 656.3 214.55 654.5 215.35 652.75 216.25 651.0 216.95 649.8 217.55 648.65 218.05 647.6 218.5 646.6 219.3 644.6 219.65 643.65 220.0 642.75 220.35 641.8 220.7 640.9 222.0 637.3 223.35 633.8 224.75 630.45 226.2 627.2 227.0 625.3 227.75 623.4 228.35 621.6 228.85 619.85 229.25 618.45 229.5 617.05 229.7 615.7 229.8 614.35 229.9 613.85 230.0 613.4 230.15 612.9 230.35 612.4 230.6 611.8 230.9 611.2 231.2 610.6 231.5 610.05 231.7 609.85 231.95 609.7 232.25 609.65 232.65 609.6 241.5 609.65 250.4 609.75 259.2 609.85 267.95 610.0 280.25 610.2 292.55 610.35 304.85 610.4 317.15 610.4 323.0 610.35 328.45 610.25 333.65 610.15 338.65 610.05 356.7 609.6 361.3 609.55 365.6 609.55 369.65 609.6 373.45 609.7 374.25 609.7 375.1 609.7 375.9 609.7 376.75 609.75 377.1 609.8 377.35 609.9 377.5 610.1 377.5 610.25 376.85 611.95 M374.75 610.7 L374.0 610.7 373.2 610.7 369.35 610.6 365.3 610.55 361.05 610.55 356.5 610.6 338.5 611.0 333.45 611.15 328.25 611.25 322.75 611.3 316.9 611.35 304.55 611.4 292.2 611.3 279.9 611.2 267.6 610.95 258.85 610.8 250.0 610.7 241.15 610.6 233.15 610.55 233.05 610.7 232.8 611.3 232.5 611.85 232.25 612.45 232.05 612.9 231.9 613.35 231.8 613.8 231.75 614.25 231.65 615.6 231.45 616.95 231.2 618.4 230.75 619.85 230.3 621.6 229.65 623.4 228.95 625.3 228.1 627.3 226.65 630.5 225.3 633.85 223.95 637.3 222.65 640.9 222.3 641.85 221.95 642.75 221.6 643.7 221.2 644.65 220.45 646.6 220.0 647.65 219.45 648.75 218.85 649.9 218.15 651.15 217.25 652.8 216.5 654.55 215.9 656.3 215.45 658.1 215.4 658.45 215.3 658.75 215.2 659.1 215.1 659.45 214.1 661.8 213.2 664.25 212.35 666.8 211.7 669.1 211.8 669.1 212.05 669.1 212.35 669.1 212.6 669.1 212.9 669.1 215.75 669.2 218.55 669.2 221.35 669.2 224.2 669.15 231.7 668.85 239.5 668.65 247.7 668.45 256.5 668.3 256.75 668.35 257.0 668.4 257.2 668.5 257.3 668.6 257.35 668.65 358.7 668.65 358.9 667.85 359.3 666.5 359.65 665.1 360.1 663.75 361.25 660.45 361.8 658.85 362.35 657.25 362.95 655.65 363.55 654.05 364.45 651.3 365.1 648.7 365.6 646.1 365.95 643.55 366.35 640.35 366.9 637.2 367.45 634.15 368.15 631.2 368.45 629.95 368.8 628.6 369.25 627.15 369.8 625.65 369.9 625.35 369.95 625.1 370.05 624.8 370.15 624.5 370.25 624.2 370.35 623.9 370.45 623.6 370.5 623.3 370.7 622.7 370.85 622.05 371.05 621.45 371.3 620.8 371.55 619.85 371.9 618.9 372.25 618.0 372.65 617.2 373.45 615.4 374.2 613.6 374.9 611.85 375.35 610.7 374.75 610.7" fill="#fbd672" fill-rule="evenodd" stroke="none"/>
      <path d="M219.6 665.8 L219.35 666.25 219.35 666.15 219.4 666.1 219.4 666.05 219.35 666.1 219.3 666.1 219.25 666.15 218.9 666.3 218.55 666.45 218.15 666.5 217.75 666.55 217.4 666.55 217.0 666.55 216.65 666.5 216.3 666.4 215.95 666.25 215.7 666.1 215.5 665.95 215.45 665.8 215.45 665.55 215.5 665.35 215.65 665.15 215.8 664.95 215.85 664.9 215.85 664.85 215.75 664.9 215.65 664.95 215.55 664.95 215.4 665.0 216.4 664.6 216.75 664.55 217.0 664.5 217.3 664.45 217.65 664.4 218.0 664.4 218.3 664.45 218.6 664.55 218.9 664.6 219.2 664.7 219.4 664.85 219.6 664.95 219.7 665.1 219.75 665.25 219.75 665.45 219.7 665.6 219.6 665.8" fill="#000000" fill-rule="evenodd" stroke="none"/>
      <path d="M219.45 666.1 L219.3 666.35 219.1 666.6 218.75 666.8 218.4 667.0 218.05 667.1 217.6 667.2 217.15 667.2 216.7 667.25 216.25 667.25 215.8 667.15 215.3 667.05 214.95 666.9 214.7 666.7 214.5 666.5 214.4 666.3 214.35 666.05 214.4 665.85 214.5 665.6 214.7 665.4 215.05 665.15 215.5 665.0 215.9 664.9 216.35 664.8 216.9 664.8 217.45 664.85 217.9 664.9 218.35 665.0 218.8 665.2 219.1 665.4 219.35 665.6 219.45 665.85 219.45 666.1" fill="#ffe617" fill-rule="evenodd" stroke="none"/>
      <path d="M356.2 666.2 L356.2 666.35 356.1 666.55 355.95 666.8 355.7 667.0 355.45 667.2 355.15 667.35 354.75 667.5 354.35 667.55 354.0 667.6 353.6 667.65 353.2 667.6 352.85 667.55 352.75 667.55 352.75 667.6 352.3 667.3 352.15 667.2 352.0 667.05 351.95 666.85 351.95 666.7 351.95 666.55 352.05 666.35 352.15 666.2 352.35 666.0 352.6 665.85 352.9 665.75 353.15 665.6 353.45 665.55 353.8 665.45 354.1 665.4 354.4 665.35 354.7 665.35 355.45 665.4 355.4 665.45 355.35 665.45 355.35 665.5 355.4 665.5 355.5 665.5 355.75 665.65 355.95 665.8 356.15 665.95 356.2 666.2" fill="#000000" fill-rule="evenodd" stroke="none"/>
      <path d="M354.75 665.6 L355.05 665.75 355.3 665.9 355.45 666.1 355.55 666.3 355.55 666.6 355.45 666.85 355.25 667.1 355.0 667.35 354.6 667.55 354.2 667.75 353.8 667.85 353.3 667.95 352.9 668.05 352.45 668.1 352.05 668.1 351.6 668.0 351.2 667.85 350.9 667.7 350.65 667.5 350.5 667.3 350.5 667.0 350.6 666.75 350.8 666.5 351.1 666.2 351.45 665.95 351.85 665.75 352.35 665.6 352.9 665.5 353.35 665.4 353.8 665.4 354.3 665.45 354.75 665.6" fill="#ffe617" fill-rule="evenodd" stroke="none"/>
      <path d="M370.45 612.85 L370.3 613.1 370.1 613.3 369.9 613.45 369.65 613.6 369.3 613.75 368.95 613.85 368.55 613.95 368.2 613.95 368.1 613.95 368.0 613.95 368.1 614.0 368.2 614.05 368.25 614.1 367.35 613.9 366.85 613.75 366.55 613.5 366.4 613.2 366.45 612.9 366.6 612.5 366.95 612.2 367.4 612.0 368.0 611.85 368.7 611.75 368.8 611.75 368.9 611.75 369.25 611.8 369.55 611.9 369.85 612.0 370.05 612.15 370.2 612.3 370.35 612.45 370.45 612.65 370.45 612.85" fill="#000000" fill-rule="evenodd" stroke="none"/>
      <path d="M369.35 612.25 L369.6 612.45 369.75 612.65 369.8 612.9 369.8 613.15 369.65 613.4 369.45 613.65 369.2 613.85 368.85 614.05 368.45 614.2 368.05 614.3 367.65 614.4 367.2 614.4 366.75 614.4 366.3 614.35 365.95 614.2 365.65 614.05 365.4 613.85 365.2 613.65 365.1 613.4 365.1 613.15 365.3 612.85 365.55 612.55 365.9 612.35 366.25 612.15 366.65 612.0 367.05 611.9 367.5 611.85 368.0 611.85 368.45 611.9 368.85 611.95 369.15 612.1 369.35 612.25" fill="#ffe617" fill-rule="evenodd" stroke="none"/>
      <path d="M238.7 613.0 L238.55 613.15 238.3 613.3 238.0 613.45 237.75 613.55 237.5 613.65 237.2 613.7 236.85 613.75 236.55 613.75 236.25 613.75 235.65 613.7 235.6 613.65 235.3 613.5 235.1 613.35 235.0 613.2 234.95 613.0 234.9 612.85 234.95 612.65 235.1 612.45 235.3 612.25 235.65 612.05 236.0 611.9 236.35 611.8 236.7 611.7 237.1 611.65 237.45 611.6 237.8 611.65 238.15 611.7 238.2 611.7 238.25 611.75 238.35 611.75 238.3 611.7 238.3 611.65 238.25 611.6 238.75 611.95 238.9 612.05 238.95 612.2 239.0 612.35 238.95 612.5 238.95 612.65 238.85 612.85 238.7 613.0" fill="#000000" fill-rule="evenodd" stroke="none"/>
      <path d="M237.95 611.35 L238.2 611.5 238.4 611.7 238.55 611.95 238.55 612.2 238.45 612.45 238.25 612.7 237.95 612.95 237.55 613.2 237.15 613.4 236.7 613.5 236.2 613.6 235.7 613.7 235.25 613.7 234.8 613.65 234.35 613.55 234.1 613.4 233.9 613.2 233.75 613.05 233.65 612.8 233.7 612.6 233.8 612.35 234.0 612.15 234.35 611.9 234.65 611.7 235.05 611.5 235.45 611.35 235.9 611.25 236.3 611.2 236.7 611.15 237.15 611.2 237.55 611.25 237.95 611.35" fill="#ffe617" fill-rule="evenodd" stroke="none"/>
    </g>
    <g id="shape4" transform="matrix(1.0, 0.0, 0.0, 1.0, -209.1, -608.95)">
      <path d="M373.75 609.6 L374.55 609.6 375.4 609.6 376.15 609.65 375.5 611.4 374.8 613.15 374.05 614.9 373.25 616.65 372.8 617.55 372.45 618.45 372.15 619.35 371.9 620.25 371.7 620.9 371.5 621.5 371.3 622.1 371.15 622.75 370.95 623.3 370.8 623.9 370.6 624.5 370.4 625.1 369.9 626.5 369.5 627.85 369.1 629.25 368.75 630.6 368.05 633.7 367.45 636.8 367.0 639.9 366.55 642.95 366.25 645.55 365.7 648.2 365.05 650.85 364.2 653.5 363.25 655.95 362.4 658.35 361.55 660.8 360.7 663.2 360.3 664.55 359.9 665.9 359.55 667.25 359.2 668.6 255.3 668.55 255.9 668.25 247.85 668.4 239.8 668.55 231.75 668.8 223.65 669.1 220.8 669.15 217.95 669.15 215.1 669.1 212.25 669.05 211.7 669.05 211.15 669.05 210.6 669.0 210.1 669.0 210.85 666.45 211.65 663.95 212.6 661.4 213.65 658.9 213.75 658.55 213.85 658.2 213.95 657.9 214.0 657.6 214.45 655.8 215.05 654.0 215.8 652.25 216.75 650.5 217.4 649.35 218.0 648.25 218.55 647.15 219.0 646.05 219.6 644.6 220.15 643.15 220.7 641.75 221.2 640.3 222.45 636.9 223.8 633.5 225.2 630.1 226.7 626.65 227.5 624.8 228.25 622.95 228.85 621.1 229.35 619.25 229.75 617.85 230.05 616.5 230.2 615.1 230.35 613.75 230.4 613.3 230.5 612.8 230.65 612.35 230.85 611.85 231.15 611.25 231.4 610.65 231.7 610.1 232.05 609.5 240.85 609.55 249.7 609.65 258.55 609.75 267.35 609.9 279.7 610.1 292.0 610.25 304.3 610.3 316.65 610.3 322.0 610.25 327.4 610.15 332.8 610.05 338.2 609.95 342.7 609.8 347.2 609.7 351.75 609.6 356.2 609.5 360.4 609.45 364.6 609.45 368.8 609.5 372.95 609.6 373.75 609.6" fill="#ffffcb" fill-rule="evenodd" stroke="none"/>
      <path d="M376.5 611.35 L375.8 613.05 375.05 614.9 374.2 616.7 373.8 617.5 373.45 618.35 373.15 619.3 372.85 620.25 372.65 620.9 372.45 621.5 372.3 622.1 372.15 622.7 372.05 623.0 371.95 623.3 371.85 623.6 371.75 623.9 371.65 624.2 371.55 624.5 371.5 624.8 371.4 625.1 370.85 626.6 370.4 628.0 370.05 629.35 369.75 630.6 369.1 633.55 368.5 636.55 368.0 639.7 367.6 642.9 367.25 645.45 366.75 648.05 366.05 650.75 365.15 653.5 364.55 655.1 364.0 656.75 363.4 658.35 362.85 659.9 361.7 663.2 361.3 664.55 360.9 665.9 360.55 667.25 360.2 668.6 360.05 668.8 359.8 668.95 359.45 669.05 359.05 669.1 255.15 669.1 254.9 669.05 254.65 669.0 254.5 668.9 254.35 668.8 247.05 668.9 238.85 669.1 231.05 669.3 223.5 669.6 220.65 669.65 217.8 669.65 214.95 669.6 212.1 669.55 211.75 669.55 211.45 669.55 211.15 669.55 210.85 669.55 210.65 669.5 210.4 669.5 210.15 669.5 209.95 669.5 209.55 669.45 209.3 669.35 209.15 669.2 209.1 669.0 209.9 666.25 210.8 663.65 211.7 661.2 212.7 658.9 212.8 658.55 212.9 658.25 212.95 657.9 213.0 657.6 213.5 655.75 214.1 653.9 214.9 652.15 215.8 650.4 216.5 649.2 217.1 648.05 217.6 647.0 218.05 646.0 218.85 644.0 219.2 643.05 219.6 642.15 219.9 641.2 220.25 640.3 221.55 636.7 222.9 633.2 224.3 629.9 225.75 626.65 226.6 624.7 227.3 622.8 227.9 621.0 228.4 619.25 228.8 617.85 229.05 616.45 229.25 615.1 229.35 613.75 229.45 613.25 229.55 612.8 229.7 612.3 229.9 611.8 230.2 611.2 230.45 610.6 230.75 610.05 231.1 609.45 231.25 609.25 231.5 609.15 231.85 609.05 232.2 609.0 241.1 609.05 249.95 609.15 258.8 609.25 267.55 609.4 279.85 609.6 292.15 609.75 304.5 609.8 316.75 609.8 322.6 609.75 328.1 609.65 333.25 609.55 338.3 609.45 356.3 609.0 360.9 608.95 365.25 608.95 369.3 609.0 373.1 609.1 373.9 609.1 374.75 609.1 375.55 609.1 376.4 609.15 376.75 609.2 377.0 609.3 377.15 609.5 377.15 609.65 376.5 611.35 M373.65 610.1 L372.85 610.1 369.0 610.0 364.95 609.95 360.7 609.95 356.15 610.0 338.1 610.4 333.1 610.55 327.85 610.65 322.35 610.7 316.5 610.75 304.2 610.8 291.85 610.7 279.5 610.6 267.2 610.4 258.45 610.2 249.6 610.1 240.75 610.0 232.7 610.0 232.65 610.1 232.35 610.7 232.1 611.3 231.8 611.85 231.65 612.3 231.5 612.75 231.4 613.2 231.3 613.7 231.2 615.0 231.0 616.35 230.75 617.8 230.35 619.25 229.85 621.0 229.25 622.85 228.5 624.75 227.7 626.7 226.25 629.95 224.85 633.25 223.5 636.7 222.2 640.3 221.85 641.25 221.5 642.15 221.15 643.1 220.8 644.05 220.0 646.05 219.55 647.05 219.05 648.15 218.4 649.3 217.7 650.55 216.8 652.25 216.05 653.95 215.45 655.75 215.0 657.55 214.95 657.85 214.85 658.2 214.75 658.55 214.65 658.9 213.65 661.2 212.75 663.65 211.9 666.25 211.25 668.5 211.35 668.5 211.6 668.5 211.9 668.55 212.15 668.55 212.45 668.55 215.3 668.6 218.1 668.6 220.95 668.6 223.75 668.55 231.25 668.3 239.05 668.05 247.25 667.9 256.05 667.75 256.35 667.75 256.55 667.8 256.75 667.9 256.9 668.05 358.35 668.1 358.55 667.25 358.9 665.9 359.3 664.55 359.7 663.15 359.75 663.15 360.9 659.9 361.45 658.3 362.0 656.7 362.6 655.05 363.2 653.45 364.05 650.75 364.75 648.1 365.25 645.5 365.6 643.0 366.0 639.75 366.5 636.6 367.1 633.6 367.75 630.6 368.05 629.35 368.45 628.0 368.9 626.55 369.45 625.05 369.5 624.8 369.6 624.5 369.7 624.2 369.8 623.9 369.9 623.6 370.0 623.3 370.1 623.0 370.15 622.7 370.35 622.1 370.5 621.45 370.7 620.85 370.95 620.2 371.2 619.25 371.55 618.3 371.9 617.4 372.3 616.6 373.1 614.8 373.85 613.0 374.55 611.25 375.0 610.1 374.4 610.1 373.65 610.1" fill="#fbd672" fill-rule="evenodd" stroke="none"/>
      <path d="M219.2 665.25 L219.0 665.6 218.95 665.7 218.95 665.6 219.0 665.6 219.0 665.5 218.95 665.55 218.9 665.55 218.85 665.6 218.5 665.75 218.15 665.9 217.75 665.95 217.35 666.0 217.0 666.0 216.6 666.0 216.25 665.95 215.9 665.85 215.55 665.7 215.3 665.55 215.1 665.4 215.05 665.25 215.05 665.0 215.1 664.8 215.25 664.6 215.4 664.4 215.4 664.35 215.45 664.35 215.45 664.3 215.35 664.35 215.25 664.4 215.15 664.4 215.0 664.45 216.0 664.05 216.35 664.0 216.6 663.95 216.9 663.9 217.25 663.85 217.6 663.85 217.9 663.9 218.2 664.0 218.5 664.05 218.8 664.15 219.0 664.3 219.2 664.4 219.3 664.55 219.35 664.7 219.35 664.9 219.3 665.05 219.2 665.25" fill="#000000" fill-rule="evenodd" stroke="none"/>
      <path d="M219.05 665.5 L218.9 665.75 218.7 666.0 218.35 666.2 218.0 666.4 217.65 666.5 217.2 666.6 216.75 666.6 216.3 666.65 215.85 666.65 215.4 666.55 214.9 666.45 214.55 666.3 214.3 666.1 214.1 665.9 214.0 665.7 213.95 665.45 214.0 665.25 214.1 665.0 214.3 664.8 214.65 664.55 215.1 664.4 215.5 664.3 215.95 664.2 216.5 664.2 217.05 664.25 217.55 664.3 217.95 664.4 218.4 664.6 218.7 664.8 218.95 665.0 219.05 665.25 219.05 665.5" fill="#ffe617" fill-rule="evenodd" stroke="none"/>
      <path d="M355.9 665.6 L355.9 665.75 355.8 665.95 355.65 666.2 355.4 666.4 355.15 666.6 354.85 666.75 354.45 666.9 354.05 666.95 353.7 667.0 353.3 667.05 352.9 667.0 352.55 666.95 352.45 666.95 352.45 667.0 352.0 666.7 351.85 666.6 351.7 666.45 351.65 666.25 351.65 666.1 351.65 665.95 351.75 665.75 351.85 665.6 352.05 665.4 352.3 665.25 352.6 665.15 352.85 665.0 353.15 664.95 353.5 664.85 353.8 664.8 354.1 664.75 354.4 664.75 355.15 664.8 355.1 664.85 355.05 664.85 355.05 664.9 355.1 664.9 355.2 664.9 355.45 665.05 355.65 665.2 355.85 665.35 355.9 665.6" fill="#000000" fill-rule="evenodd" stroke="none"/>
      <path d="M354.45 665.05 L354.75 665.2 355.0 665.35 355.15 665.55 355.25 665.75 355.25 666.05 355.15 666.3 354.95 666.55 354.7 666.8 354.3 667.0 353.9 667.2 353.5 667.3 353.0 667.4 352.6 667.5 352.15 667.55 351.75 667.55 351.3 667.45 350.9 667.35 350.6 667.15 350.35 666.95 350.2 666.75 350.2 666.45 350.3 666.2 350.5 665.95 350.8 665.65 351.15 665.4 351.55 665.2 352.05 665.05 352.6 664.95 353.05 664.85 353.5 664.85 354.0 664.9 354.45 665.05" fill="#ffe617" fill-rule="evenodd" stroke="none"/>
      <path d="M370.15 612.25 L370.0 612.5 369.8 612.7 369.6 612.85 369.35 613.0 369.0 613.15 368.65 613.25 368.25 613.35 367.9 613.35 367.8 613.35 367.7 613.35 367.8 613.4 367.9 613.45 367.95 613.5 367.05 613.3 366.55 613.15 366.25 612.9 366.1 612.6 366.15 612.3 366.3 611.9 366.65 611.6 367.1 611.4 367.7 611.25 368.4 611.15 368.5 611.15 368.6 611.15 368.95 611.2 369.25 611.3 369.55 611.4 369.75 611.55 369.9 611.7 370.05 611.85 370.15 612.05 370.15 612.25" fill="#000000" fill-rule="evenodd" stroke="none"/>
      <path d="M369.0 611.65 L369.25 611.85 369.4 612.05 369.5 612.3 369.45 612.55 369.3 612.8 369.1 613.05 368.85 613.25 368.55 613.45 368.1 613.6 367.7 613.7 367.3 613.8 366.85 613.8 366.4 613.8 365.95 613.75 365.6 613.65 365.3 613.45 365.05 613.25 364.85 613.05 364.75 612.8 364.75 612.55 364.95 612.25 365.2 611.95 365.55 611.75 365.9 611.55 366.3 611.4 366.7 611.3 367.15 611.25 367.65 611.25 368.1 611.3 368.5 611.35 368.8 611.5 369.0 611.65" fill="#ffe617" fill-rule="evenodd" stroke="none"/>
      <path d="M238.35 612.4 L238.15 612.55 237.9 612.7 237.65 612.85 237.35 612.95 237.1 613.05 236.8 613.1 236.45 613.15 236.15 613.15 235.85 613.15 235.25 613.1 235.2 613.05 234.9 612.9 234.7 612.75 234.6 612.6 234.55 612.4 234.5 612.25 234.55 612.05 234.7 611.85 234.9 611.65 235.25 611.45 235.6 611.3 235.95 611.2 236.3 611.1 236.7 611.05 237.05 611.0 237.4 611.05 237.75 611.1 237.8 611.1 237.85 611.15 237.95 611.15 237.9 611.1 237.9 611.05 237.85 611.0 238.35 611.35 238.5 611.45 238.6 611.6 238.6 611.75 238.55 611.9 238.55 612.1 238.45 612.25 238.35 612.4" fill="#000000" fill-rule="evenodd" stroke="none"/>
      <path d="M237.55 610.75 L237.85 610.9 238.0 611.1 238.15 611.35 238.15 611.6 238.05 611.85 237.85 612.1 237.55 612.35 237.15 612.6 236.75 612.8 236.3 612.9 235.8 613.0 235.3 613.1 234.85 613.1 234.4 613.05 233.95 612.95 233.7 612.8 233.5 612.6 233.35 612.45 233.25 612.2 233.3 612.0 233.4 611.75 233.6 611.55 233.95 611.3 234.25 611.1 234.65 610.9 235.05 610.75 235.5 610.65 235.9 610.6 236.3 610.55 236.75 610.6 237.15 610.65 237.55 610.75" fill="#ffe617" fill-rule="evenodd" stroke="none"/>
    </g>
    <g id="shape5" transform="matrix(1.0, 0.0, 0.0, 1.0, -208.9, -599.45)">
      <path d="M374.6 600.0 L375.15 600.05 375.65 600.05 376.15 600.05 375.65 602.45 375.0 604.9 374.25 607.3 373.4 609.75 373.3 610.1 373.25 610.4 373.2 610.7 373.15 611.05 372.85 612.75 372.35 614.5 371.75 616.2 370.9 617.95 370.35 619.05 369.8 620.15 369.35 621.25 368.95 622.35 368.5 623.8 368.0 625.2 367.55 626.6 367.15 628.05 366.1 631.45 365.0 634.9 363.8 638.4 362.45 641.9 361.75 643.8 361.15 645.7 360.65 647.65 360.2 649.55 359.9 651.0 359.7 652.45 359.6 653.9 359.6 655.35 359.55 655.8 359.45 656.3 359.35 656.8 359.15 657.35 358.9 657.95 358.65 658.55 358.4 659.2 358.1 659.8 348.9 659.75 339.7 659.6 330.5 659.45 321.35 659.3 308.6 659.05 295.9 658.85 283.25 658.75 270.6 658.75 265.1 658.8 259.6 658.85 254.1 658.95 248.55 659.1 243.95 659.2 239.35 659.3 234.75 659.4 230.15 659.45 225.9 659.5 221.6 659.5 217.35 659.45 213.15 659.35 212.35 659.35 211.5 659.35 210.7 659.3 209.9 659.3 210.75 657.45 211.6 655.65 212.5 653.85 213.4 652.0 213.9 651.1 214.35 650.15 214.7 649.25 215.05 648.3 215.3 647.65 215.55 647.05 215.8 646.4 216.0 645.8 216.2 645.15 216.45 644.55 216.7 643.95 216.9 643.35 217.5 641.95 218.05 640.55 218.55 639.2 218.95 637.8 219.85 634.7 220.65 631.6 221.35 628.55 221.95 625.55 222.5 622.95 Q222.75 621.7 223.15 620.4 L224.0 617.85 225.0 615.3 226.05 612.95 227.05 610.6 228.0 608.3 229.0 606.0 229.45 604.7 229.9 603.45 230.35 602.15 230.8 600.9 331.65 600.6 331.1 600.9 339.0 600.75 346.9 600.6 354.85 600.35 362.8 600.05 365.6 599.95 368.4 599.95 371.2 599.95 374.05 600.0 374.6 600.0" fill="#ffffcb" fill-rule="evenodd" stroke="none"/>
      <path d="M376.55 602.65 L375.9 605.15 375.2 607.5 374.4 609.75 374.3 610.05 374.2 610.4 374.15 610.7 374.15 611.0 373.8 612.8 373.35 614.55 372.7 616.3 371.9 618.0 371.25 619.2 370.75 620.3 370.3 621.35 369.95 622.35 369.3 624.35 369.0 625.25 368.7 626.2 368.4 627.1 368.15 628.05 367.05 631.65 365.9 635.15 364.7 638.55 363.45 641.9 362.75 643.9 362.1 645.85 361.6 647.7 361.25 649.55 Q361.0 650.3 360.9 651.0 L360.7 652.45 360.65 653.9 360.6 655.3 360.55 655.8 360.45 656.3 360.35 656.8 360.15 657.35 359.9 657.95 359.65 658.6 359.4 659.2 359.05 659.85 358.9 660.05 358.65 660.15 358.3 660.25 357.95 660.3 348.7 660.25 339.45 660.1 330.25 659.95 321.15 659.8 308.45 659.55 295.75 659.35 283.1 659.25 270.5 659.25 264.5 659.3 258.9 659.35 253.55 659.45 248.45 659.6 230.05 659.95 225.35 660.0 220.95 660.0 216.85 659.95 213.0 659.85 212.15 659.85 211.3 659.85 210.5 659.8 209.65 659.8 209.3 659.75 209.05 659.6 208.9 659.45 208.95 659.25 209.7 657.5 210.55 655.7 211.5 653.8 212.45 651.95 212.9 651.1 213.35 650.2 213.7 649.3 214.1 648.25 214.35 647.65 214.6 647.0 214.8 646.4 215.0 645.75 215.1 645.45 215.25 645.15 215.35 644.85 215.45 644.55 215.6 644.25 215.7 643.95 215.8 643.65 215.95 643.3 216.55 641.8 217.1 640.4 217.6 639.05 218.0 637.8 218.85 634.8 219.65 631.8 220.35 628.75 221.0 625.55 221.5 623.05 222.15 620.5 223.0 617.9 224.05 615.25 224.75 613.7 225.4 612.15 226.05 610.6 226.7 609.1 228.05 605.95 228.5 604.7 228.95 603.4 229.4 602.15 229.8 600.9 229.95 600.7 230.2 600.55 230.55 600.45 230.95 600.4 331.8 600.1 332.05 600.15 332.3 600.2 332.5 600.3 332.6 600.4 339.8 600.25 347.85 600.05 355.5 599.8 362.9 599.55 365.7 599.45 368.5 599.45 371.35 599.45 374.15 599.5 374.5 599.5 374.8 599.5 375.1 599.55 375.35 599.55 375.6 599.55 375.85 599.55 376.05 599.55 376.3 599.55 376.65 599.6 376.95 599.7 377.1 599.85 377.15 600.05 376.55 602.65 M374.7 600.5 L374.45 600.5 374.2 600.5 373.9 600.5 371.05 600.45 368.25 600.4 365.5 600.45 362.7 600.5 355.35 600.8 347.65 601.05 339.6 601.2 331.0 601.4 330.7 601.35 330.45 601.3 330.3 601.2 330.15 601.1 231.6 601.35 231.35 602.15 230.9 603.45 230.45 604.7 229.95 606.0 228.65 609.15 228.0 610.65 227.35 612.2 226.65 613.75 225.95 615.3 224.95 617.9 224.1 620.5 223.45 623.0 222.95 625.5 222.3 628.65 221.6 631.75 220.8 634.8 219.95 637.75 219.55 639.05 219.1 640.4 218.5 641.85 217.85 643.4 217.75 643.65 217.65 643.95 217.55 644.25 217.45 644.6 217.3 644.85 217.2 645.15 217.1 645.45 217.0 645.75 216.75 646.4 216.55 647.05 216.3 647.7 216.05 648.35 215.65 649.35 215.25 650.3 214.85 651.2 214.4 652.05 213.4 653.9 212.5 655.8 211.65 657.6 211.1 658.8 211.7 658.8 212.5 658.8 213.3 658.8 217.2 658.95 221.3 659.0 225.65 659.0 230.3 658.95 248.65 658.55 253.8 658.45 259.15 658.35 264.75 658.3 270.75 658.25 283.4 658.25 296.1 658.35 308.85 658.5 321.55 658.75 330.6 658.95 339.8 659.1 349.0 659.2 357.35 659.25 357.4 659.1 357.65 658.5 357.9 657.9 358.15 657.3 358.35 656.8 358.45 656.35 358.5 655.85 358.55 655.35 358.6 653.95 358.7 652.55 358.9 651.05 359.25 649.55 359.6 647.7 360.15 645.8 360.75 643.85 361.5 641.85 362.75 638.5 363.95 635.15 365.1 631.65 366.15 628.0 366.45 627.1 366.7 626.15 367.0 625.25 367.35 624.3 368.0 622.35 368.35 621.3 368.8 620.25 369.35 619.1 369.95 617.85 370.75 616.2 371.35 614.55 371.85 612.8 372.15 611.05 372.2 610.75 372.25 610.4 372.35 610.1 372.4 609.75 373.2 607.5 373.95 605.15 374.6 602.7 375.1 600.5 374.95 600.5 374.7 600.5 M330.8 600.4 L330.8 600.45 331.0 600.3 330.8 600.4" fill="#fbd672" fill-rule="evenodd" stroke="none"/>
      <path d="M371.45 604.25 L371.25 604.45 371.25 604.5 371.2 604.5 371.15 604.55 371.25 604.55 371.3 604.5 371.4 604.45 371.55 604.4 371.65 604.4 371.25 604.55 370.7 604.75 370.4 604.85 370.1 604.9 369.8 604.95 369.45 604.95 369.15 604.95 368.85 604.9 368.55 604.85 368.25 604.8 367.95 604.65 367.7 604.55 367.5 604.45 367.4 604.3 367.35 604.15 367.35 604.0 367.4 603.85 367.45 603.65 367.7 603.15 367.7 603.25 367.65 603.3 367.65 603.4 367.7 603.35 367.75 603.35 367.75 603.3 368.1 603.15 368.45 603.0 368.8 602.95 369.25 602.9 369.6 602.9 369.95 602.9 370.3 602.95 370.65 603.05 371.0 603.2 371.3 603.35 371.5 603.5 371.55 603.65 371.55 603.85 371.5 604.05 371.45 604.25" fill="#000000" fill-rule="evenodd" stroke="none"/>
      <path d="M372.65 603.6 L372.55 603.85 372.4 604.05 372.0 604.25 371.6 604.4 371.2 604.5 370.75 604.6 370.25 604.6 369.7 604.6 369.2 604.5 368.75 604.4 368.35 604.25 368.0 604.05 367.75 603.85 367.6 603.6 367.65 603.4 367.75 603.15 367.95 602.9 368.25 602.7 368.6 602.5 368.95 602.4 369.35 602.3 369.8 602.3 370.25 602.25 370.7 602.25 371.15 602.35 371.65 602.45 372.0 602.6 372.3 602.75 372.5 602.95 372.6 603.15 372.65 603.4 372.65 603.6" fill="#ffe617" fill-rule="evenodd" stroke="none"/>
      <path d="M237.7 603.7 L237.5 603.85 237.25 604.0 237.0 604.1 236.7 604.25 236.4 604.3 236.1 604.4 235.8 604.45 235.5 604.45 235.2 604.5 234.45 604.45 234.45 604.4 234.55 604.4 234.65 604.4 234.6 604.35 234.45 604.35 234.2 604.2 234.0 604.1 233.85 603.9 233.8 603.7 233.85 603.55 233.9 603.35 234.1 603.15 234.35 602.95 Q234.45 602.8 234.6 602.75 L234.9 602.6 235.25 602.5 235.7 602.4 236.0 602.35 236.4 602.3 236.75 602.35 237.15 602.4 237.25 602.4 237.2 602.35 237.65 602.65 237.8 602.75 237.9 602.9 237.95 603.05 237.9 603.2 237.9 603.35 237.85 603.5 237.7 603.7 M237.2 602.3 L237.15 602.3 237.1 602.25 237.2 602.3" fill="#000000" fill-rule="evenodd" stroke="none"/>
      <path d="M238.75 602.05 L239.05 602.2 239.25 602.4 239.4 602.6 239.35 602.85 239.25 603.1 239.05 603.4 238.75 603.65 238.4 603.85 238.0 604.05 237.5 604.2 237.0 604.3 236.55 604.4 236.1 604.4 235.65 604.35 235.2 604.2 234.9 604.1 234.7 603.95 234.55 603.75 234.45 603.55 234.5 603.3 234.6 603.05 234.8 602.8 235.05 602.55 235.45 602.35 235.85 602.2 236.25 602.1 236.7 602.0 237.1 601.9 237.55 601.85 237.95 601.85 238.35 601.95 238.75 602.05" fill="#ffe617" fill-rule="evenodd" stroke="none"/>
      <path d="M220.35 656.15 L220.35 656.55 220.1 656.9 219.75 657.2 219.3 657.45 218.7 657.6 217.95 657.75 217.95 657.7 217.85 657.7 217.75 657.7 217.4 657.65 217.1 657.55 216.8 657.45 216.6 657.3 216.45 657.15 216.3 656.95 216.25 656.75 216.3 656.5 216.45 656.3 216.65 656.1 216.85 655.9 217.1 655.75 217.5 655.6 217.85 655.5 218.25 655.4 218.65 655.4 218.8 655.4 218.7 655.35 218.65 655.3 219.5 655.45 219.95 655.65 220.25 655.9 220.35 656.15" fill="#000000" fill-rule="evenodd" stroke="none"/>
      <path d="M221.2 655.3 L221.45 655.5 221.65 655.75 221.7 656.0 221.7 656.3 221.45 656.6 221.2 656.85 220.85 657.1 220.45 657.3 220.05 657.45 219.65 657.55 219.15 657.6 218.65 657.6 218.2 657.55 217.8 657.5 217.55 657.35 217.3 657.2 217.1 657.0 216.95 656.75 216.9 656.55 216.95 656.25 217.1 656.0 217.35 655.75 217.6 655.5 217.95 655.3 218.35 655.15 218.8 655.05 219.2 655.0 219.65 654.95 220.15 654.95 220.55 655.05 220.95 655.15 221.2 655.3" fill="#ffe617" fill-rule="evenodd" stroke="none"/>
      <path d="M355.2 657.3 L355.0 657.5 354.65 657.7 354.3 657.85 353.95 658.0 353.55 658.1 353.15 658.15 352.8 658.15 352.4 658.15 352.05 658.05 351.95 658.05 351.9 658.0 351.85 658.0 351.9 658.1 351.95 658.15 351.95 658.2 352.0 658.25 351.4 657.8 351.25 657.7 351.15 657.55 351.15 657.4 351.2 657.2 351.2 657.05 351.25 656.85 351.4 656.7 351.55 656.55 351.85 656.4 352.1 656.25 352.35 656.1 352.6 656.0 352.95 655.95 353.3 655.9 353.6 655.9 353.95 655.9 354.5 655.95 354.55 655.95 354.55 656.0 354.6 656.0 354.9 656.15 355.1 656.3 355.25 656.5 355.3 656.7 355.35 656.9 355.3 657.1 355.2 657.3" fill="#000000" fill-rule="evenodd" stroke="none"/>
      <path d="M355.85 656.1 L356.15 656.3 356.4 656.45 356.55 656.65 356.65 656.9 356.65 657.1 356.5 657.35 356.3 657.6 356.0 657.85 355.7 658.1 355.3 658.25 354.85 658.4 354.4 658.55 354.0 658.6 353.55 658.65 353.15 658.6 352.7 658.5 352.3 658.4 352.0 658.25 351.75 658.05 351.6 657.8 351.6 657.55 351.7 657.3 351.9 657.0 352.2 656.7 352.6 656.5 353.0 656.3 353.45 656.15 353.95 656.05 354.45 655.95 354.95 655.95 355.45 656.0 355.85 656.1" fill="#ffe617" fill-rule="evenodd" stroke="none"/>
    </g>
    <g id="shape6" transform="matrix(1.0, 0.0, 0.0, 1.0, -208.5, -598.85)">
      <path d="M374.3 599.4 L374.85 599.45 375.35 599.45 375.85 599.45 375.35 601.85 374.7 604.3 373.95 606.7 373.1 609.15 373.0 609.5 372.95 609.8 372.85 610.15 372.85 610.45 372.55 612.15 372.05 613.9 371.45 615.65 370.6 617.35 370.05 618.45 369.5 619.55 369.05 620.65 368.65 621.75 368.2 623.2 367.7 624.6 367.25 626.05 366.85 627.45 365.8 630.9 364.7 634.35 363.5 637.8 362.15 641.3 361.45 643.2 360.85 645.1 360.3 647.05 359.9 648.95 359.6 650.4 359.4 651.85 359.3 653.3 359.25 654.75 359.2 655.2 359.15 655.7 359.0 656.2 358.85 656.75 358.6 657.35 358.35 658.0 358.05 658.6 357.75 659.2 348.55 659.15 339.35 659.05 330.15 658.9 321.0 658.7 308.25 658.45 295.55 658.3 282.9 658.2 270.25 658.15 264.75 658.2 259.2 658.3 253.7 658.4 248.15 658.5 243.55 658.6 238.95 658.7 234.35 658.8 229.75 658.9 225.5 658.95 221.2 658.95 216.95 658.9 212.75 658.75 211.95 658.75 211.1 658.75 210.3 658.75 209.5 658.7 210.35 656.9 211.2 655.05 212.1 653.25 213.0 651.4 213.5 650.5 213.95 649.55 214.35 648.65 214.65 647.7 214.9 647.1 215.15 646.45 215.4 645.85 215.6 645.2 215.8 644.6 216.05 644.0 216.3 643.4 216.5 642.8 217.1 641.4 217.65 640.0 218.15 638.6 218.55 637.2 219.45 634.1 220.25 631.0 220.95 627.95 221.6 624.95 222.1 622.4 222.75 619.8 223.6 617.25 224.65 614.7 225.65 612.35 226.65 610.0 227.65 607.7 228.6 605.4 229.1 604.15 229.55 602.85 230.0 601.6 230.4 600.3 331.35 600.0 330.75 600.3 338.65 600.15 346.6 600.0 354.5 599.75 362.5 599.45 365.3 599.35 368.1 599.35 370.9 599.35 373.7 599.4 374.3 599.4" fill="#ffffcb" fill-rule="evenodd" stroke="none"/>
      <path d="M375.6 604.55 L374.9 606.9 374.1 609.15 374.0 609.45 373.9 609.8 373.85 610.1 373.85 610.4 373.5 612.2 373.0 613.95 372.4 615.7 371.6 617.4 370.95 618.6 370.45 619.7 370.0 620.75 369.65 621.75 369.0 623.75 368.65 624.7 368.4 625.6 368.1 626.5 367.85 627.45 366.75 631.05 365.6 634.6 364.4 638.0 363.15 641.3 362.4 643.3 361.8 645.25 361.3 647.15 360.9 648.95 360.6 650.45 360.4 651.9 360.3 653.3 360.3 654.7 360.2 655.2 360.15 655.75 360.0 656.25 359.85 656.75 359.6 657.4 359.35 658.0 359.05 658.65 358.75 659.25 358.6 659.45 358.35 659.6 358.0 659.7 357.65 659.7 348.35 659.65 339.1 659.55 329.95 659.4 320.85 659.2 308.15 658.95 295.4 658.8 282.7 658.7 270.1 658.7 264.1 658.7 258.5 658.8 253.2 658.9 248.05 659.0 229.65 659.4 224.95 659.45 220.55 659.45 216.45 659.4 212.6 659.25 211.75 659.25 210.9 659.25 210.1 659.25 209.25 659.2 208.9 659.15 208.65 659.05 208.5 658.85 208.55 658.65 209.3 656.95 210.15 655.1 211.1 653.25 212.05 651.35 212.5 650.5 212.95 649.65 213.3 648.7 213.7 647.7 213.95 647.05 214.2 646.45 214.4 645.8 214.6 645.2 214.75 644.9 214.85 644.55 214.95 644.25 215.1 643.95 215.2 643.65 215.3 643.35 215.45 643.05 215.55 642.75 216.2 641.25 216.75 639.8 217.2 638.45 217.6 637.2 218.45 634.25 219.25 631.25 219.95 628.15 220.6 624.95 221.1 622.45 221.75 619.9 222.65 617.3 223.65 614.65 224.35 613.1 225.05 611.55 225.7 610.0 226.35 608.5 227.65 605.35 227.7 605.35 228.15 604.1 228.6 602.85 229.0 601.55 229.45 600.3 229.6 600.1 229.85 599.95 230.2 599.85 230.55 599.8 331.45 599.5 331.75 599.55 331.95 599.6 332.15 599.7 332.3 599.8 339.45 599.65 347.55 599.45 355.2 599.2 362.6 598.95 365.4 598.85 368.2 598.85 371.05 598.85 373.85 598.9 374.2 598.9 374.5 598.9 374.8 598.95 375.05 598.95 375.3 598.95 375.55 598.95 375.75 598.95 376.0 598.95 376.35 599.0 376.65 599.1 376.8 599.25 376.85 599.45 376.25 602.05 375.6 604.55 M374.4 599.9 L374.15 599.9 373.9 599.9 373.6 599.9 370.75 599.85 367.95 599.85 365.2 599.85 362.4 599.9 355.0 600.2 347.35 600.45 339.3 600.65 330.65 600.8 330.4 600.75 330.15 600.7 329.95 600.6 329.85 600.5 231.2 600.8 230.95 601.55 230.5 602.85 230.05 604.1 229.55 605.4 228.25 608.55 227.6 610.05 226.95 611.6 226.3 613.15 225.6 614.7 224.55 617.35 223.75 619.9 223.05 622.4 222.6 624.9 221.95 628.1 221.2 631.2 220.4 634.2 219.55 637.2 219.15 638.45 218.7 639.85 218.15 641.25 217.5 642.8 217.4 643.1 217.25 643.4 217.15 643.7 217.05 644.0 216.9 644.3 216.8 644.6 216.7 644.9 216.6 645.2 216.35 645.85 216.15 646.45 215.9 647.1 215.65 647.75 215.25 648.75 214.9 649.7 214.45 650.6 214.0 651.5 213.0 653.35 212.1 655.2 211.25 657.0 210.75 658.25 211.3 658.25 212.1 658.25 212.9 658.25 216.8 658.35 220.9 658.4 225.25 658.4 229.9 658.35 248.3 658.0 253.45 657.85 258.75 657.75 264.4 657.7 270.4 657.65 283.05 657.65 295.75 657.75 308.5 657.95 321.2 658.2 330.3 658.35 339.45 658.5 348.65 658.6 357.05 658.7 357.1 658.55 357.35 657.9 357.6 657.3 357.85 656.7 358.0 656.2 358.1 655.75 358.2 655.25 358.25 654.75 358.3 653.4 358.4 651.95 358.6 650.45 358.9 648.95 359.3 647.1 359.8 645.2 360.45 643.25 361.15 641.25 362.45 637.95 363.65 634.55 364.75 631.05 365.85 627.45 366.1 626.5 366.4 625.6 366.7 624.65 367.0 623.7 367.65 621.75 368.05 620.7 368.5 619.65 369.05 618.5 369.65 617.25 370.45 615.65 371.05 613.95 371.55 612.2 371.85 610.45 371.9 610.15 371.95 609.8 372.0 609.5 372.1 609.15 372.9 606.9 373.65 604.55 374.3 602.1 374.8 599.9 374.65 599.9 374.4 599.9" fill="#fbd672" fill-rule="evenodd" stroke="none"/>
      <path d="M371.15 603.65 L370.95 603.85 370.95 603.9 370.9 603.9 370.85 603.95 370.95 603.95 371.05 603.9 371.1 603.85 371.25 603.8 371.35 603.8 370.95 603.95 370.4 604.15 370.1 604.25 369.8 604.3 369.5 604.35 369.15 604.35 368.85 604.35 368.55 604.3 368.25 604.25 367.95 604.2 367.65 604.05 367.4 603.95 367.2 603.85 367.1 603.7 367.05 603.55 367.05 603.4 367.1 603.25 367.15 603.05 367.4 602.55 367.4 602.65 367.35 602.7 367.35 602.8 367.4 602.75 367.45 602.75 367.45 602.7 Q367.6 602.6 367.8 602.55 L368.15 602.4 368.5 602.35 368.95 602.3 369.3 602.3 369.65 602.3 370.0 602.35 370.35 602.45 370.7 602.6 371.0 602.75 371.2 602.9 371.3 603.05 371.25 603.25 371.25 603.45 371.15 603.65" fill="#000000" fill-rule="evenodd" stroke="none"/>
      <path d="M372.3 602.8 L372.3 603.0 372.2 603.2 372.05 603.45 371.65 603.65 371.25 603.8 370.85 603.9 370.4 604.0 369.9 604.0 369.35 604.0 368.85 603.9 368.4 603.8 368.0 603.65 367.65 603.45 367.4 603.25 367.25 603.0 367.3 602.8 367.4 602.55 367.6 602.3 367.9 602.1 368.25 601.9 368.6 601.8 369.0 601.7 369.45 601.7 369.9 601.65 370.35 601.65 370.8 601.75 371.3 601.85 371.65 602.0 371.95 602.15 372.15 602.35 372.25 602.55 372.3 602.8" fill="#ffe617" fill-rule="evenodd" stroke="none"/>
      <path d="M237.3 603.1 L237.1 603.25 236.85 603.4 236.6 603.5 236.3 603.65 236.0 603.7 235.7 603.8 235.4 603.85 235.1 603.85 234.8 603.9 234.05 603.85 234.05 603.8 234.15 603.8 234.25 603.8 234.2 603.75 234.05 603.75 233.8 603.6 233.6 603.5 233.45 603.3 233.4 603.1 233.45 602.95 233.5 602.75 233.7 602.55 233.95 602.35 234.2 602.15 234.5 602.0 234.85 601.9 235.3 601.8 235.6 601.75 236.0 601.7 236.35 601.75 236.75 601.8 236.85 601.8 236.8 601.75 237.25 602.05 237.4 602.15 237.5 602.3 237.55 602.45 237.5 602.6 237.5 602.75 237.45 602.9 237.3 603.1 M236.8 601.7 L236.75 601.7 236.7 601.65 236.8 601.7" fill="#000000" fill-rule="evenodd" stroke="none"/>
      <path d="M238.35 601.45 L238.65 601.6 238.85 601.8 239.0 602.0 238.95 602.25 238.85 602.5 238.65 602.8 238.35 603.05 238.0 603.25 237.6 603.45 237.1 603.6 236.6 603.7 236.15 603.8 235.7 603.8 235.25 603.75 234.8 603.6 234.5 603.5 234.3 603.35 234.15 603.15 234.05 602.95 234.1 602.7 234.2 602.45 234.4 602.2 234.65 601.95 235.05 601.75 235.45 601.6 235.85 601.5 236.3 601.4 236.7 601.3 237.15 601.25 237.55 601.25 237.95 601.35 238.35 601.45" fill="#ffe617" fill-rule="evenodd" stroke="none"/>
      <path d="M220.0 655.55 L219.95 655.95 219.7 656.3 219.35 656.6 218.9 656.85 218.3 657.0 217.55 657.15 217.55 657.1 217.45 657.1 217.35 657.1 217.0 657.05 216.7 656.95 216.4 656.85 216.2 656.7 216.05 656.55 215.9 656.35 215.85 656.15 215.9 655.9 216.05 655.7 216.25 655.5 216.45 655.3 216.7 655.15 217.1 655.0 217.45 654.9 217.85 654.8 218.25 654.8 218.4 654.8 218.3 654.75 218.25 654.7 219.1 654.85 219.55 655.05 219.85 655.3 220.0 655.55" fill="#000000" fill-rule="evenodd" stroke="none"/>
      <path d="M220.8 654.7 L221.1 654.9 221.25 655.15 221.3 655.4 221.3 655.7 221.05 656.0 220.8 656.25 220.45 656.5 220.05 656.7 219.65 656.85 219.25 656.95 218.75 657.0 218.25 657.0 217.8 656.95 217.4 656.9 217.15 656.75 216.9 656.6 216.7 656.4 216.55 656.15 216.5 655.95 216.55 655.65 216.7 655.4 216.95 655.15 217.2 654.9 217.55 654.7 217.95 654.55 218.4 654.45 218.8 654.4 219.25 654.35 219.75 654.35 220.15 654.45 220.55 654.55 220.8 654.7" fill="#ffe617" fill-rule="evenodd" stroke="none"/>
      <path d="M354.85 656.7 L354.65 656.9 354.3 657.1 353.95 657.25 353.6 657.4 353.2 657.5 352.8 657.55 352.45 657.55 352.05 657.55 351.7 657.5 351.65 657.45 351.6 657.45 351.55 657.45 351.5 657.4 351.55 657.5 351.6 657.55 351.6 657.6 351.65 657.65 351.05 657.2 350.9 657.1 350.8 656.95 350.8 656.8 350.85 656.6 350.85 656.45 350.9 656.25 351.05 656.1 351.2 655.95 351.5 655.8 351.75 655.65 352.0 655.5 352.25 655.4 352.6 655.35 352.95 655.3 353.25 655.3 353.6 655.3 354.15 655.35 354.2 655.35 354.2 655.4 354.25 655.4 354.55 655.55 354.8 655.7 354.9 655.9 355.0 656.1 355.0 656.3 354.95 656.5 354.85 656.7" fill="#000000" fill-rule="evenodd" stroke="none"/>
      <path d="M355.5 655.55 L355.8 655.75 356.05 655.9 356.2 656.1 356.3 656.35 356.3 656.55 356.15 656.8 355.95 657.05 355.65 657.3 355.35 657.55 354.95 657.7 354.5 657.85 354.05 658.0 353.65 658.05 353.2 658.1 352.8 658.05 352.35 657.95 351.95 657.85 351.65 657.7 351.4 657.5 351.25 657.25 351.25 657.0 351.35 656.75 351.55 656.45 351.85 656.15 352.25 655.95 352.65 655.75 353.1 655.6 353.65 655.5 354.1 655.4 354.6 655.4 355.1 655.45 355.5 655.55" fill="#ffe617" fill-rule="evenodd" stroke="none"/>
    </g>
    <g id="shape7" transform="matrix(1.0, 0.0, 0.0, 1.0, 86.45, 66.15)">
      <path d="M90.4 4.2 L-86.0 2.65 -60.5 -65.55 108.15 -65.3 90.4 4.2" fill="#336633" fill-rule="evenodd" stroke="none"/>
      <path d="M90.05 3.6 L-86.45 2.1 -60.9 -66.15 107.85 -65.9 90.05 3.6" fill="#336633" fill-rule="evenodd" stroke="none"/>
    </g>
    <g id="shape8" transform="matrix(1.0, 0.0, 0.0, 1.0, -207.25, -593.8)">
      <path d="M229.2 594.5 L229.3 594.4 229.3 594.35 229.35 594.3 229.4 594.25 229.45 594.2 229.5 594.15 229.55 594.15 229.65 594.1 229.7 594.05 229.8 594.05 229.85 594.0 229.95 594.0 230.0 594.0 230.1 593.95 230.2 593.95 230.3 593.95 230.4 593.95 232.6 593.95 234.8 593.95 237.05 594.0 239.25 594.0 241.5 594.0 243.7 594.0 245.9 594.05 248.15 594.05 250.35 594.1 252.55 594.1 254.75 594.15 256.95 594.2 259.15 594.2 261.35 594.25 263.55 594.3 265.7 594.3 268.8 594.4 271.0 594.45 229.2 594.5 271.0 594.45 271.85 594.45 274.9 594.5 278.0 594.5 281.05 594.55 284.15 594.6 287.2 594.6 288.75 594.65 290.3 594.65 293.35 594.65 294.35 594.65 295.4 594.7 296.55 594.65 322.0 594.6 323.1 594.6 323.5 594.55 324.85 594.55 326.15 594.55 327.5 594.5 328.8 594.5 330.1 594.45 331.35 594.45 332.65 594.4 333.9 594.35 335.15 594.35 335.65 594.35 335.7 594.35 336.4 594.3 354.4 593.9 355.6 593.85 356.75 593.85 357.85 593.8 359.0 593.8 360.1 593.8 361.2 593.8 362.25 593.8 363.3 593.8 364.35 593.8 365.35 593.8 366.35 593.85 367.35 593.85 368.35 593.85 369.05 593.9 369.3 593.9 369.5 593.9 370.25 593.9 370.9 593.9 371.35 593.95 371.55 593.95 371.75 593.95 371.95 593.95 372.2 593.95 372.3 593.95 372.4 593.95 372.6 593.95 373.25 593.95 373.35 593.95 373.4 593.95 373.5 593.95 373.6 593.95 373.65 593.95 373.75 593.95 373.85 593.95 374.05 593.95 374.25 594.0 374.45 594.0 374.55 594.0 374.65 594.0 374.8 594.0 374.9 594.0 375.15 594.0 375.25 594.0 375.35 594.0 375.45 594.05 375.55 594.05 375.6 594.05 375.7 594.1 375.75 594.1 375.8 594.15 375.85 594.2 375.9 594.2 376.0 594.3 376.0 594.45 376.0 594.5 375.85 595.15 375.75 595.8 375.6 596.45 375.45 597.1 375.25 597.75 375.1 598.35 374.95 599.0 374.75 599.6 374.6 600.2 374.4 600.8 374.25 601.35 374.05 601.95 373.85 602.5 373.65 603.05 373.45 603.6 373.25 604.15 373.2 604.25 373.2 604.35 373.15 604.4 373.15 604.5 373.15 604.55 373.1 604.65 373.1 604.75 373.1 604.8 373.05 604.9 373.05 604.95 373.05 605.05 373.05 605.1 373.0 605.2 373.0 605.25 373.0 605.35 373.0 605.4 372.95 605.85 372.85 606.3 372.75 606.75 372.65 607.2 372.55 607.65 372.45 608.1 372.3 608.55 372.2 609.0 372.05 609.45 371.9 609.85 371.7 610.3 371.55 610.75 371.35 611.15 371.15 611.6 370.95 612.0 370.75 612.4 370.6 612.7 370.4 613.05 370.25 613.3 370.15 613.6 370.1 613.6 370.0 613.9 369.85 614.2 369.7 614.45 369.6 614.75 369.5 615.0 369.35 615.25 369.25 615.55 369.15 615.8 369.05 616.05 368.95 616.3 368.9 616.55 368.8 616.8 368.15 618.75 368.05 619.0 368.0 619.25 367.9 619.45 367.85 619.7 367.75 619.9 367.65 620.15 367.6 620.4 367.55 620.6 367.45 620.85 367.4 621.05 367.3 621.3 367.25 621.55 367.15 621.75 367.1 622.0 367.05 622.2 367.0 622.45 366.7 623.35 366.45 624.3 366.15 625.2 365.9 626.05 365.7 626.65 365.6 627.45 365.55 628.1 365.45 628.75 365.4 629.4 365.3 630.0 365.15 630.65 365.05 631.3 364.9 631.95 364.75 632.6 364.6 633.25 364.45 633.9 364.25 634.6 364.1 635.25 363.9 635.95 363.65 636.6 363.45 637.3 363.2 638.0 363.05 638.4 362.9 638.8 362.75 639.2 362.6 639.6 362.45 640.0 362.3 640.4 362.15 640.8 362.0 641.2 361.85 641.6 361.7 642.0 361.6 642.4 361.45 642.8 361.3 643.2 361.15 643.6 361.1 643.75 361.0 643.95 360.9 644.35 359.75 647.65 359.65 647.95 359.5 648.3 359.45 648.45 359.45 648.6 359.4 648.95 359.4 649.3 359.4 649.65 359.4 649.8 359.4 649.9 359.35 650.05 359.35 650.2 359.35 650.3 359.3 650.45 359.3 650.5 359.3 650.55 359.25 650.7 359.25 650.8 359.2 650.95 359.2 651.1 359.15 651.2 359.1 651.35 359.05 651.45 359.0 651.6 359.0 651.7 358.95 651.75 358.9 651.9 358.85 652.05 358.8 652.2 358.7 652.35 358.65 652.5 358.6 652.65 358.55 652.8 358.45 652.95 358.4 653.15 358.35 653.3 358.25 653.45 358.2 653.6 358.1 653.75 358.1 653.85 358.05 653.9 357.95 654.05 357.95 654.2 357.9 654.25 357.85 654.3 357.8 654.3 357.75 654.35 357.7 654.4 357.65 654.45 357.6 654.5 357.55 654.5 357.45 654.55 357.4 654.6 357.3 654.6 357.2 654.65 357.15 654.65 357.05 654.65 356.95 654.65 356.85 654.7 356.75 654.7 354.45 654.65 352.1 654.65 349.8 654.65 347.5 654.6 345.15 654.6 342.85 654.55 340.55 654.55 338.25 654.5 335.9 654.45 333.6 654.45 331.3 654.4 329.05 654.35 326.75 654.3 324.45 654.25 322.2 654.25 319.9 654.2 318.65 654.15 316.75 654.1 313.55 654.05 310.4 654.0 307.2 653.95 304.05 653.9 300.85 653.85 297.65 653.8 294.5 653.75 291.3 653.75 288.15 653.7 284.95 653.7 281.8 653.65 278.6 653.65 275.45 653.65 272.3 653.65 269.15 653.65 267.6 653.65 266.5 653.7 266.1 653.7 264.65 653.7 261.75 653.7 261.65 653.7 260.3 653.75 258.95 653.75 257.55 653.8 256.2 653.8 254.85 653.8 253.55 653.85 252.25 653.85 250.95 653.9 249.65 653.95 248.35 653.95 247.1 654.0 243.35 654.1 228.65 654.4 227.45 654.4 226.25 654.4 225.1 654.45 223.95 654.45 222.85 654.45 221.75 654.45 220.65 654.45 219.55 654.45 218.5 654.4 217.5 654.4 216.45 654.4 215.45 654.35 214.45 654.35 213.5 654.3 212.55 654.3 211.6 654.25 211.4 654.25 211.2 654.25 210.95 654.25 210.75 654.25 210.55 654.25 210.35 654.25 210.15 654.25 209.9 654.25 209.7 654.25 209.5 654.25 209.3 654.25 209.1 654.25 208.9 654.25 208.65 654.2 208.45 654.2 208.25 654.2 208.15 654.2 208.05 654.2 207.95 654.15 207.9 654.15 207.8 654.1 207.75 654.1 207.7 654.05 207.65 654.05 207.6 654.0 207.55 653.95 207.55 653.9 207.5 653.85 207.45 653.85 207.4 653.8 207.35 653.75 207.3 653.7 207.25 653.65 207.25 653.5 207.45 652.8 207.65 652.1 207.85 651.4 208.05 650.75 208.3 650.1 208.5 649.45 208.7 648.8 208.95 648.15 209.15 647.55 209.4 646.95 209.6 646.35 209.85 645.75 210.1 645.15 210.35 644.55 210.6 644.0 210.85 643.45 210.85 643.35 210.9 643.3 210.9 643.2 210.95 643.1 210.95 643.05 211.0 642.95 211.0 642.85 211.05 642.8 211.05 642.7 211.1 642.65 211.1 642.55 211.1 642.45 211.15 642.4 211.15 642.3 211.15 642.25 211.15 642.15 211.25 641.7 211.4 641.25 211.5 640.8 211.65 640.3 211.8 639.85 211.95 639.4 212.1 638.95 212.25 638.5 212.45 638.05 212.65 637.65 212.85 637.2 213.05 636.75 213.25 636.3 213.5 635.9 213.7 635.45 213.95 635.05 214.15 634.75 214.3 634.45 214.5 634.15 214.65 633.85 214.8 633.55 214.95 633.25 215.1 633.0 215.25 632.8 215.25 632.75 215.25 632.7 215.4 632.45 215.55 632.2 215.65 631.9 215.8 631.65 215.9 631.4 216.0 631.15 216.1 630.9 216.2 630.65 216.95 628.8 208.45 654.05 243.35 654.1 208.45 654.05 216.95 628.8 217.0 628.7 217.1 628.45 217.2 628.2 217.3 628.0 217.4 627.75 217.45 627.5 217.55 627.3 217.65 627.05 217.75 626.85 217.85 626.6 217.9 626.4 218.0 626.15 218.1 625.9 218.15 625.7 218.25 625.45 218.35 625.25 218.4 625.0 218.75 624.1 218.8 623.95 219.0 623.2 219.15 622.4 219.25 622.0 219.3 621.6 219.5 620.8 219.65 620.0 219.75 619.4 219.8 619.3 219.85 618.75 220.0 618.15 220.15 617.5 220.3 616.9 220.45 616.25 220.6 615.6 220.8 614.95 221.0 614.3 221.2 613.7 221.45 613.05 221.65 612.35 221.9 611.7 222.15 611.05 222.45 610.4 222.7 609.7 222.9 609.3 223.05 608.95 223.25 608.55 223.4 608.15 223.6 607.75 223.75 607.4 223.8 607.3 223.9 607.0 224.1 606.6 224.25 606.25 224.4 605.85 224.55 605.45 224.75 605.1 224.9 604.7 225.05 604.3 225.2 603.95 225.35 603.55 225.75 602.65 226.7 600.45 226.8 600.15 226.95 599.8 227.05 599.5 227.15 599.2 227.3 598.85 227.4 598.55 227.5 598.2 227.65 597.9 227.75 597.6 227.85 597.25 227.95 596.95 228.05 596.65 228.15 596.3 228.3 596.0 228.4 595.7 228.5 595.4 228.5 595.35 228.55 595.3 228.6 595.25 228.65 595.2 228.7 595.15 228.8 595.05 228.9 595.05 228.95 595.0 228.95 594.95 229.05 594.8 229.05 594.75 229.1 594.65 229.2 594.5 M278.95 652.65 L282.1 652.65 285.3 652.65 288.45 652.7 291.65 652.7 294.8 652.75 298.0 652.8 301.2 652.8 304.4 652.85 307.55 652.9 310.75 652.95 313.95 653.0 317.1 653.1 320.3 653.15 322.55 653.2 324.85 653.25 327.1 653.3 329.4 653.35 331.65 653.35 333.95 653.4 336.25 653.45 338.55 653.5 340.85 653.5 343.15 653.55 345.5 653.55 347.8 653.6 350.1 653.6 352.4 653.6 354.75 653.65 356.15 653.65 356.2 653.5 356.3 653.35 356.35 653.2 356.4 653.05 356.5 652.9 356.55 652.75 356.6 652.6 356.65 652.45 356.75 652.25 356.8 652.1 356.85 651.95 356.9 651.8 356.95 651.65 357.0 651.55 357.05 651.45 357.1 651.3 357.15 651.2 357.15 651.05 357.2 650.95 357.25 650.85 357.25 650.7 357.3 650.6 357.3 650.45 357.3 650.35 357.35 650.25 357.35 650.1 357.35 650.0 357.35 649.85 357.4 649.75 357.4 649.4 357.4 649.05 357.4 648.7 357.4 648.35 357.45 648.0 357.45 647.65 357.5 647.3 357.5 646.9 357.55 646.55 357.6 646.2 357.65 645.8 357.7 645.45 357.8 645.05 357.85 644.7 357.95 644.3 358.05 643.95 358.15 643.5 358.25 643.05 358.35 642.55 358.45 642.1 358.55 641.65 358.7 641.15 358.8 640.7 358.95 640.2 359.1 639.7 359.25 639.25 359.4 638.75 359.6 638.25 359.75 637.75 359.95 637.25 360.1 636.75 360.3 636.25 360.65 635.4 360.95 634.6 361.25 633.75 361.6 632.9 361.9 632.1 362.2 631.25 362.5 630.4 362.75 629.55 363.05 628.65 363.35 627.8 363.65 626.95 363.9 626.05 364.2 625.15 364.45 624.25 364.75 623.35 365.0 622.45 365.05 622.2 365.15 621.95 365.2 621.75 365.25 621.5 365.35 621.3 365.4 621.05 365.5 620.8 365.55 620.6 365.65 620.35 365.7 620.15 365.8 619.9 365.85 619.65 365.95 619.45 366.0 619.2 366.1 618.95 366.15 618.7 366.8 616.75 366.9 616.5 367.0 616.25 367.1 616.0 367.2 615.75 367.3 615.45 367.4 615.2 367.55 614.95 367.65 614.65 367.8 614.35 367.9 614.1 368.05 613.8 368.2 613.5 368.35 613.2 368.5 612.9 368.65 612.6 368.8 612.3 369.0 611.9 369.2 611.45 369.4 611.05 369.6 610.65 369.75 610.25 369.95 609.8 370.1 609.4 370.2 608.95 370.35 608.55 370.5 608.1 370.6 607.65 370.7 607.25 370.8 606.8 370.9 606.35 370.95 605.9 371.0 605.5 371.05 605.4 371.05 605.35 371.05 605.25 371.05 605.15 371.05 605.1 371.05 605.0 371.1 604.95 371.1 604.85 371.1 604.75 371.15 604.7 371.15 604.6 371.2 604.5 371.2 604.45 371.25 604.35 371.25 604.25 371.25 604.15 371.5 603.6 371.7 603.05 371.9 602.5 372.1 601.95 372.25 601.35 372.45 600.8 372.65 600.2 372.8 599.6 373.0 599.0 373.15 598.35 373.3 597.75 373.45 597.1 373.6 596.5 373.75 595.85 373.9 595.2 374.0 594.95 373.85 594.95 373.75 594.95 373.6 594.95 373.5 594.95 373.4 594.95 373.3 594.95 373.2 594.95 373.1 594.95 373.05 594.95 372.95 594.95 372.85 594.95 372.75 594.95 372.05 594.9 371.35 594.9 370.65 594.9 369.9 594.9 369.2 594.9 368.5 594.9 367.85 594.85 367.15 594.85 366.45 594.9 365.75 594.9 365.05 594.9 364.35 594.9 363.65 594.9 362.95 594.9 362.25 594.95 361.55 594.95 359.75 595.05 357.9 595.1 356.05 595.2 354.15 595.25 352.3 595.3 350.4 595.35 348.45 595.45 346.5 595.5 344.5 595.55 342.5 595.6 340.5 595.65 338.4 595.7 336.3 595.7 334.15 595.75 332.0 595.8 329.8 595.85 329.7 595.85 329.65 595.85 329.55 595.85 329.5 595.8 329.4 595.8 329.3 595.8 329.25 595.75 329.15 595.75 329.1 595.7 329.05 595.65 329.0 595.6 328.95 595.55 230.25 595.85 230.2 596.0 230.1 596.3 230.0 596.65 229.9 596.95 229.8 597.25 229.65 597.6 229.55 597.9 229.45 598.25 229.35 598.55 229.2 598.85 229.1 599.2 229.0 599.5 228.85 599.85 228.75 600.15 228.6 600.5 227.3 603.6 227.15 604.0 226.95 604.35 226.8 604.75 226.65 605.1 226.5 605.5 226.35 605.9 226.15 606.25 226.0 606.65 225.85 607.05 225.65 607.45 225.5 607.8 225.35 608.2 225.15 608.6 225.0 609.0 224.8 609.4 224.65 609.75 224.35 610.45 224.1 611.1 223.85 611.75 223.6 612.4 223.35 613.05 223.15 613.65 222.95 614.3 222.75 614.95 222.6 615.6 222.4 616.2 222.25 616.85 222.1 617.45 221.95 618.1 221.85 618.7 221.7 619.3 221.6 619.95 221.45 620.75 221.3 621.55 221.1 622.35 220.95 623.1 220.8 623.9 220.6 624.7 220.45 625.45 220.25 626.2 220.05 627.0 219.85 627.75 219.65 628.5 219.45 629.25 219.25 630.0 219.0 630.75 218.8 631.45 218.55 632.2 218.5 632.55 218.4 632.85 218.3 633.15 218.2 633.5 218.05 633.85 217.95 634.15 217.85 634.5 217.7 634.85 217.55 635.2 217.45 635.55 217.3 635.9 217.15 636.3 217.0 636.65 216.85 637.05 216.65 637.4 216.5 637.8 216.45 637.9 216.45 637.95 216.4 638.05 216.4 638.1 216.35 638.2 216.35 638.25 216.3 638.35 216.3 638.4 216.25 638.5 216.25 638.55 216.2 638.65 216.15 638.7 216.15 638.8 216.1 638.85 216.1 638.95 216.05 639.0 216.0 639.1 216.0 639.15 215.95 639.25 215.95 639.3 215.9 639.4 215.85 639.45 215.85 639.55 215.8 639.6 215.8 639.7 215.75 639.75 215.75 639.85 215.7 639.9 215.7 640.0 215.65 640.05 215.65 640.15 215.6 640.2 215.55 640.35 215.5 640.55 215.45 640.7 215.4 640.85 215.35 641.0 215.3 641.15 215.2 641.3 215.15 641.5 215.1 641.65 215.05 641.8 215.0 641.95 214.9 642.1 214.85 642.25 214.8 642.45 214.7 642.6 214.65 642.75 214.55 643.0 214.45 643.25 214.4 643.5 214.3 643.75 214.2 644.0 214.1 644.25 214.0 644.5 213.9 644.7 213.8 644.95 213.7 645.2 213.55 645.4 213.45 645.65 213.35 645.85 213.25 646.05 213.1 646.3 213.0 646.5 212.75 646.95 212.5 647.4 212.25 647.9 212.05 648.35 211.8 648.8 211.55 649.3 211.35 649.75 211.1 650.2 210.9 650.65 210.7 651.1 210.5 651.55 210.3 652.0 210.05 652.45 209.85 652.9 209.75 653.2 209.95 653.2 210.15 653.25 210.3 653.25 210.5 653.25 210.7 653.25 210.9 653.25 211.1 653.25 211.3 653.25 211.5 653.25 211.75 653.25 211.95 653.25 212.9 653.25 213.85 653.3 214.85 653.35 215.8 653.35 216.85 653.35 217.85 653.4 218.9 653.4 219.95 653.4 221.0 653.4 222.05 653.4 223.15 653.4 224.3 653.4 225.4 653.4 226.55 653.4 227.75 653.4 228.9 653.35 247.3 652.95 248.6 652.95 249.85 652.9 251.15 652.9 252.45 652.85 253.8 652.8 255.1 652.8 256.45 652.8 257.8 652.75 259.2 652.75 260.6 652.7 262.0 652.7 263.45 652.7 264.9 652.65 266.4 652.65 267.9 652.65 269.45 652.65 272.6 652.65 275.75 652.65 278.95 652.65 M357.95 654.2 L318.65 654.15 357.95 654.2 M365.3 628.0 L361.1 643.75 365.3 628.0 M230.4 595.45 L230.4 595.4 230.4 595.45 M231.1 594.55 L231.1 594.6 231.1 594.55 M288.75 594.65 L229.05 594.75 288.75 594.65 M219.25 622.0 L225.75 602.65 219.25 622.0 M214.75 637.25 L214.7 637.35 214.9 637.0 214.95 636.85 214.75 637.25 M214.55 637.7 L214.5 637.85 214.55 637.75 214.7 637.4 214.55 637.7 M214.5 637.85 L214.45 638.0 214.4 638.1 214.2 638.55 214.05 639.0 213.9 639.45 213.8 639.8 213.8 639.75 213.85 639.65 213.85 639.6 213.9 639.5 213.9 639.45 213.95 639.35 213.95 639.3 214.0 639.2 214.05 639.15 214.05 639.05 214.1 639.0 214.1 638.9 214.15 638.85 214.2 638.75 214.2 638.7 214.25 638.6 214.25 638.55 214.3 638.45 214.35 638.4 214.35 638.3 214.4 638.25 214.4 638.15 214.45 638.05 214.45 638.0 214.5 637.9 214.5 637.85 M213.75 639.9 L213.75 639.85 213.7 639.95 213.75 639.9 M213.65 640.1 L213.6 640.3 213.6 640.4 213.6 640.35 213.65 640.2 213.65 640.1 213.7 640.05 213.7 639.95 213.65 640.1 M209.9 648.65 L215.25 632.8 209.9 648.65 M344.65 594.5 L375.2 594.5 370.15 613.6 375.2 594.5 344.65 594.5 322.0 594.6 344.65 594.5 335.7 594.35 344.65 594.5 M330.65 595.6 L330.55 595.65 330.6 595.65 330.65 595.6" fill="#fbd672" fill-rule="evenodd" stroke="none"/>
      <path d="M278.95 652.65 L275.75 652.65 272.6 652.65 269.45 652.65 267.9 652.65 266.4 652.65 264.9 652.65 263.45 652.7 262.0 652.7 260.6 652.7 259.2 652.75 257.8 652.75 256.45 652.8 255.1 652.8 253.8 652.8 252.45 652.85 251.15 652.9 249.85 652.9 248.6 652.95 247.3 652.95 228.9 653.35 227.75 653.4 226.55 653.4 225.4 653.4 224.3 653.4 223.15 653.4 222.05 653.4 221.0 653.4 219.95 653.4 218.9 653.4 217.85 653.4 216.85 653.35 215.8 653.35 214.85 653.35 213.85 653.3 212.9 653.25 211.95 653.25 211.75 653.25 211.5 653.25 211.3 653.25 211.1 653.25 210.9 653.25 210.7 653.25 210.5 653.25 210.3 653.25 210.15 653.25 209.95 653.2 209.75 653.2 209.85 652.9 210.05 652.45 210.3 652.0 210.5 651.55 210.7 651.1 210.9 650.65 211.1 650.2 211.35 649.75 211.55 649.3 211.8 648.8 212.05 648.35 212.25 647.9 212.5 647.4 212.75 646.95 213.0 646.5 213.1 646.3 213.25 646.05 213.35 645.85 213.45 645.65 213.55 645.4 213.7 645.2 213.8 644.95 213.9 644.7 214.0 644.5 214.1 644.25 214.2 644.0 214.3 643.75 214.4 643.5 214.45 643.25 214.55 643.0 214.65 642.75 214.7 642.6 214.8 642.45 214.85 642.25 214.9 642.1 215.0 641.95 215.05 641.8 215.1 641.65 215.15 641.5 215.2 641.3 215.3 641.15 215.35 641.0 215.4 640.85 215.45 640.7 215.5 640.55 215.55 640.35 215.6 640.2 215.65 640.15 215.65 640.05 215.7 640.0 215.7 639.9 215.75 639.85 215.75 639.75 215.8 639.7 215.8 639.6 215.85 639.55 215.85 639.45 215.9 639.4 215.95 639.3 215.95 639.25 216.0 639.15 216.0 639.1 216.05 639.0 216.1 638.95 216.1 638.85 216.15 638.8 216.15 638.7 216.2 638.65 216.25 638.55 216.25 638.5 216.3 638.4 216.3 638.35 216.35 638.25 216.35 638.2 216.4 638.1 216.4 638.05 216.45 637.95 216.45 637.9 216.5 637.8 216.65 637.4 216.85 637.05 217.0 636.65 217.15 636.3 217.3 635.9 217.45 635.55 217.55 635.2 217.7 634.85 217.85 634.5 217.95 634.15 218.05 633.85 218.2 633.5 218.3 633.15 218.4 632.85 218.5 632.55 218.55 632.2 218.8 631.45 219.0 630.75 219.25 630.0 219.45 629.25 219.65 628.5 219.85 627.75 220.05 627.0 220.25 626.2 220.45 625.45 220.6 624.7 220.8 623.9 220.95 623.1 221.1 622.35 221.3 621.55 221.45 620.75 221.6 619.95 221.7 619.3 221.85 618.7 221.95 618.1 222.1 617.45 222.25 616.85 222.4 616.2 222.6 615.6 222.75 614.95 222.95 614.3 223.15 613.65 223.35 613.05 223.6 612.4 223.85 611.75 224.1 611.1 224.35 610.45 224.65 609.75 224.8 609.4 225.0 609.0 225.15 608.6 225.35 608.2 225.5 607.8 225.65 607.45 225.85 607.05 226.0 606.65 226.15 606.25 226.35 605.9 226.5 605.5 226.65 605.1 226.8 604.75 226.95 604.35 227.15 604.0 227.3 603.6 228.6 600.5 228.75 600.15 228.85 599.85 229.0 599.5 229.1 599.2 229.2 598.85 229.35 598.55 229.45 598.25 229.55 597.9 229.65 597.6 229.8 597.25 229.9 596.95 230.0 596.65 230.1 596.3 230.2 596.0 230.25 595.85 328.95 595.55 329.0 595.6 329.05 595.65 329.1 595.7 329.15 595.75 329.25 595.75 329.3 595.8 329.4 595.8 329.5 595.8 329.55 595.85 329.65 595.85 329.7 595.85 329.8 595.85 332.0 595.8 334.15 595.75 336.3 595.7 338.4 595.7 340.5 595.65 342.5 595.6 344.5 595.55 346.5 595.5 348.45 595.45 350.4 595.35 352.3 595.3 354.15 595.25 356.05 595.2 357.9 595.1 359.75 595.05 361.55 594.95 362.25 594.95 362.95 594.9 363.65 594.9 364.35 594.9 365.05 594.9 365.75 594.9 366.45 594.9 367.15 594.85 367.85 594.85 368.5 594.9 369.2 594.9 369.9 594.9 370.65 594.9 371.35 594.9 372.05 594.9 372.75 594.95 372.85 594.95 372.95 594.95 373.05 594.95 373.1 594.95 373.2 594.95 373.3 594.95 373.4 594.95 373.5 594.95 373.6 594.95 373.75 594.95 373.85 594.95 374.0 594.95 373.9 595.2 373.75 595.85 373.6 596.5 373.45 597.1 373.3 597.75 373.15 598.35 373.0 599.0 372.8 599.6 372.65 600.2 372.45 600.8 372.25 601.35 372.1 601.95 371.9 602.5 371.7 603.05 371.5 603.6 371.25 604.15 371.25 604.25 371.25 604.35 371.2 604.45 371.2 604.5 371.15 604.6 371.15 604.7 371.1 604.75 371.1 604.85 371.1 604.95 371.05 605.0 371.05 605.1 371.05 605.15 371.05 605.25 371.05 605.35 371.05 605.4 371.0 605.5 370.95 605.9 370.9 606.35 370.8 606.8 370.7 607.25 370.6 607.65 370.5 608.1 370.35 608.55 370.2 608.95 370.1 609.4 369.95 609.8 369.75 610.25 369.6 610.65 369.4 611.05 369.2 611.45 369.0 611.9 368.8 612.3 368.65 612.6 368.5 612.9 368.35 613.2 368.2 613.5 368.05 613.8 367.9 614.1 367.8 614.35 367.65 614.65 367.55 614.95 367.4 615.2 367.3 615.45 367.2 615.75 367.1 616.0 367.0 616.25 366.9 616.5 366.8 616.75 366.15 618.7 366.1 618.95 366.0 619.2 365.95 619.45 365.85 619.65 365.8 619.9 365.7 620.15 365.65 620.35 365.55 620.6 365.5 620.8 365.4 621.05 365.35 621.3 365.25 621.5 365.2 621.75 365.15 621.95 365.05 622.2 365.0 622.45 364.75 623.35 364.45 624.25 364.2 625.15 363.9 626.05 363.65 626.95 363.35 627.8 363.05 628.65 362.75 629.55 362.5 630.4 362.2 631.25 361.9 632.1 361.6 632.9 361.25 633.75 360.95 634.6 360.65 635.4 360.3 636.25 360.1 636.75 359.95 637.25 359.75 637.75 359.6 638.25 359.4 638.75 359.25 639.25 359.1 639.7 358.95 640.2 358.8 640.7 358.7 641.15 358.55 641.65 358.45 642.1 358.35 642.55 358.25 643.05 358.15 643.5 358.05 643.95 357.95 644.3 357.85 644.7 357.8 645.05 357.7 645.45 357.65 645.8 357.6 646.2 357.55 646.55 357.5 646.9 357.5 647.3 357.45 647.65 357.45 648.0 357.4 648.35 357.4 648.7 357.4 649.05 357.4 649.4 357.4 649.75 357.35 649.85 357.35 650.0 357.35 650.1 357.35 650.25 357.3 650.35 357.3 650.45 357.3 650.6 357.25 650.7 357.25 650.85 357.2 650.95 357.15 651.05 357.15 651.2 357.1 651.3 357.05 651.45 357.0 651.55 356.95 651.65 356.9 651.8 356.85 651.95 356.8 652.1 356.75 652.25 356.65 652.45 356.6 652.6 356.55 652.75 356.5 652.9 356.4 653.05 356.35 653.2 356.3 653.35 356.2 653.5 356.15 653.65 354.75 653.65 352.4 653.6 350.1 653.6 347.8 653.6 345.5 653.55 343.15 653.55 340.85 653.5 338.55 653.5 336.25 653.45 333.95 653.4 331.65 653.35 329.4 653.35 327.1 653.3 324.85 653.25 322.55 653.2 320.3 653.15 317.1 653.1 313.95 653.0 310.75 652.95 307.55 652.9 304.4 652.85 301.2 652.8 298.0 652.8 294.8 652.75 291.65 652.7 288.45 652.7 285.3 652.65 282.1 652.65 278.95 652.65 M234.65 598.9 L234.85 598.9 234.95 598.9 235.05 598.9 235.2 598.9 235.3 598.85 235.4 598.85 235.55 598.85 235.65 598.8 235.8 598.8 235.9 598.75 236.05 598.75 236.15 598.7 236.3 598.7 236.4 598.65 236.55 598.6 236.65 598.55 236.75 598.5 236.85 598.45 236.95 598.4 237.05 598.35 237.15 598.3 237.25 598.25 237.35 598.2 237.4 598.15 237.5 598.05 237.6 598.0 237.65 597.95 237.75 597.9 237.8 597.8 237.85 597.75 237.9 597.7 237.9 597.6 237.95 597.55 237.95 597.5 238.0 597.45 238.0 597.35 238.05 597.3 238.05 597.2 238.05 597.1 237.95 597.0 237.95 596.95 237.9 596.9 237.85 596.85 237.75 596.75 237.7 596.7 237.65 596.7 237.55 596.65 237.5 596.6 237.4 596.55 237.35 596.55 237.25 596.5 237.15 596.45 237.0 596.45 236.9 596.4 236.8 596.4 236.7 596.4 236.6 596.35 236.5 596.35 236.4 596.35 236.3 596.35 236.2 596.35 236.1 596.35 236.0 596.35 235.85 596.4 235.75 596.4 235.65 596.4 235.55 596.45 235.45 596.45 235.35 596.5 235.25 596.5 235.15 596.55 235.0 596.55 234.9 596.6 234.8 596.6 234.7 596.65 234.6 596.65 234.5 596.7 234.4 596.75 234.3 596.8 234.2 596.85 234.1 596.85 234.0 596.9 233.9 596.95 233.8 597.0 233.7 597.05 233.6 597.1 233.5 597.15 233.45 597.15 233.35 597.2 233.3 597.25 233.25 597.3 233.15 597.35 233.05 597.45 233.0 597.5 232.9 597.55 232.85 597.6 232.8 597.65 232.75 597.7 232.7 597.75 232.6 597.85 232.6 597.9 232.55 597.95 232.55 598.05 232.5 598.05 232.5 598.3 232.55 598.35 232.55 598.4 232.6 598.45 232.6 598.5 232.65 598.55 232.7 598.6 232.75 598.6 232.8 598.65 232.85 598.7 232.9 598.7 232.95 598.75 233.05 598.8 233.1 598.8 233.15 598.85 233.3 598.85 233.3 598.9 233.15 598.9 233.15 598.95 233.9 599.0 233.95 599.0 234.05 599.0 234.1 599.0 234.2 598.95 234.25 598.95 234.35 598.95 234.4 598.95 234.5 598.95 234.55 598.95 234.65 598.9 M231.1 594.55 L231.1 594.6 231.1 594.55 M230.4 595.45 L230.4 595.4 230.4 595.45 M214.55 637.7 L214.7 637.4 214.55 637.75 214.5 637.85 214.55 637.7 M214.75 637.25 L214.95 636.85 214.9 637.0 214.7 637.35 214.75 637.25 M214.5 637.85 L214.5 637.9 214.45 638.0 214.45 638.05 214.4 638.15 214.4 638.25 214.35 638.3 214.35 638.4 214.3 638.45 214.25 638.55 214.25 638.6 214.2 638.7 214.2 638.75 214.15 638.85 214.1 638.9 214.1 639.0 214.05 639.05 214.05 639.15 214.0 639.2 213.95 639.3 213.95 639.35 213.9 639.45 213.9 639.5 213.85 639.6 213.85 639.65 213.8 639.75 213.8 639.8 213.9 639.45 214.05 639.0 214.2 638.55 214.4 638.1 214.45 638.0 214.5 637.85 M213.65 640.1 L213.65 640.2 213.6 640.35 213.6 640.4 213.6 640.3 213.65 640.1 213.7 639.95 213.7 640.05 213.65 640.1 M213.75 639.9 L213.7 639.95 213.75 639.85 213.75 639.9 M217.3 652.05 L217.45 652.05 217.6 652.05 217.7 652.05 217.8 652.05 217.95 652.05 218.05 652.05 218.2 652.05 218.3 652.0 218.4 652.0 218.5 651.95 218.6 651.95 218.7 651.9 218.8 651.85 218.9 651.85 219.0 651.8 219.1 651.75 219.2 651.7 219.3 651.65 219.4 651.6 219.5 651.55 219.6 651.5 219.7 651.45 219.75 651.35 219.85 651.3 219.9 651.25 220.0 651.2 220.05 651.1 220.1 651.05 220.2 650.95 220.25 650.9 220.3 650.8 220.35 650.75 220.35 650.65 220.35 650.6 220.35 650.55 220.35 650.45 220.35 650.35 220.35 650.25 220.3 650.2 220.25 650.15 220.25 650.1 220.2 650.0 220.15 649.95 220.05 649.9 220.0 649.85 219.95 649.8 219.85 649.75 219.8 649.7 219.75 649.65 219.65 649.65 219.6 649.6 219.5 649.55 219.4 649.55 219.35 649.5 219.25 649.5 219.15 649.45 219.0 649.45 218.9 649.45 218.8 649.4 218.7 649.4 218.55 649.4 218.45 649.4 218.3 649.4 218.2 649.4 218.1 649.4 217.95 649.4 217.85 649.45 217.75 649.45 217.65 649.45 217.55 649.5 217.45 649.5 217.35 649.55 217.25 649.55 217.15 649.6 217.0 649.6 216.9 649.65 216.8 649.7 216.7 649.7 216.6 649.75 216.5 649.8 216.45 649.85 216.35 649.9 216.25 649.95 216.2 650.0 216.1 650.05 216.0 650.1 215.9 650.1 215.8 650.15 215.75 650.2 215.65 650.25 215.6 650.3 215.55 650.35 215.45 650.35 215.4 650.4 215.35 650.45 215.2 650.6 215.15 650.65 215.0 650.8 214.95 650.85 214.9 650.9 214.9 650.95 214.85 651.05 214.85 651.25 214.9 651.3 214.9 651.4 214.95 651.45 215.0 651.5 215.0 651.55 215.05 651.55 215.1 651.6 215.15 651.65 215.15 651.7 215.2 651.75 215.25 651.75 215.35 651.85 215.45 651.9 215.5 651.9 215.55 651.95 215.65 651.95 215.7 652.0 215.8 652.0 215.85 652.05 215.95 652.05 216.0 652.1 216.1 652.1 216.2 652.1 216.3 652.15 216.55 652.15 216.55 652.2 217.3 652.05 M370.15 598.95 L370.25 598.9 370.35 598.9 370.45 598.85 370.55 598.8 370.65 598.8 370.75 598.75 370.85 598.7 370.95 598.65 371.05 598.6 371.15 598.55 371.25 598.5 371.3 598.45 371.35 598.4 371.35 598.35 371.4 598.25 371.45 598.2 371.45 598.15 371.5 598.1 371.5 597.8 371.5 597.7 371.5 597.65 371.45 597.6 371.45 597.55 371.4 597.5 371.4 597.45 371.35 597.4 371.3 597.35 371.25 597.3 371.2 597.25 371.15 597.2 371.05 597.15 371.0 597.1 370.95 597.1 370.85 597.05 370.75 597.0 370.7 596.95 370.6 596.9 370.5 596.9 370.35 596.85 370.25 596.85 370.15 596.8 370.0 596.8 369.9 596.75 369.8 596.75 369.7 596.75 369.55 596.7 369.45 596.7 369.35 596.7 369.25 596.7 369.1 596.7 369.0 596.7 368.9 596.7 368.8 596.7 368.65 596.75 368.55 596.75 368.4 596.75 368.3 596.75 368.2 596.75 368.1 596.8 368.0 596.8 367.9 596.8 367.8 596.85 367.7 596.85 367.6 596.9 367.5 596.95 367.45 596.95 367.35 597.0 367.25 597.05 367.2 597.1 367.1 597.15 367.0 597.2 366.95 597.25 366.85 597.3 366.75 597.4 366.7 597.5 366.65 597.55 366.6 597.6 366.55 597.65 366.5 597.7 366.5 597.75 366.5 597.85 366.45 597.9 366.45 597.95 366.35 598.15 366.35 598.2 366.3 598.25 366.3 598.35 366.25 598.35 366.25 598.7 366.3 598.7 366.3 598.8 366.4 598.9 366.4 598.95 366.45 598.95 366.5 599.0 366.55 599.0 366.6 599.05 366.65 599.1 366.7 599.1 366.75 599.15 366.85 599.15 366.9 599.2 367.0 599.2 367.05 599.25 367.15 599.25 367.2 599.3 367.3 599.3 367.35 599.35 367.45 599.35 367.5 599.35 367.6 599.4 367.65 599.4 367.75 599.4 367.8 599.4 367.9 599.45 368.0 599.45 368.05 599.45 368.15 599.45 368.2 599.45 368.3 599.45 368.35 599.45 368.45 599.45 368.55 599.45 368.65 599.45 368.7 599.45 368.8 599.4 368.85 599.4 368.95 599.4 369.0 599.4 369.1 599.35 369.2 599.35 369.3 599.35 369.35 599.3 369.45 599.3 369.5 599.3 369.6 599.25 370.6 598.9 370.45 598.9 370.4 598.9 370.4 598.95 370.3 598.95 370.25 599.0 370.15 599.0 370.15 598.95 M370.1 599.0 L370.15 599.0 370.15 599.05 370.05 599.05 370.1 599.0 M330.65 595.6 L330.6 595.65 330.55 595.65 330.65 595.6 M350.5 652.45 L350.55 652.5 350.7 652.65 350.8 652.7 350.85 652.75 350.9 652.8 351.0 652.85 351.1 652.85 351.2 652.9 351.3 652.9 351.4 652.95 351.5 652.95 351.6 653.0 351.7 653.0 351.85 653.05 351.95 653.05 352.05 653.05 352.15 653.1 352.25 653.1 352.35 653.1 352.5 653.1 352.6 653.1 352.7 653.05 352.8 653.05 352.9 653.05 353.0 653.0 353.1 653.0 353.2 652.95 353.35 652.95 353.45 652.95 353.55 652.9 353.7 652.85 353.8 652.85 353.9 652.8 354.0 652.75 354.1 652.7 354.2 652.65 354.3 652.6 354.4 652.6 354.5 652.55 354.55 652.45 354.65 652.4 354.75 652.35 354.8 652.3 354.9 652.25 355.0 652.15 355.05 652.1 355.1 652.05 355.2 652.0 355.25 651.9 355.35 651.8 355.35 651.75 355.4 651.7 355.4 651.6 355.45 651.55 355.45 651.3 355.4 651.2 355.4 651.15 355.35 651.1 355.3 651.05 355.3 651.0 355.25 650.95 355.2 650.9 355.15 650.85 355.1 650.8 355.05 650.75 354.95 650.75 354.9 650.7 354.85 650.65 354.75 650.6 354.65 650.55 354.55 650.55 354.45 650.5 354.35 650.45 354.25 650.45 354.1 650.45 354.0 650.4 353.9 650.4 353.75 650.4 353.65 650.4 353.5 650.4 353.4 650.4 353.35 650.4 353.35 650.35 352.75 650.3 352.65 650.3 352.6 650.3 352.5 650.3 352.4 650.3 352.35 650.3 352.25 650.3 352.15 650.3 352.1 650.3 352.0 650.3 351.9 650.35 351.8 650.35 351.75 650.35 351.65 650.35 351.55 650.4 351.5 650.4 351.4 650.4 351.35 650.45 351.3 650.45 351.2 650.5 351.15 650.5 351.1 650.55 351.0 650.6 350.95 650.6 350.9 650.65 350.85 650.65 350.75 650.7 350.7 650.75 350.65 650.8 350.55 650.8 350.5 650.85 350.45 650.9 350.35 650.95 350.3 650.95 350.25 651.0 350.25 651.05 350.2 651.1 350.15 651.15 350.05 651.25 350.05 651.3 350.0 651.35 350.0 651.45 350.0 651.5 349.95 651.5 349.95 651.55 350.0 651.6 349.95 651.65 349.95 651.95 350.0 652.0 350.05 652.05 350.05 652.1 350.1 652.1 350.15 652.15 350.15 652.2 350.2 652.2 350.5 652.45" fill="#ffffcb" fill-rule="evenodd" stroke="none"/>
      <path d="M233.7 597.05 L233.8 597.0 233.9 596.95 234.0 596.9 234.1 596.85 234.2 596.85 234.3 596.8 234.4 596.75 234.5 596.7 234.6 596.65 234.7 596.65 234.8 596.6 234.9 596.6 235.0 596.55 235.15 596.55 235.25 596.5 235.35 596.5 235.45 596.45 235.55 596.45 235.65 596.4 235.75 596.4 235.85 596.4 236.0 596.35 236.1 596.35 236.2 596.35 236.3 596.35 236.4 596.35 236.5 596.35 236.6 596.35 236.7 596.4 236.8 596.4 236.9 596.4 237.0 596.45 237.15 596.45 237.25 596.5 237.35 596.55 237.4 596.55 237.5 596.6 237.55 596.65 237.65 596.7 237.7 596.7 237.75 596.75 237.85 596.85 237.9 596.9 237.95 596.95 237.95 597.0 238.05 597.1 238.05 597.2 238.05 597.3 238.0 597.35 238.0 597.45 237.95 597.5 237.95 597.55 237.9 597.6 237.9 597.7 237.85 597.75 237.8 597.8 237.75 597.9 237.65 597.95 237.6 598.0 237.5 598.05 237.4 598.15 237.35 598.2 237.25 598.25 237.15 598.3 237.05 598.35 236.95 598.4 236.85 598.45 236.75 598.5 236.65 598.55 236.55 598.6 236.4 598.65 236.3 598.7 236.15 598.7 236.05 598.75 235.9 598.75 235.8 598.8 235.65 598.8 235.55 598.85 235.4 598.85 235.3 598.85 235.2 598.9 235.05 598.9 234.95 598.9 234.85 598.9 234.65 598.9 234.5 598.85 234.4 598.85 234.3 598.85 234.2 598.8 234.05 598.8 233.95 598.75 233.85 598.7 233.75 598.7 233.7 598.65 233.6 598.65 233.55 598.6 233.5 598.55 233.45 598.5 233.4 598.5 233.3 598.4 233.25 598.35 233.25 598.3 233.2 598.25 233.15 598.2 233.15 598.15 233.1 598.1 233.1 598.0 233.1 597.9 233.15 597.85 233.15 597.75 233.2 597.65 233.25 597.6 233.25 597.55 233.3 597.5 233.35 597.45 233.4 597.4 233.45 597.3 233.5 597.25 233.55 597.2 233.65 597.15 233.7 597.05 M216.2 650.0 L216.25 649.95 216.35 649.9 216.45 649.85 216.5 649.8 216.6 649.75 216.7 649.7 216.8 649.7 216.9 649.65 217.0 649.6 217.15 649.6 217.25 649.55 217.35 649.55 217.45 649.5 217.55 649.5 217.65 649.45 217.75 649.45 217.85 649.45 217.95 649.4 218.1 649.4 218.2 649.4 218.3 649.4 218.45 649.4 218.55 649.4 218.7 649.4 218.8 649.4 218.9 649.45 219.0 649.45 219.15 649.45 219.25 649.5 219.35 649.5 219.4 649.55 219.5 649.55 219.6 649.6 219.65 649.65 219.75 649.65 219.8 649.7 219.85 649.75 219.95 649.8 220.0 649.85 220.05 649.9 220.15 649.95 220.2 650.0 220.25 650.1 220.25 650.15 220.3 650.2 220.35 650.25 220.35 650.35 220.35 650.45 220.35 650.55 220.35 650.6 220.35 650.65 220.35 650.75 220.3 650.8 220.25 650.9 220.2 650.95 220.1 651.05 220.05 651.1 220.0 651.2 219.9 651.25 219.85 651.3 219.75 651.35 219.7 651.45 219.6 651.5 219.5 651.55 219.4 651.6 219.3 651.65 219.2 651.7 219.1 651.75 219.0 651.8 218.9 651.85 218.8 651.85 218.7 651.9 218.6 651.95 218.5 651.95 218.4 652.0 218.3 652.0 218.2 652.05 218.05 652.05 217.95 652.05 217.8 652.05 217.7 652.05 217.6 652.05 217.45 652.05 217.3 652.05 217.2 652.05 217.1 652.05 216.95 652.05 216.85 652.0 216.75 652.0 216.65 652.0 216.55 651.95 216.45 651.95 216.4 651.9 216.3 651.9 216.25 651.85 216.2 651.8 216.1 651.75 216.05 651.75 216.0 651.7 215.95 651.65 215.9 651.6 215.85 651.55 215.8 651.5 215.75 651.45 215.7 651.4 215.7 651.35 215.65 651.3 215.6 651.2 215.6 651.15 215.55 651.1 215.55 651.0 215.55 650.9 215.55 650.8 215.6 650.7 215.65 650.65 215.65 650.6 215.7 650.5 215.75 650.45 215.8 650.4 215.9 650.35 215.95 650.25 216.0 650.2 216.05 650.15 216.15 650.1 216.2 650.0 M366.45 597.95 L366.45 597.9 366.5 597.85 366.5 597.75 366.5 597.7 366.55 597.65 366.6 597.6 366.65 597.55 366.7 597.5 366.75 597.4 366.85 597.3 366.95 597.25 367.0 597.2 367.1 597.15 367.2 597.1 367.25 597.05 367.35 597.0 367.45 596.95 367.5 596.95 367.6 596.9 367.7 596.85 367.8 596.85 367.9 596.8 368.0 596.8 368.1 596.8 368.2 596.75 368.3 596.75 368.4 596.75 368.55 596.75 368.65 596.75 368.8 596.7 368.9 596.7 369.0 596.7 369.1 596.7 369.25 596.7 369.35 596.7 369.45 596.7 369.55 596.7 369.7 596.75 369.8 596.75 369.9 596.75 370.0 596.8 370.15 596.8 370.25 596.85 370.35 596.85 370.5 596.9 370.6 596.9 370.7 596.95 370.75 597.0 370.85 597.05 370.95 597.1 371.0 597.1 371.05 597.15 371.15 597.2 371.2 597.25 371.25 597.3 371.3 597.35 371.35 597.4 371.4 597.45 371.4 597.5 371.45 597.55 371.45 597.6 371.5 597.65 371.5 597.7 371.5 597.8 371.5 598.1 371.45 598.15 371.45 598.2 371.4 598.25 371.35 598.35 371.35 598.4 371.3 598.45 371.25 598.5 371.15 598.55 371.05 598.6 370.95 598.65 370.85 598.7 370.75 598.75 370.65 598.8 370.55 598.8 370.45 598.85 370.35 598.9 370.25 598.9 370.15 598.95 370.05 598.95 369.95 599.0 369.85 599.0 369.75 599.0 369.6 599.05 369.5 599.05 369.35 599.05 369.2 599.05 369.1 599.05 368.95 599.05 368.8 599.05 368.7 599.05 368.55 599.05 368.4 599.0 368.3 599.0 368.15 599.0 368.05 598.95 367.95 598.95 367.8 598.9 367.7 598.85 367.6 598.85 367.5 598.8 367.4 598.75 367.3 598.7 367.2 598.7 367.1 598.65 367.0 598.6 366.9 598.55 366.85 598.5 366.75 598.45 366.7 598.4 366.6 598.3 366.55 598.2 366.5 598.15 366.5 598.1 366.45 598.05 366.45 597.95 M353.35 650.4 L353.4 650.4 353.5 650.4 353.65 650.4 353.75 650.4 353.9 650.4 354.0 650.4 354.1 650.45 354.25 650.45 354.35 650.45 354.45 650.5 354.55 650.55 354.65 650.55 354.75 650.6 354.85 650.65 354.9 650.7 354.95 650.75 355.05 650.75 355.1 650.8 355.15 650.85 355.2 650.9 355.25 650.95 355.3 651.0 355.3 651.05 355.35 651.1 355.4 651.15 355.4 651.2 355.45 651.3 355.45 651.55 355.4 651.6 355.4 651.7 355.35 651.75 355.35 651.8 355.25 651.9 355.2 652.0 355.1 652.05 355.05 652.1 355.0 652.15 354.9 652.25 354.8 652.3 354.75 652.35 354.65 652.4 354.55 652.45 354.5 652.55 354.4 652.6 354.3 652.6 354.2 652.65 354.1 652.7 354.0 652.75 353.9 652.8 353.8 652.85 353.7 652.85 353.55 652.9 353.45 652.95 353.35 652.95 353.2 652.95 353.1 653.0 353.0 653.0 352.9 653.05 352.8 653.05 352.7 653.05 352.6 653.1 352.5 653.1 352.35 653.1 352.25 653.1 352.15 653.1 352.05 653.05 351.95 653.05 351.85 653.05 351.7 653.0 351.6 653.0 351.5 652.95 351.4 652.95 351.3 652.9 351.2 652.9 351.1 652.85 351.0 652.85 350.9 652.8 350.85 652.75 350.8 652.7 350.7 652.65 350.55 652.5 350.5 652.45 350.5 652.4 350.45 652.3 350.4 652.25 350.4 652.2 350.4 652.1 350.4 652.0 350.45 651.9 350.45 651.8 350.5 651.75 350.55 651.65 350.6 651.6 350.65 651.55 350.7 651.45 350.75 651.4 350.8 651.3 350.9 651.25 351.0 651.15 351.1 651.1 351.2 651.05 351.3 651.0 351.4 650.95 351.5 650.85 351.6 650.8 351.7 650.75 351.8 650.75 351.9 650.7 352.05 650.65 352.15 650.6 352.25 650.6 352.4 650.55 352.5 650.55 352.65 650.5 352.8 650.5 352.9 650.5 353.0 650.45 353.15 650.45 353.25 650.4 353.35 650.4" fill="#ffe617" fill-rule="evenodd" stroke="none"/>
      <path d="M234.65 598.9 L234.55 598.95 234.5 598.95 234.4 598.95 234.35 598.95 234.25 598.95 234.2 598.95 234.1 599.0 234.05 599.0 233.95 599.0 233.9 599.0 233.15 598.95 233.15 598.9 233.3 598.9 233.3 598.85 233.15 598.85 233.1 598.8 233.05 598.8 232.95 598.75 232.9 598.7 232.85 598.7 232.8 598.65 232.75 598.6 232.7 598.6 232.65 598.55 232.6 598.5 232.6 598.45 232.55 598.4 232.55 598.35 232.5 598.3 232.5 598.05 232.55 598.05 232.55 597.95 232.6 597.9 232.6 597.85 232.7 597.75 232.75 597.7 232.8 597.65 232.85 597.6 232.9 597.55 233.0 597.5 233.05 597.45 233.15 597.35 233.25 597.3 233.3 597.25 233.35 597.2 233.45 597.15 233.5 597.15 233.6 597.1 233.7 597.05 233.65 597.15 233.55 597.2 233.5 597.25 233.45 597.3 233.4 597.4 233.35 597.45 233.3 597.5 233.25 597.55 233.25 597.6 233.2 597.65 233.15 597.75 233.15 597.85 233.1 597.9 233.1 598.0 233.1 598.1 233.15 598.15 233.15 598.2 233.2 598.25 233.25 598.3 233.25 598.35 233.3 598.4 233.4 598.5 233.45 598.5 233.5 598.55 233.55 598.6 233.6 598.65 233.7 598.65 233.75 598.7 233.85 598.7 233.95 598.75 234.05 598.8 234.2 598.8 234.3 598.85 234.4 598.85 234.5 598.85 234.65 598.9 M217.3 652.05 L216.55 652.2 216.55 652.15 216.3 652.15 216.2 652.1 216.1 652.1 216.0 652.1 215.95 652.05 215.85 652.05 215.8 652.0 215.7 652.0 215.65 651.95 215.55 651.95 215.5 651.9 215.45 651.9 215.35 651.85 215.25 651.75 215.2 651.75 215.15 651.7 215.15 651.65 215.1 651.6 215.05 651.55 215.0 651.55 215.0 651.5 214.95 651.45 214.9 651.4 214.9 651.3 214.85 651.25 214.85 651.05 214.9 650.95 214.9 650.9 214.95 650.85 215.0 650.8 215.15 650.65 215.2 650.6 215.35 650.45 215.4 650.4 215.45 650.35 215.55 650.35 215.6 650.3 215.65 650.25 215.75 650.2 215.8 650.15 215.9 650.1 216.0 650.1 216.1 650.05 216.2 650.0 216.15 650.1 216.05 650.15 216.0 650.2 215.95 650.25 215.9 650.35 215.8 650.4 215.75 650.45 215.7 650.5 215.65 650.6 215.65 650.65 215.6 650.7 215.55 650.8 215.55 650.9 215.55 651.0 215.55 651.1 215.6 651.15 215.6 651.2 215.65 651.3 215.7 651.35 215.7 651.4 215.75 651.45 215.8 651.5 215.85 651.55 215.9 651.6 215.95 651.65 216.0 651.7 216.05 651.75 216.1 651.75 216.2 651.8 216.25 651.85 216.3 651.9 216.4 651.9 216.45 651.95 216.55 651.95 216.65 652.0 216.75 652.0 216.85 652.0 216.95 652.05 217.1 652.05 217.2 652.05 217.3 652.05 M370.15 598.95 L370.15 599.0 370.25 599.0 370.3 598.95 370.4 598.95 370.4 598.9 370.45 598.9 370.6 598.9 369.6 599.25 369.5 599.3 369.45 599.3 369.35 599.3 369.3 599.35 369.2 599.35 369.1 599.35 369.0 599.4 368.95 599.4 368.85 599.4 368.8 599.4 368.7 599.45 368.65 599.45 368.55 599.45 368.45 599.45 368.35 599.45 368.3 599.45 368.2 599.45 368.15 599.45 368.05 599.45 368.0 599.45 367.9 599.45 367.8 599.4 367.75 599.4 367.65 599.4 367.6 599.4 367.5 599.35 367.45 599.35 367.35 599.35 367.3 599.3 367.2 599.3 367.15 599.25 367.05 599.25 367.0 599.2 366.9 599.2 366.85 599.15 366.75 599.15 366.7 599.1 366.65 599.1 366.6 599.05 366.55 599.0 366.5 599.0 366.45 598.95 366.4 598.95 366.4 598.9 366.3 598.8 366.3 598.7 366.25 598.7 366.25 598.35 366.3 598.35 366.3 598.25 366.35 598.2 366.35 598.15 366.45 597.95 366.45 598.05 366.5 598.1 366.5 598.15 366.55 598.2 366.6 598.3 366.7 598.4 366.75 598.45 366.85 598.5 366.9 598.55 367.0 598.6 367.1 598.65 367.2 598.7 367.3 598.7 367.4 598.75 367.5 598.8 367.6 598.85 367.7 598.85 367.8 598.9 367.95 598.95 368.05 598.95 368.15 599.0 368.3 599.0 368.4 599.0 368.55 599.05 368.7 599.05 368.8 599.05 368.95 599.05 369.1 599.05 369.2 599.05 369.35 599.05 369.5 599.05 369.6 599.05 369.75 599.0 369.85 599.0 369.95 599.0 370.05 598.95 370.15 598.95 M370.1 599.0 L370.05 599.05 370.15 599.05 370.15 599.0 370.1 599.0 M350.5 652.45 L350.2 652.2 350.15 652.2 350.15 652.15 350.1 652.1 350.05 652.1 350.05 652.05 350.0 652.0 349.95 651.95 349.95 651.65 350.0 651.6 349.95 651.55 349.95 651.5 350.0 651.5 350.0 651.45 350.0 651.35 350.05 651.3 350.05 651.25 350.15 651.15 350.2 651.1 350.25 651.05 350.25 651.0 350.3 650.95 350.35 650.95 350.45 650.9 350.5 650.85 350.55 650.8 350.65 650.8 350.7 650.75 350.75 650.7 350.85 650.65 350.9 650.65 350.95 650.6 351.0 650.6 351.1 650.55 351.15 650.5 351.2 650.5 351.3 650.45 351.35 650.45 351.4 650.4 351.5 650.4 351.55 650.4 351.65 650.35 351.75 650.35 351.8 650.35 351.9 650.35 352.0 650.3 352.1 650.3 352.15 650.3 352.25 650.3 352.35 650.3 352.4 650.3 352.5 650.3 352.6 650.3 352.65 650.3 352.75 650.3 353.35 650.35 353.35 650.4 353.25 650.4 353.15 650.45 353.0 650.45 352.9 650.5 352.8 650.5 352.65 650.5 352.5 650.55 352.4 650.55 352.25 650.6 352.15 650.6 352.05 650.65 351.9 650.7 351.8 650.75 351.7 650.75 351.6 650.8 351.5 650.85 351.4 650.95 351.3 651.0 351.2 651.05 351.1 651.1 351.0 651.15 350.9 651.25 350.8 651.3 350.75 651.4 350.7 651.45 350.65 651.55 350.6 651.6 350.55 651.65 350.5 651.75 350.45 651.8 350.45 651.9 350.4 652.0 350.4 652.1 350.4 652.2 350.4 652.25 350.45 652.3 350.5 652.4 350.5 652.45" fill="#000000" fill-rule="evenodd" stroke="none"/>
      <path d="M264.65 653.7 L261.75 653.7" fill="none" stroke="#000000" stroke-linecap="square" stroke-linejoin="bevel" stroke-opacity="0.003921569" stroke-width="0.05"/>
      <path d="M335.65 594.35 L335.7 594.35 M215.25 632.75 L215.25 632.7 M223.8 607.3 L223.9 607.0" fill="none" stroke="#000000" stroke-linecap="square" stroke-linejoin="bevel" stroke-opacity="0.003921569" stroke-width="0.05"/>
      <path d="M271.0 594.45 L335.65 594.35 M370.15 613.6 L359.3 654.2 357.95 654.2 318.65 654.15 243.35 654.1 208.45 654.05 216.95 628.8 219.25 622.0 225.75 602.65 228.4 594.75 229.05 594.75 288.75 594.65 290.3 594.65 293.35 594.65 294.35 594.65 296.55 594.65 322.0 594.6 344.65 594.5 375.2 594.5 370.15 613.6 M215.25 632.7 L219.8 619.3 M223.9 607.0 L228.1 594.5 229.2 594.5 271.0 594.45 M266.5 653.7 L291.3 653.75 M361.1 643.75 L359.35 650.3 359.3 650.5 M335.7 594.35 L344.65 594.5 M359.0 651.7 L358.4 653.85 358.1 653.85" fill="none" stroke="#000000" stroke-linecap="round" stroke-linejoin="bevel" stroke-opacity="0.003921569" stroke-width="0.05"/>
      <path d="M291.3 653.75 L294.5 653.75 M359.0 651.7 L359.0 651.6 M361.1 643.75 L365.3 628.0 M266.5 653.7 L266.1 653.7 M215.25 632.8 L209.9 648.65" fill="none" stroke="#000000" stroke-linecap="round" stroke-linejoin="bevel" stroke-opacity="0.003921569" stroke-width="0.05"/>
    </g>
    <g id="shape9" transform="matrix(1.0, 0.0, 0.0, 1.0, 86.45, 65.9)">
      <path d="M91.6 17.75 L-84.45 16.15 -86.0 2.7 90.4 4.2 91.6 17.75" fill="#336633" fill-rule="evenodd" stroke="none"/>
      <path d="M109.0 -52.6 L91.25 17.2 90.05 3.65 107.85 -65.9 109.0 -52.6" fill="#142814" fill-rule="evenodd" stroke="none"/>
      <path d="M109.3 -52.0 L91.55 17.75 90.35 4.2 108.15 -65.3 109.3 -52.0" fill="#142814" fill-rule="evenodd" stroke="none"/>
      <path d="M91.25 17.1 L-84.9 15.5 -86.45 2.05 90.05 3.55 91.25 17.1" fill="#336633" fill-rule="evenodd" stroke="none"/>
    </g>
    <g id="shape10" transform="matrix(1.0, 0.0, 0.0, 1.0, 72.5, -46.1)">
      <path d="M97.85 107.65 L-70.6 109.2 -72.5 46.35 97.85 46.1 97.85 107.65" fill="#2e5a2e" fill-rule="evenodd" stroke="none"/>
    </g>
  </defs>
</svg>
