<?xml version="1.0" encoding="UTF-8" standalone="no"?>
<svg xmlns:xlink="http://www.w3.org/1999/xlink" height="283.2px" width="222.2px" xmlns="http://www.w3.org/2000/svg">
  <g transform="matrix(1.0, 0.0, 0.0, 1.0, 100.95, 123.95)">
    <use data-characterId="224" height="283.2" transform="matrix(1.0, 0.0, 0.0, 1.0, -100.95, -123.95)" width="222.2" xlink:href="#shape0"/>
    <clipPath id="clipPath0" transform="matrix(1.0, 0.0, 0.0, 1.0, 0.0, 0.0)">
      <path d="M97.95 64.65 L-90.25 58.5 -90.25 -100.3 98.35 -98.1 97.95 64.65" fill="#000000" fill-rule="evenodd" stroke="none"/>
    </clipPath>
    <g clip-path="url(#clipPath0)">
      <use data-characterId="236" height="109.85" transform="matrix(1.0, 0.0, 0.0, 1.0, -86.05, -79.95)" width="192.55" xlink:href="#shape2"/>
      <use data-characterId="237" height="86.3" transform="matrix(1.0316, 0.0, 0.0, 1.0316, -76.0786, -76.3653)" width="165.65" xlink:href="#shape3"/>
    </g>
    <use data-characterId="227" height="63.1" transform="matrix(1.0, 0.0, 0.0, 1.0, -72.5, 46.1)" width="170.35" xlink:href="#shape4"/>
  </g>
  <defs>
    <g id="shape0" transform="matrix(1.0, 0.0, 0.0, 1.0, 100.95, 123.95)">
      <path d="M117.4 -123.2 L120.5 -114.75 120.5 -111.4 118.65 -112.05 118.65 -107.95 120.4 -107.3 116.3 152.25 108.2 158.5 111.1 -102.05 105.35 -104.55 104.8 -113.5 105.5 -113.2 105.25 -115.7 105.05 -116.9 104.65 -119.65 117.4 -123.2 M-66.6 120.1 L-66.35 154.05 -72.1 156.9 -78.75 -94.8 -78.6 -94.8 -73.4 -90.45 -73.25 -90.6 -67.0 108.7 -69.25 108.7 -68.95 120.15 -66.6 120.1" fill="#c5cf5a" fill-rule="evenodd" stroke="none"/>
      <path d="M108.2 158.5 L98.4 157.9 98.0 120.8 -66.6 120.1 -68.95 120.15 -69.25 108.7 -67.0 108.7 98.0 107.65 98.4 -92.95 98.4 -96.95 -78.6 -94.8 -78.75 -94.8 -72.1 156.9 -81.25 154.9 -91.05 -103.1 111.1 -102.05 108.2 158.5 M-99.75 -105.0 L-99.75 -111.25 -97.65 -111.3 104.8 -113.5 105.35 -104.55 -99.75 -105.0 M-98.1 -113.8 L-100.2 -113.7 -100.2 -115.9 104.65 -119.65 105.05 -116.9 -98.1 -113.8" fill="#cdf7bb" fill-rule="evenodd" stroke="none"/>
      <path d="M-91.05 -103.1 L-99.75 -105.0 105.35 -104.55 111.1 -102.05 -91.05 -103.1 M-97.85 -112.8 L-98.1 -113.8 105.05 -116.9 105.25 -115.7 -97.85 -112.8 M-78.6 -94.8 L98.4 -96.95 98.4 -92.95 -73.25 -90.6 -73.4 -90.45 -78.6 -94.8" fill="#7e9b53" fill-rule="evenodd" stroke="none"/>
      <path d="M-97.65 -111.3 L-97.85 -112.8 105.25 -115.7 105.5 -113.2 104.8 -113.5 -97.65 -111.3" fill="#d0d97b" fill-rule="evenodd" stroke="none"/>
      <path d="M-100.2 -115.9 L-91.1 -119.7 117.4 -123.2 104.65 -119.65 -100.2 -115.9" fill="#effce9" fill-rule="evenodd" stroke="none"/>
      <path d="M117.4 -123.2 L120.5 -114.75 120.5 -111.4 118.65 -112.05 118.65 -107.95 120.4 -107.3 116.3 152.25 M98.4 157.9 L98.0 120.8 -66.6 120.1 -66.35 154.05 M-81.25 154.9 L-91.05 -103.1 -99.75 -105.0 -99.75 -111.25 -97.65 -111.3 -97.85 -112.8 M-98.1 -113.8 L-100.2 -113.7 -100.2 -115.9 -91.1 -119.7 117.4 -123.2" fill="none" stroke="#498231" stroke-linecap="round" stroke-linejoin="round" stroke-width="1.5"/>
      <path d="M116.3 152.25 L108.2 158.5 98.4 157.9 M-66.35 154.05 L-72.1 156.9 -81.25 154.9" fill="none" stroke="#bdca46" stroke-linecap="round" stroke-linejoin="round" stroke-width="1.5"/>
    </g>
    <g id="shape2" transform="matrix(1.0, 0.0, 0.0, 1.0, 86.05, 79.95)">
      <path d="M92.15 29.85 L-83.85 27.65 -86.05 16.8 -86.05 16.75 -64.75 -79.95 104.6 -79.6 90.1 18.9 90.1 18.95 90.45 18.95 92.15 29.85" fill="#336633" fill-rule="evenodd" stroke="none"/>
      <path d="M104.6 -79.6 L104.75 -78.5 104.9 -79.5 106.5 -68.55 92.15 29.9 92.15 29.85 90.45 18.95 90.1 18.95 90.1 18.9 104.6 -79.6" fill="#142914" fill-rule="evenodd" stroke="none"/>
    </g>
    <g id="shape3" transform="matrix(1.0, 0.0, 0.0, 1.0, -220.5, -704.85)">
      <path d="M238.85 705.75 L238.9 705.65 238.95 705.6 238.95 705.5 239.0 705.45 239.05 705.4 239.15 705.3 239.25 705.25 239.3 705.2 239.4 705.15 239.45 705.15 239.55 705.1 239.6 705.1 239.7 705.05 239.8 705.05 239.9 705.05 240.0 705.05 242.2 705.05 244.45 705.05 246.65 705.05 248.9 705.1 251.1 705.1 253.35 705.15 255.55 705.15 257.8 705.2 260.0 705.25 262.25 705.3 264.45 705.3 266.65 705.35 268.85 705.4 271.05 705.45 273.25 705.5 275.45 705.55 278.5 705.65 238.85 705.75 278.5 705.65 281.6 705.75 284.7 705.8 287.75 705.85 290.85 705.9 293.95 705.95 295.9 706.0 297.05 706.0 298.25 706.0 300.1 706.05 303.2 706.05 305.15 706.1 321.3 706.1 321.7 706.1 326.0 706.05 326.3 706.05 329.1 706.0 329.2 706.0 330.65 706.0 331.25 706.0 332.05 705.95 333.4 705.95 334.5 705.95 334.75 705.9 336.1 705.9 337.45 705.85 338.75 705.8 340.05 705.75 341.3 705.75 342.6 705.7 343.85 705.65 345.1 705.6 346.35 705.55 348.3 705.5 364.4 704.95 365.55 704.95 366.75 704.9 367.85 704.9 369.0 704.85 370.1 704.85 371.2 704.85 372.25 704.85 373.3 704.85 374.35 704.85 375.4 704.9 376.4 704.9 377.4 704.9 378.35 704.95 379.3 705.0 380.25 705.0 381.0 705.05 381.2 705.05 381.6 705.05 381.7 705.05 381.8 705.05 382.0 705.05 382.2 705.05 382.45 705.05 382.65 705.05 382.85 705.05 383.05 705.05 383.25 705.05 383.45 705.1 383.65 705.1 383.75 705.1 384.1 705.1 384.2 705.1 384.25 705.1 384.3 705.1 384.5 705.1 384.6 705.15 384.7 705.15 384.8 705.15 384.9 705.15 385.0 705.15 385.25 705.15 385.35 705.15 385.45 705.15 385.55 705.2 385.65 705.2 385.7 705.25 385.8 705.25 385.85 705.3 385.9 705.35 385.95 705.4 386.0 705.45 386.05 705.5 386.1 705.55 386.1 705.6 386.15 705.7 386.15 705.75 386.15 705.85 386.05 706.8 385.9 707.75 385.8 708.65 385.65 709.6 385.55 710.5 385.4 711.35 385.3 712.25 385.15 713.1 385.0 713.95 384.85 714.8 384.7 715.65 384.5 716.45 384.35 717.25 384.2 718.05 384.0 718.85 383.8 719.6 383.8 719.75 383.8 719.85 383.75 719.95 383.75 720.1 383.75 720.2 383.7 720.3 383.7 720.4 383.7 720.55 383.7 720.65 383.65 720.75 383.65 720.85 383.65 720.95 383.65 721.1 383.65 721.2 383.65 721.3 383.65 721.4 383.6 722.05 383.55 722.7 383.5 723.3 383.4 723.95 383.3 724.6 383.2 725.25 383.1 725.85 383.0 726.5 382.85 727.1 382.75 727.7 382.6 728.35 382.45 728.95 382.25 729.55 382.1 730.15 381.9 730.75 381.7 731.35 381.55 731.8 381.45 732.2 381.3 732.65 381.15 733.05 381.05 733.45 381.0 733.6 380.9 733.85 380.8 734.25 380.7 734.65 380.6 735.0 380.5 735.4 380.4 735.75 380.3 736.15 380.2 736.5 380.15 736.85 380.05 737.2 380.0 737.55 379.4 740.35 379.35 740.7 379.3 741.0 379.2 741.35 379.15 741.65 379.1 742.0 379.0 742.3 378.95 742.65 378.9 742.95 378.85 743.3 378.8 743.6 378.7 743.95 378.65 744.25 378.6 744.6 378.55 744.9 378.5 745.25 378.45 745.6 378.2 746.9 378.0 748.15 377.75 749.45 377.55 750.7 377.35 751.75 377.3 752.7 377.25 753.6 377.2 754.5 377.15 755.4 377.1 756.3 377.0 757.2 376.9 758.1 376.8 759.05 376.7 759.95 376.6 760.9 376.45 761.85 376.3 762.75 376.15 763.7 375.95 764.7 375.8 765.65 375.6 766.6 375.4 767.6 375.25 768.15 375.1 768.75 375.0 769.3 374.85 769.85 374.75 770.45 374.6 771.0 374.5 771.55 374.35 772.1 374.25 772.7 374.1 773.25 374.0 773.8 373.85 774.35 373.75 774.95 373.65 775.5 373.5 776.05 373.45 776.45 373.4 776.75 372.4 781.2 372.3 781.65 372.2 782.15 372.2 782.45 372.2 782.6 372.2 783.1 372.2 783.6 372.2 784.1 372.2 784.25 372.2 784.35 372.2 784.45 372.2 784.65 372.2 784.8 372.15 785.0 372.15 785.15 372.15 785.35 372.1 785.55 372.1 785.7 372.1 785.9 372.05 786.1 372.0 786.25 372.0 786.45 371.95 786.65 371.9 786.8 371.85 787.0 371.8 787.2 371.75 787.45 371.7 787.65 371.65 787.9 371.65 788.05 371.6 788.1 371.55 788.3 371.5 788.55 371.45 788.75 371.35 789.0 371.3 789.2 371.25 789.4 371.2 789.65 371.1 789.85 371.05 790.1 371.0 790.3 370.95 790.45 370.9 790.55 370.9 790.6 370.85 790.65 370.8 790.7 370.75 790.8 370.65 790.9 370.6 790.95 370.5 791.0 370.45 791.0 370.35 791.05 370.25 791.1 370.2 791.1 370.1 791.15 370.0 791.15 369.9 791.15 369.8 791.15 367.5 791.15 365.2 791.1 362.85 791.1 360.55 791.05 358.25 791.05 355.95 791.0 353.6 790.95 351.3 790.9 349.0 790.85 346.7 790.8 344.4 790.75 342.1 790.7 339.85 790.65 337.55 790.6 335.3 790.5 333.05 790.45 330.75 790.4 329.85 790.35 326.7 790.25 323.5 790.15 320.35 790.1 317.15 790.0 313.95 789.95 310.8 789.9 307.6 789.85 304.45 789.8 301.25 789.8 298.1 789.75 295.7 789.75 295.5 789.75 294.95 789.7 294.55 789.7 291.8 789.7 282.35 789.7 280.8 789.7 279.3 789.75 277.8 789.75 276.35 789.75 274.9 789.8 273.5 789.8 272.15 789.85 270.75 789.85 269.4 789.9 268.05 789.95 266.75 789.95 265.45 790.0 264.15 790.05 262.85 790.1 261.6 790.1 260.3 790.15 256.7 790.25 241.95 790.7 240.75 790.75 239.55 790.75 238.4 790.75 237.25 790.8 236.15 790.8 235.05 790.8 233.95 790.8 232.9 790.8 231.85 790.75 230.8 790.75 229.8 790.75 228.75 790.7 227.8 790.65 226.8 790.65 225.85 790.6 224.9 790.55 224.7 790.55 224.5 790.55 224.3 790.55 224.1 790.55 223.9 790.55 223.65 790.55 223.45 790.55 223.25 790.5 223.05 790.5 222.85 790.5 222.6 790.5 222.4 790.5 222.2 790.5 222.0 790.5 221.8 790.45 221.55 790.45 221.4 790.45 221.3 790.4 221.2 790.4 221.15 790.35 221.05 790.3 220.9 790.15 220.85 790.1 220.85 790.05 220.85 790.0 220.75 790.0 220.7 789.95 220.65 789.9 220.6 789.85 220.55 789.75 220.55 789.7 220.5 789.65 220.5 789.6 220.5 789.5 220.5 789.45 220.65 788.45 220.8 787.45 221.0 786.5 221.15 785.55 221.3 784.65 221.5 783.7 221.65 782.8 221.85 781.9 222.05 781.05 222.2 780.2 222.4 779.35 222.6 778.5 222.8 777.65 223.0 776.85 223.25 776.05 223.45 775.25 223.5 775.15 223.5 775.05 223.5 774.9 223.55 774.8 223.55 774.7 223.6 774.55 223.6 774.45 223.6 774.35 223.65 774.2 223.65 774.1 223.65 774.0 223.7 773.9 223.7 773.8 223.7 773.65 223.7 773.55 223.7 773.45 223.8 772.8 223.85 772.15 223.95 771.5 224.05 770.85 224.2 770.2 224.3 769.55 224.45 768.95 224.6 768.3 224.75 767.65 224.9 767.05 225.05 766.4 225.25 765.8 225.45 765.2 225.65 764.6 225.85 764.0 226.05 763.4 226.2 762.95 226.4 762.5 226.55 762.1 226.7 761.7 226.8 761.25 226.95 760.85 227.1 760.6 227.1 760.5 227.2 760.1 227.35 759.7 227.45 759.3 227.55 758.95 227.65 758.6 227.75 758.25 227.85 757.85 227.95 757.5 228.05 757.2 228.4 755.75 228.7 754.35 228.8 754.05 228.85 753.7 228.95 753.4 229.0 753.05 229.1 752.75 229.2 752.4 229.25 752.1 229.35 751.75 229.4 751.45 229.5 751.1 229.55 750.8 229.6 750.45 229.7 750.15 229.75 749.8 229.8 749.5 229.9 749.15 230.15 747.85 230.35 747.0 230.4 746.6 230.5 745.5 230.6 744.35 230.65 744.05 235.5 719.05 230.65 744.05 230.75 743.25 230.85 742.1 230.9 741.2 231.0 740.35 231.1 739.45 231.2 738.55 231.3 737.65 231.4 736.75 231.55 735.85 231.7 734.95 231.85 734.0 232.05 733.1 232.2 732.2 232.4 731.25 232.6 730.3 232.8 729.35 233.05 728.4 233.3 727.45 233.45 726.9 233.6 726.35 233.75 725.8 233.9 725.25 234.0 724.9 234.05 724.7 234.2 724.15 234.35 723.6 234.45 723.05 234.6 722.5 234.75 721.95 234.9 721.4 235.05 720.9 235.15 720.35 235.3 719.8 235.45 719.25 235.5 719.05 235.6 718.75 236.7 714.3 236.8 713.85 236.9 713.4 237.0 712.95 237.1 712.5 237.2 712.05 237.3 711.6 237.4 711.1 237.5 710.65 237.55 710.45 237.55 710.4 237.6 710.2 237.6 710.05 237.65 709.85 237.7 709.7 237.7 709.5 237.75 709.5 237.75 709.3 237.85 708.85 237.95 708.4 238.05 707.95 238.1 707.5 238.2 707.05 238.2 707.0 238.25 706.95 238.3 706.85 238.4 706.75 238.45 706.7 238.5 706.65 238.55 706.6 238.6 706.5 238.7 706.25 238.75 706.15 238.75 706.05 238.8 705.85 238.85 705.75 M366.5 705.45 L348.3 705.5 366.5 705.45 M295.9 706.0 L238.75 706.15 295.9 706.0 M256.7 790.25 L221.7 790.2 228.4 755.75 221.7 790.2 256.7 790.25 M370.95 790.45 L330.75 790.4 370.95 790.45 M376.8 754.45 L373.45 776.45 376.8 754.45 M239.9 708.4 L239.8 708.85 239.7 709.3 239.6 709.75 239.5 710.25 239.45 710.7 239.35 711.15 239.25 711.6 239.15 712.05 239.05 712.5 238.95 712.95 238.85 713.4 238.75 713.9 238.65 714.35 237.5 718.8 237.35 719.3 237.25 719.85 237.1 720.4 236.95 720.95 236.8 721.5 236.7 722.05 236.55 722.6 236.4 723.15 236.25 723.7 236.1 724.25 235.95 724.8 235.8 725.35 235.65 725.9 235.5 726.45 235.35 727.0 235.2 727.55 235.0 728.5 234.75 729.4 234.55 730.35 234.35 731.25 234.15 732.2 234.0 733.1 233.8 734.0 233.65 734.9 233.5 735.8 233.4 736.7 233.25 737.6 233.15 738.45 233.05 739.35 232.95 740.25 232.9 741.1 232.8 742.0 232.7 743.15 232.6 744.25 232.45 745.4 232.35 746.5 232.25 747.6 232.1 748.7 231.95 749.8 231.85 750.9 231.7 752.0 231.55 753.05 231.4 754.1 231.2 755.2 231.05 756.25 230.9 757.3 230.7 758.35 230.55 759.4 230.45 759.85 230.4 760.3 230.3 760.75 230.2 761.2 230.1 761.65 230.05 762.15 229.95 762.65 229.8 763.1 229.7 763.6 229.6 764.1 229.5 764.65 229.35 765.15 229.2 765.7 229.1 766.2 228.95 766.75 228.8 767.3 228.8 767.4 228.75 767.5 228.75 767.6 228.7 767.7 228.7 767.85 228.65 767.95 228.65 768.05 228.6 768.15 228.6 768.25 228.55 768.35 228.55 768.45 228.5 768.55 228.5 768.7 228.45 768.8 228.45 768.9 228.4 769.0 228.4 769.1 228.35 769.2 228.35 769.3 228.35 769.4 228.3 769.5 228.3 769.65 228.25 769.75 228.25 769.85 228.2 769.95 228.2 770.05 228.15 770.15 228.15 770.25 228.1 770.35 228.1 770.5 228.05 770.6 228.05 770.7 228.0 770.9 227.95 771.15 227.9 771.35 227.85 771.6 227.85 771.8 227.8 772.05 227.75 772.25 227.7 772.5 227.65 772.7 227.6 772.95 227.55 773.15 227.5 773.4 227.45 773.6 227.35 773.85 227.3 774.05 227.25 774.3 227.2 774.65 227.1 775.0 227.05 775.4 226.95 775.75 226.85 776.05 226.8 776.4 226.7 776.75 226.6 777.1 226.55 777.4 226.45 777.7 226.35 778.05 226.25 778.35 226.15 778.65 226.05 778.95 225.95 779.25 225.85 779.55 225.6 780.2 225.4 780.9 225.2 781.55 225.0 782.2 224.8 782.85 224.6 783.5 224.4 784.15 224.2 784.8 224.0 785.45 223.8 786.1 223.65 786.7 223.45 787.35 223.3 787.95 223.1 788.6 223.0 789.05 223.2 789.1 223.4 789.1 223.6 789.1 223.8 789.1 224.0 789.1 224.2 789.1 224.4 789.1 224.6 789.1 224.8 789.1 225.0 789.1 225.2 789.1 226.15 789.15 227.1 789.2 228.1 789.2 229.1 789.25 230.1 789.3 231.1 789.3 232.15 789.35 233.2 789.35 234.25 789.35 235.3 789.35 236.4 789.35 237.5 789.35 238.65 789.35 239.8 789.3 240.95 789.3 242.15 789.25 260.5 788.75 261.75 788.7 263.05 788.65 264.35 788.6 265.65 788.55 266.95 788.5 268.25 788.5 269.6 788.45 270.95 788.4 272.35 788.4 273.7 788.35 275.15 788.35 276.55 788.3 278.05 788.3 279.5 788.3 281.0 788.25 282.55 788.25 285.7 788.25 288.85 788.25 292.05 788.25 295.2 788.3 298.35 788.3 301.55 788.35 304.7 788.35 307.9 788.4 311.1 788.45 314.25 788.5 317.45 788.6 320.65 788.65 323.8 788.75 327.0 788.8 330.15 788.9 333.35 789.0 335.6 789.05 337.85 789.15 340.15 789.2 342.4 789.25 344.7 789.3 347.0 789.35 349.3 789.4 351.6 789.45 353.9 789.5 356.2 789.55 358.5 789.6 360.8 789.6 363.1 789.65 365.45 789.65 367.75 789.7 369.15 789.7 369.2 789.5 369.25 789.25 369.35 789.05 369.4 788.85 369.45 788.65 369.5 788.4 369.55 788.2 369.6 788.0 369.65 787.75 369.7 787.55 369.75 787.35 369.8 787.15 369.9 786.9 369.9 786.75 369.95 786.55 370.0 786.4 370.0 786.25 370.05 786.05 370.05 785.9 370.1 785.75 370.1 785.55 370.15 785.4 370.15 785.2 370.15 785.05 370.15 784.9 370.15 784.7 370.2 784.55 370.2 784.35 370.2 784.2 370.2 783.7 370.15 783.25 370.15 782.75 370.15 782.25 370.15 781.75 370.15 781.25 370.15 780.7 370.2 780.2 370.2 779.7 370.25 779.15 370.25 778.65 370.3 778.1 370.35 777.6 370.4 777.05 370.5 776.5 370.55 776.0 370.65 775.35 370.7 774.7 370.8 774.05 370.85 773.4 370.95 772.75 371.05 772.1 371.15 771.4 371.3 770.7 371.4 770.05 371.55 769.35 371.65 768.65 371.8 767.95 371.95 767.25 372.1 766.55 372.3 765.85 372.45 765.1 372.75 763.95 373.0 762.8 373.3 761.6 373.55 760.4 373.8 759.25 374.1 758.05 374.35 756.85 374.6 755.65 374.85 754.4 375.1 753.15 375.3 751.95 375.55 750.7 375.8 749.4 376.0 748.15 376.25 746.85 376.45 745.55 376.5 745.25 376.55 744.9 376.6 744.6 376.7 744.25 376.75 743.9 376.8 743.6 376.85 743.25 376.9 742.95 377.0 742.6 377.05 742.3 377.1 741.95 377.2 741.65 377.25 741.3 377.3 740.95 377.4 740.65 377.45 740.3 378.0 737.5 378.1 737.15 378.15 736.8 378.25 736.4 378.35 736.05 378.45 735.7 378.5 735.3 378.65 734.9 378.75 734.5 378.85 734.1 378.95 733.7 379.1 733.3 379.2 732.9 379.35 732.45 379.5 732.05 379.65 731.6 379.8 731.15 379.95 730.6 380.15 730.0 380.3 729.4 380.5 728.85 380.65 728.25 380.8 727.65 380.9 727.05 381.05 726.45 381.15 725.85 381.25 725.2 381.35 724.6 381.45 724.0 381.5 723.35 381.55 722.75 381.6 722.1 381.65 721.5 381.65 721.4 381.65 721.25 381.65 721.15 381.65 721.05 381.7 720.95 381.7 720.8 381.7 720.7 381.7 720.6 381.75 720.45 381.75 720.35 381.75 720.25 381.8 720.1 381.8 720.0 381.8 719.85 381.85 719.75 381.85 719.65 382.05 718.85 382.2 718.05 382.4 717.25 382.55 716.45 382.7 715.6 382.85 714.8 383.0 713.95 383.15 713.1 383.3 712.25 383.45 711.35 383.6 710.5 383.7 709.6 383.85 708.7 383.95 707.75 384.05 706.8 384.1 706.5 384.0 706.5 383.9 706.5 383.8 706.5 383.7 706.5 383.6 706.5 383.5 706.5 383.4 706.5 383.3 706.5 383.25 706.5 383.15 706.5 383.1 706.5 383.05 706.5 382.95 706.5 382.9 706.5 382.2 706.45 381.45 706.45 380.75 706.4 380.05 706.4 379.35 706.4 378.65 706.4 377.95 706.4 377.25 706.4 376.55 706.4 375.85 706.4 375.15 706.4 374.45 706.4 373.75 706.45 373.05 706.45 372.35 706.5 371.65 706.5 369.85 706.6 368.0 706.7 366.15 706.8 364.25 706.9 362.35 707.0 360.45 707.1 358.55 707.15 356.6 707.25 354.6 707.3 352.6 707.4 350.55 707.45 348.5 707.55 346.35 707.6 344.25 707.65 342.05 707.7 339.85 707.75 339.75 707.75 339.7 707.75 339.6 707.75 339.55 707.75 339.5 707.7 339.45 707.7 339.35 707.65 339.3 707.65 339.25 707.6 339.2 707.6 339.15 707.55 339.1 707.55 339.1 707.5 339.0 707.4 339.0 707.35 240.0 707.75 239.95 707.95 239.9 708.4 M227.15 766.15 L227.25 765.6 227.15 765.9 227.0 766.5 226.85 767.15 226.65 767.75 226.55 768.35 226.4 768.95 226.25 769.6 226.15 770.2 226.15 770.45 226.15 770.35 226.15 770.25 226.2 770.15 226.2 770.05 226.25 769.9 226.25 769.8 226.3 769.7 226.3 769.6 226.35 769.5 226.35 769.4 226.4 769.25 226.4 769.15 226.45 769.05 226.45 768.95 226.5 768.85 226.5 768.75 226.55 768.65 226.55 768.55 226.6 768.45 226.6 768.3 226.65 768.2 226.65 768.1 226.7 768.0 226.7 767.9 226.75 767.8 226.75 767.65 226.8 767.55 226.8 767.45 226.85 767.35 226.85 767.25 227.0 766.7 227.15 766.15 M226.05 770.85 L226.1 770.7 226.1 770.6 226.1 770.55 226.05 770.85 225.95 771.3 226.0 771.15 226.05 770.9 226.05 770.85 M222.65 783.4 L227.1 760.6 222.65 783.4 M334.5 705.95 L385.25 705.8 381.0 733.6 385.25 705.8 334.5 705.95" fill="#fbd672" fill-rule="evenodd" stroke="none"/>
      <path d="M239.9 708.4 L239.95 707.95 240.0 707.75 339.0 707.35 339.0 707.4 339.1 707.5 339.1 707.55 339.15 707.55 339.2 707.6 339.25 707.6 339.3 707.65 339.35 707.65 339.45 707.7 339.5 707.7 339.55 707.75 339.6 707.75 339.7 707.75 339.75 707.75 339.85 707.75 342.05 707.7 344.25 707.65 346.35 707.6 348.5 707.55 350.55 707.45 352.6 707.4 354.6 707.3 356.6 707.25 358.55 707.15 360.45 707.1 362.35 707.0 364.25 706.9 366.15 706.8 368.0 706.7 369.85 706.6 371.65 706.5 372.35 706.5 373.05 706.45 373.75 706.45 374.45 706.4 375.15 706.4 375.85 706.4 376.55 706.4 377.25 706.4 377.95 706.4 378.65 706.4 379.35 706.4 380.05 706.4 380.75 706.4 381.45 706.45 382.2 706.45 382.9 706.5 382.95 706.5 383.05 706.5 383.1 706.5 383.15 706.5 383.25 706.5 383.3 706.5 383.4 706.5 383.5 706.5 383.6 706.5 383.7 706.5 383.8 706.5 383.9 706.5 384.0 706.5 384.1 706.5 384.05 706.8 383.95 707.75 383.85 708.7 383.7 709.6 383.6 710.5 383.45 711.35 383.3 712.25 383.15 713.1 383.0 713.95 382.85 714.8 382.7 715.6 382.55 716.45 382.4 717.25 382.2 718.05 382.05 718.85 381.85 719.65 381.85 719.75 381.8 719.85 381.8 720.0 381.8 720.1 381.75 720.25 381.75 720.35 381.75 720.45 381.7 720.6 381.7 720.7 381.7 720.8 381.7 720.95 381.65 721.05 381.65 721.15 381.65 721.25 381.65 721.4 381.65 721.5 381.6 722.1 381.55 722.75 381.5 723.35 381.45 724.0 381.35 724.6 381.25 725.2 381.15 725.85 381.05 726.45 380.9 727.05 380.8 727.65 380.65 728.25 380.5 728.85 380.3 729.4 380.15 730.0 379.95 730.6 379.8 731.15 379.65 731.6 379.5 732.05 379.35 732.45 379.2 732.9 379.1 733.3 378.95 733.7 378.85 734.1 378.75 734.5 378.65 734.9 378.5 735.3 378.45 735.7 378.35 736.05 378.25 736.4 378.15 736.8 378.1 737.15 378.0 737.5 377.45 740.3 377.4 740.65 377.3 740.95 377.25 741.3 377.2 741.65 377.1 741.95 377.05 742.3 377.0 742.6 376.9 742.95 376.85 743.25 376.8 743.6 376.75 743.9 376.7 744.25 376.6 744.6 376.55 744.9 376.5 745.25 376.45 745.55 376.25 746.85 376.0 748.15 375.8 749.4 375.55 750.7 375.3 751.95 375.1 753.15 374.85 754.4 374.6 755.65 374.35 756.85 374.1 758.05 373.8 759.25 373.55 760.4 373.3 761.6 373.0 762.8 372.75 763.95 372.45 765.1 372.3 765.85 372.1 766.55 371.95 767.25 371.8 767.95 371.65 768.65 371.55 769.35 371.4 770.05 371.3 770.7 371.15 771.4 371.05 772.1 370.95 772.75 370.85 773.4 370.8 774.05 370.7 774.7 370.65 775.35 370.55 776.0 370.5 776.5 370.4 777.05 370.35 777.6 370.3 778.1 370.25 778.65 370.25 779.15 370.2 779.7 370.2 780.2 370.15 780.7 370.15 781.25 370.15 781.75 370.15 782.25 370.15 782.75 370.15 783.25 370.2 783.7 370.2 784.2 370.2 784.35 370.2 784.55 370.15 784.7 370.15 784.9 370.15 785.05 370.15 785.2 370.15 785.4 370.1 785.55 370.1 785.75 370.05 785.9 370.05 786.05 370.0 786.25 370.0 786.4 369.95 786.55 369.9 786.75 369.9 786.9 369.8 787.15 369.75 787.35 369.7 787.55 369.65 787.75 369.6 788.0 369.55 788.2 369.5 788.4 369.45 788.65 369.4 788.85 369.35 789.05 369.25 789.25 369.2 789.5 369.15 789.7 367.75 789.7 365.45 789.65 363.1 789.65 360.8 789.6 358.5 789.6 356.2 789.55 353.9 789.5 351.6 789.45 349.3 789.4 347.0 789.35 344.7 789.3 342.4 789.25 340.15 789.2 337.85 789.15 335.6 789.05 333.35 789.0 330.15 788.9 327.0 788.8 323.8 788.75 320.65 788.65 317.45 788.6 314.25 788.5 311.1 788.45 307.9 788.4 304.7 788.35 301.55 788.35 298.35 788.3 295.2 788.3 292.05 788.25 288.85 788.25 285.7 788.25 282.55 788.25 281.0 788.25 279.5 788.3 278.05 788.3 276.55 788.3 275.15 788.35 273.7 788.35 272.35 788.4 270.95 788.4 269.6 788.45 268.25 788.5 266.95 788.5 265.65 788.55 264.35 788.6 263.05 788.65 261.75 788.7 260.5 788.75 242.15 789.25 240.95 789.3 239.8 789.3 238.65 789.35 237.5 789.35 236.4 789.35 235.3 789.35 234.25 789.35 233.2 789.35 232.15 789.35 231.1 789.3 230.1 789.3 229.1 789.25 228.1 789.2 227.1 789.2 226.15 789.15 225.2 789.1 225.0 789.1 224.8 789.1 224.6 789.1 224.4 789.1 224.2 789.1 224.0 789.1 223.8 789.1 223.6 789.1 223.4 789.1 223.2 789.1 223.0 789.05 223.1 788.6 223.3 787.95 223.45 787.35 223.65 786.7 223.8 786.1 224.0 785.45 224.2 784.8 224.4 784.15 224.6 783.5 224.8 782.85 225.0 782.2 225.2 781.55 225.4 780.9 225.6 780.2 225.85 779.55 225.95 779.25 226.05 778.95 226.15 778.65 226.25 778.35 226.35 778.05 226.45 777.7 226.55 777.4 226.6 777.1 226.7 776.75 226.8 776.4 226.85 776.05 226.95 775.75 227.05 775.4 227.1 775.0 227.2 774.65 227.25 774.3 227.3 774.05 227.35 773.85 227.45 773.6 227.5 773.4 227.55 773.15 227.6 772.95 227.65 772.7 227.7 772.5 227.75 772.25 227.8 772.05 227.85 771.8 227.85 771.6 227.9 771.35 227.95 771.15 228.0 770.9 228.05 770.7 228.05 770.6 228.1 770.5 228.1 770.35 228.15 770.25 228.15 770.15 228.2 770.05 228.2 769.95 228.25 769.85 228.25 769.75 228.3 769.65 228.3 769.5 228.35 769.4 228.35 769.3 228.35 769.2 228.4 769.1 228.4 769.0 228.45 768.9 228.45 768.8 228.5 768.7 228.5 768.55 228.55 768.45 228.55 768.35 228.6 768.25 228.6 768.15 228.65 768.05 228.65 767.95 228.7 767.85 228.7 767.7 228.75 767.6 228.75 767.5 228.8 767.4 228.8 767.3 228.95 766.75 229.1 766.2 229.2 765.7 229.35 765.15 229.5 764.65 229.6 764.1 229.7 763.6 229.8 763.1 229.95 762.65 230.05 762.15 230.1 761.65 230.2 761.2 230.3 760.75 230.4 760.3 230.45 759.85 230.55 759.4 230.7 758.35 230.9 757.3 231.05 756.25 231.2 755.2 231.4 754.1 231.55 753.05 231.7 752.0 231.85 750.9 231.95 749.8 232.1 748.7 232.25 747.6 232.35 746.5 232.45 745.4 232.6 744.25 232.7 743.15 232.8 742.0 232.9 741.1 232.95 740.25 233.05 739.35 233.15 738.45 233.25 737.6 233.4 736.7 233.5 735.8 233.65 734.9 233.8 734.0 234.0 733.1 234.15 732.2 234.35 731.25 234.55 730.35 234.75 729.4 235.0 728.5 235.2 727.55 235.35 727.0 235.5 726.45 235.65 725.9 235.8 725.35 235.95 724.8 236.1 724.25 236.25 723.7 236.4 723.15 236.55 722.6 236.7 722.05 236.8 721.5 236.95 720.95 237.1 720.4 237.25 719.85 237.35 719.3 237.5 718.8 238.65 714.35 238.75 713.9 238.85 713.4 238.95 712.95 239.05 712.5 239.15 712.05 239.25 711.6 239.35 711.15 239.45 710.7 239.5 710.25 239.6 709.75 239.7 709.3 239.8 708.85 239.9 708.4 M243.7 709.35 L243.65 709.35 243.55 709.4 243.45 709.45 243.4 709.5 243.3 709.55 243.25 709.6 243.15 709.65 243.1 709.7 243.05 709.75 242.95 709.85 242.9 709.9 242.85 709.95 242.8 710.05 242.75 710.1 242.65 710.2 242.6 710.25 242.55 710.35 242.55 710.4 242.5 710.5 242.45 710.55 242.45 710.6 242.4 710.7 242.4 710.75 242.35 710.8 242.35 710.9 242.35 711.0 242.35 711.1 242.35 711.2 242.4 711.3 242.4 711.35 242.45 711.45 242.6 711.6 242.65 711.65 242.7 711.7 242.75 711.75 242.8 711.8 242.85 711.85 242.9 711.9 243.0 711.95 243.05 711.95 243.1 711.95 243.15 712.0 243.2 712.0 243.2 712.05 243.1 712.05 243.05 712.1 242.95 712.1 243.8 712.2 243.85 712.2 243.95 712.15 244.0 712.15 244.1 712.15 244.15 712.15 244.25 712.15 244.3 712.15 244.4 712.1 244.45 712.1 244.55 712.1 244.6 712.05 244.65 712.05 244.75 712.1 244.85 712.1 245.0 712.05 245.1 712.05 245.2 712.05 245.3 712.0 245.45 712.0 245.55 711.95 245.7 711.95 245.8 711.9 245.95 711.85 246.05 711.8 246.2 711.75 246.3 711.7 246.45 711.65 246.55 711.6 246.65 711.55 246.75 711.45 246.85 711.4 246.95 711.3 247.05 711.25 247.15 711.15 247.2 711.1 247.3 711.0 247.35 710.9 247.45 710.8 247.5 710.7 247.6 710.6 247.65 710.55 247.7 710.45 247.7 710.35 247.75 710.25 247.8 710.15 247.8 710.1 247.8 710.0 247.85 709.9 247.85 709.8 247.85 709.7 247.85 709.65 247.85 709.55 247.8 709.45 247.75 709.4 247.75 709.3 247.7 709.25 247.65 709.15 247.6 709.1 247.5 709.0 247.4 708.9 247.35 708.85 247.25 708.8 247.2 708.75 247.1 708.7 247.0 708.65 246.9 708.6 246.8 708.55 246.7 708.55 246.55 708.5 246.45 708.5 246.35 708.45 246.25 708.45 246.15 708.45 246.05 708.45 245.95 708.45 245.85 708.45 245.75 708.5 245.65 708.5 245.5 708.5 245.4 708.55 245.3 708.55 245.2 708.6 245.1 708.65 245.0 708.65 244.9 708.7 244.8 708.75 244.7 708.8 244.55 708.8 244.45 708.85 244.35 708.9 244.25 708.95 244.15 709.0 244.05 709.05 243.95 709.15 243.85 709.2 243.8 709.25 243.7 709.35 M226.05 770.85 L226.1 770.55 226.1 770.6 226.1 770.7 226.05 770.85 226.05 770.9 226.0 771.15 225.95 771.3 226.05 770.85 M227.15 766.15 L227.0 766.7 226.85 767.25 226.85 767.35 226.8 767.45 226.8 767.55 226.75 767.65 226.75 767.8 226.7 767.9 226.7 768.0 226.65 768.1 226.65 768.2 226.6 768.3 226.6 768.45 226.55 768.55 226.55 768.65 226.5 768.75 226.5 768.85 226.45 768.95 226.45 769.05 226.4 769.15 226.4 769.25 226.35 769.4 226.35 769.5 226.3 769.6 226.3 769.7 226.25 769.8 226.25 769.9 226.2 770.05 226.2 770.15 226.15 770.25 226.15 770.35 226.15 770.45 226.15 770.2 226.25 769.6 226.4 768.95 226.55 768.35 226.65 767.75 226.85 767.15 227.0 766.5 227.15 765.9 227.25 765.6 227.15 766.15 M230.2 787.4 L230.3 787.4 230.45 787.4 230.55 787.4 230.7 787.4 230.8 787.4 230.95 787.4 231.05 787.4 231.15 787.4 231.3 787.35 231.4 787.35 231.5 787.3 231.6 787.25 231.75 787.25 231.85 787.2 231.95 787.15 232.0 787.1 232.1 787.0 232.2 786.95 232.3 786.9 232.4 786.8 232.5 786.75 232.6 786.65 232.7 786.6 232.75 786.5 232.85 786.45 232.9 786.35 233.0 786.25 233.05 786.15 233.1 786.05 233.15 785.95 233.25 785.85 233.3 785.75 233.35 785.65 233.35 785.5 233.4 785.45 233.4 785.35 233.4 785.25 233.4 785.15 233.35 785.05 233.35 784.95 233.35 784.85 233.3 784.8 233.25 784.7 233.2 784.6 233.15 784.55 233.1 784.45 233.05 784.35 233.0 784.3 232.9 784.25 232.85 784.15 232.75 784.1 232.7 784.05 232.65 784.0 232.55 783.95 232.45 783.9 232.4 783.85 232.3 783.8 232.2 783.75 232.1 783.75 231.95 783.7 231.85 783.7 231.75 783.7 231.65 783.65 231.5 783.65 231.4 783.65 231.25 783.65 231.15 783.65 231.05 783.65 230.95 783.65 230.8 783.7 230.7 783.7 230.6 783.75 230.5 783.75 230.4 783.8 230.3 783.85 230.2 783.85 230.1 783.9 230.0 783.95 229.9 784.0 229.8 784.05 229.7 784.1 229.6 784.15 229.5 784.2 229.4 784.3 229.35 784.35 229.25 784.45 229.2 784.5 229.1 784.55 229.05 784.6 228.95 784.65 228.85 784.7 228.75 784.75 228.7 784.8 228.65 784.9 228.6 784.95 228.5 785.0 228.45 785.05 228.4 785.1 228.35 785.2 228.3 785.25 228.25 785.3 228.2 785.4 228.15 785.45 228.1 785.55 228.1 785.6 228.05 785.7 228.0 785.75 227.95 785.85 227.95 785.9 227.95 786.0 227.95 786.1 227.95 786.15 227.95 786.25 228.0 786.3 228.0 786.35 228.05 786.45 228.05 786.5 228.1 786.55 228.15 786.65 228.2 786.7 228.2 786.75 228.35 786.9 228.4 787.0 228.45 787.05 228.5 787.1 228.55 787.1 228.65 787.15 228.7 787.2 228.8 787.25 228.85 787.3 228.95 787.35 229.0 787.35 229.1 787.4 229.2 787.4 229.25 787.45 229.35 787.45 229.45 787.5 229.55 787.5 229.7 787.5 230.2 787.4 M380.8 712.05 L380.85 712.0 380.95 711.95 381.05 711.9 381.15 711.85 381.25 711.75 381.35 711.7 381.45 711.65 381.5 711.55 381.55 711.45 381.6 711.4 381.65 711.3 381.7 711.25 381.7 711.15 381.75 711.1 381.75 711.0 381.75 710.95 381.75 710.85 381.8 710.75 381.8 710.7 381.75 710.6 381.75 710.55 381.75 710.45 381.75 710.4 381.7 710.3 381.7 710.2 381.65 710.15 381.6 710.05 381.55 710.0 381.55 709.95 381.5 709.85 381.4 709.8 381.35 709.75 381.3 709.65 381.2 709.6 381.15 709.55 381.05 709.5 381.0 709.4 380.9 709.35 380.8 709.3 380.7 709.25 380.55 709.2 380.45 709.2 380.35 709.15 380.2 709.1 380.1 709.1 380.0 709.05 379.85 709.05 379.75 709.05 379.65 709.0 379.55 709.0 379.4 709.0 379.3 709.0 379.2 709.0 379.1 709.0 379.0 709.05 378.85 709.05 378.75 709.05 378.6 709.05 378.5 709.1 378.4 709.1 378.3 709.1 378.2 709.15 378.1 709.15 378.0 709.2 377.9 709.25 377.8 709.3 377.7 709.35 377.65 709.4 377.55 709.45 377.45 709.5 377.4 709.55 377.3 709.6 377.2 709.7 377.15 709.8 377.05 709.85 377.0 709.95 376.95 710.0 376.9 710.1 376.85 710.2 376.8 710.3 376.8 710.35 376.75 710.45 376.75 710.5 376.75 710.6 376.7 710.6 376.7 710.65 376.6 711.0 376.55 711.1 376.55 711.2 376.5 711.25 376.5 711.35 376.5 711.7 376.55 711.75 376.55 711.85 376.55 711.95 376.6 712.0 376.6 712.05 376.65 712.1 376.7 712.1 376.75 712.15 376.8 712.2 376.85 712.25 376.9 712.3 377.0 712.4 377.05 712.4 377.1 712.45 377.2 712.5 377.25 712.55 377.35 712.6 377.45 712.6 377.5 712.65 377.55 712.65 377.65 712.7 377.7 712.7 377.8 712.75 377.9 712.75 377.95 712.8 378.05 712.8 378.1 712.85 378.2 712.85 378.3 712.85 378.35 712.85 378.45 712.9 378.5 712.9 378.6 712.9 378.65 712.9 378.75 712.9 378.85 712.85 378.95 712.85 379.0 712.85 379.1 712.85 379.15 712.8 379.25 712.8 379.3 712.8 379.4 712.75 379.5 712.75 379.6 712.7 379.65 712.7 379.75 712.65 379.8 712.65 379.9 712.6 380.5 712.25 380.75 712.1 380.7 712.1 380.65 712.15 380.6 712.15 380.55 712.2 380.5 712.2 380.5 712.25 380.4 712.25 380.45 712.2 380.5 712.2 380.55 712.15 380.6 712.15 380.65 712.1 380.8 712.05 380.8 712.1 380.85 712.05 380.8 712.05 M366.2 785.05 L365.55 785.0 365.5 784.95 365.4 784.95 365.3 784.95 365.25 784.95 365.15 784.95 365.1 784.95 365.0 784.95 364.9 784.95 364.8 785.0 364.75 785.0 364.65 785.0 364.55 785.05 364.5 785.05 364.4 785.05 364.3 785.1 364.25 785.1 364.15 785.15 364.1 785.2 364.05 785.2 364.0 785.25 363.9 785.3 363.8 785.4 363.75 785.45 363.65 785.5 363.6 785.55 363.55 785.6 363.5 785.65 363.4 785.7 363.35 785.75 363.3 785.8 363.2 785.85 363.15 785.9 363.15 785.95 363.05 786.05 363.0 786.15 363.0 786.2 362.95 786.25 362.95 786.3 362.9 786.35 362.9 786.45 362.9 786.5 362.85 786.55 362.85 786.65 362.85 786.75 362.85 786.9 362.85 787.0 362.85 787.2 362.9 787.25 362.9 787.35 362.9 787.4 362.95 787.45 362.95 787.5 363.0 787.5 363.05 787.55 363.1 787.6 363.15 787.65 363.45 787.95 363.5 788.0 363.55 788.1 363.6 788.15 363.65 788.25 363.75 788.35 363.85 788.45 363.95 788.5 364.0 788.55 364.1 788.55 364.2 788.6 364.3 788.65 364.45 788.7 364.55 788.7 364.65 788.75 364.75 788.8 364.9 788.8 365.0 788.8 365.1 788.85 365.2 788.85 365.3 788.85 365.4 788.85 365.55 788.85 365.65 788.8 365.75 788.8 365.85 788.8 365.95 788.75 366.05 788.7 366.15 788.7 366.25 788.65 366.4 788.6 366.5 788.6 366.6 788.55 366.7 788.5 366.8 788.45 366.9 788.4 367.0 788.3 367.1 788.25 367.2 788.2 367.3 788.1 367.4 788.05 367.45 788.0 367.55 787.9 367.65 787.8 367.7 787.75 367.8 787.65 367.85 787.55 367.95 787.45 368.0 787.35 368.05 787.3 368.1 787.2 368.15 787.1 368.2 787.05 368.25 786.95 368.25 786.85 368.3 786.8 368.3 786.7 368.3 786.6 368.3 786.55 368.3 786.45 368.3 786.35 368.3 786.3 368.25 786.2 368.25 786.15 368.2 786.05 368.15 786.0 368.1 785.9 368.05 785.85 368.0 785.75 367.95 785.7 367.9 785.65 367.85 785.55 367.8 785.5 367.7 785.45 367.65 785.4 367.55 785.35 367.5 785.3 367.35 785.25 367.25 785.2 367.15 785.15 367.05 785.1 366.9 785.1 366.8 785.05 366.7 785.05 366.55 785.05 366.45 785.05 366.3 785.05 366.2 785.05" fill="#ffffcb" fill-rule="evenodd" stroke="none"/>
      <path d="M244.6 712.05 L244.55 712.1 244.45 712.1 244.4 712.1 244.3 712.15 244.25 712.15 244.15 712.15 244.1 712.15 244.0 712.15 243.95 712.15 243.85 712.2 243.8 712.2 242.95 712.1 243.05 712.1 243.1 712.05 243.2 712.05 243.2 712.0 243.15 712.0 243.1 711.95 243.05 711.95 243.0 711.95 242.9 711.9 242.85 711.85 242.8 711.8 242.75 711.75 242.7 711.7 242.65 711.65 242.6 711.6 242.45 711.45 242.4 711.35 242.4 711.3 242.35 711.2 242.35 711.1 242.35 711.0 242.35 710.9 242.35 710.8 242.4 710.75 242.4 710.7 242.45 710.6 242.45 710.55 242.5 710.5 242.55 710.4 242.55 710.35 242.6 710.25 242.65 710.2 242.75 710.1 242.8 710.05 242.85 709.95 242.9 709.9 242.95 709.85 243.05 709.75 243.1 709.7 243.15 709.65 243.25 709.6 243.3 709.55 243.4 709.5 243.45 709.45 243.55 709.4 243.65 709.35 243.7 709.35 243.6 709.4 243.5 709.5 243.45 709.55 243.35 709.65 243.3 709.75 243.25 709.85 243.2 709.9 243.15 710.0 243.1 710.1 243.1 710.15 243.05 710.25 243.0 710.35 243.0 710.4 243.0 710.5 242.95 710.6 242.95 710.7 242.95 710.75 242.95 710.85 242.95 710.95 243.0 711.0 243.05 711.1 243.05 711.15 243.1 711.2 243.15 711.3 243.15 711.35 243.2 711.4 243.25 711.5 243.3 711.55 243.4 711.6 243.5 711.7 243.6 711.75 243.65 711.8 243.75 711.8 243.85 711.85 243.95 711.9 244.1 711.95 244.2 712.0 244.3 712.0 244.4 712.05 244.55 712.05 244.6 712.05 M230.2 787.4 L229.7 787.5 229.55 787.5 229.45 787.5 229.35 787.45 229.25 787.45 229.2 787.4 229.1 787.4 229.0 787.35 228.95 787.35 228.85 787.3 228.8 787.25 228.7 787.2 228.65 787.15 228.55 787.1 228.5 787.1 228.45 787.05 228.4 787.0 228.35 786.9 228.2 786.75 228.2 786.7 228.15 786.65 228.1 786.55 228.05 786.5 228.05 786.45 228.0 786.35 228.0 786.3 227.95 786.25 227.95 786.15 227.95 786.1 227.95 786.0 227.95 785.9 227.95 785.85 228.0 785.75 228.05 785.7 228.1 785.6 228.1 785.55 228.15 785.45 228.2 785.4 228.25 785.3 228.3 785.25 228.35 785.2 228.4 785.1 228.45 785.05 228.5 785.0 228.6 784.95 228.65 784.9 228.7 784.8 228.75 784.75 228.85 784.7 228.95 784.65 229.05 784.6 229.1 784.55 229.2 784.5 229.1 784.6 229.05 784.7 229.0 784.8 228.95 784.85 228.9 784.95 228.85 785.05 228.8 785.15 228.75 785.25 228.7 785.35 228.65 785.4 228.6 785.5 228.6 785.6 228.6 785.7 228.6 785.8 228.6 785.9 228.6 785.95 228.65 786.05 228.65 786.15 228.7 786.2 228.7 786.3 228.75 786.35 228.8 786.45 228.85 786.55 228.9 786.6 228.95 786.65 229.0 786.75 229.1 786.85 229.15 786.95 229.2 787.0 229.3 787.05 229.35 787.1 229.4 787.15 229.5 787.2 229.6 787.25 229.65 787.25 229.75 787.3 229.85 787.3 229.95 787.35 230.1 787.35 230.2 787.4 M380.8 712.05 L380.85 712.05 380.8 712.1 380.8 712.05 M380.6 712.15 L380.65 712.15 380.7 712.1 380.75 712.1 380.5 712.25 379.9 712.6 379.8 712.65 379.75 712.65 379.65 712.7 379.6 712.7 379.5 712.75 379.4 712.75 379.3 712.8 379.25 712.8 379.15 712.8 379.1 712.85 379.0 712.85 378.95 712.85 378.85 712.85 378.75 712.9 378.65 712.9 378.6 712.9 378.5 712.9 378.45 712.9 378.35 712.85 378.3 712.85 378.2 712.85 378.1 712.85 378.05 712.8 377.95 712.8 377.9 712.75 377.8 712.75 377.7 712.7 377.65 712.7 377.55 712.65 377.5 712.65 377.45 712.6 377.35 712.6 377.25 712.55 377.2 712.5 377.1 712.45 377.05 712.4 377.0 712.4 376.9 712.3 376.85 712.25 376.8 712.2 376.75 712.15 376.7 712.1 376.65 712.1 376.6 712.05 376.6 712.0 376.55 711.95 376.55 711.85 376.55 711.75 376.5 711.7 376.5 711.35 376.5 711.25 376.55 711.2 376.55 711.1 376.6 711.0 376.7 710.65 376.7 710.7 376.7 710.8 376.7 710.85 376.7 710.95 376.75 711.0 376.75 711.1 376.8 711.15 376.85 711.25 376.9 711.3 376.95 711.4 377.05 711.45 377.1 711.55 377.2 711.6 377.3 711.7 377.35 711.75 377.45 711.8 377.55 711.9 377.65 711.95 377.8 712.0 377.9 712.05 378.0 712.1 378.1 712.15 378.25 712.2 378.35 712.2 378.5 712.25 378.6 712.25 378.75 712.3 378.85 712.3 379.0 712.35 379.1 712.35 379.25 712.35 379.4 712.35 379.55 712.35 379.65 712.35 379.8 712.35 379.95 712.3 380.05 712.3 380.15 712.3 380.25 712.25 380.35 712.25 380.45 712.2 380.4 712.25 380.5 712.25 380.5 712.2 380.55 712.2 380.6 712.15 M376.75 710.6 L376.75 710.5 376.75 710.55 376.75 710.6 M363.45 787.95 L363.15 787.65 363.1 787.6 363.05 787.55 363.0 787.5 362.95 787.5 362.95 787.45 362.9 787.4 362.9 787.35 362.9 787.25 362.85 787.2 362.85 787.0 362.85 786.9 362.85 786.75 362.85 786.65 362.85 786.55 362.9 786.5 362.9 786.45 362.9 786.35 362.95 786.3 362.95 786.25 363.0 786.2 363.0 786.15 363.05 786.05 363.15 785.95 363.15 785.9 363.2 785.85 363.3 785.8 363.35 785.75 363.4 785.7 363.5 785.65 363.55 785.6 363.6 785.55 363.65 785.5 363.75 785.45 363.8 785.4 363.9 785.3 364.0 785.25 364.05 785.2 364.1 785.2 364.15 785.15 364.25 785.1 364.3 785.1 364.4 785.05 364.5 785.05 364.55 785.05 364.65 785.0 364.75 785.0 364.8 785.0 364.9 784.95 365.0 784.95 365.1 784.95 365.15 784.95 365.25 784.95 365.3 784.95 365.4 784.95 365.5 784.95 365.55 785.0 366.2 785.05 366.05 785.1 365.95 785.1 365.85 785.15 365.7 785.15 365.6 785.2 365.45 785.2 365.35 785.25 365.2 785.25 365.1 785.3 364.95 785.35 364.85 785.4 364.75 785.45 364.65 785.5 364.5 785.55 364.4 785.65 364.3 785.7 364.2 785.8 364.1 785.85 364.0 785.95 363.95 786.05 363.85 786.15 363.75 786.25 363.7 786.35 363.6 786.45 363.55 786.55 363.5 786.65 363.45 786.75 363.4 786.85 363.4 786.95 363.35 787.0 363.35 787.1 363.3 787.2 363.3 787.3 363.3 787.4 363.3 787.45 363.3 787.55 363.3 787.65 363.35 787.75 363.4 787.85 363.45 787.95" fill="#000000" fill-rule="evenodd" stroke="none"/>
      <path d="M243.7 709.35 L243.8 709.25 243.85 709.2 243.95 709.15 244.05 709.05 244.15 709.0 244.25 708.95 244.35 708.9 244.45 708.85 244.55 708.8 244.7 708.8 244.8 708.75 244.9 708.7 245.0 708.65 245.1 708.65 245.2 708.6 245.3 708.55 245.4 708.55 245.5 708.5 245.65 708.5 245.75 708.5 245.85 708.45 245.95 708.45 246.05 708.45 246.15 708.45 246.25 708.45 246.35 708.45 246.45 708.5 246.55 708.5 246.7 708.55 246.8 708.55 246.9 708.6 247.0 708.65 247.1 708.7 247.2 708.75 247.25 708.8 247.35 708.85 247.4 708.9 247.5 709.0 247.6 709.1 247.65 709.15 247.7 709.25 247.75 709.3 247.75 709.4 247.8 709.45 247.85 709.55 247.85 709.65 247.85 709.7 247.85 709.8 247.85 709.9 247.8 710.0 247.8 710.1 247.8 710.15 247.75 710.25 247.7 710.35 247.7 710.45 247.65 710.55 247.6 710.6 247.5 710.7 247.45 710.8 247.35 710.9 247.3 711.0 247.2 711.1 247.15 711.15 247.05 711.25 246.95 711.3 246.85 711.4 246.75 711.45 246.65 711.55 246.55 711.6 246.45 711.65 246.3 711.7 246.2 711.75 246.05 711.8 245.95 711.85 245.8 711.9 245.7 711.95 245.55 711.95 245.45 712.0 245.3 712.0 245.2 712.05 245.1 712.05 245.0 712.05 244.85 712.1 244.75 712.1 244.65 712.05 244.6 712.05 244.55 712.05 244.4 712.05 244.3 712.0 244.2 712.0 244.1 711.95 243.95 711.9 243.85 711.85 243.75 711.8 243.65 711.8 243.6 711.75 243.5 711.7 243.4 711.6 243.3 711.55 243.25 711.5 243.2 711.4 243.15 711.35 243.15 711.3 243.1 711.2 243.05 711.15 243.05 711.1 243.0 711.0 242.95 710.95 242.95 710.85 242.95 710.75 242.95 710.7 242.95 710.6 243.0 710.5 243.0 710.4 243.0 710.35 243.05 710.25 243.1 710.15 243.1 710.1 243.15 710.0 243.2 709.9 243.25 709.85 243.3 709.75 243.35 709.65 243.45 709.55 243.5 709.5 243.6 709.4 243.7 709.35 M229.2 784.5 L229.25 784.45 229.35 784.35 229.4 784.3 229.5 784.2 229.6 784.15 229.7 784.1 229.8 784.05 229.9 784.0 230.0 783.95 230.1 783.9 230.2 783.85 230.3 783.85 230.4 783.8 230.5 783.75 230.6 783.75 230.7 783.7 230.8 783.7 230.95 783.65 231.05 783.65 231.15 783.65 231.25 783.65 231.4 783.65 231.5 783.65 231.65 783.65 231.75 783.7 231.85 783.7 231.95 783.7 232.1 783.75 232.2 783.75 232.3 783.8 232.4 783.85 232.45 783.9 232.55 783.95 232.65 784.0 232.7 784.05 232.75 784.1 232.85 784.15 232.9 784.25 233.0 784.3 233.05 784.35 233.1 784.45 233.15 784.55 233.2 784.6 233.25 784.7 233.3 784.8 233.35 784.85 233.35 784.95 233.35 785.05 233.4 785.15 233.4 785.25 233.4 785.35 233.4 785.45 233.35 785.5 233.35 785.65 233.3 785.75 233.25 785.85 233.15 785.95 233.1 786.05 233.05 786.15 233.0 786.25 232.9 786.35 232.85 786.45 232.75 786.5 232.7 786.6 232.6 786.65 232.5 786.75 232.4 786.8 232.3 786.9 232.2 786.95 232.1 787.0 232.0 787.1 231.95 787.15 231.85 787.2 231.75 787.25 231.6 787.25 231.5 787.3 231.4 787.35 231.3 787.35 231.15 787.4 231.05 787.4 230.95 787.4 230.8 787.4 230.7 787.4 230.55 787.4 230.45 787.4 230.3 787.4 230.2 787.4 230.1 787.35 229.95 787.35 229.85 787.3 229.75 787.3 229.65 787.25 229.6 787.25 229.5 787.2 229.4 787.15 229.35 787.1 229.3 787.05 229.2 787.0 229.15 786.95 229.1 786.85 229.0 786.75 228.95 786.65 228.9 786.6 228.85 786.55 228.8 786.45 228.75 786.35 228.7 786.3 228.7 786.2 228.65 786.15 228.65 786.05 228.6 785.95 228.6 785.9 228.6 785.8 228.6 785.7 228.6 785.6 228.6 785.5 228.65 785.4 228.7 785.35 228.75 785.25 228.8 785.15 228.85 785.05 228.9 784.95 228.95 784.85 229.0 784.8 229.05 784.7 229.1 784.6 229.2 784.5 M376.75 710.5 L376.75 710.45 376.8 710.35 376.8 710.3 376.85 710.2 376.9 710.1 376.95 710.0 377.0 709.95 377.05 709.85 377.15 709.8 377.2 709.7 377.3 709.6 377.4 709.55 377.45 709.5 377.55 709.45 377.65 709.4 377.7 709.35 377.8 709.3 377.9 709.25 378.0 709.2 378.1 709.15 378.2 709.15 378.3 709.1 378.4 709.1 378.5 709.1 378.6 709.05 378.75 709.05 378.85 709.05 379.0 709.05 379.1 709.0 379.2 709.0 379.3 709.0 379.4 709.0 379.55 709.0 379.65 709.0 379.75 709.05 379.85 709.05 380.0 709.05 380.1 709.1 380.2 709.1 380.35 709.15 380.45 709.2 380.55 709.2 380.7 709.25 380.8 709.3 380.9 709.35 381.0 709.4 381.05 709.5 381.15 709.55 381.2 709.6 381.3 709.65 381.35 709.75 381.4 709.8 381.5 709.85 381.55 709.95 381.55 710.0 381.6 710.05 381.65 710.15 381.7 710.2 381.7 710.3 381.75 710.4 381.75 710.45 381.75 710.55 381.75 710.6 381.8 710.7 381.8 710.75 381.75 710.85 381.75 710.95 381.75 711.0 381.75 711.1 381.7 711.15 381.7 711.25 381.65 711.3 381.6 711.4 381.55 711.45 381.5 711.55 381.45 711.65 381.35 711.7 381.25 711.75 381.15 711.85 381.05 711.9 380.95 711.95 380.85 712.0 380.8 712.05 380.65 712.1 380.6 712.15 380.55 712.15 380.5 712.2 380.45 712.2 380.35 712.25 380.25 712.25 380.15 712.3 380.05 712.3 379.95 712.3 379.8 712.35 379.65 712.35 379.55 712.35 379.4 712.35 379.25 712.35 379.1 712.35 379.0 712.35 378.85 712.3 378.75 712.3 378.6 712.25 378.5 712.25 378.35 712.2 378.25 712.2 378.1 712.15 378.0 712.1 377.9 712.05 377.8 712.0 377.65 711.95 377.55 711.9 377.45 711.8 377.35 711.75 377.3 711.7 377.2 711.6 377.1 711.55 377.05 711.45 376.95 711.4 376.9 711.3 376.85 711.25 376.8 711.15 376.75 711.1 376.75 711.0 376.7 710.95 376.7 710.85 376.7 710.8 376.7 710.7 376.7 710.65 376.7 710.6 376.75 710.6 376.75 710.55 376.75 710.5 M366.2 785.05 L366.3 785.05 366.45 785.05 366.55 785.05 366.7 785.05 366.8 785.05 366.9 785.1 367.05 785.1 367.15 785.15 367.25 785.2 367.35 785.25 367.5 785.3 367.55 785.35 367.65 785.4 367.7 785.45 367.8 785.5 367.85 785.55 367.9 785.65 367.95 785.7 368.0 785.75 368.05 785.85 368.1 785.9 368.15 786.0 368.2 786.05 368.25 786.15 368.25 786.2 368.3 786.3 368.3 786.35 368.3 786.45 368.3 786.55 368.3 786.6 368.3 786.7 368.3 786.8 368.25 786.85 368.25 786.95 368.2 787.05 368.15 787.1 368.1 787.2 368.05 787.3 368.0 787.35 367.95 787.45 367.85 787.55 367.8 787.65 367.7 787.75 367.65 787.8 367.55 787.9 367.45 788.0 367.4 788.05 367.3 788.1 367.2 788.2 367.1 788.25 367.0 788.3 366.9 788.4 366.8 788.45 366.7 788.5 366.6 788.55 366.5 788.6 366.4 788.6 366.25 788.65 366.15 788.7 366.05 788.7 365.95 788.75 365.85 788.8 365.75 788.8 365.65 788.8 365.55 788.85 365.4 788.85 365.3 788.85 365.2 788.85 365.1 788.85 365.0 788.8 364.9 788.8 364.75 788.8 364.65 788.75 364.55 788.7 364.45 788.7 364.3 788.65 364.2 788.6 364.1 788.55 364.0 788.55 363.95 788.5 363.85 788.45 363.75 788.35 363.65 788.25 363.6 788.15 363.55 788.1 363.5 788.0 363.45 787.95 363.4 787.85 363.35 787.75 363.3 787.65 363.3 787.55 363.3 787.45 363.3 787.4 363.3 787.3 363.3 787.2 363.35 787.1 363.35 787.0 363.4 786.95 363.4 786.85 363.45 786.75 363.5 786.65 363.55 786.55 363.6 786.45 363.7 786.35 363.75 786.25 363.85 786.15 363.95 786.05 364.0 785.95 364.1 785.85 364.2 785.8 364.3 785.7 364.4 785.65 364.5 785.55 364.65 785.5 364.75 785.45 364.85 785.4 364.95 785.35 365.1 785.3 365.2 785.25 365.35 785.25 365.45 785.2 365.6 785.2 365.7 785.15 365.85 785.15 365.95 785.1 366.05 785.1 366.2 785.05" fill="#ffe617" fill-rule="evenodd" stroke="none"/>
      <path d="M282.35 789.7 L291.8 789.7" fill="none" stroke="#000000" stroke-linecap="square" stroke-linejoin="bevel" stroke-opacity="0.003921569" stroke-width="0.05"/>
      <path d="M291.8 789.7 L294.55 789.7" fill="none" stroke="#000000" stroke-linecap="square" stroke-linejoin="bevel" stroke-opacity="0.003921569" stroke-width="0.05"/>
      <path d="M278.5 705.65 L348.3 705.5 M381.0 733.6 L372.25 790.45 370.95 790.45 330.75 790.4 256.7 790.25 221.7 790.2 228.4 755.75 230.65 744.05 235.5 719.05 238.0 706.15 238.75 706.15 295.9 706.0 297.05 706.0 298.25 706.0 334.5 705.95 385.25 705.8 381.0 733.6 M227.1 760.5 L231.0 740.35 M234.0 724.9 L237.7 705.75 238.85 705.75 278.5 705.65 M373.4 776.75 L373.45 776.45 M294.55 789.7 L295.5 789.75 M371.65 788.05 L371.35 789.85 371.1 789.85 M373.4 776.75 L372.2 784.35" fill="none" stroke="#000000" stroke-linecap="round" stroke-linejoin="bevel" stroke-opacity="0.003921569" stroke-width="0.05"/>
      <path d="M227.1 760.6 L227.1 760.5 M348.3 705.5 L366.5 705.45 M295.5 789.75 L295.7 789.75 M371.65 788.05 L371.65 787.9 M373.45 776.45 L376.8 754.45 M227.1 760.6 L222.65 783.4" fill="none" stroke="#000000" stroke-linecap="round" stroke-linejoin="bevel" stroke-opacity="0.003921569" stroke-width="0.05"/>
    </g>
    <g id="shape4" transform="matrix(1.0, 0.0, 0.0, 1.0, 72.5, -46.1)">
      <path d="M97.85 107.65 L-70.6 109.2 -72.5 46.35 97.85 46.1 97.85 107.65" fill="#2e5a2e" fill-rule="evenodd" stroke="none"/>
    </g>
  </defs>
</svg>
