<?xml version="1.0" encoding="UTF-8" standalone="no"?>
<svg xmlns:xlink="http://www.w3.org/1999/xlink" height="206.85px" width="18.1px" xmlns="http://www.w3.org/2000/svg">
  <g transform="matrix(1.0, 0.0, 0.0, 1.0, 9.0, 23.0)">
    <use data-characterId="168" height="206.85" transform="matrix(1.0, 0.0, 0.0, 1.0, -9.0, -23.0)" width="18.1" xlink:href="#shape0"/>
    <use data-characterId="170" height="13.75" transform="matrix(0.9986, -0.0523, 0.0523, 0.9986, -7.2491, -20.5821)" width="13.75" xlink:href="#button0"/>
    <use data-characterId="171" height="13.75" transform="matrix(-0.9986, 0.0523, -0.0523, -0.9986, 7.3491, 181.1321)" width="13.75" xlink:href="#button1"/>
    <use data-characterId="173" height="12.9" id="m_bar" transform="matrix(0.9986, -0.0531, 0.0523, 1.0132, -8.1242, -6.0703)" width="15.75" xlink:href="#sprite0"/>
  </g>
  <defs>
    <g id="shape0" transform="matrix(1.0, 0.0, 0.0, 1.0, 9.0, 23.0)">
      <path d="M2.85 -13.1 L2.85 176.85 -2.15 176.85 -2.15 -13.1 2.85 -13.1" fill="#626262" fill-rule="evenodd" stroke="none"/>
      <path d="M0.45 -5.0 Q-2.1 -4.9 -4.15 -6.0 -6.25 -7.1 -7.55 -9.05 -8.85 -11.0 -9.0 -13.55 -9.15 -16.05 -8.05 -18.15 -6.95 -20.25 -5.0 -21.5 -3.05 -22.85 -0.5 -23.0 2.0 -23.1 4.1 -22.0 6.15 -20.9 7.5 -18.95 8.8 -17.0 9.0 -14.5 9.05 -12.0 7.95 -9.9 6.85 -7.8 4.9 -6.5 2.95 -5.2 0.45 -5.0" fill="#999999" fill-rule="evenodd" stroke="none"/>
      <path d="M7.0 169.2 Q8.55 171.0 9.0 173.45 9.35 175.9 8.5 178.1 7.65 180.25 5.85 181.8 4.0 183.3 1.55 183.75 -0.95 184.1 -3.15 183.25 -5.4 182.4 -6.9 180.65 -8.45 178.85 -8.85 176.4 -9.25 173.9 -8.35 171.75 -7.55 169.55 -5.7 168.05 -3.9 166.55 -1.45 166.1 1.05 165.75 3.25 166.6 5.45 167.4 7.0 169.2" fill="#999999" fill-rule="evenodd" stroke="none"/>
    </g>
    <g id="button0" transform="matrix(1.0, 0.0, 0.0, 1.0, 6.85, 6.85)">
      <use data-characterId="169" height="13.75" transform="matrix(1.0, 0.0, 0.0, 1.0, -6.85, -6.85)" width="13.75" xlink:href="#shape1"/>
    </g>
    <g id="shape1" transform="matrix(1.0, 0.0, 0.0, 1.0, 6.85, 6.85)">
      <path d="M5.95 -3.45 Q6.85 -1.9 6.9 0.0 6.85 1.9 5.95 3.5 5.0 5.0 3.5 5.95 1.95 6.85 0.0 6.9 -1.9 6.85 -3.45 5.95 -5.0 5.0 -5.9 3.5 -6.85 1.95 -6.85 0.0 -6.85 -1.9 -5.9 -3.45 -5.0 -5.0 -3.45 -5.9 -1.9 -6.85 0.0 -6.85 1.9 -6.85 3.5 -5.9 5.0 -5.0 5.95 -3.45" fill="#cccccc" fill-rule="evenodd" stroke="none"/>
      <path d="M3.95 3.95 L3.45 3.6 2.2 2.9 Q1.4 2.5 0.5 2.35 L-1.45 2.4 Q-2.4 2.55 -3.0 2.8 L-3.7 3.05 0.5 -4.25 3.95 3.95" fill="#000000" fill-rule="evenodd" stroke="none"/>
    </g>
    <g id="button1" transform="matrix(1.0, 0.0, 0.0, 1.0, 6.85, 6.85)">
      <use data-characterId="169" height="13.75" transform="matrix(1.0, 0.0, 0.0, 1.0, -6.85, -6.85)" width="13.75" xlink:href="#shape1"/>
    </g>
    <g id="sprite0" transform="matrix(1.0, 0.0, 0.0, 1.0, 7.8, 6.4)">
      <use data-characterId="172" height="12.9" transform="matrix(1.0, 0.0, 0.0, 1.0, -7.8, -6.4)" width="15.75" xlink:href="#shape2"/>
    </g>
    <g id="shape2" transform="matrix(1.0, 0.0, 0.0, 1.0, 7.8, 6.4)">
      <path d="M2.25 -5.8 L5.15 -6.35 6.9 -6.25 Q7.45 -5.9 7.7 -4.65 L7.95 -1.7 7.55 1.65 Q7.25 3.35 6.65 4.65 6.1 5.9 5.3 6.35 4.45 6.7 2.9 6.35 L-0.5 5.15 Q-2.3 4.3 -4.0 3.25 L-6.75 1.2 Q-7.8 0.15 -7.8 -0.6 -7.8 -1.2 -6.85 -1.9 L-4.4 -3.35 -1.15 -4.7 2.25 -5.8" fill="#999999" fill-rule="evenodd" stroke="none"/>
      <path d="M4.55 -4.95 Q4.9 -4.7 5.1 -3.8 L5.3 -1.65 5.0 0.8 4.4 3.0 3.4 4.2 Q2.8 4.45 1.65 4.2 L-0.75 3.35 -3.35 1.95 -5.35 0.45 Q-6.1 -0.35 -6.15 -0.85 -6.1 -1.4 -5.15 -2.0 L-2.75 -3.25 0.2 -4.35 2.95 -5.0 4.55 -4.95" fill="#cccccc" fill-rule="evenodd" stroke="none"/>
    </g>
  </defs>
</svg>
