<?xml version="1.0" encoding="UTF-8" standalone="no"?>
<svg xmlns:xlink="http://www.w3.org/1999/xlink" height="94.85px" width="161.7px" xmlns="http://www.w3.org/2000/svg">
  <g transform="matrix(1.0, 0.0, 0.0, 1.0, 48.5, 82.3)">
    <use data-characterId="288" height="10.45" transform="matrix(1.0, 0.0, 0.0, 1.0, -28.2, -49.75)" width="14.3" xlink:href="#shape0"/>
    <use data-characterId="289" height="7.6" transform="matrix(1.0, 0.0, 0.0, 1.0, -47.25, -15.35)" width="8.9" xlink:href="#shape1"/>
    <use data-characterId="290" height="7.8" transform="matrix(1.0, 0.0, 0.0, 1.0, -37.8, -31.0)" width="8.75" xlink:href="#shape2"/>
    <use data-characterId="290" height="7.8" transform="matrix(1.0, 0.0, 0.0, 1.0, 94.45, -17.6)" width="8.75" xlink:href="#shape2"/>
    <use data-characterId="289" height="7.6" transform="matrix(1.0, 0.0, 0.0, 1.0, 103.95, -24.7)" width="8.9" xlink:href="#shape1"/>
  </g>
  <defs>
    <g id="shape0" transform="matrix(1.0, 0.0, 0.0, 1.0, 0.0, 0.0)">
      <path d="M1.15 1.5 L12.7 0.0 13.5 2.25 Q14.2 4.35 14.3 6.3 14.0 8.15 11.75 9.2 L9.15 10.35 1.15 1.5" fill="#7e321e" fill-rule="evenodd" stroke="none"/>
      <path d="M1.15 1.5 L9.2 10.3 5.25 10.45 1.35 10.2 0.0 3.75 1.15 1.5" fill="#cc491c" fill-rule="evenodd" stroke="none"/>
    </g>
    <g id="shape1" transform="matrix(1.0, 0.0, 0.0, 1.0, 0.0, 0.0)">
      <path d="M4.7 0.0 L7.9 1.05 Q8.4 1.9 8.9 5.0 8.7 6.15 7.3 6.85 L5.7 7.5 4.7 0.0" fill="#7e321e" fill-rule="evenodd" stroke="none"/>
      <path d="M4.75 0.0 L5.75 7.5 3.3 7.6 0.85 7.45 0.0 3.4 4.75 0.0" fill="#cc491c" fill-rule="evenodd" stroke="none"/>
    </g>
    <g id="shape2" transform="matrix(1.0, 0.0, 0.0, 1.0, 0.0, 0.0)">
      <path d="M2.95 0.65 L8.45 4.05 Q8.35 4.9 6.95 7.35 6.15 8.05 4.8 7.7 L3.3 7.3 2.95 0.65" fill="#7e321e" fill-rule="evenodd" stroke="none"/>
      <path d="M3.0 0.65 L3.35 7.3 1.6 5.95 0.0 4.5 1.7 1.2 3.0 0.65" fill="#cc491c" fill-rule="evenodd" stroke="none"/>
      <path d="M1.7 0.0 L3.05 0.2 3.1 3.0 1.85 2.35 1.55 2.35 1.25 2.2 1.0 2.2 0.75 1.35 1.7 0.0" fill="#008800" fill-rule="evenodd" stroke="none"/>
      <path d="M8.4 5.55 L8.3 5.7 7.65 5.0 6.65 4.8 6.25 4.4 5.5 4.35 4.95 3.75 3.85 3.9 3.1 2.95 3.05 0.2 8.75 3.6 8.4 5.55" fill="#005300" fill-rule="evenodd" stroke="none"/>
    </g>
  </defs>
</svg>
