<?xml version="1.0" encoding="UTF-8" standalone="no"?>
<svg xmlns:xlink="http://www.w3.org/1999/xlink" height="468.85px" width="126.45px" xmlns="http://www.w3.org/2000/svg">
  <g transform="matrix(1.0, 0.0, 0.0, 1.0, 74.7, 273.35)">
    <use data-characterId="65" height="107.4" transform="matrix(1.2834, 0.0, 0.0, 1.2834, -73.7748, -260.6703)" width="97.25" xlink:href="#shape0"/>
  </g>
  <defs>
    <g id="shape0" transform="matrix(1.0, 0.0, 0.0, 1.0, 48.6, 53.7)">
      <path d="M-0.5 -51.8 Q-0.45 -52.4 0.45 -52.4 L0.85 -52.35 Q1.45 -52.2 1.45 -51.65 L1.45 -51.45 1.3 -51.2 0.9 -50.95 0.9 -49.6 0.9 -49.4 0.8 -45.55 5.7 -45.4 Q5.05 -32.4 6.15 -25.15 6.75 -21.4 9.3 -13.55 L9.65 -13.1 13.05 -8.85 39.2 -3.95 38.55 -2.4 Q43.15 -0.15 43.9 0.05 L48.2 0.95 Q48.95 1.1 48.4 2.1 47.8 3.05 46.85 2.95 L43.4 2.25 42.4 2.85 38.5 2.3 35.9 1.0 13.55 0.7 11.3 13.55 Q6.8 43.75 6.45 44.3 L5.6 45.4 4.15 53.0 Q3.65 54.45 1.0 52.85 0.4 52.5 0.3 49.45 L-1.85 52.9 Q-2.95 54.25 -4.8 52.9 -5.8 52.05 -4.9 49.1 L-4.6 47.0 -4.7 46.9 -11.2 -0.2 -35.75 -0.15 -38.35 1.05 -42.35 1.4 Q-43.3 1.4 -43.35 0.85 L-46.85 1.4 Q-47.8 1.45 -48.35 0.5 -48.9 -0.5 -48.15 -0.6 L-43.8 -1.35 -38.45 -3.6 -38.95 -5.25 -13.15 -9.2 -9.5 -14.4 Q-7.35 -20.9 -5.8 -32.6 L-4.5 -45.7 0.05 -45.55 0.15 -49.4 0.15 -49.6 0.15 -50.95 Q-0.45 -51.05 -0.5 -51.55 L-0.55 -51.65 -0.5 -51.8 M-38.95 -5.25 Q-38.25 -2.35 -35.75 -0.6 L-11.25 -0.6 -11.45 -2.0 -8.75 10.4 -7.1 24.0 -0.05 19.65 8.75 25.9 10.7 12.7 13.95 -1.7 13.7 -0.15 35.9 0.55 Q37.1 -0.25 38.0 -1.55 L37.55 -1.6 37.45 -1.65 Q20.35 -4.05 11.55 -4.45 L12.15 -2.85 8.1 1.25 Q4.6 4.5 2.1 6.0 4.5 4.45 7.75 1.1 L11.5 -3.1 10.5 -6.05 13.55 -6.9 12.2 -6.55 8.35 -10.5 5.1 -2.5 1.3 5.8 Q2.35 6.05 3.2 6.9 4.3 8.1 4.3 9.75 4.3 11.35 3.15 12.45 1.95 13.6 0.3 13.6 -1.35 13.55 -2.45 12.45 -3.65 11.25 -3.6 9.6 -3.6 7.95 -2.4 6.8 -1.45 5.85 -0.15 5.7 -4.8 -1.95 -7.9 -9.85 L-8.9 -10.3 -10.45 -5.05 -11.15 -5.15 -9.8 -4.95 -10.55 -2.1 -6.85 1.3 Q-3.6 4.15 -1.05 5.85 L-7.2 1.45 -11.3 -1.8 -10.05 -4.35 -13.85 -4.65 -13.85 -4.75 -37.85 -2.8 -38.95 -5.25 M39.2 -3.95 L38.1 -1.7 38.45 -2.3 39.2 -3.95 M1.3 -27.3 L1.35 -27.4 0.85 -39.45 4.45 -41.7 4.9 -41.1 2.55 -39.6 1.5 -38.9 1.5 -38.8 Q1.65 -39.0 1.9 -39.0 2.55 -39.0 2.6 -37.4 2.7 -35.85 2.05 -35.9 1.65 -35.95 1.45 -36.45 L1.45 -34.85 1.4 -26.9 6.05 -20.5 1.1 -26.25 Q-0.25 -24.1 -0.6 -24.1 -1.0 -24.15 -1.9 -26.2 L-7.0 -20.1 -2.05 -27.45 -1.95 -30.0 -1.85 -32.15 -1.65 -36.1 -1.6 -37.55 Q-1.8 -36.05 -2.45 -36.0 -3.1 -35.95 -2.95 -37.5 -2.85 -39.05 -2.2 -39.05 L-2.1 -39.05 -2.5 -39.75 -2.75 -40.2 -4.1 -41.5 -2.75 -41.45 -0.55 -39.5 -0.95 -39.0 -1.6 -27.1 -1.35 -26.55 Q-0.7 -24.95 -0.45 -25.05 L0.4 -26.05 1.3 -27.3 M5.4 -45.05 L-4.3 -45.35 -5.5 -32.5 Q-6.9 -21.65 -8.75 -15.4 L-8.9 -15.0 -8.5 -15.65 Q-5.25 -20.6 -1.2 -21.55 4.2 -22.9 8.35 -15.2 6.35 -21.8 5.85 -25.15 4.75 -32.25 5.4 -45.05 M8.6 -12.65 L7.2 -15.8 Q3.8 -22.3 -0.95 -21.2 -4.45 -20.45 -7.35 -16.25 L-9.35 -12.8 -9.75 -12.6 -9.95 -12.05 -8.2 -11.15 Q-3.65 -8.8 -1.3 -8.35 L-0.1 -8.2 0.05 -8.2 Q1.6 -8.35 3.65 -9.35 L4.3 -9.7 Q6.25 -10.8 8.6 -12.65 M5.25 -9.8 Q2.45 -8.2 0.5 -7.9 L5.75 -5.05 Q6.35 -7.05 7.85 -10.55 L5.25 -9.8 M2.1 -6.7 L0.65 -4.7 2.7 1.75 Q4.75 -3.4 5.6 -4.6 L2.1 -6.7 M48.35 1.3 Q48.4 1.0 48.15 0.95 L44.3 0.25 Q43.65 0.15 38.5 -2.25 L38.45 -2.1 36.9 0.2 36.2 0.8 38.65 2.05 38.85 2.1 Q41.65 3.0 42.8 2.5 L43.15 1.95 43.1 2.05 43.1 1.95 42.7 1.3 Q41.45 0.6 40.45 0.5 39.8 0.4 40.05 0.1 L41.65 0.7 41.25 0.55 43.15 1.25 43.5 1.9 46.85 2.55 Q47.4 2.6 47.9 2.0 L48.35 1.3 M3.05 11.85 Q4.15 10.85 4.15 9.4 4.2 7.9 3.15 6.9 2.05 5.85 0.55 5.85 -1.0 5.8 -2.1 6.8 -3.2 7.8 -3.2 9.3 -3.25 10.75 -2.15 11.8 -1.1 12.8 0.4 12.85 1.95 12.85 3.05 11.85 M3.3 9.5 Q3.2 12.35 0.35 12.3 -0.9 12.35 -1.7 11.45 -2.55 10.6 -2.5 9.4 -2.45 6.5 0.45 6.5 3.35 6.6 3.3 9.5 M0.3 11.85 Q2.75 11.85 2.8 9.3 2.85 6.65 0.4 6.65 -2.1 6.6 -2.1 9.2 -2.15 11.8 0.3 11.85 M1.75 24.65 L0.65 25.55 0.7 45.4 Q1.6 46.55 2.75 46.45 3.95 46.35 5.8 43.45 L5.9 43.25 8.3 28.9 Q6.95 25.25 5.0 24.05 3.65 23.35 1.75 24.65 M0.05 26.1 L-0.4 22.2 -3.7 23.0 -6.7 27.1 -4.55 44.35 -3.0 47.05 0.0 45.1 0.1 26.05 0.05 26.1 M-47.9 -0.1 L-48.25 -0.4 Q-48.3 -0.1 -47.8 0.45 L-47.3 0.85 Q-47.1 1.05 -46.8 1.05 L-43.45 0.5 -43.05 -0.1 -41.1 -0.8 -39.9 -1.25 -40.35 -0.85 -42.65 -0.05 -43.0 0.5 -43.05 0.6 Q-43.1 0.95 -42.75 1.15 L-38.8 0.8 Q-37.25 0.35 -36.05 -0.35 L-36.75 -1.0 Q-37.8 -2.05 -38.4 -3.45 -43.55 -1.25 -44.2 -1.2 L-48.05 -0.55 -47.9 -0.1 M-2.55 -6.75 L-5.1 -5.0 -2.4 0.75 -1.25 -4.75 -2.55 -6.75 M-7.95 -10.5 Q-6.75 -7.6 -5.2 -5.2 L-1.55 -8.0 Q-3.85 -8.55 -7.95 -10.5" fill="#3d4f6e" fill-rule="evenodd" stroke="none"/>
      <path d="M-0.5 -51.8 L-0.55 -51.65 -0.5 -51.55 -3.1 -51.9 -10.0 -52.2 -9.45 -52.4 -10.4 -52.2 -10.8 -52.2 -11.75 -52.15 -10.85 -52.45 -12.6 -52.1 -13.65 -51.95 -12.6 -52.4 Q-14.25 -52.3 -14.3 -51.9 L-14.3 -51.85 -14.65 -51.75 -13.25 -51.3 -9.95 -50.65 -13.5 -51.15 -15.0 -51.65 -15.1 -51.6 Q-15.9 -52.1 -14.25 -52.45 -15.9 -52.3 -15.9 -51.9 -16.0 -51.7 -15.35 -51.5 L-15.45 -51.4 -13.05 -50.7 -7.7 -49.95 Q-13.7 -50.25 -15.6 -51.15 L-15.9 -51.25 Q-16.9 -51.6 -16.15 -52.0 L-15.75 -52.2 -13.2 -52.85 -12.65 -52.95 -11.65 -53.05 Q-7.85 -53.45 -0.55 -51.8 L-0.5 -51.8 M-38.95 -5.25 L-37.85 -2.8 -13.85 -4.75 -13.85 -4.65 -10.05 -4.35 -11.3 -1.8 -7.2 1.45 -1.05 5.85 Q-3.6 4.15 -6.85 1.3 L-10.55 -2.1 -9.8 -4.95 -11.15 -5.15 -10.45 -5.05 -8.9 -10.3 -7.9 -9.85 Q-4.8 -1.95 -0.15 5.7 -1.45 5.85 -2.4 6.8 -3.6 7.95 -3.6 9.6 -3.65 11.25 -2.45 12.45 -1.35 13.55 0.3 13.6 1.95 13.6 3.15 12.45 4.3 11.35 4.3 9.75 4.3 8.1 3.2 6.9 2.35 6.05 1.3 5.8 L5.1 -2.5 8.35 -10.5 12.2 -6.55 13.55 -6.9 10.5 -6.05 11.5 -3.1 7.75 1.1 Q4.5 4.45 2.1 6.0 4.6 4.5 8.1 1.25 L12.15 -2.85 11.55 -4.45 Q20.35 -4.05 37.45 -1.65 L37.55 -1.6 38.0 -1.55 Q37.1 -0.25 35.9 0.55 L13.7 -0.15 13.95 -1.7 10.7 12.7 8.75 25.9 -0.05 19.65 -7.1 24.0 -8.75 10.4 -11.45 -2.0 -11.25 -0.6 -35.75 -0.6 Q-38.25 -2.35 -38.95 -5.25 M39.2 -3.95 L38.45 -2.3 38.1 -1.7 39.2 -3.95 M1.3 -51.2 L1.45 -51.45 2.05 -51.35 3.25 -51.2 9.1 -50.85 11.15 -50.9 10.55 -50.75 11.65 -50.95 13.35 -51.05 12.3 -50.8 14.0 -51.15 14.55 -51.25 13.85 -51.6 12.5 -52.05 12.9 -51.95 14.85 -51.3 15.1 -51.35 Q15.15 -51.0 13.9 -50.75 15.55 -50.85 15.7 -51.2 L15.6 -51.45 14.8 -51.8 14.15 -52.0 13.2 -52.2 10.9 -52.55 13.25 -52.3 15.95 -51.55 16.4 -51.85 12.85 -52.7 8.6 -53.35 Q14.45 -53.05 16.6 -52.15 L17.0 -52.0 Q19.15 -51.15 15.3 -50.5 L14.1 -50.35 12.65 -50.15 12.55 -50.15 Q7.85 -49.7 1.45 -51.15 L1.3 -51.2 M12.45 -52.0 L11.75 -52.15 12.1 -52.1 12.45 -52.0 M2.55 -39.6 L4.9 -41.1 4.45 -41.7 0.85 -39.45 1.35 -27.4 1.3 -27.3 1.15 -30.8 -0.1 -30.5 Q-1.2 -30.55 -1.2 -31.75 L-0.95 -39.0 -0.55 -39.5 -2.75 -41.45 -4.1 -41.5 -2.75 -40.2 -2.5 -39.75 Q-3.45 -39.75 -3.65 -36.65 -3.9 -33.55 -2.9 -33.6 -2.0 -33.7 -1.65 -36.1 L-1.85 -32.15 -3.6 -32.9 Q-4.95 -32.8 -5.5 -30.2 -6.9 -23.0 -6.5 -22.95 L-4.35 -25.65 -2.25 -29.05 -1.95 -30.0 -2.05 -27.45 -7.0 -20.1 -1.9 -26.2 Q-1.0 -24.15 -0.6 -24.1 -0.25 -24.1 1.1 -26.25 L6.05 -20.5 1.4 -26.9 1.45 -34.85 Q1.75 -33.6 2.45 -33.5 3.4 -33.45 3.3 -36.55 3.2 -39.1 2.55 -39.6 M0.4 -26.05 L-0.45 -25.05 Q-0.7 -24.95 -1.35 -26.55 L-0.7 -25.35 0.4 -26.05 M2.1 -31.4 Q1.25 -29.15 2.45 -27.35 5.45 -22.9 5.75 -22.75 6.0 -22.65 5.5 -26.95 4.9 -31.3 4.45 -32.35 4.15 -33.15 3.25 -32.6 2.35 -32.15 2.1 -31.4 M5.4 -45.05 Q4.75 -32.25 5.85 -25.15 6.35 -21.8 8.35 -15.2 4.2 -22.9 -1.2 -21.55 -5.25 -20.6 -8.5 -15.65 L-8.9 -15.0 -8.75 -15.4 Q-6.9 -21.65 -5.5 -32.5 L-4.3 -45.35 5.4 -45.05 M8.6 -12.65 Q6.25 -10.8 4.3 -9.7 L3.65 -9.35 Q1.6 -8.35 0.05 -8.2 L-0.1 -8.2 -1.3 -8.35 Q-3.65 -8.8 -8.2 -11.15 L-9.95 -12.05 -9.75 -12.6 -9.35 -12.8 -7.35 -16.25 Q-4.45 -20.45 -0.95 -21.2 3.8 -22.3 7.2 -15.8 L8.6 -12.65 M4.45 -16.55 Q2.95 -18.65 0.3 -19.8 -1.85 -20.7 -5.0 -17.55 L-5.45 -16.7 Q-5.8 -15.65 -5.55 -13.6 -5.2 -10.65 -4.3 -10.2 L-3.2 -9.7 -1.4 -9.05 Q0.3 -8.85 2.1 -9.7 L3.8 -10.75 Q6.7 -12.85 4.9 -15.9 L4.45 -16.55 M1.45 -24.4 L-0.9 -24.05 -2.1 -24.7 -4.55 -21.1 Q0.8 -23.45 3.95 -21.2 2.2 -24.55 1.45 -24.4 M36.9 0.2 L38.45 -2.1 38.5 -2.25 Q43.65 0.15 44.3 0.25 L48.15 0.95 Q48.4 1.0 48.35 1.3 L48.35 1.15 47.5 1.85 Q46.35 2.25 44.05 1.45 L41.65 0.7 40.05 0.1 Q39.8 0.4 40.45 0.5 41.45 0.6 42.7 1.3 L43.1 1.95 43.1 2.05 Q42.9 2.4 42.5 2.35 40.75 2.1 39.2 1.35 L36.9 0.2 M3.05 11.85 Q1.95 12.85 0.4 12.85 -1.1 12.8 -2.15 11.8 -3.25 10.75 -3.2 9.3 -3.2 7.8 -2.1 6.8 -1.0 5.8 0.55 5.85 2.05 5.85 3.15 6.9 4.2 7.9 4.15 9.4 4.15 10.85 3.05 11.85 M3.3 9.5 Q3.35 6.6 0.45 6.5 -2.45 6.5 -2.5 9.4 -2.55 10.6 -1.7 11.45 -0.9 12.35 0.35 12.3 3.2 12.35 3.3 9.5 M0.3 11.85 Q-2.15 11.8 -2.1 9.2 -2.1 6.6 0.4 6.65 2.85 6.65 2.8 9.3 2.75 11.85 0.3 11.85 M0.05 26.1 L0.1 26.05 0.0 45.1 -3.0 47.05 -4.55 44.35 -6.7 27.1 -3.7 23.0 -0.4 22.2 0.05 26.1 M1.75 24.65 Q3.65 23.35 5.0 24.05 6.95 25.25 8.3 28.9 L5.9 43.25 5.8 43.45 Q3.95 46.35 2.75 46.45 1.6 46.55 0.7 45.4 L0.65 25.55 1.75 24.65 M-41.1 -0.8 L-44.0 0.0 Q-46.35 0.75 -47.4 0.35 L-47.9 -0.1 -48.05 -0.55 -44.2 -1.2 Q-43.55 -1.25 -38.4 -3.45 -37.8 -2.05 -36.75 -1.0 -37.4 -0.65 -39.15 0.05 -41.1 0.9 -42.45 0.95 L-43.05 0.6 -43.0 0.5 -42.65 -0.05 -40.35 -0.85 -39.9 -1.25 -41.1 -0.8" fill="#96a2c9" fill-rule="evenodd" stroke="none"/>
      <path d="M0.15 -49.6 L0.15 -49.4 Q-16.7 -49.45 -17.05 -51.6 -17.15 -52.15 -15.5 -52.55 L-16.15 -52.0 Q-16.9 -51.6 -15.9 -51.25 -13.95 -49.65 0.15 -49.6 M0.9 -49.4 L0.9 -49.6 15.3 -50.5 Q19.15 -51.15 17.0 -52.0 16.45 -52.85 13.15 -53.3 17.8 -52.8 18.0 -51.65 18.35 -49.45 0.9 -49.4 M3.25 -51.2 Q6.85 -50.9 10.05 -51.3 L8.95 -51.9 10.6 -51.35 11.1 -51.45 11.45 -51.5 10.3 -51.95 11.75 -51.6 12.75 -51.9 12.45 -52.0 12.1 -52.1 11.75 -52.2 12.5 -52.05 13.85 -51.6 14.55 -51.25 14.0 -51.15 12.3 -50.8 13.35 -51.05 11.65 -50.95 10.55 -50.75 11.15 -50.9 9.1 -50.85 3.25 -51.2 M12.9 -51.95 L13.2 -52.2 14.15 -52.0 14.8 -51.8 15.6 -51.45 15.7 -51.2 Q15.55 -50.85 13.9 -50.75 15.15 -51.0 15.1 -51.35 L14.85 -51.3 12.9 -51.95 M13.25 -52.3 L12.85 -52.7 16.4 -51.85 15.95 -51.55 13.25 -52.3 M1.3 -27.3 L0.4 -26.05 -0.7 -25.35 -1.35 -26.55 -1.6 -27.1 -0.95 -39.0 -1.2 -31.75 Q-1.2 -30.55 -0.1 -30.5 L1.15 -30.8 1.3 -27.3 M-2.5 -39.75 L-2.1 -39.05 -2.2 -39.05 Q-2.85 -39.05 -2.95 -37.5 -3.1 -35.95 -2.45 -36.0 -1.8 -36.05 -1.6 -37.55 L-1.65 -36.1 Q-2.0 -33.7 -2.9 -33.6 -3.9 -33.55 -3.65 -36.65 -3.45 -39.75 -2.5 -39.75 M-1.85 -32.15 L-1.95 -30.0 -2.25 -29.05 -4.35 -25.65 -6.5 -22.95 Q-6.9 -23.0 -5.5 -30.2 -4.95 -32.8 -3.6 -32.9 L-1.85 -32.15 M1.45 -34.85 L1.45 -36.45 Q1.65 -35.95 2.05 -35.9 2.7 -35.85 2.6 -37.4 2.55 -39.0 1.9 -39.0 1.65 -39.0 1.5 -38.8 L1.5 -38.9 2.55 -39.6 Q3.2 -39.1 3.3 -36.55 3.4 -33.45 2.45 -33.5 1.75 -33.6 1.45 -34.85 M2.1 -31.4 Q2.35 -32.15 3.25 -32.6 4.15 -33.15 4.45 -32.35 4.9 -31.3 5.5 -26.95 6.0 -22.65 5.75 -22.75 5.45 -22.9 2.45 -27.35 1.25 -29.15 2.1 -31.4 M1.45 -24.4 Q2.2 -24.55 3.95 -21.2 0.8 -23.45 -4.55 -21.1 L-2.1 -24.7 -0.9 -24.05 1.45 -24.4 M4.45 -16.55 L4.9 -15.9 Q6.7 -12.85 3.8 -10.75 L2.1 -9.7 Q0.3 -8.85 -1.4 -9.05 L-3.2 -9.7 -4.3 -10.2 Q-5.2 -10.65 -5.55 -13.6 -5.8 -15.65 -5.45 -16.7 L-5.0 -17.55 Q-1.85 -20.7 0.3 -19.8 2.95 -18.65 4.45 -16.55 M2.1 -6.7 L5.6 -4.6 Q4.75 -3.4 2.7 1.75 L0.65 -4.7 2.1 -6.7 M5.25 -9.8 L7.85 -10.55 Q6.35 -7.05 5.75 -5.05 L0.5 -7.9 Q2.45 -8.2 5.25 -9.8 M36.9 0.2 L39.2 1.35 Q40.75 2.1 42.5 2.35 42.9 2.4 43.1 2.05 L43.15 1.95 42.8 2.5 Q41.65 3.0 38.85 2.1 L38.65 2.05 36.2 0.8 36.9 0.2 M41.65 0.7 L44.05 1.45 Q46.35 2.25 47.5 1.85 L48.35 1.15 48.35 1.3 47.9 2.0 Q47.4 2.6 46.85 2.55 L43.5 1.9 43.15 1.25 41.25 0.55 41.65 0.7 M-13.05 -50.7 L-15.45 -51.4 -15.35 -51.5 Q-16.0 -51.7 -15.9 -51.9 -15.9 -52.3 -14.25 -52.45 -15.9 -52.1 -15.1 -51.6 L-15.0 -51.65 -13.5 -51.15 -13.55 -51.05 Q-13.55 -50.9 -13.05 -50.7 M-13.25 -51.3 L-14.65 -51.75 -14.3 -51.85 -14.3 -51.9 Q-14.25 -52.3 -12.6 -52.4 L-13.65 -51.95 -12.6 -52.1 -10.85 -52.45 -11.75 -52.15 -10.8 -52.2 -10.4 -52.2 -9.45 -52.4 -10.0 -52.2 -3.1 -51.9 Q-6.8 -52.2 -10.25 -51.8 -10.05 -51.6 -9.1 -51.35 L-10.7 -51.75 -10.75 -51.75 -11.6 -51.65 -10.4 -51.25 -11.9 -51.6 -13.0 -51.35 -11.85 -51.0 -13.2 -51.3 -13.25 -51.3 M-13.45 -51.05 L-13.55 -51.05 -13.45 -51.05 M-12.15 -53.2 L-15.5 -52.55 Q-13.6 -53.5 -6.55 -53.7 L-12.15 -53.2 M-41.1 -0.8 L-43.05 -0.1 -43.45 0.5 -46.8 1.05 Q-47.1 1.05 -47.3 0.85 L-47.8 0.45 Q-48.3 -0.1 -48.25 -0.4 L-47.9 -0.1 -47.4 0.35 Q-46.35 0.75 -44.0 0.0 L-41.1 -0.8 M-36.75 -1.0 L-36.05 -0.35 Q-37.25 0.35 -38.8 0.8 L-42.75 1.15 Q-43.1 0.95 -43.05 0.6 L-42.45 0.95 Q-41.1 0.9 -39.15 0.05 -37.4 -0.65 -36.75 -1.0 M-2.55 -6.75 L-1.25 -4.75 -2.4 0.75 -5.1 -5.0 -2.55 -6.75 M-7.95 -10.5 Q-3.85 -8.55 -1.55 -8.0 L-5.2 -5.2 Q-6.75 -7.6 -7.95 -10.5" fill="#c3c4df" fill-rule="evenodd" stroke="none"/>
    </g>
  </defs>
</svg>
