<?xml version="1.0" encoding="UTF-8" standalone="no"?>
<svg xmlns:xlink="http://www.w3.org/1999/xlink" height="44.25px" width="46.65px" xmlns="http://www.w3.org/2000/svg">
  <g transform="matrix(1.0, 0.0, 0.0, 1.0, 6.0, 5.85)">
    <use data-characterId="109" height="34.55" transform="matrix(1.2715, 0.0, 0.0, 1.2715, -5.9715, -5.8215)" width="36.65" xlink:href="#shape0"/>
  </g>
  <defs>
    <g id="shape0" transform="matrix(1.0, 0.0, 0.0, 1.0, 1.0, 1.0)">
      <path d="M26.15 0.15 Q28.6 7.45 34.65 11.15 L33.9 13.35 32.55 12.6 30.5 28.65 15.05 31.05 5.2 29.1 2.9 14.7 0.35 14.45 0.0 12.95 Q2.95 10.4 5.15 7.9 L4.55 3.15 3.45 3.05 3.1 0.85 7.5 0.0 13.25 0.0 13.2 0.55 26.1 0.0 26.15 0.15 M10.0 10.15 L9.95 10.2 10.0 10.2 10.0 10.15" fill="#330000" fill-rule="evenodd" stroke="none"/>
      <path d="M26.15 0.15 Q28.6 7.45 34.65 11.15 L33.9 13.35 32.55 12.6 30.5 28.65 15.05 31.05 5.2 29.1 2.9 14.7 0.35 14.45 0.0 12.95 Q2.95 10.4 5.15 7.9 L4.55 3.15 3.45 3.05 3.1 0.85 7.5 0.0 13.25 0.0 13.2 0.55 26.1 0.0 26.15 0.15 M10.0 10.15 L9.95 10.2 10.0 10.2 10.0 10.15 Z" fill="none" stroke="#663300" stroke-linecap="round" stroke-linejoin="round" stroke-width="2.0"/>
      <path d="M24.35 0.0 L26.1 0.0 26.15 0.15 Q28.6 7.45 34.65 11.15 L33.9 13.35 32.55 12.6 Q28.1 9.4 25.5 2.55 21.7 9.7 14.3 14.2 L11.8 15.55 11.8 13.7 Q20.35 8.65 24.35 0.0" fill="#f94417" fill-rule="evenodd" stroke="none"/>
      <path d="M14.3 14.2 Q21.7 9.7 25.5 2.55 28.1 9.4 32.55 12.6 L30.5 28.65 28.25 29.0 28.3 28.25 28.75 23.85 28.8 23.65 29.05 21.8 29.2 18.55 Q29.2 16.6 26.15 16.4 L25.85 16.35 25.65 16.35 25.35 16.35 24.5 16.4 24.0 16.4 Q19.85 17.5 19.85 21.05 L19.9 30.3 15.05 31.05 14.3 14.2 M26.85 8.75 L23.05 8.85 23.05 13.95 23.05 14.55 26.75 13.95 27.25 8.75 26.85 8.75 M9.65 3.35 L12.55 2.75 12.8 7.8 12.5 8.3 Q11.75 9.35 10.0 10.15 L9.25 3.45 9.65 3.35" fill="#ffff99" fill-rule="evenodd" stroke="none"/>
      <path d="M23.05 13.95 L23.05 8.85 26.85 8.75 26.5 13.4 23.05 13.95" fill="#79bcfd" fill-rule="evenodd" stroke="none"/>
      <path d="M11.8 15.55 L14.3 14.2 15.05 31.05 5.2 29.1 2.9 14.7 11.75 15.6 11.8 15.55 M5.15 7.9 L4.55 3.15 9.25 3.45 10.0 10.15 9.95 10.2 5.45 10.05 5.15 7.9 M26.85 8.75 L27.25 8.75 26.75 13.95 23.05 14.55 23.05 13.95 26.5 13.4 26.85 8.75 M6.3 25.35 L6.3 25.4 12.05 26.2 11.6 18.95 5.5 18.55 6.3 25.35" fill="#eae951" fill-rule="evenodd" stroke="none"/>
      <path d="M4.55 3.15 L3.45 3.05 3.1 0.85 8.85 1.0 9.45 0.85 9.65 3.35 9.25 3.45 4.55 3.15" fill="#b0c851" fill-rule="evenodd" stroke="none"/>
      <path d="M12.8 0.0 L13.25 0.0 13.2 0.55 13.05 2.55 12.55 2.75 9.65 3.35 9.45 0.85 12.8 0.0" fill="#c1d378" fill-rule="evenodd" stroke="none"/>
      <path d="M3.1 0.85 L7.5 0.0 12.8 0.0 9.45 0.85 8.85 1.0 3.1 0.85" fill="#d7e2a5" fill-rule="evenodd" stroke="none"/>
      <path d="M24.35 0.0 Q20.35 8.65 11.8 13.7 L0.0 12.95 Q2.95 10.4 5.15 7.9 L5.45 10.05 9.95 10.2 10.0 10.2 10.0 10.15 Q11.75 9.35 12.5 8.3 L12.8 7.8 12.55 2.75 13.05 2.55 13.2 0.55 24.35 0.0" fill="#ff6f39" fill-rule="evenodd" stroke="none"/>
      <path d="M11.8 13.7 L11.8 15.55 11.75 15.6 2.9 14.7 0.35 14.45 0.0 12.95 11.8 13.7" fill="#be2905" fill-rule="evenodd" stroke="none"/>
      <path d="M8.35 19.5 L8.3 19.5 6.35 19.4 6.9 25.05 8.65 25.25 8.35 19.5 M6.3 25.35 L5.5 18.55 11.6 18.95 12.05 26.2 6.3 25.4 6.3 25.35 M11.3 25.5 L10.85 19.6 8.85 19.5 9.15 25.3 11.3 25.5" fill="#871d03" fill-rule="evenodd" stroke="none"/>
      <path d="M8.35 19.5 L8.65 25.25 6.9 25.05 6.35 19.4 8.3 19.5 8.35 19.5 M11.3 25.5 L9.15 25.3 8.85 19.5 10.85 19.6 11.3 25.5" fill="#5a77e9" fill-rule="evenodd" stroke="none"/>
      <path d="M22.45 21.75 Q21.95 20.25 21.1 19.75 L20.8 19.5 20.7 19.5 20.55 19.55 20.5 19.55 20.45 19.6 20.45 19.55 20.85 19.2 Q21.65 19.55 22.05 20.05 L22.6 20.85 22.75 21.2 22.85 21.5 22.85 21.65 22.45 21.75" fill="#eba272" fill-rule="evenodd" stroke="none"/>
      <path d="M22.45 21.75 L22.85 21.65 22.35 33.35 22.0 33.55 22.45 21.75" fill="#d0651e" fill-rule="evenodd" stroke="none"/>
      <path d="M20.45 19.6 L20.5 19.55 20.55 19.55 20.7 19.5 20.8 19.5 21.1 19.75 Q21.95 20.25 22.45 21.75 L22.0 33.55 20.2 30.75 20.1 30.65 20.1 21.4 20.2 20.2 20.25 20.0 20.3 19.9 20.25 19.85 20.45 19.6 M20.85 27.1 L20.85 27.2 21.8 28.45 21.85 26.7 21.6 26.35 21.6 26.25 20.6 25.0 20.55 26.75 20.85 27.1 M20.95 23.75 L20.9 23.85 21.9 25.1 21.95 23.2 21.9 23.15 21.7 23.05 21.7 22.75 21.5 22.6 Q20.7 22.15 20.65 23.35 L20.95 23.75 M21.5 29.6 L21.5 29.45 20.55 28.25 20.5 29.4 20.8 29.7 20.8 29.85 21.75 31.05 21.8 29.95 21.5 29.6" fill="#ab5318" fill-rule="evenodd" stroke="none"/>
      <path d="M20.85 19.2 L20.45 19.55 20.45 19.6 20.25 19.85 20.3 19.9 20.25 20.0 20.2 20.2 20.1 21.4 20.1 30.65 20.2 30.75 20.2 30.8 19.9 30.4 19.85 21.05 Q19.85 20.0 20.1 19.55 L20.3 19.2 20.5 19.15 20.55 19.15 20.85 19.2" fill="#7e3d12" fill-rule="evenodd" stroke="none"/>
      <path d="M21.6 26.35 L21.85 26.7 21.8 28.45 20.85 27.2 20.85 27.1 21.55 28.0 21.6 26.35 M21.7 23.05 L21.9 23.15 21.95 23.2 21.9 25.1 20.9 23.85 20.95 23.75 21.6 24.6 21.7 23.05 M20.8 29.7 L21.0 29.95 21.25 30.25 21.5 30.55 21.5 29.6 21.8 29.95 21.75 31.05 20.8 29.85 20.8 29.7" fill="#612f0e" fill-rule="evenodd" stroke="none"/>
      <path d="M20.85 27.1 L20.55 26.75 20.6 25.0 21.6 26.25 21.6 26.35 21.55 28.0 20.85 27.1 M20.8 29.7 L20.5 29.4 20.55 28.25 21.5 29.45 21.5 29.6 21.5 30.55 21.25 30.25 21.0 29.95 20.8 29.7" fill="#9c4b16" fill-rule="evenodd" stroke="none"/>
      <path d="M21.7 23.05 L21.6 24.6 20.95 23.75 20.65 23.35 Q20.7 22.15 21.5 22.6 L21.7 22.75 21.7 23.05" fill="#5a77e9" fill-rule="evenodd" stroke="none"/>
      <path d="M29.8 20.7 L29.9 19.3 29.85 19.6 29.9 19.05 29.8 18.45 29.5 18.0 29.75 18.0 30.3 19.55 30.2 20.6 29.8 20.7" fill="#eba272" fill-rule="evenodd" stroke="none"/>
      <path d="M28.6 31.8 L28.05 29.35 28.15 28.65 28.55 24.2 28.6 24.0 28.75 22.15 28.85 20.8 29.1 19.0 29.2 18.3 Q29.3 17.9 29.5 18.0 L29.8 18.45 29.9 19.05 29.85 19.6 29.9 19.3 29.8 20.7 28.6 31.8 M29.4 20.9 L29.45 20.75 29.45 20.65 Q29.2 20.5 29.1 20.8 L29.05 21.1 29.25 22.35 29.3 22.25 29.35 22.6 29.55 20.9 29.4 20.9 M28.95 23.25 L28.9 22.8 28.7 24.7 28.9 25.85 28.95 25.7 29.0 26.1 29.2 24.3 28.95 23.1 28.95 23.25 M28.65 28.35 L28.75 28.75 28.85 27.6 28.65 26.55 28.65 26.65 28.55 26.25 28.45 27.4 28.65 28.5 28.65 28.35" fill="#ab5318" fill-rule="evenodd" stroke="none"/>
      <path d="M29.3 22.25 L29.15 21.4 Q29.15 20.85 29.4 20.9 L29.55 20.9 29.35 22.6 29.3 22.25" fill="#5a77e9" fill-rule="evenodd" stroke="none"/>
      <path d="M29.3 22.25 L29.25 22.35 29.05 21.1 29.1 20.8 Q29.2 20.5 29.45 20.65 L29.45 20.75 29.4 20.9 Q29.15 20.85 29.15 21.4 L29.3 22.25 M28.95 25.7 L28.9 25.85 28.7 24.7 28.9 22.8 28.95 23.25 28.8 25.0 28.95 25.7 M28.65 26.65 L28.55 27.7 28.65 28.35 28.65 28.5 28.45 27.4 28.55 26.25 28.65 26.65" fill="#612f0e" fill-rule="evenodd" stroke="none"/>
      <path d="M28.6 31.8 L29.8 20.7 30.2 20.6 28.9 31.7 28.6 31.8" fill="#d0651e" fill-rule="evenodd" stroke="none"/>
      <path d="M28.95 25.7 L28.8 25.0 28.95 23.25 28.95 23.1 29.2 24.3 29.0 26.1 28.95 25.7 M28.65 26.65 L28.65 26.55 28.85 27.6 28.75 28.75 28.65 28.35 28.55 27.7 28.65 26.65" fill="#9c4b16" fill-rule="evenodd" stroke="none"/>
    </g>
  </defs>
</svg>
