<?xml version="1.0" encoding="UTF-8" standalone="no"?>
<svg xmlns:xlink="http://www.w3.org/1999/xlink" height="44.25px" width="46.65px" xmlns="http://www.w3.org/2000/svg">
  <g transform="matrix(1.0, 0.0, 0.0, 1.0, 6.0, 5.85)">
    <use data-characterId="110" height="44.25" transform="matrix(1.0, 0.0, 0.0, 1.0, -6.0, -5.85)" width="46.65" xlink:href="#shape0"/>
  </g>
  <defs>
    <g id="shape0" transform="matrix(1.0, 0.0, 0.0, 1.0, 6.0, 5.85)">
      <path d="M28.7 -4.7 Q31.85 4.75 39.65 9.5 L38.7 12.35 36.95 11.35 34.3 32.05 14.4 35.15 1.7 32.65 -1.3 14.1 -4.55 13.75 -5.0 11.8 Q-1.2 8.55 1.6 5.3 L0.85 -0.8 -0.6 -0.95 -1.05 -3.8 4.65 -4.85 12.05 -4.85 12.0 -4.15 28.65 -4.85 28.7 -4.7 M7.85 8.2 L7.8 8.3 7.85 8.3 7.85 8.2" fill="#330000" fill-rule="evenodd" stroke="none"/>
      <path d="M28.7 -4.7 Q31.85 4.75 39.65 9.5 L38.7 12.35 36.95 11.35 34.3 32.05 14.4 35.15 1.7 32.65 -1.3 14.1 -4.55 13.75 -5.0 11.8 Q-1.2 8.55 1.6 5.3 L0.85 -0.8 -0.6 -0.95 -1.05 -3.8 4.65 -4.85 12.05 -4.85 12.0 -4.15 28.65 -4.85 28.7 -4.7 M7.85 8.2 L7.8 8.3 7.85 8.3 7.85 8.2 Z" fill="none" stroke="#663300" stroke-linecap="round" stroke-linejoin="round" stroke-width="2.0"/>
      <path d="M26.4 -4.85 L28.65 -4.85 28.7 -4.7 Q31.85 4.75 39.65 9.5 L38.7 12.35 36.95 11.35 Q31.2 7.25 27.85 -1.6 22.95 7.65 13.4 13.45 L10.2 15.2 10.2 12.8 Q21.2 6.3 26.4 -4.85" fill="#f94417" fill-rule="evenodd" stroke="none"/>
      <path d="M13.4 13.45 Q22.95 7.65 27.85 -1.6 31.2 7.25 36.95 11.35 L34.3 32.05 31.4 32.5 31.45 31.55 32.05 25.9 32.1 25.6 32.45 23.25 32.65 19.05 Q32.65 16.55 28.7 16.25 L28.3 16.2 28.05 16.2 27.65 16.2 26.55 16.25 25.9 16.25 Q20.55 17.7 20.55 22.25 L20.65 34.2 14.4 35.15 13.4 13.45 M24.7 13.1 L24.7 13.9 29.45 13.1 30.1 6.4 29.6 6.4 24.7 6.55 24.7 13.1 M7.4 -0.55 L11.15 -1.35 11.5 5.2 11.1 5.85 Q10.15 7.2 7.85 8.2 L6.9 -0.45 7.4 -0.55" fill="#ffff99" fill-rule="evenodd" stroke="none"/>
      <path d="M24.7 13.1 L24.7 6.55 29.6 6.4 29.15 12.4 24.7 13.1" fill="#79bcfd" fill-rule="evenodd" stroke="none"/>
      <path d="M10.2 15.2 L13.4 13.45 14.4 35.15 1.7 32.65 -1.3 14.1 10.15 15.25 10.2 15.2 M1.6 5.3 L0.85 -0.8 6.9 -0.45 7.85 8.2 7.8 8.3 2.0 8.1 1.6 5.3 M29.6 6.4 L30.1 6.4 29.45 13.1 24.7 13.9 24.7 13.1 29.15 12.4 29.6 6.4 M3.1 27.8 L3.1 27.9 10.5 28.9 9.95 19.55 2.05 19.05 3.1 27.8" fill="#eae951" fill-rule="evenodd" stroke="none"/>
      <path d="M0.85 -0.8 L-0.6 -0.95 -1.05 -3.8 6.4 -3.6 7.15 -3.8 7.4 -0.55 6.9 -0.45 0.85 -0.8" fill="#b0c851" fill-rule="evenodd" stroke="none"/>
      <path d="M11.5 -4.85 L12.05 -4.85 12.0 -4.15 11.8 -1.6 11.15 -1.35 7.4 -0.55 7.15 -3.8 11.5 -4.85" fill="#c1d378" fill-rule="evenodd" stroke="none"/>
      <path d="M-1.05 -3.8 L4.65 -4.85 11.5 -4.85 7.15 -3.8 6.4 -3.6 -1.05 -3.8" fill="#d7e2a5" fill-rule="evenodd" stroke="none"/>
      <path d="M26.4 -4.85 Q21.2 6.3 10.2 12.8 L-5.0 11.8 Q-1.2 8.55 1.6 5.3 L2.0 8.1 7.8 8.3 7.85 8.3 7.85 8.2 Q10.15 7.2 11.1 5.85 L11.5 5.2 11.15 -1.35 11.8 -1.6 12.0 -4.15 26.4 -4.85" fill="#ff6f39" fill-rule="evenodd" stroke="none"/>
      <path d="M10.2 12.8 L10.2 15.2 10.15 15.25 -1.3 14.1 -4.55 13.75 -5.0 11.8 10.2 12.8" fill="#be2905" fill-rule="evenodd" stroke="none"/>
      <path d="M5.7 20.25 L3.15 20.15 3.85 27.45 6.15 27.7 5.75 20.25 5.7 20.25 M3.1 27.8 L2.05 19.05 9.95 19.55 10.5 28.9 3.1 27.9 3.1 27.8 M9.55 28.0 L8.95 20.4 6.4 20.25 6.75 27.75 9.55 28.0" fill="#871d03" fill-rule="evenodd" stroke="none"/>
      <path d="M5.7 20.25 L5.75 20.25 6.15 27.7 3.85 27.45 3.15 20.15 5.7 20.25 M9.55 28.0 L6.75 27.75 6.4 20.25 8.95 20.4 9.55 28.0" fill="#5a77e9" fill-rule="evenodd" stroke="none"/>
      <path d="M21.85 19.9 L23.4 21.0 24.1 22.0 24.3 22.45 24.45 22.85 24.45 23.05 23.95 23.15 Q23.3 21.25 22.2 20.6 L21.8 20.25 21.65 20.25 Q21.55 20.25 21.5 20.35 L21.4 20.35 21.35 20.4 21.35 20.35 21.85 19.9" fill="#eba272" fill-rule="evenodd" stroke="none"/>
      <path d="M23.95 23.15 L24.45 23.05 23.8 38.15 23.35 38.4 23.95 23.15" fill="#d0651e" fill-rule="evenodd" stroke="none"/>
      <path d="M21.35 20.4 L21.4 20.35 21.5 20.35 Q21.55 20.25 21.65 20.25 L21.8 20.25 22.2 20.6 Q23.3 21.25 23.95 23.15 L23.35 38.4 21.0 34.8 20.9 34.65 20.9 22.7 21.0 21.15 21.1 20.9 21.15 20.8 21.1 20.7 21.35 20.4 M22.85 29.1 L22.85 29.0 21.55 27.35 21.5 29.6 21.85 30.05 21.85 30.2 23.1 31.8 23.15 29.55 22.85 29.1 M22.0 25.75 L21.95 25.9 23.2 27.5 23.3 25.05 23.2 25.0 22.95 24.85 22.95 24.45 22.7 24.25 Q21.65 23.7 21.6 25.25 L22.0 25.75 M22.7 33.3 L22.7 33.1 21.5 31.55 21.4 33.05 21.8 33.4 21.8 33.6 23.0 35.15 23.1 33.75 22.7 33.3" fill="#ab5318" fill-rule="evenodd" stroke="none"/>
      <path d="M21.85 19.9 L21.35 20.35 21.35 20.4 21.1 20.7 21.15 20.8 21.1 20.9 21.0 21.15 20.9 22.7 20.9 34.65 21.0 34.8 21.0 34.85 20.65 34.35 20.55 22.25 Q20.55 20.9 20.9 20.35 20.95 20.0 21.15 19.9 L21.4 19.8 21.5 19.8 21.85 19.9" fill="#7e3d12" fill-rule="evenodd" stroke="none"/>
      <path d="M22.85 29.1 L23.15 29.55 23.1 31.8 21.85 30.2 21.85 30.05 22.75 31.25 22.85 29.1 M22.95 24.85 L23.2 25.0 23.3 25.05 23.2 27.5 21.95 25.9 22.0 25.75 22.85 26.85 22.95 24.85 M22.7 33.3 L23.1 33.75 23.0 35.15 21.8 33.6 21.8 33.4 22.05 33.75 22.4 34.15 22.7 34.5 22.7 33.3" fill="#612f0e" fill-rule="evenodd" stroke="none"/>
      <path d="M21.85 30.05 L21.5 29.6 21.55 27.35 22.85 29.0 22.85 29.1 22.75 31.25 21.85 30.05 M21.8 33.4 L21.4 33.05 21.5 31.55 22.7 33.1 22.7 33.3 22.7 34.5 22.4 34.15 22.05 33.75 21.8 33.4" fill="#9c4b16" fill-rule="evenodd" stroke="none"/>
      <path d="M22.0 25.75 L21.6 25.25 Q21.65 23.7 22.7 24.25 L22.95 24.45 22.95 24.85 22.85 26.85 22.0 25.75" fill="#5a77e9" fill-rule="evenodd" stroke="none"/>
      <path d="M33.4 21.8 L33.55 20.0 33.45 20.4 33.55 19.7 33.4 18.9 33.0 18.35 33.35 18.35 34.05 20.35 33.9 21.7 33.4 21.8" fill="#eba272" fill-rule="evenodd" stroke="none"/>
      <path d="M31.85 36.15 L31.15 32.95 31.3 32.05 31.8 26.35 31.85 26.05 32.05 23.7 32.2 21.95 32.5 19.65 32.65 18.7 Q32.75 18.2 33.0 18.35 L33.4 18.9 33.55 19.7 33.45 20.4 33.55 20.0 33.4 21.8 31.85 36.15 M32.9 22.1 L32.95 21.9 32.95 21.75 Q32.65 21.55 32.5 21.95 L32.45 22.35 32.7 23.95 32.75 23.8 32.8 24.25 33.1 22.1 32.9 22.1 M32.3 25.1 L32.25 24.55 32.0 27.0 32.25 28.45 32.3 28.25 32.35 28.8 32.65 26.45 32.3 24.9 32.3 25.1 M31.9 31.7 L32.05 32.2 32.2 30.7 31.9 29.35 31.9 29.5 31.8 29.0 31.65 30.45 31.9 31.9 31.9 31.7" fill="#ab5318" fill-rule="evenodd" stroke="none"/>
      <path d="M32.9 22.1 L33.1 22.1 32.8 24.25 32.75 23.8 32.55 22.7 Q32.55 22.0 32.9 22.1" fill="#5a77e9" fill-rule="evenodd" stroke="none"/>
      <path d="M32.75 23.8 L32.7 23.95 32.45 22.35 32.5 21.95 Q32.65 21.55 32.95 21.75 L32.95 21.9 32.9 22.1 Q32.55 22.0 32.55 22.7 L32.75 23.8 M32.3 28.25 L32.25 28.45 32.0 27.0 32.25 24.55 32.3 25.1 32.1 27.35 32.3 28.25 M31.9 31.7 L31.9 31.9 31.65 30.45 31.8 29.0 31.9 29.5 31.8 30.85 31.9 31.7" fill="#612f0e" fill-rule="evenodd" stroke="none"/>
      <path d="M31.85 36.15 L33.4 21.8 33.9 21.7 32.25 36.0 31.85 36.15" fill="#d0651e" fill-rule="evenodd" stroke="none"/>
      <path d="M32.3 28.25 L32.1 27.35 32.3 25.1 32.3 24.9 32.65 26.45 32.35 28.8 32.3 28.25 M31.9 29.5 L31.9 29.35 32.2 30.7 32.05 32.2 31.9 31.7 31.8 30.85 31.9 29.5" fill="#9c4b16" fill-rule="evenodd" stroke="none"/>
    </g>
  </defs>
</svg>
