<?xml version="1.0" encoding="UTF-8" standalone="no"?>
<svg xmlns:xlink="http://www.w3.org/1999/xlink" height="44.25px" width="46.65px" xmlns="http://www.w3.org/2000/svg">
  <g transform="matrix(1.0, 0.0, 0.0, 1.0, 6.0, 5.85)">
    <use data-characterId="111" height="41.75" transform="matrix(1.0, 0.0, 0.0, 1.0, -4.75, -4.6)" width="44.1" xlink:href="#shape0"/>
  </g>
  <defs>
    <g id="shape0" transform="matrix(1.0, 0.0, 0.0, 1.0, 4.75, 4.6)">
      <path d="M28.0 -3.4 Q31.0 5.45 38.35 9.95 L37.45 12.6 35.8 11.7 33.3 31.2 14.55 34.1 2.6 31.75 -0.2 14.25 -3.3 13.95 -3.75 12.15 Q-0.15 9.05 2.5 6.0 L1.8 0.25 0.45 0.1 0.05 -2.55 5.35 -3.6 12.35 -3.6 12.3 -2.9 27.95 -3.6 28.0 -3.4 M8.4 8.75 L8.35 8.8 8.4 8.8 8.4 8.75" fill="#330000" fill-rule="evenodd" stroke="none"/>
      <path d="M28.0 -3.4 Q31.0 5.45 38.35 9.95 L37.45 12.6 35.8 11.7 33.3 31.2 14.55 34.1 2.6 31.75 -0.2 14.25 -3.3 13.95 -3.75 12.15 Q-0.15 9.05 2.5 6.0 L1.8 0.25 0.45 0.1 0.05 -2.55 5.35 -3.6 12.35 -3.6 12.3 -2.9 27.95 -3.6 28.0 -3.4 M8.4 8.75 L8.35 8.8 8.4 8.8 8.4 8.75 Z" fill="none" stroke="#663300" stroke-linecap="round" stroke-linejoin="round" stroke-width="2.0"/>
      <path d="M25.85 -3.6 L27.95 -3.6 28.0 -3.4 Q31.0 5.45 38.35 9.95 L37.45 12.6 35.8 11.7 Q30.4 7.85 27.25 -0.5 22.6 8.2 13.65 13.65 L10.6 15.3 10.6 13.05 Q21.0 6.9 25.85 -3.6" fill="#f94417" fill-rule="evenodd" stroke="none"/>
      <path d="M13.65 13.65 Q22.6 8.2 27.25 -0.5 30.4 7.85 35.8 11.7 L33.3 31.2 30.55 31.65 30.65 30.7 31.2 25.4 31.25 25.15 31.55 22.9 31.7 18.95 Q31.7 16.55 28.0 16.35 L27.65 16.25 27.4 16.25 27.05 16.25 26.0 16.35 25.4 16.35 Q20.35 17.65 20.35 22.0 L20.45 33.2 14.55 34.1 13.65 13.65 M28.85 7.05 L24.25 7.15 24.25 13.35 24.25 14.1 28.75 13.35 29.35 7.05 28.85 7.05 M8.0 0.5 L11.5 -0.25 11.8 5.9 11.45 6.5 Q10.55 7.75 8.4 8.75 L7.5 0.6 8.0 0.5" fill="#ffff99" fill-rule="evenodd" stroke="none"/>
      <path d="M24.25 13.35 L24.25 7.15 28.85 7.05 28.45 12.7 24.25 13.35" fill="#79bcfd" fill-rule="evenodd" stroke="none"/>
      <path d="M10.6 15.3 L13.65 13.65 14.55 34.1 2.6 31.75 -0.2 14.25 10.55 15.35 10.6 15.3 M2.5 6.0 L1.8 0.25 7.5 0.6 8.4 8.75 8.35 8.8 2.9 8.6 2.5 6.0 M28.85 7.05 L29.35 7.05 28.75 13.35 24.25 14.1 24.25 13.35 28.45 12.7 28.85 7.05 M3.9 27.2 L3.9 27.25 10.9 28.25 10.35 19.45 2.95 18.95 3.9 27.2" fill="#eae951" fill-rule="evenodd" stroke="none"/>
      <path d="M1.8 0.25 L0.45 0.1 0.05 -2.55 7.0 -2.35 7.75 -2.55 8.0 0.5 7.5 0.6 1.8 0.25" fill="#b0c851" fill-rule="evenodd" stroke="none"/>
      <path d="M11.8 -3.6 L12.35 -3.6 12.3 -2.9 12.1 -0.5 11.5 -0.25 8.0 0.5 7.75 -2.55 11.8 -3.6" fill="#c1d378" fill-rule="evenodd" stroke="none"/>
      <path d="M0.05 -2.55 L5.35 -3.6 11.8 -3.6 7.75 -2.55 7.0 -2.35 0.05 -2.55" fill="#d7e2a5" fill-rule="evenodd" stroke="none"/>
      <path d="M25.85 -3.6 Q21.0 6.9 10.6 13.05 L-3.75 12.15 Q-0.15 9.05 2.5 6.0 L2.9 8.6 8.35 8.8 8.4 8.8 8.4 8.75 Q10.55 7.75 11.45 6.5 L11.8 5.9 11.5 -0.25 12.1 -0.5 12.3 -2.9 25.85 -3.6" fill="#ff6f39" fill-rule="evenodd" stroke="none"/>
      <path d="M10.6 13.05 L10.6 15.3 10.55 15.35 -0.2 14.25 -3.3 13.95 -3.75 12.15 10.6 13.05" fill="#be2905" fill-rule="evenodd" stroke="none"/>
      <path d="M6.4 20.1 L6.35 20.1 3.95 19.95 4.65 26.85 6.75 27.1 6.4 20.1 M3.9 27.2 L2.95 18.95 10.35 19.45 10.9 28.25 3.9 27.25 3.9 27.2 M10.0 27.4 L9.45 20.2 7.0 20.1 7.35 27.15 10.0 27.4" fill="#871d03" fill-rule="evenodd" stroke="none"/>
      <path d="M6.4 20.1 L6.75 27.1 4.65 26.85 3.95 19.95 6.35 20.1 6.4 20.1 M10.0 27.4 L7.35 27.15 7.0 20.1 9.45 20.2 10.0 27.4" fill="#5a77e9" fill-rule="evenodd" stroke="none"/>
      <path d="M23.55 22.85 Q22.9 21.0 21.9 20.4 L21.5 20.1 21.4 20.1 21.2 20.15 21.15 20.15 21.1 20.2 21.1 20.15 21.6 19.75 Q22.55 20.15 23.05 20.75 L23.7 21.75 23.9 22.15 24.0 22.5 24.0 22.7 23.55 22.85" fill="#eba272" fill-rule="evenodd" stroke="none"/>
      <path d="M23.55 22.85 L24.0 22.7 23.4 36.9 23.0 37.15 23.55 22.85" fill="#d0651e" fill-rule="evenodd" stroke="none"/>
      <path d="M21.1 20.2 L21.15 20.15 21.2 20.15 21.4 20.1 21.5 20.1 21.9 20.4 Q22.9 21.0 23.55 22.85 L23.0 37.15 20.8 33.75 20.65 33.65 20.65 22.4 Q20.6 21.5 20.8 20.95 L20.85 20.7 20.9 20.6 20.85 20.5 21.1 20.2 M21.6 29.3 L21.6 29.45 22.75 30.95 22.8 28.85 22.5 28.4 22.5 28.3 21.3 26.75 21.2 28.9 21.6 29.3 M21.7 25.25 L21.65 25.4 22.85 26.9 22.9 24.6 22.85 24.55 22.6 24.4 22.6 24.05 22.35 23.85 Q21.4 23.3 21.35 24.75 L21.7 25.25 M22.35 32.35 L22.35 32.2 21.2 30.7 21.15 32.1 21.5 32.5 21.5 32.65 22.7 34.1 22.75 32.8 22.35 32.35" fill="#ab5318" fill-rule="evenodd" stroke="none"/>
      <path d="M21.6 19.75 L21.1 20.15 21.1 20.2 20.85 20.5 20.9 20.6 20.85 20.7 20.8 20.95 Q20.6 21.5 20.65 22.4 L20.65 33.65 20.8 33.75 20.8 33.8 20.45 33.35 20.35 22.0 Q20.35 20.7 20.65 20.15 L20.9 19.75 21.15 19.65 21.2 19.65 21.6 19.75" fill="#7e3d12" fill-rule="evenodd" stroke="none"/>
      <path d="M22.5 28.4 L22.8 28.85 22.75 30.95 21.6 29.45 21.6 29.3 22.45 30.4 22.5 28.4 M22.6 24.4 L22.85 24.55 22.9 24.6 22.85 26.9 21.65 25.4 21.7 25.25 22.5 26.3 22.6 24.4 M21.5 32.5 L21.75 32.8 22.05 33.15 22.35 33.5 22.35 32.35 22.75 32.8 22.7 34.1 21.5 32.65 21.5 32.5" fill="#612f0e" fill-rule="evenodd" stroke="none"/>
      <path d="M21.6 29.3 L21.2 28.9 21.3 26.75 22.5 28.3 22.5 28.4 22.45 30.4 21.6 29.3 M21.5 32.5 L21.15 32.1 21.2 30.7 22.35 32.2 22.35 32.35 22.35 33.5 22.05 33.15 21.75 32.8 21.5 32.5" fill="#9c4b16" fill-rule="evenodd" stroke="none"/>
      <path d="M22.6 24.4 L22.5 26.3 21.7 25.25 21.35 24.75 Q21.4 23.3 22.35 23.85 L22.6 24.05 22.6 24.4" fill="#5a77e9" fill-rule="evenodd" stroke="none"/>
      <path d="M32.45 21.55 L32.55 19.85 32.5 20.2 32.55 19.55 32.45 18.8 32.1 18.25 32.4 18.25 33.05 20.15 32.95 21.45 32.45 21.55" fill="#eba272" fill-rule="evenodd" stroke="none"/>
      <path d="M31.0 35.05 L30.35 32.05 30.45 31.2 30.95 25.8 31.0 25.55 31.2 23.3 31.3 21.65 31.6 19.5 31.7 18.65 Q31.85 18.15 32.1 18.25 L32.45 18.8 32.55 19.55 32.5 20.2 32.55 19.85 32.45 21.55 31.0 35.05 M31.95 21.8 L32.05 21.6 32.05 21.5 Q31.7 21.3 31.6 21.65 L31.55 22.05 31.8 23.55 31.85 23.45 31.9 23.85 32.15 21.8 31.95 21.8 M31.4 24.65 L31.35 24.1 31.1 26.4 31.35 27.8 31.4 27.6 31.5 28.1 31.7 25.9 31.4 24.45 31.4 24.65 M31.05 30.85 L31.2 31.35 31.3 29.95 31.05 28.65 31.05 28.8 30.95 28.3 30.8 29.7 31.05 31.0 31.05 30.85" fill="#ab5318" fill-rule="evenodd" stroke="none"/>
      <path d="M31.85 23.45 L31.65 22.4 Q31.65 21.75 31.95 21.8 L32.15 21.8 31.9 23.85 31.85 23.45" fill="#5a77e9" fill-rule="evenodd" stroke="none"/>
      <path d="M31.85 23.45 L31.8 23.55 31.55 22.05 31.6 21.65 Q31.7 21.3 32.05 21.5 L32.05 21.6 31.95 21.8 Q31.65 21.75 31.65 22.4 L31.85 23.45 M31.4 27.6 L31.35 27.8 31.1 26.4 31.35 24.1 31.4 24.65 31.25 26.75 31.4 27.6 M31.05 28.8 L30.95 30.05 31.05 30.85 31.05 31.0 30.8 29.7 30.95 28.3 31.05 28.8" fill="#612f0e" fill-rule="evenodd" stroke="none"/>
      <path d="M31.0 35.05 L32.45 21.55 32.95 21.45 31.35 34.9 31.0 35.05" fill="#d0651e" fill-rule="evenodd" stroke="none"/>
      <path d="M31.4 27.6 L31.25 26.75 31.4 24.65 31.4 24.45 31.7 25.9 31.5 28.1 31.4 27.6 M31.05 28.8 L31.05 28.65 31.3 29.95 31.2 31.35 31.05 30.85 30.95 30.05 31.05 28.8" fill="#9c4b16" fill-rule="evenodd" stroke="none"/>
    </g>
  </defs>
</svg>
