<?xml version="1.0" encoding="UTF-8" standalone="no"?>
<svg xmlns:xlink="http://www.w3.org/1999/xlink" height="164.65px" width="172.0px" xmlns="http://www.w3.org/2000/svg">
  <g transform="matrix(1.0, 0.0, 0.0, 1.0, 73.35, 104.25)">
    <use data-characterId="203" height="101.65" transform="matrix(1.0, 0.0, 0.0, 1.0, -52.5, -56.8)" width="117.6" xlink:href="#sprite0"/>
    <use data-characterId="4" height="25.25" id="yubi" transform="matrix(0.9518, -0.3015, 0.3015, 0.9518, -53.3266, 17.3748)" width="31.55" xlink:href="#sprite2"/>
  </g>
  <defs>
    <g id="sprite0" transform="matrix(1.0, 0.0, 0.0, 1.0, 58.8, 100.65)">
      <use data-characterId="195" height="101.65" transform="matrix(1.0, 0.0, 0.0, 1.0, -58.8, -100.65)" width="117.6" xlink:href="#shape0"/>
      <use data-characterId="196" height="14.7" transform="matrix(1.08, -0.0094, 0.0102, 1.1702, -45.3676, -46.8638)" width="92.1" xlink:href="#text0"/>
      <use data-characterId="197" height="12.85" transform="matrix(1.08, 0.0, 0.0, 1.1702, -17.204, -28.8617)" width="67.05" xlink:href="#text1"/>
      <use data-characterId="202" height="42.0" transform="matrix(1.0, 0.0, 0.0, 1.0, -37.2, -90.45)" width="77.75" xlink:href="#sprite1"/>
    </g>
    <g id="shape0" transform="matrix(1.0, 0.0, 0.0, 1.0, 58.8, 100.65)">
      <path d="M31.2 -99.6 L34.6 -99.5 Q43.7 -98.1 49.2 -93.7 54.7 -88.7 57.05 -82.15 59.05 -75.4 55.6 -68.15 52.75 -64.45 49.0 -62.6 45.2 -60.7 41.4 -59.9 42.05 -59.85 45.1 -54.55 48.0 -49.3 49.2 -39.5 49.75 -33.4 47.6 -25.7 44.8 -17.9 37.45 -11.1 30.1 -4.35 15.85 -1.2 -2.8 2.05 -14.65 -3.65 -26.15 -9.4 -29.9 -17.05 -31.05 -19.55 -31.8 -22.1 L-30.6 -19.2 Q-26.95 -11.7 -15.75 -6.1 -4.2 -0.55 13.95 -3.7 27.85 -6.8 35.05 -13.35 42.2 -20.0 44.9 -27.6 47.0 -35.1 46.45 -41.05 45.3 -50.6 42.45 -55.7 39.5 -60.85 38.85 -60.95 42.55 -61.7 46.3 -63.55 49.95 -65.35 52.7 -68.95 56.05 -76.0 54.1 -82.6 51.8 -89.0 46.45 -93.85 41.1 -98.15 32.25 -99.5 L31.2 -99.6 M-31.5 -47.25 L-33.8 -46.1 Q-37.4 -44.2 -42.85 -44.85 -48.75 -46.05 -51.9 -49.8 -55.1 -53.15 -56.45 -57.2 -57.9 -61.05 -57.8 -66.1 -57.75 -61.7 -56.5 -58.3 -55.15 -54.35 -52.05 -51.1 -49.0 -47.4 -43.25 -46.25 -37.95 -45.6 -34.4 -47.45 -30.95 -49.2 -30.4 -49.7 L-31.5 -47.25 M-27.75 -98.0 Q-22.4 -97.8 -19.6 -95.75 -15.9 -94.05 -12.6 -88.55 -9.45 -83.45 -9.85 -71.3 L-11.15 -70.55 Q-10.5 -83.55 -13.75 -88.85 -16.95 -94.2 -20.55 -95.85 -23.1 -97.7 -27.75 -98.0" fill="#961c18" fill-rule="evenodd" stroke="none"/>
      <path d="M-31.8 -22.1 Q-34.2 -28.7 -33.6 -35.85 -33.45 -42.45 -31.5 -47.25 L-30.4 -49.7 Q-30.95 -49.2 -34.4 -47.45 -37.95 -45.6 -43.25 -46.25 -49.0 -47.4 -52.05 -51.1 -55.15 -54.35 -56.5 -58.3 -57.75 -61.7 -57.8 -66.1 -57.85 -69.7 -57.1 -73.95 -55.6 -83.35 -48.25 -90.65 -40.3 -97.25 -32.2 -98.05 -29.8 -98.2 -27.75 -98.0 -23.1 -97.7 -20.55 -95.85 -16.95 -94.2 -13.75 -88.85 -10.5 -83.55 -11.15 -70.55 L-9.85 -71.3 -1.5 -73.95 Q7.8 -76.3 20.8 -73.2 18.0 -77.0 17.0 -82.6 16.0 -88.45 18.2 -93.25 22.85 -100.1 31.2 -99.6 L32.25 -99.5 Q41.1 -98.15 46.45 -93.85 51.8 -89.0 54.1 -82.6 56.05 -76.0 52.7 -68.95 49.95 -65.35 46.3 -63.55 42.55 -61.7 38.85 -60.95 39.5 -60.85 42.45 -55.7 45.3 -50.6 46.45 -41.05 47.0 -35.1 44.9 -27.6 42.2 -20.0 35.05 -13.35 27.85 -6.8 13.95 -3.7 -4.2 -0.55 -15.75 -6.1 -26.95 -11.7 -30.6 -19.2 L-31.8 -22.1" fill="#d72019" fill-rule="evenodd" stroke="none"/>
      <path d="M31.2 -99.6 L34.6 -99.5 Q43.7 -98.1 49.2 -93.7 54.7 -88.7 57.05 -82.15 59.05 -75.4 55.6 -68.15 52.75 -64.45 49.0 -62.6 45.2 -60.7 41.4 -59.9 42.05 -59.85 45.1 -54.55 48.0 -49.3 49.2 -39.5 49.75 -33.4 47.6 -25.7 44.8 -17.9 37.45 -11.1 30.1 -4.35 15.85 -1.2 -2.8 2.05 -14.65 -3.65 -26.15 -9.4 -29.9 -17.05 -31.05 -19.55 -31.8 -22.1 -34.2 -28.7 -33.6 -35.85 -33.45 -42.45 -31.5 -47.25 L-33.8 -46.1 Q-37.4 -44.2 -42.85 -44.85 -48.75 -46.05 -51.9 -49.8 -55.1 -53.15 -56.45 -57.2 -57.9 -61.05 -57.8 -66.1 -57.85 -69.7 -57.1 -73.95 -55.6 -83.35 -48.25 -90.65 -40.3 -97.25 -32.2 -98.05 -29.8 -98.2 -27.75 -98.0 -22.4 -97.8 -19.6 -95.75 -15.9 -94.05 -12.6 -88.55 -9.45 -83.45 -9.85 -71.3 L-1.5 -73.95 Q7.8 -76.3 20.8 -73.2 18.0 -77.0 17.0 -82.6 16.0 -88.45 18.2 -93.25 22.85 -100.1 31.2 -99.6 L32.25 -99.5 Q41.1 -98.15 46.45 -93.85 51.8 -89.0 54.1 -82.6 56.05 -76.0 52.7 -68.95 49.95 -65.35 46.3 -63.55 42.55 -61.7 38.85 -60.95 39.5 -60.85 42.45 -55.7 45.3 -50.6 46.45 -41.05 47.0 -35.1 44.9 -27.6 42.2 -20.0 35.05 -13.35 27.85 -6.8 13.95 -3.7 -4.2 -0.55 -15.75 -6.1 -26.95 -11.7 -30.6 -19.2 L-31.8 -22.1 M-27.75 -98.0 Q-23.1 -97.7 -20.55 -95.85 -16.95 -94.2 -13.75 -88.85 -10.5 -83.55 -11.15 -70.55 L-9.85 -71.3 M-31.5 -47.25 L-30.4 -49.7 Q-30.95 -49.2 -34.4 -47.45 -37.95 -45.6 -43.25 -46.25 -49.0 -47.4 -52.05 -51.1 -55.15 -54.35 -56.5 -58.3 -57.75 -61.7 -57.8 -66.1" fill="none" stroke="#961c18" stroke-linecap="round" stroke-linejoin="round" stroke-width="2.0"/>
    </g>
    <g id="text0" transform="matrix(1.0, 0.0, 0.0, 1.0, -0.45, 0.35)">
      <g transform="matrix(1.0, 0.0, 0.0, 1.0, 0.0, 0.0)">
        <use fill="#ffffff" height="14.7" transform="matrix(0.0137, 0.0, 0.0, 0.0137, 0.0, 12.0)" width="92.1" xlink:href="#font______________0"/>
        <use fill="#ffffff" height="14.7" transform="matrix(0.0137, 0.0, 0.0, 0.0137, 13.95, 12.0)" width="92.1" xlink:href="#font______________1"/>
      </g>
      <g transform="matrix(1.0, 0.0, 0.0, 1.0, 0.0, 0.0)">
        <use fill="#ffffff" height="14.7" transform="matrix(0.0137, 0.0, 0.0, 0.0137, 27.9, 12.0)" width="92.1" xlink:href="#font______________2"/>
      </g>
      <g transform="matrix(1.0, 0.0, 0.0, 1.0, 0.0, 0.0)">
        <use fill="#ffffff" height="14.7" transform="matrix(0.0137, 0.0, 0.0, 0.0137, 41.15, 12.0)" width="92.1" xlink:href="#font______________3"/>
      </g>
      <g transform="matrix(1.0, 0.0, 0.0, 1.0, 0.0, 0.0)">
        <use fill="#ffffff" height="14.7" transform="matrix(0.0137, 0.0, 0.0, 0.0137, 55.8, 12.0)" width="92.1" xlink:href="#font______________4"/>
      </g>
      <g transform="matrix(1.0, 0.0, 0.0, 1.0, 0.0, 0.0)">
        <use fill="#ffffff" height="14.7" transform="matrix(0.0137, 0.0, 0.0, 0.0137, 69.75, 12.0)" width="92.1" xlink:href="#font______________5"/>
      </g>
      <g transform="matrix(1.0, 0.0, 0.0, 1.0, 0.0, 0.0)">
        <use fill="#ffffff" height="14.7" transform="matrix(0.0078, 0.0, 0.0, 0.0078, 84.75, 12.0)" width="92.1" xlink:href="#font______________6"/>
      </g>
    </g>
    <g id="font______________0">
      <path d="M294.0 -141.5 L294.0 -141.5 Q294.0 -126.0 272.5 -126.0 257.0 -126.0 243.5 -132.0 228.5 -141.5 228.5 -156.5 228.5 -171.0 253.0 -190.5 272.5 -205.0 294.0 -213.0 L294.0 -141.5 M944.0 -225.0 L944.0 -225.0 Q944.0 -352.0 849.0 -418.0 765.0 -474.0 636.0 -474.0 557.0 -474.0 491.5 -461.0 L491.5 -495.5 Q540.5 -505.0 560.0 -511.0 622.5 -525.5 644.0 -546.0 665.5 -565.0 665.5 -606.0 665.5 -643.0 640.0 -672.5 613.5 -703.5 578.5 -703.5 555.0 -703.5 529.5 -696.5 512.0 -690.0 493.5 -684.0 493.5 -754.5 484.5 -777.0 467.0 -825.5 401.5 -825.5 321.5 -825.5 301.0 -765.0 293.0 -743.5 293.0 -659.5 293.0 -659.5 185.5 -659.5 71.5 -659.5 71.5 -568.5 71.5 -472.0 203.0 -472.0 264.0 -472.0 292.0 -473.0 L292.0 -414.5 Q183.5 -382.0 114.5 -320.5 34.0 -249.0 34.0 -159.5 34.0 -55.5 124.0 1.0 204.0 52.5 332.0 52.5 402.5 52.5 449.5 14.5 495.5 -22.5 495.5 -89.0 L495.5 -272.5 Q566.5 -288.5 642.0 -288.5 690.0 -288.5 718.0 -268.5 741.5 -250.0 738.5 -223.0 732.0 -178.0 699.5 -158.5 674.0 -144.5 606.0 -137.0 509.0 -127.0 509.0 -38.0 509.0 -3.0 538.5 24.5 568.5 54.5 612.5 54.5 752.5 54.5 844.0 -15.5 944.0 -91.0 944.0 -225.0 M989.0 -517.0 L989.0 -517.0 Q989.0 -542.5 972.0 -568.5 946.0 -607.0 920.5 -647.0 880.5 -704.5 854.0 -724.0 827.5 -744.5 793.5 -744.5 754.5 -744.5 728.0 -718.0 700.5 -692.0 700.5 -656.5 700.5 -616.5 731.0 -579.5 741.5 -568.5 774.0 -520.0 804.0 -475.0 817.0 -463.0 857.0 -428.0 888.0 -428.0 929.0 -428.0 958.5 -453.5 989.0 -481.0 989.0 -517.0" fill-rule="evenodd" stroke="none"/>
    </g>
    <g id="font______________1">
      <path d="M976.0 -47.0 L976.0 -47.0 Q976.0 -94.0 947.0 -120.0 918.5 -146.5 867.5 -146.5 833.5 -146.5 793.5 -137.0 748.5 -127.0 734.0 -127.0 721.0 -126.0 689.0 -122.0 663.5 -119.0 652.5 -119.0 616.5 -119.0 613.5 -140.5 613.5 -146.5 621.5 -170.0 630.0 -193.5 630.0 -211.0 630.0 -248.0 592.0 -274.5 559.0 -297.0 518.0 -297.0 463.0 -297.0 431.0 -243.5 402.5 -195.5 402.5 -130.0 402.5 -24.5 489.5 22.5 563.0 62.5 743.5 62.5 829.5 62.5 897.0 45.0 934.0 35.0 954.5 9.0 976.0 -16.5 976.0 -47.0 M937.0 -439.5 L937.0 -439.5 Q937.0 -477.0 915.5 -506.0 893.0 -535.5 848.0 -541.5 833.5 -543.5 809.0 -543.5 726.0 -543.5 598.0 -525.5 675.0 -554.0 675.0 -606.0 675.0 -645.0 650.5 -677.0 626.5 -707.5 590.0 -707.5 552.0 -707.5 456.5 -691.0 463.0 -727.0 463.0 -746.5 463.0 -830.5 370.5 -830.5 317.5 -830.5 291.0 -806.0 269.5 -786.5 259.0 -747.5 253.0 -711.5 247.0 -677.0 200.5 -676.0 155.5 -675.0 100.5 -670.5 72.5 -653.5 36.0 -631.0 36.0 -579.5 36.0 -509.0 93.0 -488.5 126.0 -475.0 208.0 -479.0 150.5 -251.0 77.0 -72.5 69.5 -54.0 69.5 -29.5 69.5 7.0 101.5 33.0 132.0 59.5 171.0 59.5 247.0 59.5 273.5 -8.0 340.0 -166.0 423.0 -493.5 484.5 -500.5 520.0 -504.0 474.0 -481.0 474.0 -431.0 474.0 -395.0 499.5 -366.5 526.5 -339.0 568.5 -339.0 606.0 -339.0 702.5 -347.0 792.5 -355.5 837.5 -353.0 882.5 -352.0 911.5 -378.0 937.0 -402.5 937.0 -439.5" fill-rule="evenodd" stroke="none"/>
    </g>
    <g id="font______________2">
      <path d="M299.0 -215.0 L299.0 -215.0 Q243.5 -159.5 217.0 -159.5 204.0 -159.5 204.0 -196.5 204.0 -236.5 217.0 -286.5 231.5 -336.0 249.0 -346.0 256.0 -333.0 272.5 -281.5 289.0 -234.5 299.0 -215.0 M523.5 -494.5 L523.5 -494.5 Q517.0 -472.0 488.5 -420.0 459.0 -367.5 440.5 -349.0 413.5 -418.0 401.5 -467.0 409.5 -478.0 437.5 -488.5 465.0 -498.5 495.5 -498.5 509.0 -498.5 523.5 -494.5 M986.0 -313.5 L986.0 -313.5 Q986.0 -435.0 925.5 -526.5 861.0 -622.5 748.5 -654.5 L753.5 -694.0 Q755.5 -704.5 755.5 -713.5 755.5 -762.0 720.0 -792.5 686.0 -820.0 641.0 -820.0 609.5 -820.0 584.5 -796.5 559.0 -771.0 553.0 -727.0 L548.0 -675.0 Q434.0 -665.5 357.5 -631.0 343.0 -704.5 335.0 -720.0 312.5 -771.0 262.0 -771.0 210.0 -771.0 176.0 -741.5 141.5 -711.5 141.5 -659.5 141.5 -629.5 157.5 -583.5 182.5 -517.0 182.5 -516.0 118.0 -480.0 75.0 -394.0 33.0 -309.0 33.0 -223.0 33.0 -121.0 86.0 -57.5 139.5 6.0 225.5 6.0 304.0 6.0 382.0 -51.0 418.0 -8.0 460.0 -8.0 502.0 -8.0 531.5 -40.0 560.0 -72.5 560.0 -115.5 560.0 -163.0 543.0 -183.5 648.0 -300.0 701.5 -462.0 779.5 -410.5 779.5 -316.5 779.5 -219.0 710.5 -166.0 648.0 -128.0 587.0 -90.0 556.0 -67.5 556.0 -29.5 556.0 74.0 666.5 74.0 772.0 74.0 872.5 -36.0 986.0 -157.5 986.0 -313.5" fill-rule="evenodd" stroke="none"/>
    </g>
    <g id="font______________3">
      <path d="M945.0 -311.5 L945.0 -311.5 Q945.0 -355.5 907.5 -385.0 870.5 -413.5 825.5 -413.5 786.5 -413.5 755.5 -379.0 737.5 -357.5 704.5 -299.0 663.5 -223.0 622.5 -186.5 557.0 -127.0 465.0 -127.0 409.5 -127.0 388.0 -149.5 365.5 -173.0 365.5 -236.5 365.5 -303.0 376.0 -440.5 386.0 -577.5 386.0 -645.0 386.0 -684.0 384.0 -719.0 380.0 -767.0 345.0 -793.5 314.5 -815.0 271.5 -815.0 227.5 -815.0 196.5 -785.5 165.0 -755.5 169.0 -708.5 173.0 -668.5 173.0 -618.5 173.0 -553.0 164.0 -418.0 154.5 -282.5 154.5 -223.0 154.5 -84.0 229.5 -6.0 303.0 71.5 443.5 71.5 796.5 71.5 937.0 -272.5 945.0 -293.0 945.0 -311.5" fill-rule="evenodd" stroke="none"/>
    </g>
    <g id="font______________4">
      <path d="M300.0 -568.5 L300.0 -568.5 Q305.0 -583.5 311.5 -601.0 311.5 -597.0 311.5 -593.0 311.5 -541.5 331.0 -522.0 351.5 -500.5 391.0 -500.5 L433.0 -500.5 Q408.5 -419.0 385.0 -367.5 361.5 -311.5 300.0 -220.0 L300.0 -568.5 M728.0 -383.0 L728.0 -383.0 Q752.5 -294.0 783.5 -221.0 L728.0 -221.0 728.0 -383.0 M489.5 -221.0 L489.5 -221.0 Q503.0 -248.0 516.0 -278.5 531.5 -316.5 544.0 -354.5 L544.0 -221.0 499.5 -221.0 Q494.5 -221.0 489.5 -221.0 M243.5 -829.5 L243.5 -829.5 Q196.5 -826.5 183.5 -781.5 129.0 -594.0 55.5 -459.5 36.0 -431.0 36.0 -408.5 35.0 -375.0 69.5 -348.0 108.5 -319.5 139.5 -317.5 L139.5 23.5 Q139.5 62.5 162.0 78.0 180.5 95.5 219.0 95.5 260.0 95.5 277.5 78.0 300.0 62.5 300.0 23.5 L300.0 -93.0 Q332.0 -68.5 359.5 -68.5 392.0 -71.5 420.0 -101.5 424.0 -107.5 429.0 -114.5 433.0 -85.0 448.5 -72.5 467.0 -53.0 499.5 -53.0 L544.0 -53.0 544.0 19.5 Q544.0 49.0 564.5 68.5 589.0 95.5 636.0 95.5 687.0 95.5 709.5 68.5 728.0 48.0 728.0 19.5 L728.0 -53.0 783.5 -53.0 Q826.5 -53.0 845.0 -79.0 850.0 -86.0 852.0 -98.5 875.5 -72.5 900.0 -72.5 938.0 -73.5 965.5 -98.5 995.5 -126.0 995.5 -152.5 995.5 -175.0 988.0 -189.5 899.0 -317.5 843.0 -500.5 L896.0 -500.5 Q940.0 -500.5 961.5 -530.5 976.0 -551.0 976.0 -593.0 976.0 -644.0 958.5 -661.5 939.0 -681.0 896.0 -681.0 L728.0 -681.0 728.0 -752.5 Q728.0 -789.5 701.5 -809.0 678.0 -829.5 636.0 -829.5 592.0 -829.5 570.5 -809.0 544.0 -789.5 544.0 -752.5 L544.0 -681.0 391.0 -681.0 Q354.5 -681.0 334.0 -664.5 336.0 -669.5 338.0 -675.0 354.5 -719.0 351.5 -749.5 351.5 -782.5 319.5 -806.0 283.5 -827.5 243.5 -829.5" fill-rule="evenodd" stroke="none"/>
    </g>
    <g id="font______________5">
      <path d="M659.5 -257.0 L659.5 -257.0 Q640.0 -257.0 640.0 -277.5 L640.0 -309.0 Q640.0 -328.5 659.5 -328.5 L672.0 -328.5 672.0 -317.5 Q672.0 -287.5 665.5 -257.0 L659.5 -257.0 M824.5 -257.0 L824.5 -257.0 Q819.0 -286.5 819.0 -321.5 L819.0 -328.5 827.5 -328.5 Q848.0 -328.5 848.0 -309.0 L848.0 -277.5 Q848.0 -257.0 827.5 -257.0 L824.5 -257.0 M103.5 -196.5 L103.5 -196.5 Q70.5 -196.5 63.5 -156.5 50.0 -50.0 39.0 -3.0 32.0 22.5 32.0 39.0 32.0 54.5 49.0 64.5 65.5 75.0 87.0 75.0 112.5 75.0 124.0 51.0 134.0 14.5 144.5 -58.5 149.5 -18.5 155.5 31.0 160.0 61.5 191.5 63.5 229.5 61.5 231.5 23.5 230.5 -73.5 208.0 -160.5 196.5 -185.5 164.0 -185.5 153.5 -184.5 146.5 -180.0 143.5 -184.5 138.5 -187.5 123.0 -196.5 103.5 -196.5 M215.0 -628.5 L215.0 -628.5 215.0 -645.0 Q215.0 -672.5 235.5 -672.5 L275.5 -672.5 275.5 -628.5 215.0 -628.5 M215.0 -481.0 L215.0 -481.0 215.0 -517.0 275.5 -517.0 275.5 -481.0 215.0 -481.0 M239.5 -333.0 L239.5 -333.0 Q215.0 -333.0 215.0 -349.0 L215.0 -368.5 275.5 -368.5 275.5 -333.0 239.5 -333.0 M472.0 -628.5 L472.0 -628.5 Q467.0 -628.5 460.0 -628.5 L428.0 -628.5 428.0 -672.5 471.0 -672.5 Q468.0 -662.5 468.0 -649.0 468.0 -639.0 472.0 -628.5 M659.5 -593.0 L659.5 -593.0 Q683.0 -611.5 718.0 -639.0 730.0 -649.0 739.5 -649.0 748.5 -649.0 764.0 -631.0 783.5 -610.5 800.0 -593.0 L659.5 -593.0 M607.5 -456.5 L607.5 -456.5 Q512.0 -456.5 512.0 -361.5 L512.0 -304.0 Q509.0 -306.0 506.0 -309.0 480.5 -328.5 428.0 -331.5 L428.0 -368.5 464.0 -368.5 Q491.5 -368.5 504.0 -384.0 512.0 -397.5 512.0 -425.0 512.0 -456.5 501.0 -469.0 491.5 -481.0 464.0 -481.0 L428.0 -481.0 428.0 -517.0 460.0 -517.0 Q487.5 -517.0 499.5 -532.5 508.0 -544.5 508.0 -573.5 508.0 -576.5 507.0 -580.5 522.5 -566.0 537.5 -559.0 535.5 -550.0 535.5 -536.5 535.5 -506.0 549.0 -493.5 562.0 -481.0 583.5 -481.0 L672.0 -481.0 Q672.0 -477.0 672.0 -473.0 L672.0 -456.5 607.5 -456.5 M516.0 -24.5 L516.0 -24.5 Q518.0 -37.0 520.0 -50.0 527.5 -103.5 530.5 -158.5 554.0 -129.0 607.5 -129.0 L611.5 -129.0 Q577.5 -81.0 516.0 -24.5 M172.0 -800.5 L172.0 -800.5 Q76.0 -800.5 76.0 -712.5 L76.0 -320.5 Q76.0 -205.0 172.0 -205.0 L367.5 -205.0 Q395.5 -205.0 395.5 -181.0 395.5 -141.5 393.0 -111.5 389.0 -141.5 380.0 -169.0 369.5 -189.5 340.0 -189.5 309.5 -186.5 307.0 -165.0 315.5 -134.0 327.5 -72.5 331.0 -46.0 359.5 -45.0 379.0 -46.0 388.0 -58.5 388.0 -52.0 387.0 -48.0 382.0 -28.5 367.5 -28.5 350.0 -32.5 340.0 -32.5 327.5 -32.5 318.5 -26.5 315.5 -100.5 292.0 -169.0 281.5 -189.5 252.0 -189.5 221.0 -186.5 219.0 -165.0 230.5 -109.5 248.0 -1.0 251.0 25.5 279.5 26.5 289.0 26.5 296.0 24.5 296.0 29.5 296.0 35.0 297.0 61.5 318.5 79.0 341.0 99.5 391.0 99.5 451.5 99.5 480.5 64.5 492.5 49.0 501.0 26.5 506.0 48.0 531.5 66.5 569.5 95.5 603.0 95.5 632.0 95.5 659.5 70.5 704.5 35.0 736.5 -22.5 737.5 -28.5 743.5 -28.5 748.5 -28.5 754.5 -17.5 804.0 53.5 832.5 76.0 853.0 95.5 896.0 95.5 930.0 95.5 958.5 72.5 988.0 51.0 988.0 19.5 988.0 3.0 967.5 -20.5 910.5 -81.0 877.5 -129.0 L879.5 -129.0 Q976.0 -129.0 976.0 -225.0 L976.0 -361.5 Q976.0 -456.5 879.5 -456.5 L819.0 -456.5 819.0 -473.0 Q819.0 -477.0 819.0 -481.0 L904.0 -481.0 Q932.0 -481.0 944.0 -498.5 951.5 -509.0 951.5 -536.5 951.5 -548.0 950.5 -556.0 956.5 -560.0 961.5 -565.0 991.5 -597.0 991.5 -641.0 990.0 -677.0 963.5 -701.5 872.5 -760.0 815.0 -797.5 779.5 -825.5 735.5 -825.5 695.5 -825.5 664.5 -806.0 601.0 -766.0 526.5 -726.0 527.5 -731.0 527.5 -737.0 524.5 -797.5 472.0 -800.5 L172.0 -800.5" fill-rule="evenodd" stroke="none"/>
    </g>
    <g id="font______________6">
      <path d="M622.5 -152.5 L622.5 -152.5 Q621.5 -141.5 603.0 -128.0 583.5 -111.5 561.0 -111.5 538.5 -111.5 520.0 -119.0 497.5 -127.0 497.5 -140.5 497.5 -179.0 556.0 -179.0 596.0 -179.0 622.5 -152.5 M308.5 -700.5 L308.5 -700.5 Q312.5 -713.5 312.5 -726.0 312.5 -765.0 282.5 -788.5 254.0 -812.0 215.0 -812.0 125.0 -812.0 107.5 -733.0 89.0 -651.0 77.0 -513.0 64.5 -375.0 64.5 -260.0 64.5 -233.5 62.5 -168.0 60.5 -114.5 61.5 -85.0 62.5 -43.0 67.5 -10.0 80.0 65.5 178.0 65.5 220.0 65.5 249.0 35.0 279.5 0.0 273.5 -52.0 265.0 -121.0 265.0 -256.0 265.0 -365.5 278.5 -495.5 291.0 -626.5 308.5 -700.5 M995.5 -120.0 L995.5 -120.0 Q995.5 -203.5 828.5 -272.5 825.5 -342.0 822.5 -461.0 861.0 -466.0 899.0 -469.0 942.0 -475.0 963.5 -496.5 990.0 -525.5 990.0 -580.5 990.0 -662.5 899.0 -662.5 871.5 -662.5 825.5 -654.5 825.5 -659.5 826.5 -680.0 827.5 -696.5 827.5 -706.5 827.5 -806.0 724.0 -806.0 646.0 -806.0 624.5 -746.5 617.5 -724.0 617.5 -634.0 508.0 -632.0 429.0 -639.0 378.0 -643.0 350.0 -613.5 322.5 -584.5 322.5 -542.5 323.5 -504.0 348.0 -478.0 376.0 -448.5 420.0 -446.5 507.0 -441.5 619.5 -445.5 621.5 -364.5 623.5 -329.5 571.5 -340.0 560.0 -340.0 463.0 -340.0 391.0 -292.0 307.0 -235.5 307.0 -137.0 307.0 -46.0 387.0 7.0 460.0 55.5 564.5 55.5 651.5 55.5 717.0 20.5 775.0 -11.0 805.0 -64.5 828.5 -48.0 851.0 -31.5 879.5 -13.5 899.0 -13.5 936.0 -13.5 965.5 -48.0 995.5 -83.0 995.5 -120.0" fill-rule="evenodd" stroke="none"/>
    </g>
    <g id="text1" transform="matrix(1.0, 0.0, 0.0, 1.0, -1.2, 0.95)">
      <g transform="matrix(1.0, 0.0, 0.0, 1.0, 0.0, 0.0)">
        <use fill="#ffffff" height="12.85" transform="matrix(0.0117, 0.0, 0.0, 0.0117, 0.0, 10.0)" width="67.05" xlink:href="#font______________7"/>
        <use fill="#ffffff" height="12.85" transform="matrix(0.0117, 0.0, 0.0, 0.0117, 12.8, 10.0)" width="67.05" xlink:href="#font______________8"/>
        <use fill="#ffffff" height="12.85" transform="matrix(0.0117, 0.0, 0.0, 0.0117, 25.6, 10.0)" width="67.05" xlink:href="#font______________9"/>
        <use fill="#ffffff" height="12.85" transform="matrix(0.0117, 0.0, 0.0, 0.0117, 38.4, 10.0)" width="67.05" xlink:href="#font______________10"/>
      </g>
      <g transform="matrix(1.0, 0.0, 0.0, 1.0, 0.0, 0.0)">
        <use fill="#ffffff" height="12.85" transform="matrix(0.0117, 0.0, 0.0, 0.0117, 51.2, 10.0)" width="67.05" xlink:href="#font______________9"/>
      </g>
      <g transform="matrix(1.0, 0.0, 0.0, 1.0, 0.0, 0.0)">
        <use fill="#ffffff" height="12.85" transform="matrix(0.0117, 0.0, 0.0, 0.0117, 64.7, 10.0)" width="67.05" xlink:href="#font______________11"/>
      </g>
    </g>
    <g id="font______________7">
      <path d="M925.5 -74.5 L925.5 -74.5 Q925.5 -111.5 896.0 -137.0 867.5 -163.0 817.0 -163.0 825.5 -163.0 745.5 -149.5 663.5 -136.0 550.0 -133.0 478.0 -131.0 477.0 -131.0 321.5 -131.0 321.5 -180.0 321.5 -201.5 330.0 -228.5 338.0 -255.0 338.0 -269.5 338.0 -306.0 300.0 -330.5 264.0 -352.0 226.5 -352.0 164.0 -352.0 129.0 -290.0 100.5 -238.5 100.5 -174.0 100.5 55.5 541.5 55.5 553.0 55.5 597.0 56.5 640.0 58.5 667.5 58.5 925.5 58.5 925.5 -74.5 M862.0 -653.5 L862.0 -653.5 Q862.0 -696.5 833.5 -724.0 801.0 -754.5 743.5 -750.5 631.0 -741.5 529.5 -741.5 417.0 -741.5 282.5 -752.5 232.5 -757.5 202.0 -728.0 172.0 -698.5 172.0 -658.5 172.0 -619.5 195.5 -591.0 224.5 -560.0 274.5 -557.0 424.0 -544.5 562.0 -544.5 674.0 -544.5 765.0 -553.0 811.0 -557.0 837.5 -587.5 862.0 -615.5 862.0 -653.5" fill-rule="evenodd" stroke="none"/>
    </g>
    <g id="font______________8">
      <path d="M939.0 -237.5 L939.0 -237.5 Q939.0 -346.0 853.0 -413.5 766.0 -482.5 627.5 -482.5 581.5 -482.5 521.0 -464.0 468.0 -448.5 436.5 -429.0 451.5 -470.0 467.0 -517.0 633.0 -525.5 755.5 -547.0 840.5 -562.0 840.5 -632.0 840.5 -670.5 817.0 -697.5 792.5 -724.0 749.5 -724.0 732.0 -724.0 715.0 -720.0 674.0 -708.5 614.5 -705.5 568.5 -703.5 519.0 -700.5 529.5 -723.0 529.5 -749.5 529.5 -786.5 510.0 -811.0 487.5 -839.5 446.5 -839.5 375.0 -839.5 344.0 -791.5 327.5 -769.0 312.5 -694.0 257.0 -694.0 167.0 -700.5 115.5 -703.5 85.0 -675.0 53.5 -645.0 53.5 -606.0 53.5 -565.0 79.0 -537.5 108.5 -507.0 162.0 -507.0 178.0 -507.0 211.0 -510.0 243.5 -512.0 260.0 -512.0 236.5 -406.5 193.5 -333.0 171.0 -294.0 169.0 -293.0 161.0 -274.5 161.0 -245.5 161.0 -206.0 188.5 -183.5 216.0 -159.5 258.0 -159.5 312.5 -159.5 344.0 -196.5 438.5 -310.0 617.5 -310.0 673.0 -310.0 702.5 -288.5 731.0 -270.5 731.0 -242.5 731.0 -160.5 594.0 -132.0 549.0 -122.0 492.5 -122.0 435.0 -122.0 399.5 -131.0 301.0 -131.0 301.0 -48.0 301.0 -5.0 325.5 24.5 356.5 62.5 412.5 62.5 430.0 62.5 482.5 65.5 527.5 67.5 545.0 66.5 939.0 41.0 939.0 -237.5" fill-rule="evenodd" stroke="none"/>
    </g>
    <g id="font______________9">
      <path d="M936.0 -244.5 L936.0 -244.5 Q936.0 -383.0 835.5 -448.5 758.0 -499.5 636.0 -499.5 463.0 -499.5 352.5 -419.0 364.5 -494.5 368.5 -527.5 370.5 -536.5 370.5 -546.0 370.5 -581.5 343.0 -608.0 313.5 -634.0 277.5 -634.0 172.0 -634.0 154.5 -549.0 129.0 -425.0 118.0 -272.5 111.5 -213.0 144.5 -180.0 172.0 -151.5 219.0 -151.5 248.0 -151.5 278.5 -167.0 310.5 -181.0 326.5 -202.5 355.5 -236.5 431.0 -267.0 520.0 -302.0 613.5 -302.0 710.5 -302.0 710.5 -248.0 710.5 -122.0 477.0 -122.0 454.5 -122.0 422.0 -124.0 389.0 -125.0 381.0 -125.0 336.0 -125.0 310.5 -94.0 285.5 -66.5 285.5 -26.5 285.5 17.5 321.5 46.0 355.5 76.0 408.5 76.0 408.5 76.0 476.0 78.0 525.5 80.0 558.0 77.0 936.0 45.0 936.0 -244.5 M705.5 -711.5 L705.5 -711.5 Q705.5 -772.0 636.0 -786.5 576.5 -797.5 516.0 -808.0 441.5 -822.0 392.0 -839.5 374.0 -847.0 347.0 -847.0 308.5 -847.0 283.5 -816.0 258.0 -786.5 258.0 -747.5 258.0 -685.0 332.0 -654.5 433.0 -612.5 570.5 -606.0 576.5 -606.0 589.0 -603.0 601.0 -601.0 606.0 -601.0 653.5 -601.0 680.0 -638.0 705.5 -669.5 705.5 -711.5" fill-rule="evenodd" stroke="none"/>
    </g>
    <g id="font______________10">
      <path d="M495.5 -383.0 L495.5 -383.0 Q493.5 -143.5 452.5 -143.5 432.0 -143.5 390.0 -163.0 381.0 -168.0 369.5 -168.0 338.0 -168.0 312.5 -141.5 376.0 -297.0 415.0 -446.5 438.5 -449.5 448.5 -449.5 495.5 -449.5 495.5 -383.0 M698.5 -378.0 L698.5 -378.0 Q698.5 -516.0 635.0 -584.5 584.5 -637.0 510.0 -637.0 497.5 -637.0 485.5 -635.0 L462.0 -633.0 Q480.5 -720.0 480.5 -728.0 480.5 -768.0 451.5 -792.5 422.0 -816.0 384.0 -816.0 345.0 -816.0 316.5 -794.5 285.5 -768.0 279.5 -720.0 274.5 -688.0 257.0 -615.5 182.5 -606.0 139.5 -601.0 97.5 -596.0 75.0 -571.5 52.5 -547.0 52.5 -514.0 52.5 -445.5 97.5 -421.0 118.0 -410.5 146.5 -410.5 172.0 -410.5 208.0 -418.0 152.5 -237.5 69.5 -89.0 57.5 -67.5 57.5 -36.0 57.5 3.0 96.5 29.5 129.0 51.0 175.0 51.0 218.0 51.0 248.0 -2.0 260.0 -25.5 280.5 -72.5 277.5 -5.0 349.0 32.0 407.5 60.5 478.0 60.5 636.0 60.5 681.0 -143.5 698.5 -216.0 698.5 -378.0 M971.0 -306.0 L971.0 -306.0 Q971.0 -316.5 966.5 -331.5 901.0 -600.0 834.5 -697.5 807.0 -737.0 773.0 -737.0 729.0 -737.0 694.5 -718.0 654.5 -696.5 654.5 -660.5 654.5 -639.0 668.5 -600.0 681.0 -573.5 692.5 -547.0 702.5 -520.0 732.0 -421.0 763.0 -317.5 781.5 -266.0 803.0 -207.0 865.5 -207.0 908.5 -207.0 939.0 -233.5 971.0 -258.0 971.0 -306.0" fill-rule="evenodd" stroke="none"/>
    </g>
    <g id="font______________11">
      <path d="M304.0 -66.5 L304.0 -66.5 Q304.0 -115.5 265.0 -150.5 226.5 -186.5 172.0 -186.5 118.0 -186.5 80.0 -151.5 41.0 -115.5 41.0 -66.5 41.0 -17.5 79.0 17.5 118.0 52.5 172.0 52.5 226.5 52.5 265.0 17.5 304.0 -17.5 304.0 -66.5 M289.0 -659.5 L289.0 -659.5 Q293.0 -719.0 261.0 -751.5 228.5 -785.5 173.0 -785.5 114.5 -785.5 84.0 -752.5 52.5 -719.0 56.5 -658.5 L80.0 -295.0 Q82.0 -263.0 107.5 -244.5 133.0 -226.5 168.0 -226.5 205.0 -226.5 232.5 -243.5 261.0 -262.0 263.0 -295.0 L289.0 -659.5" fill-rule="evenodd" stroke="none"/>
    </g>
    <g id="sprite1" transform="matrix(1.0, 0.0, 0.0, 1.0, -3.9, -2.15)">
      <use data-characterId="198" height="39.05" transform="matrix(1.0112, -0.014, 0.0135, 1.0485, 3.9206, 3.2242)" width="76.35" xlink:href="#text2"/>
    </g>
    <g id="text2" transform="matrix(1.0, 0.0, 0.0, 1.0, -1.85, 0.0)">
      <g transform="matrix(1.0, 0.0, 0.0, 1.0, 0.0, 0.0)">
        <use fill="#ffff00" height="39.05" transform="matrix(0.0391, 0.0, 0.0, 0.0391, 0.0, 34.0)" width="76.35" xlink:href="#font______________12"/>
        <use fill="#ffff00" height="39.05" transform="matrix(0.0391, 0.0, 0.0, 0.0391, 39.6, 34.0)" width="76.35" xlink:href="#font______________13"/>
      </g>
    </g>
    <g id="font______________12">
      <path d="M867.5 -125.0 L867.5 -125.0 Q819.0 -124.0 791.5 -108.5 751.5 -90.0 751.5 -53.0 751.5 -47.0 762.0 -26.5 777.0 9.0 800.0 64.5 813.0 95.5 852.0 95.5 897.0 94.0 938.0 75.0 976.0 55.5 976.0 19.5 976.0 -11.0 932.0 -93.0 913.5 -122.0 867.5 -125.0 M647.0 -121.0 L647.0 -121.0 Q599.0 -120.0 571.5 -105.5 531.5 -86.0 531.5 -49.0 531.5 -43.0 538.5 -23.5 549.0 12.5 564.5 65.5 573.5 95.5 600.0 95.5 646.0 94.0 689.0 74.0 728.0 53.5 728.0 15.5 728.0 -13.5 695.5 -91.0 682.0 -119.0 647.0 -121.0 M431.0 -121.0 L431.0 -121.0 Q378.0 -120.0 348.0 -103.5 303.0 -82.0 303.0 -41.0 303.0 -36.0 310.5 -17.5 320.5 16.5 335.0 66.5 343.0 95.5 367.5 95.5 416.0 94.0 460.0 74.0 499.5 53.5 499.5 15.5 499.5 -13.5 472.0 -91.0 461.0 -119.0 431.0 -121.0 M300.0 -540.5 L300.0 -540.5 300.0 -613.5 340.0 -613.5 340.0 -540.5 300.0 -540.5 M300.0 -301.0 L300.0 -301.0 300.0 -372.5 340.0 -372.5 340.0 -301.0 300.0 -301.0 M499.5 -540.5 L499.5 -540.5 499.5 -613.5 535.5 -613.5 535.5 -540.5 499.5 -540.5 M499.5 -301.0 L499.5 -301.0 499.5 -372.5 535.5 -372.5 535.5 -301.0 499.5 -301.0 M695.5 -540.5 L695.5 -540.5 695.5 -613.5 732.0 -613.5 732.0 -540.5 695.5 -540.5 M695.5 -301.0 L695.5 -301.0 695.5 -372.5 732.0 -372.5 732.0 -301.0 695.5 -301.0 M235.5 -845.0 L235.5 -845.0 Q210.0 -840.5 195.5 -821.0 148.5 -757.5 90.0 -698.5 65.5 -666.5 63.5 -645.0 63.5 -616.5 104.5 -592.0 123.0 -579.5 139.5 -572.5 L139.5 -540.5 120.0 -540.5 Q83.0 -540.5 67.5 -525.5 47.0 -507.0 47.0 -456.5 47.0 -409.5 67.5 -392.0 87.0 -372.5 120.0 -372.5 L139.5 -372.5 139.5 -301.0 135.0 -301.0 Q98.5 -301.0 84.0 -284.5 63.5 -267.0 63.5 -217.0 63.5 -170.0 84.0 -152.5 99.5 -137.0 124.0 -134.0 105.5 -125.0 95.5 -105.5 83.0 -67.5 58.5 -13.5 47.0 11.5 47.0 26.5 47.0 58.5 86.0 77.0 125.0 101.5 164.0 103.5 202.0 102.5 223.5 70.5 246.0 42.0 265.0 -31.5 271.5 -64.5 271.5 -77.0 271.5 -109.5 245.0 -122.0 232.5 -129.0 218.0 -133.0 L888.0 -133.0 Q930.0 -133.0 948.5 -158.5 959.5 -175.0 959.5 -217.0 959.5 -269.5 941.0 -283.5 924.5 -300.0 892.0 -301.0 L892.0 -372.5 904.0 -372.5 Q946.0 -372.5 964.5 -399.5 976.0 -414.5 976.0 -456.5 976.0 -509.0 956.5 -523.0 940.0 -540.5 904.0 -540.5 L892.0 -540.5 892.0 -613.5 Q924.5 -616.5 939.0 -636.0 951.5 -655.5 951.5 -697.5 951.5 -744.5 936.0 -763.0 921.5 -781.5 879.5 -781.5 L359.5 -781.5 Q355.5 -805.0 316.5 -823.5 269.5 -843.5 235.5 -845.0" fill-rule="evenodd" stroke="none"/>
    </g>
    <g id="font______________13">
      <path d="M407.5 -349.0 L407.5 -349.0 451.5 -349.0 Q496.5 -349.0 516.0 -376.0 518.0 -380.0 520.0 -384.0 563.0 -355.5 595.0 -330.5 610.5 -320.5 627.5 -320.5 655.5 -320.5 691.0 -360.5 719.0 -394.0 720.0 -429.0 719.0 -464.0 691.0 -485.5 649.0 -518.0 607.5 -543.5 584.5 -556.0 563.0 -557.0 527.5 -555.0 498.5 -517.0 497.5 -516.0 496.5 -515.0 480.5 -525.5 451.5 -525.5 L407.5 -525.5 407.5 -565.0 Q410.5 -563.0 415.0 -561.0 444.5 -542.5 475.0 -540.5 504.0 -541.5 519.0 -565.0 533.5 -587.5 547.0 -629.5 550.0 -626.5 555.0 -623.5 614.5 -586.5 655.5 -556.0 673.0 -544.5 691.0 -544.5 708.5 -544.5 728.0 -559.0 L728.0 -322.5 583.5 -297.0 Q552.0 -295.0 534.5 -273.5 526.5 -265.0 521.0 -252.0 501.0 -285.5 474.0 -315.5 456.5 -333.0 435.0 -333.0 421.0 -333.0 407.5 -330.5 L407.5 -349.0 M168.0 -789.5 L168.0 -789.5 Q122.0 -787.5 97.5 -775.0 59.5 -757.5 59.5 -725.0 59.5 -718.0 67.5 -693.0 80.0 -649.0 98.5 -582.5 108.5 -544.5 139.5 -544.5 175.0 -546.0 207.0 -561.0 216.0 -566.0 223.5 -573.5 L223.5 -525.5 139.5 -525.5 Q100.5 -525.5 85.0 -508.0 63.5 -489.5 63.5 -437.0 63.5 -387.0 85.0 -369.5 105.5 -349.0 139.5 -349.0 L181.5 -349.0 Q108.5 -251.0 47.0 -199.5 23.5 -179.0 23.5 -141.5 26.5 -110.5 50.0 -86.0 92.0 -45.0 139.5 -45.0 165.0 -45.0 208.0 -102.5 215.0 -112.5 223.5 -124.0 L223.5 15.5 Q223.5 45.0 245.0 64.5 269.5 91.0 315.5 91.0 367.5 91.0 390.0 64.5 407.5 45.0 407.5 15.5 L407.5 -114.5 Q408.5 -111.5 410.5 -108.5 422.0 -89.0 443.5 -89.0 483.5 -89.0 518.0 -115.5 525.5 -121.0 531.5 -128.0 531.5 -127.0 532.5 -127.0 554.0 -99.5 600.0 -97.0 L728.0 -121.0 728.0 11.5 Q728.0 43.0 749.5 63.5 775.0 91.0 823.5 91.0 877.5 91.0 901.0 63.5 919.5 42.0 919.5 11.5 L919.5 -155.5 Q950.5 -162.0 970.0 -184.5 988.0 -209.0 988.0 -253.0 988.0 -299.0 965.5 -326.5 948.5 -346.0 919.5 -351.0 L919.5 -749.5 Q919.5 -787.5 893.0 -808.0 867.5 -829.5 823.5 -829.5 777.0 -829.5 755.5 -808.0 728.0 -787.5 728.0 -749.5 L728.0 -734.0 Q694.5 -756.5 660.5 -775.0 636.0 -787.5 611.5 -789.5 583.5 -787.5 561.0 -766.0 556.0 -773.0 546.0 -778.0 516.0 -793.5 475.0 -793.5 438.5 -793.5 424.0 -761.0 418.0 -734.0 407.5 -700.5 L407.5 -752.5 Q407.5 -789.5 382.0 -809.0 357.5 -829.5 315.5 -829.5 271.5 -829.5 250.0 -809.0 223.5 -789.5 223.5 -752.5 L223.5 -685.0 Q217.0 -712.5 208.0 -748.5 196.5 -785.5 168.0 -789.5" fill-rule="evenodd" stroke="none"/>
    </g>
    <g id="sprite2" transform="matrix(1.0, 0.0, 0.0, 1.0, 0.5, 0.5)">
      <use data-characterId="3" height="25.25" transform="matrix(1.0, 0.0, 0.0, 1.0, -0.5, -0.5)" width="31.55" xlink:href="#shape1"/>
    </g>
    <g id="shape1" transform="matrix(1.0, 0.0, 0.0, 1.0, 0.5, 0.5)">
      <path d="M9.5 17.15 L9.35 17.25 10.0 18.75 Q10.2 19.5 9.85 20.2 9.55 20.85 8.45 21.05 L7.65 21.1 Q6.8 20.95 6.3 20.45 L5.65 19.4 5.4 18.35 5.35 17.9 5.65 17.85 6.5 17.7 Q5.45 17.2 4.95 16.35 4.55 15.4 4.7 14.25 4.8 13.15 5.45 11.95 6.05 10.8 6.65 10.2 L7.85 9.3 8.4 8.7 Q8.65 7.85 8.15 6.9 L6.75 5.05 5.35 3.7 4.6 2.8 4.55 2.3 4.5 2.5 Q4.4 2.85 4.45 3.3 4.5 3.8 4.9 4.1 L6.15 5.55 Q6.75 6.4 6.95 7.35 7.1 7.95 6.8 8.45 L6.5 8.8 6.2 9.15 5.5 9.8 Q4.75 10.75 4.4 11.75 3.75 13.3 3.85 14.9 L3.95 15.9 4.05 16.85 4.35 17.95 4.35 18.15 4.35 18.25 5.0 20.35 5.6 21.15 6.25 21.6 6.45 21.8 6.8 21.95 7.85 22.2 8.7 22.25 9.15 22.15 9.2 22.15 9.25 22.15 10.4 21.75 Q10.0 20.95 10.1 19.95 L10.4 18.95 10.95 18.05 10.8 17.4 10.8 16.1 10.3 16.65 9.5 17.15 M29.8 5.3 L29.7 5.4 29.35 6.2 28.1 7.6 Q27.3 8.25 25.95 8.7 L24.6 8.95 23.55 8.95 22.65 8.85 21.6 8.65 20.35 8.65 18.1 9.15 16.2 10.25 15.1 11.0 Q14.25 11.7 14.85 11.75 L15.1 11.75 16.05 11.7 17.6 11.75 Q18.75 11.8 20.1 12.35 L19.3 11.75 18.7 11.5 17.9 11.25 17.25 11.3 17.2 11.3 16.95 11.25 16.25 11.25 15.8 11.15 16.65 11.05 17.3 10.95 17.85 10.85 20.9 10.35 23.7 10.0 24.1 9.9 26.9 8.95 27.8 8.4 28.95 7.1 28.95 7.05 29.0 6.95 29.45 6.15 29.85 5.15 29.8 5.3 M19.85 18.75 L20.0 18.6 19.55 18.9 18.15 19.5 15.9 19.65 14.75 19.45 Q13.5 19.1 12.85 18.5 12.25 17.85 12.0 17.05 11.8 16.25 11.9 15.45 12.05 14.25 12.4 13.8 L12.7 13.4 12.05 13.7 11.7 14.45 11.35 15.4 11.3 15.55 11.3 15.6 11.2 17.0 11.45 18.05 Q11.75 18.9 12.35 19.45 L12.75 19.75 Q13.65 20.25 14.75 20.4 L17.1 20.2 19.25 19.3 19.85 18.75 M17.4 14.9 L17.8 14.9 18.6 14.6 Q18.8 14.4 18.55 14.3 L17.9 14.2 17.1 14.15 16.55 14.15 15.65 13.45 14.65 13.0 15.5 13.65 16.0 14.5 16.9 14.65 17.8 14.7 17.4 14.9 M14.05 12.9 L14.3 12.9 13.95 12.65 13.45 12.15 13.05 11.6 12.8 11.3 12.7 11.9 12.65 12.35 12.4 13.15 14.0 12.9 14.05 12.9 M4.2 18.8 L3.35 18.95 Q2.6 18.85 1.9 18.15 1.2 17.45 0.85 16.0 0.5 14.5 0.9 13.55 1.3 12.65 2.0 12.25 2.5 11.95 2.95 11.9 2.25 11.9 1.55 12.35 0.7 12.8 0.25 13.85 -0.15 14.95 0.25 16.6 L0.3 16.9 0.35 17.2 0.8 18.25 0.95 18.55 1.45 19.15 Q2.2 19.95 3.05 20.0 L4.15 19.9 4.45 19.7 4.2 18.8 M15.75 23.9 L16.7 23.6 Q17.75 23.3 18.4 22.6 L17.95 22.8 16.65 23.15 14.85 23.25 13.55 22.95 11.85 21.8 Q11.35 21.1 11.3 20.45 11.3 19.8 11.7 19.35 L11.75 19.3 11.45 19.1 11.25 18.75 11.25 18.7 Q10.7 19.5 10.65 20.1 10.55 20.7 10.85 21.55 L11.05 22.0 Q11.25 22.5 11.95 23.05 12.7 23.55 14.2 23.85 L14.55 23.9 14.6 23.9 15.75 23.9" fill="#c2d6d4" fill-rule="evenodd" stroke="none"/>
      <path d="M4.5 2.5 L4.55 2.3 4.6 2.8 5.35 3.7 6.75 5.05 8.15 6.9 Q8.65 7.85 8.4 8.7 L7.85 9.3 6.65 10.2 Q6.05 10.8 5.45 11.95 4.8 13.15 4.7 14.25 4.55 15.4 4.95 16.35 5.45 17.2 6.5 17.7 L5.65 17.85 5.35 17.9 5.4 18.35 5.65 19.4 6.3 20.45 Q6.8 20.95 7.65 21.1 L8.45 21.05 Q9.55 20.85 9.85 20.2 10.2 19.5 10.0 18.75 L9.35 17.25 9.5 17.15 8.85 17.45 11.05 14.9 12.25 12.65 12.8 11.05 12.7 11.9 12.8 11.3 13.05 11.6 13.45 12.15 13.95 12.65 14.3 12.9 14.05 12.9 Q14.8 13.0 15.3 13.4 L16.0 14.5 15.5 13.65 14.65 13.0 15.65 13.45 16.55 14.15 17.1 14.15 17.9 14.2 18.55 14.3 Q18.8 14.4 18.6 14.6 L17.8 14.9 17.4 14.9 16.35 15.05 15.05 14.7 15.45 14.7 15.7 14.65 Q15.6 13.9 15.15 13.6 14.75 13.25 14.2 13.2 L12.9 13.35 12.7 13.4 12.4 13.8 Q12.05 14.25 11.9 15.45 11.8 16.25 12.0 17.05 12.25 17.85 12.85 18.5 13.5 19.1 14.75 19.45 L15.9 19.65 18.15 19.5 19.55 18.9 20.0 18.6 19.85 18.75 20.75 17.5 Q21.3 16.25 21.25 15.0 L21.15 14.35 20.4 12.7 19.8 12.1 19.3 11.75 20.1 12.35 Q18.75 11.8 17.6 11.75 L16.05 11.7 15.1 11.75 14.85 11.75 Q14.25 11.7 15.1 11.0 L16.2 10.25 18.1 9.15 20.35 8.65 21.6 8.65 22.65 8.85 23.55 8.95 24.6 8.95 25.95 8.7 Q27.3 8.25 28.1 7.6 L29.35 6.2 29.7 5.4 29.8 5.3 30.05 3.9 Q30.0 2.55 29.35 1.75 28.7 0.95 27.65 0.8 L26.1 1.1 25.3 1.55 Q24.7 1.85 23.85 2.3 L20.65 3.75 17.1 5.35 13.9 6.7 11.95 7.45 11.75 7.55 11.9 6.05 11.75 3.9 Q11.55 2.75 11.0 1.85 10.5 0.9 9.4 0.35 L8.8 0.15 8.1 0.0 6.35 0.25 6.15 0.35 Q5.35 0.85 4.9 1.55 L4.5 2.5 M10.4 18.95 L10.1 19.95 Q10.0 20.95 10.4 21.75 10.05 20.95 10.15 19.95 L10.4 18.95 M8.7 22.25 L7.85 22.2 6.8 21.95 7.85 22.2 8.7 22.25 M2.95 11.9 Q2.5 11.95 2.0 12.25 1.3 12.65 0.9 13.55 0.5 14.5 0.85 16.0 1.2 17.45 1.9 18.15 2.6 18.85 3.35 18.95 L4.2 18.8 4.05 17.95 Q3.65 16.5 3.6 14.9 3.65 13.5 4.15 12.15 L3.95 12.05 3.5 11.95 2.95 11.9 M17.3 10.95 L16.65 11.05 15.8 11.15 16.7 11.05 17.3 10.95 M27.8 8.4 L26.9 8.95 24.1 9.9 23.7 10.0 24.1 9.9 26.9 8.95 27.8 8.4 M15.75 23.9 L17.25 23.45 Q18.5 22.8 19.1 21.75 19.7 20.7 19.25 19.6 18.1 20.3 16.95 20.5 L14.8 20.65 Q13.55 20.5 12.6 20.0 L11.7 19.35 Q11.3 19.8 11.3 20.45 11.35 21.1 11.85 21.8 L13.55 22.95 14.85 23.25 16.65 23.15 17.95 22.8 18.4 22.6 Q17.75 23.3 16.7 23.6 L15.75 23.9" fill="#ffffff" fill-rule="evenodd" stroke="none"/>
      <path d="M9.5 17.15 L10.3 16.65 10.8 16.1 10.8 17.4 10.95 18.05 10.4 18.95 10.15 19.95 Q10.05 20.95 10.4 21.75 L9.25 22.15 9.2 22.15 9.15 22.15 8.7 22.25 7.85 22.2 6.8 21.95 6.45 21.8 6.25 21.6 5.6 21.15 5.0 20.35 4.35 18.25 4.35 18.15 4.35 17.95 4.05 16.85 3.95 15.9 3.85 14.9 Q3.75 13.3 4.4 11.75 4.75 10.75 5.5 9.8 4.7 10.75 4.3 11.75 L4.2 11.9 4.05 11.75 3.5 11.6 Q2.55 11.55 1.7 12.0 0.75 12.5 0.3 13.6 -0.2 14.75 0.2 16.55 L0.3 16.9 0.25 16.6 Q-0.15 14.95 0.25 13.85 0.7 12.8 1.55 12.35 2.25 11.9 2.95 11.9 L3.5 11.95 3.95 12.05 4.15 12.15 Q3.65 13.5 3.6 14.9 3.65 16.5 4.05 17.95 L4.2 18.8 4.45 19.7 4.15 19.9 3.05 20.0 Q2.2 19.95 1.45 19.15 L0.95 18.55 1.5 19.25 Q2.35 20.1 3.25 20.2 L4.45 20.0 4.55 19.95 4.9 20.65 6.4 22.15 Q7.35 22.65 8.25 22.75 L9.65 22.7 10.7 22.25 10.85 22.6 11.8 23.4 14.0 24.15 14.35 24.2 Q15.85 24.35 17.05 23.75 18.35 23.2 19.0 22.1 19.65 21.0 19.45 19.55 20.35 18.85 20.9 17.75 21.4 16.65 21.35 15.4 L21.15 14.35 21.25 15.0 Q21.3 16.25 20.75 17.5 L19.85 18.75 19.25 19.3 17.1 20.2 14.75 20.4 Q13.65 20.25 12.75 19.75 L12.35 19.45 Q11.75 18.9 11.45 18.05 L11.2 17.0 11.3 15.6 11.3 15.55 11.35 15.4 11.7 14.45 12.05 13.7 12.7 13.4 12.9 13.35 14.2 13.2 Q14.75 13.25 15.15 13.6 15.6 13.9 15.7 14.65 L15.45 14.7 15.05 14.7 16.35 15.05 17.4 14.9 17.8 14.7 16.9 14.65 16.0 14.5 15.3 13.4 Q14.8 13.0 14.05 12.9 L14.0 12.9 12.4 13.15 12.65 12.35 12.7 11.9 12.8 11.05 12.25 12.65 11.05 14.9 8.85 17.45 9.5 17.15 M6.8 8.45 Q7.1 7.95 6.95 7.35 6.75 6.4 6.15 5.55 L4.9 4.1 Q4.5 3.8 4.45 3.3 4.4 2.85 4.5 2.5 L4.9 1.55 Q5.35 0.85 6.15 0.35 L6.35 0.25 6.0 0.4 Q5.05 0.85 4.6 1.6 4.1 2.35 4.1 3.05 4.1 3.8 4.55 4.2 L5.9 5.6 6.85 7.4 6.8 8.45 M8.8 0.15 L9.4 0.35 Q10.5 0.9 11.0 1.85 11.55 2.75 11.75 3.9 L11.9 6.05 11.75 7.55 11.95 7.45 12.05 5.9 11.85 3.7 11.05 1.6 Q10.45 0.65 9.4 0.3 L8.8 0.15 M25.3 1.55 L26.1 1.1 27.65 0.8 Q28.7 0.95 29.35 1.75 30.0 2.55 30.05 3.9 L29.8 5.3 29.85 5.15 29.45 6.15 29.0 6.95 28.95 7.05 28.95 7.1 27.8 8.4 26.9 8.95 24.1 9.9 23.7 10.0 20.9 10.35 17.85 10.85 17.3 10.95 16.7 11.05 15.8 11.15 16.25 11.25 16.95 11.25 17.2 11.3 17.25 11.3 17.9 11.25 18.7 11.5 19.3 11.75 19.8 12.1 18.5 11.25 22.5 10.55 26.45 9.6 Q28.3 8.85 29.45 7.2 30.5 5.45 30.55 4.0 30.5 2.55 29.7 1.65 28.9 0.7 27.85 0.6 27.0 0.5 26.3 0.95 L25.3 1.55 M11.7 19.35 L12.6 20.0 Q13.55 20.5 14.8 20.65 L16.95 20.5 Q18.1 20.3 19.25 19.6 19.7 20.7 19.1 21.75 18.5 22.8 17.25 23.45 L15.75 23.9 14.6 23.9 14.55 23.9 14.2 23.85 Q12.7 23.55 11.95 23.05 11.25 22.5 11.05 22.0 L10.85 21.55 Q10.55 20.7 10.65 20.1 10.7 19.5 11.25 18.7 L11.25 18.75 11.45 19.1 11.75 19.3 11.7 19.35" fill="#2d4c76" fill-rule="evenodd" stroke="none"/>
      <path d="M5.5 9.8 L6.2 9.15 6.5 8.8 6.8 8.45 6.85 7.4 5.9 5.6 4.55 4.2 Q4.1 3.8 4.1 3.05 4.1 2.35 4.6 1.6 5.05 0.85 6.0 0.4 L6.35 0.25 8.1 0.0 8.8 0.15 9.4 0.3 Q10.45 0.65 11.05 1.6 L11.85 3.7 12.05 5.9 11.95 7.45 13.9 6.7 17.1 5.35 20.65 3.75 23.85 2.3 Q24.7 1.85 25.3 1.55 M19.8 12.1 L20.4 12.7 21.15 14.35 21.35 15.4 Q21.4 16.65 20.9 17.75 20.35 18.85 19.45 19.55 19.65 21.0 19.0 22.1 18.35 23.2 17.05 23.75 15.85 24.35 14.35 24.2 L14.0 24.15 11.8 23.4 10.85 22.6 10.7 22.25 9.65 22.7 8.25 22.75 Q7.35 22.65 6.4 22.15 L4.9 20.65 4.55 19.95 4.45 20.0 3.25 20.2 Q2.35 20.1 1.5 19.25 L0.95 18.55 0.8 18.25 0.35 17.2 0.3 16.9 0.2 16.55 Q-0.2 14.75 0.3 13.6 0.75 12.5 1.7 12.0 2.55 11.55 3.5 11.6 L4.05 11.75 4.2 11.9 4.3 11.75 Q4.7 10.75 5.5 9.8" fill="none" stroke="#2d4c76" stroke-linecap="round" stroke-linejoin="round" stroke-width="1.0"/>
      <path d="M25.3 1.55 L26.3 0.95 Q27.0 0.5 27.85 0.6 28.9 0.7 29.7 1.65 30.5 2.55 30.55 4.0 30.5 5.45 29.45 7.2 28.3 8.85 26.45 9.6 L22.5 10.55 18.5 11.25 19.8 12.1" fill="none" stroke="#2d4c76" stroke-linecap="round" stroke-linejoin="round" stroke-width="1.0"/>
    </g>
  </defs>
</svg>
