<?xml version="1.0" encoding="UTF-8" standalone="no"?>
<svg xmlns:xlink="http://www.w3.org/1999/xlink" height="122.0px" width="148.6px" xmlns="http://www.w3.org/2000/svg">
  <g transform="matrix(1.0, 0.0, 0.0, 1.0, 28.35, 91.8)">
    <use data-characterId="6" height="120.05" id="btn" transform="matrix(0.9999, 0.0135, -0.0135, 0.9999, -26.7152, -91.7975)" width="147.0" xlink:href="#button0"/>
  </g>
  <defs>
    <g id="button0" transform="matrix(1.0, 0.0, 0.0, 1.0, 19.3, 91.45)">
      <use data-characterId="2" height="14.0" transform="matrix(1.0, 0.0, 0.0, 1.0, 44.8, 4.9)" width="76.75" xlink:href="#text0"/>
      <use data-characterId="4" height="25.25" transform="matrix(1.0, 0.0, 0.0, 1.0, 8.5, -0.5)" width="31.55" xlink:href="#sprite0"/>
    </g>
    <g id="text0" transform="matrix(1.0, 0.0, 0.0, 1.0, -0.55, 0.75)">
      <g transform="matrix(1.0, 0.0, 0.0, 1.0, 0.0, 0.0)">
        <use fill="#ff3300" height="14.0" transform="matrix(0.0127, 0.0, 0.0, 0.0127, 0.0, 11.0)" width="76.75" xlink:href="#font_____________0"/>
        <use fill="#ff3300" height="14.0" transform="matrix(0.0127, 0.0, 0.0, 0.0127, 10.45, 11.0)" width="76.75" xlink:href="#font_____________1"/>
        <use fill="#ff3300" height="14.0" transform="matrix(0.0127, 0.0, 0.0, 0.0127, 20.9, 11.0)" width="76.75" xlink:href="#font_____________2"/>
      </g>
      <g transform="matrix(1.0, 0.0, 0.0, 1.0, 0.0, 0.0)">
        <use fill="#ff3300" height="14.0" transform="matrix(0.0127, 0.0, 0.0, 0.0127, 31.35, 11.0)" width="76.75" xlink:href="#font_____________3"/>
        <use fill="#ff3300" height="14.0" transform="matrix(0.0127, 0.0, 0.0, 0.0127, 42.8, 11.0)" width="76.75" xlink:href="#font_____________4"/>
        <use fill="#ff3300" height="14.0" transform="matrix(0.0127, 0.0, 0.0, 0.0127, 54.25, 11.0)" width="76.75" xlink:href="#font_____________5"/>
        <use fill="#ff3300" height="14.0" transform="matrix(0.0127, 0.0, 0.0, 0.0127, 65.7, 11.0)" width="76.75" xlink:href="#font_____________6"/>
      </g>
    </g>
    <g id="font_____________0">
      <path d="M223.5 -28.5 L223.5 -28.5 Q195.5 -28.5 195.5 -57.5 L195.5 -105.5 Q195.5 -133.0 223.5 -133.0 L279.5 -133.0 Q307.0 -133.0 307.0 -105.5 L307.0 -57.5 Q307.0 -28.5 279.5 -28.5 L223.5 -28.5 M128.0 -377.0 L128.0 -377.0 Q98.5 -377.0 85.0 -365.5 71.5 -355.5 71.5 -324.5 71.5 -294.0 85.0 -281.5 99.5 -269.5 128.0 -269.5 L384.0 -269.5 Q415.0 -269.5 429.0 -286.5 439.5 -299.0 439.5 -324.5 439.5 -355.5 427.0 -365.5 413.5 -377.0 384.0 -377.0 L128.0 -377.0 M128.0 -513.0 L128.0 -513.0 Q98.5 -513.0 85.0 -501.5 71.5 -491.5 71.5 -461.0 71.5 -430.0 85.0 -418.0 99.5 -405.5 128.0 -405.5 L387.0 -405.5 Q419.0 -405.5 433.0 -423.0 443.5 -435.0 443.5 -461.0 443.5 -491.5 431.0 -501.5 418.0 -513.0 387.0 -513.0 L128.0 -513.0 M131.0 -805.0 L131.0 -805.0 Q105.5 -805.0 94.0 -794.5 80.0 -782.5 80.0 -749.5 80.0 -718.0 94.0 -706.5 107.5 -693.0 131.0 -693.0 L376.0 -693.0 Q406.5 -693.0 420.0 -710.5 428.0 -721.0 428.0 -749.5 428.0 -784.5 413.5 -793.5 401.5 -805.0 376.0 -805.0 L131.0 -805.0 M563.0 -837.5 L563.0 -837.5 Q547.0 -837.5 529.5 -829.5 504.0 -817.0 493.5 -797.5 487.5 -781.5 487.5 -769.0 487.5 -765.0 490.5 -762.0 544.0 -710.5 571.5 -677.0 572.5 -672.5 574.5 -668.5 L499.5 -668.5 Q467.0 -668.5 453.5 -656.5 449.5 -653.5 445.5 -648.0 432.0 -661.5 399.5 -661.5 L103.5 -661.5 Q72.5 -661.5 58.5 -648.0 43.0 -636.0 43.0 -601.0 43.0 -567.5 58.5 -555.0 74.0 -540.5 103.5 -540.5 L399.5 -540.5 Q432.0 -540.5 447.5 -559.0 450.5 -556.0 453.5 -553.0 471.0 -536.5 499.5 -536.5 L627.5 -536.5 627.5 -456.5 516.0 -456.5 Q485.5 -456.5 473.0 -444.5 455.5 -431.0 455.5 -393.0 455.5 -357.5 473.0 -344.0 488.5 -328.5 516.0 -328.5 L627.5 -328.5 627.5 -236.5 491.5 -236.5 Q459.0 -236.5 445.5 -224.0 437.5 -218.0 432.0 -205.0 411.5 -240.5 355.5 -240.5 L147.5 -240.5 Q59.5 -240.5 59.5 -152.5 L59.5 -9.0 Q59.5 79.0 147.5 79.0 L355.5 79.0 Q443.5 79.0 443.5 -9.0 L443.5 -123.0 Q444.5 -122.0 445.5 -121.0 463.0 -105.5 491.5 -105.5 L627.5 -105.5 627.5 26.5 Q627.5 64.5 646.0 81.0 664.5 99.5 699.5 99.5 736.5 99.5 753.5 81.0 772.0 65.5 772.0 26.5 L772.0 -105.5 915.5 -105.5 Q953.5 -105.5 970.0 -126.0 980.0 -139.0 980.0 -173.0 980.0 -213.0 962.5 -223.0 948.5 -236.5 915.5 -236.5 L772.0 -236.5 772.0 -328.5 900.0 -328.5 Q935.0 -328.5 950.5 -349.0 959.5 -361.5 959.5 -393.0 959.5 -432.0 944.0 -443.5 930.0 -456.5 900.0 -456.5 L772.0 -456.5 772.0 -536.5 915.5 -536.5 Q953.5 -536.5 970.0 -558.0 980.0 -571.5 980.0 -605.0 980.0 -644.0 962.5 -655.5 948.5 -668.5 915.5 -668.5 L881.5 -668.5 Q902.0 -721.0 913.5 -770.0 915.5 -778.0 915.5 -785.5 915.5 -818.0 892.0 -831.5 867.5 -845.0 839.5 -845.0 801.0 -843.5 791.5 -796.5 779.5 -730.0 752.5 -668.5 L671.0 -668.5 Q684.0 -681.0 684.0 -705.5 684.0 -723.0 667.5 -752.5 642.0 -797.5 623.5 -813.0 605.0 -837.5 563.0 -837.5" fill-rule="evenodd" stroke="none"/>
    </g>
    <g id="font_____________1">
      <path d="M915.5 -311.5 L915.5 -311.5 Q915.5 -343.0 894.0 -365.5 872.5 -388.0 840.5 -388.0 801.0 -388.0 777.0 -353.0 674.0 -188.5 635.0 -152.5 571.5 -95.0 452.5 -95.0 392.0 -95.0 366.5 -126.0 340.0 -156.5 340.0 -227.5 340.0 -339.0 356.5 -708.5 357.5 -745.5 335.0 -767.0 314.5 -784.5 283.5 -786.5 254.0 -787.5 232.5 -770.0 209.0 -749.5 208.0 -714.5 192.5 -340.0 192.5 -227.5 192.5 -108.5 249.0 -38.0 316.5 45.0 452.5 45.0 574.5 45.0 657.5 5.0 729.0 -29.5 790.5 -105.5 824.5 -147.5 904.0 -274.5 915.5 -294.0 915.5 -311.5" fill-rule="evenodd" stroke="none"/>
    </g>
    <g id="font_____________2">
      <path d="M812.0 -42.0 L812.0 -42.0 Q812.0 -82.0 785.5 -100.5 557.0 -259.0 436.5 -342.0 388.0 -375.0 388.0 -386.0 388.0 -396.5 434.0 -428.0 648.0 -572.5 787.5 -675.0 808.0 -690.0 808.0 -713.5 808.0 -745.5 787.5 -771.0 766.0 -796.5 732.0 -796.5 705.5 -796.5 632.0 -743.5 408.5 -581.5 296.0 -500.5 199.5 -431.0 199.5 -385.0 199.5 -342.0 250.0 -303.0 313.5 -255.0 468.0 -141.5 600.0 -47.0 642.0 -11.0 692.5 31.0 728.0 31.0 765.0 31.0 788.5 8.0 812.0 -14.5 812.0 -42.0" fill-rule="evenodd" stroke="none"/>
    </g>
    <g id="font_____________3">
      <path d="M281.5 -698.5 L281.5 -698.5 Q285.5 -737.0 263.0 -760.0 239.5 -782.5 207.0 -782.5 141.5 -782.5 134.0 -715.5 93.0 -353.0 93.0 -248.0 93.0 -149.5 99.5 -30.5 100.5 2.0 123.0 21.5 142.5 39.0 172.0 39.0 204.0 39.0 226.5 17.5 249.0 -3.0 248.0 -40.0 241.5 -152.5 241.5 -248.0 241.5 -342.0 258.0 -499.5 269.5 -600.0 281.5 -698.5 M647.0 -163.0 L647.0 -163.0 Q646.0 -133.0 619.5 -110.5 593.0 -87.0 561.0 -87.0 531.5 -87.0 505.0 -101.5 473.0 -117.5 473.0 -141.5 473.0 -205.0 556.0 -205.0 605.0 -205.0 647.0 -163.0 M966.5 -121.0 L966.5 -121.0 Q966.5 -163.0 910.5 -201.5 876.5 -224.0 802.0 -256.0 796.5 -342.0 794.5 -483.5 856.0 -490.5 875.5 -492.5 922.5 -495.5 942.0 -515.0 961.5 -533.5 961.5 -579.5 961.5 -641.0 882.5 -635.0 827.5 -628.5 796.5 -622.5 799.0 -687.0 799.0 -704.5 799.0 -745.5 782.5 -763.0 765.0 -780.5 723.0 -780.5 645.0 -780.5 643.0 -688.0 643.0 -678.0 643.0 -656.5 643.0 -631.0 643.0 -609.0 507.0 -605.0 427.0 -611.5 389.0 -616.5 368.5 -595.0 348.0 -574.5 349.0 -542.5 350.0 -514.0 369.5 -493.5 388.0 -472.0 422.0 -472.0 431.0 -471.0 644.0 -471.0 646.0 -349.0 648.0 -297.0 609.5 -313.5 560.0 -313.5 471.0 -313.5 407.5 -270.5 334.0 -223.0 334.0 -137.0 334.0 -62.5 401.5 -15.5 466.0 28.5 564.5 28.5 723.0 28.5 793.5 -103.5 849.0 -65.5 864.5 -54.0 883.5 -40.0 897.0 -40.0 921.5 -40.0 944.0 -66.5 966.5 -93.0 966.5 -121.0" fill-rule="evenodd" stroke="none"/>
    </g>
    <g id="font_____________4">
      <path d="M846.0 6.0 L846.0 6.0 Q902.0 -8.0 902.0 -64.5 902.0 -94.0 882.5 -117.5 862.0 -140.5 830.5 -140.5 820.5 -140.5 809.0 -138.0 702.5 -111.5 508.0 -111.5 386.0 -111.5 336.0 -126.0 278.5 -141.5 278.5 -183.5 278.5 -194.5 287.0 -220.0 296.0 -244.5 296.0 -260.0 296.0 -291.0 277.5 -310.0 258.0 -328.5 230.5 -329.5 192.5 -330.5 165.0 -291.0 133.0 -244.5 133.0 -158.5 133.0 -45.0 275.5 3.0 370.5 37.0 508.0 37.0 721.0 37.0 846.0 6.0 M837.5 -653.5 L837.5 -653.5 Q837.5 -685.0 816.0 -705.5 790.5 -729.0 744.5 -725.0 632.0 -717.0 525.5 -717.0 415.0 -717.0 280.5 -728.0 241.5 -731.0 219.0 -709.5 196.5 -688.0 196.5 -658.5 196.5 -590.0 277.5 -581.5 425.0 -569.5 570.5 -569.5 673.0 -569.5 763.0 -578.5 797.5 -580.5 818.0 -605.0 837.5 -624.5 837.5 -653.5" fill-rule="evenodd" stroke="none"/>
    </g>
    <g id="font_____________5">
      <path d="M911.5 -238.5 L911.5 -238.5 Q911.5 -333.0 834.5 -395.0 758.0 -456.5 626.5 -456.5 506.0 -456.5 399.5 -402.5 434.0 -504.0 449.5 -542.5 661.5 -553.0 750.5 -568.5 809.0 -578.5 809.0 -635.0 809.0 -698.5 740.5 -698.5 730.0 -698.5 632.0 -687.0 533.5 -676.0 478.0 -676.0 499.5 -720.0 499.5 -746.5 499.5 -812.0 435.0 -812.0 371.5 -812.0 355.5 -756.5 334.0 -682.0 332.0 -672.5 261.0 -672.5 168.0 -678.0 81.0 -685.0 81.0 -611.5 81.0 -537.5 162.0 -537.5 314.5 -537.5 302.0 -537.5 257.0 -398.5 212.0 -320.5 192.5 -281.5 192.5 -258.0 192.5 -231.5 214.0 -213.0 235.5 -194.5 268.5 -194.5 299.0 -194.5 335.0 -223.0 365.5 -244.5 396.5 -268.5 489.5 -330.5 617.5 -330.5 763.0 -330.5 763.0 -243.5 763.0 -169.0 668.5 -129.0 602.0 -101.5 515.0 -101.5 486.5 -101.5 446.5 -104.5 406.5 -106.5 398.5 -106.5 324.5 -106.5 324.5 -40.0 324.5 39.0 498.5 39.0 688.0 39.0 796.5 -31.5 911.5 -105.5 911.5 -238.5" fill-rule="evenodd" stroke="none"/>
    </g>
    <g id="font_____________6">
      <path d="M913.5 -236.5 L913.5 -236.5 Q913.5 -327.5 844.0 -395.0 765.0 -471.0 640.0 -471.0 450.5 -471.0 301.0 -379.0 310.5 -420.0 318.5 -461.0 332.0 -512.0 332.0 -541.5 332.0 -574.5 308.5 -594.0 285.5 -612.5 254.0 -612.5 193.5 -612.5 183.5 -550.0 171.0 -482.5 157.5 -413.5 142.5 -328.5 142.5 -297.0 142.5 -199.5 218.0 -199.5 246.0 -199.5 307.0 -237.5 390.0 -290.0 441.5 -310.0 535.5 -350.0 640.0 -350.0 701.5 -350.0 734.0 -313.5 765.0 -282.5 765.0 -236.5 765.0 -184.5 706.5 -146.5 637.0 -99.5 515.0 -99.5 431.0 -99.5 395.5 -108.5 357.5 -111.5 334.0 -89.0 311.5 -65.5 311.5 -34.0 311.5 34.0 376.0 39.0 421.0 50.0 515.0 50.0 679.0 50.0 790.5 -22.5 913.5 -101.5 913.5 -236.5 M685.0 -697.5 L685.0 -697.5 Q685.0 -760.0 621.5 -769.0 452.5 -799.5 371.5 -818.0 364.5 -820.0 355.5 -820.0 324.5 -820.0 305.0 -799.5 284.5 -779.0 284.5 -751.5 284.5 -687.0 345.0 -676.0 413.5 -660.5 483.5 -644.0 578.5 -623.5 613.5 -623.5 646.0 -623.5 665.5 -646.0 685.0 -668.5 685.0 -697.5" fill-rule="evenodd" stroke="none"/>
    </g>
    <g id="sprite0" transform="matrix(1.0, 0.0, 0.0, 1.0, 0.5, 0.5)">
      <use data-characterId="3" height="25.25" transform="matrix(1.0, 0.0, 0.0, 1.0, -0.5, -0.5)" width="31.55" xlink:href="#shape0"/>
    </g>
    <g id="shape0" transform="matrix(1.0, 0.0, 0.0, 1.0, 0.5, 0.5)">
      <path d="M9.5 17.15 L9.35 17.25 10.0 18.75 Q10.2 19.5 9.85 20.2 9.55 20.85 8.45 21.05 L7.65 21.1 Q6.8 20.95 6.3 20.45 L5.65 19.4 5.4 18.35 5.35 17.9 5.65 17.85 6.5 17.7 Q5.45 17.2 4.95 16.35 4.55 15.4 4.7 14.25 4.8 13.15 5.45 11.95 6.05 10.8 6.65 10.2 L7.85 9.3 8.4 8.7 Q8.65 7.85 8.15 6.9 L6.75 5.05 5.35 3.7 4.6 2.8 4.55 2.3 4.5 2.5 Q4.4 2.85 4.45 3.3 4.5 3.8 4.9 4.1 L6.15 5.55 Q6.75 6.4 6.95 7.35 7.1 7.95 6.8 8.45 L6.5 8.8 6.2 9.15 5.5 9.8 Q4.75 10.75 4.4 11.75 3.75 13.3 3.85 14.9 L3.95 15.9 4.05 16.85 4.35 17.95 4.35 18.15 4.35 18.25 5.0 20.35 5.6 21.15 6.25 21.6 6.45 21.8 6.8 21.95 7.85 22.2 8.7 22.25 9.15 22.15 9.2 22.15 9.25 22.15 10.4 21.75 Q10.0 20.95 10.1 19.95 L10.4 18.95 10.95 18.05 10.8 17.4 10.8 16.1 10.3 16.65 9.5 17.15 M29.8 5.3 L29.7 5.4 29.35 6.2 28.1 7.6 Q27.3 8.25 25.95 8.7 L24.6 8.95 23.55 8.95 22.65 8.85 21.6 8.65 20.35 8.65 18.1 9.15 16.2 10.25 15.1 11.0 Q14.25 11.7 14.85 11.75 L15.1 11.75 16.05 11.7 17.6 11.75 Q18.75 11.8 20.1 12.35 L19.3 11.75 18.7 11.5 17.9 11.25 17.25 11.3 17.2 11.3 16.95 11.25 16.25 11.25 15.8 11.15 16.65 11.05 17.3 10.95 17.85 10.85 20.9 10.35 23.7 10.0 24.1 9.9 26.9 8.95 27.8 8.4 28.95 7.1 28.95 7.05 29.0 6.95 29.45 6.15 29.85 5.15 29.8 5.3 M19.85 18.75 L20.0 18.6 19.55 18.9 18.15 19.5 15.9 19.65 14.75 19.45 Q13.5 19.1 12.85 18.5 12.25 17.85 12.0 17.05 11.8 16.25 11.9 15.45 12.05 14.25 12.4 13.8 L12.7 13.4 12.05 13.7 11.7 14.45 11.35 15.4 11.3 15.55 11.3 15.6 11.2 17.0 11.45 18.05 Q11.75 18.9 12.35 19.45 L12.75 19.75 Q13.65 20.25 14.75 20.4 L17.1 20.2 19.25 19.3 19.85 18.75 M17.4 14.9 L17.8 14.9 18.6 14.6 Q18.8 14.4 18.55 14.3 L17.9 14.2 17.1 14.15 16.55 14.15 15.65 13.45 14.65 13.0 15.5 13.65 16.0 14.5 16.9 14.65 17.8 14.7 17.4 14.9 M14.05 12.9 L14.3 12.9 13.95 12.65 13.45 12.15 13.05 11.6 12.8 11.3 12.7 11.9 12.65 12.35 12.4 13.15 14.0 12.9 14.05 12.9 M4.2 18.8 L3.35 18.95 Q2.6 18.85 1.9 18.15 1.2 17.45 0.85 16.0 0.5 14.5 0.9 13.55 1.3 12.65 2.0 12.25 2.5 11.95 2.95 11.9 2.25 11.9 1.55 12.35 0.7 12.8 0.25 13.85 -0.15 14.95 0.25 16.6 L0.3 16.9 0.35 17.2 0.8 18.25 0.95 18.55 1.45 19.15 Q2.2 19.95 3.05 20.0 L4.15 19.9 4.45 19.7 4.2 18.8 M15.75 23.9 L16.7 23.6 Q17.75 23.3 18.4 22.6 L17.95 22.8 16.65 23.15 14.85 23.25 13.55 22.95 11.85 21.8 Q11.35 21.1 11.3 20.45 11.3 19.8 11.7 19.35 L11.75 19.3 11.45 19.1 11.25 18.75 11.25 18.7 Q10.7 19.5 10.65 20.1 10.55 20.7 10.85 21.55 L11.05 22.0 Q11.25 22.5 11.95 23.05 12.7 23.55 14.2 23.85 L14.55 23.9 14.6 23.9 15.75 23.9" fill="#c2d6d4" fill-rule="evenodd" stroke="none"/>
      <path d="M4.5 2.5 L4.55 2.3 4.6 2.8 5.35 3.7 6.75 5.05 8.15 6.9 Q8.65 7.85 8.4 8.7 L7.85 9.3 6.65 10.2 Q6.05 10.8 5.45 11.95 4.8 13.15 4.7 14.25 4.55 15.4 4.95 16.35 5.45 17.2 6.5 17.7 L5.65 17.85 5.35 17.9 5.4 18.35 5.65 19.4 6.3 20.45 Q6.8 20.95 7.65 21.1 L8.45 21.05 Q9.55 20.85 9.85 20.2 10.2 19.5 10.0 18.75 L9.35 17.25 9.5 17.15 8.85 17.45 11.05 14.9 12.25 12.65 12.8 11.05 12.7 11.9 12.8 11.3 13.05 11.6 13.45 12.15 13.95 12.65 14.3 12.9 14.05 12.9 Q14.8 13.0 15.3 13.4 L16.0 14.5 15.5 13.65 14.65 13.0 15.65 13.45 16.55 14.15 17.1 14.15 17.9 14.2 18.55 14.3 Q18.8 14.4 18.6 14.6 L17.8 14.9 17.4 14.9 16.35 15.05 15.05 14.7 15.45 14.7 15.7 14.65 Q15.6 13.9 15.15 13.6 14.75 13.25 14.2 13.2 L12.9 13.35 12.7 13.4 12.4 13.8 Q12.05 14.25 11.9 15.45 11.8 16.25 12.0 17.05 12.25 17.85 12.85 18.5 13.5 19.1 14.75 19.45 L15.9 19.65 18.15 19.5 19.55 18.9 20.0 18.6 19.85 18.75 20.75 17.5 Q21.3 16.25 21.25 15.0 L21.15 14.35 20.4 12.7 19.8 12.1 19.3 11.75 20.1 12.35 Q18.75 11.8 17.6 11.75 L16.05 11.7 15.1 11.75 14.85 11.75 Q14.25 11.7 15.1 11.0 L16.2 10.25 18.1 9.15 20.35 8.65 21.6 8.65 22.65 8.85 23.55 8.95 24.6 8.95 25.95 8.7 Q27.3 8.25 28.1 7.6 L29.35 6.2 29.7 5.4 29.8 5.3 30.05 3.9 Q30.0 2.55 29.35 1.75 28.7 0.95 27.65 0.8 L26.1 1.1 25.3 1.55 Q24.7 1.85 23.85 2.3 L20.65 3.75 17.1 5.35 13.9 6.7 11.95 7.45 11.75 7.55 11.9 6.05 11.75 3.9 Q11.55 2.75 11.0 1.85 10.5 0.9 9.4 0.35 L8.8 0.15 8.1 0.0 6.35 0.25 6.15 0.35 Q5.35 0.85 4.9 1.55 L4.5 2.5 M10.4 18.95 L10.1 19.95 Q10.0 20.95 10.4 21.75 10.05 20.95 10.15 19.95 L10.4 18.95 M8.7 22.25 L7.85 22.2 6.8 21.95 7.85 22.2 8.7 22.25 M2.95 11.9 Q2.5 11.95 2.0 12.25 1.3 12.65 0.9 13.55 0.5 14.5 0.85 16.0 1.2 17.45 1.9 18.15 2.6 18.85 3.35 18.95 L4.2 18.8 4.05 17.95 Q3.65 16.5 3.6 14.9 3.65 13.5 4.15 12.15 L3.95 12.05 3.5 11.95 2.95 11.9 M17.3 10.95 L16.65 11.05 15.8 11.15 16.7 11.05 17.3 10.95 M27.8 8.4 L26.9 8.95 24.1 9.9 23.7 10.0 24.1 9.9 26.9 8.95 27.8 8.4 M15.75 23.9 L17.25 23.45 Q18.5 22.8 19.1 21.75 19.7 20.7 19.25 19.6 18.1 20.3 16.95 20.5 L14.8 20.65 Q13.55 20.5 12.6 20.0 L11.7 19.35 Q11.3 19.8 11.3 20.45 11.35 21.1 11.85 21.8 L13.55 22.95 14.85 23.25 16.65 23.15 17.95 22.8 18.4 22.6 Q17.75 23.3 16.7 23.6 L15.75 23.9" fill="#ffffff" fill-rule="evenodd" stroke="none"/>
      <path d="M9.5 17.15 L10.3 16.65 10.8 16.1 10.8 17.4 10.95 18.05 10.4 18.95 10.15 19.95 Q10.05 20.95 10.4 21.75 L9.25 22.15 9.2 22.15 9.15 22.15 8.7 22.25 7.85 22.2 6.8 21.95 6.45 21.8 6.25 21.6 5.6 21.15 5.0 20.35 4.35 18.25 4.35 18.15 4.35 17.95 4.05 16.85 3.95 15.9 3.85 14.9 Q3.75 13.3 4.4 11.75 4.75 10.75 5.5 9.8 4.7 10.75 4.3 11.75 L4.2 11.9 4.05 11.75 3.5 11.6 Q2.55 11.55 1.7 12.0 0.75 12.5 0.3 13.6 -0.2 14.75 0.2 16.55 L0.3 16.9 0.25 16.6 Q-0.15 14.95 0.25 13.85 0.7 12.8 1.55 12.35 2.25 11.9 2.95 11.9 L3.5 11.95 3.95 12.05 4.15 12.15 Q3.65 13.5 3.6 14.9 3.65 16.5 4.05 17.95 L4.2 18.8 4.45 19.7 4.15 19.9 3.05 20.0 Q2.2 19.95 1.45 19.15 L0.95 18.55 1.5 19.25 Q2.35 20.1 3.25 20.2 L4.45 20.0 4.55 19.95 4.9 20.65 6.4 22.15 Q7.35 22.65 8.25 22.75 L9.65 22.7 10.7 22.25 10.85 22.6 11.8 23.4 14.0 24.15 14.35 24.2 Q15.85 24.35 17.05 23.75 18.35 23.2 19.0 22.1 19.65 21.0 19.45 19.55 20.35 18.85 20.9 17.75 21.4 16.65 21.35 15.4 L21.15 14.35 21.25 15.0 Q21.3 16.25 20.75 17.5 L19.85 18.75 19.25 19.3 17.1 20.2 14.75 20.4 Q13.65 20.25 12.75 19.75 L12.35 19.45 Q11.75 18.9 11.45 18.05 L11.2 17.0 11.3 15.6 11.3 15.55 11.35 15.4 11.7 14.45 12.05 13.7 12.7 13.4 12.9 13.35 14.2 13.2 Q14.75 13.25 15.15 13.6 15.6 13.9 15.7 14.65 L15.45 14.7 15.05 14.7 16.35 15.05 17.4 14.9 17.8 14.7 16.9 14.65 16.0 14.5 15.3 13.4 Q14.8 13.0 14.05 12.9 L14.0 12.9 12.4 13.15 12.65 12.35 12.7 11.9 12.8 11.05 12.25 12.65 11.05 14.9 8.85 17.45 9.5 17.15 M6.8 8.45 Q7.1 7.95 6.95 7.35 6.75 6.4 6.15 5.55 L4.9 4.1 Q4.5 3.8 4.45 3.3 4.4 2.85 4.5 2.5 L4.9 1.55 Q5.35 0.85 6.15 0.35 L6.35 0.25 6.0 0.4 Q5.05 0.85 4.6 1.6 4.1 2.35 4.1 3.05 4.1 3.8 4.55 4.2 L5.9 5.6 6.85 7.4 6.8 8.45 M8.8 0.15 L9.4 0.35 Q10.5 0.9 11.0 1.85 11.55 2.75 11.75 3.9 L11.9 6.05 11.75 7.55 11.95 7.45 12.05 5.9 11.85 3.7 11.05 1.6 Q10.45 0.65 9.4 0.3 L8.8 0.15 M25.3 1.55 L26.1 1.1 27.65 0.8 Q28.7 0.95 29.35 1.75 30.0 2.55 30.05 3.9 L29.8 5.3 29.85 5.15 29.45 6.15 29.0 6.95 28.95 7.05 28.95 7.1 27.8 8.4 26.9 8.95 24.1 9.9 23.7 10.0 20.9 10.35 17.85 10.85 17.3 10.95 16.7 11.05 15.8 11.15 16.25 11.25 16.95 11.25 17.2 11.3 17.25 11.3 17.9 11.25 18.7 11.5 19.3 11.75 19.8 12.1 18.5 11.25 22.5 10.55 26.45 9.6 Q28.3 8.85 29.45 7.2 30.5 5.45 30.55 4.0 30.5 2.55 29.7 1.65 28.9 0.7 27.85 0.6 27.0 0.5 26.3 0.95 L25.3 1.55 M11.7 19.35 L12.6 20.0 Q13.55 20.5 14.8 20.65 L16.95 20.5 Q18.1 20.3 19.25 19.6 19.7 20.7 19.1 21.75 18.5 22.8 17.25 23.45 L15.75 23.9 14.6 23.9 14.55 23.9 14.2 23.85 Q12.7 23.55 11.95 23.05 11.25 22.5 11.05 22.0 L10.85 21.55 Q10.55 20.7 10.65 20.1 10.7 19.5 11.25 18.7 L11.25 18.75 11.45 19.1 11.75 19.3 11.7 19.35" fill="#2d4c76" fill-rule="evenodd" stroke="none"/>
      <path d="M5.5 9.8 L6.2 9.15 6.5 8.8 6.8 8.45 6.85 7.4 5.9 5.6 4.55 4.2 Q4.1 3.8 4.1 3.05 4.1 2.35 4.6 1.6 5.05 0.85 6.0 0.4 L6.35 0.25 8.1 0.0 8.8 0.15 9.4 0.3 Q10.45 0.65 11.05 1.6 L11.85 3.7 12.05 5.9 11.95 7.45 13.9 6.7 17.1 5.35 20.65 3.75 23.85 2.3 Q24.7 1.85 25.3 1.55 M19.8 12.1 L20.4 12.7 21.15 14.35 21.35 15.4 Q21.4 16.65 20.9 17.75 20.35 18.85 19.45 19.55 19.65 21.0 19.0 22.1 18.35 23.2 17.05 23.75 15.85 24.35 14.35 24.2 L14.0 24.15 11.8 23.4 10.85 22.6 10.7 22.25 9.65 22.7 8.25 22.75 Q7.35 22.65 6.4 22.15 L4.9 20.65 4.55 19.95 4.45 20.0 3.25 20.2 Q2.35 20.1 1.5 19.25 L0.95 18.55 0.8 18.25 0.35 17.2 0.3 16.9 0.2 16.55 Q-0.2 14.75 0.3 13.6 0.75 12.5 1.7 12.0 2.55 11.55 3.5 11.6 L4.05 11.75 4.2 11.9 4.3 11.75 Q4.7 10.75 5.5 9.8" fill="none" stroke="#2d4c76" stroke-linecap="round" stroke-linejoin="round" stroke-width="1.0"/>
      <path d="M25.3 1.55 L26.3 0.95 Q27.0 0.5 27.85 0.6 28.9 0.7 29.7 1.65 30.5 2.55 30.55 4.0 30.5 5.45 29.45 7.2 28.3 8.85 26.45 9.6 L22.5 10.55 18.5 11.25 19.8 12.1" fill="none" stroke="#2d4c76" stroke-linecap="round" stroke-linejoin="round" stroke-width="1.0"/>
    </g>
  </defs>
</svg>
