<?xml version="1.0" encoding="UTF-8" standalone="no"?>
<svg xmlns:xlink="http://www.w3.org/1999/xlink" height="175.8px" width="115.8px" xmlns="http://www.w3.org/2000/svg">
  <g transform="matrix(1.0, 0.0, 0.0, 1.0, 57.9, 87.9)">
    <use data-characterId="324" height="175.8" transform="matrix(1.0, 0.0, 0.0, 1.0, -57.9, -87.9)" width="115.8" xlink:href="#sprite0"/>
    <use data-characterId="320" height="174.7" transform="matrix(1.0, 0.0, 0.0, 1.0, -57.4, -87.4)" width="114.75" xlink:href="#shape1"/>
  </g>
  <defs>
    <g id="sprite0" transform="matrix(1.0, 0.0, 0.0, 1.0, 0.0, 0.05)">
      <use data-characterId="319" height="175.7" transform="matrix(1.0, 0.0, 0.0, 1.0003, 0.0, -0.0255)" width="115.8" xlink:href="#shape0"/>
    </g>
    <g id="shape0" transform="matrix(1.0, 0.0, 0.0, 1.0, 57.9, 87.85)">
      <path d="M-0.95 -4.85 L0.6 -2.0 1.7 1.0 2.65 0.5 Q3.25 0.15 3.7 -0.05 L4.2 -0.35 Q6.2 -1.45 7.75 -2.15 L5.9 -2.6 Q2.7 -3.5 -0.95 -4.85 M3.45 -21.45 L3.45 -21.4 3.35 -21.25 3.2 -21.1 Q2.2 -18.5 0.0 -16.55 -2.15 -14.55 -5.4 -13.4 L-0.2 -11.7 4.5 -10.25 7.75 -9.35 9.2 -9.5 Q9.65 -9.85 9.8 -10.7 L8.65 -11.45 7.95 -12.15 Q7.5 -12.65 7.5 -13.4 L7.55 -13.9 Q5.95 -14.65 5.2 -16.25 4.8 -17.25 4.8 -18.35 4.8 -19.25 5.1 -20.25 L4.75 -20.35 Q4.4 -20.55 4.3 -20.95 L4.2 -21.85 4.15 -23.25 3.85 -22.25 3.45 -21.45 M-39.35 -40.75 L-38.1 -45.4 Q-37.2 -47.9 -35.7 -50.35 L-35.6 -50.55 -35.3 -50.95 Q-37.2 -51.15 -38.95 -51.8 -39.6 -49.15 -41.45 -47.5 L-41.4 -46.7 -41.4 -46.2 Q-41.2 -41.15 -39.85 -36.65 L-39.35 -40.75 M4.8 -38.75 L5.55 -40.25 6.15 -41.45 4.45 -41.6 4.8 -38.75 M44.15 -73.7 Q46.9 -71.55 49.7 -68.15 52.7 -64.45 54.65 -60.5 56.6 -56.5 57.4 -52.6 58.2 -48.65 57.7 -45.1 57.3 -42.3 56.1 -40.1 54.95 -37.95 53.1 -36.6 L52.7 -36.4 52.0 -35.95 51.6 -35.7 41.7 -31.15 41.45 -31.15 Q37.7 -31.4 33.85 -33.35 L33.0 -33.05 31.45 -32.55 29.85 -32.0 28.85 -31.7 28.9 -30.75 28.9 -29.55 28.9 -28.95 28.95 -28.5 28.75 -27.35 27.9 -26.35 26.6 -25.75 26.7 -24.1 Q26.7 -21.85 26.1 -19.7 25.55 -17.55 24.5 -15.85 23.5 -14.15 22.15 -13.25 22.05 -11.95 21.05 -10.95 20.0 -10.0 18.2 -9.55 17.8 -7.5 16.95 -5.7 16.15 -3.95 14.4 -2.85 L14.25 -2.75 16.25 -2.1 Q17.35 -1.55 18.05 -0.7 18.75 0.2 19.0 1.25 L19.25 3.6 19.05 6.25 18.6 8.75 Q20.6 7.5 23.3 6.85 L29.1 6.6 Q32.25 7.05 35.55 8.95 38.3 10.6 40.0 13.35 41.75 16.05 42.25 19.45 42.85 24.1 41.1 28.8 39.3 33.45 35.3 37.75 31.15 42.1 27.25 44.7 23.3 47.3 19.8 48.6 L13.7 50.35 7.15 50.65 Q4.2 50.4 2.0 49.6 -0.25 48.75 -1.6 47.7 -3.8 46.05 -4.85 43.8 -5.95 41.55 -5.95 38.85 -5.95 36.45 -5.1 33.9 -4.2 31.3 -2.5 28.65 L-2.6 27.85 Q-2.6 26.55 -2.1 25.25 L-0.85 22.75 0.65 20.6 -0.4 20.85 -3.35 21.7 Q-5.25 22.25 -8.2 23.65 L-9.0 26.85 -9.7 30.9 -9.75 31.05 -10.85 32.7 Q-10.5 35.95 -9.5 39.2 -8.55 42.45 -7.3 45.35 L-4.8 50.6 -1.9 55.35 0.75 59.5 3.25 64.05 Q4.45 66.35 5.15 68.7 5.85 71.0 5.9 73.25 5.9 75.65 4.8 77.85 4.1 79.0 3.0 79.9 L0.6 81.3 -1.95 82.1 -5.0 82.3 Q-6.35 82.2 -7.15 81.6 -7.45 81.35 -7.3 81.0 -7.1 80.65 -6.7 80.7 L-4.35 80.75 -1.4 80.1 1.3 78.8 Q2.5 77.95 3.05 76.85 3.65 75.35 3.65 73.65 3.65 71.6 2.9 69.3 2.15 67.05 1.0 64.75 L-1.6 60.2 -4.25 55.95 -5.75 53.65 -7.05 51.55 -9.5 46.5 -11.65 40.75 -13.2 34.85 -15.2 36.05 -15.2 38.25 -15.2 40.55 -15.15 43.1 Q-13.95 44.0 -13.55 45.0 -12.15 45.55 -10.9 46.85 -9.65 48.2 -8.65 50.25 -7.5 52.65 -6.95 55.45 -6.35 58.25 -6.35 61.3 -6.35 64.55 -7.0 67.95 -7.65 71.35 -8.9 74.75 -10.4 78.6 -13.15 81.6 -15.85 84.55 -19.3 86.2 -22.75 87.9 -26.4 87.85 -29.25 87.8 -31.75 86.65 -34.25 85.45 -36.1 83.35 -37.6 81.55 -38.4 79.4 -39.2 77.2 -39.2 74.8 L-39.05 72.8 Q-38.55 69.45 -37.25 66.55 -35.95 63.6 -34.15 60.95 L-30.4 55.75 -29.95 55.15 -28.95 53.8 -27.95 52.45 -27.5 51.8 -26.7 50.5 -26.05 49.15 -25.1 46.3 Q-24.55 45.2 -23.8 44.5 L-23.8 43.95 -23.8 43.2 -23.75 42.85 -23.75 42.2 -23.7 40.6 -23.65 38.7 -23.6 37.0 -23.55 36.05 Q-25.6 35.15 -27.7 33.25 L-29.25 31.2 -30.4 28.7 -30.85 25.9 -30.75 24.5 -30.65 24.3 -27.35 19.45 -26.95 18.85 -26.65 18.4 -26.55 16.1 Q-26.55 13.65 -26.9 10.45 -27.25 7.2 -28.05 3.45 -28.8 -0.65 -30.05 -4.25 -31.3 -7.9 -32.95 -10.85 -34.05 -12.45 -36.3 -14.95 L-40.6 -20.05 Q-42.95 -23.0 -45.25 -26.8 -47.55 -30.6 -49.4 -35.4 -51.2 -40.2 -52.1 -46.1 L-53.15 -46.8 Q-54.55 -48.1 -55.05 -49.3 -55.5 -50.5 -55.45 -51.35 L-55.35 -52.45 -55.8 -53.95 -56.4 -56.05 -57.0 -58.25 -57.45 -60.0 -57.9 -66.9 Q-57.9 -71.6 -56.95 -75.15 -56.0 -78.7 -54.25 -80.95 -52.45 -83.2 -49.8 -84.0 -46.25 -85.0 -42.4 -83.6 -40.25 -85.45 -37.9 -86.55 -35.5 -87.6 -33.1 -87.8 -30.7 -88.0 -28.55 -87.25 -26.3 -86.45 -24.6 -84.55 -22.85 -82.65 -21.75 -80.0 -20.6 -77.4 -20.05 -74.3 -19.45 -71.25 -19.45 -68.0 -19.45 -65.9 -19.75 -63.8 -18.65 -63.8 -17.6 -63.2 L-15.65 -61.75 -14.0 -59.8 -13.75 -59.45 -13.45 -58.95 Q-10.5 -58.35 -8.25 -57.4 L-4.6 -55.6 -4.15 -60.35 Q-3.75 -62.8 -2.95 -65.1 -2.15 -67.35 -0.9 -69.25 0.3 -71.15 1.9 -72.4 5.3 -74.9 9.4 -73.55 11.15 -73.0 12.55 -71.75 13.95 -70.55 15.0 -68.8 L16.4 -71.05 18.0 -73.45 19.15 -75.15 19.35 -75.5 19.55 -75.8 20.15 -76.55 20.75 -77.15 Q22.4 -78.55 24.9 -79.15 L30.5 -79.5 34.15 -78.9 Q36.3 -78.35 38.85 -77.1 41.4 -75.9 44.15 -73.7" fill="#ffffff" fill-rule="evenodd" stroke="none"/>
    </g>
    <g id="shape1" transform="matrix(1.0, 0.0, 0.0, 1.0, 57.4, 87.4)">
      <path d="M-7.0 63.8 Q-7.3 68.8 -9.4 74.55 -10.5 77.45 -12.35 79.8 -14.15 82.15 -16.45 83.85 -18.75 85.55 -21.3 86.45 -23.85 87.35 -26.4 87.3 -29.15 87.25 -31.55 86.15 -33.95 85.05 -35.65 83.05 -37.4 81.1 -38.2 78.5 -39.0 75.9 -38.6 72.85 -38.15 69.75 -36.95 67.05 -35.8 64.35 -34.15 61.85 L-30.7 56.95 -27.15 52.1 -26.25 50.7 -25.6 49.25 -24.6 46.35 -23.35 44.65 Q-21.2 43.15 -19.25 42.9 -17.25 42.65 -15.75 43.3 -15.15 43.65 -14.65 44.2 -14.15 44.7 -13.95 45.35 -12.0 46.0 -10.25 48.5 -8.55 50.95 -7.6 54.85 -6.65 58.8 -7.0 63.8" fill="#72251c" fill-rule="evenodd" stroke="none"/>
      <path d="M-8.9 69.3 Q-9.55 72.3 -10.5 74.4 L-12.6 78.1 Q-13.9 80.1 -15.8 81.9 -17.75 83.7 -20.25 84.9 -22.75 86.1 -25.9 86.3 -29.35 86.3 -31.75 85.0 -34.15 83.7 -35.55 81.65 -36.95 79.6 -37.45 77.3 -38.0 75.0 -37.7 73.05 -37.25 70.25 -36.15 67.65 -35.05 65.05 -33.6 62.7 L-30.6 58.25 -27.8 54.3 Q-26.5 52.5 -25.75 50.9 L-25.7 53.05 Q-25.5 54.35 -24.9 55.6 -24.25 56.85 -23.1 57.75 -21.9 58.6 -20.05 58.65 -18.15 58.65 -16.7 57.4 -15.25 56.2 -14.4 54.25 -13.5 52.3 -13.3 50.15 -13.05 48.05 -13.6 46.3 -11.25 47.85 -9.95 50.5 -8.65 53.15 -8.2 56.4 -7.8 59.65 -8.0 63.0 -8.2 66.35 -8.9 69.3" fill="#cc8605" fill-rule="evenodd" stroke="none"/>
      <path d="M-13.9 77.2 Q-15.95 80.05 -19.0 81.55 -22.0 83.05 -25.9 82.9 -29.8 82.65 -32.1 81.15 -34.4 79.7 -35.35 77.4 -36.35 75.1 -36.3 72.5 -36.2 69.85 -35.3 67.3 -34.55 65.15 -33.25 63.05 -32.0 60.9 -30.5 59.1 -29.05 57.25 -27.7 55.95 L-25.4 54.05 -24.45 56.2 Q-23.8 57.25 -22.7 57.9 -21.6 58.6 -20.0 58.65 -18.25 58.65 -16.9 57.6 -15.55 56.55 -14.65 54.85 -13.35 54.65 -12.55 55.55 -11.75 56.4 -11.3 58.1 -10.85 59.85 -10.6 62.35 -10.15 66.75 -11.0 70.55 -11.85 74.35 -13.9 77.2" fill="#ffbd12" fill-rule="evenodd" stroke="none"/>
      <path d="M-14.2 46.5 Q-13.85 48.2 -14.1 50.1 -14.35 52.05 -15.15 53.8 -15.9 55.55 -17.15 56.65 -18.4 57.75 -20.05 57.75 -21.8 57.7 -22.95 56.75 -24.05 55.8 -24.55 54.3 -25.05 52.85 -25.05 51.15 -25.05 49.45 -24.6 47.9 -24.15 46.35 -23.35 45.25 -22.75 44.45 -21.7 43.95 -20.7 43.45 -19.55 43.3 -18.35 43.15 -17.35 43.3 -16.3 43.4 -15.65 43.85 -14.6 44.8 -14.2 46.5" fill="#cc8605" fill-rule="evenodd" stroke="none"/>
      <path d="M-16.65 66.0 L-21.45 65.15 Q-23.95 64.95 -26.45 65.15 L-31.3 65.85 Q-29.25 64.95 -26.85 64.7 -24.45 64.5 -22.25 64.65 L-18.5 65.2 Q-17.0 65.6 -16.65 66.0" fill="#72251c" fill-rule="evenodd" stroke="none"/>
      <path d="M17.45 -8.7 Q17.1 -7.15 16.4 -5.75 15.75 -4.4 14.45 -3.45 13.2 -2.55 11.15 -2.35 9.1 -2.15 6.05 -3.05 2.1 -4.2 -1.65 -5.6 L-8.45 -8.25 -13.3 -10.4 -15.2 -11.25 -12.8 -15.3 -11.55 -14.9 -8.4 -13.85 -4.1 -12.4 0.55 -10.9 4.7 -9.6 Q6.6 -9.05 7.65 -8.85 L9.45 -9.0 Q10.0 -9.45 10.2 -10.25 L10.35 -11.85 10.15 -13.3 10.0 -13.9 18.05 -11.6 17.45 -8.7" fill="#111111" fill-rule="evenodd" stroke="none"/>
      <path d="M-12.0 -0.35 Q-14.45 1.25 -17.05 2.45 -19.65 3.7 -21.95 4.35 L-25.8 4.8 Q-27.3 4.65 -27.6 3.4 -28.2 -0.1 -29.3 -3.55 -30.35 -7.0 -32.0 -10.1 -33.6 -13.25 -35.8 -15.75 -37.05 -17.2 -36.8 -18.3 -36.6 -19.35 -35.25 -20.1 -33.9 -20.8 -31.9 -21.15 L-27.55 -21.45 -23.05 -21.05 Q-20.85 -20.65 -19.15 -19.85 L-13.55 -16.75 -9.35 -13.35 -5.55 -9.4 Q-4.6 -8.25 -5.3 -6.75 -5.95 -5.25 -7.75 -3.55 -9.55 -1.9 -12.0 -0.35" fill="#111111" fill-rule="evenodd" stroke="none"/>
      <path d="M-9.0 -13.4 L-7.55 -12.05 -6.0 -10.45 -4.75 -8.65 -5.15 -8.3 Q-5.55 -8.0 -5.95 -7.9 -6.3 -7.75 -6.35 -8.25 L-6.85 -9.7 -7.9 -11.7 -9.0 -13.4" fill="#513e47" fill-rule="evenodd" stroke="none"/>
      <path d="M-23.25 42.5 L-23.15 38.4 -22.95 33.75 Q-22.8 32.35 -22.05 31.8 -21.3 31.2 -20.2 31.25 -19.15 31.25 -18.1 31.7 -17.05 32.1 -16.35 32.8 -15.65 33.45 -15.65 34.15 L-15.7 36.75 -15.7 40.65 -15.6 44.8 -15.4 48.4 Q-15.9 50.7 -16.95 51.95 -18.05 53.15 -19.3 53.4 -20.55 53.65 -21.6 52.95 -22.65 52.25 -23.15 50.75 L-23.35 48.95 -23.35 47.05 -23.35 45.4 -23.25 42.5" fill="#111111" fill-rule="evenodd" stroke="none"/>
      <path d="M-11.1 34.75 Q-10.6 37.75 -9.65 40.65 L-7.55 46.15 -5.25 50.85 -2.65 55.2 0.75 60.55 Q2.45 63.4 3.75 66.4 5.05 69.4 5.3 72.25 5.6 75.15 4.3 77.6 3.5 79.0 2.0 79.95 0.5 80.95 -1.25 81.4 L-4.5 81.85 Q-6.05 81.85 -6.85 81.25 L-4.4 81.3 -1.3 80.6 Q0.3 80.1 1.6 79.2 2.9 78.3 3.45 77.05 4.4 74.8 4.0 72.1 3.65 69.45 2.4 66.6 L-0.55 61.0 Q-2.2 58.2 -3.85 55.75 L-6.6 51.3 Q-8.0 48.9 -9.2 46.0 L-11.35 40.1 -12.85 34.35 -13.55 29.4 -11.5 28.95 Q-11.65 31.8 -11.1 34.75" fill="#111111" fill-rule="evenodd" stroke="none"/>
      <path d="M9.7 1.45 L8.55 6.45 Q7.8 9.3 6.5 12.3 5.2 15.25 3.25 17.85 L2.25 18.95 1.25 19.85 -0.6 20.35 Q-1.7 20.6 -3.65 21.2 -5.55 21.85 -8.6 23.25 L-9.55 26.95 -10.2 30.85 Q-11.0 32.35 -12.45 33.65 -13.9 34.95 -15.65 35.75 -17.35 36.5 -19.0 36.6 -21.35 36.5 -23.35 35.6 -25.35 34.7 -27.35 32.9 -28.9 31.3 -29.75 29.05 -30.6 26.85 -30.25 24.55 L-28.15 21.45 -26.15 18.55 Q-26.0 16.8 -26.1 14.4 L-26.55 9.2 Q-26.9 6.4 -27.6 3.35 -26.5 0.7 -24.75 -1.8 -23.0 -4.3 -20.45 -6.2 -17.85 -8.1 -14.15 -9.0 L-5.55 -9.4 -4.05 -8.1 -2.75 -6.7 -1.95 -5.55 0.0 -2.05 Q0.9 -0.3 1.4 1.7 L4.15 0.25 7.05 -1.3 9.2 -2.2 9.9 -2.15 10.05 -1.7 9.7 1.45" fill="#4a100c" fill-rule="evenodd" stroke="none"/>
      <path d="M4.5 0.75 L7.5 -0.7 5.35 3.85 Q4.25 6.35 3.3 9.1 2.35 11.8 1.7 14.4 1.1 17.05 0.95 19.3 L-1.3 19.85 -4.2 20.75 Q-5.75 21.3 -7.35 22.1 L-3.95 18.6 Q-2.25 17.0 0.0 15.25 -2.5 16.6 -4.5 18.4 -6.55 20.25 -8.3 22.25 L-8.15 21.4 -8.1 20.55 -9.4 23.75 -10.4 27.25 -11.0 30.55 Q-11.6 31.75 -12.8 32.85 -14.05 33.95 -15.65 34.7 -17.3 35.4 -19.15 35.55 -21.05 35.65 -22.9 34.95 -25.05 34.1 -26.6 32.45 -28.2 30.85 -29.0 28.8 -29.75 26.8 -29.55 24.7 L-27.85 22.4 -26.3 20.1 -26.3 22.7 Q-25.7 21.1 -25.5 18.75 -25.25 16.4 -25.35 13.65 -25.4 10.95 -25.75 8.2 -26.05 5.5 -26.6 3.25 -26.15 1.95 -24.95 0.1 -23.8 -1.75 -22.0 -3.65 -20.2 -5.6 -17.8 -7.1 -15.4 -8.6 -12.45 -9.2 L-5.95 -8.95 Q-3.65 -6.85 -1.95 -4.1 -0.3 -1.35 0.65 1.7 1.55 4.8 1.55 7.9 L1.9 6.65 1.9 4.55 1.6 2.25 4.5 0.75" fill="#d51b0e" fill-rule="evenodd" stroke="none"/>
      <path d="M-1.95 -1.95 Q-1.1 0.6 -1.4 1.95 -1.65 3.35 -2.6 3.55 -3.55 3.75 -4.7 2.75 -5.85 1.7 -6.8 -0.6 -7.85 -3.3 -7.65 -4.95 -7.45 -6.55 -6.45 -6.9 -5.5 -7.25 -4.25 -6.1 -3.0 -4.9 -1.95 -1.95" fill="#8d2921" fill-rule="evenodd" stroke="none"/>
      <path d="M-2.55 -1.95 Q-1.85 0.35 -2.0 1.55 -2.2 2.8 -2.9 2.95 -3.6 3.05 -4.55 2.1 -5.5 1.1 -6.35 -0.95 -7.35 -3.5 -7.25 -5.05 -7.15 -6.6 -6.35 -6.85 -5.55 -7.1 -4.5 -5.95 -3.45 -4.8 -2.55 -1.95" fill="#f0af00" fill-rule="evenodd" stroke="none"/>
      <path d="M-10.3 1.55 Q-9.7 3.45 -9.8 5.05 -9.95 6.7 -10.55 7.75 -11.1 8.8 -11.85 9.0 L-13.9 8.75 Q-14.95 8.25 -15.85 7.0 -16.8 5.7 -17.45 3.65 -18.0 1.85 -17.95 0.3 -17.85 -1.3 -17.3 -2.3 -16.75 -3.35 -15.85 -3.55 L-13.95 -3.35 Q-12.95 -2.9 -12.0 -1.75 -11.05 -0.55 -10.3 1.55" fill="#8d2921" fill-rule="evenodd" stroke="none"/>
      <path d="M-15.8 -3.5 L-14.25 -3.3 Q-13.35 -2.85 -12.5 -1.65 -11.6 -0.45 -10.95 1.65 -10.35 3.8 -10.5 5.3 -10.65 6.85 -11.1 7.7 -11.6 8.55 -12.05 8.7 L-13.7 8.4 -15.45 6.7 Q-16.25 5.45 -16.9 3.55 -17.5 1.6 -17.45 0.1 -17.45 -1.4 -17.0 -2.35 -16.5 -3.3 -15.8 -3.5" fill="#f0af00" fill-rule="evenodd" stroke="none"/>
      <path d="M18.65 5.1 L17.9 9.35 16.75 13.4 14.1 15.8 9.85 18.85 5.0 21.8 Q2.55 23.1 0.5 23.8 L1.35 21.75 2.9 18.35 4.65 14.65 6.1 11.6 6.7 10.4 Q6.65 10.35 5.7 10.8 4.75 11.25 2.95 12.55 3.05 11.65 3.5 10.2 L4.6 7.0 6.0 3.65 7.4 0.8 Q8.05 -0.4 8.45 -0.8 10.1 -2.0 11.75 -2.25 L14.8 -2.15 Q16.25 -1.75 17.25 -0.85 18.2 0.1 18.5 1.35 18.85 3.0 18.65 5.1" fill="#111111" fill-rule="evenodd" stroke="none"/>
      <path d="M35.3 9.4 Q38.2 11.15 39.95 14.15 41.65 17.15 41.9 21.0 42.1 24.85 40.45 29.05 38.8 33.25 34.95 37.45 30.55 42.05 26.15 44.85 21.75 47.65 17.65 48.9 13.5 50.2 9.85 50.25 L3.35 49.55 Q0.5 48.7 -1.3 47.35 -4.2 45.1 -5.05 42.0 -5.85 38.95 -5.0 35.5 -4.15 32.05 -2.0 28.8 -2.25 27.45 -1.75 25.95 L-0.4 23.0 1.4 20.45 2.85 18.8 Q4.0 17.65 5.45 16.65 6.9 15.65 8.5 15.15 L11.9 15.05 13.3 13.85 15.35 12.05 17.2 10.45 18.05 9.75 Q19.1 8.95 20.85 8.2 22.6 7.4 24.85 7.1 L29.8 7.25 Q32.45 7.75 35.3 9.4" fill="#72251c" fill-rule="evenodd" stroke="none"/>
      <path d="M37.55 22.5 Q36.6 21.2 35.5 20.4 33.25 18.75 30.2 18.6 27.15 18.45 23.95 19.75 20.7 21.05 17.75 23.65 L12.3 28.65 5.2 34.7 3.4 36.35 1.4 38.6 Q0.45 39.9 -0.1 41.35 -0.65 42.8 -0.45 44.4 -0.3 46.0 0.9 47.65 -2.2 46.05 -3.4 43.6 -4.6 41.15 -4.4 38.25 -4.15 35.35 -3.05 32.5 -1.9 29.65 -0.3 27.25 -0.65 27.3 -1.0 27.6 L-1.4 27.95 Q-1.2 26.05 -0.05 23.9 1.05 21.8 2.85 19.9 4.6 18.0 6.75 16.9 8.9 15.8 11.15 16.0 L9.1 18.4 7.1 20.9 5.8 22.8 Q4.85 22.8 3.85 23.35 L2.1 24.7 Q1.3 25.55 1.05 26.6 2.2 25.2 3.35 24.45 4.45 23.65 5.4 23.4 L5.15 23.95 5.1 24.45 7.6 21.4 10.65 17.95 14.65 13.85 Q18.05 10.45 21.7 9.15 25.3 7.95 28.7 8.35 32.05 8.8 34.75 10.55 37.35 12.35 38.9 15.1 40.5 17.85 40.7 21.35 40.85 24.8 39.25 28.75 39.45 27.0 38.95 25.4 38.45 23.8 37.55 22.5" fill="#cc8605" fill-rule="evenodd" stroke="none"/>
      <path d="M38.4 26.7 Q38.75 28.85 38.05 30.8 37.4 32.75 36.15 34.35 L33.7 37.2 31.1 39.7 27.65 42.5 22.7 45.65 Q18.85 45.1 15.65 43.6 12.45 42.1 9.95 40.0 7.5 37.85 5.75 35.3 L11.9 30.0 18.0 24.5 Q21.3 21.6 24.6 20.4 27.95 19.2 30.85 19.55 33.75 19.9 35.75 21.7 37.75 23.55 38.4 26.7" fill="#ba7208" fill-rule="evenodd" stroke="none"/>
      <path d="M15.15 44.25 Q18.25 45.6 21.6 46.1 L15.7 48.35 Q12.65 49.25 9.45 49.35 6.25 49.45 2.85 48.4 L1.7 47.35 0.6 45.5 Q0.15 44.4 0.3 42.95 0.45 41.45 1.55 39.7 2.65 37.9 5.1 35.85 6.95 38.7 9.5 40.8 12.1 42.95 15.15 44.25" fill="#ba7208" fill-rule="evenodd" stroke="none"/>
      <path d="M16.15 -64.6 Q16.85 -61.55 16.75 -58.25 16.6 -54.9 15.65 -51.8 14.75 -48.7 13.15 -46.3 11.5 -43.9 9.3 -42.75 7.1 -41.55 4.35 -42.1 L3.75 -42.75 Q4.35 -40.0 4.35 -37.2 4.4 -34.35 3.9 -31.65 3.4 -28.9 2.5 -26.45 1.95 -25.15 0.1 -24.2 -1.75 -23.25 -4.55 -22.65 L-10.75 -21.8 -17.75 -21.55 -24.65 -21.85 -30.8 -22.65 Q-33.6 -23.2 -35.4 -23.9 -37.25 -24.65 -37.7 -25.5 -38.55 -27.35 -39.05 -30.1 -39.55 -32.85 -39.4 -36.2 -39.3 -39.55 -38.35 -43.1 -37.35 -46.7 -35.3 -50.1 L-34.5 -51.35 Q-37.3 -51.45 -39.65 -52.55 -41.95 -53.65 -43.75 -55.5 -45.55 -57.35 -46.7 -59.65 -47.8 -61.95 -48.25 -64.4 -48.95 -69.15 -48.05 -73.1 -47.1 -77.0 -45.0 -80.0 -42.85 -82.95 -40.1 -84.8 -37.3 -86.6 -34.35 -87.15 L-28.75 -86.8 Q-26.45 -85.95 -24.7 -83.85 -23.0 -81.8 -21.9 -78.9 -20.75 -76.0 -20.3 -72.65 -19.85 -69.25 -20.05 -65.8 -20.3 -62.35 -21.2 -59.15 L-21.45 -58.9 -13.4 -58.4 Q-9.35 -57.45 -5.45 -55.45 L-4.1 -54.65 Q-4.2 -57.45 -3.7 -60.35 -3.2 -63.3 -2.15 -65.95 -1.05 -68.6 0.6 -70.5 2.2 -72.4 4.4 -73.15 6.55 -73.9 9.2 -73.1 12.0 -72.15 13.7 -69.9 15.4 -67.65 16.15 -64.6" fill="#111111" fill-rule="evenodd" stroke="none"/>
      <path d="M-23.85 -76.5 Q-24.5 -78.6 -25.9 -80.55 -27.35 -82.55 -29.35 -83.9 -31.35 -85.3 -33.7 -85.65 -36.1 -86.05 -38.75 -85.0 -41.4 -84.0 -44.1 -81.15 -41.95 -83.7 -39.3 -85.25 -36.7 -86.8 -33.95 -87.25 L-28.75 -86.8 Q-26.65 -86.0 -25.0 -84.2 -23.4 -82.4 -22.25 -79.9 -21.15 -77.35 -20.6 -74.35 -20.85 -73.45 -21.3 -73.35 -21.75 -73.25 -22.2 -73.75 L-23.15 -74.95 -23.85 -76.5" fill="#513e47" fill-rule="evenodd" stroke="none"/>
      <path d="M15.85 -65.8 Q16.65 -63.2 16.75 -60.25 16.9 -57.3 16.35 -54.4 16.1 -53.9 16.0 -54.25 L15.95 -55.6 15.9 -57.6 Q15.7 -61.2 14.75 -64.4 13.8 -67.55 12.15 -69.75 10.45 -72.0 8.05 -72.75 5.65 -73.45 2.5 -72.2 3.9 -73.2 5.6 -73.45 L9.25 -73.1 Q11.75 -72.25 13.35 -70.3 15.0 -68.4 15.85 -65.8" fill="#513e47" fill-rule="evenodd" stroke="none"/>
      <path d="M2.3 -28.35 Q3.0 -27.2 3.25 -25.65 3.5 -24.15 3.1 -22.35 2.25 -19.1 -0.45 -16.7 -3.2 -14.35 -7.65 -13.2 -12.1 -12.05 -18.15 -12.5 -20.3 -11.45 -21.9 -11.4 -23.45 -11.35 -24.55 -11.95 L-26.25 -13.25 -27.1 -14.4 Q-29.9 -15.3 -32.35 -16.85 -34.8 -18.45 -36.5 -20.3 -38.2 -22.2 -38.8 -23.95 -39.3 -25.4 -39.25 -27.1 -39.2 -28.85 -38.6 -30.55 -37.95 -32.25 -36.7 -33.6 -35.4 -35.0 -33.4 -35.8 -31.4 -36.6 -28.55 -36.5 -28.85 -41.55 -28.05 -45.35 -27.2 -49.2 -24.85 -52.25 -22.5 -55.25 -18.1 -57.85 -17.9 -57.35 -16.7 -56.35 L-13.7 -54.15 Q-11.85 -52.95 -9.85 -51.9 -7.8 -50.8 -5.85 -50.05 -3.95 -49.35 -2.5 -49.3 -1.05 -49.25 -0.45 -50.2 0.45 -48.2 0.95 -45.45 1.45 -42.75 1.15 -39.25 0.85 -35.7 -0.65 -31.25 L0.8 -30.25 2.3 -28.35" fill="#8c3000" fill-rule="evenodd" stroke="none"/>
      <path d="M2.7 -26.15 Q3.05 -24.65 2.65 -22.85 1.35 -17.95 -3.85 -15.4 -9.1 -12.8 -18.05 -13.0 L-17.3 -14.15 -17.55 -13.85 -18.45 -13.1 Q-19.4 -12.3 -20.7 -12.1 L-23.4 -12.35 Q-24.75 -12.75 -25.75 -13.95 -26.75 -15.1 -27.05 -17.05 L-27.3 -16.45 -27.35 -15.3 Q-30.15 -16.15 -32.35 -17.6 -34.6 -19.0 -36.05 -20.7 -37.55 -22.4 -38.15 -24.15 -38.75 -25.95 -38.55 -28.05 -38.35 -30.1 -37.25 -32.0 -36.15 -33.9 -34.0 -35.1 -31.85 -36.35 -28.55 -36.5 -28.85 -41.55 -28.05 -45.35 -27.25 -49.2 -24.85 -52.25 -22.5 -55.25 -18.15 -57.85 L-16.7 -56.35 -13.7 -54.15 Q-11.9 -52.95 -9.85 -51.9 -7.8 -50.8 -5.85 -50.05 -3.95 -49.35 -2.5 -49.3 -1.05 -49.25 -0.45 -50.2 L0.8 -46.7 Q1.4 -44.7 1.6 -42.3 1.8 -39.9 1.3 -37.1 0.8 -34.35 -0.7 -31.25 L0.25 -30.5 1.65 -28.75 Q2.35 -27.65 2.7 -26.15" fill="#f5cb99" fill-rule="evenodd" stroke="none"/>
      <path d="M-34.3 -21.5 L-30.85 -18.8 -29.55 -18.1 -28.2 -17.8 Q-27.6 -17.8 -27.4 -18.2 L-27.15 -16.9 -27.3 -16.5 -27.4 -15.3 Q-30.15 -16.2 -32.35 -17.6 -34.6 -19.05 -36.1 -20.7 -37.55 -22.4 -38.15 -24.15 -38.75 -26.05 -38.55 -28.15 -38.35 -30.25 -37.15 -32.15 -38.0 -29.45 -37.85 -27.5 -37.7 -25.6 -36.8 -24.2 -35.85 -22.75 -34.3 -21.5 M-26.2 -14.65 Q-25.6 -13.65 -24.65 -12.95 L-26.2 -14.55 -26.8 -15.95 -26.2 -14.65" fill="#e39559" fill-rule="evenodd" stroke="none"/>
      <path d="M-2.5 -16.8 Q-0.4 -18.0 1.05 -19.4 -1.45 -16.05 -6.2 -14.45 -10.95 -12.85 -18.05 -13.05 L-17.45 -14.0 -15.85 -15.25 -15.2 -15.7 -15.0 -15.5 -15.05 -15.0 Q-10.75 -14.5 -7.65 -15.1 -4.6 -15.65 -2.5 -16.8" fill="#e39559" fill-rule="evenodd" stroke="none"/>
      <path d="M-7.2 -22.15 L-9.4 -21.5 -11.35 -21.0 -12.25 -20.75 -13.4 -20.95 -16.2 -21.55 -19.8 -22.65 Q-21.7 -23.35 -23.25 -24.35 -24.85 -25.3 -25.75 -26.65 L-26.4 -28.25 -26.6 -29.55 -26.6 -30.1 -27.05 -30.45 -28.05 -31.1 -29.1 -31.3 -28.2 -31.6 -26.95 -31.45 -25.8 -31.1 -25.3 -30.95 -25.55 -30.85 -25.95 -30.6 -26.0 -30.1 Q-24.8 -27.4 -22.9 -25.75 -21.05 -24.05 -18.75 -23.15 -16.45 -22.25 -13.95 -21.9 -11.5 -21.6 -9.35 -21.95 -7.2 -22.3 -5.9 -22.95 -4.6 -23.6 -4.6 -24.15 L-4.15 -23.7 -4.2 -23.4 -4.55 -23.2 Q-4.95 -22.95 -5.75 -22.6 L-7.2 -22.15" fill="#e39559" fill-rule="evenodd" stroke="none"/>
      <path d="M-6.5 -21.9 Q-7.85 -21.3 -9.3 -21.0 -12.2 -19.4 -14.1 -17.8 L-17.45 -15.0 Q-18.85 -13.75 -20.2 -13.25 L-23.3 -13.4 Q-24.9 -14.05 -25.65 -15.65 -26.35 -17.2 -26.5 -19.2 L-26.5 -23.05 -26.2 -26.3 Q-26.15 -27.5 -26.5 -28.7 L-27.1 -31.05 -28.6 -31.0 -30.25 -30.55 Q-30.0 -31.15 -29.15 -31.45 L-27.35 -31.75 -25.4 -31.4 Q-24.5 -31.1 -24.0 -30.45 L-25.2 -30.75 -26.65 -31.0 Q-26.0 -28.65 -24.45 -26.85 -22.9 -25.05 -20.8 -23.85 -18.65 -22.65 -16.3 -22.0 L-11.6 -21.4 -7.45 -22.0 Q-5.55 -22.6 -4.4 -23.8 L-5.05 -24.7 -4.25 -24.2 -3.55 -23.1 Q-3.35 -22.5 -3.75 -22.0 L-3.9 -22.8 -4.2 -23.45 Q-5.15 -22.45 -6.5 -21.9" fill="#8c3000" fill-rule="evenodd" stroke="none"/>
      <path d="M-13.05 -19.45 L-15.3 -17.75 -16.95 -16.35 Q-17.35 -16.05 -18.35 -16.35 L-20.65 -17.35 -23.15 -18.95 -25.15 -20.65 Q-25.9 -21.55 -25.9 -22.15 L-25.65 -24.95 Q-25.5 -26.3 -25.7 -27.2 L-25.7 -27.6 -25.4 -27.3 Q-24.5 -25.75 -22.85 -24.55 -21.2 -23.35 -19.15 -22.55 -17.1 -21.8 -14.95 -21.4 L-10.8 -21.0 -13.05 -19.45" fill="#6d0000" fill-rule="evenodd" stroke="none"/>
      <path d="M-18.7 -17.95 Q-17.55 -17.5 -16.95 -16.3 -18.35 -14.65 -20.0 -14.05 -21.7 -13.4 -23.2 -14.0 -24.7 -14.55 -25.5 -16.6 -26.3 -18.6 -25.85 -22.25 -25.35 -22.25 -24.5 -21.6 -23.65 -20.95 -22.8 -19.7 -22.0 -18.45 -21.55 -16.5 L-21.45 -17.3 -21.5 -18.2 -18.7 -17.95" fill="#fb886f" fill-rule="evenodd" stroke="none"/>
      <path d="M-6.85 -26.85 Q-7.15 -26.15 -8.15 -25.75 -9.15 -25.3 -10.5 -25.25 L-13.15 -25.5 Q-14.45 -25.85 -15.4 -26.65 -16.35 -27.5 -16.6 -28.9 -16.75 -30.2 -15.8 -30.4 L-13.45 -30.1 -10.45 -28.85 -7.95 -27.5 -6.85 -26.85" fill="#e39559" fill-rule="evenodd" stroke="none"/>
      <path d="M-12.25 -26.15 Q-14.4 -26.75 -15.65 -27.9 -16.85 -29.1 -17.1 -30.45 -17.35 -31.85 -16.6 -32.95 -15.85 -34.05 -14.15 -34.5 L-9.7 -34.25 Q-7.4 -33.55 -6.2 -32.35 -5.0 -31.15 -4.75 -29.8 -4.55 -28.5 -5.35 -27.45 -6.1 -26.35 -7.85 -25.95 L-12.25 -26.15" fill="#111111" fill-rule="evenodd" stroke="none"/>
      <path d="M-14.5 -33.55 L-10.45 -33.9 Q-8.55 -33.7 -7.2 -32.65 -5.85 -31.55 -5.35 -29.5 -6.0 -30.85 -7.25 -31.9 -8.5 -32.95 -10.3 -33.4 L-14.5 -33.55" fill="#513e47" fill-rule="evenodd" stroke="none"/>
      <path d="M-7.0 -30.25 Q-7.45 -29.7 -8.3 -29.8 -9.15 -29.95 -10.0 -30.5 L-11.25 -31.8 Q-11.7 -32.55 -11.35 -33.2 -10.85 -33.85 -9.95 -33.8 -9.1 -33.75 -8.25 -33.15 L-6.95 -31.8 Q-6.55 -31.0 -7.0 -30.25" fill="#513e47" fill-rule="evenodd" stroke="none"/>
      <path d="M-7.35 -30.85 Q-7.7 -30.4 -8.4 -30.45 -9.1 -30.5 -9.75 -30.9 -10.45 -31.3 -10.8 -31.85 -11.15 -32.4 -10.85 -32.95 -10.45 -33.5 -9.7 -33.5 L-8.3 -33.1 -7.25 -32.05 Q-6.95 -31.45 -7.35 -30.85" fill="#d3c8ce" fill-rule="evenodd" stroke="none"/>
      <path d="M-6.85 -26.85 Q-7.45 -26.4 -8.6 -26.3 L-11.25 -26.4 Q-12.7 -26.65 -14.1 -27.35 -15.45 -28.0 -16.45 -29.2 -15.25 -28.25 -13.85 -27.7 -12.45 -27.2 -11.15 -27.05 L-8.8 -26.9 -7.5 -27.15 -6.65 -27.3 Q-6.45 -27.15 -6.85 -26.85" fill="#2d2027" fill-rule="evenodd" stroke="none"/>
      <path d="M-2.5 -49.3 Q-1.05 -49.3 -0.45 -50.2 L-0.45 -50.1 -1.75 -48.35 -3.75 -45.75 -5.9 -43.05 Q-6.95 -41.8 -7.75 -41.05 -8.95 -39.95 -10.05 -39.65 L-11.95 -39.85 Q-12.7 -40.35 -13.0 -41.4 L-13.65 -43.5 -14.8 -46.95 -16.25 -50.85 -17.8 -54.55 -19.3 -57.15 -18.15 -57.85 -16.7 -56.35 -13.7 -54.15 Q-11.9 -52.95 -9.85 -51.9 -7.8 -50.8 -5.85 -50.05 -3.95 -49.35 -2.5 -49.3" fill="#e39559" fill-rule="evenodd" stroke="none"/>
      <path d="M-12.95 -44.05 Q-13.05 -41.9 -13.65 -39.6 L-14.95 -35.5 -15.5 -35.55 -16.8 -35.7 -18.5 -35.65 Q-19.0 -37.4 -19.15 -39.35 L-19.1 -43.2 Q-18.9 -45.05 -18.35 -46.55 -17.85 -48.0 -17.0 -48.8 -16.2 -49.6 -15.1 -49.45 -13.8 -49.2 -13.3 -47.7 -12.8 -46.2 -12.95 -44.05" fill="#42495d" fill-rule="evenodd" stroke="none"/>
      <path d="M-13.45 -43.8 Q-13.55 -41.75 -14.05 -39.6 -14.6 -37.4 -15.4 -35.6 L-15.85 -35.65 -16.9 -35.7 -18.25 -35.65 -18.65 -39.25 -18.55 -43.0 -17.85 -46.3 Q-17.4 -47.75 -16.75 -48.5 -16.1 -49.25 -15.2 -49.05 -14.15 -48.75 -13.75 -47.3 -13.3 -45.85 -13.45 -43.8" fill="#ffffff" fill-rule="evenodd" stroke="none"/>
      <path d="M-15.25 -49.05 Q-14.45 -48.85 -14.05 -48.0 -13.6 -47.15 -13.5 -45.85 L-13.5 -43.05 -14.4 -45.8 -15.6 -49.1 -15.25 -49.05" fill="#b8d2ca" fill-rule="evenodd" stroke="none"/>
      <path d="M-18.75 -38.45 L-18.8 -40.85 Q-17.85 -41.9 -17.15 -41.4 -16.4 -40.9 -16.25 -39.35 -16.1 -37.8 -16.95 -35.75 L-17.3 -35.6 -18.0 -35.6 -18.4 -35.6 -18.55 -36.45 -18.75 -38.45" fill="#111111" fill-rule="evenodd" stroke="none"/>
      <path d="M-4.7 -40.05 Q-5.2 -38.2 -6.0 -36.6 -6.8 -34.95 -7.8 -33.85 L-8.25 -34.05 -9.4 -34.5 -10.95 -34.9 -10.75 -38.55 Q-10.55 -40.45 -10.0 -42.15 L-8.75 -45.1 Q-8.0 -46.3 -7.05 -46.8 L-4.95 -46.6 Q-4.25 -45.3 -4.25 -43.6 -4.25 -41.85 -4.7 -40.05" fill="#42495d" fill-rule="evenodd" stroke="none"/>
      <path d="M-8.2 -34.05 L-9.0 -34.35 -10.8 -34.8 -10.55 -38.05 -9.6 -41.5 -8.2 -44.5 -6.55 -46.4 Q-5.75 -47.0 -5.0 -46.6 -4.55 -44.7 -4.75 -42.55 -4.95 -40.35 -5.85 -38.2 -6.7 -36.0 -8.2 -34.05" fill="#ffffff" fill-rule="evenodd" stroke="none"/>
      <path d="M-4.7 -44.55 L-6.35 -42.55 -7.8 -41.05 Q-9.05 -39.9 -10.2 -39.65 L-8.75 -43.5 Q-7.85 -45.25 -6.85 -46.2 -5.85 -47.05 -5.0 -46.6 L-4.7 -44.55" fill="#b8d2ca" fill-rule="evenodd" stroke="none"/>
      <path d="M-10.35 -39.0 L-9.1 -39.15 Q-8.65 -38.85 -8.55 -38.05 -8.45 -37.2 -8.75 -36.25 -9.05 -35.3 -9.7 -34.55 L-10.0 -34.5 -10.55 -34.7 -10.85 -34.8 -10.85 -35.45 -10.8 -37.0 -10.35 -39.0" fill="#111111" fill-rule="evenodd" stroke="none"/>
      <path d="M-6.4 -33.1 Q-9.8 -34.5 -13.0 -35.0 L-19.25 -35.45 -16.05 -35.7 -12.4 -35.3 -8.95 -34.35 Q-7.35 -33.75 -6.4 -33.1" fill="#8c3000" fill-rule="evenodd" stroke="none"/>
      <path d="M-0.5 -50.2 Q-1.65 -48.3 -3.15 -46.6 L-6.0 -43.55 -8.35 -41.65 Q-9.75 -40.8 -10.55 -40.95 -11.35 -41.15 -11.7 -41.85 L-12.25 -43.3 Q-13.05 -46.55 -14.15 -49.45 L-16.3 -54.55 Q-17.35 -56.7 -18.15 -57.9 -18.65 -58.65 -19.3 -58.5 -20.0 -58.35 -20.65 -57.8 L-21.85 -56.85 -21.9 -59.85 Q-21.7 -61.25 -21.1 -62.15 -20.45 -63.05 -19.35 -63.1 -18.45 -63.1 -17.45 -62.5 L-15.5 -60.85 -13.9 -58.75 -12.9 -56.6 Q-12.6 -55.55 -11.3 -54.6 -10.0 -53.6 -8.25 -52.95 -6.5 -52.3 -4.8 -52.3 -3.15 -52.35 -2.1 -53.3 -1.45 -53.9 -0.9 -53.8 L0.0 -53.15 Q0.3 -52.6 0.2 -51.8 0.15 -51.0 -0.5 -50.2" fill="#111111" fill-rule="evenodd" stroke="none"/>
      <path d="M-11.25 -52.35 L-13.4 -56.1 Q-14.6 -58.05 -16.0 -59.6 -17.35 -61.15 -18.8 -61.75 L-21.8 -61.7 Q-22.4 -61.45 -22.2 -61.85 L-21.2 -62.85 Q-19.95 -63.6 -18.6 -63.1 -17.2 -62.6 -15.95 -61.35 -14.65 -60.05 -13.75 -58.5 L-9.2 -57.25 Q-7.2 -56.45 -5.75 -55.7 L-3.6 -54.4 -6.65 -55.65 -9.6 -56.55 -12.0 -57.05 -13.4 -57.1 -12.45 -55.15 -11.7 -53.35 -11.25 -52.35" fill="#513e47" fill-rule="evenodd" stroke="none"/>
      <path d="M-2.75 -52.15 L-3.75 -51.1 -4.1 -50.65 -3.85 -51.1 -3.25 -52.2 -2.6 -53.65 Q-1.05 -54.75 -0.05 -54.7 0.9 -54.65 0.95 -53.55 1.0 -52.45 -0.15 -50.5 0.05 -52.5 -0.45 -53.15 L-1.7 -53.2 -2.75 -52.15" fill="#513e47" fill-rule="evenodd" stroke="none"/>
      <path d="M-51.75 -47.05 L-51.0 -47.95 -49.2 -49.95 -46.8 -52.0 Q-45.55 -52.9 -44.45 -53.1 -43.35 -53.3 -42.65 -52.3 -41.95 -51.25 -41.95 -48.45 -41.9 -42.15 -40.55 -37.25 -39.2 -32.35 -37.0 -28.55 -34.8 -24.75 -32.25 -21.7 L-27.4 -16.0 Q-27.3 -14.75 -26.75 -13.9 L-25.4 -12.5 Q-24.65 -11.95 -24.0 -11.7 L-24.9 -10.95 Q-25.85 -10.4 -27.3 -9.9 L-30.2 -9.6 Q-31.6 -9.8 -32.55 -11.15 -33.55 -12.65 -35.5 -14.85 L-39.9 -20.0 Q-42.35 -23.0 -44.75 -26.95 -47.15 -30.9 -49.0 -35.9 -50.9 -40.9 -51.75 -47.05" fill="#111111" fill-rule="evenodd" stroke="none"/>
      <path d="M-36.65 -79.9 L-33.8 -77.4 Q-32.7 -76.25 -32.25 -75.2 -31.75 -74.15 -31.7 -73.3 -30.05 -72.15 -29.45 -70.8 -28.85 -69.5 -28.95 -68.1 -29.05 -66.7 -29.4 -65.4 L-30.0 -63.0 -30.5 -60.3 Q-30.8 -58.95 -31.25 -57.8 -31.75 -56.65 -32.6 -55.95 -33.8 -55.05 -35.15 -55.35 -36.5 -55.65 -37.65 -57.45 L-37.7 -56.8 -38.25 -55.3 -38.8 -54.05 -39.1 -53.55 Q-39.4 -50.85 -40.6 -49.15 -41.8 -47.45 -43.5 -46.65 -45.2 -45.8 -47.0 -45.7 L-50.35 -45.95 Q-51.9 -46.4 -52.8 -47.2 -54.25 -48.55 -54.65 -49.75 -55.05 -50.95 -54.95 -51.7 L-54.8 -52.5 -55.25 -53.9 -55.9 -56.05 -56.5 -58.3 -56.95 -60.1 Q-57.6 -65.8 -57.3 -69.95 -56.95 -74.15 -55.85 -76.95 -54.8 -79.8 -53.15 -81.4 -51.55 -83.0 -49.65 -83.5 L-44.9 -83.8 Q-42.6 -83.4 -40.55 -82.3 -38.5 -81.25 -36.65 -79.9" fill="#1d3f60" fill-rule="evenodd" stroke="none"/>
      <path d="M-34.8 -62.35 Q-35.55 -60.65 -37.4 -59.2 -37.25 -60.7 -37.85 -62.05 -38.45 -63.4 -39.55 -64.2 L-42.1 -65.8 -44.75 -67.25 -47.6 -69.0 Q-46.8 -68.1 -45.4 -67.15 L-42.55 -65.35 Q-41.05 -64.45 -40.05 -63.75 -38.85 -62.7 -38.55 -61.25 -38.3 -59.75 -38.5 -58.1 -38.75 -56.5 -39.15 -55.1 -39.5 -54.05 -40.35 -53.55 -41.25 -53.05 -42.3 -53.05 -43.4 -53.1 -44.4 -53.7 -45.35 -54.3 -45.95 -55.5 L-44.55 -55.6 Q-43.8 -55.75 -43.2 -56.15 L-44.75 -56.05 -46.8 -56.1 Q-48.05 -56.25 -50.05 -57.15 L-49.2 -56.35 -47.8 -55.8 -46.4 -55.55 Q-46.1 -54.4 -45.2 -53.55 -44.35 -52.75 -43.2 -52.5 -43.85 -51.35 -44.9 -50.8 -45.95 -50.25 -47.2 -50.15 L-49.7 -50.25 Q-51.45 -50.5 -52.65 -51.2 -53.85 -51.9 -54.35 -53.4 -55.75 -57.9 -56.25 -61.9 -56.8 -65.9 -56.5 -69.35 L-56.0 -73.05 Q-55.65 -75.0 -54.9 -76.9 -54.2 -78.75 -52.9 -80.25 -51.6 -81.75 -49.55 -82.5 -46.6 -83.5 -42.95 -82.35 -39.3 -81.15 -35.4 -77.65 -33.5 -75.85 -32.9 -74.25 -32.3 -72.7 -32.45 -71.4 -32.6 -70.15 -33.05 -69.3 L-33.65 -68.25 Q-34.25 -70.1 -35.45 -71.3 -36.6 -72.45 -38.1 -73.4 L-41.15 -75.25 -44.15 -77.55 Q-43.25 -76.05 -41.9 -75.0 -40.6 -73.95 -39.15 -73.05 L-36.4 -71.05 Q-35.5 -70.15 -34.9 -68.8 -34.25 -67.4 -34.15 -65.7 -34.05 -64.05 -34.8 -62.35" fill="#ffffff" fill-rule="evenodd" stroke="none"/>
      <path d="M-29.8 -67.9 L-30.4 -64.85 -31.05 -61.75 -31.5 -59.65 -31.8 -58.55 -32.35 -57.35 -33.0 -56.45 Q-33.65 -55.95 -34.5 -55.95 -35.3 -56.0 -36.05 -56.5 -36.8 -57.0 -37.4 -57.95 L-35.05 -60.05 Q-33.95 -61.25 -33.4 -63.05 -32.9 -64.8 -33.45 -67.4 -32.6 -68.45 -32.15 -69.8 -31.7 -71.1 -31.7 -72.5 L-30.55 -71.05 -29.9 -69.4 Q-29.7 -68.6 -29.8 -67.9" fill="#ffffff" fill-rule="evenodd" stroke="none"/>
      <path d="M-39.75 -53.1 Q-39.8 -51.45 -40.55 -50.2 -41.35 -49.0 -42.55 -48.15 -43.8 -47.3 -45.15 -46.9 L-47.75 -46.45 Q-50.75 -46.5 -52.55 -47.9 -54.3 -49.3 -54.4 -51.7 -53.2 -50.4 -51.45 -49.85 L-47.9 -49.4 Q-46.1 -49.5 -44.7 -50.25 -43.25 -51.05 -42.7 -52.4 -41.1 -52.25 -39.75 -53.1" fill="#ffffff" fill-rule="evenodd" stroke="none"/>
      <path d="M4.05 -24.75 L3.85 -24.15 3.5 -22.9 3.0 -21.7 Q2.35 -20.85 1.1 -20.45 -0.15 -20.1 -1.6 -20.45 -3.3 -20.95 -4.05 -22.25 -4.85 -23.5 -4.9 -25.05 -4.95 -26.3 -4.45 -27.15 L-3.25 -28.4 -2.0 -28.9 -0.65 -28.9 0.85 -28.8 1.55 -28.75 2.0 -28.35 3.0 -27.45 3.85 -26.15 Q4.2 -25.45 4.05 -24.75" fill="#644d0d" fill-rule="evenodd" stroke="none"/>
      <path d="M3.4 -24.4 L3.3 -23.95 3.0 -22.95 2.6 -21.95 Q2.1 -21.25 1.05 -20.9 L-1.15 -20.8 Q-2.65 -21.15 -3.45 -22.35 -4.25 -23.5 -4.25 -25.25 -4.2 -26.2 -3.8 -26.9 L-2.85 -27.95 -1.9 -28.35 -0.8 -28.35 0.4 -28.35 1.0 -28.35 1.45 -27.95 2.35 -26.95 3.2 -25.7 Q3.55 -25.0 3.4 -24.4" fill="#e0d76e" fill-rule="evenodd" stroke="none"/>
      <path d="M3.4 -24.4 L3.25 -23.95 2.95 -22.95 2.55 -21.95 Q2.05 -21.3 1.15 -21.0 L-1.0 -20.95 Q-2.45 -21.3 -3.3 -22.4 -4.1 -23.45 -4.1 -25.15 L-3.7 -26.85 -2.85 -27.9 Q-2.35 -28.3 -1.9 -28.35 L-0.8 -28.35 0.4 -28.35 0.95 -28.35 1.4 -27.95 2.35 -26.95 3.2 -25.7 Q3.5 -25.0 3.4 -24.4" fill="#b3a11b" fill-rule="evenodd" stroke="none"/>
      <path d="M-2.45 -28.15 L0.4 -28.15 0.9 -26.4 0.35 -26.3 -1.0 -25.95 -2.6 -25.55 -4.1 -25.2 Q-4.0 -26.35 -3.55 -27.1 L-2.45 -28.15" fill="#e0d76e" fill-rule="evenodd" stroke="none"/>
      <path d="M2.8 -24.15 L2.6 -22.95 2.3 -21.6 Q1.75 -21.1 0.9 -20.9 L-1.0 -20.95 -1.6 -21.15 1.55 -25.45 1.6 -25.5 2.9 -24.65 2.8 -24.15" fill="#856d0e" fill-rule="evenodd" stroke="none"/>
      <path d="M6.4 -40.85 L9.7 -47.4 12.95 -53.85 15.8 -59.45 17.8 -63.4 18.55 -64.9 39.15 -35.65 37.45 -35.1 33.1 -33.65 26.95 -31.6 19.95 -29.3 13.1 -27.15 7.3 -25.4 3.45 -24.4 Q2.55 -24.25 1.75 -25.0 1.0 -25.75 0.6 -26.9 0.2 -28.0 0.45 -28.9 L1.4 -30.8 3.5 -35.1 6.4 -40.85" fill="#602843" fill-rule="evenodd" stroke="none"/>
      <path d="M7.0 -40.55 L10.3 -46.95 13.6 -53.3 16.5 -58.8 18.5 -62.7 19.25 -64.15 38.6 -36.45 37.0 -35.85 32.8 -34.35 26.85 -32.2 20.15 -29.85 13.5 -27.6 Q10.3 -26.5 7.85 -25.75 5.35 -25.0 4.05 -24.75 3.15 -24.6 2.35 -25.25 1.55 -25.9 1.15 -26.9 0.75 -27.9 1.0 -28.8 L1.95 -30.7 4.05 -34.9 7.0 -40.55" fill="#854572" fill-rule="evenodd" stroke="none"/>
      <path d="M19.25 -64.15 L22.9 -57.55 1.25 -26.7 Q1.0 -27.2 0.9 -27.75 L1.0 -28.8 1.95 -30.7 4.05 -34.9 7.0 -40.55 10.35 -46.95 13.6 -53.3 16.5 -58.8 18.5 -62.7 19.25 -64.15" fill="#b67b99" fill-rule="evenodd" stroke="none"/>
      <path d="M35.1 -36.5 L2.7 -25.0 1.8 -25.7 26.45 -43.15 35.1 -36.5" fill="#6a3655" fill-rule="evenodd" stroke="none"/>
      <path d="M56.4 -42.05 Q55.25 -38.8 52.75 -37.05 L51.9 -36.5 51.35 -36.15 41.45 -31.65 Q38.25 -31.9 35.2 -33.25 32.15 -34.6 29.4 -36.65 26.65 -38.7 24.25 -41.15 21.9 -43.55 20.0 -46.05 18.5 -48.0 17.4 -50.5 16.3 -52.95 15.6 -55.5 14.9 -58.1 14.6 -60.5 14.25 -62.85 14.3 -64.7 14.35 -66.55 14.7 -67.5 L15.4 -68.6 16.7 -70.65 18.2 -72.95 19.55 -74.95 19.95 -75.55 20.5 -76.2 21.1 -76.8 Q22.8 -78.25 25.85 -78.85 28.95 -79.45 32.85 -78.7 36.75 -77.9 41.0 -75.35 45.25 -72.75 49.3 -67.85 53.1 -63.1 55.05 -58.4 57.0 -53.65 57.3 -49.45 57.6 -45.25 56.4 -42.05" fill="#644d0d" fill-rule="evenodd" stroke="none"/>
      <path d="M18.2 -50.7 Q17.15 -53.05 16.5 -55.5 15.85 -57.95 15.55 -60.25 15.2 -62.5 15.25 -64.3 15.3 -66.05 15.65 -66.95 L16.35 -68.15 17.7 -70.2 19.25 -72.55 20.5 -74.45 21.0 -75.2 50.7 -37.0 41.2 -32.7 Q38.15 -32.95 35.25 -34.2 32.35 -35.5 29.7 -37.45 27.05 -39.4 24.8 -41.75 22.5 -44.1 20.7 -46.45 19.25 -48.35 18.2 -50.7" fill="#e0d76e" fill-rule="evenodd" stroke="none"/>
      <path d="M18.15 -70.45 L19.5 -72.7 20.55 -74.45 21.0 -75.2 50.7 -37.0 41.8 -33.35 Q38.7 -33.6 35.75 -34.8 32.85 -36.0 30.15 -37.85 27.45 -39.75 25.15 -42.0 22.8 -44.25 21.0 -46.6 19.55 -48.5 18.55 -50.9 17.55 -53.25 16.95 -55.75 16.3 -58.25 16.05 -60.55 15.8 -62.85 15.9 -64.65 15.95 -66.4 16.3 -67.3 L16.95 -68.45 18.15 -70.45" fill="#b3a11b" fill-rule="evenodd" stroke="none"/>
      <path d="M15.4 -52.95 Q14.85 -56.05 14.85 -58.8 15.25 -56.6 15.95 -54.35 16.65 -52.05 17.65 -49.9 18.65 -47.75 20.0 -46.0 L23.8 -41.6 Q25.9 -39.4 28.3 -37.5 30.7 -35.55 33.35 -34.15 29.1 -34.8 25.95 -36.65 22.85 -38.45 20.7 -41.1 18.55 -43.75 17.25 -46.8 16.0 -49.85 15.4 -52.95" fill="#6a3655" fill-rule="evenodd" stroke="none"/>
      <path d="M2.8 -27.45 Q3.5 -26.3 4.7 -25.7 L7.55 -25.45 3.45 -24.35 Q2.55 -24.25 1.75 -25.0 1.0 -25.75 0.6 -26.85 0.2 -27.95 0.45 -28.85 L1.0 -30.0 2.25 -32.5 Q1.75 -31.3 1.9 -29.95 2.05 -28.6 2.8 -27.45" fill="#644d0d" fill-rule="evenodd" stroke="none"/>
      <path d="M0.85 -26.85 Q0.5 -27.85 0.75 -28.6 L1.1 -29.35 1.9 -30.95 Q1.8 -29.7 2.3 -28.45 2.75 -27.2 3.7 -26.35 4.65 -25.5 6.0 -25.35 L3.4 -24.65 Q2.6 -24.55 1.9 -25.2 1.2 -25.9 0.85 -26.85" fill="#b3a11b" fill-rule="evenodd" stroke="none"/>
      <path d="M1.1 -26.35 L0.7 -27.55 Q0.6 -28.15 0.75 -28.6 L1.1 -29.35 1.9 -30.95 Q1.8 -29.55 2.35 -28.25 L1.1 -26.35" fill="#ded776" fill-rule="evenodd" stroke="none"/>
      <path d="M3.35 -26.75 L4.55 -25.85 Q5.2 -25.45 6.05 -25.35 L4.95 -25.05 2.95 -24.7 Q2.25 -24.85 1.65 -25.55 L3.35 -26.75" fill="#856d0e" fill-rule="evenodd" stroke="none"/>
      <path d="M4.7 -25.1 L6.05 -26.2 7.95 -21.65 7.5 -21.4 6.45 -20.9 5.4 -20.65 Q4.9 -20.65 4.8 -21.05 L4.7 -21.95 4.65 -23.45 4.7 -25.1" fill="#644d0d" fill-rule="evenodd" stroke="none"/>
      <path d="M5.05 -25.65 L6.4 -26.75 8.3 -22.2 7.85 -21.95 6.8 -21.45 5.75 -21.2 Q5.25 -21.2 5.15 -21.6 L5.05 -22.5 5.0 -24.0 5.05 -25.65" fill="#b3a11b" fill-rule="evenodd" stroke="none"/>
      <path d="M25.55 -19.75 Q25.0 -17.65 23.95 -15.95 22.95 -14.3 21.6 -13.5 21.65 -12.3 20.8 -11.45 19.95 -10.6 18.5 -10.15 L15.3 -9.7 Q13.6 -9.7 11.95 -10.25 10.25 -10.75 8.95 -11.85 8.4 -12.25 8.1 -12.85 7.8 -13.4 8.15 -14.15 6.8 -14.65 6.05 -15.7 5.3 -16.75 5.25 -18.2 5.2 -19.6 5.95 -21.15 5.45 -21.55 5.15 -22.6 4.85 -23.65 4.8 -24.95 4.8 -26.25 5.15 -27.4 5.5 -28.6 6.35 -29.2 7.45 -29.85 8.35 -29.95 L9.65 -29.75 Q10.25 -31.25 11.1 -31.85 11.9 -32.45 12.7 -32.45 L14.1 -32.3 Q15.0 -33.4 16.5 -33.85 L19.7 -33.95 Q21.45 -33.6 22.95 -32.25 24.5 -30.85 25.5 -28.3 26.2 -26.35 26.15 -24.15 26.15 -21.9 25.55 -19.75" fill="#1d3f60" fill-rule="evenodd" stroke="none"/>
      <path d="M22.6 -31.5 Q24.0 -30.2 24.85 -27.9 25.5 -26.05 25.5 -23.95 25.45 -21.85 24.9 -19.8 24.35 -17.75 23.35 -16.15 22.4 -14.55 21.15 -13.8 L19.45 -13.25 17.7 -13.0 16.55 -12.95 16.4 -12.9 Q16.45 -12.8 16.6 -12.8 L19.2 -12.75 21.1 -13.1 Q20.85 -11.9 19.55 -11.25 18.3 -10.55 16.5 -10.4 L12.85 -10.75 Q11.0 -11.2 9.55 -12.25 9.15 -12.55 8.85 -13.0 8.55 -13.45 8.75 -13.95 L9.55 -13.8 11.2 -13.65 11.55 -13.65 11.35 -13.75 10.35 -13.95 8.95 -14.4 Q7.25 -15.0 6.45 -16.4 5.65 -17.8 6.15 -20.05 L6.95 -21.45 8.25 -22.45 9.5 -23.2 10.45 -24.0 Q11.0 -24.65 11.75 -24.55 12.55 -24.5 13.25 -23.95 L14.3 -22.5 Q14.6 -21.6 14.25 -20.6 13.75 -19.55 12.9 -19.05 12.05 -18.6 11.1 -18.5 L9.55 -18.3 9.4 -18.2 9.6 -18.15 11.25 -18.3 Q12.25 -18.4 13.2 -18.9 14.2 -19.4 14.75 -20.65 L15.45 -20.9 16.05 -21.35 15.25 -20.15 14.2 -18.6 Q13.7 -17.85 13.55 -17.1 L13.55 -16.95 13.65 -17.1 14.6 -18.65 15.95 -20.25 17.1 -21.25 18.1 -21.65 18.45 -21.7 19.15 -21.6 20.55 -21.95 Q21.3 -22.35 21.7 -23.65 21.95 -24.5 21.75 -25.45 L21.2 -27.05 Q20.8 -27.75 20.3 -27.9 L20.05 -28.8 19.85 -30.1 19.85 -31.0 19.9 -31.15 19.7 -30.95 Q19.4 -30.3 19.55 -29.4 L19.8 -27.85 20.15 -26.95 Q20.4 -26.7 20.4 -26.95 L21.2 -25.45 Q21.45 -24.8 21.25 -23.85 21.1 -23.2 20.55 -22.65 20.0 -22.15 19.1 -22.05 18.2 -21.95 17.1 -22.65 L16.2 -23.6 15.3 -24.95 14.85 -26.15 Q14.4 -28.65 14.65 -30.1 14.9 -31.6 15.5 -32.3 16.1 -33.0 16.75 -33.15 18.15 -33.55 19.7 -33.15 21.25 -32.75 22.6 -31.5" fill="#b8d2ca" fill-rule="evenodd" stroke="none"/>
      <path d="M9.7 -26.05 Q9.6 -26.9 9.75 -27.75 L10.05 -29.1 Q10.65 -30.5 11.4 -31.1 12.15 -31.65 12.95 -31.7 L14.25 -31.55 14.0 -30.6 Q13.85 -29.7 13.85 -28.25 13.85 -26.85 14.4 -25.3 15.0 -23.7 16.45 -22.4 L16.0 -21.6 Q15.55 -21.2 14.85 -21.05 15.0 -22.15 14.5 -23.1 14.05 -24.0 13.1 -24.55 12.45 -24.95 11.65 -25.0 10.9 -25.05 10.3 -24.6 9.8 -25.25 9.7 -26.05" fill="#b8d2ca" fill-rule="evenodd" stroke="none"/>
      <path d="M8.7 -23.3 Q8.0 -22.85 7.3 -22.5 L6.25 -21.65 Q5.9 -22.25 5.7 -23.25 L5.5 -25.3 Q5.55 -26.4 5.85 -27.3 6.2 -28.25 6.9 -28.7 7.7 -29.15 8.4 -29.2 L9.55 -29.15 Q9.3 -28.5 9.2 -27.65 9.05 -26.8 9.2 -25.95 9.35 -25.05 9.9 -24.4 L8.7 -23.3" fill="#b8d2ca" fill-rule="evenodd" stroke="none"/>
      <path d="M36.4 -34.55 Q33.8 -35.55 31.4 -37.05 29.0 -38.55 26.85 -40.45 L31.75 -43.35 32.75 -42.75 32.45 -43.3 31.25 -44.05 25.95 -41.25 23.9 -43.25 28.8 -46.15 30.55 -46.45 34.5 -43.8 33.95 -42.05 42.45 -37.05 36.4 -34.55" fill="#856d0e" fill-rule="evenodd" stroke="none"/>
      <path d="M22.0 -59.7 L17.25 -54.6 Q16.4 -57.55 16.1 -60.3 15.8 -63.05 15.9 -65.0 L20.6 -71.45 22.0 -59.7" fill="#e0d76e" fill-rule="evenodd" stroke="none"/>
      <path d="M17.5 -53.75 L21.95 -58.3 22.4 -56.15 21.65 -55.45 19.95 -53.8 18.05 -52.1 17.5 -53.75" fill="#e0d76e" fill-rule="evenodd" stroke="none"/>
      <path d="M54.25 -58.25 Q56.1 -53.75 56.4 -49.7 56.65 -45.7 55.55 -42.6 54.4 -39.55 52.05 -37.85 50.05 -36.45 47.4 -36.15 L41.8 -36.6 Q38.75 -37.35 35.7 -39.1 32.65 -40.85 29.8 -43.5 27.0 -46.2 24.7 -49.8 20.95 -55.75 19.6 -60.95 18.2 -66.1 18.85 -69.95 19.45 -73.85 21.75 -75.85 23.4 -77.25 26.3 -77.8 29.25 -78.35 33.0 -77.65 36.75 -76.9 40.8 -74.45 44.85 -71.95 48.7 -67.3 52.35 -62.75 54.25 -58.25" fill="#ffffff" fill-rule="evenodd" stroke="none"/>
      <path d="M54.25 -58.25 Q56.1 -53.75 56.4 -49.7 56.65 -45.7 55.55 -42.6 54.4 -39.55 52.05 -37.85 50.05 -36.45 47.45 -36.2 L41.9 -36.65 Q38.95 -37.45 35.9 -39.2 32.9 -40.95 30.1 -43.65 27.3 -46.35 25.0 -49.95 21.25 -55.9 19.8 -61.05 18.35 -66.2 18.9 -70.0 19.45 -73.85 21.75 -75.85 23.35 -77.25 26.3 -77.8 29.25 -78.35 33.0 -77.65 36.75 -76.9 40.8 -74.45 44.85 -71.95 48.7 -67.3 52.35 -62.75 54.25 -58.25" fill="#f0f299" fill-rule="evenodd" stroke="none"/>
      <path d="M52.8 -51.45 Q53.0 -48.2 52.1 -45.75 51.2 -43.25 49.3 -41.9 47.3 -40.55 44.55 -40.5 41.8 -40.5 38.75 -41.8 35.7 -43.05 32.8 -45.55 29.85 -48.0 27.55 -51.65 24.55 -56.45 23.35 -60.55 22.2 -64.7 22.65 -67.8 23.1 -70.85 24.95 -72.45 26.25 -73.6 28.6 -74.05 30.95 -74.5 34.0 -73.95 37.0 -73.35 40.25 -71.35 43.55 -69.35 46.65 -65.6 49.55 -61.95 51.05 -58.3 52.6 -54.7 52.8 -51.45" fill="#b3a11b" fill-rule="evenodd" stroke="none"/>
      <path d="M43.3 -65.95 Q41.4 -65.9 39.75 -64.9 38.1 -63.85 36.95 -61.8 35.85 -59.75 35.45 -56.55 35.05 -52.8 35.1 -49.5 35.1 -46.25 35.5 -43.5 33.3 -44.9 31.25 -46.95 29.25 -49.0 27.55 -51.65 24.55 -56.45 23.35 -60.55 22.2 -64.7 22.65 -67.8 23.1 -70.85 24.95 -72.45 26.25 -73.6 28.6 -74.05 30.95 -74.5 34.0 -73.95 37.0 -73.35 40.25 -71.35 43.55 -69.35 46.65 -65.6 L47.0 -65.1 Q45.15 -66.0 43.3 -65.95" fill="#644d0d" fill-rule="evenodd" stroke="none"/>
      <path d="M28.3 -50.55 L27.55 -51.65 Q24.55 -56.45 23.35 -60.6 22.2 -64.75 22.65 -67.8 23.1 -70.9 24.95 -72.5 26.05 -73.45 27.95 -73.95 L32.35 -74.2 Q34.8 -74.0 37.55 -72.8 40.3 -71.65 43.05 -69.3 40.35 -69.45 37.6 -67.95 34.9 -66.4 32.7 -63.7 30.45 -60.95 29.25 -57.55 28.0 -54.15 28.3 -50.55" fill="#4d331f" fill-rule="evenodd" stroke="none"/>
      <path d="M13.8 -29.15 Q13.7 -27.7 14.15 -25.95 L13.25 -25.6 12.05 -25.65 11.15 -25.8 10.4 -25.65 9.9 -25.55 9.7 -26.55 9.75 -27.85 10.0 -28.95 10.7 -30.05 Q11.25 -30.7 12.1 -31.1 L14.1 -31.25 Q13.9 -30.6 13.8 -29.15" fill="#ffffff" fill-rule="evenodd" stroke="none"/>
      <path d="M20.4 -26.95 L20.9 -26.1 Q21.1 -24.95 20.45 -24.05 19.85 -23.1 18.75 -22.8 17.65 -22.5 16.45 -23.3 L15.8 -24.1 15.15 -25.2 14.85 -26.1 Q14.45 -28.45 14.6 -29.9 14.8 -31.3 15.3 -32.05 16.0 -32.55 16.8 -32.6 17.65 -32.65 18.35 -32.1 19.1 -31.55 19.5 -30.35 L19.6 -29.05 19.8 -27.85 Q19.9 -27.2 20.15 -26.95 20.35 -26.7 20.4 -26.95" fill="#ffffff" fill-rule="evenodd" stroke="none"/>
      <path d="M25.5 -23.65 Q25.4 -21.55 24.85 -19.6 24.25 -17.6 23.3 -16.1 22.35 -14.55 21.15 -13.8 L19.45 -13.25 17.7 -13.0 16.55 -12.95 Q16.35 -12.95 16.4 -12.85 L16.6 -12.8 19.2 -12.75 21.1 -13.1 Q20.85 -11.9 19.55 -11.2 18.3 -10.55 16.5 -10.4 L12.85 -10.75 Q11.0 -11.2 9.55 -12.25 9.15 -12.55 8.85 -13.0 8.55 -13.4 8.75 -13.9 L9.55 -13.75 11.2 -13.6 11.55 -13.65 11.35 -13.7 10.35 -13.95 8.95 -14.4 Q7.25 -14.95 6.45 -16.4 5.65 -17.8 6.15 -20.05 L6.95 -21.45 8.25 -22.45 9.5 -23.2 10.45 -24.0 Q11.0 -24.6 11.75 -24.55 12.5 -24.5 13.2 -23.95 L14.25 -22.55 13.95 -21.55 Q13.7 -21.1 13.1 -20.8 L10.2 -19.45 7.85 -18.7 Q8.45 -18.2 9.5 -18.1 L11.65 -18.15 Q12.75 -18.3 13.55 -18.75 L14.0 -18.95 14.05 -18.35 Q13.65 -17.7 13.55 -17.1 L13.55 -16.9 13.65 -17.1 14.4 -18.4 15.55 -19.8 16.65 -20.9 17.1 -21.25 18.1 -21.6 18.45 -21.7 18.75 -21.65 19.55 -21.65 Q20.3 -21.35 20.6 -20.6 L21.3 -19.85 Q21.9 -19.45 22.65 -19.4 23.4 -19.35 24.05 -20.05 24.7 -20.7 25.0 -22.5 25.3 -24.25 25.0 -27.5 25.55 -25.7 25.5 -23.65" fill="#ffffff" fill-rule="evenodd" stroke="none"/>
      <path d="M9.15 -28.7 Q8.7 -27.75 8.8 -26.6 8.9 -25.5 9.4 -24.65 L8.65 -23.75 7.3 -23.05 Q6.75 -22.85 6.3 -23.3 5.9 -23.8 5.75 -24.7 5.6 -25.6 5.8 -26.75 6.05 -27.8 6.7 -28.3 7.35 -28.75 8.05 -28.8 L9.15 -28.7" fill="#ffffff" fill-rule="evenodd" stroke="none"/>
      <path d="M23.7 -16.7 L23.55 -16.5 23.45 -16.3 23.35 -16.1 23.2 -15.9 23.1 -15.7 22.95 -15.55 22.85 -15.35 22.7 -15.2 22.6 -15.05 22.45 -14.9 22.3 -14.75 22.15 -14.6 22.05 -14.45 21.85 -14.3 21.75 -14.2 21.55 -14.05 21.45 -14.0 21.15 -13.8 19.45 -13.25 17.7 -13.0 16.55 -12.9 16.45 -12.8 14.6 -13.1 12.75 -13.3 11.25 -13.35 Q10.55 -13.3 10.25 -12.85 9.9 -12.45 10.05 -11.85 L9.55 -12.2 8.85 -12.95 Q8.55 -13.4 8.75 -13.9 L9.55 -13.75 11.2 -13.6 11.55 -13.6 11.35 -13.7 10.35 -13.95 8.95 -14.35 Q7.8 -14.75 7.05 -15.5 6.3 -16.3 6.05 -17.4 6.5 -16.65 7.45 -16.1 8.35 -15.5 9.5 -15.15 L11.6 -14.9 Q12.65 -14.95 13.25 -15.5 13.75 -14.5 15.05 -14.2 L18.05 -14.1 Q19.7 -14.35 21.25 -15.05 22.75 -15.75 23.75 -16.8 L23.7 -16.7" fill="#b8d2ca" fill-rule="evenodd" stroke="none"/>
      <path d="M18.05 -12.5 L16.75 -12.75 19.25 -12.75 21.1 -13.05 Q20.95 -12.3 20.3 -11.75 19.7 -11.15 18.75 -10.85 L19.0 -11.8 18.05 -12.5" fill="#b8d2ca" fill-rule="evenodd" stroke="none"/>
      <path d="M28.4 -30.1 L28.4 -28.95 28.35 -27.7 27.6 -26.75 Q27.2 -26.5 26.2 -26.1 L24.0 -25.35 21.8 -24.65 21.55 -26.1 21.0 -27.3 Q20.65 -27.75 20.3 -27.85 L20.05 -28.7 21.15 -29.05 22.0 -29.45 Q22.4 -29.75 22.5 -30.2 L22.55 -31.15 22.35 -32.3 22.05 -33.7 21.85 -34.4 24.0 -35.9 24.6 -35.5 26.2 -34.65 Q27.2 -34.15 28.3 -33.85 L28.3 -33.25 28.35 -31.75 28.4 -30.1" fill="#644d0d" fill-rule="evenodd" stroke="none"/>
      <path d="M24.05 -34.5 L24.5 -32.55 24.8 -30.25 Q24.9 -29.05 24.6 -28.25 24.2 -27.35 23.2 -27.05 L21.3 -26.8 Q20.85 -27.7 20.3 -27.85 L20.15 -28.3 21.0 -28.65 21.9 -29.0 22.5 -29.25 22.95 -29.7 23.05 -30.2 23.0 -31.0 22.8 -32.45 22.65 -33.8 22.55 -34.4 23.8 -35.3 24.05 -34.5" fill="#b3a11b" fill-rule="evenodd" stroke="none"/>
      <path d="M20.8 -27.55 L20.3 -27.9 20.15 -28.35 21.0 -28.65 21.9 -29.0 22.5 -29.3 22.35 -28.95 22.35 -28.05 Q22.4 -27.5 22.85 -27.0 L21.3 -26.85 20.8 -27.55" fill="#816a0e" fill-rule="evenodd" stroke="none"/>
      <path d="M27.75 -29.55 L27.7 -28.25 Q27.75 -27.8 27.35 -27.4 L25.9 -26.55 24.05 -25.85 22.45 -25.35 21.75 -25.2 21.45 -26.45 20.9 -27.4 22.05 -27.85 23.15 -28.3 23.75 -28.8 24.0 -29.65 23.95 -30.95 23.9 -33.1 23.8 -35.3 25.7 -34.25 27.1 -33.7 27.7 -33.55 27.7 -32.9 27.75 -31.35 27.75 -29.55" fill="#f0f299" fill-rule="evenodd" stroke="none"/>
      <path d="M27.7 -33.55 L27.7 -33.0 27.75 -31.6 27.75 -30.0 27.75 -28.6 27.3 -28.5 26.0 -28.75 Q25.15 -29.0 24.0 -30.0 L23.95 -31.45 23.85 -33.35 23.8 -35.3 25.7 -34.25 27.15 -33.7 27.7 -33.55" fill="#e0d76e" fill-rule="evenodd" stroke="none"/>
      <path d="M26.7 -27.3 L26.8 -27.0 25.9 -26.55 24.1 -25.85 22.45 -25.25 Q21.8 -25.0 21.75 -25.05 L21.45 -26.35 20.9 -27.4 21.65 -27.75 22.4 -28.15 22.95 -28.2 23.5 -28.2 25.8 -27.9 26.7 -27.3" fill="#b3a11b" fill-rule="evenodd" stroke="none"/>
      <path d="M-42.55 -48.15 Q-43.8 -47.3 -45.15 -46.9 L-47.75 -46.45 Q-50.75 -46.5 -52.55 -47.9 -54.3 -49.3 -54.4 -51.7 L-52.7 -50.4 Q-53.05 -49.85 -52.9 -49.25 -52.75 -48.65 -51.65 -48.1 -50.55 -47.55 -48.1 -47.3 L-44.9 -47.6 Q-43.65 -48.05 -43.2 -48.75 -42.7 -49.5 -42.85 -50.1 -43.0 -50.75 -43.75 -50.9 -43.05 -51.55 -42.7 -52.4 -41.1 -52.25 -39.75 -53.1 -39.8 -51.45 -40.55 -50.2 -41.35 -49.0 -42.55 -48.15" fill="#b8d2ca" fill-rule="evenodd" stroke="none"/>
      <path d="M-31.5 -59.7 L-31.8 -58.6 -32.35 -57.4 Q-32.65 -56.8 -33.0 -56.5 -33.65 -56.0 -34.5 -56.0 -35.3 -56.0 -36.05 -56.5 -36.8 -57.0 -37.4 -58.0 L-35.65 -59.45 -34.15 -61.35 -34.55 -59.2 Q-34.65 -58.25 -34.0 -58.1 -33.35 -58.0 -32.6 -58.8 L-31.2 -60.95 -31.5 -59.7" fill="#b8d2ca" fill-rule="evenodd" stroke="none"/>
      <path d="M-44.8 -56.05 L-46.8 -56.1 Q-48.05 -56.25 -50.05 -57.15 L-49.2 -56.35 -47.8 -55.8 -46.4 -55.55 Q-46.15 -54.4 -45.25 -53.55 -44.35 -52.7 -43.2 -52.5 -43.7 -51.65 -44.45 -51.1 -44.0 -51.85 -44.6 -52.5 L-46.4 -53.75 -48.8 -55.2 -50.75 -56.9 Q-51.45 -57.75 -51.3 -58.1 -51.2 -58.35 -50.15 -57.65 -49.05 -56.9 -47.9 -56.6 L-45.6 -56.3 -43.2 -56.15 -44.8 -56.05" fill="#b8d2ca" fill-rule="evenodd" stroke="none"/>
      <path d="M-39.15 -55.05 Q-39.5 -54.05 -40.35 -53.55 -41.25 -53.0 -42.3 -53.05 -43.4 -53.05 -44.4 -53.65 -45.35 -54.25 -45.95 -55.5 L-44.55 -55.6 Q-43.8 -55.7 -43.2 -56.15 -43.85 -55.1 -43.75 -54.6 -43.65 -54.05 -43.1 -54.0 L-41.95 -54.15 Q-41.3 -54.35 -40.9 -54.75 -39.85 -55.95 -39.35 -56.95 L-38.7 -58.85 -38.45 -60.4 Q-38.35 -59.05 -38.6 -57.65 -38.8 -56.25 -39.15 -55.05" fill="#b8d2ca" fill-rule="evenodd" stroke="none"/>
      <path d="M-33.1 -69.15 L-33.65 -68.25 Q-34.25 -70.05 -35.4 -71.25 -36.55 -72.4 -38.0 -73.3 L-41.05 -75.15 -39.3 -74.45 -37.4 -73.6 -35.5 -72.6 Q-34.5 -72.15 -33.75 -72.2 -32.95 -72.2 -32.55 -73.2 -32.3 -71.9 -32.5 -70.85 -32.75 -69.8 -33.1 -69.15" fill="#b8d2ca" fill-rule="evenodd" stroke="none"/>
      <path d="M-54.35 -53.4 Q-56.6 -60.75 -56.6 -66.75 -56.25 -63.55 -55.45 -60.45 L-53.75 -54.8 -52.2 -51.0 Q-53.75 -51.65 -54.35 -53.4" fill="#b8d2ca" fill-rule="evenodd" stroke="none"/>
      <path d="M-34.7 -68.45 Q-34.15 -67.1 -34.1 -65.45 -34.05 -63.85 -34.8 -62.2 -35.55 -60.6 -37.35 -59.15 -37.25 -60.25 -37.6 -61.35 -37.9 -62.4 -38.55 -63.25 -37.3 -63.05 -36.5 -63.5 -35.7 -64.0 -35.25 -64.85 -34.8 -65.7 -34.7 -66.65 -34.55 -67.65 -34.7 -68.45" fill="#b8d2ca" fill-rule="evenodd" stroke="none"/>
      <path d="M-36.4 -71.05 L-35.9 -70.55 -37.25 -71.75 -36.4 -71.05" fill="#b8d2ca" fill-rule="evenodd" stroke="none"/>
      <path d="M-36.1 -27.05 Q-33.75 -23.4 -31.2 -20.45 -33.35 -22.25 -35.4 -24.75 L-39.35 -30.05 -42.7 -35.45 -45.1 -40.1 -46.15 -43.1 Q-43.3 -44.75 -41.9 -46.2 -41.6 -40.1 -40.0 -35.4 -38.4 -30.7 -36.1 -27.05" fill="#2f242a" fill-rule="evenodd" stroke="none"/>
      <path d="M38.85 18.75 Q38.1 19.5 36.9 19.75 L34.4 19.7 Q32.1 18.5 29.25 18.6 26.4 18.7 23.4 19.95 20.45 21.25 17.75 23.65 L12.3 28.65 5.2 34.7 3.9 35.85 2.45 37.3 Q-0.15 38.65 -1.5 38.15 -2.85 37.6 -3.05 35.15 -3.15 33.4 -2.85 31.95 -1.75 29.4 -0.3 27.25 L-0.75 27.4 Q0.4 25.85 1.7 24.55 L1.45 23.05 Q1.4 22.25 1.6 21.35 2.8 19.75 4.35 18.45 5.9 17.2 7.6 16.5 9.35 15.85 11.15 16.0 L9.05 18.4 7.05 20.9 5.75 22.8 Q4.85 22.8 3.85 23.35 2.85 23.85 2.05 24.7 1.3 25.55 1.05 26.6 2.2 25.2 3.3 24.45 4.4 23.65 5.35 23.4 L5.15 23.95 5.05 24.45 7.6 21.4 10.65 17.95 14.6 13.85 Q18.05 10.45 21.65 9.15 25.25 7.95 28.65 8.35 32.0 8.8 34.7 10.55 36.4 11.7 37.65 13.25 38.9 14.85 39.7 16.75 39.55 17.95 38.85 18.75" fill="#ffbd12" fill-rule="evenodd" stroke="none"/>
      <path d="M-15.35 54.4 Q-16.15 55.95 -17.35 56.9 -18.5 57.9 -20.05 57.85 L-21.95 57.45 -23.35 56.45 Q-24.25 55.1 -24.5 53.6 L-24.65 50.8 -24.3 49.0 Q-24.05 48.45 -23.95 49.05 -23.85 50.4 -23.4 51.6 -22.95 52.75 -21.85 53.45 -21.1 53.95 -20.3 54.15 L-18.75 54.05 Q-17.9 53.8 -17.05 52.85 -15.85 51.6 -15.5 52.05 -15.15 52.5 -15.35 54.4" fill="#ffbd12" fill-rule="evenodd" stroke="none"/>
      <path d="M-26.6 3.25 L-25.75 1.4 -24.35 -0.8 Q-23.65 2.3 -23.45 5.7 -23.2 9.15 -23.3 12.45 L-23.7 18.45 -24.3 22.75 Q-24.65 24.4 -24.95 25.1 L-25.5 25.85 -25.85 25.5 -26.0 24.8 -27.15 27.45 -27.6 28.45 -27.65 28.55 -27.65 29.25 -27.25 30.85 Q-26.8 31.85 -25.65 32.95 -24.5 34.05 -22.25 34.95 L-21.1 35.45 -22.9 34.95 Q-25.05 34.1 -26.6 32.45 -28.2 30.85 -29.0 28.8 -29.75 26.8 -29.55 24.75 L-27.85 22.4 -26.3 20.1 -26.3 22.7 Q-25.7 21.1 -25.5 18.75 -25.25 16.4 -25.35 13.65 -25.4 10.95 -25.75 8.25 -26.05 5.55 -26.6 3.25" fill="#9d1700" fill-rule="evenodd" stroke="none"/>
      <path d="M2.75 7.45 L2.8 8.5 3.75 7.85 Q2.6 10.85 1.85 13.8 1.1 16.75 0.95 19.3 L-1.3 19.85 -4.2 20.75 Q-5.75 21.25 -7.35 22.1 L-4.0 18.6 0.0 15.2 Q-2.5 16.6 -4.55 18.4 L-8.35 22.2 -8.15 21.35 -8.1 20.55 -9.45 23.7 -10.45 27.25 -11.0 30.5 Q-11.7 31.95 -13.25 33.2 -12.75 32.6 -12.6 31.9 L-12.05 29.35 -10.8 24.6 -8.7 18.3 -8.0 16.9 -7.3 15.9 Q-6.9 15.5 -6.75 15.65 -6.6 15.85 -6.75 16.75 -4.95 15.3 -3.3 13.1 -1.7 10.95 -0.55 8.35 0.6 5.75 1.0 3.1 1.55 5.5 1.5 7.9 L1.85 6.6 1.9 4.55 1.6 2.25 1.85 2.1 2.5 5.0 2.75 7.45" fill="#9d1700" fill-rule="evenodd" stroke="none"/>
    </g>
  </defs>
</svg>
