<?xml version="1.0" encoding="UTF-8" standalone="no"?>
<svg xmlns:xlink="http://www.w3.org/1999/xlink" height="188.85px" width="275.7px" xmlns="http://www.w3.org/2000/svg">
  <g transform="matrix(1.0, 0.0, 0.0, 1.0, 188.8, 94.4)">
    <use data-characterId="304" height="184.95" transform="matrix(1.0, 0.0, 0.0, 1.0, -86.85, -94.4)" width="166.1" xlink:href="#button0"/>
    <use data-characterId="305" height="188.7" transform="matrix(1.0, 0.0, 0.0, 1.0, -86.8, -94.25)" width="173.7" xlink:href="#shape1"/>
  </g>
  <defs>
    <g id="button0" transform="matrix(1.0, 0.0, 0.0, 1.0, 0.0, 0.0)">
      <use data-characterId="303" height="184.95" transform="matrix(1.0, 0.0, 0.0, 1.0, 0.0, 0.0)" width="166.1" xlink:href="#shape0"/>
    </g>
    <g id="shape0" transform="matrix(1.0, 0.0, 0.0, 1.0, 0.0, 0.0)">
      <path d="M24.2 44.25 L25.95 44.5 Q26.8 44.75 27.1 45.2 L27.45 46.1 27.5 46.25 27.7 47.65 27.9 49.2 Q30.75 49.9 32.65 51.9 34.55 53.85 35.65 57.3 L37.4 63.1 Q38.5 63.35 39.25 64.2 39.95 65.05 40.05 66.25 L40.3 68.65 40.65 70.65 41.15 72.95 41.2 73.05 41.35 74.55 41.2 76.25 40.8 77.8 40.8 77.95 Q41.8 78.2 42.65 78.9 43.5 79.55 44.0 80.6 44.55 81.65 44.55 83.05 L44.5 83.6 47.1 85.25 50.25 87.05 52.95 88.3 54.25 86.6 55.45 84.4 56.5 82.15 55.1 80.95 54.45 80.3 Q53.8 79.6 53.8 78.6 L53.8 78.3 Q53.95 77.45 54.35 76.75 54.8 76.05 55.35 75.65 L55.95 74.9 56.85 73.9 Q57.35 73.4 58.2 73.2 L59.1 71.8 60.1 69.5 58.55 69.55 56.3 69.6 54.3 69.65 53.4 69.7 Q49.2 69.7 46.2 68.5 43.15 67.25 41.65 64.85 L40.35 62.45 38.45 58.55 36.15 53.6 35.8 52.85 35.0 51.2 34.15 49.4 33.65 48.35 31.8 48.35 Q30.95 48.25 30.15 47.8 L28.7 46.6 Q27.7 45.25 27.65 43.55 L27.7 43.4 24.05 43.75 24.1 44.0 24.2 44.25 M21.75 32.5 L21.65 32.5 21.75 32.55 21.75 32.5 M89.3 2.25 Q92.05 0.9 94.9 0.15 96.45 -0.2 97.3 0.4 98.05 0.9 98.25 2.05 L98.3 3.3 98.05 7.45 97.3 12.95 96.2 19.1 101.65 30.2 Q103.95 34.45 105.65 36.8 107.35 39.15 108.65 40.1 109.95 41.0 111.1 41.15 L113.6 41.0 114.7 40.95 Q115.2 40.95 115.5 41.35 L115.6 41.8 115.45 42.35 115.15 42.95 114.05 44.35 112.95 45.35 Q113.65 45.4 113.95 45.9 L114.05 46.3 Q114.05 46.8 113.65 47.2 L113.05 47.85 111.5 49.2 107.5 52.65 Q105.2 54.6 102.2 56.75 99.2 58.85 95.55 60.8 91.9 62.75 87.65 64.25 88.3 66.35 88.55 68.35 L88.85 72.25 89.05 75.45 Q89.2 77.05 89.65 78.55 90.05 80.1 90.95 81.55 L93.05 84.65 95.2 87.05 97.8 89.2 101.25 91.7 102.95 92.9 Q106.15 95.25 108.95 98.45 111.75 101.6 113.8 105.25 115.85 108.9 116.9 112.6 L116.95 112.75 116.9 112.8 116.35 114.4 Q115.85 115.35 114.6 116.4 113.35 117.45 111.05 118.5 L114.15 123.35 117.75 128.1 Q119.6 130.3 121.4 131.8 L128.0 136.5 Q131.05 138.4 133.75 139.65 L138.7 141.85 Q141.3 142.9 143.55 144.05 147.8 146.2 151.85 148.85 155.85 151.55 159.05 154.9 162.25 158.25 164.15 162.55 166.05 166.85 166.1 172.25 L166.0 174.75 Q165.75 177.45 164.45 179.55 163.1 181.6 160.85 182.9 158.85 183.95 156.45 184.3 L151.5 184.15 Q148.95 183.65 146.55 182.45 143.7 180.9 141.35 178.2 139.05 175.45 137.15 172.05 135.3 168.65 133.8 165.05 L131.05 158.2 129.65 154.65 128.4 151.85 Q127.85 150.7 127.35 150.3 L124.95 148.3 122.55 146.25 116.6 141.15 Q113.05 138.15 110.65 134.9 L108.85 132.3 106.35 128.55 103.75 124.55 101.55 121.05 91.95 122.0 91.3 122.15 89.8 122.45 88.15 122.8 86.9 123.1 88.8 126.3 91.1 130.7 93.2 135.65 Q94.1 138.2 94.45 140.5 L94.55 142.6 Q94.55 145.2 94.0 148.2 L92.6 154.15 90.9 159.6 89.45 163.6 Q93.9 163.65 97.3 164.65 100.65 165.6 103.0 167.2 105.4 168.85 106.85 170.8 108.25 172.75 108.85 174.8 L109.3 176.35 109.45 177.9 Q109.5 178.95 108.95 179.95 108.05 181.7 105.05 182.6 L97.15 184.2 88.95 184.9 81.05 184.9 74.15 184.45 69.0 183.8 66.3 183.2 Q62.9 181.9 62.15 179.75 61.9 179.0 61.9 178.25 61.9 176.15 63.65 173.2 L67.2 167.65 71.1 162.25 76.25 154.9 Q78.65 151.3 80.2 147.85 81.7 144.4 81.85 141.05 L81.85 140.8 Q81.85 139.5 81.45 137.5 L80.4 133.2 79.05 128.65 77.75 124.6 Q73.5 125.0 69.65 124.8 65.8 124.55 62.1 123.7 60.95 123.4 60.15 122.85 L58.95 121.65 58.65 121.35 58.6 121.1 58.7 120.65 Q58.75 120.3 59.05 119.9 59.35 119.5 60.1 119.2 L62.9 117.7 64.95 115.95 Q62.9 111.75 61.5 106.85 60.05 101.95 59.3 96.6 58.6 97.45 57.3 98.0 L54.3 98.4 Q52.55 98.3 50.5 97.25 L47.0 95.3 43.05 92.95 39.5 90.8 37.35 91.7 34.9 91.85 Q33.65 91.65 32.6 91.0 30.95 89.9 30.5 88.15 27.2 87.9 24.3 86.9 21.4 85.85 19.3 84.55 17.25 83.25 16.4 82.05 L15.7 80.4 15.55 79.45 15.65 78.8 Q14.75 78.2 14.2 77.15 13.65 76.1 13.6 74.85 L13.9 73.35 12.45 71.8 Q11.85 70.8 11.8 69.35 L11.9 68.4 Q12.1 67.05 12.85 66.0 L14.45 64.0 15.65 62.55 Q15.25 60.6 15.25 59.05 15.25 57.0 15.75 55.45 16.2 53.95 16.95 52.85 17.7 51.7 18.55 51.0 L18.7 50.85 18.4 49.9 18.0 48.75 17.8 48.15 17.7 47.5 Q17.7 46.95 17.95 46.5 L18.5 45.8 19.45 45.25 20.45 44.85 20.45 44.75 19.15 45.1 17.7 45.2 15.9 44.85 Q15.15 44.45 14.65 43.75 14.0 42.8 14.0 41.7 L14.25 40.4 14.7 39.4 13.05 39.5 10.85 39.65 8.8 39.8 7.6 39.85 7.45 41.4 7.15 42.85 6.7 43.2 4.95 43.35 3.2 43.5 2.2 43.65 1.7 43.5 Q0.95 42.6 0.55 41.05 0.15 39.55 0.05 37.8 L0.05 34.55 Q0.2 33.05 0.45 32.2 0.6 31.85 0.95 31.85 L2.3 32.0 3.95 32.2 5.4 32.35 6.25 32.45 Q6.55 32.45 6.65 32.7 L7.0 33.7 7.25 34.8 8.1 34.85 9.4 35.0 8.05 33.7 Q7.55 32.95 7.4 32.15 L7.35 31.7 Q7.4 31.0 7.7 30.5 8.05 30.0 8.7 29.8 L10.75 29.0 8.65 27.85 Q7.0 26.6 6.45 25.3 5.95 24.05 6.0 23.1 L6.0 22.8 Q5.5 21.65 5.5 20.6 5.5 19.5 5.95 18.55 6.35 17.65 7.0 17.05 7.6 16.6 8.15 16.55 L9.2 16.8 11.4 18.15 14.9 20.1 18.8 22.2 22.15 24.0 22.5 24.15 23.15 24.5 23.6 24.75 Q25.6 24.75 27.45 25.55 29.35 26.35 31.65 27.95 33.9 29.5 36.15 31.5 L40.2 35.65 40.9 35.9 42.5 27.75 42.6 27.35 42.75 26.35 42.95 25.4 43.1 24.6 43.25 23.85 43.35 23.3 Q42.75 21.7 42.45 19.85 L42.2 15.95 42.4 11.65 42.8 7.55 43.05 4.8 Q43.15 3.95 43.45 3.6 43.75 3.3 44.0 3.25 L44.65 3.3 45.55 4.05 48.35 7.3 52.55 10.8 Q55.8 8.7 59.6 7.55 63.35 6.4 67.15 6.1 71.0 5.75 74.4 6.2 77.85 6.65 80.45 7.75 L84.2 5.1 Q86.5 3.55 89.3 2.25" fill="#ffffff" fill-rule="evenodd" stroke="none"/>
    </g>
    <g id="shape1" transform="matrix(1.0, 0.0, 0.0, 1.0, 0.45, 0.4)">
      <path d="M27.2 43.15 L27.25 43.0 23.6 43.35 23.65 43.6 23.75 43.85 25.5 44.1 Q26.35 44.35 26.65 44.8 L27.0 45.7 27.05 45.85 27.25 47.25 27.45 48.8 Q30.3 49.5 32.2 51.5 34.1 53.45 35.2 56.9 L36.95 62.7 Q38.05 62.95 38.8 63.8 39.5 64.65 39.6 65.85 L39.85 68.25 40.2 70.25 40.7 72.55 40.75 72.65 40.9 74.15 40.75 75.85 40.35 77.4 40.35 77.55 Q41.35 77.8 42.2 78.5 43.05 79.15 43.55 80.2 44.1 81.25 44.1 82.65 L44.05 83.2 46.65 84.85 49.8 86.65 52.5 87.9 53.8 86.2 55.0 84.0 56.05 81.75 54.65 80.55 54.0 79.9 Q53.35 79.2 53.35 78.2 L53.35 77.9 Q53.5 77.05 53.9 76.35 54.35 75.65 54.9 75.25 L55.5 74.5 56.4 73.5 Q56.9 73.0 57.75 72.8 L58.65 71.4 59.65 69.1 58.1 69.15 55.85 69.2 53.85 69.25 52.95 69.3 Q48.75 69.3 45.75 68.1 42.7 66.85 41.2 64.45 L39.9 62.05 38.0 58.15 35.7 53.2 35.35 52.45 34.55 50.8 33.7 49.0 33.2 47.95 31.35 47.95 Q30.5 47.85 29.7 47.4 28.9 46.9 28.25 46.2 27.25 44.85 27.2 43.15 M21.3 32.1 L21.2 32.1 21.3 32.15 21.3 32.1 M94.45 -0.25 L96.85 0.0 Q97.6 0.5 97.8 1.65 L97.85 2.9 97.6 7.05 96.85 12.55 95.75 18.7 101.2 29.8 Q103.5 34.05 105.2 36.4 106.9 38.75 108.2 39.7 109.5 40.6 110.65 40.75 L113.15 40.6 114.25 40.55 Q114.75 40.55 115.05 40.95 L115.15 41.4 115.0 41.95 114.7 42.55 113.6 43.95 112.5 44.95 Q113.2 45.0 113.5 45.5 L113.6 45.9 Q113.6 46.4 113.2 46.8 L112.6 47.45 111.05 48.8 107.05 52.25 101.75 56.35 95.1 60.4 Q91.45 62.35 87.2 63.85 87.85 65.95 88.1 67.95 L88.4 71.85 88.6 75.05 Q88.75 76.65 89.2 78.15 89.6 79.7 90.5 81.15 L92.6 84.25 94.75 86.65 97.35 88.8 100.8 91.3 102.5 92.5 Q105.7 94.85 108.5 98.05 111.3 101.2 113.35 104.85 115.4 108.5 116.45 112.2 L116.5 112.35 116.45 112.4 115.9 114.0 Q115.4 114.95 114.15 116.0 112.9 117.05 110.6 118.1 L113.7 122.95 117.3 127.7 Q119.15 129.9 120.95 131.4 124.45 134.2 127.55 136.1 L133.3 139.25 138.25 141.45 Q140.85 142.5 143.1 143.65 147.35 145.8 151.4 148.45 155.4 151.15 158.6 154.5 161.8 157.85 163.7 162.15 165.6 166.45 165.65 171.85 L165.55 174.35 Q165.3 177.05 164.0 179.15 162.65 181.2 160.4 182.5 158.4 183.55 156.0 183.9 L151.05 183.75 Q148.5 183.25 146.1 182.05 143.25 180.5 140.9 177.8 138.6 175.05 136.7 171.65 134.85 168.25 133.35 164.65 L130.6 157.8 129.2 154.25 127.95 151.45 Q127.4 150.3 126.9 149.9 L124.5 147.9 122.1 145.85 116.15 140.75 Q112.6 137.75 110.2 134.5 L108.4 131.9 105.9 128.15 103.3 124.15 101.1 120.65 91.5 121.6 90.85 121.75 89.35 122.05 87.7 122.4 86.45 122.7 88.35 125.9 90.65 130.3 92.75 135.25 Q93.65 137.8 94.0 140.1 L94.1 142.2 Q94.1 144.8 93.55 147.8 L92.15 153.75 90.45 159.2 89.0 163.2 Q93.45 163.25 96.85 164.25 100.2 165.2 102.55 166.8 104.95 168.45 106.4 170.4 107.8 172.35 108.4 174.4 L108.85 175.95 109.0 177.5 Q109.05 178.55 108.5 179.55 107.6 181.3 104.6 182.2 L96.7 183.8 88.5 184.5 80.6 184.5 73.7 184.05 68.55 183.4 65.85 182.8 Q62.45 181.5 61.7 179.35 L61.45 177.85 Q61.45 175.75 63.2 172.8 L66.75 167.25 70.65 161.85 75.8 154.5 Q78.2 150.9 79.75 147.45 81.25 144.0 81.4 140.65 L81.4 140.4 Q81.4 139.1 81.0 137.1 L79.95 132.8 78.6 128.25 77.3 124.2 Q73.05 124.6 69.2 124.4 65.35 124.15 61.65 123.3 L59.7 122.45 58.5 121.25 58.2 120.95 58.15 120.7 58.25 120.25 58.6 119.5 Q58.9 119.1 59.65 118.8 L62.45 117.3 64.5 115.55 Q62.45 111.35 61.05 106.45 59.6 101.55 58.85 96.2 L56.85 97.6 53.85 98.0 Q52.1 97.9 50.05 96.85 L46.55 94.9 42.6 92.55 39.05 90.4 36.9 91.3 34.45 91.45 Q33.2 91.25 32.15 90.6 30.5 89.5 30.05 87.75 26.75 87.5 23.85 86.5 20.95 85.45 18.85 84.15 16.8 82.85 15.95 81.65 15.45 80.85 15.25 80.0 L15.1 79.05 15.2 78.4 Q14.3 77.8 13.75 76.75 13.2 75.7 13.15 74.45 L13.45 72.95 Q12.6 72.4 12.0 71.4 11.4 70.4 11.35 68.95 L11.45 68.0 Q11.65 66.65 12.4 65.6 L14.0 63.6 15.2 62.15 Q14.8 60.2 14.8 58.65 14.8 56.6 15.3 55.05 15.75 53.55 16.5 52.45 17.25 51.3 18.1 50.6 L18.25 50.45 17.95 49.5 17.55 48.35 17.35 47.75 17.25 47.1 Q17.25 46.55 17.5 46.1 L18.05 45.4 Q18.5 45.05 19.0 44.85 L20.0 44.45 20.0 44.35 18.7 44.7 17.25 44.8 15.45 44.45 14.2 43.35 Q13.55 42.4 13.55 41.3 L13.8 40.0 14.25 39.0 12.6 39.1 10.4 39.25 8.35 39.4 7.15 39.45 7.0 41.0 6.7 42.45 6.25 42.8 4.5 42.95 2.75 43.1 1.75 43.25 1.25 43.1 Q0.5 42.2 0.1 40.65 L-0.4 37.4 -0.4 34.15 0.0 31.8 Q0.15 31.45 0.5 31.45 L1.85 31.6 3.5 31.8 4.95 31.95 5.8 32.05 Q6.1 32.05 6.2 32.3 L6.55 33.3 6.8 34.4 7.65 34.45 8.95 34.6 7.6 33.3 Q7.1 32.55 6.95 31.75 L6.9 31.3 Q6.95 30.6 7.25 30.1 7.6 29.6 8.25 29.4 L10.3 28.6 Q9.1 28.1 8.2 27.45 6.55 26.2 6.0 24.9 5.5 23.65 5.55 22.7 L5.55 22.4 Q5.05 21.25 5.05 20.2 5.05 19.1 5.5 18.15 5.9 17.25 6.55 16.65 7.15 16.2 7.7 16.15 L8.75 16.4 10.95 17.75 14.45 19.7 18.35 21.8 21.7 23.6 22.05 23.75 22.7 24.1 23.15 24.35 Q25.15 24.35 27.0 25.15 28.9 25.95 31.2 27.55 L35.7 31.1 39.75 35.25 40.45 35.5 42.05 27.35 42.15 26.95 42.3 25.95 42.5 25.0 42.65 24.2 42.8 23.45 42.9 22.9 Q42.3 21.3 42.0 19.45 41.75 17.55 41.75 15.55 L41.95 11.25 42.35 7.15 42.6 4.4 Q42.7 3.55 43.0 3.2 43.3 2.9 43.55 2.85 L44.2 2.9 45.1 3.65 47.9 6.9 Q49.7 8.7 52.1 10.4 55.35 8.3 59.15 7.15 62.9 6.0 66.7 5.7 70.55 5.35 73.95 5.8 77.4 6.25 80.0 7.35 L83.75 4.7 Q86.05 3.15 88.85 1.85 91.6 0.5 94.45 -0.25" fill="#ffffff" fill-rule="evenodd" stroke="none"/>
      <path d="M172.95 182.0 L172.65 182.55 171.9 183.8 171.55 184.3 171.05 185.05 170.55 185.6 169.2 186.2 166.1 187.4 165.05 187.75 Q160.95 188.7 155.75 187.95 152.8 187.5 150.3 186.3 141.15 181.7 131.3 178.95 115.9 174.65 103.9 184.5 L87.4 185.85 Q79.55 186.2 73.3 186.0 L62.75 185.3 56.5 184.1 Q54.5 183.45 55.15 182.8 55.55 182.35 57.05 182.05 L57.15 182.1 Q64.3 179.75 71.4 180.1 74.8 180.5 77.2 179.15 80.8 177.2 81.65 171.1 L97.9 170.2 Q107.55 175.2 117.35 171.45 120.55 170.3 124.05 169.85 L147.8 168.45 150.05 170.65 Q154.2 174.35 158.3 175.35 161.15 176.05 163.85 174.05 173.25 176.65 173.25 180.35 L172.95 182.0" fill="#000000" fill-opacity="0.15294118" fill-rule="evenodd" stroke="none"/>
      <path d="M159.7 156.35 Q162.65 159.95 164.05 164.35 165.45 168.75 165.05 174.1 164.7 177.45 162.9 179.6 161.1 181.75 158.4 182.65 155.65 183.6 152.5 183.25 149.35 182.95 146.3 181.4 143.55 179.95 141.25 177.25 138.95 174.55 137.1 171.15 135.25 167.75 133.8 164.25 L131.1 157.6 128.95 152.25 Q128.0 150.05 127.2 149.3 L125.05 147.5 122.9 145.7 120.25 143.4 116.45 140.2 113.65 137.6 110.6 134.0 108.9 131.6 106.6 128.15 104.1 124.35 101.95 120.9 100.5 118.55 102.5 116.5 Q103.65 115.4 104.95 114.6 106.2 113.75 107.4 113.5 L108.2 114.9 110.3 118.45 113.35 123.1 116.9 127.85 Q118.8 130.1 120.6 131.6 L127.4 136.45 Q130.6 138.35 133.35 139.65 L138.45 141.9 Q140.85 142.85 142.85 143.9 148.2 146.6 152.45 149.7 156.75 152.75 159.7 156.35" fill="#68142b" fill-rule="evenodd" stroke="none"/>
      <path d="M141.65 144.35 Q146.55 146.7 150.7 149.7 154.9 152.7 157.95 156.35 161.0 160.0 162.55 164.35 164.1 168.7 163.75 173.75 163.65 175.4 163.15 176.7 L160.65 173.75 157.0 171.1 159.35 173.5 161.3 175.85 162.45 178.1 Q161.4 179.8 159.75 180.8 158.1 181.8 156.0 182.05 L154.0 180.5 152.0 178.25 150.0 175.6 Q150.85 177.85 151.9 179.4 152.9 180.9 154.25 182.2 L150.5 181.65 Q148.55 181.15 146.6 180.15 143.8 178.7 141.55 176.05 139.35 173.4 137.55 170.15 135.8 166.85 134.4 163.45 L131.9 157.0 129.85 151.85 Q128.95 149.7 128.15 149.0 L125.95 147.15 123.75 145.3 121.0 142.95 117.15 139.7 114.4 137.1 111.4 133.5 109.7 131.1 107.3 127.7 104.75 123.9 102.45 120.5 101.0 118.2 Q102.15 116.75 103.55 115.65 104.95 114.6 106.65 114.25 L107.5 115.65 109.65 119.15 112.8 123.8 116.4 128.5 Q118.3 130.75 120.15 132.25 123.75 135.2 126.8 137.1 129.85 139.0 132.45 140.25 L137.35 142.4 141.65 144.35" fill="#ef384f" fill-rule="evenodd" stroke="none"/>
      <path d="M158.75 157.45 Q161.4 160.9 162.75 165.0 164.05 169.05 163.75 173.8 163.6 175.4 163.1 176.7 162.1 175.15 160.8 173.9 159.45 172.6 157.4 171.35 L157.6 170.2 Q159.9 171.0 160.85 170.25 161.8 169.5 161.7 167.55 161.65 165.6 160.8 163.0 L158.75 157.45" fill="#bc1d25" fill-rule="evenodd" stroke="none"/>
      <path d="M104.75 123.9 L102.45 120.5 101.0 118.2 Q102.15 116.75 103.55 115.65 104.95 114.6 106.65 114.25 L107.35 115.45 109.2 118.45 111.95 122.6 115.15 126.95 118.6 130.85 Q117.2 130.95 116.8 131.85 116.4 132.7 116.65 133.85 116.9 135.0 117.5 135.9 L119.35 137.65 122.75 140.05 126.8 142.75 130.5 145.15 133.0 146.9 Q134.25 147.95 134.55 149.1 L134.8 151.4 134.8 153.65 Q135.15 157.0 136.55 160.25 137.95 163.5 140.35 166.25 142.75 169.0 146.05 170.85 149.3 172.7 153.35 173.2 L155.85 173.0 Q156.95 172.65 157.4 171.45 L160.55 174.9 Q161.95 176.55 162.45 178.1 161.4 179.8 159.75 180.8 158.1 181.8 156.0 182.05 L154.0 180.5 152.0 178.25 150.0 175.6 Q150.85 177.85 151.9 179.4 152.9 180.9 154.25 182.2 L150.5 181.65 Q148.55 181.15 146.6 180.15 143.8 178.7 141.55 176.05 139.35 173.4 137.55 170.15 135.8 166.85 134.4 163.45 L131.9 157.0 129.85 151.85 Q128.95 149.7 128.15 149.0 L125.95 147.15 123.75 145.3 121.0 142.95 117.15 139.7 114.4 137.1 111.4 133.5 109.7 131.1 107.3 127.7 104.75 123.9" fill="#bc1d25" fill-rule="evenodd" stroke="none"/>
      <path d="M73.25 75.4 L73.05 76.4 72.35 78.85 71.1 81.7 Q70.25 83.15 69.05 84.15 67.85 85.15 66.2 85.2 64.15 85.15 62.2 84.5 L58.65 82.85 55.95 80.9 54.35 79.4 Q53.75 78.7 53.8 77.95 53.9 77.15 54.3 76.5 L55.15 75.5 55.85 74.65 56.7 73.65 Q57.2 73.15 58.05 73.05 L59.1 71.3 60.25 68.6 61.15 65.45 73.25 75.4" fill="#1b2e54" fill-rule="evenodd" stroke="none"/>
      <path d="M62.3 65.35 L62.65 64.5 68.75 78.35 67.85 77.85 65.75 76.6 63.1 75.15 Q61.7 74.4 60.55 73.95 L58.9 73.5 59.55 72.3 60.5 70.0 61.5 67.45 62.3 65.35" fill="#3c84bb" fill-rule="evenodd" stroke="none"/>
      <path d="M65.35 82.85 L63.45 80.7 Q62.15 79.5 60.35 78.45 58.5 77.45 56.25 77.05 55.5 77.0 55.2 77.35 L54.8 78.0 54.55 78.3 54.45 78.1 54.65 77.15 Q54.85 76.55 55.7 75.95 L56.55 75.05 57.1 74.2 Q57.3 73.8 57.65 73.8 59.2 73.75 61.05 74.5 62.9 75.25 64.55 76.5 66.25 77.7 67.25 79.1 68.25 80.5 68.15 81.8 L67.7 82.35 66.85 83.6 66.25 84.6 65.75 85.1 65.0 85.35 64.3 85.35 Q64.8 85.1 65.25 84.8 L65.75 84.1 Q65.85 83.65 65.35 82.85" fill="#bae5f0" fill-rule="evenodd" stroke="none"/>
      <path d="M59.55 78.95 L61.5 79.7 63.15 80.4 63.9 80.7 63.6 81.65 62.8 84.05 61.75 87.3 60.6 90.7 59.55 93.55 58.8 95.3 Q58.25 96.25 57.0 96.85 55.8 97.45 54.05 97.35 52.3 97.3 50.25 96.25 L47.4 94.65 44.05 92.7 40.9 90.8 38.55 89.35 37.6 88.75 42.2 82.4 43.0 82.95 45.0 84.25 47.65 85.9 50.4 87.4 52.65 88.35 54.35 86.1 55.9 83.15 57.15 80.35 57.95 78.6 59.55 78.95" fill="#68142b" fill-rule="evenodd" stroke="none"/>
      <path d="M59.2 92.35 L58.2 94.4 56.7 96.0 Q55.75 96.65 54.3 96.6 52.8 96.6 50.8 95.55 L47.9 93.95 44.6 92.0 41.5 90.05 39.2 88.6 38.25 88.05 41.8 83.4 42.7 83.9 45.0 85.2 47.95 86.85 50.8 88.45 52.85 89.5 53.75 89.85 53.8 89.65 53.5 89.2 53.4 88.9 55.1 86.2 56.6 83.15 57.8 80.45 58.45 78.8 60.1 79.15 61.85 80.1 63.3 81.1 63.85 81.55 63.35 82.7 62.15 85.55 60.65 89.1 59.2 92.35" fill="#ef384f" fill-rule="evenodd" stroke="none"/>
      <path d="M59.05 88.25 Q59.3 86.75 59.05 85.35 L58.4 82.85 57.55 81.0 58.1 79.65 58.45 78.8 60.1 79.15 61.85 80.1 63.3 81.1 63.85 81.55 63.35 82.7 62.15 85.55 60.65 89.1 59.2 92.35 58.2 94.4 56.7 96.0 Q55.75 96.65 54.3 96.6 52.8 96.6 50.8 95.55 L47.9 93.95 44.6 92.0 41.5 90.05 39.2 88.6 38.25 88.05 40.2 85.5 42.6 83.85 42.75 83.95 43.25 85.25 43.7 87.2 Q43.9 88.2 43.65 88.9 L44.5 89.3 46.5 90.35 49.1 91.65 51.55 92.9 53.25 93.7 55.45 93.55 Q56.65 93.0 57.65 91.65 58.7 90.3 59.05 88.25" fill="#bc1d25" fill-rule="evenodd" stroke="none"/>
      <path d="M43.45 81.2 Q43.8 82.65 43.25 84.65 42.7 86.25 41.65 87.5 40.6 88.75 39.3 89.55 38.0 90.35 36.75 90.65 L33.4 90.55 Q31.8 89.95 30.95 88.6 30.05 87.25 30.45 85.4 31.0 83.3 32.3 81.85 33.6 80.4 35.15 79.5 36.7 78.55 37.95 78.0 L40.05 77.85 Q41.15 78.1 42.1 78.95 43.05 79.8 43.45 81.2" fill="#1d3f60" fill-rule="evenodd" stroke="none"/>
      <path d="M42.35 84.25 Q41.65 86.4 40.05 87.9 38.5 89.4 36.45 89.95 L34.5 90.0 Q33.45 89.75 32.6 89.15 31.75 88.55 31.4 87.65 31.1 86.75 31.55 85.55 32.8 82.95 34.5 81.25 36.2 79.55 37.9 78.8 L39.7 78.6 Q40.7 78.75 41.5 79.4 42.3 80.1 42.6 81.3 42.9 82.5 42.35 84.25" fill="#ffffff" fill-rule="evenodd" stroke="none"/>
      <path d="M42.2 83.65 Q42.6 82.35 42.35 80.7 L42.7 82.25 42.35 84.3 Q41.65 86.45 40.05 87.95 38.5 89.5 36.45 90.05 35.55 90.25 34.5 90.05 33.45 89.85 32.6 89.25 31.75 88.65 31.4 87.7 31.05 86.8 31.55 85.6 L31.9 84.9 33.15 85.45 33.95 86.1 34.2 86.4 Q33.8 87.35 34.15 87.9 34.5 88.4 35.35 88.55 L37.4 88.4 Q38.2 88.2 39.2 87.6 L40.95 86.0 Q41.8 85.0 42.2 83.65" fill="#b8d2ca" fill-rule="evenodd" stroke="none"/>
      <path d="M53.4 11.65 L53.05 12.95 52.1 16.05 50.7 19.95 48.9 23.45 Q47.95 24.95 46.95 25.45 45.9 26.0 44.85 24.95 43.35 23.3 42.75 20.8 42.2 18.3 42.2 15.4 L42.55 9.6 43.1 4.25 Q43.2 3.3 43.65 3.15 44.1 3.0 44.65 3.75 L46.9 6.45 49.9 9.2 Q51.55 10.6 53.4 11.65" fill="#68142b" fill-rule="evenodd" stroke="none"/>
      <path d="M53.25 12.35 L52.95 13.55 52.05 16.5 50.7 20.1 49.05 23.35 Q48.2 24.75 47.2 25.25 46.25 25.7 45.3 24.75 43.85 23.15 43.35 20.8 42.8 18.45 42.8 15.7 L43.1 10.25 43.65 5.15 Q43.7 4.25 43.95 4.2 L44.65 4.85 46.85 7.4 Q48.2 8.75 49.85 10.05 L53.25 12.35" fill="#ef384f" fill-rule="evenodd" stroke="none"/>
      <path d="M114.45 40.95 Q114.85 41.15 114.25 42.1 L113.1 43.6 111.9 44.6 110.5 45.5 111.55 45.3 112.6 45.35 Q113.1 45.45 113.05 45.8 L112.2 46.9 108.85 49.9 104.05 53.85 97.95 58.1 Q94.5 60.2 90.45 61.95 86.35 63.75 81.65 64.85 76.95 65.95 71.6 66.05 63.95 66.1 57.8 64.45 51.65 62.85 46.9 60.0 42.15 57.2 38.75 53.7 35.3 50.2 33.05 46.6 35.6 46.15 37.2 44.3 38.8 42.45 39.8 39.5 40.8 36.55 41.5 32.75 L43.0 24.5 Q43.9 19.85 46.25 16.5 48.6 13.15 51.9 10.9 55.25 8.7 59.1 7.5 62.95 6.3 66.8 6.0 L74.1 6.2 Q77.55 6.65 80.05 7.8 81.55 6.55 83.9 5.0 86.2 3.5 88.95 2.15 91.75 0.8 94.55 0.1 95.4 -0.1 96.2 0.1 97.0 0.3 97.25 1.55 L97.25 4.15 96.9 8.2 96.2 13.2 95.2 18.65 99.95 28.4 103.6 34.85 Q105.2 37.35 106.5 38.7 107.75 40.05 108.85 40.6 L110.95 41.1 113.15 40.95 Q114.05 40.8 114.45 40.95" fill="#68142b" fill-rule="evenodd" stroke="none"/>
      <path d="M96.0 0.9 Q96.45 1.2 96.5 1.75 96.65 2.8 96.4 5.2 L95.65 10.8 94.45 17.4 Q93.25 15.6 91.75 14.4 L88.95 12.45 86.8 11.5 Q89.55 13.25 91.45 15.2 93.4 17.15 94.55 19.45 L99.35 29.2 Q101.5 33.2 103.15 35.7 104.8 38.2 106.15 39.55 107.5 40.9 108.65 41.45 L110.9 42.0 113.15 41.8 111.95 43.4 109.9 45.25 Q108.6 46.15 106.7 46.85 L108.2 46.6 110.1 46.5 111.75 46.4 108.2 49.15 103.55 52.95 97.65 57.2 Q94.4 59.3 90.45 61.05 86.55 62.8 81.85 63.85 77.2 64.9 71.75 64.9 64.15 64.85 58.15 63.4 52.15 61.95 47.65 59.45 43.1 56.9 39.8 53.7 36.55 50.5 34.3 46.85 36.85 46.4 38.35 44.55 39.9 42.7 40.8 39.75 L42.35 33.0 43.75 24.75 Q44.65 20.15 46.95 16.8 49.25 13.5 52.5 11.35 55.8 9.25 59.55 8.15 63.35 7.05 67.15 6.8 L74.35 7.1 Q77.75 7.65 80.25 8.75 L81.5 9.3 82.75 9.75 83.35 10.0 82.95 9.65 81.95 8.95 80.95 8.25 84.7 5.55 Q86.9 4.05 89.4 2.8 91.95 1.55 94.5 0.85 L96.0 0.9" fill="#ef384f" fill-rule="evenodd" stroke="none"/>
      <path d="M95.6 4.4 L96.15 1.05 96.5 1.75 96.4 5.2 95.65 10.8 94.45 17.4 Q93.25 15.6 91.75 14.4 L88.95 12.5 86.8 11.55 Q89.5 13.3 91.45 15.2 93.4 17.15 94.55 19.45 L99.35 29.2 Q101.5 33.2 103.15 35.7 104.8 38.2 106.15 39.55 107.5 40.9 108.65 41.45 L110.9 42.0 113.15 41.8 111.95 43.4 109.9 45.25 Q108.6 46.15 106.7 46.85 L108.2 46.6 110.1 46.5 111.75 46.4 108.2 49.15 103.55 53.0 Q100.9 55.1 97.65 57.2 94.4 59.3 90.45 61.05 86.55 62.8 81.85 63.85 77.2 64.9 71.75 64.9 64.3 64.85 58.4 63.45 52.5 62.05 48.0 59.6 43.5 57.2 40.2 54.05 36.9 50.95 34.65 47.4 L39.0 50.1 Q41.25 51.2 43.0 51.6 44.75 51.95 45.55 51.1 45.9 50.75 47.75 50.0 L52.5 48.3 59.0 46.2 66.4 44.0 73.95 41.85 80.85 40.0 86.2 38.7 89.3 38.1 Q91.7 37.95 92.55 36.15 93.4 34.35 93.15 31.15 92.85 28.0 91.75 23.7 L90.7 19.4 89.65 16.1 Q89.05 14.65 88.05 13.35 87.0 12.05 85.35 10.65 L88.1 11.75 90.7 12.8 92.25 12.85 93.15 11.25 94.4 8.15 95.6 4.4" fill="#bc1d25" fill-rule="evenodd" stroke="none"/>
      <path d="M56.0 25.35 L56.8 29.85 Q57.1 32.25 57.05 34.6 57.0 36.35 56.45 37.35 55.85 38.3 54.9 38.7 L52.95 39.2 51.0 39.35 Q49.9 37.55 49.15 35.15 48.35 32.75 47.95 30.15 47.55 27.55 47.6 25.25 47.7 22.9 48.35 21.25 49.0 19.65 50.3 19.15 51.6 18.7 52.7 19.4 53.75 20.1 54.6 21.7 55.45 23.25 56.0 25.35" fill="#ffffff" fill-rule="evenodd" stroke="none"/>
      <path d="M55.6 26.95 Q56.2 27.5 56.65 28.55 L57.0 31.6 57.1 34.6 Q57.05 36.35 56.45 37.35 55.9 38.3 54.95 38.7 54.05 38.05 53.35 36.7 52.6 35.3 52.25 33.45 L55.1 32.15 52.05 32.25 Q51.7 29.25 52.35 27.9 53.0 26.55 54.25 26.45 55.0 26.4 55.6 26.95" fill="#111111" fill-rule="evenodd" stroke="none"/>
      <path d="M54.9 22.2 L55.65 23.35 Q55.85 23.7 55.55 24.05 54.15 22.4 52.75 22.05 L50.15 22.25 Q49.0 22.9 48.3 24.2 47.65 25.55 47.7 27.3 L46.4 27.15 Q45.75 26.85 45.25 26.15 44.8 25.5 44.7 24.65 44.9 25.4 45.4 25.7 45.85 26.05 46.4 26.05 L47.4 25.9 Q47.5 23.75 48.35 22.55 49.2 21.3 50.4 20.9 L52.85 20.85 Q54.05 21.2 54.9 22.2" fill="#3f003a" fill-rule="evenodd" stroke="none"/>
      <path d="M54.85 22.15 L53.1 20.9 51.0 20.75 Q49.95 20.95 49.05 21.7 48.15 22.5 47.7 23.95 47.9 22.1 48.55 20.8 49.15 19.55 50.3 19.15 51.7 18.7 52.85 19.5 54.0 20.35 54.85 22.15" fill="#bb0025" fill-rule="evenodd" stroke="none"/>
      <path d="M47.65 27.35 L47.75 28.65 46.8 28.75 45.7 28.6 Q45.2 28.35 44.85 27.7 L46.5 27.85 47.65 27.35" fill="#3f003a" fill-rule="evenodd" stroke="none"/>
      <path d="M53.95 16.3 Q53.5 15.35 52.6 14.8 51.7 14.25 50.65 14.35 49.6 14.4 48.65 15.35 47.65 16.25 47.0 18.25 47.4 15.85 48.4 14.6 49.4 13.3 50.55 13.1 51.7 12.9 52.65 13.7 53.6 14.5 53.95 16.3" fill="#58001b" fill-rule="evenodd" stroke="none"/>
      <path d="M102.75 37.6 L100.95 34.0 99.7 30.85 98.6 27.75 102.65 34.95 Q104.45 37.75 105.85 39.25 107.3 40.75 108.5 41.35 109.7 41.95 110.8 41.95 L113.15 41.8 112.35 42.9 111.15 44.2 111.75 43.0 112.0 42.45 111.1 42.7 Q110.2 42.9 108.8 42.7 107.4 42.5 105.8 41.35 104.2 40.2 102.75 37.6" fill="#ef384f" fill-rule="evenodd" stroke="none"/>
      <path d="M111.75 46.4 Q110.1 47.5 107.8 49.45 L102.5 53.75 95.75 58.35 Q91.95 60.6 87.35 62.25 92.6 59.8 96.85 57.15 L104.15 52.15 108.9 48.4 110.55 46.95 107.6 46.7 109.0 46.55 110.5 46.45 111.75 46.4" fill="#ef384f" fill-rule="evenodd" stroke="none"/>
      <path d="M74.85 13.45 Q73.95 14.55 72.8 16.35 72.5 16.85 72.1 18.1 L71.2 21.0 70.15 24.2 68.95 26.8 Q68.35 27.85 67.75 27.95 L67.55 26.1 66.9 24.7 65.75 22.95 65.1 21.8 Q64.95 21.45 65.45 21.7 66.1 22.0 67.1 21.3 L69.1 19.4 71.0 16.95 72.2 14.9 Q72.7 13.95 73.45 13.25 74.25 12.55 75.15 12.2 76.05 11.8 76.8 11.75 75.7 12.35 74.85 13.45" fill="#bc1d25" fill-rule="evenodd" stroke="none"/>
      <path d="M68.0 20.25 L70.55 17.55 72.2 15.1 Q72.9 14.05 73.45 13.85 77.9 13.4 79.2 18.35 80.5 23.3 78.95 33.35 L77.25 33.25 74.6 33.15 71.75 33.1 69.45 33.05 68.55 33.05 Q67.8 31.05 67.6 28.75 67.35 26.45 67.5 24.2 L68.0 20.25" fill="#ffffff" fill-rule="evenodd" stroke="none"/>
      <path d="M78.6 23.05 Q79.45 24.05 79.75 25.85 L78.95 33.35 77.5 33.25 75.2 33.15 72.6 33.1 Q72.05 31.55 72.0 29.1 L76.0 28.75 72.05 27.6 Q72.3 25.45 72.95 24.2 73.6 22.95 74.55 22.4 75.5 21.9 76.5 21.95 77.75 22.05 78.6 23.05" fill="#111111" fill-rule="evenodd" stroke="none"/>
      <path d="M84.5 17.75 Q84.15 18.8 83.45 19.45 L81.9 20.6 80.15 21.55 82.0 21.25 Q83.25 20.85 84.8 19.95 84.0 21.25 82.9 21.9 81.85 22.6 80.95 22.8 L79.95 22.85 Q79.4 20.4 78.0 19.2 76.6 18.0 74.8 17.85 73.0 17.7 71.2 18.35 69.4 19.0 68.0 20.25 69.8 17.45 71.9 16.55 L76.0 16.45 Q78.1 17.2 79.8 19.35 L81.4 19.3 83.05 18.8 84.5 17.75" fill="#3f003a" fill-rule="evenodd" stroke="none"/>
      <path d="M79.35 18.8 Q77.45 16.7 75.2 16.2 73.0 15.75 70.8 17.2 L72.3 14.95 Q72.95 14.0 73.45 13.85 78.1 13.4 79.35 18.8" fill="#bb0025" fill-rule="evenodd" stroke="none"/>
      <path d="M74.5 12.4 Q76.05 11.5 77.65 11.5 L78.15 11.65 Q78.25 11.8 77.75 11.8 L76.5 12.15 74.55 13.25 Q73.5 14.05 72.55 15.35 L70.6 18.05 68.6 20.6 66.75 22.15 65.4 22.05 Q64.7 21.7 64.2 20.3 64.1 19.9 64.3 19.85 L64.65 20.15 Q65.2 21.15 66.0 21.0 66.75 20.9 67.7 19.95 L69.65 17.7 71.7 14.9 Q72.9 13.3 74.5 12.4" fill="#58001b" fill-rule="evenodd" stroke="none"/>
      <path d="M84.7 34.15 Q89.2 35.85 91.8 38.75 94.4 41.6 94.9 45.35 95.35 49.1 93.5 53.4 91.95 56.85 89.05 59.25 86.1 61.6 82.2 63.0 78.3 64.35 73.95 64.8 69.6 65.25 65.2 64.85 60.8 64.4 56.85 63.15 52.95 61.95 49.9 59.95 46.85 57.95 45.15 55.25 42.8 51.4 42.85 47.95 42.9 44.5 45.05 41.65 47.15 38.8 51.0 36.75 54.85 34.7 60.15 33.55 67.8 32.0 74.0 32.2 80.2 32.4 84.7 34.15" fill="#8c3000" fill-rule="evenodd" stroke="none"/>
      <path d="M84.25 34.5 Q88.55 36.15 91.05 38.95 93.5 41.7 93.95 45.35 94.4 49.0 92.6 53.15 91.1 56.5 88.25 58.8 85.4 61.15 81.65 62.45 77.9 63.75 73.7 64.2 69.45 64.6 65.25 64.15 61.0 63.7 57.2 62.45 53.4 61.2 50.45 59.25 47.5 57.3 45.85 54.7 43.55 50.95 43.6 47.65 43.65 44.35 45.75 41.7 47.8 39.0 51.55 37.05 55.3 35.1 60.45 34.05 67.9 32.5 73.9 32.7 79.9 32.9 84.25 34.5" fill="#fee36a" fill-rule="evenodd" stroke="none"/>
      <path d="M61.5 36.75 L59.6 39.2 Q58.6 40.2 57.25 40.7 L54.2 41.0 Q52.9 40.85 52.25 40.25 51.6 39.7 51.5 38.95 51.4 38.25 51.7 37.65 52.05 37.05 52.7 36.8 L54.25 36.55 56.55 36.55 58.9 36.6 60.75 36.7 61.5 36.75" fill="#e5ba4b" fill-rule="evenodd" stroke="none"/>
      <path d="M51.0 34.9 Q51.4 33.55 52.7 32.6 54.0 31.6 55.75 31.25 57.45 30.9 59.1 31.3 60.75 31.75 61.75 33.25 62.6 34.6 62.1 35.85 61.65 37.05 60.3 38.0 59.0 38.9 57.35 39.3 55.7 39.7 54.15 39.35 52.6 39.05 51.65 37.8 50.6 36.3 51.0 34.9" fill="#111111" fill-rule="evenodd" stroke="none"/>
      <path d="M60.7 33.2 Q59.2 32.25 57.5 32.15 55.85 32.05 54.4 32.6 52.95 33.15 52.1 34.1 51.25 35.05 51.35 36.1 51.1 35.0 51.7 34.1 52.3 33.15 53.4 32.5 54.55 31.8 55.95 31.6 L58.55 31.75 Q59.85 32.1 60.7 33.2" fill="#513e47" fill-rule="evenodd" stroke="none"/>
      <path d="M52.55 33.45 Q53.0 32.8 53.85 32.45 L55.65 32.2 Q56.5 32.3 56.95 33.0 57.3 33.6 56.85 34.2 L55.55 35.1 53.85 35.4 Q53.0 35.35 52.55 34.75 52.15 34.05 52.55 33.45" fill="#513e47" fill-rule="evenodd" stroke="none"/>
      <path d="M53.05 33.2 Q53.4 32.7 54.15 32.4 L55.55 32.2 Q56.25 32.25 56.65 32.85 56.9 33.35 56.55 33.8 L55.45 34.55 54.1 34.8 Q53.4 34.75 53.05 34.3 52.7 33.7 53.05 33.2" fill="#d6c8d1" fill-rule="evenodd" stroke="none"/>
      <path d="M57.9 38.8 L55.35 39.2 Q54.05 39.2 52.95 38.6 52.3 38.2 52.5 38.0 52.7 37.8 53.15 37.7 L53.95 37.7 57.55 37.9 Q58.95 37.75 59.85 37.25 L61.5 36.15 60.1 37.65 Q59.15 38.35 57.9 38.8" fill="#32262d" fill-rule="evenodd" stroke="none"/>
      <path d="M87.1 38.0 L89.3 38.2 Q90.05 38.1 89.65 37.55 93.0 40.4 93.8 44.4 94.6 48.4 92.6 53.15 91.1 56.5 88.25 58.8 85.4 61.1 81.65 62.45 77.9 63.75 73.7 64.15 69.45 64.55 65.25 64.1 61.0 63.7 57.2 62.45 53.4 61.2 50.45 59.25 47.5 57.3 45.85 54.7 L45.75 54.55 Q49.95 57.1 54.45 58.0 L63.2 58.4 Q67.45 57.95 71.15 56.4 74.8 54.9 77.4 52.7 81.0 49.65 82.3 46.9 83.6 44.2 82.45 42.25 81.25 40.3 77.35 39.6 76.4 41.4 75.3 42.5 L73.15 44.05 71.05 44.9 73.9 42.35 75.2 40.6 Q75.5 39.85 75.4 38.9 L74.55 38.35 73.75 38.05 73.45 37.95 Q76.05 36.65 78.65 36.4 81.3 36.15 83.85 37.1 L87.1 38.0" fill="#e5ba4b" fill-rule="evenodd" stroke="none"/>
      <path d="M78.2 39.1 L77.8 38.9 Q77.7 40.85 76.15 42.4 74.55 43.95 71.85 44.95 69.15 46.0 65.55 46.35 L65.15 46.25 Q65.1 46.15 65.35 46.1 L70.8 44.65 Q73.15 43.75 74.65 42.25 76.15 40.75 76.6 38.55 L75.7 38.35 74.6 38.25 74.4 38.1 74.95 37.95 76.6 37.95 78.2 38.2 Q78.95 38.4 79.3 38.75 L79.65 39.3 79.3 39.55 78.7 39.4 78.2 39.1" fill="#7b2d00" fill-rule="evenodd" stroke="none"/>
      <path d="M108.3 98.45 Q111.05 101.65 113.0 105.2 114.95 108.75 115.95 112.2 115.85 113.0 115.2 114.0 114.5 115.05 112.95 116.1 111.4 117.2 108.65 118.15 105.9 119.15 101.65 119.9 L91.4 120.95 80.9 123.05 71.35 123.85 61.7 122.65 59.6 121.7 Q58.75 121.05 58.7 120.35 58.65 119.6 59.8 119.05 61.6 118.3 62.85 117.45 L65.05 115.5 Q62.85 111.05 61.45 106.05 60.0 101.05 59.25 95.85 58.55 90.7 58.5 85.7 58.5 80.65 59.1 76.2 59.75 71.7 61.05 68.1 L61.8 65.15 62.25 62.1 62.5 59.75 62.55 58.75 62.5 58.0 Q62.45 57.3 62.85 56.45 63.3 55.6 64.7 55.2 L65.75 55.1 66.45 55.35 66.65 55.5 67.2 55.4 68.3 55.25 69.3 55.1 Q69.9 55.05 70.55 55.45 L71.65 56.55 75.05 56.5 79.35 57.0 Q81.6 57.5 83.55 59.0 85.45 60.45 86.55 63.4 87.4 65.8 87.6 68.1 L87.9 72.65 Q87.95 74.9 88.4 77.05 88.8 79.2 90.0 81.25 L92.35 84.65 94.8 87.25 97.9 89.7 102.15 92.75 Q105.55 95.2 108.3 98.45" fill="#1b2e54" fill-rule="evenodd" stroke="none"/>
      <path d="M83.3 60.15 Q85.05 61.65 86.05 64.5 86.65 66.4 86.8 68.65 L87.1 73.25 Q87.25 75.6 87.7 77.85 88.2 80.1 89.35 82.1 L91.3 84.9 93.2 87.1 95.45 89.0 93.85 88.55 89.4 87.8 Q86.6 87.5 82.8 87.7 79.05 87.95 74.65 89.15 70.7 90.3 68.05 91.65 65.4 93.05 63.8 94.45 62.25 95.9 61.55 97.05 60.85 98.25 60.85 98.95 59.8 93.4 59.6 87.95 59.35 82.45 59.9 77.6 60.5 72.7 61.8 68.95 L62.55 66.15 63.0 63.2 63.25 60.9 63.3 60.0 63.3 61.2 63.4 64.1 63.6 67.75 64.0 71.05 Q64.25 72.5 64.65 73.05 L65.7 74.25 66.6 74.55 67.85 74.3 70.15 73.65 71.75 73.4 72.55 73.35 72.75 73.2 73.4 73.2 75.0 73.4 75.05 73.45 76.0 74.5 76.5 75.4 76.75 75.8 76.75 75.25 76.5 74.35 75.9 73.6 77.55 74.1 79.1 75.0 Q79.45 75.3 79.45 75.1 L79.2 74.65 Q77.95 73.5 76.8 73.0 75.7 72.5 74.8 72.35 L73.4 72.1 Q74.2 69.6 74.15 66.8 74.1 64.05 73.5 61.55 72.9 59.05 72.05 57.35 L75.3 57.35 Q77.25 57.45 79.4 58.05 81.5 58.65 83.3 60.15" fill="#3c84bb" fill-rule="evenodd" stroke="none"/>
      <path d="M71.65 59.15 Q72.4 60.9 72.75 62.95 73.15 65.0 73.15 67.0 73.1 68.95 72.6 70.5 72.15 72.05 71.15 72.8 L70.6 72.85 69.4 73.0 68.1 73.2 67.15 73.45 66.25 73.4 65.4 72.9 64.9 72.25 66.1 72.65 67.15 72.55 Q67.6 72.25 67.95 71.1 68.35 69.75 68.4 67.5 68.4 65.3 67.85 62.75 67.3 60.15 65.85 57.75 L65.1 57.1 64.4 57.05 63.9 57.2 63.4 57.2 Q63.25 57.1 63.5 56.95 L64.1 56.55 65.05 56.2 66.4 56.3 67.9 56.3 69.1 56.1 69.9 56.25 Q70.95 57.35 71.65 59.15" fill="#bae5f0" fill-rule="evenodd" stroke="none"/>
      <path d="M98.75 91.3 L93.2 90.4 86.85 90.2 80.1 90.95 Q76.75 91.5 73.6 92.65 69.7 94.15 67.35 96.0 65.0 97.85 63.8 99.6 62.6 101.35 62.25 102.5 L61.9 103.65 61.45 102.0 61.1 100.3 Q61.2 98.45 62.7 96.6 64.2 94.7 66.85 93.1 69.55 91.45 73.25 90.3 76.45 89.25 80.25 88.7 L88.05 88.25 Q92.05 88.35 96.1 89.4 L98.75 91.3" fill="#e8c934" fill-rule="evenodd" stroke="none"/>
      <path d="M113.75 108.7 Q113.2 110.75 111.65 112.1 110.1 113.45 107.5 114.35 L101.2 116.15 95.35 116.8 89.05 116.45 82.1 115.5 74.45 114.55 Q71.35 114.25 69.55 114.5 67.7 114.75 66.95 115.15 L66.2 115.55 66.8 114.25 66.95 112.95 66.9 112.35 66.8 112.8 66.45 113.75 65.85 114.8 63.8 109.85 62.1 104.55 Q63.0 101.05 65.2 98.6 67.45 96.1 70.65 94.5 73.85 92.85 77.55 92.0 L85.2 90.9 Q89.1 90.7 92.75 90.9 L99.35 91.75 101.15 93.0 Q105.25 95.95 108.5 100.0 111.7 104.0 113.75 108.7" fill="#3c84bb" fill-rule="evenodd" stroke="none"/>
      <path d="M114.1 109.15 L114.75 110.75 115.3 112.35 Q114.9 113.35 113.95 114.35 113.05 115.35 111.25 116.3 109.4 117.25 106.3 118.05 L98.3 119.55 91.15 119.9 83.55 119.4 75.8 118.6 68.35 118.05 63.9 118.4 Q62.0 118.75 60.7 119.35 L58.65 120.6 Q58.6 120.2 59.15 119.8 L60.5 119.05 63.0 117.65 64.8 116.2 67.75 115.45 70.25 115.1 72.9 115.1 76.1 115.4 80.75 116.05 86.9 116.85 93.55 117.25 99.95 116.65 106.7 115.05 Q109.5 114.15 111.35 112.8 113.2 111.4 114.1 109.15" fill="#e8c934" fill-rule="evenodd" stroke="none"/>
      <path d="M77.6 80.25 L73.4 76.7 70.5 73.55 Q70.3 73.25 70.45 73.25 L70.8 73.3 71.05 73.35 72.85 75.5 75.75 78.15 79.05 80.75 Q79.35 81.0 79.3 81.3 L78.95 81.6 75.2 82.1 Q73.25 82.5 71.45 83.2 L70.95 83.25 70.2 82.8 68.5 80.75 66.5 78.0 64.8 74.9 65.3 74.6 Q65.85 74.3 67.3 73.95 L67.4 74.35 67.05 74.45 66.25 74.7 65.45 75.0 Q66.95 77.65 68.2 79.35 L70.4 82.1 71.0 82.55 72.0 82.5 73.6 82.05 75.85 81.55 77.8 81.15 Q78.3 81.1 78.2 80.9 L77.6 80.25" fill="#1b2e54" fill-rule="evenodd" stroke="none"/>
      <path d="M59.45 82.5 L59.35 81.45 59.4 80.5 59.4 80.1 Q59.6 81.95 59.95 83.15 L60.8 85.15 61.65 86.4 60.9 87.75 60.0 89.4 Q59.55 90.3 59.4 91.2 L59.2 90.45 Q59.15 90.05 59.45 89.25 L60.05 88.15 60.65 87.05 60.95 86.55 60.65 85.9 59.95 84.35 59.45 82.5" fill="#1b2e54" fill-rule="evenodd" stroke="none"/>
      <path d="M84.45 120.3 L87.2 124.75 89.95 129.85 92.2 135.15 Q93.15 137.75 93.45 139.95 93.75 142.2 93.35 145.15 L92.2 151.3 90.35 157.7 88.25 163.5 Q94.05 163.45 98.15 164.95 102.2 166.45 104.65 168.95 107.05 171.45 107.9 174.35 L108.45 177.2 Q108.55 178.55 107.7 179.7 106.8 180.8 104.45 181.5 100.7 182.6 96.6 183.15 L88.45 183.85 80.6 183.85 73.8 183.4 68.7 182.75 66.0 182.15 Q63.9 181.4 62.85 180.2 61.8 179.0 61.95 177.2 62.1 175.4 63.6 172.85 65.65 169.4 68.05 166.05 L72.85 159.4 77.25 152.95 Q79.25 149.75 80.5 146.6 81.75 143.5 81.9 140.45 81.9 139.1 81.5 137.05 L80.45 132.65 79.05 127.9 77.65 123.6 76.55 120.45 76.1 119.25 84.45 120.3" fill="#68142b" fill-rule="evenodd" stroke="none"/>
      <path d="M83.35 120.05 L86.1 124.65 88.9 130.0 91.15 135.35 Q92.1 138.0 92.45 140.1 92.7 142.3 92.35 145.2 L91.2 151.3 89.4 157.7 87.4 163.5 Q83.25 163.75 80.35 164.6 77.5 165.45 75.6 166.9 76.45 166.3 78.15 165.6 L82.3 164.5 87.75 164.05 95.15 164.9 Q98.3 165.7 100.5 167.05 102.7 168.35 104.05 169.9 105.45 171.4 106.2 172.85 L107.1 175.4 Q107.55 177.4 107.05 178.55 106.55 179.7 104.7 180.35 104.55 176.05 103.0 173.4 101.4 170.75 98.85 169.5 96.35 168.25 93.45 168.2 98.2 168.75 100.8 171.9 103.45 175.0 103.45 180.8 99.2 181.95 94.75 182.5 94.65 178.05 93.2 175.25 91.8 172.45 89.4 171.1 87.0 169.7 84.1 169.6 88.45 170.35 90.8 173.6 93.15 176.85 93.35 182.65 L84.15 183.1 75.95 182.8 69.7 182.15 66.35 181.45 Q64.3 180.65 63.4 179.6 62.5 178.5 62.8 176.8 63.1 175.15 64.65 172.55 66.65 169.15 69.1 165.8 L73.9 159.3 78.3 152.9 Q80.3 149.75 81.55 146.65 82.8 143.6 82.95 140.55 L82.5 136.85 81.3 131.95 79.7 126.75 78.2 122.25 77.15 119.3 83.35 120.05" fill="#ef384f" fill-rule="evenodd" stroke="none"/>
      <path d="M8.85 34.9 L7.9 35.25 6.45 35.2 5.0 34.85 4.05 34.45 3.35 33.65 2.55 32.35 1.85 31.1 1.55 30.55 1.75 30.05 2.55 29.5 Q2.1 29.85 2.2 30.4 L2.85 31.85 4.0 33.15 6.05 34.4 8.85 34.9" fill="#ffffff" fill-rule="evenodd" stroke="none"/>
      <path d="M63.35 62.85 L63.45 65.5 63.65 68.3 63.95 70.8 Q63.65 70.95 63.45 71.25 L62.55 73.1 61.65 75.0 60.8 76.25 Q60.4 76.65 60.1 76.15 60.7 72.15 61.8 68.95 L62.6 65.9 63.05 62.8 63.35 62.85" fill="#1d5383" fill-rule="evenodd" stroke="none"/>
      <path d="M75.05 73.45 L76.1 74.65 73.2 73.25 75.05 73.45" fill="#1d5383" fill-rule="evenodd" stroke="none"/>
      <path d="M73.4 72.15 L74.0 69.4 74.15 66.5 Q76.1 67.7 77.65 69.4 79.25 71.1 80.3 72.75 L81.7 75.35 Q82.25 77.0 81.5 77.4 80.8 77.75 79.3 76.6 L78.3 75.95 76.65 75.0 76.45 74.3 75.85 73.6 Q76.7 73.8 77.55 74.15 L79.05 75.05 79.45 75.15 79.15 74.7 Q77.95 73.55 76.8 73.05 75.7 72.55 74.8 72.4 L73.4 72.15" fill="#1d5383" fill-rule="evenodd" stroke="none"/>
      <path d="M94.0 90.5 L91.5 88.55 96.05 89.4 98.7 91.3 94.0 90.5" fill="#cf8705" fill-rule="evenodd" stroke="none"/>
      <path d="M89.35 82.1 L91.3 84.95 93.2 87.1 95.45 89.0 94.25 88.65 90.95 88.05 Q89.25 86.15 88.45 84.0 87.6 81.9 87.4 79.5 L87.2 74.55 87.85 78.5 Q88.35 80.4 89.35 82.1" fill="#1d5383" fill-rule="evenodd" stroke="none"/>
      <path d="M101.15 93.05 Q105.25 96.0 108.45 100.0 111.65 104.05 113.75 108.7 L113.1 110.3 Q111.35 106.3 108.7 102.9 106.0 99.5 102.55 96.55 99.1 93.65 95.0 91.15 L99.35 91.8 101.15 93.05" fill="#1d5383" fill-rule="evenodd" stroke="none"/>
      <path d="M91.05 117.15 Q94.05 117.3 96.9 117.05 L102.15 118.9 98.25 119.55 91.15 119.85 83.55 119.35 75.8 118.55 68.3 118.05 68.25 118.05 Q68.65 117.55 69.75 117.15 70.3 117.0 70.7 116.45 L71.4 115.05 73.5 115.1 76.05 115.35 80.05 115.95 85.25 116.65 91.05 117.15" fill="#cf8705" fill-rule="evenodd" stroke="none"/>
      <path d="M96.2 116.8 L89.65 116.5 82.45 115.6 74.45 114.55 71.55 114.4 Q71.75 113.25 71.6 111.9 71.45 110.5 70.75 109.1 70.1 107.65 68.9 106.4 68.25 105.75 68.4 105.45 L69.7 105.3 73.4 106.35 Q76.45 107.45 79.8 109.15 L87.2 112.8 Q91.2 114.8 96.2 116.8" fill="#1d5383" fill-rule="evenodd" stroke="none"/>
      <path d="M29.05 42.25 L26.25 42.4 23.55 42.7 21.75 43.0 19.8 43.7 17.2 44.15 Q15.95 44.15 15.15 43.5 14.35 42.9 14.1 41.95 13.85 41.05 14.2 40.0 14.55 39.05 15.4 38.0 L17.6 36.1 Q18.95 35.25 20.65 34.8 L24.4 34.6 Q26.0 34.8 27.25 35.6 L29.25 37.5 30.3 39.65 Q30.55 40.75 30.25 41.45 29.95 42.15 29.05 42.25" fill="#1d3f60" fill-rule="evenodd" stroke="none"/>
      <path d="M27.85 41.75 L25.35 41.9 23.05 42.15 21.45 42.45 19.7 43.05 17.25 43.5 Q16.25 43.5 15.65 43.0 15.05 42.45 14.85 41.65 14.65 40.8 14.95 39.9 15.4 38.75 16.65 37.55 17.9 36.35 19.8 35.6 21.75 34.9 24.2 35.15 26.0 35.4 27.2 36.4 28.4 37.4 28.9 38.6 29.4 39.85 29.15 40.75 28.9 41.65 27.85 41.75" fill="#ffffff" fill-rule="evenodd" stroke="none"/>
      <path d="M28.95 41.15 Q28.6 41.7 27.8 41.75 L25.35 41.95 23.05 42.15 21.45 42.45 19.65 43.1 17.2 43.55 16.35 43.4 Q17.45 43.25 17.65 42.8 17.8 42.35 17.55 41.6 L16.95 40.0 26.3 35.85 26.55 36.0 28.95 41.15" fill="#b8d2ca" fill-rule="evenodd" stroke="none"/>
      <path d="M36.55 63.0 Q37.55 63.1 38.25 63.8 38.95 64.55 39.1 65.75 L39.3 68.2 39.7 70.3 40.2 72.65 Q40.5 74.05 40.25 75.3 L39.7 77.75 Q39.4 78.9 39.45 79.9 L39.2 81.7 Q38.9 82.8 38.2 84.0 L36.25 86.0 Q35.0 86.85 33.2 87.1 L27.7 86.9 Q25.0 86.4 22.65 85.4 20.3 84.45 18.65 83.35 17.0 82.2 16.35 81.25 15.85 80.45 15.7 79.75 15.55 78.8 15.8 78.0 L16.45 76.7 17.25 75.9 Q18.3 75.1 20.1 74.05 L24.0 71.8 28.05 69.4 31.4 67.2 Q32.75 66.15 33.1 65.45 33.65 64.05 34.6 63.45 35.55 62.9 36.55 63.0" fill="#1d3f60" fill-rule="evenodd" stroke="none"/>
      <path d="M36.6 63.7 Q37.4 63.85 37.95 64.5 38.5 65.15 38.5 66.1 38.5 67.45 38.65 68.5 L39.1 70.5 39.65 72.8 Q39.95 74.1 39.7 75.35 L39.15 77.8 Q38.85 78.95 38.9 79.95 L38.65 81.6 37.7 83.65 Q37.0 84.65 35.8 85.45 34.65 86.2 32.95 86.4 L27.75 86.2 Q25.15 85.75 22.95 84.85 20.75 83.95 19.15 82.85 17.6 81.8 17.0 80.9 16.5 80.15 16.35 79.5 16.2 78.7 16.4 78.05 L17.0 77.0 17.7 76.35 Q18.7 75.6 20.5 74.55 L24.45 72.25 28.55 69.8 31.95 67.55 33.65 65.8 Q34.2 64.5 35.0 64.0 35.8 63.55 36.6 63.7" fill="#ffffff" fill-rule="evenodd" stroke="none"/>
      <path d="M30.75 69.1 L33.85 66.2 Q35.05 65.05 35.25 65.05 L36.1 65.05 Q36.6 65.1 37.1 65.6 37.6 66.15 37.85 67.6 L38.0 69.6 38.05 72.3 38.05 75.1 38.15 77.6 Q38.25 79.1 37.7 80.2 37.2 81.3 36.3 81.8 35.35 82.35 34.3 82.2 L32.15 82.15 29.15 82.5 25.95 82.75 23.2 82.7 20.5 82.05 18.95 81.25 Q18.55 80.85 18.95 80.65 L20.15 79.5 23.05 76.6 26.9 72.85 30.75 69.1" fill="#b8d2ca" fill-rule="evenodd" stroke="none"/>
      <path d="M24.7 26.2 L23.8 26.7 21.8 27.8 Q20.65 28.4 19.7 28.95 L18.5 29.65 15.55 29.35 11.9 28.55 Q10.0 27.95 8.45 26.85 6.7 25.55 6.25 24.1 5.8 22.65 6.1 21.4 6.45 20.2 7.15 19.6 7.85 19.0 8.55 19.3 L11.0 20.5 14.95 22.2 19.25 23.95 22.85 25.45 Q24.35 26.05 24.7 26.2" fill="#1d3f60" fill-rule="evenodd" stroke="none"/>
      <path d="M24.45 26.75 L23.6 27.1 21.75 27.95 Q20.7 28.4 19.8 28.8 18.9 29.2 18.7 29.35 L15.35 28.7 12.2 27.95 Q10.65 27.45 9.1 26.4 7.65 25.35 7.2 24.1 6.7 22.9 6.9 21.85 7.1 20.85 7.7 20.3 8.25 19.8 8.85 20.1 L11.2 21.25 14.95 22.85 19.15 24.6 22.65 26.0 24.45 26.75" fill="#ffffff" fill-rule="evenodd" stroke="none"/>
      <path d="M20.3 31.9 Q21.75 31.9 22.9 32.55 24.1 33.25 24.75 34.4 25.45 35.55 25.5 37.0 25.5 38.45 24.8 39.6 24.15 40.75 23.0 41.45 21.8 42.15 20.4 42.15 18.95 42.15 17.8 41.5 16.65 40.8 15.95 39.65 15.25 38.5 15.2 37.05 15.2 35.65 15.9 34.45 16.55 33.3 17.75 32.6 18.9 31.9 20.3 31.9" fill="#690000" fill-rule="evenodd" stroke="none"/>
      <path d="M22.55 33.2 Q23.55 33.75 24.15 34.75 24.75 35.75 24.8 37.0 24.75 38.25 24.2 39.25 23.6 40.25 22.6 40.85 21.6 41.4 20.35 41.45 19.15 41.45 18.15 40.85 17.15 40.25 16.55 39.3 15.95 38.3 15.9 37.05 15.9 35.8 16.5 34.8 17.1 33.8 18.1 33.2 19.1 32.6 20.3 32.6 21.55 32.6 22.55 33.2" fill="#bf1900" fill-rule="evenodd" stroke="none"/>
      <path d="M23.05 40.15 Q21.95 41.25 20.35 41.3 18.7 41.25 17.6 40.15 16.5 39.1 16.45 37.45 L16.5 37.1 Q16.6 38.65 17.65 39.7 18.75 40.7 20.35 40.75 21.85 40.7 22.9 39.75 23.95 38.75 24.15 37.25 L24.15 37.4 Q24.1 39.05 23.05 40.15" fill="#eb3f1b" fill-rule="evenodd" stroke="none"/>
      <path d="M21.25 39.9 L20.8 40.7 19.7 41.0 18.6 40.7 Q18.2 40.4 18.15 39.9 18.2 39.45 18.6 39.1 19.05 38.8 19.7 38.8 20.35 38.8 20.8 39.1 21.25 39.4 21.25 39.9" fill="#eb3f1b" fill-rule="evenodd" stroke="none"/>
      <path d="M23.8 25.15 L22.85 25.5 20.75 26.4 18.55 27.35 17.3 27.95 14.4 27.35 10.85 26.15 Q9.0 25.4 7.55 24.15 6.0 22.7 5.65 21.2 5.35 19.7 5.8 18.5 6.25 17.35 7.0 16.8 7.8 16.25 8.4 16.65 L10.75 18.1 14.5 20.15 18.6 22.35 22.05 24.2 23.8 25.15" fill="#1d3f60" fill-rule="evenodd" stroke="none"/>
      <path d="M23.45 25.65 L22.6 25.9 20.65 26.55 18.65 27.2 17.5 27.65 14.2 26.65 11.15 25.55 8.25 23.75 Q6.9 22.55 6.55 21.3 6.2 20.05 6.5 19.0 6.8 18.0 7.4 17.55 L8.6 17.45 10.8 18.8 14.45 20.8 18.4 22.95 21.75 24.7 23.45 25.65" fill="#ffffff" fill-rule="evenodd" stroke="none"/>
      <path d="M39.95 36.2 L39.2 36.75 Q38.45 37.25 37.25 38.05 L34.75 39.6 32.3 40.95 30.55 41.6 27.65 41.35 Q26.5 40.9 25.8 40.1 L24.7 38.4 23.95 36.8 22.5 34.15 21.25 31.9 Q19.4 33.3 17.15 34.1 14.95 34.9 12.05 34.9 10.5 34.85 9.4 34.15 8.35 33.5 7.8 32.55 7.3 31.65 7.4 30.85 7.55 30.05 8.35 29.7 L11.05 28.65 14.15 27.3 16.7 26.15 19.3 25.2 22.8 24.65 Q24.7 24.6 26.75 25.4 28.8 26.3 31.2 28.0 L35.9 31.85 Q38.2 33.95 39.95 36.2" fill="#1d3f60" fill-rule="evenodd" stroke="none"/>
      <path d="M30.85 28.4 L35.3 32.05 39.15 36.15 38.4 36.65 36.6 37.8 34.25 39.2 31.95 40.4 30.3 40.95 27.55 40.65 25.95 39.35 25.05 37.6 24.4 36.0 23.05 33.65 21.7 31.4 22.3 30.9 22.9 30.5 23.25 30.25 22.95 30.2 Q22.25 30.2 21.45 30.85 L18.9 32.45 16.0 33.7 12.55 34.2 Q11.15 34.15 10.2 33.6 9.25 33.05 8.85 32.3 8.4 31.5 8.55 30.85 8.7 30.15 9.5 29.85 L11.95 28.9 14.7 27.7 17.05 26.65 19.5 25.75 22.85 25.25 Q24.65 25.25 26.6 25.95 28.6 26.8 30.85 28.4" fill="#ffffff" fill-rule="evenodd" stroke="none"/>
      <path d="M16.0 35.6 Q16.85 35.85 17.0 36.35 L16.95 37.45 16.4 38.25 15.2 38.3 12.6 38.5 9.5 38.65 6.95 38.85 5.9 38.9 5.5 34.65 16.0 35.6" fill="#4e1d13" fill-rule="evenodd" stroke="none"/>
      <path d="M16.35 37.2 L15.85 37.55 14.7 37.65 12.2 37.75 9.3 37.9 6.9 38.0 5.9 38.05 5.5 35.45 15.45 36.05 Q16.2 36.2 16.35 36.55 16.55 36.85 16.35 37.2" fill="#cea546" fill-rule="evenodd" stroke="none"/>
      <path d="M5.6 35.9 L15.9 36.3 16.1 36.3 16.4 36.7 5.65 36.75 5.55 36.05 5.6 35.9" fill="#ffffff" fill-rule="evenodd" stroke="none"/>
      <path d="M16.4 36.95 L16.2 37.3 5.85 37.85 5.7 37.0 16.4 36.95" fill="#916921" fill-rule="evenodd" stroke="none"/>
      <path d="M20.05 41.8 Q20.1 40.9 20.6 40.6 L21.7 40.45 22.55 40.8 22.75 41.65 23.15 43.4 23.6 45.5 23.95 47.2 24.1 47.95 21.3 49.0 20.05 41.8" fill="#4e1d13" fill-rule="evenodd" stroke="none"/>
      <path d="M20.6 42.25 Q20.6 41.45 20.9 41.25 L21.55 41.1 Q21.85 41.25 22.0 41.5 L22.2 42.3 22.6 43.95 23.05 45.85 23.4 47.45 23.55 48.1 21.85 48.9 20.6 42.25" fill="#cea546" fill-rule="evenodd" stroke="none"/>
      <path d="M22.15 48.7 L20.8 41.7 20.75 41.5 21.05 41.15 22.7 48.5 22.25 48.7 22.15 48.7" fill="#ffffff" fill-rule="evenodd" stroke="none"/>
      <path d="M21.3 41.1 L21.75 41.2 23.45 48.15 22.9 48.4 21.3 41.1" fill="#916921" fill-rule="evenodd" stroke="none"/>
      <path d="M6.55 36.9 L6.55 39.8 6.2 42.15 5.55 42.2 4.1 42.3 2.55 42.45 1.6 42.6 Q0.9 41.8 0.55 40.3 0.15 38.85 0.05 37.2 L0.05 34.05 Q0.15 32.6 0.4 31.8 L1.15 31.9 2.85 32.05 4.65 32.25 5.75 32.35 6.25 34.2 6.55 36.9" fill="#4e1d13" fill-rule="evenodd" stroke="none"/>
      <path d="M1.3 32.75 L1.9 32.8 3.2 32.9 4.55 33.05 5.4 33.1 5.85 35.1 6.0 37.5 5.95 39.85 5.8 41.55 2.2 41.95 2.35 41.05 2.6 38.8 2.4 35.8 Q2.1 34.25 1.3 32.75" fill="#cea546" fill-rule="evenodd" stroke="none"/>
      <path d="M5.65 33.95 L5.85 35.4 6.0 37.0 2.6 37.2 2.25 33.85 5.65 33.95" fill="#efcf67" fill-rule="evenodd" stroke="none"/>
      <path d="M2.55 41.35 L2.8 39.05 6.05 38.85 5.9 41.0 2.55 41.35" fill="#ab771f" fill-rule="evenodd" stroke="none"/>
      <path d="M5.95 39.9 L5.9 40.55 2.35 41.0 2.5 40.1 5.95 39.9" fill="#794d26" fill-rule="evenodd" stroke="none"/>
      <path d="M5.8 34.75 L5.95 35.65 2.4 35.85 2.4 35.75 2.25 34.7 5.8 34.75" fill="#ffffff" fill-rule="evenodd" stroke="none"/>
      <path d="M1.35 32.75 Q1.95 32.8 2.35 33.7 L2.9 35.95 3.1 38.65 2.85 40.95 Q2.65 41.85 2.2 41.95 1.8 41.95 1.5 41.0 L1.0 38.75 0.8 36.0 0.9 33.7 Q1.05 32.75 1.35 32.75" fill="#efd189" fill-rule="evenodd" stroke="none"/>
      <path d="M1.6 34.5 Q1.95 34.55 2.15 35.4 L2.4 37.35 2.35 39.3 2.05 40.2 Q1.8 40.2 1.65 39.35 1.45 38.5 1.4 37.35 L1.4 35.4 Q1.45 34.55 1.6 34.5" fill="#522d06" fill-rule="evenodd" stroke="none"/>
      <path d="M27.0 50.05 L19.0 51.15 18.85 50.65 18.45 49.55 18.05 48.3 17.75 47.45 Q17.6 46.9 17.8 46.4 L18.3 45.6 Q19.1 45.05 20.35 44.7 L23.0 44.25 25.3 44.4 26.3 45.05 26.5 45.8 26.75 47.55 26.95 49.25 27.0 50.05" fill="#690000" fill-rule="evenodd" stroke="none"/>
      <path d="M26.5 49.65 L19.4 50.55 19.15 49.85 18.7 48.55 18.3 47.5 Q18.15 47.05 18.3 46.65 18.5 46.25 18.8 46.0 19.5 45.55 20.6 45.25 L22.95 44.9 24.95 45.0 25.8 45.55 26.0 46.15 26.25 47.6 26.4 49.0 26.5 49.65" fill="#bf1900" fill-rule="evenodd" stroke="none"/>
      <path d="M24.95 45.0 L25.55 45.3 25.85 45.6 Q25.2 45.25 24.4 45.25 L22.85 45.35 21.6 45.6 Q21.05 45.85 21.05 46.15 L21.15 46.55 22.25 50.2 19.95 50.45 19.4 49.45 18.75 47.9 Q18.45 47.05 18.45 46.4 L18.8 46.0 Q19.5 45.55 20.6 45.25 L22.95 44.9 24.95 45.0" fill="#eb3f1b" fill-rule="evenodd" stroke="none"/>
      <path d="M18.4 50.75 Q19.4 49.9 20.75 49.4 22.15 48.95 23.55 48.85 L26.2 48.9 Q29.35 49.35 31.45 51.3 33.55 53.25 34.7 56.9 L37.1 65.15 39.65 75.05 Q40.0 76.45 39.4 77.65 38.8 78.9 37.05 79.95 35.3 81.0 32.15 81.8 L26.15 82.6 Q23.75 82.5 22.5 81.85 21.2 81.2 21.0 80.35 L20.2 77.8 18.8 73.25 17.2 67.85 15.8 62.55 Q15.05 59.35 15.35 57.05 15.65 54.75 16.5 53.2 17.4 51.65 18.4 50.75" fill="#589690" fill-rule="evenodd" stroke="none"/>
      <path d="M18.75 51.4 Q19.7 50.55 21.0 50.1 22.3 49.65 23.7 49.55 L26.25 49.6 Q29.25 50.0 31.1 51.85 32.95 53.7 34.05 57.2 L36.4 65.45 38.9 75.35 Q39.25 76.65 38.7 77.75 38.15 78.8 36.5 79.7 L31.8 81.3 26.1 82.05 Q23.8 81.95 22.6 81.3 21.4 80.65 21.2 79.85 L20.45 77.35 19.1 73.0 17.55 67.8 16.2 62.75 Q15.5 59.65 15.8 57.45 16.05 55.2 16.9 53.75 17.75 52.25 18.75 51.4" fill="#cbeae1" fill-rule="evenodd" stroke="none"/>
      <path d="M34.3 75.85 Q36.25 75.75 37.5 75.9 38.7 76.05 39.05 76.6 39.0 78.05 37.3 79.2 35.6 80.35 31.85 81.3 L27.2 82.0 23.95 81.75 Q22.65 81.4 21.95 80.8 22.0 80.1 23.0 79.3 24.0 78.5 25.75 77.8 27.55 77.1 29.9 76.55 L34.3 75.85" fill="#6bbfac" fill-rule="evenodd" stroke="none"/>
      <path d="M34.2 57.6 Q32.9 53.95 30.65 52.3 28.35 50.7 24.85 50.75 22.6 50.8 20.85 51.6 19.1 52.4 17.9 53.7 16.7 55.0 15.95 56.55 16.35 54.7 17.1 53.45 17.9 52.15 18.75 51.4 19.7 50.55 21.05 50.1 22.35 49.65 23.75 49.55 L26.25 49.6 Q29.3 50.0 31.15 51.85 33.0 53.7 34.1 57.2 L34.2 57.6" fill="#ebf6f9" fill-rule="evenodd" stroke="none"/>
      <path d="M37.35 75.3 L33.25 75.55 28.95 76.25 Q26.9 76.7 25.5 77.3 25.05 77.45 24.25 76.4 L22.45 73.5 20.5 69.4 18.7 64.9 17.3 60.85 Q16.7 59.05 16.6 58.1 L21.0 58.75 25.9 58.45 30.15 57.7 32.85 56.85 33.2 58.1 34.1 61.3 35.3 65.45 36.55 69.65 37.45 73.0 37.85 74.5 37.85 75.15 37.35 75.3" fill="#6bbfac" fill-rule="evenodd" stroke="none"/>
      <path d="M33.55 67.8 L29.9 68.75 25.4 69.6 20.8 70.05 19.3 66.45 22.1 65.7 25.85 65.2 29.7 64.9 33.05 64.8 35.15 64.8 35.75 66.9 33.55 67.8" fill="#4ba395" fill-rule="evenodd" stroke="none"/>
      <path d="M36.3 64.95 Q34.55 64.8 32.15 64.95 L27.1 65.5 22.1 66.8 Q19.7 67.65 17.95 69.0 L17.0 65.7 16.2 62.65 16.15 62.4 Q17.35 61.35 19.5 60.45 21.65 59.5 24.3 58.9 L29.6 58.1 34.45 58.35 36.3 64.95" fill="#84c5dd" fill-rule="evenodd" stroke="none"/>
      <path d="M22.35 62.25 Q22.2 61.0 21.2 59.85 L24.5 58.9 28.05 58.3 29.75 65.2 26.7 65.65 23.6 66.35 22.9 65.3 22.25 64.65 Q22.5 63.5 22.35 62.25" fill="#bfe3ee" fill-rule="evenodd" stroke="none"/>
      <path d="M36.45 65.3 Q34.7 65.15 32.3 65.3 L27.25 65.85 Q24.65 66.3 22.25 67.15 19.85 68.0 18.1 69.35 L17.15 66.05 16.35 63.0 16.3 62.75 Q17.5 61.7 19.65 60.8 21.8 59.85 24.45 59.25 27.1 58.6 29.75 58.45 L34.6 58.7 36.45 65.3" fill="#488bb6" fill-rule="evenodd" stroke="none"/>
      <path d="M22.5 62.55 Q22.35 61.3 21.35 60.15 L24.65 59.2 28.2 58.6 29.9 65.5 26.85 65.95 23.75 66.65 23.05 65.6 22.4 64.95 Q22.65 63.8 22.5 62.55" fill="#79b6cb" fill-rule="evenodd" stroke="none"/>
      <path d="M32.9 56.7 Q33.05 57.0 32.45 57.3 L30.6 57.75 27.0 58.3 22.8 58.75 18.95 58.85 17.0 58.4 Q16.4 58.1 16.7 57.85 L18.45 57.8 25.2 58.15 30.0 57.4 32.3 56.6 32.9 56.7" fill="#a5d7c9" fill-rule="evenodd" stroke="none"/>
      <path d="M31.35 67.2 L31.15 67.65 30.65 67.85 30.2 67.65 30.0 67.15 30.25 66.65 Q30.4 66.5 30.7 66.5 L31.2 66.7 31.35 67.2" fill="#cbeae1" fill-rule="evenodd" stroke="none"/>
      <path d="M31.25 67.2 L31.05 67.55 30.7 67.7 Q30.2 67.6 30.15 67.15 L30.35 66.8 30.7 66.7 Q31.2 66.75 31.25 67.2" fill="#a5d7c9" fill-rule="evenodd" stroke="none"/>
      <path d="M29.75 69.65 Q29.75 70.0 29.35 70.05 L28.95 69.65 Q29.0 69.25 29.4 69.25 29.75 69.3 29.75 69.65" fill="#cbeae1" fill-rule="evenodd" stroke="none"/>
      <path d="M21.5 64.1 Q21.55 65.4 21.0 66.65 L19.6 69.05 17.9 71.05 16.5 72.45 15.9 72.95 Q14.8 73.05 13.8 72.45 12.8 71.85 12.2 70.7 11.65 69.55 11.85 67.9 12.1 66.55 12.95 65.45 L14.65 63.45 15.9 61.6 Q16.3 60.7 17.15 60.35 18.05 60.05 19.0 60.35 19.95 60.65 20.7 61.55 21.4 62.5 21.5 64.1" fill="#1d3f60" fill-rule="evenodd" stroke="none"/>
      <path d="M20.1 67.05 L18.4 69.6 16.7 71.5 15.95 72.2 Q14.95 72.3 14.1 71.8 13.2 71.3 12.75 70.3 12.25 69.3 12.45 67.8 12.65 66.9 13.4 65.95 L14.95 64.0 16.3 62.0 Q16.65 61.25 17.35 60.95 18.05 60.7 18.85 60.95 19.6 61.2 20.15 62.0 20.7 62.8 20.8 64.2 20.8 65.6 20.1 67.05" fill="#ffffff" fill-rule="evenodd" stroke="none"/>
      <path d="M19.45 66.0 L20.25 63.95 Q20.35 63.05 20.1 62.4 L19.45 61.3 Q20.0 61.65 20.35 62.4 20.75 63.1 20.8 64.2 20.8 65.65 20.1 67.05 L18.4 69.65 16.7 71.5 15.9 72.25 14.2 71.9 Q15.0 71.9 15.7 71.3 L17.1 69.8 18.4 67.85 19.45 66.0" fill="#b8d2ca" fill-rule="evenodd" stroke="none"/>
      <path d="M24.95 69.3 Q25.2 70.5 24.55 72.1 23.9 73.6 22.55 74.7 L19.75 76.6 Q18.3 77.4 17.3 77.8 L16.2 78.2 Q15.15 77.85 14.45 76.85 13.8 75.9 13.65 74.6 13.55 73.3 14.25 72.0 14.8 71.1 15.9 70.45 L18.3 69.15 Q19.5 68.5 20.4 67.6 21.1 66.85 22.05 66.85 23.0 66.85 23.85 67.5 24.65 68.15 24.95 69.3" fill="#1d3f60" fill-rule="evenodd" stroke="none"/>
      <path d="M24.1 71.8 Q23.6 73.15 22.35 74.2 L19.8 76.0 17.5 77.15 16.5 77.55 Q15.55 77.25 14.95 76.5 14.35 75.7 14.3 74.6 14.25 73.5 14.95 72.2 15.5 71.45 16.55 70.8 L18.75 69.55 20.8 68.15 Q21.4 67.6 22.15 67.6 22.9 67.6 23.55 68.1 24.15 68.6 24.35 69.55 24.55 70.5 24.1 71.8" fill="#ffffff" fill-rule="evenodd" stroke="none"/>
      <path d="M22.0 72.55 L23.6 71.05 Q24.05 70.35 24.1 69.75 L24.0 68.6 24.4 69.95 Q24.5 70.75 24.1 71.75 23.55 73.1 22.35 74.15 L19.8 75.95 17.5 77.1 16.5 77.5 Q15.65 77.25 15.05 76.55 L16.65 76.5 Q17.5 76.15 18.45 75.45 L20.3 74.0 22.0 72.55" fill="#b8d2ca" fill-rule="evenodd" stroke="none"/>
      <path d="M25.95 73.0 Q26.6 74.1 26.5 76.1 L25.95 78.1 Q25.4 79.15 24.45 79.95 23.45 80.75 22.05 81.2 L20.55 81.4 Q20.15 81.3 20.9 81.0 23.25 80.15 24.5 78.85 25.8 77.55 25.95 76.15 26.1 74.65 25.6 73.75 25.1 72.8 24.35 72.4 23.55 72.0 22.75 72.1 22.0 72.2 21.5 72.85 L20.35 74.05 18.8 75.4 17.7 76.3 Q16.7 77.0 16.45 77.85 16.2 78.75 16.35 79.45 L16.25 80.4 Q16.05 80.5 15.7 79.65 15.45 78.8 15.7 78.1 15.9 77.35 16.35 76.75 L17.25 75.8 18.5 74.75 19.65 73.85 20.7 72.65 Q21.25 71.9 22.25 71.6 23.25 71.3 24.25 71.6 25.3 71.9 25.95 73.0" fill="#1d3f60" fill-rule="evenodd" stroke="none"/>
      <path d="M25.95 76.2 Q25.8 77.6 24.55 78.9 23.25 80.25 20.95 81.05 L20.45 81.3 16.35 79.5 Q16.25 78.85 16.45 77.95 16.7 77.05 17.7 76.35 L18.8 75.5 20.35 74.15 21.5 72.9 Q22.0 72.3 22.8 72.2 L24.35 72.5 Q25.15 72.9 25.6 73.8 26.1 74.75 25.95 76.2" fill="#ffffff" fill-rule="evenodd" stroke="none"/>
      <path d="M25.35 73.35 L25.9 74.55 25.95 76.2 Q25.8 77.6 24.55 78.9 23.25 80.2 20.95 81.05 L20.45 81.3 18.95 80.65 23.0 78.6 24.8 76.7 25.3 74.9 25.35 73.35" fill="#b8d2ca" fill-rule="evenodd" stroke="none"/>
      <path d="M25.15 50.95 Q25.2 51.45 24.4 52.0 23.6 52.5 22.3 52.75 21.05 52.95 20.1 52.75 19.2 52.55 19.05 52.05 19.0 51.55 19.8 51.0 20.6 50.5 21.85 50.25 23.15 50.05 24.1 50.25 25.0 50.45 25.15 50.95" fill="#ebf6f9" fill-rule="evenodd" stroke="none"/>
      <path d="M21.65 50.4 Q22.75 50.25 23.55 50.4 24.3 50.5 24.4 50.9 24.45 51.3 23.8 51.65 L22.05 52.2 20.2 52.2 Q19.4 52.05 19.3 51.7 19.25 51.3 19.9 50.95 20.6 50.55 21.65 50.4" fill="#ffffff" fill-rule="evenodd" stroke="none"/>
      <path d="M33.35 36.65 L31.15 40.75 30.3 41.0 27.55 40.7 Q26.55 40.2 25.95 39.35 L25.05 37.65 24.4 36.05 23.05 33.65 21.75 31.45 22.3 30.95 22.9 30.55 23.3 30.3 23.0 30.25 Q22.3 30.2 21.45 30.9 L18.95 32.45 Q17.6 33.25 16.0 33.75 L12.55 34.25 10.65 33.85 Q9.85 33.5 9.3 32.9 L10.05 32.75 11.5 33.0 13.2 33.1 15.15 32.75 17.5 31.85 19.7 30.9 21.3 30.1 22.85 29.75 23.95 29.85 Q24.3 30.05 23.95 30.35 23.75 30.35 23.55 30.65 23.4 30.95 23.4 31.35 L23.6 32.2 Q24.55 33.7 26.0 34.85 27.5 36.0 29.35 36.55 L33.35 36.65" fill="#b8d2ca" fill-rule="evenodd" stroke="none"/>
      <path d="M42.15 36.75 Q43.25 37.65 43.75 38.9 44.3 40.1 44.05 41.35 43.8 42.65 42.5 43.65 40.55 45.1 38.55 45.95 36.55 46.8 34.75 47.1 L31.4 47.25 Q30.25 47.15 29.3 46.35 28.35 45.55 27.9 44.3 27.5 43.05 27.95 41.5 28.4 39.95 30.05 38.35 31.45 37.05 33.15 36.35 34.85 35.65 36.55 35.5 L39.65 35.6 Q41.05 35.85 42.15 36.75" fill="#1d3f60" fill-rule="evenodd" stroke="none"/>
      <path d="M41.75 37.45 Q42.65 38.25 43.1 39.3 43.5 40.4 43.25 41.45 43.0 42.55 41.85 43.45 39.2 45.3 36.55 46.0 L31.9 46.5 Q30.85 46.35 30.0 45.65 29.1 44.95 28.7 43.85 28.35 42.75 28.7 41.4 29.1 40.05 30.6 38.7 31.85 37.55 33.45 37.0 35.05 36.4 36.65 36.3 L39.55 36.4 Q40.8 36.65 41.75 37.45" fill="#b8d2ca" fill-rule="evenodd" stroke="none"/>
      <path d="M41.75 41.6 Q42.1 41.9 41.55 42.35 L40.0 43.3 37.75 44.35 35.6 45.2 34.2 45.65 32.95 45.95 32.2 45.95 Q31.95 45.85 32.25 45.3 32.75 44.45 33.95 43.55 35.1 42.7 36.6 42.0 38.05 41.35 39.45 41.2 40.85 41.05 41.75 41.6" fill="#1d3f60" fill-rule="evenodd" stroke="none"/>
      <path d="M65.5 59.05 Q66.25 59.95 66.75 61.45 67.3 62.9 67.5 64.65 67.7 66.4 67.5 68.1 L65.35 68.2 61.75 68.35 57.4 68.55 52.95 68.65 Q48.7 68.7 45.85 67.45 43.0 66.25 41.6 64.05 L40.2 61.35 38.05 56.95 35.45 51.45 32.65 45.5 Q33.35 44.4 34.45 43.65 35.55 42.9 36.8 42.45 38.0 42.0 39.0 41.9 L40.55 42.05 41.25 43.65 42.7 46.65 44.55 50.25 46.45 53.85 48.05 56.75 48.65 57.75 49.55 58.65 51.05 59.05 52.75 59.05 55.65 59.05 59.0 59.05 62.2 59.05 64.55 59.05 65.5 59.05" fill="#68142b" fill-rule="evenodd" stroke="none"/>
      <path d="M56.15 59.75 L60.15 59.65 63.65 59.6 65.85 59.6 66.85 61.75 67.45 64.5 67.5 67.4 65.05 67.55 61.35 67.7 57.1 67.9 52.95 68.0 Q48.7 68.05 45.95 66.8 43.25 65.55 41.95 63.35 L40.6 60.7 38.45 56.25 35.9 50.75 33.1 44.85 Q34.0 43.85 35.15 43.2 36.35 42.55 37.55 42.2 L39.6 41.9 40.65 44.1 42.3 47.45 44.25 51.25 46.2 54.9 47.75 57.75 48.65 59.1 Q49.25 59.7 50.6 59.75 L52.65 59.75 56.15 59.75" fill="#ef384f" fill-rule="evenodd" stroke="none"/>
      <path d="M43.35 40.95 Q43.2 41.15 42.85 40.8 42.15 40.05 40.55 40.05 L37.05 40.55 34.9 41.25 33.3 41.65 32.0 41.4 31.15 40.55 Q30.8 40.0 30.9 39.25 31.0 38.55 31.8 37.8 33.05 37.05 34.45 36.7 L37.15 36.25 39.55 36.4 Q40.7 36.65 41.6 37.35 42.5 38.0 42.95 38.95 43.45 39.9 43.35 40.95" fill="#ffffff" fill-rule="evenodd" stroke="none"/>
      <path d="M65.85 59.6 L66.85 61.75 67.45 64.5 67.5 67.4 65.05 67.55 61.35 67.7 57.1 67.9 52.95 68.0 Q48.7 68.05 45.95 66.8 43.25 65.55 41.95 63.35 L40.6 60.7 38.45 56.25 35.9 50.75 33.1 44.85 Q34.0 43.85 35.15 43.2 36.35 42.55 37.55 42.2 L39.6 41.9 40.35 43.45 Q39.15 43.7 38.15 44.65 37.15 45.6 36.45 47.25 L37.4 49.7 38.95 53.55 Q39.85 55.75 41.2 58.05 42.5 60.3 43.75 61.5 45.0 62.65 46.3 63.1 L49.1 63.75 51.7 64.05 55.45 64.25 59.45 64.35 62.9 64.25 65.0 63.85 64.9 62.0 64.35 59.6 65.85 59.6" fill="#bc1d25" fill-rule="evenodd" stroke="none"/>
      <path d="M113.15 110.7 Q111.1 105.95 108.55 102.75 106.0 99.6 103.15 97.5 L97.5 93.85 92.1 90.9 93.0 90.95 97.2 93.25 101.55 95.7 Q103.75 97.1 105.85 99.0 108.0 100.85 109.9 103.6 111.8 106.3 113.45 110.1 L113.15 110.7" fill="#1b2e54" fill-rule="evenodd" stroke="none"/>
      <path d="M113.3 110.7 L114.1 109.15 114.75 110.75 115.35 112.35 114.35 113.95 113.85 112.15 113.3 110.7" fill="#cf8705" fill-rule="evenodd" stroke="none"/>
      <path d="M60.7 70.8 L61.25 70.1 Q60.8 73.45 61.55 76.75 62.3 80.0 64.5 83.4 66.7 86.85 70.6 90.65 L69.9 91.1 Q66.75 87.85 64.6 84.7 62.5 81.55 61.55 78.15 60.55 74.8 60.7 70.8" fill="#1b2e54" fill-rule="evenodd" stroke="none"/>
      <path d="M94.75 181.9 L96.8 182.05 99.25 181.45 101.6 180.4 Q102.7 179.85 103.45 179.3 L103.5 180.85 103.45 180.85 Q99.25 182.0 94.8 182.55 L94.75 181.9" fill="#bc1d25" fill-rule="evenodd" stroke="none"/>
      <path d="M83.35 120.15 L85.1 122.85 86.9 126.0 Q86.2 125.6 85.3 125.45 L83.35 125.35 Q82.25 125.45 81.9 126.55 81.55 127.65 81.55 129.5 L81.75 133.6 80.5 129.35 79.2 125.25 78.0 121.8 77.2 119.55 83.35 120.15" fill="#bc1d25" fill-rule="evenodd" stroke="none"/>
      <path d="M107.0 178.15 Q106.45 179.15 104.7 179.85 L104.6 178.15 Q105.1 178.5 105.75 178.45 L107.0 178.15" fill="#bc1d25" fill-rule="evenodd" stroke="none"/>
      <path d="M86.3 182.4 L90.2 181.9 93.25 180.85 93.35 182.7 84.15 183.15 75.95 182.85 69.7 182.2 66.35 181.5 Q64.6 180.8 63.7 179.9 62.8 179.05 62.75 177.75 63.35 179.25 65.05 180.1 66.75 180.95 69.0 181.35 L73.6 181.9 77.7 182.2 81.95 182.45 86.3 182.4" fill="#bc1d25" fill-rule="evenodd" stroke="none"/>
      <path d="M92.1 147.2 L90.9 152.8 89.2 158.45 87.4 163.55 Q83.25 163.8 80.4 164.65 77.5 165.5 75.6 166.95 L74.4 167.3 Q73.95 167.4 74.15 167.15 L75.7 166.1 Q77.25 165.1 78.75 163.0 L81.6 158.15 84.1 152.65 86.1 147.55 87.4 143.95 Q88.0 142.35 88.9 141.8 89.85 141.35 90.8 141.5 91.8 141.7 92.6 142.25 92.55 144.5 92.1 147.2" fill="#bc1d25" fill-rule="evenodd" stroke="none"/>
      <path d="M87.75 164.1 L87.9 164.1 82.05 165.05 Q79.0 165.75 75.6 166.95 76.5 166.35 78.2 165.7 79.9 165.0 82.35 164.55 L87.75 164.1" fill="#bc1d25" fill-rule="evenodd" stroke="none"/>
    </g>
  </defs>
</svg>
