<?xml version="1.0" encoding="UTF-8" standalone="no"?>
<svg xmlns:xlink="http://www.w3.org/1999/xlink" height="345.4px" width="144.4px" xmlns="http://www.w3.org/2000/svg">
  <g transform="matrix(1.0, 0.0, 0.0, 1.0, 69.55, 198.85)">
    <use data-characterId="51" height="268.65" transform="matrix(1.0, 0.0, 0.0, 0.9317, -64.2, -103.77)" width="139.05" xlink:href="#shape0"/>
  </g>
  <defs>
    <g id="shape0" transform="matrix(1.0, 0.0, 0.0, 1.0, 69.55, 134.35)">
      <path d="M66.65 131.8 Q57.2 123.95 48.55 100.05 39.85 76.15 40.4 76.35 L-1.45 -99.25 26.5 -72.7 26.65 -71.1 27.4 -62.3 Q28.7 -49.1 30.55 -35.3 35.55 1.95 43.0 32.05 44.35 37.6 45.85 42.95 L45.95 41.55 Q49.4 57.2 57.1 81.1 64.75 105.0 66.8 112.05 68.85 119.1 69.5 119.95 L66.65 131.8 M33.0 -71.4 L-1.05 -100.6 -1.1 -100.75 -1.2 -100.7 -2.75 -102.05 0.3 -134.35 33.25 -83.2 33.55 -81.9 33.0 -71.4" fill="url(#gradient0)" fill-rule="evenodd" stroke="none"/>
      <path d="M26.65 -71.1 L26.5 -72.7 -1.45 -99.25 40.4 76.35 Q39.85 76.15 48.55 100.05 57.2 123.95 66.65 131.8 L65.5 134.3 -0.85 104.65 Q-25.4 0.8 -38.8 -43.45 -43.05 -57.55 -47.5 -70.95 L-50.6 -79.85 -57.8 -80.9 -69.55 -99.8 Q-58.0 -103.45 -43.45 -109.6 -14.45 -121.85 0.3 -134.35 L-2.75 -102.05 -1.2 -100.7 -1.1 -100.75 -1.05 -100.6 33.0 -71.4 26.65 -71.1 M-12.2 -77.75 Q-10.5 -77.65 -10.6 -73.85 L-10.3 -74.35 Q-7.65 -78.75 -7.2 -83.95 L-7.35 -88.35 Q-13.15 -84.55 -15.65 -82.1 -22.0 -76.0 -21.85 -69.35 -21.85 -67.45 -19.6 -67.45 -17.35 -67.5 -14.65 -69.5 -15.2 -70.95 -14.9 -73.0 -14.65 -75.05 -13.85 -76.4 -13.1 -77.8 -12.2 -77.75 M-26.95 -67.1 Q-28.75 -73.3 -34.9 -74.2 L-42.45 -73.75 -41.35 -69.7 Q-39.55 -65.25 -36.45 -63.2 -34.15 -61.65 -31.65 -62.0 L-32.15 -64.45 Q-32.3 -66.4 -31.8 -67.85 -31.3 -69.4 -30.4 -69.55 -29.5 -69.75 -28.75 -68.45 -28.1 -67.25 -27.9 -65.25 L-27.9 -63.85 Q-26.5 -65.4 -26.95 -67.1" fill="url(#gradient1)" fill-rule="evenodd" stroke="none"/>
      <path d="M-1.05 -100.6 L-1.1 -100.75 -1.05 -100.6" fill="#000000" fill-rule="evenodd" stroke="none"/>
      <path d="M-26.95 -67.1 Q-26.5 -65.4 -27.9 -63.85 L-27.9 -65.25 Q-28.1 -67.25 -28.75 -68.45 -29.5 -69.75 -30.4 -69.55 -31.3 -69.4 -31.8 -67.85 -32.3 -66.4 -32.15 -64.45 L-31.65 -62.0 Q-34.15 -61.65 -36.45 -63.2 -39.55 -65.25 -41.35 -69.7 L-42.45 -73.75 -34.9 -74.2 Q-28.75 -73.3 -26.95 -67.1 M-12.2 -77.75 Q-13.1 -77.8 -13.85 -76.4 -14.65 -75.05 -14.9 -73.0 -15.2 -70.95 -14.65 -69.5 -17.35 -67.5 -19.6 -67.45 -21.85 -67.45 -21.85 -69.35 -22.0 -76.0 -15.65 -82.1 -13.15 -84.55 -7.35 -88.35 L-7.2 -83.95 Q-7.65 -78.75 -10.3 -74.35 L-10.6 -73.85 Q-10.5 -77.65 -12.2 -77.75" fill="url(#gradient2)" fill-rule="evenodd" stroke="none"/>
    </g>
    <radialGradient cx="0" cy="0" gradientTransform="matrix(0.255, 0.0, 0.0, 0.255, 153.2, 71.05)" gradientUnits="userSpaceOnUse" id="gradient0" r="819.2">
      <stop offset="0.0" stop-color="#cecfde"/>
      <stop offset="0.42745098039215684" stop-color="#969ec1"/>
      <stop offset="0.7137254901960784" stop-color="#6d78a7"/>
    </radialGradient>
    <radialGradient cx="0" cy="0" gradientTransform="matrix(0.2577, 0.0, 0.0, 0.2577, 155.5, 70.9)" gradientUnits="userSpaceOnUse" id="gradient1" r="819.2">
      <stop offset="0.0" stop-color="#809ac8"/>
      <stop offset="0.3803921568627451" stop-color="#7e91ba"/>
      <stop offset="0.8941176470588236" stop-color="#51618f"/>
    </radialGradient>
    <radialGradient cx="0" cy="0" gradientTransform="matrix(0.0843, 0.0, 0.0, 0.0843, -13.45, -39.55)" gradientUnits="userSpaceOnUse" id="gradient2" r="819.2">
      <stop offset="0.16862745098039217" stop-color="#cecfde"/>
      <stop offset="0.5843137254901961" stop-color="#969ec1"/>
      <stop offset="0.8941176470588236" stop-color="#6d78a7"/>
    </radialGradient>
  </defs>
</svg>
