<?xml version="1.0" encoding="UTF-8" standalone="no"?>
<svg xmlns:xlink="http://www.w3.org/1999/xlink" height="97.4px" width="107.9px" xmlns="http://www.w3.org/2000/svg">
  <g transform="matrix(1.0, 0.0, 0.0, 1.0, 75.05, 19.3)">
    <use data-characterId="327" height="20.9" transform="matrix(1.0, 0.0, 0.0, 1.0, 0.0, 0.0)" width="31.8" xlink:href="#shape0"/>
  </g>
  <defs>
    <g id="shape0" transform="matrix(1.0, 0.0, 0.0, 1.0, 0.0, 0.0)">
      <path d="M31.8 10.35 Q31.8 11.55 25.5 13.65 L18.15 15.9 5.1 20.9 Q0.8 20.9 0.0 19.0 L0.0 16.95 Q0.0 14.45 1.85 12.35 3.3 10.7 7.6 7.6 L7.8 7.5 Q5.65 6.65 5.65 4.0 5.65 1.65 5.9 1.2 6.65 0.0 9.85 0.0 13.7 0.0 19.9 2.45 L26.0 5.1 28.55 5.45 Q30.55 5.9 30.8 7.15 L31.8 10.35" fill="#d5ffff" fill-rule="evenodd" stroke="none"/>
    </g>
  </defs>
</svg>
