<?xml version="1.0" encoding="UTF-8" standalone="no"?>
<svg xmlns:xlink="http://www.w3.org/1999/xlink" height="97.4px" width="107.9px" xmlns="http://www.w3.org/2000/svg">
  <g transform="matrix(1.0, 0.0, 0.0, 1.0, 75.05, 19.3)">
    <use data-characterId="330" height="73.3" transform="matrix(1.0, 0.0, 0.0, 1.0, -57.3, -19.3)" width="90.15" xlink:href="#shape0"/>
  </g>
  <defs>
    <g id="shape0" transform="matrix(1.0, 0.0, 0.0, 1.0, 57.3, 19.3)">
      <path d="M10.35 -18.2 Q10.1 -16.85 8.35 -15.95 7.0 -17.3 7.0 -17.7 7.0 -19.3 8.65 -19.3 9.65 -19.3 10.35 -18.2 M28.6 6.0 L32.85 8.35 30.45 13.6 Q29.45 15.25 28.0 15.65 L22.95 15.9 12.75 15.7 Q11.5 15.7 1.25 18.75 L-9.2 21.75 -10.2 21.45 -10.45 20.4 Q-10.45 17.35 0.9 13.6 6.95 11.6 16.8 8.9 15.7 7.3 15.7 6.6 L16.0 5.7 20.75 5.55 28.6 6.0 M18.15 24.2 Q18.15 26.15 15.45 26.5 12.2 26.5 11.65 23.3 11.65 20.75 14.85 20.75 17.9 20.75 18.15 24.2 M8.7 39.3 Q8.7 39.9 7.95 40.6 7.15 41.35 6.15 41.35 L4.6 39.8 Q4.6 38.8 6.7 37.7 L8.7 39.3 M26.95 32.85 Q26.95 36.35 24.45 36.35 22.9 36.35 22.6 35.1 L22.6 33.65 22.7 31.9 Q23.1 30.85 25.3 30.85 26.95 30.85 26.95 32.85 M-36.3 19.5 L-36.0 20.35 Q-36.0 21.4 -38.75 22.8 L-43.75 25.05 Q-44.85 24.65 -44.85 23.55 -44.85 22.35 -43.0 20.75 -40.95 19.0 -38.95 19.0 -37.6 19.0 -36.3 19.5 M-28.1 31.55 Q-27.75 31.75 -27.75 32.55 -27.75 33.25 -30.35 36.55 -30.35 37.25 -43.55 45.75 L-48.25 50.1 Q-52.6 54.0 -54.45 54.0 L-57.25 53.6 -57.3 52.1 Q-57.3 47.2 -46.35 39.45 -35.5 31.8 -28.45 31.4 L-28.1 31.55" fill="#d5ffff" fill-rule="evenodd" stroke="none"/>
    </g>
  </defs>
</svg>
