<?xml version="1.0" encoding="UTF-8" standalone="no"?>
<svg xmlns:xlink="http://www.w3.org/1999/xlink" height="97.4px" width="107.9px" xmlns="http://www.w3.org/2000/svg">
  <g transform="matrix(1.0, 0.0, 0.0, 1.0, 75.05, 19.3)">
    <use data-characterId="332" height="75.75" transform="matrix(1.0, 0.0, 0.0, 1.0, -75.05, -15.8)" width="106.05" xlink:href="#shape0"/>
  </g>
  <defs>
    <g id="shape0" transform="matrix(1.0, 0.0, 0.0, 1.0, 75.05, 15.8)">
      <path d="M-2.55 -15.05 L-2.45 -13.75 Q-3.2 -12.65 -4.45 -12.65 L-5.8 -12.85 Q-6.35 -13.4 -6.35 -14.15 -6.35 -15.8 -3.6 -15.8 -2.75 -15.8 -2.55 -15.05 M-7.7 14.95 L2.95 11.8 Q8.9 10.35 20.05 8.9 L19.65 8.75 Q19.5 8.7 19.5 8.0 L6.45 7.55 6.3 7.15 24.1 2.5 Q27.5 2.5 27.2 5.05 L27.2 5.3 Q29.65 5.55 30.25 6.6 31.35 7.4 30.85 9.75 L30.8 10.85 Q30.8 11.95 30.25 12.65 29.8 13.8 24.35 14.5 L18.9 15.25 Q15.35 16.35 9.05 17.15 -1.55 20.9 -3.55 20.9 L-4.7 20.6 -5.0 20.2 0.75 17.8 -1.65 17.65 Q-2.45 17.65 -2.6 17.25 1.35 15.35 4.65 13.95 L-5.55 15.7 Q-7.45 15.4 -7.7 14.95 M-37.45 34.65 L-37.45 35.05 Q-37.45 36.15 -39.1 37.6 -40.9 39.15 -42.6 39.15 -44.4 39.15 -44.3 36.7 -44.3 33.9 -39.35 33.2 L-37.85 32.3 Q-32.95 29.55 -31.25 29.05 L-37.45 34.65 M-33.2 41.3 Q-33.2 41.55 -36.05 43.3 -38.95 45.05 -38.95 45.65 -38.95 47.0 -40.95 47.0 -42.65 47.0 -42.75 44.4 -42.75 42.45 -40.7 42.25 L-37.85 42.45 Q-35.85 42.45 -35.25 41.6 -34.85 40.5 -34.2 40.0 -33.2 40.4 -33.2 41.3 M-45.7 32.7 L-50.7 36.95 Q-51.15 38.65 -52.7 40.25 -55.3 42.85 -59.5 43.35 L-60.4 43.05 Q-60.75 42.85 -60.75 42.0 -60.75 39.3 -56.9 37.35 -52.1 34.85 -51.6 34.2 L-50.7 34.45 -50.6 34.65 Q-46.45 31.15 -45.7 32.7 M-72.8 57.65 Q-72.6 57.8 -72.6 58.7 L-72.8 59.65 -73.45 59.95 Q-74.7 59.55 -75.05 58.85 -74.2 57.45 -73.45 57.4 L-72.8 57.65" fill="#d5ffff" fill-rule="evenodd" stroke="none"/>
    </g>
  </defs>
</svg>
