<?xml version="1.0" encoding="UTF-8" standalone="no"?>
<svg xmlns:xlink="http://www.w3.org/1999/xlink" height="97.4px" width="107.9px" xmlns="http://www.w3.org/2000/svg">
  <g transform="matrix(1.0, 0.0, 0.0, 1.0, 75.05, 19.3)">
    <use data-characterId="338" height="36.65" transform="matrix(1.0, 0.0, 0.0, 1.0, -16.7, -10.5)" width="46.75" xlink:href="#shape0"/>
  </g>
  <defs>
    <g id="shape0" transform="matrix(1.0, 0.0, 0.0, 1.0, 16.7, 10.5)">
      <path d="M20.75 -6.85 Q20.75 -4.3 17.1 -4.3 15.35 -4.3 14.85 -5.85 14.6 -6.65 14.7 -7.55 14.7 -10.5 17.65 -10.5 21.45 -10.5 20.75 -6.85 M30.0 9.05 Q30.0 11.8 29.5 12.4 29.0 12.95 26.45 13.15 15.7 13.9 3.6 17.5 3.05 17.65 -5.2 22.15 -12.65 26.15 -15.1 26.15 -17.1 26.15 -16.6 22.75 -16.6 18.15 -14.55 15.3 -12.3 12.1 -6.25 9.1 -8.8 8.25 -9.4 7.2 -9.6 6.85 -9.6 5.25 -9.6 3.0 -8.9 2.35 -7.0 0.55 0.25 0.55 15.7 0.55 21.9 3.55 23.9 4.5 24.85 5.75 L25.6 7.15 26.6 6.35 Q27.25 5.8 28.05 5.8 30.3 5.8 30.0 9.05 M7.3 12.0 L7.35 11.5 7.25 11.5 7.3 12.0 M-13.45 22.65 L-13.5 22.65 -13.45 22.65" fill="#d5ffff" fill-rule="evenodd" stroke="none"/>
    </g>
  </defs>
</svg>
