<?xml version="1.0" encoding="UTF-8" standalone="no"?>
<svg xmlns:xlink="http://www.w3.org/1999/xlink" height="131.55px" width="371.75px" xmlns="http://www.w3.org/2000/svg">
  <g transform="matrix(1.0, 0.0, 0.0, 1.0, 0.75, 0.0)">
    <use data-characterId="166" height="131.55" id="m_row" transform="matrix(1.0, 0.0, 0.0, 1.0, -0.75, 0.0)" width="371.75" xlink:href="#sprite0"/>
  </g>
  <defs>
    <g id="sprite0" transform="matrix(1.0, 0.0, 0.0, 1.0, 0.75, 0.0)">
      <use data-characterId="159" height="3.7" id="m_line1" transform="matrix(1.0, 0.0, 0.0, 1.0, 4.0, 43.45)" width="367.0" xlink:href="#sprite1"/>
      <use data-characterId="161" height="1.5" id="m_line2" transform="matrix(1.0, -9.0E-4, 0.0014, 1.6669, -0.7511, 129.0505)" width="371.5" xlink:href="#sprite2"/>
      <use data-characterId="163" height="52.9" id="txt_news" transform="matrix(1.0, 0.0, 0.0, 1.0, 4.2, 44.15)" width="334.75" xlink:href="#text0"/>
      <use data-characterId="164" height="20.3" id="txt_time" transform="matrix(1.0, 0.0, 0.0, 1.0, 3.75, 0.0)" width="152.25" xlink:href="#text1"/>
      <use data-characterId="165" height="20.3" id="txt_subject" transform="matrix(1.0, 0.0, 0.0, 1.0, 3.75, 17.0)" width="335.2" xlink:href="#text2"/>
    </g>
    <g id="sprite1" transform="matrix(1.0, 0.0, 0.0, 1.0, -4.0, 1.85)">
      <use data-characterId="158" height="3.7" transform="matrix(1.0, 0.0, 0.0, 1.0, 4.0, -1.85)" width="367.0" xlink:href="#shape0"/>
    </g>
    <g id="shape0" transform="matrix(1.0, 0.0, 0.0, 1.0, -4.0, 1.85)">
      <path d="M5.0 -1.85 Q5.4 -1.85 5.7 -1.5 L6.0 -0.8 5.7 -0.1 5.0 0.15 Q4.6 0.15 4.3 -0.15 4.0 -0.45 4.0 -0.85 4.0 -1.25 4.3 -1.55 4.6 -1.85 5.0 -1.85 M10.0 -1.8 L10.7 -1.5 11.0 -0.8 10.7 -0.1 10.0 0.2 Q9.6 0.2 9.3 -0.1 9.0 -0.4 9.0 -0.8 9.0 -1.2 9.3 -1.5 9.6 -1.8 10.0 -1.8 M15.0 -1.8 L15.7 -1.5 16.0 -0.8 15.7 -0.1 15.0 0.2 Q14.6 0.2 14.3 -0.1 14.0 -0.4 14.0 -0.8 L14.3 -1.5 Q14.6 -1.8 15.0 -1.8 M20.0 -1.75 L20.7 -1.45 21.0 -0.75 20.7 -0.05 20.0 0.25 19.3 -0.05 Q19.0 -0.35 19.0 -0.75 19.0 -1.15 19.3 -1.45 L20.0 -1.75 M40.0 -1.65 L40.7 -1.35 41.0 -0.65 40.7 0.05 40.0 0.35 Q39.6 0.35 39.3 0.05 39.0 -0.25 39.0 -0.65 39.0 -1.05 39.3 -1.35 39.6 -1.65 40.0 -1.65 M35.7 -1.4 L36.0 -0.7 35.7 0.0 35.0 0.3 Q34.6 0.3 34.3 0.0 34.0 -0.3 34.0 -0.7 34.0 -1.1 34.3 -1.4 34.6 -1.7 35.0 -1.7 L35.7 -1.4 M30.7 -1.4 L31.0 -0.7 30.7 0.0 Q30.4 0.3 30.0 0.3 L29.3 0.0 Q29.0 -0.3 29.0 -0.7 29.0 -1.1 29.3 -1.4 L30.0 -1.7 Q30.4 -1.7 30.7 -1.4 M25.7 -1.45 L26.0 -0.75 25.7 -0.05 25.0 0.25 24.3 -0.05 Q24.0 -0.35 24.0 -0.75 24.0 -1.15 24.3 -1.45 L25.0 -1.75 25.7 -1.45 M45.0 -1.65 L45.7 -1.35 46.0 -0.65 45.7 0.05 45.0 0.35 Q44.6 0.35 44.3 0.05 44.0 -0.25 44.0 -0.65 44.0 -1.05 44.3 -1.35 44.6 -1.65 45.0 -1.65 M50.0 -1.6 L50.7 -1.3 51.0 -0.6 50.7 0.1 50.0 0.4 Q49.6 0.4 49.3 0.1 49.0 -0.25 49.0 -0.65 49.0 -1.05 49.3 -1.3 49.6 -1.6 50.0 -1.6 M55.0 -1.6 Q55.4 -1.6 55.7 -1.3 L56.0 -0.6 55.7 0.1 Q55.4 0.4 55.0 0.4 L54.3 0.1 Q54.0 -0.2 54.0 -0.6 54.0 -1.0 54.3 -1.3 L55.0 -1.6 M60.0 -1.6 L60.7 -1.25 61.0 -0.55 60.7 0.15 60.0 0.4 59.3 0.1 Q59.0 -0.2 59.0 -0.6 59.0 -1.0 59.3 -1.3 L60.0 -1.6 M80.7 -1.2 L81.0 -0.5 80.7 0.2 80.0 0.5 Q79.6 0.5 79.3 0.2 79.0 -0.1 79.0 -0.5 79.0 -0.9 79.3 -1.2 79.6 -1.5 80.0 -1.5 L80.7 -1.2 M75.7 -1.2 L76.0 -0.5 75.7 0.2 75.0 0.5 74.3 0.2 Q74.0 -0.1 74.0 -0.5 74.0 -0.9 74.3 -1.2 L75.0 -1.5 75.7 -1.2 M70.7 -1.25 L71.0 -0.5 70.7 0.15 70.0 0.45 Q69.6 0.45 69.3 0.15 69.0 -0.15 69.0 -0.55 69.0 -0.95 69.3 -1.25 69.6 -1.55 70.0 -1.55 L70.7 -1.25 M65.7 -1.25 L66.0 -0.55 65.7 0.15 65.0 0.45 Q64.6 0.45 64.3 0.15 64.0 -0.15 64.0 -0.55 64.0 -0.95 64.3 -1.25 64.6 -1.55 65.0 -1.55 L65.7 -1.25 M85.0 -1.45 L85.7 -1.15 86.0 -0.45 85.7 0.25 85.0 0.55 Q84.6 0.55 84.3 0.25 84.0 -0.05 84.0 -0.45 84.0 -0.85 84.3 -1.15 84.6 -1.45 85.0 -1.45 M90.0 -1.45 Q90.4 -1.45 90.7 -1.15 L91.0 -0.45 90.7 0.25 Q90.4 0.55 90.0 0.55 L89.3 0.25 Q89.0 -0.05 89.0 -0.45 L89.3 -1.15 90.0 -1.45 M95.0 -1.4 L95.7 -1.1 96.0 -0.4 95.7 0.3 95.0 0.6 Q94.6 0.6 94.3 0.3 94.0 0.0 94.0 -0.4 94.0 -0.8 94.3 -1.1 94.6 -1.4 95.0 -1.4 M100.0 -1.4 L100.7 -1.1 101.0 -0.4 100.7 0.3 100.0 0.6 99.3 0.3 Q99.0 0.0 99.0 -0.4 99.0 -0.8 99.3 -1.1 L100.0 -1.4 M120.7 -1.0 L121.0 -0.3 120.7 0.4 120.0 0.7 Q119.6 0.7 119.3 0.4 L119.0 -0.3 119.3 -1.0 Q119.6 -1.3 120.0 -1.3 L120.7 -1.0 M115.7 -1.0 L116.0 -0.3 115.7 0.4 115.0 0.7 114.3 0.35 Q114.0 0.05 114.0 -0.35 114.0 -0.75 114.3 -1.05 114.6 -1.35 115.0 -1.3 L115.7 -1.0 M110.7 -1.05 L111.0 -0.35 110.7 0.35 110.0 0.65 Q109.6 0.65 109.3 0.35 109.0 0.05 109.0 -0.35 109.0 -0.75 109.3 -1.05 109.6 -1.35 110.0 -1.35 L110.7 -1.05 M105.7 -1.05 L106.0 -0.35 105.7 0.35 105.0 0.65 104.3 0.35 Q104.0 0.05 104.0 -0.35 104.0 -0.75 104.3 -1.05 L105.0 -1.35 105.7 -1.05 M125.0 -1.3 Q125.4 -1.3 125.7 -0.95 L126.0 -0.25 125.7 0.45 125.0 0.7 124.3 0.4 Q124.0 0.1 124.0 -0.3 124.0 -0.7 124.3 -1.0 L125.0 -1.3 M130.0 -1.25 L130.7 -0.95 131.0 -0.25 130.7 0.45 130.0 0.75 129.3 0.45 Q129.0 0.15 129.0 -0.25 129.0 -0.65 129.3 -0.95 L130.0 -1.25 M135.0 -1.25 Q135.4 -1.25 135.7 -0.95 L136.0 -0.25 135.7 0.45 Q135.4 0.75 135.0 0.75 L134.3 0.45 Q134.0 0.15 134.0 -0.25 134.0 -0.65 134.3 -0.95 L135.0 -1.25 M140.0 -1.2 L140.7 -0.9 141.0 -0.2 140.7 0.5 140.0 0.8 Q139.6 0.8 139.3 0.5 139.0 0.2 139.0 -0.2 139.0 -0.6 139.3 -0.9 139.6 -1.2 140.0 -1.2 M160.7 -0.8 L161.0 -0.1 160.7 0.6 Q160.4 0.9 160.0 0.9 L159.3 0.6 Q159.0 0.3 159.0 -0.1 159.0 -0.5 159.3 -0.8 L160.0 -1.1 Q160.4 -1.1 160.7 -0.8 M155.7 -0.85 L156.0 -0.15 155.7 0.55 155.0 0.85 Q154.6 0.85 154.3 0.55 154.0 0.25 154.0 -0.15 154.0 -0.55 154.3 -0.85 154.6 -1.15 155.0 -1.15 L155.7 -0.85 M150.7 -0.85 L151.0 -0.15 150.7 0.55 150.0 0.85 Q149.6 0.85 149.3 0.55 149.0 0.25 149.0 -0.15 149.0 -0.55 149.3 -0.85 149.6 -1.15 150.0 -1.15 L150.7 -0.85 M145.7 -0.9 L146.0 -0.2 145.7 0.5 145.0 0.8 Q144.6 0.8 144.3 0.5 144.0 0.2 144.0 -0.2 144.0 -0.6 144.3 -0.9 144.6 -1.2 145.0 -1.2 L145.7 -0.9 M165.0 -1.1 Q165.4 -1.1 165.7 -0.8 L166.0 -0.1 165.7 0.6 Q165.4 0.9 165.0 0.9 L164.3 0.6 Q164.0 0.3 164.0 -0.1 164.0 -0.5 164.3 -0.8 L165.0 -1.1 M170.0 -1.05 L170.7 -0.75 171.0 -0.05 170.7 0.65 170.0 0.95 Q169.6 0.95 169.3 0.6 169.0 0.3 169.0 -0.1 169.0 -0.5 169.3 -0.8 L170.0 -1.05 M175.0 -1.05 L175.7 -0.75 176.0 -0.05 175.7 0.65 175.0 0.95 Q174.6 0.95 174.3 0.65 174.0 0.35 174.0 -0.05 174.0 -0.45 174.3 -0.75 174.6 -1.05 175.0 -1.05 M180.0 -1.05 L180.7 -0.7 181.0 0.0 180.7 0.7 180.0 0.95 179.3 0.65 Q179.0 0.35 179.0 -0.05 179.0 -0.45 179.3 -0.75 L180.0 -1.05 M200.7 -0.65 L201.0 0.05 200.7 0.75 200.0 1.05 Q199.6 1.05 199.3 0.75 199.0 0.45 199.0 0.05 199.0 -0.35 199.3 -0.65 199.6 -0.95 200.0 -0.95 L200.7 -0.65 M195.7 -0.65 L196.0 0.05 195.7 0.75 Q195.4 1.05 195.0 1.05 L194.3 0.75 194.0 0.05 194.3 -0.65 195.0 -0.95 Q195.4 -0.95 195.7 -0.65 M190.7 -0.7 L191.0 0.0 190.7 0.7 190.0 1.0 Q189.6 1.0 189.3 0.7 189.0 0.4 189.0 0.0 189.0 -0.4 189.3 -0.7 189.6 -1.0 190.0 -1.0 L190.7 -0.7 M185.7 -0.7 L186.0 0.0 185.7 0.7 185.0 1.0 Q184.6 1.0 184.3 0.7 184.0 0.4 184.0 0.0 184.0 -0.4 184.3 -0.7 184.6 -1.0 185.0 -1.0 L185.7 -0.7 M205.0 -0.9 L205.7 -0.6 206.0 0.1 205.7 0.8 205.0 1.1 204.3 0.8 Q204.0 0.5 204.0 0.1 204.0 -0.3 204.3 -0.6 L205.0 -0.9 M210.0 -0.9 L210.7 -0.6 211.0 0.1 210.7 0.8 210.0 1.1 209.3 0.8 Q209.0 0.5 209.0 0.1 209.0 -0.3 209.3 -0.6 L210.0 -0.9 M215.0 -0.85 L215.7 -0.55 216.0 0.15 215.7 0.85 215.0 1.15 Q214.6 1.15 214.3 0.85 214.0 0.55 214.0 0.15 214.0 -0.25 214.3 -0.55 214.6 -0.85 215.0 -0.85 M220.0 -0.85 L220.7 -0.55 221.0 0.15 220.7 0.85 220.0 1.15 Q219.6 1.15 219.3 0.85 219.0 0.55 219.0 0.15 219.0 -0.25 219.3 -0.55 219.6 -0.85 220.0 -0.85 M240.7 -0.45 L241.0 0.25 240.7 0.95 Q240.4 1.25 240.0 1.25 L239.3 0.95 Q239.0 0.65 239.0 0.25 239.0 -0.15 239.3 -0.45 L240.0 -0.75 Q240.4 -0.75 240.7 -0.45 M235.7 -0.45 L236.0 0.25 235.7 0.95 235.0 1.25 234.3 0.9 Q234.0 0.6 234.0 0.2 234.0 -0.2 234.3 -0.5 234.6 -0.8 235.0 -0.75 L235.7 -0.45 M230.7 -0.5 L231.0 0.2 230.7 0.9 230.0 1.2 229.3 0.9 Q229.0 0.6 229.0 0.2 229.0 -0.2 229.3 -0.5 L230.0 -0.8 230.7 -0.5 M225.7 -0.5 L226.0 0.2 225.7 0.9 225.0 1.2 Q224.6 1.2 224.3 0.9 L224.0 0.2 224.3 -0.5 Q224.6 -0.8 225.0 -0.8 L225.7 -0.5 M245.0 -0.75 L245.7 -0.45 246.0 0.3 245.7 0.95 245.0 1.25 Q244.6 1.25 244.3 0.95 244.0 0.65 244.0 0.25 244.0 -0.15 244.3 -0.45 244.6 -0.75 245.0 -0.75 M250.0 -0.7 L250.7 -0.4 251.0 0.3 250.7 1.0 250.0 1.3 Q249.6 1.3 249.3 1.0 249.0 0.7 249.0 0.3 249.0 -0.1 249.3 -0.4 249.6 -0.7 250.0 -0.7 M255.0 -0.7 L255.7 -0.4 256.0 0.3 255.7 1.0 255.0 1.3 Q254.6 1.3 254.3 1.0 254.0 0.7 254.0 0.3 254.0 -0.1 254.3 -0.4 254.6 -0.7 255.0 -0.7 M260.0 -0.65 L260.7 -0.35 261.0 0.35 260.7 1.05 260.0 1.35 Q259.6 1.35 259.3 1.05 259.0 0.75 259.0 0.35 259.0 -0.05 259.3 -0.35 259.6 -0.65 260.0 -0.65 M280.7 -0.25 L281.0 0.45 280.7 1.15 280.0 1.45 Q279.6 1.45 279.3 1.15 279.0 0.85 279.0 0.45 279.0 0.05 279.3 -0.25 279.6 -0.55 280.0 -0.55 L280.7 -0.25 M275.7 -0.3 L276.0 0.4 275.7 1.1 275.0 1.4 Q274.6 1.4 274.3 1.1 274.0 0.8 274.0 0.4 274.0 0.0 274.3 -0.3 274.6 -0.6 275.0 -0.6 L275.7 -0.3 M270.7 -0.3 L271.0 0.4 270.7 1.1 Q270.4 1.4 270.0 1.4 L269.3 1.1 Q269.0 0.8 269.0 0.4 269.0 0.0 269.3 -0.3 L270.0 -0.6 Q270.4 -0.6 270.7 -0.3 M265.7 -0.35 L266.0 0.35 265.7 1.05 Q265.4 1.35 265.0 1.35 L264.3 1.05 Q264.0 0.75 264.0 0.35 264.0 -0.05 264.3 -0.35 L265.0 -0.65 Q265.4 -0.65 265.7 -0.35 M285.0 -0.55 L285.7 -0.25 286.0 0.45 285.7 1.15 285.0 1.45 284.3 1.15 Q284.0 0.85 284.0 0.45 284.0 0.05 284.3 -0.25 L285.0 -0.55 M290.0 -0.5 L290.7 -0.2 291.0 0.5 290.7 1.2 290.0 1.5 Q289.6 1.5 289.3 1.15 289.0 0.85 289.0 0.45 289.0 0.05 289.3 -0.25 L290.0 -0.5 M295.0 -0.5 L295.7 -0.2 296.0 0.5 295.7 1.2 295.0 1.5 Q294.6 1.5 294.3 1.2 294.0 0.9 294.0 0.5 294.0 0.1 294.3 -0.2 294.6 -0.5 295.0 -0.5 M300.0 -0.5 L300.7 -0.15 301.0 0.55 300.7 1.25 300.0 1.5 299.3 1.2 299.0 0.5 Q299.0 0.1 299.3 -0.2 L300.0 -0.5 M320.7 -0.1 L321.0 0.6 320.7 1.3 320.0 1.6 Q319.6 1.6 319.3 1.3 319.0 1.0 319.0 0.6 319.0 0.2 319.3 -0.1 319.6 -0.4 320.0 -0.4 L320.7 -0.1 M315.7 -0.1 L316.0 0.6 315.7 1.3 315.0 1.6 314.3 1.3 Q314.0 1.0 314.0 0.6 314.0 0.2 314.3 -0.1 L315.0 -0.4 315.7 -0.1 M310.7 -0.15 L311.0 0.55 310.7 1.25 310.0 1.55 309.3 1.25 Q309.0 0.95 309.0 0.55 309.0 0.15 309.3 -0.15 L310.0 -0.45 310.7 -0.15 M305.7 -0.15 L306.0 0.55 305.7 1.25 305.0 1.55 Q304.6 1.55 304.3 1.25 304.0 0.95 304.0 0.55 304.0 0.15 304.3 -0.15 304.6 -0.45 305.0 -0.45 L305.7 -0.15 M325.0 -0.35 L325.7 -0.05 326.0 0.65 325.7 1.35 325.0 1.65 Q324.6 1.65 324.3 1.35 324.0 1.05 324.0 0.65 324.0 0.25 324.3 -0.05 324.6 -0.35 325.0 -0.35 M330.0 -0.35 L330.7 -0.05 331.0 0.65 330.7 1.35 330.0 1.65 Q329.6 1.65 329.3 1.35 L329.0 0.65 Q329.0 0.25 329.3 -0.05 329.6 -0.35 330.0 -0.35 M335.0 -0.3 L335.7 0.0 336.0 0.7 335.7 1.4 335.0 1.7 334.3 1.4 Q334.0 1.1 334.0 0.7 334.0 0.3 334.3 0.0 L335.0 -0.3 M340.0 -0.3 L340.7 0.0 341.0 0.7 340.7 1.4 340.0 1.7 339.3 1.4 Q339.0 1.1 339.0 0.7 339.0 0.3 339.3 0.0 L340.0 -0.3 M360.7 0.1 L361.0 0.8 360.7 1.5 360.0 1.8 Q359.6 1.8 359.3 1.5 359.0 1.2 359.0 0.8 359.0 0.4 359.3 0.1 359.6 -0.2 360.0 -0.2 L360.7 0.1 M355.7 0.1 L356.0 0.8 355.7 1.5 355.0 1.8 354.3 1.45 Q354.0 1.15 354.0 0.75 354.0 0.35 354.3 0.05 354.6 -0.25 355.0 -0.2 L355.7 0.1 M350.7 0.05 L351.0 0.75 350.7 1.45 350.0 1.75 Q349.6 1.75 349.3 1.45 349.0 1.15 349.0 0.75 349.0 0.35 349.3 0.05 349.6 -0.25 350.0 -0.25 L350.7 0.05 M345.7 0.05 L346.0 0.75 345.7 1.45 Q345.4 1.75 345.0 1.75 L344.3 1.45 344.0 0.7 Q344.0 0.3 344.3 0.05 L345.0 -0.25 Q345.4 -0.25 345.7 0.05 M365.7 0.1 L366.0 0.85 365.7 1.5 365.0 1.8 Q364.6 1.8 364.3 1.5 364.0 1.2 364.0 0.8 364.0 0.4 364.3 0.1 364.6 -0.2 365.0 -0.2 L365.7 0.1 M370.0 -0.15 Q370.4 -0.15 370.7 0.15 L371.0 0.85 370.7 1.55 Q370.4 1.85 370.0 1.85 L369.3 1.55 Q369.0 1.25 369.0 0.85 369.0 0.45 369.3 0.15 L370.0 -0.15" fill="#666666" fill-rule="evenodd" stroke="none"/>
    </g>
    <g id="sprite2" transform="matrix(1.0, 0.0, 0.0, 1.0, 0.75, 0.75)">
      <use data-characterId="160" height="1.5" transform="matrix(1.0, 0.0, 0.0, 1.0, -0.75, -0.75)" width="371.5" xlink:href="#shape1"/>
    </g>
    <g id="shape1" transform="matrix(1.0, 0.0, 0.0, 1.0, 0.75, 0.75)">
      <path d="M0.0 0.0 L370.0 0.0" fill="none" stroke="#333333" stroke-linecap="round" stroke-linejoin="round" stroke-width="1.5"/>
    </g>
  </defs>
</svg>
