<?xml version="1.0" encoding="UTF-8" standalone="no"?>
<svg xmlns:xlink="http://www.w3.org/1999/xlink" height="440.0px" width="860.0px" xmlns="http://www.w3.org/2000/svg">
  <g transform="matrix(1.0, 0.0, 0.0, 1.0, 0.0, 0.0)">
    <use data-characterId="9" height="0.0" id="m_sound" transform="matrix(1.0, 0.0, 0.0, 1.0, -57.5, -32.5)" width="20.0" xlink:href="#sprite0"/>
    <use data-characterId="10" height="446.0" transform="matrix(1.0, 0.0, 0.0, 1.0, -4.0, 0.0)" width="867.95" xlink:href="#shape0"/>
    <use data-characterId="11" height="49.85" transform="matrix(1.0, 0.0, 0.0, 1.0, 500.0, 398.15)" width="393.45" xlink:href="#shape1"/>
    <use data-characterId="13" height="51.65" transform="matrix(1.0, 0.0, 0.0, 1.0, -26.55, 394.35)" width="393.45" xlink:href="#sprite2"/>
    <use data-characterId="14" height="138.5" transform="matrix(1.0, 0.0, 0.0, 1.0, 490.2, 398.15)" width="403.35" xlink:href="#shape3"/>
    <use data-characterId="15" height="124.7" transform="matrix(0.8444, 0.0, 0.0, 0.8444, 538.8319, 426.4693)" width="195.35" xlink:href="#shape4"/>
    <use data-characterId="15" height="124.7" transform="matrix(0.8444, 0.0, 0.0, 0.8444, 533.8319, 426.4693)" width="195.35" xlink:href="#shape4"/>
    <use data-characterId="16" height="105.1" transform="matrix(1.0, 0.0, 0.0, 1.0, 697.75, 424.65)" width="155.6" xlink:href="#shape5"/>
    <use data-characterId="37" height="163.75" id="m_loading" transform="matrix(1.0012, 0.0, 0.0, 1.0, 368.1236, 154.2)" width="123.65" xlink:href="#sprite3"/>
  </g>
  <defs>
    <g id="sprite0" transform="matrix(1.0, 0.0, 0.0, 1.0, -20.0, -20.0)">
      <use data-characterId="8" height="0.0" id="m_bgm" transform="matrix(1.0, 0.0, 0.0, 1.0, 20.0, 20.0)" width="0.0" xlink:href="#sprite1"/>
      <use data-characterId="8" height="0.0" id="m_se" transform="matrix(1.0, 0.0, 0.0, 1.0, 40.0, 20.0)" width="0.0" xlink:href="#sprite1"/>
    </g>
    <g id="shape0" transform="matrix(1.0, 0.0, 0.0, 1.0, 4.0, 0.0)">
      <path d="M863.95 446.0 L-1.0 446.0 -1.0 0.0 863.95 0.0 863.95 446.0" fill="#ffcc00" fill-rule="evenodd" stroke="none"/>
      <path d="M859.95 415.5 L859.95 446.0 -4.0 446.0 -4.0 415.5 859.95 415.5" fill="url(#gradient0)" fill-rule="evenodd" stroke="none"/>
    </g>
    <linearGradient gradientTransform="matrix(0.0, -0.0189, 0.0201, 0.0, 427.45, 430.7)" gradientUnits="userSpaceOnUse" id="gradient0" spreadMethod="pad" x1="-819.2" x2="819.2">
      <stop offset="0.13333333333333333" stop-color="#5edc0c"/>
      <stop offset="1.0" stop-color="#ffcc00"/>
    </linearGradient>
    <g id="shape1" transform="matrix(1.0, 0.0, 0.0, 1.0, -500.0, -398.15)">
      <path d="M745.75 448.0 L744.95 448.0 Q745.4 447.2 745.5 447.35 L745.75 447.95 745.75 448.0 M720.75 423.5 Q721.15 423.0 721.75 422.95 722.35 422.9 722.85 423.3 L720.55 423.75 720.75 423.5" fill="#d41817" fill-rule="evenodd" stroke="none"/>
      <path d="M723.45 448.0 L676.85 448.0 676.85 447.35 679.7 447.3 679.45 447.2 681.0 447.2 706.8 447.0 715.3 446.9 723.45 448.0 M670.85 448.0 L630.1 448.0 630.35 444.85 670.85 444.85 670.85 448.0 M530.1 448.0 L506.45 448.0 503.0 445.85 503.05 435.7 518.0 434.2 518.75 433.95 526.8 434.05 Q527.35 434.05 527.8 433.7 L527.95 433.55 529.05 433.6 530.75 434.2 530.1 448.0 M856.65 401.8 L861.25 420.1 818.05 420.65 816.35 403.9 856.65 401.8 M741.85 439.05 L741.85 438.45 725.8 439.2 724.6 425.45 764.15 426.5 765.75 439.05 741.85 439.05 M576.2 427.0 L576.25 427.0 576.3 426.55 607.9 425.2 611.05 425.2 606.45 444.55 574.35 443.05 576.2 427.0 M558.0 416.45 L557.7 427.0 557.5 427.0 557.45 429.0 532.55 429.8 532.2 427.0 531.4 427.0 530.65 421.1 558.0 416.45" fill="#fc8046" fill-rule="evenodd" stroke="none"/>
      <path d="M796.4 440.45 L796.4 440.25 797.1 440.45 796.4 440.45" fill="#551e11" fill-rule="evenodd" stroke="none"/>
      <path d="M892.45 448.0 L857.15 448.0 856.1 439.65 871.95 438.8 Q872.3 438.75 872.55 438.5 L872.8 437.85 872.75 437.75 866.35 437.35 864.0 428.55 864.6 437.45 853.85 438.05 853.5 438.15 819.65 437.75 818.8 425.85 818.5 425.25 818.05 425.05 818.1 424.95 818.25 424.8 824.9 424.8 825.55 424.55 825.8 423.9 818.25 423.05 818.1 422.85 Q817.85 422.6 817.5 422.5 L814.3 419.9 814.45 419.15 813.2 404.1 816.35 403.9 818.05 420.65 861.25 420.1 856.65 401.8 867.05 401.25 870.0 418.5 Q870.05 419.05 870.5 419.4 L871.45 419.75 871.6 419.75 872.95 423.05 851.25 424.5 851.3 424.55 851.9 424.8 873.9 424.8 874.15 424.95 Q874.7 425.2 875.3 424.95 L876.15 424.15 Q876.4 423.6 876.15 423.0 L874.9 419.85 892.45 420.15 892.45 448.0 M854.1 448.0 L804.15 448.0 804.45 440.55 817.7 440.75 817.85 440.95 Q818.3 441.4 818.9 441.4 819.5 441.4 819.95 440.95 L820.15 440.8 853.25 441.15 854.1 448.0 M792.5 448.0 L745.75 448.0 745.75 447.95 745.5 447.35 Q745.4 447.2 744.95 448.0 L742.9 448.0 742.75 446.9 742.75 440.8 769.9 440.8 770.55 440.55 770.8 439.9 770.6 439.4 770.8 438.8 769.5 426.6 769.5 426.55 769.5 426.45 769.15 423.25 810.9 420.9 811.3 421.35 816.0 425.1 816.9 425.4 817.05 425.4 817.2 425.4 Q817.0 425.65 817.05 425.95 L817.9 437.75 797.2 437.45 Q796.55 437.45 796.1 437.9 L795.95 438.1 Q795.5 437.65 794.9 437.65 794.3 437.65 793.85 438.1 L793.65 438.35 783.85 439.05 783.45 439.15 793.4 440.15 793.35 443.75 792.8 444.0 792.55 444.6 792.5 448.0 M734.75 448.0 L723.45 448.0 715.3 446.9 706.8 447.0 713.9 446.8 714.5 446.5 714.6 446.4 693.6 445.65 692.75 433.95 693.0 433.9 693.1 434.25 693.45 434.6 693.9 434.7 695.7 434.65 696.05 434.55 696.4 434.65 721.65 433.85 721.9 434.15 Q722.4 434.5 723.0 434.45 L724.05 433.9 Q724.4 433.4 724.35 432.8 L723.5 425.15 741.05 422.65 741.0 423.05 Q740.9 423.5 741.1 423.95 L741.7 424.6 742.55 424.8 767.4 423.35 767.75 426.65 767.75 426.75 769.05 438.95 769.05 439.05 765.75 439.05 764.15 426.5 724.6 425.45 725.8 439.2 741.85 438.45 741.85 439.05 Q741.5 439.0 741.25 439.3 740.95 439.55 741.0 439.9 L741.0 440.3 725.95 440.65 726.3 446.3 729.0 446.55 729.0 446.7 Q728.95 447.05 729.2 447.35 729.4 447.6 729.8 447.65 L734.75 448.0 M676.85 448.0 L675.0 448.0 674.8 442.9 674.5 442.3 673.9 442.05 660.95 442.8 661.25 442.4 Q661.25 436.4 659.55 435.5 L656.3 432.55 654.7 431.25 655.05 425.2 668.7 423.85 685.2 424.7 685.8 446.15 681.8 446.45 Q681.45 446.45 681.2 446.75 L681.0 447.2 679.45 447.2 679.7 447.3 676.85 447.35 676.85 448.0 M673.25 448.0 L670.85 448.0 670.85 444.85 630.35 444.85 630.1 448.0 629.1 448.0 629.35 445.5 629.25 444.8 642.35 444.8 643.0 444.55 643.2 444.15 628.85 443.05 Q628.5 443.0 628.25 443.3 628.0 443.5 628.0 443.85 L618.3 441.0 618.05 440.95 617.85 435.7 Q618.75 435.5 619.45 434.95 L653.15 433.55 653.9 433.4 655.75 434.25 Q658.55 435.65 659.45 438.15 L658.75 441.25 658.95 442.9 653.05 443.25 653.25 443.55 653.85 443.8 673.05 443.8 673.25 448.0 M565.9 448.0 L534.35 448.0 533.85 437.7 533.55 437.1 533.5 437.05 533.1 448.0 530.1 448.0 530.75 434.2 529.05 433.6 565.9 435.35 565.9 448.0 M506.45 448.0 L503.0 448.0 503.0 445.85 506.45 448.0 M742.75 412.35 L741.35 420.8 720.45 424.0 Q720.35 424.3 720.4 424.6 L721.25 432.15 696.4 432.9 696.05 432.95 695.6 432.9 694.75 432.9 694.75 423.9 694.5 423.3 Q694.2 423.0 693.85 423.05 693.5 423.0 693.25 423.3 L693.15 423.4 691.8 423.4 693.2 414.85 742.75 412.35 M720.75 423.5 L720.55 423.75 722.85 423.3 Q722.35 422.9 721.75 422.95 721.15 423.0 720.75 423.5 M611.05 425.2 L615.4 425.25 615.4 433.5 615.4 433.7 Q615.45 434.3 615.9 434.65 L616.1 435.4 616.5 446.05 616.75 446.65 617.1 446.85 617.1 446.95 616.85 446.9 Q616.25 446.9 615.8 447.35 L615.75 447.4 572.5 444.2 572.35 445.1 572.15 444.5 Q571.95 444.2 571.6 444.15 L572.95 435.7 573.2 435.7 573.65 435.45 573.95 435.0 573.95 434.95 575.2 427.0 576.2 427.0 574.35 443.05 606.45 444.55 611.05 425.2 M576.3 426.55 L576.3 426.15 598.0 425.1 607.9 425.2 576.3 426.55 M558.0 416.45 L558.05 416.45 574.05 418.1 573.2 427.0 573.4 427.0 572.3 433.9 528.4 431.8 528.95 427.0 529.65 427.0 530.3 421.15 530.5 421.1 530.65 421.1 531.4 427.0 532.2 427.0 532.55 429.8 557.45 429.0 557.5 427.0 557.7 427.0 558.0 416.45" fill="#e45c23" fill-rule="evenodd" stroke="none"/>
      <path d="M503.0 448.0 L500.0 448.0 500.05 434.3 Q500.05 433.75 500.45 433.3 500.85 432.85 501.4 432.8 L510.75 431.9 Q511.1 431.5 511.65 431.45 L517.7 430.9 517.9 430.9 525.45 431.05 526.6 421.0 527.3 421.0 527.45 419.55 Q527.5 419.0 527.95 418.65 528.3 418.25 528.85 418.2 L530.3 418.1 557.8 413.45 558.2 413.4 575.8 415.25 Q576.4 415.3 576.8 415.8 577.2 416.25 577.15 416.9 L576.6 423.1 597.85 422.1 597.9 422.1 616.9 422.25 Q617.5 422.25 617.95 422.7 618.4 423.15 618.4 423.75 L618.4 431.5 618.45 431.55 620.2 431.9 651.75 430.6 652.1 423.75 Q652.15 423.15 652.55 422.75 652.9 422.35 653.45 422.3 L668.45 420.85 668.7 420.85 689.05 421.85 690.45 413.2 Q690.5 412.65 690.9 412.3 691.3 411.9 691.85 411.9 L726.9 410.15 726.9 410.1 749.25 410.1 750.1 420.05 792.55 418.9 792.55 418.95 811.35 417.85 810.05 402.8 Q810.0 402.35 810.2 402.0 L810.75 401.4 Q811.05 401.15 811.5 401.15 L868.25 398.15 Q868.8 398.1 869.25 398.5 L869.8 399.4 872.75 416.8 892.95 417.15 892.95 419.65 893.3 419.8 893.45 420.15 893.45 448.0 892.45 448.0 892.45 420.15 874.9 419.85 876.15 423.0 Q876.4 423.6 876.15 424.15 L875.3 424.95 Q874.7 425.2 874.15 424.95 L873.9 424.8 851.9 424.8 851.3 424.55 851.25 424.5 872.95 423.05 871.6 419.75 871.45 419.75 870.5 419.4 Q870.05 419.05 870.0 418.5 L867.05 401.25 856.65 401.8 816.35 403.9 813.2 404.1 814.45 419.15 814.3 419.9 817.5 422.5 Q817.85 422.6 818.1 422.85 L818.25 423.05 825.8 423.9 825.55 424.55 824.9 424.8 818.25 424.8 818.1 424.95 818.05 425.05 818.5 425.25 818.8 425.85 819.65 437.75 853.5 438.15 853.85 438.05 864.6 437.45 864.0 428.55 866.35 437.35 872.75 437.75 872.8 437.85 872.55 438.5 Q872.3 438.75 871.95 438.8 L856.1 439.65 857.15 448.0 854.1 448.0 853.25 441.15 820.15 440.8 819.95 440.95 Q819.5 441.4 818.9 441.4 818.3 441.4 817.85 440.95 L817.7 440.75 804.45 440.55 804.15 448.0 792.5 448.0 792.55 444.6 792.8 444.0 793.35 443.75 793.4 440.15 783.45 439.15 783.85 439.05 793.65 438.35 793.85 438.1 Q794.3 437.65 794.9 437.65 795.5 437.65 795.95 438.1 L796.1 437.9 Q796.55 437.45 797.2 437.45 L817.9 437.75 817.05 425.95 Q817.0 425.65 817.2 425.4 L817.05 425.4 816.9 425.4 816.0 425.1 811.3 421.35 810.9 420.9 769.15 423.25 769.5 426.45 769.5 426.55 769.5 426.6 770.8 438.8 770.6 439.4 770.8 439.9 770.55 440.55 769.9 440.8 742.75 440.8 742.75 446.9 742.9 448.0 734.75 448.0 729.8 447.65 Q729.4 447.6 729.2 447.35 728.95 447.05 729.0 446.7 L729.0 446.55 726.3 446.3 725.95 440.65 741.0 440.3 741.0 439.9 Q740.95 439.55 741.25 439.3 741.5 439.0 741.85 439.05 L765.75 439.05 769.05 439.05 769.05 438.95 767.75 426.75 767.75 426.65 767.4 423.35 742.55 424.8 741.7 424.6 741.1 423.95 Q740.9 423.5 741.0 423.05 L741.05 422.65 723.5 425.15 724.35 432.8 Q724.4 433.4 724.05 433.9 L723.0 434.45 Q722.4 434.5 721.9 434.15 L721.65 433.85 696.4 434.65 696.05 434.55 695.7 434.65 693.9 434.7 693.45 434.6 693.1 434.25 693.0 433.9 692.75 433.95 693.6 445.65 714.6 446.4 714.5 446.5 713.9 446.8 706.8 447.0 681.0 447.2 681.2 446.75 Q681.45 446.45 681.8 446.45 L685.8 446.15 685.2 424.7 668.7 423.85 655.05 425.2 654.7 431.25 656.3 432.55 659.55 435.5 Q661.25 436.4 661.25 442.4 L660.95 442.8 673.9 442.05 674.5 442.3 674.8 442.9 675.0 448.0 673.25 448.0 673.05 443.8 653.85 443.8 653.25 443.55 653.05 443.25 658.95 442.9 658.75 441.25 659.45 438.15 Q658.55 435.65 655.75 434.25 L653.9 433.4 653.15 433.55 619.45 434.95 Q618.75 435.5 617.85 435.7 L618.05 440.95 618.3 441.0 628.0 443.85 Q628.0 443.5 628.25 443.3 628.5 443.0 628.85 443.05 L643.2 444.15 643.0 444.55 642.35 444.8 629.25 444.8 629.35 445.5 629.1 448.0 565.9 448.0 565.9 435.35 529.05 433.6 527.95 433.55 527.8 433.7 Q527.35 434.05 526.8 434.05 L518.75 433.95 518.0 434.2 503.05 435.7 503.0 445.85 503.0 448.0 M534.35 448.0 L533.1 448.0 533.5 437.05 533.55 437.1 533.85 437.7 534.35 448.0 M796.4 440.45 L797.1 440.45 796.4 440.25 796.4 440.45 M742.75 412.35 L693.2 414.85 691.8 423.4 693.15 423.4 693.25 423.3 Q693.5 423.0 693.85 423.05 694.2 423.0 694.5 423.3 L694.75 423.9 694.75 432.9 695.6 432.9 696.05 432.95 696.4 432.9 721.25 432.15 720.4 424.6 Q720.35 424.3 720.45 424.0 L741.35 420.8 742.75 412.35 M576.2 427.0 L575.2 427.0 573.95 434.95 573.95 435.0 573.65 435.45 573.2 435.7 572.95 435.7 571.6 444.15 Q571.95 444.2 572.15 444.5 L572.35 445.1 572.5 444.2 615.75 447.4 615.8 447.35 Q616.25 446.9 616.85 446.9 L617.1 446.95 617.1 446.85 616.75 446.65 616.5 446.05 616.1 435.4 615.9 434.65 Q615.45 434.3 615.4 433.7 L615.4 433.5 615.4 425.25 611.05 425.2 607.9 425.2 598.0 425.1 576.3 426.15 576.3 426.55 576.25 427.0 576.2 427.0 M530.65 421.1 L530.5 421.1 530.3 421.15 529.65 427.0 528.95 427.0 528.4 431.8 572.3 433.9 573.4 427.0 573.2 427.0 574.05 418.1 558.05 416.45 558.0 416.45 530.65 421.1" fill="#a74014" fill-rule="evenodd" stroke="none"/>
    </g>
    <g id="sprite2" transform="matrix(1.0, 0.0, 0.0, 1.0, 201.0, 80.55)">
      <use data-characterId="12" height="51.65" transform="matrix(1.0, 0.0, 0.0, 1.0, -201.0, -80.55)" width="393.45" xlink:href="#shape2"/>
    </g>
    <g id="shape2" transform="matrix(1.0, 0.0, 0.0, 1.0, 201.0, 80.55)">
      <path d="M-200.0 -28.9 L-201.0 -28.9 -201.0 -55.5 -200.85 -55.85 -200.5 -56.0 -200.5 -58.5 -180.25 -58.85 -177.3 -76.25 -176.75 -77.15 Q-176.35 -77.55 -175.75 -77.5 L-119.0 -74.5 -118.25 -74.25 -117.75 -73.65 -117.6 -72.85 -118.85 -57.8 -100.1 -56.7 -98.7 -75.55 -92.35 -80.55 -36.4 -76.35 -34.45 -65.5 0.65 -63.75 1.55 -63.35 2.05 -62.45 3.45 -53.8 23.8 -54.8 24.0 -54.8 39.0 -53.35 Q39.55 -53.3 39.95 -52.9 L40.35 -51.9 40.7 -45.05 72.25 -43.75 74.0 -44.1 74.05 -44.15 74.05 -51.9 Q74.05 -52.5 74.5 -52.95 74.95 -53.4 75.55 -53.4 L94.55 -53.55 94.65 -53.55 115.75 -52.55 115.3 -57.25 Q115.25 -57.9 115.65 -58.35 116.05 -58.85 116.65 -58.9 L134.25 -60.75 134.65 -60.7 162.15 -56.05 163.6 -55.95 164.55 -55.5 164.6 -55.45 165.8 -55.45 167.0 -44.6 174.6 -44.75 174.75 -44.75 180.8 -44.2 Q181.35 -44.15 181.7 -43.75 L191.05 -42.85 Q191.6 -42.8 192.0 -42.35 192.4 -41.9 192.4 -41.35 L192.45 -28.9 189.45 -28.9 189.45 -29.8 189.4 -39.95 174.45 -41.45 Q174.05 -41.5 173.75 -41.7 L165.65 -41.6 Q165.1 -41.6 164.65 -41.95 L164.5 -42.1 163.45 -42.05 126.55 -40.3 126.55 -28.9 85.5 -28.9 120.0 -31.45 120.15 -30.55 120.3 -31.15 Q120.5 -31.45 120.85 -31.5 L119.55 -39.95 119.25 -39.95 118.8 -40.2 Q118.6 -40.4 118.55 -40.65 L118.55 -40.7 117.4 -47.95 116.35 -47.95 116.15 -47.95 116.05 -49.1 116.0 -49.5 94.5 -50.55 84.6 -50.45 81.45 -50.45 77.05 -50.4 77.05 -42.15 77.05 -41.95 Q77.0 -41.35 76.55 -41.0 L76.35 -40.25 76.0 -29.6 75.7 -29.0 75.6 -28.9 63.25 -28.9 63.1 -30.15 63.2 -30.85 50.1 -30.85 Q49.75 -30.85 49.5 -31.1 L49.25 -31.5 63.6 -32.6 64.25 -32.35 64.5 -31.8 74.2 -34.65 74.4 -34.7 74.6 -39.95 Q73.7 -40.15 73.05 -40.7 L39.3 -42.1 38.6 -42.25 36.7 -41.4 Q33.9 -40.0 33.0 -37.5 L33.7 -34.4 33.55 -32.95 33.5 -32.75 33.55 -32.75 39.25 -32.4 39.4 -32.4 39.4 -32.35 39.4 -32.3 39.25 -32.1 38.6 -31.85 19.4 -31.85 19.3 -28.9 17.3 -28.9 16.9 -32.5 -2.95 -33.35 -2.95 -34.85 -33.5 -35.45 -33.5 -35.0 -48.5 -35.35 -49.5 -35.1 -50.15 -35.2 -50.4 -34.85 -50.25 -34.85 -50.35 -28.9 -52.95 -28.9 -52.6 -34.85 -77.45 -34.85 Q-77.8 -34.85 -78.05 -35.1 L-78.3 -35.75 -78.15 -36.25 -78.3 -36.85 -77.0 -49.05 -77.0 -49.1 -77.0 -49.2 -76.65 -52.4 -118.4 -54.75 -118.8 -54.3 -123.5 -50.55 Q-123.95 -50.25 -124.45 -50.25 L-124.6 -50.25 -124.75 -50.25 -124.55 -49.7 -125.4 -37.9 -104.7 -38.2 Q-104.1 -38.2 -103.65 -37.75 L-103.45 -37.55 Q-103.05 -38.0 -102.45 -38.0 -101.85 -38.0 -101.4 -37.55 L-101.15 -37.3 -91.35 -36.6 -91.0 -36.5 -100.95 -35.5 -100.95 -28.9 -103.95 -28.9 -103.95 -35.4 -104.65 -35.2 -125.2 -34.9 -125.25 -34.85 -160.75 -34.5 -161.5 -28.9 -164.55 -28.9 -163.6 -36.0 -179.5 -36.85 -180.1 -37.15 -180.3 -37.8 -180.3 -37.9 -173.9 -38.3 -171.5 -47.1 -172.1 -38.2 -161.4 -37.6 -161.0 -37.5 -127.15 -37.9 -126.3 -49.8 -126.0 -50.4 -125.55 -50.6 -125.65 -50.7 -125.8 -50.85 -132.45 -50.85 -133.05 -51.1 -133.3 -51.75 -125.8 -52.6 -125.65 -52.8 -125.05 -53.15 -121.85 -55.75 -122.0 -56.5 -120.7 -71.55 -123.85 -71.75 -164.2 -73.85 -174.6 -74.4 -177.5 -57.15 Q-177.6 -56.6 -178.0 -56.25 -178.45 -55.9 -178.95 -55.9 L-179.15 -55.9 -180.45 -52.6 -158.8 -51.15 -158.75 -51.15 -158.8 -51.1 Q-159.1 -50.85 -159.45 -50.85 L-179.2 -51.4 -179.2 -51.45 -183.65 -51.5 Q-183.9 -52.1 -183.7 -52.65 L-182.4 -55.8 -200.0 -55.5 -200.0 -28.9 M159.3 -28.9 L158.15 -28.9 158.65 -37.95 Q158.65 -38.3 158.95 -38.55 L159.0 -38.6 159.3 -28.9 M23.8 -51.8 L7.25 -50.95 6.85 -34.65 16.7 -34.45 16.75 -33.95 18.25 -33.55 18.55 -33.6 31.55 -32.85 31.2 -33.25 Q31.2 -34.9 31.35 -36.15 31.65 -39.5 32.9 -40.15 33.6 -40.5 36.15 -43.1 L37.75 -44.4 37.45 -50.45 23.8 -51.8 M134.45 -57.7 L134.4 -57.7 118.45 -56.05 119.2 -47.95 120.15 -41.75 164.05 -43.85 163.6 -47.95 162.75 -47.95 162.15 -53.0 161.95 -53.05 161.85 -53.05 161.8 -53.05 134.45 -57.7 M-90.4 -77.2 L-90.4 -59.75 -60.85 -58.9 -59.65 -68.8 -49.85 -68.8 -49.85 -68.65 -37.25 -68.05 -38.15 -74.6 -51.25 -75.3 -51.2 -75.55 -90.4 -77.2 M-1.4 -52.6 Q-1.05 -52.65 -0.75 -52.35 L-0.65 -52.25 0.65 -52.25 -0.7 -60.8 -50.25 -63.3 -48.9 -54.85 -28.0 -51.65 -27.95 -51.05 -28.8 -43.5 -3.9 -42.75 -3.55 -42.7 -3.15 -42.75 -2.25 -42.75 -2.25 -51.75 -2.0 -52.35 -1.4 -52.6 M-50.05 -28.9 L-50.1 -28.9 -50.2 -28.9 -50.2 -28.95 -50.05 -28.9 M-73.25 -36.6 L-49.4 -36.6 -49.4 -37.2 -33.35 -36.45 -33.3 -36.6 -32.3 -36.5 -31.25 -41.45 -31.55 -41.75 Q-31.95 -42.25 -31.9 -42.85 L-31.05 -50.5 -74.9 -52.3 -75.25 -49.0 -75.25 -48.9 -76.55 -36.7 -76.6 -36.6 -73.25 -36.6 M-2.95 -36.9 L-2.95 -41.0 -3.25 -41.0 -3.55 -41.1 -3.95 -41.0 -29.2 -41.8 -29.45 -41.5 -29.65 -41.35 -30.7 -36.9 -2.95 -36.9 M-22.05 -29.15 L-22.15 -29.25 -22.05 -29.25 -22.05 -29.15" fill="#a74014" fill-rule="evenodd" stroke="none"/>
      <path d="M-200.0 -28.9 L-200.0 -55.5 -182.4 -55.8 -183.7 -52.65 Q-183.9 -52.1 -183.65 -51.5 L-179.2 -51.45 -179.2 -51.4 -159.45 -50.85 Q-159.1 -50.85 -158.8 -51.1 L-158.75 -51.15 -158.8 -51.15 -180.45 -52.6 -179.15 -55.9 -178.95 -55.9 Q-178.45 -55.9 -178.0 -56.25 -177.6 -56.6 -177.5 -57.15 L-174.6 -74.4 -164.2 -73.85 -168.75 -55.55 -125.6 -55.0 -123.85 -71.75 -120.7 -71.55 -122.0 -56.5 -121.85 -55.75 -125.05 -53.15 -125.65 -52.8 -125.8 -52.6 -133.3 -51.75 -133.05 -51.1 -132.45 -50.85 -125.8 -50.85 -125.65 -50.7 -125.55 -50.6 -126.0 -50.4 -126.3 -49.8 -127.15 -37.9 -161.0 -37.5 -161.4 -37.6 -172.1 -38.2 -171.5 -47.1 -173.9 -38.3 -180.3 -37.9 -180.3 -37.8 -180.1 -37.15 -179.5 -36.85 -163.6 -36.0 -164.55 -28.9 -200.0 -28.9 M-100.95 -28.9 L-100.95 -35.5 -91.0 -36.5 -91.35 -36.6 -101.15 -37.3 -101.4 -37.55 Q-101.85 -38.0 -102.45 -38.0 -103.05 -38.0 -103.45 -37.55 L-103.65 -37.75 Q-104.1 -38.2 -104.7 -38.2 L-125.4 -37.9 -124.55 -49.7 -124.75 -50.25 -124.6 -50.25 -124.45 -50.25 Q-123.95 -50.25 -123.5 -50.55 L-118.8 -54.3 -118.4 -54.75 -76.65 -52.4 -77.0 -49.2 -77.0 -49.1 -77.0 -49.05 -78.3 -36.85 -78.15 -36.25 -78.3 -35.75 -78.05 -35.1 Q-77.8 -34.85 -77.45 -34.85 L-52.6 -34.85 -52.95 -28.9 -100.95 -28.9 M19.3 -28.9 L19.4 -31.85 38.6 -31.85 39.25 -32.1 39.4 -32.3 39.4 -32.35 39.4 -32.4 39.25 -32.4 33.55 -32.75 33.5 -32.75 33.55 -32.95 33.7 -34.4 33.0 -37.5 Q33.9 -40.0 36.7 -41.4 L38.6 -42.25 39.3 -42.1 73.05 -40.7 Q73.7 -40.15 74.6 -39.95 L74.4 -34.7 74.2 -34.65 64.5 -31.8 64.25 -32.35 63.6 -32.6 49.25 -31.5 49.5 -31.1 Q49.75 -30.85 50.1 -30.85 L63.2 -30.85 63.1 -30.15 63.25 -28.9 62.3 -28.9 62.15 -30.8 21.6 -30.8 21.6 -28.9 19.3 -28.9 M75.6 -28.9 L75.7 -29.0 76.0 -29.6 76.35 -40.25 76.55 -41.0 Q77.0 -41.35 77.05 -41.95 L77.05 -42.15 77.05 -50.4 81.45 -50.45 86.05 -31.1 118.15 -32.6 116.35 -47.95 117.4 -47.95 118.55 -40.7 118.55 -40.65 Q118.6 -40.4 118.8 -40.2 L119.25 -39.95 119.55 -39.95 120.85 -31.5 Q120.5 -31.45 120.3 -31.15 L120.15 -30.55 120.0 -31.45 85.5 -28.9 75.6 -28.9 M84.6 -50.45 L94.5 -50.55 116.0 -49.5 116.05 -49.1 84.6 -50.45 M126.55 -28.9 L126.55 -40.3 163.45 -42.05 161.7 -41.45 162.3 -28.9 159.3 -28.9 159.0 -38.6 158.95 -38.55 Q158.65 -38.3 158.65 -37.95 L158.15 -28.9 126.55 -28.9 M189.45 -29.8 L189.45 -28.9 188.0 -28.9 189.45 -29.8 M23.8 -51.8 L37.45 -50.45 37.75 -44.4 36.15 -43.1 Q33.6 -40.5 32.9 -40.15 31.65 -39.5 31.35 -36.15 31.2 -34.9 31.2 -33.25 L31.55 -32.85 18.55 -33.6 18.25 -33.55 16.75 -33.95 16.7 -34.45 6.85 -34.65 7.25 -50.95 23.8 -51.8 M161.85 -53.05 L161.95 -53.05 162.15 -53.0 162.75 -47.95 163.6 -47.95 164.05 -43.85 120.15 -41.75 119.2 -47.95 118.45 -56.05 134.4 -57.7 134.45 -57.7 134.75 -47.95 135.0 -47.95 135.05 -46.65 159.95 -45.85 160.2 -47.95 161.2 -47.95 161.85 -53.05 M-90.4 -77.2 L-51.2 -75.55 -51.25 -75.3 -38.15 -74.6 -37.25 -68.05 -49.85 -68.65 -49.85 -68.8 -59.65 -68.8 -60.85 -58.9 -90.4 -59.75 -90.4 -77.2 M-1.4 -52.6 L-2.0 -52.35 -2.25 -51.75 -2.25 -42.75 -3.15 -42.75 -3.55 -42.7 -3.9 -42.75 -28.8 -43.5 -27.95 -51.05 -28.0 -51.65 -48.9 -54.85 -50.25 -63.3 -0.7 -60.8 0.65 -52.25 -0.65 -52.25 -0.75 -52.35 Q-1.05 -52.65 -1.4 -52.6 M-73.25 -36.6 L-76.6 -36.6 -76.55 -36.7 -75.25 -48.9 -75.25 -49.0 -74.9 -52.3 -31.05 -50.5 -31.9 -42.85 Q-31.95 -42.25 -31.55 -41.75 L-31.25 -41.45 -32.3 -36.5 -33.3 -36.6 -32.1 -50.2 -71.15 -51.9 -73.25 -36.6 M-2.95 -36.9 L-30.7 -36.9 -29.65 -41.35 -29.45 -41.5 -29.2 -41.8 -3.95 -41.0 -3.55 -41.1 -3.25 -41.0 -2.95 -41.0 -2.95 -36.9" fill="#e45c23" fill-rule="evenodd" stroke="none"/>
      <path d="M-164.2 -73.85 L-123.85 -71.75 -125.6 -55.0 -168.75 -55.55 -164.2 -73.85 M81.45 -50.45 L84.6 -50.45 116.05 -49.1 116.15 -47.95 116.35 -47.95 118.15 -32.6 86.05 -31.1 81.45 -50.45 M163.45 -42.05 L164.5 -42.1 164.65 -41.95 Q165.1 -41.6 165.65 -41.6 L173.75 -41.7 Q174.05 -41.5 174.45 -41.45 L189.4 -39.95 189.45 -29.8 188.0 -28.9 162.3 -28.9 161.7 -41.45 163.45 -42.05 M21.6 -28.9 L21.6 -30.8 62.15 -30.8 62.3 -28.9 21.6 -28.9 M134.45 -57.7 L161.8 -53.05 161.85 -53.05 161.2 -47.95 160.2 -47.95 159.95 -45.85 135.05 -46.65 135.0 -47.95 134.75 -47.95 134.45 -57.7 M-33.3 -36.6 L-33.35 -36.45 -49.4 -37.2 -49.4 -36.6 -73.25 -36.6 -71.15 -51.9 -32.1 -50.2 -33.3 -36.6" fill="#fc8046" fill-rule="evenodd" stroke="none"/>
      <path d="M-161.5 -28.9 L-160.75 -34.5 -125.25 -34.85 -125.2 -34.9 -104.65 -35.2 -103.95 -35.4 -103.95 -28.9 -161.5 -28.9 M-50.35 -28.9 L-50.25 -34.85 -50.4 -34.85 -50.15 -35.2 -49.5 -35.1 -48.5 -35.35 -33.5 -35.0 -33.5 -35.45 -2.95 -34.85 -2.95 -33.35 16.9 -32.5 17.3 -28.9 11.3 -28.9 11.25 -28.9 -50.05 -28.9 -50.2 -28.95 -50.2 -28.9 -50.1 -28.9 -50.35 -28.9 M-22.05 -29.15 L-22.05 -29.25 -22.15 -29.25 -22.05 -29.15" fill="#551e11" fill-rule="evenodd" stroke="none"/>
      <path d="M-136.95 -28.9 L-137.15 -28.9 -136.95 -32.05 -136.95 -28.9 M10.95 -28.9 L10.7 -28.9 10.9 -32.75 10.95 -28.9" fill="#38140c" fill-rule="evenodd" stroke="none"/>
      <path d="M-110.95 -37.9 L-77.45 -37.9 -77.45 -31.4 -110.95 -31.4 -110.95 -37.9" fill="#a74014" fill-rule="evenodd" stroke="none"/>
    </g>
    <g id="shape3" transform="matrix(1.0, 0.0, 0.0, 1.0, -490.2, -398.15)">
      <path d="M856.6 491.45 L859.0 492.05 Q858.55 492.45 857.9 492.4 857.3 492.35 856.9 491.9 L856.6 491.45 M744.9 448.8 L744.6 448.75 Q745.45 447.15 745.6 447.35 L745.85 447.95 745.55 448.55 744.9 448.8 M720.85 423.5 Q721.25 423.0 721.85 422.95 722.45 422.9 722.95 423.3 L720.65 423.75 720.85 423.5 M539.5 522.5 L533.3 522.3 533.4 522.15 Q533.65 521.9 534.05 521.9 L539.5 521.65 539.5 522.5" fill="#d41817" fill-rule="evenodd" stroke="none"/>
      <path d="M856.75 401.8 L861.35 420.1 818.15 420.65 816.45 403.9 856.75 401.8 M741.95 439.05 L741.95 438.45 725.9 439.2 724.7 425.45 764.25 426.5 765.85 439.05 741.95 439.05 M706.9 447.0 L715.4 446.9 743.45 450.7 743.05 462.4 693.5 463.7 676.95 464.15 676.95 447.35 679.8 447.3 679.55 447.2 681.1 447.2 706.9 447.0 M755.9 485.0 L755.15 503.9 746.2 504.5 743.85 484.6 743.85 484.5 755.9 485.0 M746.6 479.25 L749.75 455.35 788.65 459.7 797.5 481.0 746.6 479.25 M670.95 458.95 L650.15 460.75 648.95 460.7 648.95 460.85 633.9 462.15 629.15 462.55 630.45 444.85 670.95 444.85 670.95 458.95 M697.7 495.65 L696.1 521.75 679.15 515.85 677.0 508.5 678.85 495.4 697.7 495.65 M608.0 425.2 L611.15 425.2 606.55 444.55 574.45 443.05 576.3 427.0 576.35 427.0 576.4 426.55 608.0 425.2 M558.1 416.45 L557.8 427.0 557.6 427.0 557.55 429.0 532.65 429.8 532.3 427.0 531.5 427.0 530.75 421.1 558.1 416.45 M529.15 433.6 L530.85 434.2 530.05 451.7 511.0 450.8 503.1 445.85 503.15 435.7 518.1 434.2 518.85 433.95 526.9 434.05 Q527.45 434.05 527.9 433.7 L528.05 433.55 529.15 433.6 M578.1 477.2 L616.6 479.1 609.0 501.1 574.85 500.2 578.1 477.2 M501.65 506.8 L502.1 492.45 501.8 491.5 501.5 491.2 511.8 489.05 512.45 489.2 526.95 489.1 526.2 503.2 501.65 506.8" fill="#fc8046" fill-rule="evenodd" stroke="none"/>
      <path d="M874.2 471.1 L874.85 471.05 874.85 471.15 874.2 471.1 M796.5 440.45 L796.5 440.25 797.2 440.45 796.5 440.45 M516.9 457.95 L516.9 458.0 516.9 457.95" fill="#551e11" fill-rule="evenodd" stroke="none"/>
      <path d="M856.75 401.8 L867.15 401.25 870.1 418.5 Q870.15 419.05 870.6 419.4 871.0 419.75 871.55 419.75 L871.7 419.75 873.05 423.05 851.35 424.5 851.4 424.55 852.0 424.8 874.0 424.8 874.25 424.95 Q874.8 425.2 875.4 424.95 L876.25 424.15 Q876.5 423.6 876.25 423.0 L875.0 419.85 892.55 420.15 892.55 472.2 892.0 472.05 879.2 472.05 879.15 471.95 878.2 471.45 877.9 471.4 876.25 455.15 880.5 453.9 880.5 453.8 880.5 453.5 874.8 452.1 874.4 452.1 857.75 451.5 857.6 450.15 857.55 450.15 856.2 439.65 872.05 438.8 Q872.4 438.75 872.65 438.5 L872.9 437.85 872.85 437.75 866.45 437.35 864.1 428.55 864.7 437.45 853.95 438.05 853.6 438.15 819.75 437.75 818.9 425.85 818.6 425.25 818.15 425.05 818.2 424.95 818.35 424.8 825.0 424.8 825.65 424.55 825.9 423.9 818.35 423.05 818.2 422.85 Q817.95 422.6 817.6 422.5 L814.4 419.9 814.55 419.15 813.3 404.1 816.45 403.9 818.15 420.65 861.35 420.1 856.75 401.8 M741.95 439.05 Q741.6 439.0 741.35 439.3 741.05 439.55 741.1 439.9 L741.1 440.3 726.05 440.65 726.4 446.3 729.1 446.55 729.1 446.7 Q729.05 447.05 729.3 447.35 729.5 447.6 729.9 447.65 L743.1 448.65 742.85 446.9 742.85 440.8 770.0 440.8 770.65 440.55 770.9 439.9 770.7 439.4 770.9 438.8 769.6 426.6 769.6 426.55 769.6 426.45 769.25 423.25 811.0 420.9 811.4 421.35 816.1 425.1 Q816.5 425.4 817.0 425.4 L817.15 425.4 817.3 425.4 817.15 425.95 818.0 437.75 797.3 437.45 Q796.65 437.45 796.2 437.9 L796.05 438.1 Q795.6 437.65 795.0 437.65 794.4 437.65 793.95 438.1 L793.75 438.35 783.95 439.05 783.55 439.15 793.5 440.15 793.45 443.75 Q793.15 443.75 792.9 444.0 792.65 444.2 792.65 444.6 L792.45 455.3 791.1 454.8 Q790.75 454.65 790.4 454.8 L789.95 455.3 Q789.8 455.6 789.95 455.95 L790.45 456.45 793.0 457.4 793.1 457.4 802.55 460.95 802.6 460.95 803.95 461.45 804.65 461.4 805.1 460.9 805.05 460.25 Q804.9 459.9 804.55 459.8 L803.75 459.5 804.55 440.55 817.8 440.75 817.95 440.95 Q818.4 441.4 819.0 441.4 L820.05 440.95 820.25 440.8 853.35 441.15 854.85 453.15 Q854.95 453.7 855.35 454.05 855.75 454.45 856.3 454.45 L857.1 461.2 855.85 461.35 855.95 462.15 807.9 461.7 810.35 462.45 818.35 462.7 817.0 484.55 740.35 483.6 739.85 492.9 739.75 492.9 739.35 493.2 731.95 493.4 699.75 494.05 701.2 465.8 699.45 465.7 698.0 494.05 681.25 494.05 676.05 493.95 674.15 507.1 631.75 508.75 620.45 508.15 620.7 504.35 620.45 504.3 621.9 489.1 622.05 489.1 622.15 488.05 678.15 488.05 681.65 487.8 650.65 486.3 650.6 461.95 673.2 461.8 673.6 464.0 676.6 463.85 675.95 459.9 675.55 459.1 674.9 442.9 674.6 442.3 Q674.35 442.05 674.0 442.05 L661.05 442.8 661.35 442.4 Q661.35 436.4 659.65 435.5 L656.4 432.55 654.8 431.25 655.15 425.2 668.8 423.85 685.3 424.7 685.9 446.15 681.9 446.45 Q681.55 446.45 681.3 446.75 L681.1 447.2 679.55 447.2 679.8 447.3 676.95 447.35 676.95 464.15 693.5 463.7 711.05 464.1 745.3 465.35 Q745.85 465.35 746.3 464.95 746.7 464.55 746.75 464.0 L747.7 454.3 782.75 454.45 746.5 451.15 Q745.85 451.1 745.4 451.5 L745.2 451.7 744.85 452.5 743.9 462.4 743.05 462.4 743.45 450.7 715.4 446.9 706.9 447.0 714.0 446.8 714.6 446.5 714.7 446.4 693.7 445.65 692.85 433.95 693.1 433.9 693.2 434.25 693.55 434.6 694.0 434.7 695.8 434.65 696.15 434.55 696.5 434.65 721.75 433.85 722.0 434.15 723.1 434.45 Q723.7 434.4 724.15 433.9 724.5 433.4 724.45 432.8 L723.6 425.15 741.15 422.65 741.1 423.05 Q741.0 423.5 741.2 423.95 L741.8 424.6 742.65 424.8 767.5 423.35 767.85 426.65 767.85 426.75 769.15 438.95 769.15 439.05 765.85 439.05 764.25 426.5 724.7 425.45 725.9 439.2 741.95 438.45 741.95 439.05 M755.9 485.0 L792.15 486.5 792.15 506.9 785.2 507.45 785.15 507.75 Q785.1 508.1 785.4 508.4 L786.0 508.65 798.0 508.65 798.6 508.45 793.9 506.9 793.9 486.55 836.35 488.35 Q836.1 488.55 836.15 488.9 L835.15 507.65 807.3 508.4 807.4 508.5 807.45 508.55 808.0 508.8 808.6 508.8 807.2 530.05 765.85 534.65 768.9 508.75 772.05 508.65 Q772.4 508.6 772.65 508.35 L772.9 507.85 745.9 508.75 748.85 507.6 746.2 504.5 755.15 503.9 755.9 485.0 M818.75 484.6 L821.65 463.25 856.2 463.9 857.4 471.4 857.3 471.85 856.75 486.15 818.75 484.6 M837.9 488.9 L837.7 488.4 856.6 489.15 856.6 489.2 856.5 490.8 856.5 491.05 879.15 492.7 879.15 492.85 879.9 505.8 880.9 493.0 880.9 492.8 880.95 492.8 881.6 492.55 881.9 491.95 881.65 491.3 881.05 491.05 859.55 490.1 859.6 489.4 859.6 489.3 859.6 488.9 860.25 473.5 876.35 474.4 876.5 474.4 878.0 474.4 Q878.6 474.4 879.05 474.0 L879.25 473.8 892.55 472.3 892.55 529.7 857.5 531.05 857.25 531.15 857.0 518.2 856.05 534.45 856.0 534.55 810.5 534.0 809.0 532.0 809.75 508.85 852.0 509.8 852.6 509.55 852.9 508.95 852.85 508.75 837.9 507.7 837.9 488.9 M856.6 491.45 L856.9 491.9 Q857.3 492.35 857.9 492.4 858.55 492.45 859.0 492.05 L856.6 491.45 M874.2 471.1 L874.0 471.1 873.9 471.1 863.7 470.65 863.7 454.7 873.2 455.05 874.85 471.0 874.85 471.05 874.2 471.1 M742.85 412.35 L741.45 420.8 720.55 424.0 Q720.45 424.3 720.5 424.6 L721.35 432.15 696.5 432.9 696.15 432.95 695.7 432.9 694.85 432.9 694.85 423.9 694.6 423.3 Q694.3 423.0 693.95 423.05 693.6 423.0 693.35 423.3 L693.25 423.4 691.9 423.4 693.3 414.85 742.85 412.35 M744.9 448.8 L745.55 448.55 745.85 447.95 745.6 447.35 Q745.45 447.15 744.6 448.75 L744.9 448.8 M746.6 479.25 L797.5 481.0 788.65 459.7 749.75 455.35 746.6 479.25 M720.85 423.5 L720.65 423.75 722.95 423.3 Q722.45 422.9 721.85 422.95 721.25 423.0 720.85 423.5 M633.9 462.15 L648.85 461.95 647.4 486.3 622.3 486.3 623.1 474.5 623.75 474.5 624.4 474.25 624.65 473.6 624.4 473.0 Q624.1 472.7 623.75 472.75 L569.35 473.75 569.2 473.1 569.2 473.05 570.4 456.2 570.75 456.0 571.05 455.45 570.85 454.85 570.35 454.1 570.2 453.95 571.15 449.8 625.05 449.45 624.3 462.35 627.35 462.25 627.9 456.1 628.45 455.05 629.45 445.5 629.35 444.8 642.45 444.8 643.1 444.55 643.3 444.15 628.95 443.05 Q628.6 443.0 628.35 443.3 628.1 443.5 628.1 443.85 L618.4 441.0 618.15 440.95 617.95 435.7 Q618.85 435.5 619.55 434.95 L653.25 433.55 654.0 433.4 655.85 434.25 Q658.65 435.65 659.55 438.15 L658.85 441.25 659.05 442.9 653.15 443.25 653.35 443.55 Q653.6 443.8 653.95 443.8 L673.15 443.8 673.75 458.7 670.95 458.95 670.95 444.85 630.45 444.85 629.15 462.55 633.9 462.15 M697.7 495.65 L739.9 496.25 743.35 506.55 744.35 511.6 753.55 512.45 752.6 521.95 696.0 523.9 695.9 523.9 695.0 523.9 Q694.65 523.85 694.4 524.15 694.15 524.35 694.15 524.75 L680.1 524.15 680.05 524.15 679.95 524.15 676.75 524.0 676.0 510.0 676.45 509.75 676.95 508.8 677.0 508.5 679.15 515.85 696.1 521.75 697.7 495.65 M694.85 526.5 L694.55 529.65 681.4 529.65 681.35 529.65 681.0 525.95 694.85 526.5 M700.9 533.65 L700.9 525.5 745.85 524.7 746.55 531.65 700.9 533.65 M671.65 531.65 L632.3 533.35 631.85 533.05 632.15 525.0 Q632.7 525.0 633.15 524.65 633.6 524.2 633.65 523.6 L633.65 523.25 633.7 522.8 634.15 510.65 634.35 510.15 634.2 510.05 634.2 509.6 670.25 510.05 671.65 531.65 M611.15 425.2 L615.5 425.25 615.5 433.5 615.5 433.7 Q615.55 434.3 616.0 434.65 L616.2 435.4 616.6 446.05 616.85 446.65 617.2 446.85 617.2 446.95 616.95 446.9 Q616.35 446.9 615.9 447.35 L615.85 447.4 572.6 444.2 572.45 445.1 572.25 444.5 571.7 444.15 573.05 435.7 573.3 435.7 573.75 435.45 574.05 435.0 574.05 434.95 575.3 427.0 576.3 427.0 574.45 443.05 606.55 444.55 611.15 425.2 M576.4 426.55 L576.4 426.15 598.1 425.1 608.0 425.2 576.4 426.55 M558.1 416.45 L558.15 416.45 574.15 418.1 573.3 427.0 573.5 427.0 572.4 433.9 528.5 431.8 529.05 427.0 529.75 427.0 530.4 421.15 530.6 421.1 530.75 421.1 531.5 427.0 532.3 427.0 532.65 429.8 557.55 429.0 557.6 427.0 557.8 427.0 558.1 416.45 M516.9 457.95 L517.0 457.05 517.35 456.9 518.1 457.1 568.7 455.4 567.45 473.05 567.45 473.1 567.35 474.55 567.45 475.0 567.75 475.35 567.35 485.8 567.3 485.8 Q566.9 485.75 566.65 486.0 566.35 486.2 566.35 486.6 566.3 486.95 566.55 487.25 566.75 487.5 567.15 487.55 L573.65 488.05 574.1 487.95 574.45 487.65 574.6 487.2 575.2 475.45 621.35 474.55 620.6 485.3 616.75 485.35 610.45 503.5 581.05 504.1 580.7 504.15 580.65 504.15 Q580.4 503.85 580.05 503.9 L572.3 504.05 572.65 495.0 572.6 495.05 Q572.25 495.2 572.2 495.6 L570.5 504.1 537.0 504.9 Q536.75 504.9 536.55 505.05 L536.0 504.9 532.7 505.3 532.75 489.05 565.6 486.5 532.6 486.05 532.05 485.9 531.5 486.05 514.15 486.2 516.9 457.95 M578.1 477.2 L574.85 500.2 609.0 501.1 616.6 479.1 578.1 477.2 M503.1 445.85 L511.0 450.8 530.05 451.7 530.85 434.2 529.15 433.6 566.0 435.35 566.0 452.9 534.75 453.7 533.95 437.7 533.65 437.1 533.6 437.05 533.0 453.75 518.0 454.1 517.3 454.3 516.4 454.1 515.5 454.15 Q515.0 454.2 514.65 454.55 L509.3 454.0 503.1 448.45 503.1 445.85 M500.4 463.1 L500.9 463.1 501.75 463.05 502.7 462.55 503.05 461.9 513.75 459.15 511.3 483.95 493.8 485.6 494.45 463.3 500.15 463.1 500.4 463.1 M526.95 489.1 L530.95 489.05 529.4 505.45 501.65 507.75 501.65 506.8 526.2 503.2 526.95 489.1 M537.1 506.65 L538.2 506.6 538.2 519.75 Q538.15 520.1 538.45 520.4 L539.05 520.65 539.55 520.5 539.95 506.55 579.55 505.65 579.55 519.8 554.1 521.15 553.95 521.15 539.7 521.65 539.65 522.15 539.65 522.5 553.3 522.9 555.35 529.6 555.75 529.3 555.95 528.65 555.1 522.85 580.45 521.5 580.95 521.6 590.2 522.2 590.85 531.65 559.0 532.35 558.8 532.4 556.15 533.65 501.0 529.65 501.6 509.5 530.15 507.15 530.2 507.15 530.3 507.15 536.15 506.65 536.6 506.5 537.1 506.65 M539.5 522.5 L539.5 521.65 534.05 521.9 Q533.65 521.9 533.4 522.15 L533.3 522.3 539.5 522.5 M631.6 510.85 L633.1 511.5 632.25 523.4 632.2 523.4 581.55 519.7 582.55 507.1 618.8 506.35 618.65 508.9 618.65 508.95 618.6 509.45 618.6 510.35 620.35 510.35 620.35 509.9 631.7 510.5 631.6 510.85 M629.45 531.95 L592.6 535.65 592.0 522.35 630.4 524.9 629.45 531.95" fill="#e45c23" fill-rule="evenodd" stroke="none"/>
      <path d="M893.55 420.15 L893.55 530.15 893.4 530.5 893.1 530.65 857.9 532.05 856.85 535.2 856.65 535.45 856.35 535.55 810.25 535.0 810.05 534.95 809.85 534.8 807.1 531.1 765.85 535.65 765.5 535.55 765.3 535.2 765.3 535.1 747.1 532.25 747.0 532.5 746.65 532.65 700.95 534.65 700.6 534.55 700.4 534.2 700.5 533.9 694.95 530.45 694.85 530.5 694.5 530.65 681.4 530.65 681.05 530.5 680.9 530.25 672.15 532.05 672.15 532.15 672.05 532.5 671.7 532.65 632.2 534.35 631.85 534.25 631.8 534.25 629.95 532.95 592.7 536.65 592.35 536.55 592.15 536.2 Q592.15 536.0 592.3 535.85 L592.45 535.7 591.1 532.65 590.9 532.65 559.1 533.35 556.4 534.6 556.2 534.65 500.95 530.65 500.6 530.5 500.45 530.15 497.95 530.15 498.95 497.65 Q498.55 497.55 498.35 497.3 L498.2 496.65 498.6 493.5 491.85 492.05 Q491.3 491.9 491.0 491.5 490.65 491.05 490.65 490.5 L490.75 487.6 490.5 487.45 Q490.2 487.2 490.2 486.85 490.15 486.45 490.4 486.2 490.55 486.0 490.8 485.9 L491.5 461.8 Q491.5 461.2 491.95 460.8 492.35 460.4 492.95 460.35 L500.0 460.1 500.05 460.1 500.15 434.3 Q500.15 433.75 500.55 433.3 500.95 432.85 501.5 432.8 L510.85 431.9 Q511.2 431.5 511.75 431.45 L517.8 430.9 518.0 430.9 525.55 431.05 526.7 421.0 527.4 421.0 527.55 419.55 Q527.6 419.0 528.05 418.65 528.4 418.25 528.95 418.2 L530.4 418.1 557.9 413.45 558.3 413.4 575.9 415.25 Q576.5 415.3 576.9 415.8 577.3 416.25 577.25 416.9 L576.7 423.1 597.95 422.1 598.0 422.1 617.0 422.25 Q617.6 422.25 618.05 422.7 618.5 423.15 618.5 423.75 L618.5 431.5 618.55 431.55 620.3 431.9 651.85 430.6 652.2 423.75 Q652.25 423.15 652.65 422.75 653.0 422.35 653.55 422.3 L668.55 420.85 668.8 420.85 689.15 421.85 690.55 413.2 Q690.6 412.65 691.0 412.3 691.4 411.9 691.95 411.9 L727.0 410.15 727.0 410.1 749.35 410.1 750.2 420.05 792.65 418.9 792.65 418.95 811.45 417.85 810.15 402.8 Q810.1 402.35 810.3 402.0 L810.85 401.4 Q811.15 401.15 811.6 401.15 L868.35 398.15 Q868.9 398.1 869.35 398.5 L869.9 399.4 872.85 416.8 893.05 417.15 893.05 419.65 893.4 419.8 893.55 420.15 M816.45 403.9 L813.3 404.1 814.55 419.15 814.4 419.9 817.6 422.5 Q817.95 422.6 818.2 422.85 L818.35 423.05 825.9 423.9 825.65 424.55 825.0 424.8 818.35 424.8 818.2 424.95 818.15 425.05 818.6 425.25 818.9 425.85 819.75 437.75 853.6 438.15 853.95 438.05 864.7 437.45 864.1 428.55 866.45 437.35 872.85 437.75 872.9 437.85 872.65 438.5 Q872.4 438.75 872.05 438.8 L856.2 439.65 857.55 450.15 857.6 450.15 857.75 451.5 874.4 452.1 874.8 452.1 880.5 453.5 880.5 453.8 880.5 453.9 876.25 455.15 877.9 471.4 878.2 471.45 879.15 471.95 879.2 472.05 892.0 472.05 892.55 472.2 892.55 420.15 875.0 419.85 876.25 423.0 Q876.5 423.6 876.25 424.15 L875.4 424.95 Q874.8 425.2 874.25 424.95 L874.0 424.8 852.0 424.8 851.4 424.55 851.35 424.5 873.05 423.05 871.7 419.75 871.55 419.75 Q871.0 419.75 870.6 419.4 870.15 419.05 870.1 418.5 L867.15 401.25 856.75 401.8 816.45 403.9 M681.1 447.2 L681.3 446.75 Q681.55 446.45 681.9 446.45 L685.9 446.15 685.3 424.7 668.8 423.85 655.15 425.2 654.8 431.25 656.4 432.55 659.65 435.5 Q661.35 436.4 661.35 442.4 L661.05 442.8 674.0 442.05 Q674.35 442.05 674.6 442.3 L674.9 442.9 675.55 459.1 675.95 459.9 676.6 463.85 673.6 464.0 673.2 461.8 650.6 461.95 650.65 486.3 681.65 487.8 678.15 488.05 622.15 488.05 622.05 489.1 621.9 489.1 620.45 504.3 620.7 504.35 620.45 508.15 631.75 508.75 674.15 507.1 676.05 493.95 681.25 494.05 698.0 494.05 699.45 465.7 701.2 465.8 699.75 494.05 731.95 493.4 739.35 493.2 739.75 492.9 739.85 492.9 740.35 483.6 817.0 484.55 818.35 462.7 810.35 462.45 807.9 461.7 855.95 462.15 855.85 461.35 857.1 461.2 856.3 454.45 Q855.75 454.45 855.35 454.05 854.95 453.7 854.85 453.15 L853.35 441.15 820.25 440.8 820.05 440.95 819.0 441.4 Q818.4 441.4 817.95 440.95 L817.8 440.75 804.55 440.55 803.75 459.5 804.55 459.8 Q804.9 459.9 805.05 460.25 L805.1 460.9 804.65 461.4 803.95 461.45 802.6 460.95 802.55 460.95 793.1 457.4 793.0 457.4 790.45 456.45 789.95 455.95 Q789.8 455.6 789.95 455.3 L790.4 454.8 Q790.75 454.65 791.1 454.8 L792.45 455.3 792.65 444.6 Q792.65 444.2 792.9 444.0 793.15 443.75 793.45 443.75 L793.5 440.15 783.55 439.15 783.95 439.05 793.75 438.35 793.95 438.1 Q794.4 437.65 795.0 437.65 795.6 437.65 796.05 438.1 L796.2 437.9 Q796.65 437.45 797.3 437.45 L818.0 437.75 817.15 425.95 817.3 425.4 817.15 425.4 817.0 425.4 Q816.5 425.4 816.1 425.1 L811.4 421.35 811.0 420.9 769.25 423.25 769.6 426.45 769.6 426.55 769.6 426.6 770.9 438.8 770.7 439.4 770.9 439.9 770.65 440.55 770.0 440.8 742.85 440.8 742.85 446.9 743.1 448.65 729.9 447.65 Q729.5 447.6 729.3 447.35 729.05 447.05 729.1 446.7 L729.1 446.55 726.4 446.3 726.05 440.65 741.1 440.3 741.1 439.9 Q741.05 439.55 741.35 439.3 741.6 439.0 741.95 439.05 L765.85 439.05 769.15 439.05 769.15 438.95 767.85 426.75 767.85 426.65 767.5 423.35 742.65 424.8 741.8 424.6 741.2 423.95 Q741.0 423.5 741.1 423.05 L741.15 422.65 723.6 425.15 724.45 432.8 Q724.5 433.4 724.15 433.9 723.7 434.4 723.1 434.45 L722.0 434.15 721.75 433.85 696.5 434.65 696.15 434.55 695.8 434.65 694.0 434.7 693.55 434.6 693.2 434.25 693.1 433.9 692.85 433.95 693.7 445.65 714.7 446.4 714.6 446.5 714.0 446.8 706.9 447.0 681.1 447.2 M743.05 462.4 L743.9 462.4 744.85 452.5 745.2 451.7 745.4 451.5 Q745.85 451.1 746.5 451.15 L782.75 454.45 747.7 454.3 746.75 464.0 Q746.7 464.55 746.3 464.95 745.85 465.35 745.3 465.35 L711.05 464.1 693.5 463.7 743.05 462.4 M818.75 484.6 L856.75 486.15 857.3 471.85 857.4 471.4 856.2 463.9 821.65 463.25 818.75 484.6 M746.2 504.5 L748.85 507.6 745.9 508.75 772.9 507.85 772.65 508.35 Q772.4 508.6 772.05 508.65 L768.9 508.75 765.85 534.65 807.2 530.05 808.6 508.8 808.0 508.8 807.45 508.55 807.4 508.5 807.3 508.4 835.15 507.65 836.15 488.9 Q836.1 488.55 836.35 488.35 L793.9 486.55 793.9 506.9 798.6 508.45 798.0 508.65 786.0 508.65 785.4 508.4 Q785.1 508.1 785.15 507.75 L785.2 507.45 792.15 506.9 792.15 486.5 755.9 485.0 743.85 484.5 743.85 484.6 746.2 504.5 M837.9 488.9 L837.9 507.7 852.85 508.75 852.9 508.95 852.6 509.55 852.0 509.8 809.75 508.85 809.0 532.0 810.5 534.0 856.0 534.55 856.05 534.45 857.0 518.2 857.25 531.15 857.5 531.05 892.55 529.7 892.55 472.3 879.25 473.8 879.05 474.0 Q878.6 474.4 878.0 474.4 L876.5 474.4 876.35 474.4 860.25 473.5 859.6 488.9 859.6 489.3 859.6 489.4 859.55 490.1 881.05 491.05 881.65 491.3 881.9 491.95 881.6 492.55 880.95 492.8 880.9 492.8 880.9 493.0 879.9 505.8 879.15 492.85 879.15 492.7 856.5 491.05 856.5 490.8 856.6 489.2 856.6 489.15 837.7 488.4 837.9 488.9 M874.85 471.05 L874.85 471.0 873.2 455.05 863.7 454.7 863.7 470.65 873.9 471.1 874.0 471.1 874.2 471.1 874.85 471.15 874.85 471.05 M796.5 440.45 L797.2 440.45 796.5 440.25 796.5 440.45 M742.85 412.35 L693.3 414.85 691.9 423.4 693.25 423.4 693.35 423.3 Q693.6 423.0 693.95 423.05 694.3 423.0 694.6 423.3 L694.85 423.9 694.85 432.9 695.7 432.9 696.15 432.95 696.5 432.9 721.35 432.15 720.5 424.6 Q720.45 424.3 720.55 424.0 L741.45 420.8 742.85 412.35 M670.95 458.95 L673.75 458.7 673.15 443.8 653.95 443.8 Q653.6 443.8 653.35 443.55 L653.15 443.25 659.05 442.9 658.85 441.25 659.55 438.15 Q658.65 435.65 655.85 434.25 L654.0 433.4 653.25 433.55 619.55 434.95 Q618.85 435.5 617.95 435.7 L618.15 440.95 618.4 441.0 628.1 443.85 Q628.1 443.5 628.35 443.3 628.6 443.0 628.95 443.05 L643.3 444.15 643.1 444.55 642.45 444.8 629.35 444.8 629.45 445.5 628.45 455.05 627.9 456.1 627.35 462.25 624.3 462.35 625.05 449.45 571.15 449.8 570.2 453.95 570.35 454.1 570.85 454.85 571.05 455.45 570.75 456.0 570.4 456.2 569.2 473.05 569.2 473.1 569.35 473.75 623.75 472.75 Q624.1 472.7 624.4 473.0 L624.65 473.6 624.4 474.25 623.75 474.5 623.1 474.5 622.3 486.3 647.4 486.3 648.85 461.95 633.9 462.15 648.95 460.85 648.95 460.7 650.15 460.75 670.95 458.95 M694.85 526.5 L681.0 525.95 681.35 529.65 681.4 529.65 694.55 529.65 694.85 526.5 M677.0 508.5 L676.95 508.8 676.45 509.75 676.0 510.0 676.75 524.0 679.95 524.15 680.05 524.15 680.1 524.15 694.15 524.75 Q694.15 524.35 694.4 524.15 694.65 523.85 695.0 523.9 L695.9 523.9 696.0 523.9 752.6 521.95 753.55 512.45 744.35 511.6 743.35 506.55 739.9 496.25 697.7 495.65 678.85 495.4 677.0 508.5 M700.9 533.65 L746.55 531.65 745.85 524.7 700.9 525.5 700.9 533.65 M671.65 531.65 L670.25 510.05 634.2 509.6 634.2 510.05 634.35 510.15 634.15 510.65 633.7 522.8 633.65 523.25 633.65 523.6 Q633.6 524.2 633.15 524.65 632.7 525.0 632.15 525.0 L631.85 533.05 632.3 533.35 671.65 531.65 M611.15 425.2 L608.0 425.2 598.1 425.1 576.4 426.15 576.4 426.55 576.35 427.0 576.3 427.0 575.3 427.0 574.05 434.95 574.05 435.0 573.75 435.45 573.3 435.7 573.05 435.7 571.7 444.15 572.25 444.5 572.45 445.1 572.6 444.2 615.85 447.4 615.9 447.35 Q616.35 446.9 616.95 446.9 L617.2 446.95 617.2 446.85 616.85 446.65 616.6 446.05 616.2 435.4 616.0 434.65 Q615.55 434.3 615.5 433.7 L615.5 433.5 615.5 425.25 611.15 425.2 M530.75 421.1 L530.6 421.1 530.4 421.15 529.75 427.0 529.05 427.0 528.5 431.8 572.4 433.9 573.5 427.0 573.3 427.0 574.15 418.1 558.15 416.45 558.1 416.45 530.75 421.1 M516.9 457.95 L514.15 486.2 531.5 486.05 532.05 485.9 532.6 486.05 565.6 486.5 532.75 489.05 532.7 505.3 536.0 504.9 536.55 505.05 Q536.75 504.9 537.0 504.9 L570.5 504.1 572.2 495.6 Q572.25 495.2 572.6 495.05 L572.65 495.0 572.3 504.05 580.05 503.9 Q580.4 503.85 580.65 504.15 L580.7 504.15 581.05 504.1 610.45 503.5 616.75 485.35 620.6 485.3 621.35 474.55 575.2 475.45 574.6 487.2 574.45 487.65 574.1 487.95 573.65 488.05 567.15 487.55 Q566.75 487.5 566.55 487.25 566.3 486.95 566.35 486.6 566.35 486.2 566.65 486.0 566.9 485.75 567.3 485.8 L567.35 485.8 567.75 475.35 567.45 475.0 567.35 474.55 567.45 473.1 567.45 473.05 568.7 455.4 518.1 457.1 517.35 456.9 517.0 457.05 516.9 457.95 516.9 458.0 516.9 457.95 M529.15 433.6 L528.05 433.55 527.9 433.7 Q527.45 434.05 526.9 434.05 L518.85 433.95 518.1 434.2 503.15 435.7 503.1 445.85 503.1 448.45 509.3 454.0 514.65 454.55 Q515.0 454.2 515.5 454.15 L516.4 454.1 517.3 454.3 518.0 454.1 533.0 453.75 533.6 437.05 533.65 437.1 533.95 437.7 534.75 453.7 566.0 452.9 566.0 435.35 529.15 433.6 M500.4 463.1 L500.15 463.1 494.45 463.3 493.8 485.6 511.3 483.95 513.75 459.15 503.05 461.9 502.7 462.55 501.75 463.05 500.9 463.1 500.4 463.1 M526.95 489.1 L512.45 489.2 511.8 489.05 501.5 491.2 501.8 491.5 502.1 492.45 501.65 506.8 501.65 507.75 529.4 505.45 530.95 489.05 526.95 489.1 M537.1 506.65 L536.6 506.5 536.15 506.65 530.3 507.15 530.2 507.15 530.15 507.15 501.6 509.5 501.0 529.65 556.15 533.65 558.8 532.4 559.0 532.35 590.85 531.65 590.2 522.2 580.95 521.6 580.45 521.5 555.1 522.85 555.95 528.65 555.75 529.3 555.35 529.6 553.3 522.9 539.65 522.5 539.65 522.15 539.7 521.65 553.95 521.15 554.1 521.15 579.55 519.8 579.55 505.65 539.95 506.55 539.55 520.5 539.05 520.65 538.45 520.4 Q538.15 520.1 538.2 519.75 L538.2 506.6 537.1 506.65 M631.6 510.85 L631.7 510.5 620.35 509.9 620.35 510.35 618.6 510.35 618.6 509.45 618.65 508.95 618.65 508.9 618.8 506.35 582.55 507.1 581.55 519.7 632.2 523.4 632.25 523.4 633.1 511.5 631.6 510.85 M629.45 531.95 L630.4 524.9 592.0 522.35 592.6 535.65 629.45 531.95" fill="#a74014" fill-rule="evenodd" stroke="none"/>
    </g>
    <g id="shape4" transform="matrix(1.0, 0.0, 0.0, 1.0, 101.4, 57.95)">
      <path d="M84.45 -49.65 L86.85 -49.65 88.45 61.25 -93.6 59.85 -93.5 56.9 -95.9 56.8 -91.9 -52.45 84.4 -52.45 84.45 -49.65 -89.7 -49.7 -93.5 56.9 85.9 58.2 84.45 -49.65 Z" fill="none" stroke="#7e2601" stroke-linecap="round" stroke-linejoin="round" stroke-width="11.0"/>
      <path d="M85.9 58.2 L-95.9 56.8 -91.9 -52.45 84.4 -52.45 85.9 58.2" fill="#336633" fill-rule="evenodd" stroke="none"/>
      <path d="M88.45 61.25 L-93.6 59.85 -89.7 -49.7 86.85 -49.65 88.45 61.25 Z" fill="none" stroke="#953e04" stroke-linecap="round" stroke-linejoin="round" stroke-width="8.0"/>
      <path d="M-74.1 -42.15 L74.7 -40.15 76.05 49.45 70.75 50.05 65.65 49.25 Q55.05 47.45 44.45 47.95 26.35 48.8 8.3 48.5 L-23.65 47.65 Q-30.85 47.4 -37.95 47.6 L-53.45 48.55 Q-69.35 49.4 -84.9 46.9 L-84.85 45.2 -84.1 34.0 Q-83.45 23.7 -83.0 2.75 -82.65 -18.15 -81.3 -41.45 L-74.1 -42.15" fill="#fffecb" fill-rule="evenodd" stroke="none"/>
      <path d="M-74.1 -42.15 L74.7 -40.15 76.05 49.45 70.75 50.05 65.65 49.25 Q55.05 47.45 44.45 47.95 26.35 48.8 8.3 48.5 L-23.65 47.65 Q-30.85 47.4 -37.95 47.6 L-53.45 48.55 Q-69.35 49.4 -84.9 46.9 L-84.85 45.2 -84.1 34.0 Q-83.45 23.7 -83.0 2.75 -82.65 -18.15 -81.3 -41.45 L-74.1 -42.15 Z" fill="none" stroke="#fcd57a" stroke-linecap="round" stroke-linejoin="round" stroke-width="2.0"/>
      <path d="M-92.3 52.85 L82.45 54.2 81.05 -48.45 -88.6 -48.45 -92.3 52.85 M84.4 -56.45 Q85.8 -56.45 86.8 -55.3 87.8 -54.15 87.85 -52.5 L89.35 58.15 88.9 60.2 Q88.45 61.1 87.65 61.65 86.8 62.2 85.9 62.2 L-95.95 60.8 Q-96.85 60.8 -97.65 60.25 -98.5 59.65 -98.95 58.7 -99.4 57.7 -99.35 56.65 L-95.35 -52.6 Q-95.3 -54.2 -94.3 -55.3 -93.3 -56.45 -91.9 -56.45 L84.4 -56.45" fill="#ea6004" fill-rule="evenodd" stroke="none"/>
    </g>
    <g id="shape5" transform="matrix(1.0, 0.0, 0.0, 1.0, -697.75, -424.65)">
      <path d="M704.3 522.7 L704.3 525.2 848.8 525.0 847.3 431.5 845.3 431.5" fill="none" stroke="#7e2601" stroke-linecap="round" stroke-linejoin="round" stroke-width="9.15"/>
      <path d="M704.3 522.7 L846.75 522.5 845.3 431.5" fill="none" stroke="#7e2601" stroke-linecap="round" stroke-linejoin="round" stroke-width="9.15"/>
      <path d="M845.3 431.5 L704.3 432.8 704.3 522.7" fill="none" stroke="#7e2601" stroke-linecap="round" stroke-linejoin="round" stroke-width="9.15"/>
      <path d="M845.3 431.5 L845.25 429.2 702.3 430.4 702.3 522.6 704.3 522.7" fill="none" stroke="#7e2601" stroke-linecap="round" stroke-linejoin="round" stroke-width="9.15"/>
      <path d="M845.25 429.2 L846.75 522.5 702.3 522.6 702.3 430.4 845.25 429.2" fill="#336633" fill-rule="evenodd" stroke="none"/>
      <path d="M704.3 432.8 L704.3 525.2 848.8 525.0 847.3 431.5 704.3 432.8 Z" fill="none" stroke="#953e03" stroke-linecap="round" stroke-linejoin="round" stroke-width="6.65"/>
      <path d="M811.75 514.1 Q796.25 514.9 782.55 514.9 773.8 514.6 756.65 514.4 750.8 514.1 745.05 514.4 L736.55 515.3 Q722.9 516.1 711.05 514.1 710.9 513.6 710.9 512.7 L711.3 503.3 711.25 476.9 Q710.95 458.65 711.3 439.7 L717.15 439.0 837.75 439.6 838.4 515.2 834.15 515.7 829.9 515.1 Q821.4 513.6 811.75 514.1" fill="#fffecb" fill-rule="evenodd" stroke="none"/>
      <path d="M811.75 514.1 Q821.4 513.6 829.9 515.1 L834.15 515.7 838.4 515.2 837.75 439.6 717.15 439.0 711.3 439.7 Q710.95 458.65 711.25 476.9 L711.3 503.3 710.9 512.7 Q710.9 513.6 711.05 514.1 722.9 516.1 736.55 515.3 L745.05 514.4 Q750.8 514.1 756.65 514.4 773.8 514.6 782.55 514.9 796.25 514.9 811.75 514.1 Z" fill="none" stroke="#fcd57a" stroke-linecap="round" stroke-linejoin="round" stroke-width="1.6"/>
      <path d="M843.75 519.1 L842.65 432.6 705.25 433.8 705.25 519.2 843.75 519.1 M847.05 426.8 Q847.7 427.45 847.9 429.1 L849.4 522.4 849.15 524.2 848.25 525.4 Q847.6 525.8 846.8 525.8 L702.55 526.0 Q701.9 526.0 701.05 525.5 700.35 525.1 700.05 524.2 699.55 523.35 699.55 522.5 L699.55 430.3 Q699.55 429.05 700.3 428.0 701.0 427.0 702.3 427.0 L845.15 425.8 Q846.35 425.8 847.05 426.8" fill="#eb6004" fill-rule="evenodd" stroke="none"/>
    </g>
    <g id="sprite3" transform="matrix(1.0, 0.0, 0.0, 1.0, 61.85, 75.8)">
      <use data-characterId="17" height="126.7" transform="matrix(1.0, 0.0, 0.0, 1.0, -61.85, -75.8)" width="123.65" xlink:href="#shape6"/>
      <use data-characterId="18" height="61.45" transform="matrix(1.0005, 0.0, 0.0, 1.0005, -36.8697, -30.2662)" width="73.75" xlink:href="#shape7"/>
      <clipPath id="clipPath0" transform="matrix(1.0, 0.0, 0.0, 1.0, 0.0, 0.0)">
        <path d="M7.15 -9.15 Q4.9 -13.5 6.5 -17.9 8.15 -22.4 12.85 -24.25 L22.05 -24.5 22.55 -24.35 Q27.55 -22.5 29.95 -18.0 32.35 -13.55 30.75 -9.05 29.05 -4.55 24.4 -2.65 19.9 -0.9 15.15 -2.45 18.0 1.85 18.05 7.35 18.0 14.7 12.8 19.9 7.6 25.2 0.25 25.2 -7.15 25.2 -12.4 19.9 -17.0 15.3 -17.55 9.05 L-17.6 7.35 Q-17.6 5.2 -17.15 3.25 L-16.9 2.15 Q-16.15 -0.4 -14.6 -2.65 L-15.8 -2.25 Q-20.2 -1.05 -24.4 -2.65 -26.0 -3.35 -27.25 -4.3 -29.65 -6.15 -30.7 -9.05 -32.3 -13.55 -29.95 -18.0 -27.55 -22.5 -22.55 -24.35 -18.55 -25.8 -14.7 -24.85 L-14.65 -24.85 -12.8 -24.25 Q-8.1 -22.4 -6.45 -17.9 -5.05 -13.95 -6.7 -9.95 L-7.2 -8.9 Q-4.55 -10.15 -1.55 -10.4 L0.25 -10.45 1.75 -10.4 Q4.6 -10.2 7.15 -9.15" fill="#000000" fill-rule="evenodd" stroke="none"/>
      </clipPath>
      <g clip-path="url(#clipPath0)">
        <use data-characterId="25" height="95.75" id="m_water" transform="matrix(-0.673, 0.0, 0.0, 0.6736, 32.3239, 23.4804)" width="96.5" xlink:href="#sprite4"/>
      </g>
      <use data-characterId="30" height="47.0" transform="matrix(0.6, 0.0, 0.0, 0.6, -41.4799, -59.3398)" width="137.7" xlink:href="#sprite5"/>
      <use data-characterId="31" height="7.8" transform="matrix(1.0, 0.0, 0.0, 1.0, -4.2, 13.35)" width="8.45" xlink:href="#shape13"/>
      <use data-characterId="33" height="25.0" id="txt_percent" transform="matrix(1.0, 0.0, 0.0, 1.0, -19.5, -6.5)" width="41.0" xlink:href="#text0"/>
    </g>
    <g id="shape6" transform="matrix(1.0, 0.0, 0.0, 1.0, 61.85, 75.8)">
      <path d="M50.95 -74.95 Q60.95 -74.95 60.95 -64.95 L60.95 40.05 Q60.95 50.05 50.95 50.05 L-51.0 50.05 Q-61.0 50.05 -61.0 40.05 L-61.0 -64.95 Q-61.0 -74.95 -51.0 -74.95 L50.95 -74.95" fill="#ffffff" fill-rule="evenodd" stroke="none"/>
      <path d="M50.95 -74.95 L-51.0 -74.95 Q-61.0 -74.95 -61.0 -64.95 L-61.0 40.05 Q-61.0 50.05 -51.0 50.05 L50.95 50.05 Q60.95 50.05 60.95 40.05 L60.95 -64.95 Q60.95 -74.95 50.95 -74.95 Z" fill="none" stroke="#000000" stroke-linecap="round" stroke-linejoin="round" stroke-opacity="0.17254902" stroke-width="1.75"/>
      <path d="M46.45 -67.95 Q53.45 -67.95 53.45 -60.95 L53.45 35.05 Q53.45 42.05 46.45 42.05 L-46.5 42.05 Q-53.5 42.05 -53.5 35.05 L-53.5 -60.95 Q-53.5 -67.95 -46.5 -67.95 L46.45 -67.95" fill="#ffcc00" fill-rule="evenodd" stroke="none"/>
    </g>
    <g id="shape7" transform="matrix(1.0, 0.0, 0.0, 1.0, 36.85, 30.25)">
      <path d="M23.75 -28.15 L24.2 -28.0 24.5 -27.85 Q30.85 -25.45 33.95 -19.55 L33.9 -19.6 Q37.25 -13.45 35.0 -7.2 L34.95 -6.95 Q32.6 -0.65 26.05 2.05 L26.05 2.1 22.05 3.15 Q22.5 5.35 22.55 7.85 L22.55 7.9 Q22.5 17.05 16.05 23.6 L15.7 23.9 Q9.25 30.15 0.3 30.2 L0.25 30.2 Q-9.05 30.15 -15.55 23.65 -21.4 17.8 -22.05 10.0 L-22.05 9.8 -22.1 7.85 Q-22.1 5.4 -21.6 3.15 -23.8 2.9 -25.95 2.1 L-26.1 2.0 -26.15 2.0 -26.2 1.95 Q-28.3 1.0 -29.9 -0.2 -33.25 -2.8 -34.75 -6.7 L-34.9 -7.0 Q-37.25 -13.35 -33.85 -19.6 L-33.85 -19.55 Q-30.8 -25.6 -24.05 -28.0 L-24.1 -28.0 Q-19.0 -29.95 -14.05 -28.85 L-12.4 -28.35 -11.15 -27.95 -10.75 -27.75 Q-4.45 -25.15 -2.2 -18.9 L-2.2 -18.8 -2.15 -18.8 Q-1.45 -16.6 -1.3 -14.4 L0.1 -14.45 0.2 -14.45 0.3 -14.45 1.35 -14.45 Q1.45 -16.7 2.3 -18.95 L2.3 -18.9 Q4.55 -25.3 11.2 -27.85 L11.25 -27.85 Q17.0 -30.2 23.15 -28.3 L23.75 -28.15 M-1.65 -12.4 L-1.8 -14.35 -1.75 -14.35 -1.85 -14.35 -1.8 -12.4 -1.75 -12.4 -1.8 -12.35 -1.65 -12.4" fill="#000000" fill-rule="evenodd" stroke="none"/>
      <path d="M23.75 -28.15 L23.15 -28.3 Q17.0 -30.2 11.25 -27.85 L11.2 -27.85 Q4.55 -25.3 2.3 -18.9 L2.3 -18.95 Q1.45 -16.7 1.35 -14.45 L0.3 -14.45 0.2 -14.45 0.1 -14.45 -1.3 -14.4 Q-1.45 -16.6 -2.15 -18.8 L-2.2 -18.8 -2.2 -18.9 Q-4.45 -25.15 -10.75 -27.75 L-11.15 -27.95 -12.4 -28.35 -14.05 -28.85 Q-19.0 -29.95 -24.1 -28.0 L-24.05 -28.0 Q-30.8 -25.6 -33.85 -19.55 L-33.85 -19.6 Q-37.25 -13.35 -34.9 -7.0 L-34.75 -6.7 Q-33.25 -2.8 -29.9 -0.2 -28.3 1.0 -26.2 1.95 L-26.15 2.0 -26.1 2.0 -25.95 2.1 Q-23.8 2.9 -21.6 3.15 -22.1 5.4 -22.1 7.85 L-22.05 9.8 -22.05 10.0 Q-21.4 17.8 -15.55 23.65 -9.05 30.15 0.25 30.2 L0.3 30.2 Q9.25 30.15 15.7 23.9 L16.05 23.6 Q22.5 17.05 22.55 7.9 L22.55 7.85 Q22.5 5.35 22.05 3.15 L26.05 2.1 26.05 2.05 Q32.6 -0.65 34.95 -6.95 L35.0 -7.2 Q37.25 -13.45 33.9 -19.6 L33.95 -19.55 Q30.85 -25.45 24.5 -27.85 L24.2 -28.0 23.75 -28.15 Z" fill="none" stroke="#000000" stroke-linecap="round" stroke-linejoin="round" stroke-opacity="0.2509804" stroke-width="2.0"/>
      <path d="M-1.8 -14.85 L-1.75 -14.85 -1.85 -14.85 -1.8 -12.9 -1.75 -12.9 -1.8 -12.85 -1.65 -12.9 -1.8 -14.85 M23.75 -28.65 L24.2 -28.5 24.5 -28.35 Q30.85 -25.95 33.95 -20.05 L33.9 -20.1 Q37.25 -13.95 35.0 -7.7 L34.95 -7.45 Q32.6 -1.15 26.05 1.55 L26.05 1.6 22.05 2.65 Q22.5 4.85 22.55 7.35 L22.55 7.4 Q22.5 16.55 16.05 23.1 L15.7 23.4 Q9.25 29.65 0.3 29.7 L0.25 29.7 Q-9.05 29.65 -15.55 23.15 -21.4 17.3 -22.05 9.5 L-22.05 9.3 -22.1 7.35 Q-22.1 4.9 -21.6 2.65 -23.8 2.4 -25.95 1.6 L-26.1 1.5 -26.15 1.5 -26.2 1.45 Q-28.3 0.5 -29.9 -0.7 -33.25 -3.3 -34.75 -7.2 L-34.9 -7.5 Q-37.25 -13.85 -33.85 -20.1 L-33.85 -20.05 Q-30.8 -26.1 -24.05 -28.5 L-24.1 -28.5 Q-19.0 -30.45 -14.05 -29.35 L-12.4 -28.85 -11.15 -28.45 -10.75 -28.25 Q-4.45 -25.65 -2.2 -19.4 L-2.2 -19.3 -2.15 -19.3 Q-1.45 -17.1 -1.3 -14.9 L0.1 -14.95 0.2 -14.95 0.3 -14.95 1.35 -14.95 Q1.45 -17.2 2.3 -19.45 L2.3 -19.4 Q4.55 -25.8 11.2 -28.35 L11.25 -28.35 Q17.0 -30.7 23.15 -28.8 L23.75 -28.65" fill="#ff9900" fill-rule="evenodd" stroke="none"/>
      <path d="M1.75 -10.4 Q4.6 -10.2 7.15 -9.15 4.9 -13.5 6.5 -17.9 8.15 -22.4 12.85 -24.2 17.3 -26.0 22.05 -24.5 L22.55 -24.3 Q27.55 -22.45 29.95 -18.0 32.35 -13.55 30.7 -9.05 29.0 -4.55 24.35 -2.65 19.9 -0.9 15.15 -2.45 18.0 1.85 18.05 7.35 18.0 14.7 12.8 19.9 7.6 25.15 0.25 25.2 -7.15 25.15 -12.4 19.9 -17.0 15.3 -17.55 9.05 L-17.6 7.35 Q-17.6 5.2 -17.15 3.25 L-16.9 2.15 Q-16.15 -0.4 -14.6 -2.65 L-15.8 -2.25 Q-20.2 -1.05 -24.35 -2.65 -25.95 -3.35 -27.2 -4.3 -29.6 -6.15 -30.7 -9.05 -32.3 -13.55 -29.9 -18.0 -27.55 -22.5 -22.55 -24.3 -18.55 -25.8 -14.7 -24.85 L-14.65 -24.8 -12.8 -24.25 Q-8.1 -22.4 -6.45 -17.9 -5.05 -13.95 -6.7 -9.95 L-7.2 -8.9 Q-4.55 -10.15 -1.55 -10.4 L0.25 -10.45 1.75 -10.4" fill="#000000" fill-rule="evenodd" stroke="none"/>
      <path d="M1.75 -10.4 Q4.6 -10.2 7.15 -9.15 4.9 -13.5 6.5 -17.9 8.15 -22.4 12.85 -24.2 17.3 -26.0 22.05 -24.5 L22.55 -24.3 Q27.55 -22.45 29.95 -18.0 32.35 -13.55 30.7 -9.05 29.0 -4.55 24.35 -2.65 19.9 -0.9 15.15 -2.45 18.0 1.85 18.05 7.35 18.0 14.7 12.8 19.9 7.6 25.15 0.25 25.2 -7.15 25.15 -12.4 19.9 -17.0 15.3 -17.55 9.05 L-17.6 7.35 Q-17.6 5.2 -17.15 3.25 L-16.9 2.15 Q-16.15 -0.4 -14.6 -2.65 L-15.8 -2.25 Q-20.2 -1.05 -24.35 -2.65 -25.95 -3.35 -27.2 -4.3 -29.6 -6.15 -30.7 -9.05 -32.3 -13.55 -29.9 -18.0 -27.55 -22.5 -22.55 -24.3 -18.55 -25.8 -14.7 -24.85 L-14.65 -24.8 -12.8 -24.25 Q-8.1 -22.4 -6.45 -17.9 -5.05 -13.95 -6.7 -9.95 L-7.2 -8.9 Q-4.55 -10.15 -1.55 -10.4 L0.25 -10.45 1.75 -10.4 Z" fill="none" stroke="#ffffff" stroke-linecap="round" stroke-linejoin="round" stroke-width="5.0"/>
      <path d="M1.75 -10.4 Q4.6 -10.2 7.15 -9.15 4.9 -13.5 6.5 -17.9 8.15 -22.4 12.85 -24.2 17.3 -26.0 22.05 -24.5 L22.55 -24.3 Q27.55 -22.45 29.95 -18.0 32.35 -13.55 30.7 -9.05 29.0 -4.55 24.35 -2.65 19.9 -0.9 15.15 -2.45 18.0 1.85 18.05 7.35 18.0 14.7 12.8 19.9 7.6 25.15 0.25 25.2 -7.15 25.15 -12.4 19.9 -17.0 15.3 -17.55 9.05 L-17.6 7.35 Q-17.6 5.2 -17.15 3.25 L-16.9 2.15 Q-16.15 -0.4 -14.6 -2.65 L-15.8 -2.25 Q-20.2 -1.05 -24.35 -2.65 -25.95 -3.35 -27.2 -4.3 -29.6 -6.15 -30.7 -9.05 -32.3 -13.55 -29.9 -18.0 -27.55 -22.5 -22.55 -24.3 -18.55 -25.8 -14.7 -24.85 L-14.65 -24.8 -12.8 -24.25 Q-8.1 -22.4 -6.45 -17.9 -5.05 -13.95 -6.7 -9.95 L-7.2 -8.9 Q-4.55 -10.15 -1.55 -10.4 L0.25 -10.45 1.75 -10.4" fill="#ff6600" fill-rule="evenodd" stroke="none"/>
    </g>
    <g id="sprite4" transform="matrix(1.0, 0.0, 0.0, 1.0, 48.25, 51.25)">
      <use data-characterId="20" height="95.75" transform="matrix(1.0, 0.0, 0.0, 1.0, -48.25, -51.25)" width="96.5" xlink:href="#morphshape0"/>
    </g>
    <g id="morphshape0" transform="matrix(1.0, 0.0, 0.0, 1.0, 48.25, 51.25)">
      <path d="M-48.25 -50.0 L-48.25 -49.9 -48.25 35.4 Q-48.25 36.9 -48.25 38.4 -48.25 39.45 -48.25 40.5 L-48.1 41.65 Q-47.8 42.6 -47.1 43.3 -45.9 44.5 -44.25 44.5 1.1 40.75 39.45 44.0 40.95 44.15 42.45 44.3 43.35 44.4 44.25 44.5 L45.7 44.25 Q46.45 43.95 47.05 43.3 48.25 42.15 48.25 40.5 L48.25 -38.0 Q48.25 -41.25 48.25 -44.5 40.85 -38.85 31.2 -37.3 19.7 -35.4 4.9 -39.4 L-1.25 -41.25 Q-12.15 -45.95 -22.05 -48.25 -36.25 -51.6 -48.25 -50.0" fill="#66ccff" fill-rule="evenodd" stroke="none"/>
      <path d="M-48.25 -50.0 Q-36.25 -51.6 -22.05 -48.25 -12.15 -45.95 -1.25 -41.25 L4.9 -39.4 Q19.7 -35.4 31.2 -37.3 40.85 -38.85 48.25 -44.5 48.25 -41.25 48.25 -38.0 L48.25 40.5 Q48.25 42.15 47.05 43.3 46.45 43.95 45.7 44.25 L44.25 44.5 Q43.35 44.4 42.45 44.3 40.95 44.15 39.45 44.0 1.1 40.75 -44.25 44.5 -45.9 44.5 -47.1 43.3 -47.8 42.6 -48.1 41.65 L-48.25 40.5 Q-48.25 39.45 -48.25 38.4 -48.25 36.9 -48.25 35.4 L-48.25 -49.9 -48.25 -50.0 Z" fill="none" stroke="#66ccff" stroke-linecap="round" stroke-linejoin="round" stroke-opacity="0.0" stroke-width="1.0"/>
    </g>
    <g id="sprite5" transform="matrix(1.0, 0.0, 0.0, 1.0, 13.3, 23.15)">
      <use data-characterId="26" height="26.9" transform="matrix(1.0, 0.0, 0.0, 1.0, -13.3, -13.15)" width="26.85" xlink:href="#shape9"/>
      <use data-characterId="27" height="25.85" transform="matrix(1.0, 0.0, 0.0, 1.0, 14.05, -18.95)" width="27.75" xlink:href="#shape10"/>
      <use data-characterId="28" height="26.2" transform="matrix(1.0, 0.0, 0.0, 1.0, 42.35, -22.55)" width="27.35" xlink:href="#shape11"/>
      <use data-characterId="27" height="25.85" transform="matrix(1.0, 0.0, 0.0, 1.0, 70.0, -17.05)" width="27.75" xlink:href="#shape10"/>
      <use data-characterId="29" height="27.0" transform="matrix(1.0, 0.0, 0.0, 1.0, 98.8, -3.15)" width="25.6" xlink:href="#shape12"/>
    </g>
    <g id="shape9" transform="matrix(1.0, 0.0, 0.0, 1.0, 13.3, 13.15)">
      <path d="M5.85 -9.3 L9.15 -9.3 Q10.0 -9.3 10.35 -8.95 10.7 -8.6 10.7 -7.6 L10.4 -6.4 Q10.0 -5.85 9.15 -5.85 L6.0 -5.85 6.0 -5.4 8.5 -5.4 Q9.3 -5.4 9.65 -5.0 9.95 -4.7 9.95 -3.75 9.95 -3.0 9.65 -2.6 9.3 -2.1 8.5 -2.1 L-1.15 -2.1 Q-1.85 -2.1 -2.2 -2.45 -2.55 -2.85 -2.55 -3.75 -2.55 -4.7 -2.2 -5.0 -1.85 -5.4 -1.15 -5.4 L1.05 -5.4 1.05 -5.85 -1.6 -5.85 Q-2.35 -5.85 -2.75 -6.25 -3.1 -6.6 -3.1 -7.6 -3.1 -8.6 -2.75 -8.95 L-1.6 -9.3 1.2 -9.3 1.6 -10.05 Q2.1 -10.65 3.45 -10.65 4.9 -10.65 5.4 -10.05 L5.85 -9.3 M-3.2 7.75 L-3.2 8.05 -2.85 7.75 Q-1.75 7.15 -1.3 6.3 L-0.85 4.65 -1.3 4.65 -2.8 4.3 Q-3.3 3.9 -3.3 3.15 L-3.3 1.4 Q-3.3 -1.6 -1.05 -1.6 L8.4 -1.6 Q10.7 -1.6 10.7 1.4 L10.7 3.05 Q10.7 3.9 10.15 4.2 L8.7 4.55 7.05 4.25 7.05 7.0 7.3 7.3 7.4 7.3 7.8 7.05 8.05 6.25 Q8.3 5.7 9.35 5.6 10.05 5.65 10.6 6.0 11.0 6.35 11.05 7.0 11.05 8.7 10.4 9.8 9.7 10.95 7.8 11.15 L6.0 11.15 Q4.5 11.15 3.85 10.4 3.25 9.85 3.25 8.45 L3.25 4.0 Q3.25 3.45 3.75 2.95 4.2 2.6 5.15 2.6 5.95 2.6 6.45 2.95 L6.75 3.2 6.75 2.05 Q6.75 1.55 6.15 1.55 L1.1 1.55 Q0.65 1.55 0.65 2.05 L0.65 2.5 0.95 2.5 Q1.9 2.55 2.45 3.0 2.9 3.3 2.9 4.1 L2.75 5.7 Q2.45 7.55 1.75 8.8 1.05 10.05 0.1 10.75 -0.5 11.25 -0.85 11.25 -2.0 11.2 -2.9 10.3 L-3.25 9.8 Q-3.5 11.05 -5.0 11.05 L-9.05 11.05 Q-10.8 11.05 -10.8 9.25 L-10.8 4.85 Q-10.8 3.05 -9.05 3.05 L-8.6 3.05 Q-10.4 4.15 -10.4 7.55 -10.2 10.85 -7.05 10.85 -5.2 10.85 -3.95 9.1 L-3.2 7.75 M-7.45 2.6 L-9.3 2.6 -10.2 2.3 -10.5 1.2 Q-10.5 0.45 -10.2 0.15 L-9.3 -0.1 -4.7 -0.1 -3.75 0.15 Q-3.5 0.45 -3.5 1.2 L-3.7 2.15 Q-4.05 2.6 -4.7 2.6 L-5.35 2.6 -6.45 2.5 -7.45 2.6 M-10.2 -3.0 L-9.3 -3.3 -4.6 -3.3 -3.65 -3.0 Q-3.4 -2.75 -3.4 -2.0 -3.4 -1.35 -3.6 -1.05 -3.95 -0.55 -4.6 -0.55 L-9.3 -0.55 Q-9.9 -0.55 -10.2 -0.9 -10.5 -1.2 -10.5 -2.0 -10.5 -2.75 -10.2 -3.0 M-10.6 -6.55 L-9.6 -6.85 -4.2 -6.85 -3.2 -6.55 Q-2.95 -6.25 -2.95 -5.4 L-3.15 -4.3 Q-3.5 -3.75 -4.2 -3.75 L-9.6 -3.75 Q-10.2 -3.75 -10.6 -4.15 -10.9 -4.5 -10.9 -5.4 -10.9 -6.25 -10.6 -6.55 M-3.65 -9.85 Q-3.3 -9.6 -3.3 -8.75 L-3.5 -7.75 Q-3.8 -7.35 -4.5 -7.35 L-9.2 -7.35 Q-9.75 -7.35 -10.1 -7.65 -10.4 -7.95 -10.4 -8.75 L-10.1 -9.9 -9.2 -10.15 -4.5 -10.15 Q-3.9 -10.15 -3.65 -9.85" fill="#3399ff" fill-rule="evenodd" stroke="none"/>
      <path d="M-8.6 3.05 Q-8.1 2.75 -7.45 2.6 L-6.45 2.5 -5.35 2.6 Q-4.4 2.8 -3.8 3.4 L-3.35 4.0 Q-2.85 4.85 -2.9 6.25 -2.9 7.0 -3.2 7.75 L-3.95 9.1 Q-5.2 10.85 -7.05 10.85 -10.2 10.85 -10.4 7.55 -10.4 4.15 -8.6 3.05" fill="#ffffff" fill-rule="evenodd" stroke="none"/>
      <path d="M5.85 -9.3 L9.15 -9.3 Q10.0 -9.3 10.35 -8.95 10.7 -8.6 10.7 -7.6 L10.4 -6.4 Q10.0 -5.85 9.15 -5.85 L6.0 -5.85 6.0 -5.4 8.5 -5.4 Q9.3 -5.4 9.65 -5.0 9.95 -4.7 9.95 -3.75 9.95 -3.0 9.65 -2.6 9.3 -2.1 8.5 -2.1 L-1.15 -2.1 Q-1.85 -2.1 -2.2 -2.45 -2.55 -2.85 -2.55 -3.75 -2.55 -4.7 -2.2 -5.0 -1.85 -5.4 -1.15 -5.4 L1.05 -5.4 1.05 -5.85 -1.6 -5.85 Q-2.35 -5.85 -2.75 -6.25 -3.1 -6.6 -3.1 -7.6 -3.1 -8.6 -2.75 -8.95 L-1.6 -9.3 1.2 -9.3 1.6 -10.05 Q2.1 -10.65 3.45 -10.65 4.9 -10.65 5.4 -10.05 L5.85 -9.3 M-3.2 7.75 L-3.2 8.05 -2.85 7.75 Q-1.75 7.15 -1.3 6.3 L-0.85 4.65 -1.3 4.65 -2.8 4.3 Q-3.3 3.9 -3.3 3.15 L-3.3 1.4 Q-3.3 -1.6 -1.05 -1.6 L8.4 -1.6 Q10.7 -1.6 10.7 1.4 L10.7 3.05 Q10.7 3.9 10.15 4.2 L8.7 4.55 7.05 4.25 7.05 7.0 7.3 7.3 7.4 7.3 7.8 7.05 8.05 6.25 Q8.3 5.7 9.35 5.6 10.05 5.65 10.6 6.0 11.0 6.35 11.05 7.0 11.05 8.7 10.4 9.8 9.7 10.95 7.8 11.15 L6.0 11.15 Q4.5 11.15 3.85 10.4 3.25 9.85 3.25 8.45 L3.25 4.0 Q3.25 3.45 3.75 2.95 4.2 2.6 5.15 2.6 5.95 2.6 6.45 2.95 L6.75 3.2 6.75 2.05 Q6.75 1.55 6.15 1.55 L1.1 1.55 Q0.65 1.55 0.65 2.05 L0.65 2.5 0.95 2.5 Q1.9 2.55 2.45 3.0 2.9 3.3 2.9 4.1 L2.75 5.7 Q2.45 7.55 1.75 8.8 1.05 10.05 0.1 10.75 -0.5 11.25 -0.85 11.25 -2.0 11.2 -2.9 10.3 L-3.25 9.8 Q-3.5 11.05 -5.0 11.05 L-9.05 11.05 Q-10.8 11.05 -10.8 9.25 L-10.8 4.85 Q-10.8 3.05 -9.05 3.05 L-8.6 3.05 M-3.8 3.4 L-3.35 4.0 M-10.2 -3.0 L-9.3 -3.3 -4.6 -3.3 -3.65 -3.0 Q-3.4 -2.75 -3.4 -2.0 -3.4 -1.35 -3.6 -1.05 -3.95 -0.55 -4.6 -0.55 L-9.3 -0.55 Q-9.9 -0.55 -10.2 -0.9 -10.5 -1.2 -10.5 -2.0 -10.5 -2.75 -10.2 -3.0 M-3.65 -9.85 Q-3.3 -9.6 -3.3 -8.75 L-3.5 -7.75 Q-3.8 -7.35 -4.5 -7.35 L-9.2 -7.35 Q-9.75 -7.35 -10.1 -7.65 -10.4 -7.95 -10.4 -8.75 L-10.1 -9.9 -9.2 -10.15 -4.5 -10.15 Q-3.9 -10.15 -3.65 -9.85 Z" fill="none" stroke="#ffffff" stroke-linecap="round" stroke-linejoin="round" stroke-width="5.0"/>
      <path d="M5.85 -9.3 L9.15 -9.3 Q10.0 -9.3 10.35 -8.95 10.7 -8.6 10.7 -7.6 L10.4 -6.4 Q10.0 -5.85 9.15 -5.85 L6.0 -5.85 6.0 -5.4 8.5 -5.4 Q9.3 -5.4 9.65 -5.0 9.95 -4.7 9.95 -3.75 9.95 -3.0 9.65 -2.6 9.3 -2.1 8.5 -2.1 L-1.15 -2.1 Q-1.85 -2.1 -2.2 -2.45 -2.55 -2.85 -2.55 -3.75 -2.55 -4.7 -2.2 -5.0 -1.85 -5.4 -1.15 -5.4 L1.05 -5.4 1.05 -5.85 -1.6 -5.85 Q-2.35 -5.85 -2.75 -6.25 -3.1 -6.6 -3.1 -7.6 -3.1 -8.6 -2.75 -8.95 L-1.6 -9.3 1.2 -9.3 1.6 -10.05 Q2.1 -10.65 3.45 -10.65 4.9 -10.65 5.4 -10.05 L5.85 -9.3 M10.4 9.8 Q9.7 10.95 7.8 11.15 L6.0 11.15 Q4.5 11.15 3.85 10.4 3.25 9.85 3.25 8.45 L3.25 4.0 Q3.25 3.45 3.75 2.95 4.2 2.6 5.15 2.6 5.95 2.6 6.45 2.95 L6.75 3.2 6.75 2.05 Q6.75 1.55 6.15 1.55 L1.1 1.55 Q0.65 1.55 0.65 2.05 L0.65 2.5 0.95 2.5 Q1.9 2.55 2.45 3.0 2.9 3.3 2.9 4.1 L2.75 5.7 Q2.45 7.55 1.75 8.8 1.05 10.05 0.1 10.75 -0.5 11.25 -0.85 11.25 -2.0 11.2 -2.9 10.3 L-3.25 9.8 Q-3.5 11.05 -5.0 11.05 L-9.05 11.05 Q-10.8 11.05 -10.8 9.25 L-10.8 4.85 Q-10.8 3.05 -9.05 3.05 L-5.0 3.05 Q-3.2 3.05 -3.2 4.85 L-3.2 8.05 -2.85 7.75 Q-1.75 7.15 -1.3 6.3 L-0.85 4.65 -1.3 4.65 -2.8 4.3 Q-3.3 3.9 -3.3 3.15 L-3.3 1.4 Q-3.3 -1.6 -1.05 -1.6 L8.4 -1.6 Q10.7 -1.6 10.7 1.4 L10.7 3.05 Q10.7 3.9 10.15 4.2 L8.7 4.55 7.05 4.25 7.05 7.0 7.3 7.3 7.4 7.3 7.8 7.05 8.05 6.25 Q8.3 5.7 9.35 5.6 10.05 5.65 10.6 6.0 11.0 6.35 11.05 7.0 11.05 8.7 10.4 9.8 M-10.6 -6.55 L-9.6 -6.85 -4.2 -6.85 -3.2 -6.55 Q-2.95 -6.25 -2.95 -5.4 L-3.15 -4.3 Q-3.5 -3.75 -4.2 -3.75 L-9.6 -3.75 Q-10.2 -3.75 -10.6 -4.15 -10.9 -4.5 -10.9 -5.4 -10.9 -6.25 -10.6 -6.55 M-10.2 -3.0 L-9.3 -3.3 -4.6 -3.3 -3.65 -3.0 Q-3.4 -2.75 -3.4 -2.0 -3.4 -1.35 -3.6 -1.05 -3.95 -0.55 -4.6 -0.55 L-9.3 -0.55 Q-9.9 -0.55 -10.2 -0.9 -10.5 -1.2 -10.5 -2.0 -10.5 -2.75 -10.2 -3.0 M-3.65 -9.85 Q-3.3 -9.6 -3.3 -8.75 L-3.5 -7.75 Q-3.8 -7.35 -4.5 -7.35 L-9.2 -7.35 Q-9.75 -7.35 -10.1 -7.65 -10.4 -7.95 -10.4 -8.75 L-10.1 -9.9 -9.2 -10.15 -4.5 -10.15 Q-3.9 -10.15 -3.65 -9.85 M-4.7 -0.1 L-3.75 0.15 Q-3.5 0.45 -3.5 1.2 L-3.7 2.15 Q-4.05 2.6 -4.7 2.6 L-9.3 2.6 -10.2 2.3 -10.5 1.2 Q-10.5 0.45 -10.2 0.15 L-9.3 -0.1 -4.7 -0.1 M-7.05 6.15 Q-7.5 6.15 -7.5 6.6 L-7.5 7.5 Q-7.5 7.95 -7.05 7.95 L-6.95 7.95 Q-6.5 7.95 -6.5 7.5 L-6.5 6.6 Q-6.5 6.15 -6.95 6.15 L-7.05 6.15" fill="#3399ff" fill-rule="evenodd" stroke="none"/>
    </g>
    <g id="shape10" transform="matrix(1.0, 0.0, 0.0, 1.0, 13.95, 12.05)">
      <path d="M2.65 -8.85 Q3.45 -8.05 3.45 -6.8 L3.3 -5.8 1.95 -1.35 4.15 -0.65 4.3 -2.75 Q4.35 -3.55 5.05 -4.0 5.75 -4.5 6.7 -4.5 9.15 -4.5 9.15 -2.05 L8.8 0.95 Q11.3 1.95 11.3 3.5 11.3 4.45 10.7 5.3 10.05 6.25 9.1 6.25 8.5 6.25 7.75 5.8 6.2 9.05 4.2 10.7 3.45 11.3 2.5 11.3 1.35 11.3 0.55 10.55 -0.25 9.8 -0.25 8.8 -0.25 8.15 0.45 7.45 2.5 5.5 3.1 4.15 1.8 3.45 0.4 3.05 -1.25 6.0 -2.4 7.2 -4.35 9.15 -7.05 9.15 -9.1 9.15 -10.3 7.8 -11.45 6.55 -11.45 4.9 -11.55 1.35 -8.55 -0.7 -6.55 -2.1 -2.7 -2.1 L-1.75 -5.1 -6.05 -4.65 Q-7.15 -4.6 -7.8 -5.35 -8.35 -6.0 -8.35 -6.95 -8.35 -7.75 -7.8 -8.4 -7.3 -9.0 -6.4 -9.05 L0.7 -9.55 Q1.85 -9.6 2.65 -8.85 M-4.7 2.15 Q-5.9 2.15 -6.95 3.6 L-7.2 4.4 -7.0 4.95 -6.55 5.2 -6.45 5.15 -5.2 3.85 -4.2 2.25 -4.7 2.15" fill="#ff3300" fill-rule="evenodd" stroke="none"/>
      <path d="M2.65 -8.85 Q3.45 -8.05 3.45 -6.8 L3.3 -5.8 1.95 -1.35 4.15 -0.65 4.3 -2.75 Q4.35 -3.55 5.05 -4.0 5.75 -4.5 6.7 -4.5 9.15 -4.5 9.15 -2.05 L8.8 0.95 Q11.3 1.95 11.3 3.5 11.3 4.45 10.7 5.3 10.05 6.25 9.1 6.25 8.5 6.25 7.75 5.8 6.2 9.05 4.2 10.7 3.45 11.3 2.5 11.3 1.35 11.3 0.55 10.55 -0.25 9.8 -0.25 8.8 -0.25 8.15 0.45 7.45 2.5 5.5 3.1 4.15 1.8 3.45 0.4 3.05 -1.25 6.0 -2.4 7.2 -4.35 9.15 -7.05 9.15 -9.1 9.15 -10.3 7.8 -11.45 6.55 -11.45 4.9 -11.55 1.35 -8.55 -0.7 -6.55 -2.1 -2.7 -2.1 L-1.75 -5.1 -6.05 -4.65 Q-7.15 -4.6 -7.8 -5.35 -8.35 -6.0 -8.35 -6.95 -8.35 -7.75 -7.8 -8.4 -7.3 -9.0 -6.4 -9.05 L0.7 -9.55 Q1.85 -9.6 2.65 -8.85 M-4.7 2.15 Q-5.9 2.15 -6.95 3.6 L-7.2 4.4 -7.0 4.95 -6.55 5.2 -6.45 5.15 -5.2 3.85 -4.2 2.25 -4.7 2.15 Z" fill="none" stroke="#ffffff" stroke-linecap="round" stroke-linejoin="round" stroke-width="5.0"/>
      <path d="M3.45 -6.8 L3.3 -5.8 1.95 -1.35 4.15 -0.65 4.3 -2.75 Q4.35 -3.55 5.05 -4.0 5.75 -4.5 6.7 -4.5 9.15 -4.5 9.15 -2.05 L8.8 0.95 Q11.3 1.95 11.3 3.5 11.3 4.45 10.7 5.3 10.05 6.25 9.1 6.25 8.5 6.25 7.75 5.8 6.2 9.05 4.2 10.7 3.45 11.3 2.5 11.3 1.35 11.3 0.55 10.55 -0.25 9.8 -0.25 8.8 -0.25 8.15 0.45 7.45 2.5 5.5 3.1 4.15 1.8 3.45 0.4 3.05 -1.25 6.0 -2.4 7.2 -4.35 9.15 -7.05 9.15 -9.1 9.15 -10.3 7.8 -11.45 6.55 -11.45 4.9 -11.55 1.35 -8.55 -0.7 -6.55 -2.1 -2.7 -2.1 L-1.75 -5.1 -6.05 -4.65 Q-7.15 -4.6 -7.8 -5.35 -8.35 -6.0 -8.35 -6.95 -8.35 -7.75 -7.8 -8.4 -7.3 -9.0 -6.4 -9.05 L0.7 -9.55 Q1.85 -9.6 2.65 -8.85 3.45 -8.05 3.45 -6.8 M-4.7 2.15 Q-5.9 2.15 -6.95 3.6 L-7.2 4.4 -7.0 4.95 -6.55 5.2 -6.45 5.15 -5.2 3.85 -4.2 2.25 -4.7 2.15" fill="#ff3300" fill-rule="evenodd" stroke="none"/>
    </g>
    <g id="shape11" transform="matrix(1.0, 0.0, 0.0, 1.0, 13.6, 12.55)">
      <path d="M8.3 -2.35 Q9.05 -0.4 10.6 1.4 11.25 2.0 11.25 2.7 11.2 3.8 10.45 4.6 9.5 5.55 8.35 5.6 7.8 5.55 7.1 4.85 5.75 3.35 4.45 0.5 L3.7 -1.75 3.1 0.35 Q2.15 3.05 1.2 4.65 0.35 5.5 -0.65 5.6 -1.6 5.6 -2.65 4.7 -3.4 4.1 -3.4 3.05 L-3.05 2.05 Q-1.4 -0.55 -0.8 -2.05 L0.3 -5.55 -1.05 -5.55 Q-2.0 -5.55 -2.45 -6.2 -2.9 -6.7 -2.95 -7.7 -2.9 -8.8 -2.35 -9.35 -2.0 -9.85 -1.05 -9.85 L4.05 -9.85 Q6.85 -9.85 7.2 -7.45 7.6 -4.15 8.3 -2.35 M10.65 10.05 Q10.0 10.85 8.4 10.85 L1.3 10.85 Q-3.25 10.85 -5.2 9.5 -5.4 9.15 -5.65 9.15 -5.8 9.15 -6.05 9.5 -7.4 11.15 -8.25 11.15 -9.4 11.15 -10.4 10.0 -11.1 9.2 -11.1 8.15 -11.1 7.5 -10.5 6.85 L-8.6 5.05 -8.25 4.4 -8.25 2.25 Q-8.25 1.75 -8.65 1.75 L-9.2 1.75 Q-10.2 1.75 -10.6 1.15 -11.0 0.75 -11.0 -0.4 -11.0 -1.5 -10.55 -2.05 -10.15 -2.55 -9.2 -2.55 L-6.65 -2.55 Q-3.75 -2.55 -3.75 0.25 L-3.75 4.55 Q-3.75 5.4 -3.05 5.75 -1.85 6.35 0.2 6.35 L5.8 6.2 9.65 6.05 Q10.3 6.05 10.7 6.55 11.25 7.1 11.25 7.85 11.25 9.3 10.65 10.05 M-5.55 -9.0 Q-4.3 -7.1 -4.3 -5.85 -4.3 -4.85 -5.3 -4.35 -6.4 -3.65 -7.5 -3.65 -8.45 -3.8 -8.8 -4.8 L-10.05 -7.3 -10.4 -8.2 Q-10.4 -9.0 -9.4 -9.55 L-7.4 -10.05 Q-6.3 -10.05 -5.55 -9.0" fill="#3399ff" fill-rule="evenodd" stroke="none"/>
      <path d="M8.3 -2.35 Q9.05 -0.4 10.6 1.4 11.25 2.0 11.25 2.7 11.2 3.8 10.45 4.6 9.5 5.55 8.35 5.6 7.8 5.55 7.1 4.85 5.75 3.35 4.45 0.5 L3.7 -1.75 3.1 0.35 Q2.15 3.05 1.2 4.65 0.35 5.5 -0.65 5.6 -1.6 5.6 -2.65 4.7 -3.4 4.1 -3.4 3.05 L-3.05 2.05 Q-1.4 -0.55 -0.8 -2.05 L0.3 -5.55 -1.05 -5.55 Q-2.0 -5.55 -2.45 -6.2 -2.9 -6.7 -2.95 -7.7 -2.9 -8.8 -2.35 -9.35 -2.0 -9.85 -1.05 -9.85 L4.05 -9.85 Q6.85 -9.85 7.2 -7.45 7.6 -4.15 8.3 -2.35 M10.65 10.05 Q10.0 10.85 8.4 10.85 L1.3 10.85 Q-3.25 10.85 -5.2 9.5 -5.4 9.15 -5.65 9.15 -5.8 9.15 -6.05 9.5 -7.4 11.15 -8.25 11.15 -9.4 11.15 -10.4 10.0 -11.1 9.2 -11.1 8.15 -11.1 7.5 -10.5 6.85 L-8.6 5.05 -8.25 4.4 -8.25 2.25 Q-8.25 1.75 -8.65 1.75 L-9.2 1.75 Q-10.2 1.75 -10.6 1.15 -11.0 0.75 -11.0 -0.4 -11.0 -1.5 -10.55 -2.05 -10.15 -2.55 -9.2 -2.55 L-6.65 -2.55 Q-3.75 -2.55 -3.75 0.25 L-3.75 4.55 Q-3.75 5.4 -3.05 5.75 -1.85 6.35 0.2 6.35 L5.8 6.2 9.65 6.05 Q10.3 6.05 10.7 6.55 11.25 7.1 11.25 7.85 11.25 9.3 10.65 10.05 M-5.55 -9.0 Q-4.3 -7.1 -4.3 -5.85 -4.3 -4.85 -5.3 -4.35 -6.4 -3.65 -7.5 -3.65 -8.45 -3.8 -8.8 -4.8 L-10.05 -7.3 -10.4 -8.2 Q-10.4 -9.0 -9.4 -9.55 L-7.4 -10.05 Q-6.3 -10.05 -5.55 -9.0 Z" fill="none" stroke="#ffffff" stroke-linecap="round" stroke-linejoin="round" stroke-width="5.0"/>
      <path d="M8.3 -2.35 Q9.05 -0.4 10.6 1.4 11.25 2.0 11.25 2.7 11.2 3.8 10.45 4.6 9.5 5.55 8.35 5.6 7.8 5.55 7.1 4.85 5.75 3.35 4.45 0.5 L3.7 -1.75 3.1 0.35 Q2.15 3.05 1.2 4.65 0.35 5.5 -0.65 5.6 -1.6 5.6 -2.65 4.7 -3.4 4.1 -3.4 3.05 L-3.05 2.05 Q-1.4 -0.55 -0.8 -2.05 L0.3 -5.55 -1.05 -5.55 Q-2.0 -5.55 -2.45 -6.2 -2.9 -6.7 -2.95 -7.7 -2.9 -8.8 -2.35 -9.35 -2.0 -9.85 -1.05 -9.85 L4.05 -9.85 Q6.85 -9.85 7.2 -7.45 7.6 -4.15 8.3 -2.35 M10.65 10.05 Q10.0 10.85 8.4 10.85 L1.3 10.85 Q-3.25 10.85 -5.2 9.5 -5.4 9.15 -5.65 9.15 -5.8 9.15 -6.05 9.5 -7.4 11.15 -8.25 11.15 -9.4 11.15 -10.4 10.0 -11.1 9.2 -11.1 8.15 -11.1 7.5 -10.5 6.85 L-8.6 5.05 -8.25 4.4 -8.25 2.25 Q-8.25 1.75 -8.65 1.75 L-9.2 1.75 Q-10.2 1.75 -10.6 1.15 -11.0 0.75 -11.0 -0.4 -11.0 -1.5 -10.55 -2.05 -10.15 -2.55 -9.2 -2.55 L-6.65 -2.55 Q-3.75 -2.55 -3.75 0.25 L-3.75 4.55 Q-3.75 5.4 -3.05 5.75 -1.85 6.35 0.2 6.35 L5.8 6.2 9.65 6.05 Q10.3 6.05 10.7 6.55 11.25 7.1 11.25 7.85 11.25 9.3 10.65 10.05 M-5.55 -9.0 Q-4.3 -7.1 -4.3 -5.85 -4.3 -4.85 -5.3 -4.35 -6.4 -3.65 -7.5 -3.65 -8.45 -3.8 -8.8 -4.8 L-10.05 -7.3 -10.4 -8.2 Q-10.4 -9.0 -9.4 -9.55 L-7.4 -10.05 Q-6.3 -10.05 -5.55 -9.0" fill="#3399ff" fill-rule="evenodd" stroke="none"/>
    </g>
    <g id="shape12" transform="matrix(1.0, 0.0, 0.0, 1.0, 12.9, 13.15)">
      <path d="M2.5 -3.0 L2.5 1.65 4.95 1.65 Q5.5 1.65 5.5 1.1 L5.5 -2.45 Q5.5 -3.0 4.95 -3.0 L2.5 -3.0 M10.2 -3.95 L10.2 2.6 Q10.2 6.0 6.85 6.0 L2.5 6.0 2.5 9.15 Q2.5 10.0 2.0 10.6 1.35 11.35 -0.1 11.35 -1.45 11.35 -2.15 10.6 -2.75 10.05 -2.75 9.15 L-2.75 6.0 -7.05 6.0 Q-10.4 6.0 -10.4 2.6 L-10.4 -3.95 Q-10.4 -7.35 -7.05 -7.35 L-2.75 -7.35 -2.75 -8.45 Q-2.75 -9.5 -1.95 -10.05 -1.35 -10.65 -0.1 -10.65 1.05 -10.65 1.8 -10.05 2.5 -9.5 2.5 -8.45 L2.5 -7.35 6.85 -7.35 Q10.2 -7.35 10.2 -3.95 M-5.55 -2.45 L-5.55 1.1 Q-5.55 1.65 -5.0 1.65 L-2.75 1.65 -2.75 -3.0 -5.0 -3.0 Q-5.55 -3.0 -5.55 -2.45" fill="#66ccff" fill-rule="evenodd" stroke="none"/>
      <path d="M2.5 -3.0 L2.5 1.65 4.95 1.65 Q5.5 1.65 5.5 1.1 L5.5 -2.45 Q5.5 -3.0 4.95 -3.0 L2.5 -3.0 M10.2 -3.95 L10.2 2.6 Q10.2 6.0 6.85 6.0 L2.5 6.0 2.5 9.15 Q2.5 10.0 2.0 10.6 1.35 11.35 -0.1 11.35 -1.45 11.35 -2.15 10.6 -2.75 10.05 -2.75 9.15 L-2.75 6.0 -7.05 6.0 Q-10.4 6.0 -10.4 2.6 L-10.4 -3.95 Q-10.4 -7.35 -7.05 -7.35 L-2.75 -7.35 -2.75 -8.45 Q-2.75 -9.5 -1.95 -10.05 -1.35 -10.65 -0.1 -10.65 1.05 -10.65 1.8 -10.05 2.5 -9.5 2.5 -8.45 L2.5 -7.35 6.85 -7.35 Q10.2 -7.35 10.2 -3.95 M-5.55 -2.45 L-5.55 1.1 Q-5.55 1.65 -5.0 1.65 L-2.75 1.65 -2.75 -3.0 -5.0 -3.0 Q-5.55 -3.0 -5.55 -2.45 Z" fill="none" stroke="#ffffff" stroke-linecap="round" stroke-linejoin="round" stroke-width="5.0"/>
      <path d="M10.2 -3.95 L10.2 2.6 Q10.2 6.0 6.85 6.0 L2.5 6.0 2.5 9.15 Q2.5 10.0 2.0 10.6 1.35 11.35 -0.1 11.35 -1.45 11.35 -2.15 10.6 -2.75 10.05 -2.75 9.15 L-2.75 6.0 -7.05 6.0 Q-10.4 6.0 -10.4 2.6 L-10.4 -3.95 Q-10.4 -7.35 -7.05 -7.35 L-2.75 -7.35 -2.75 -8.45 Q-2.75 -9.5 -1.95 -10.05 -1.35 -10.65 -0.1 -10.65 1.05 -10.65 1.8 -10.05 2.5 -9.5 2.5 -8.45 L2.5 -7.35 6.85 -7.35 Q10.2 -7.35 10.2 -3.95 M2.5 -3.0 L2.5 1.65 4.95 1.65 Q5.5 1.65 5.5 1.1 L5.5 -2.45 Q5.5 -3.0 4.95 -3.0 L2.5 -3.0 M-5.55 -2.45 L-5.55 1.1 Q-5.55 1.65 -5.0 1.65 L-2.75 1.65 -2.75 -3.0 -5.0 -3.0 Q-5.55 -3.0 -5.55 -2.45" fill="#3399ff" fill-rule="evenodd" stroke="none"/>
    </g>
    <g id="shape13" transform="matrix(1.0, 0.0, 0.0, 1.0, 4.2, -13.35)">
      <path d="M3.5 14.6 L-2.25 20.8 -2.8 21.05 Q-3.1 21.05 -3.3 20.85 L-3.55 20.3 -3.35 19.85 2.4 13.65 Q2.6 13.4 2.95 13.4 L3.45 13.65 3.65 14.15 3.5 14.6 M3.8 17.65 Q4.25 18.2 4.25 19.1 4.25 19.9 3.8 20.5 3.25 21.1 2.3 21.15 1.4 21.15 0.85 20.45 0.35 19.8 0.35 19.1 0.35 18.3 0.85 17.75 1.35 17.1 2.3 17.1 3.25 17.1 3.8 17.65 M2.7 19.05 Q2.7 18.15 2.3 18.2 1.9 18.15 1.9 19.05 1.9 19.95 2.3 20.0 2.7 19.95 2.7 19.05 M-0.8 13.95 Q-0.3 14.45 -0.3 15.35 -0.3 16.15 -0.75 16.75 -1.3 17.4 -2.25 17.4 -3.15 17.4 -3.75 16.7 L-4.2 15.4 Q-4.2 14.6 -3.75 14.05 -3.2 13.35 -2.25 13.35 -1.3 13.35 -0.8 13.95 M-1.9 15.9 L-1.85 15.35 Q-1.85 14.4 -2.25 14.45 -2.65 14.4 -2.65 15.35 -2.65 16.25 -2.2 16.25 L-1.9 15.9" fill="#ffffff" fill-rule="evenodd" stroke="none"/>
    </g>
    <g id="text0" transform="matrix(1.0, 0.0, 0.0, 1.0, 2.0, 2.0)">
      <g transform="matrix(1.0, 0.0, 0.0, 1.0, -2.0, -2.0)">
        <use fill="#ffffff" height="25.0" transform="matrix(0.0166, 0.0, 0.0, 0.0166, 14.8, 12.45)" width="41.0" xlink:href="#font_HelveticaRounded_LT_Std_Blk_00"/>
      </g>
    </g>
    <g id="font_HelveticaRounded_LT_Std_Blk_00">
      <path d="M40.0 -361.0 L40.0 -361.0 Q42.5 -160.0 125.5 -73.0 208.5 14.0 342.0 12.0 475.5 14.0 558.5 -73.0 641.5 -160.0 644.0 -361.0 643.5 -532.0 567.0 -629.0 490.0 -726.0 342.0 -728.0 194.0 -726.0 117.0 -629.0 40.5 -532.0 40.0 -361.0 L40.0 -361.0 M432.0 -358.0 L432.0 -358.0 Q432.0 -232.5 408.5 -188.5 385.5 -145.0 342.0 -148.0 298.5 -145.0 275.0 -188.5 252.0 -232.5 252.0 -358.0 248.0 -571.0 342.0 -568.0 435.5 -571.0 432.0 -358.0 L432.0 -358.0" fill-rule="evenodd" stroke="none"/>
    </g>
  </defs>
</svg>
