<?xml version="1.0" encoding="UTF-8" standalone="no"?>
<svg xmlns:xlink="http://www.w3.org/1999/xlink" height="51.65px" width="393.45px" xmlns="http://www.w3.org/2000/svg">
  <g transform="matrix(1.0, 0.0, 0.0, 1.0, 201.0, 80.55)">
    <path d="M-200.0 -28.9 L-201.0 -28.9 -201.0 -55.5 -200.85 -55.85 -200.5 -56.0 -200.5 -58.5 -180.25 -58.85 -177.3 -76.25 -176.75 -77.15 Q-176.35 -77.55 -175.75 -77.5 L-119.0 -74.5 -118.25 -74.25 -117.75 -73.65 -117.6 -72.85 -118.85 -57.8 -100.1 -56.7 -98.7 -75.55 -92.35 -80.55 -36.4 -76.35 -34.45 -65.5 0.65 -63.75 1.55 -63.35 2.05 -62.45 3.45 -53.8 23.8 -54.8 24.0 -54.8 39.0 -53.35 Q39.55 -53.3 39.95 -52.9 L40.35 -51.9 40.7 -45.05 72.25 -43.75 74.0 -44.1 74.05 -44.15 74.05 -51.9 Q74.05 -52.5 74.5 -52.95 74.95 -53.4 75.55 -53.4 L94.55 -53.55 94.65 -53.55 115.75 -52.55 115.3 -57.25 Q115.25 -57.9 115.65 -58.35 116.05 -58.85 116.65 -58.9 L134.25 -60.75 134.65 -60.7 162.15 -56.05 163.6 -55.95 164.55 -55.5 164.6 -55.45 165.8 -55.45 167.0 -44.6 174.6 -44.75 174.75 -44.75 180.8 -44.2 Q181.35 -44.15 181.7 -43.75 L191.05 -42.85 Q191.6 -42.8 192.0 -42.35 192.4 -41.9 192.4 -41.35 L192.45 -28.9 189.45 -28.9 189.45 -29.8 189.4 -39.95 174.45 -41.45 Q174.05 -41.5 173.75 -41.7 L165.65 -41.6 Q165.1 -41.6 164.65 -41.95 L164.5 -42.1 163.45 -42.05 126.55 -40.3 126.55 -28.9 85.5 -28.9 120.0 -31.45 120.15 -30.55 120.3 -31.15 Q120.5 -31.45 120.85 -31.5 L119.55 -39.95 119.25 -39.95 118.8 -40.2 Q118.6 -40.4 118.55 -40.65 L118.55 -40.7 117.4 -47.95 116.35 -47.95 116.15 -47.95 116.05 -49.1 116.0 -49.5 94.5 -50.55 84.6 -50.45 81.45 -50.45 77.05 -50.4 77.05 -42.15 77.05 -41.95 Q77.0 -41.35 76.55 -41.0 L76.35 -40.25 76.0 -29.6 75.7 -29.0 75.6 -28.9 63.25 -28.9 63.1 -30.15 63.2 -30.85 50.1 -30.85 Q49.75 -30.85 49.5 -31.1 L49.25 -31.5 63.6 -32.6 64.25 -32.35 64.5 -31.8 74.2 -34.65 74.4 -34.7 74.6 -39.95 Q73.7 -40.15 73.05 -40.7 L39.3 -42.1 38.6 -42.25 36.7 -41.4 Q33.9 -40.0 33.0 -37.5 L33.7 -34.4 33.55 -32.95 33.5 -32.75 33.55 -32.75 39.25 -32.4 39.4 -32.4 39.4 -32.35 39.4 -32.3 39.25 -32.1 38.6 -31.85 19.4 -31.85 19.3 -28.9 17.3 -28.9 16.9 -32.5 -2.95 -33.35 -2.95 -34.85 -33.5 -35.45 -33.5 -35.0 -48.5 -35.35 -49.5 -35.1 -50.15 -35.2 -50.4 -34.85 -50.25 -34.85 -50.35 -28.9 -52.95 -28.9 -52.6 -34.85 -77.45 -34.85 Q-77.8 -34.85 -78.05 -35.1 L-78.3 -35.75 -78.15 -36.25 -78.3 -36.85 -77.0 -49.05 -77.0 -49.1 -77.0 -49.2 -76.65 -52.4 -118.4 -54.75 -118.8 -54.3 -123.5 -50.55 Q-123.95 -50.25 -124.45 -50.25 L-124.6 -50.25 -124.75 -50.25 -124.55 -49.7 -125.4 -37.9 -104.7 -38.2 Q-104.1 -38.2 -103.65 -37.75 L-103.45 -37.55 Q-103.05 -38.0 -102.45 -38.0 -101.85 -38.0 -101.4 -37.55 L-101.15 -37.3 -91.35 -36.6 -91.0 -36.5 -100.95 -35.5 -100.95 -28.9 -103.95 -28.9 -103.95 -35.4 -104.65 -35.2 -125.2 -34.9 -125.25 -34.85 -160.75 -34.5 -161.5 -28.9 -164.55 -28.9 -163.6 -36.0 -179.5 -36.85 -180.1 -37.15 -180.3 -37.8 -180.3 -37.9 -173.9 -38.3 -171.5 -47.1 -172.1 -38.2 -161.4 -37.6 -161.0 -37.5 -127.15 -37.9 -126.3 -49.8 -126.0 -50.4 -125.55 -50.6 -125.65 -50.7 -125.8 -50.85 -132.45 -50.85 -133.05 -51.1 -133.3 -51.75 -125.8 -52.6 -125.65 -52.8 -125.05 -53.15 -121.85 -55.75 -122.0 -56.5 -120.7 -71.55 -123.85 -71.75 -164.2 -73.85 -174.6 -74.4 -177.5 -57.15 Q-177.6 -56.6 -178.0 -56.25 -178.45 -55.9 -178.95 -55.9 L-179.15 -55.9 -180.45 -52.6 -158.8 -51.15 -158.75 -51.15 -158.8 -51.1 Q-159.1 -50.85 -159.45 -50.85 L-179.2 -51.4 -179.2 -51.45 -183.65 -51.5 Q-183.9 -52.1 -183.7 -52.65 L-182.4 -55.8 -200.0 -55.5 -200.0 -28.9 M159.3 -28.9 L158.15 -28.9 158.65 -37.95 Q158.65 -38.3 158.95 -38.55 L159.0 -38.6 159.3 -28.9 M23.8 -51.8 L7.25 -50.95 6.85 -34.65 16.7 -34.45 16.75 -33.95 18.25 -33.55 18.55 -33.6 31.55 -32.85 31.2 -33.25 Q31.2 -34.9 31.35 -36.15 31.65 -39.5 32.9 -40.15 33.6 -40.5 36.15 -43.1 L37.75 -44.4 37.45 -50.45 23.8 -51.8 M134.45 -57.7 L134.4 -57.7 118.45 -56.05 119.2 -47.95 120.15 -41.75 164.05 -43.85 163.6 -47.95 162.75 -47.95 162.15 -53.0 161.95 -53.05 161.85 -53.05 161.8 -53.05 134.45 -57.7 M-90.4 -77.2 L-90.4 -59.75 -60.85 -58.9 -59.65 -68.8 -49.85 -68.8 -49.85 -68.65 -37.25 -68.05 -38.15 -74.6 -51.25 -75.3 -51.2 -75.55 -90.4 -77.2 M-1.4 -52.6 Q-1.05 -52.65 -0.75 -52.35 L-0.65 -52.25 0.65 -52.25 -0.7 -60.8 -50.25 -63.3 -48.9 -54.85 -28.0 -51.65 -27.95 -51.05 -28.8 -43.5 -3.9 -42.75 -3.55 -42.7 -3.15 -42.75 -2.25 -42.75 -2.25 -51.75 -2.0 -52.35 -1.4 -52.6 M-50.05 -28.9 L-50.1 -28.9 -50.2 -28.9 -50.2 -28.95 -50.05 -28.9 M-73.25 -36.6 L-49.4 -36.6 -49.4 -37.2 -33.35 -36.45 -33.3 -36.6 -32.3 -36.5 -31.25 -41.45 -31.55 -41.75 Q-31.95 -42.25 -31.9 -42.85 L-31.05 -50.5 -74.9 -52.3 -75.25 -49.0 -75.25 -48.9 -76.55 -36.7 -76.6 -36.6 -73.25 -36.6 M-2.95 -36.9 L-2.95 -41.0 -3.25 -41.0 -3.55 -41.1 -3.95 -41.0 -29.2 -41.8 -29.45 -41.5 -29.65 -41.35 -30.7 -36.9 -2.95 -36.9 M-22.05 -29.15 L-22.15 -29.25 -22.05 -29.25 -22.05 -29.15" fill="#a74014" fill-rule="evenodd" stroke="none"/>
    <path d="M-200.0 -28.9 L-200.0 -55.5 -182.4 -55.8 -183.7 -52.65 Q-183.9 -52.1 -183.65 -51.5 L-179.2 -51.45 -179.2 -51.4 -159.45 -50.85 Q-159.1 -50.85 -158.8 -51.1 L-158.75 -51.15 -158.8 -51.15 -180.45 -52.6 -179.15 -55.9 -178.95 -55.9 Q-178.45 -55.9 -178.0 -56.25 -177.6 -56.6 -177.5 -57.15 L-174.6 -74.4 -164.2 -73.85 -168.75 -55.55 -125.6 -55.0 -123.85 -71.75 -120.7 -71.55 -122.0 -56.5 -121.85 -55.75 -125.05 -53.15 -125.65 -52.8 -125.8 -52.6 -133.3 -51.75 -133.05 -51.1 -132.45 -50.85 -125.8 -50.85 -125.65 -50.7 -125.55 -50.6 -126.0 -50.4 -126.3 -49.8 -127.15 -37.9 -161.0 -37.5 -161.4 -37.6 -172.1 -38.2 -171.5 -47.1 -173.9 -38.3 -180.3 -37.9 -180.3 -37.8 -180.1 -37.15 -179.5 -36.85 -163.6 -36.0 -164.55 -28.9 -200.0 -28.9 M-100.95 -28.9 L-100.95 -35.5 -91.0 -36.5 -91.35 -36.6 -101.15 -37.3 -101.4 -37.55 Q-101.85 -38.0 -102.45 -38.0 -103.05 -38.0 -103.45 -37.55 L-103.65 -37.75 Q-104.1 -38.2 -104.7 -38.2 L-125.4 -37.9 -124.55 -49.7 -124.75 -50.25 -124.6 -50.25 -124.45 -50.25 Q-123.95 -50.25 -123.5 -50.55 L-118.8 -54.3 -118.4 -54.75 -76.65 -52.4 -77.0 -49.2 -77.0 -49.1 -77.0 -49.05 -78.3 -36.85 -78.15 -36.25 -78.3 -35.75 -78.05 -35.1 Q-77.8 -34.85 -77.45 -34.85 L-52.6 -34.85 -52.95 -28.9 -100.95 -28.9 M19.3 -28.9 L19.4 -31.85 38.6 -31.85 39.25 -32.1 39.4 -32.3 39.4 -32.35 39.4 -32.4 39.25 -32.4 33.55 -32.75 33.5 -32.75 33.55 -32.95 33.7 -34.4 33.0 -37.5 Q33.9 -40.0 36.7 -41.4 L38.6 -42.25 39.3 -42.1 73.05 -40.7 Q73.7 -40.15 74.6 -39.95 L74.4 -34.7 74.2 -34.65 64.5 -31.8 64.25 -32.35 63.6 -32.6 49.25 -31.5 49.5 -31.1 Q49.75 -30.85 50.1 -30.85 L63.2 -30.85 63.1 -30.15 63.25 -28.9 62.3 -28.9 62.15 -30.8 21.6 -30.8 21.6 -28.9 19.3 -28.9 M75.6 -28.9 L75.7 -29.0 76.0 -29.6 76.35 -40.25 76.55 -41.0 Q77.0 -41.35 77.05 -41.95 L77.05 -42.15 77.05 -50.4 81.45 -50.45 86.05 -31.1 118.15 -32.6 116.35 -47.95 117.4 -47.95 118.55 -40.7 118.55 -40.65 Q118.6 -40.4 118.8 -40.2 L119.25 -39.95 119.55 -39.95 120.85 -31.5 Q120.5 -31.45 120.3 -31.15 L120.15 -30.55 120.0 -31.45 85.5 -28.9 75.6 -28.9 M84.6 -50.45 L94.5 -50.55 116.0 -49.5 116.05 -49.1 84.6 -50.45 M126.55 -28.9 L126.55 -40.3 163.45 -42.05 161.7 -41.45 162.3 -28.9 159.3 -28.9 159.0 -38.6 158.95 -38.55 Q158.65 -38.3 158.65 -37.95 L158.15 -28.9 126.55 -28.9 M189.45 -29.8 L189.45 -28.9 188.0 -28.9 189.45 -29.8 M23.8 -51.8 L37.45 -50.45 37.75 -44.4 36.15 -43.1 Q33.6 -40.5 32.9 -40.15 31.65 -39.5 31.35 -36.15 31.2 -34.9 31.2 -33.25 L31.55 -32.85 18.55 -33.6 18.25 -33.55 16.75 -33.95 16.7 -34.45 6.85 -34.65 7.25 -50.95 23.8 -51.8 M161.85 -53.05 L161.95 -53.05 162.15 -53.0 162.75 -47.95 163.6 -47.95 164.05 -43.85 120.15 -41.75 119.2 -47.95 118.45 -56.05 134.4 -57.7 134.45 -57.7 134.75 -47.95 135.0 -47.95 135.05 -46.65 159.95 -45.85 160.2 -47.95 161.2 -47.95 161.85 -53.05 M-90.4 -77.2 L-51.2 -75.55 -51.25 -75.3 -38.15 -74.6 -37.25 -68.05 -49.85 -68.65 -49.85 -68.8 -59.65 -68.8 -60.85 -58.9 -90.4 -59.75 -90.4 -77.2 M-1.4 -52.6 L-2.0 -52.35 -2.25 -51.75 -2.25 -42.75 -3.15 -42.75 -3.55 -42.7 -3.9 -42.75 -28.8 -43.5 -27.95 -51.05 -28.0 -51.65 -48.9 -54.85 -50.25 -63.3 -0.7 -60.8 0.65 -52.25 -0.65 -52.25 -0.75 -52.35 Q-1.05 -52.65 -1.4 -52.6 M-73.25 -36.6 L-76.6 -36.6 -76.55 -36.7 -75.25 -48.9 -75.25 -49.0 -74.9 -52.3 -31.05 -50.5 -31.9 -42.85 Q-31.95 -42.25 -31.55 -41.75 L-31.25 -41.45 -32.3 -36.5 -33.3 -36.6 -32.1 -50.2 -71.15 -51.9 -73.25 -36.6 M-2.95 -36.9 L-30.7 -36.9 -29.65 -41.35 -29.45 -41.5 -29.2 -41.8 -3.95 -41.0 -3.55 -41.1 -3.25 -41.0 -2.95 -41.0 -2.95 -36.9" fill="#e45c23" fill-rule="evenodd" stroke="none"/>
    <path d="M-164.2 -73.85 L-123.85 -71.75 -125.6 -55.0 -168.75 -55.55 -164.2 -73.85 M81.45 -50.45 L84.6 -50.45 116.05 -49.1 116.15 -47.95 116.35 -47.95 118.15 -32.6 86.05 -31.1 81.45 -50.45 M163.45 -42.05 L164.5 -42.1 164.65 -41.95 Q165.1 -41.6 165.65 -41.6 L173.75 -41.7 Q174.05 -41.5 174.45 -41.45 L189.4 -39.95 189.45 -29.8 188.0 -28.9 162.3 -28.9 161.7 -41.45 163.45 -42.05 M21.6 -28.9 L21.6 -30.8 62.15 -30.8 62.3 -28.9 21.6 -28.9 M134.45 -57.7 L161.8 -53.05 161.85 -53.05 161.2 -47.95 160.2 -47.95 159.95 -45.85 135.05 -46.65 135.0 -47.95 134.75 -47.95 134.45 -57.7 M-33.3 -36.6 L-33.35 -36.45 -49.4 -37.2 -49.4 -36.6 -73.25 -36.6 -71.15 -51.9 -32.1 -50.2 -33.3 -36.6" fill="#fc8046" fill-rule="evenodd" stroke="none"/>
    <path d="M-161.5 -28.9 L-160.75 -34.5 -125.25 -34.85 -125.2 -34.9 -104.65 -35.2 -103.95 -35.4 -103.95 -28.9 -161.5 -28.9 M-50.35 -28.9 L-50.25 -34.85 -50.4 -34.85 -50.15 -35.2 -49.5 -35.1 -48.5 -35.35 -33.5 -35.0 -33.5 -35.45 -2.95 -34.85 -2.95 -33.35 16.9 -32.5 17.3 -28.9 11.3 -28.9 11.25 -28.9 -50.05 -28.9 -50.2 -28.95 -50.2 -28.9 -50.1 -28.9 -50.35 -28.9 M-22.05 -29.15 L-22.05 -29.25 -22.15 -29.25 -22.05 -29.15" fill="#551e11" fill-rule="evenodd" stroke="none"/>
    <path d="M-136.95 -28.9 L-137.15 -28.9 -136.95 -32.05 -136.95 -28.9 M10.95 -28.9 L10.7 -28.9 10.9 -32.75 10.95 -28.9" fill="#38140c" fill-rule="evenodd" stroke="none"/>
    <path d="M-110.95 -37.9 L-77.45 -37.9 -77.45 -31.4 -110.95 -31.4 -110.95 -37.9" fill="#a74014" fill-rule="evenodd" stroke="none"/>
  </g>
</svg>
