<?xml version="1.0" encoding="UTF-8" standalone="no"?>
<svg xmlns:xlink="http://www.w3.org/1999/xlink" height="149.1px" width="87.85px" xmlns="http://www.w3.org/2000/svg">
  <g transform="matrix(1.0, 0.0, 0.0, 1.0, 45.0, 88.85)">
    <path d="M36.5 -51.95 L38.75 -50.25 38.8 -50.2 38.8 -50.15 38.8 49.15 38.65 49.05 38.65 49.15 38.65 49.25 38.65 50.2 Q38.45 53.3 34.0 54.85 L33.2 55.6 30.25 55.75 29.9 55.8 30.05 55.75 Q5.5 56.85 -18.85 55.45 L-25.65 54.95 -34.6 53.5 Q-38.95 52.55 -41.0 48.45 L-41.0 48.35 -40.75 47.3 -40.75 -35.45 -40.8 -35.65 -40.55 -37.25 -39.7 -43.35 -35.75 -43.95 -38.0 49.0 -38.0 49.2 Q-18.75 53.75 0.5 53.8 18.0 53.8 35.45 50.0 L35.55 49.25 35.65 48.75 35.75 48.15 36.0 47.0 36.25 47.25 36.5 -51.95" fill="#3d7db8" fill-rule="evenodd" stroke="none"/>
    <path d="M38.8 -50.15 L38.85 -50.15 38.85 49.2 38.75 49.15 38.75 49.25 38.65 49.25 38.65 49.15 38.65 49.05 38.8 49.15 38.8 -50.15 M-16.25 -63.55 L-16.25 -77.15 -10.45 -71.65 -10.45 3.55 Q-10.5 11.8 -5.3 15.75 L35.95 47.05 35.95 47.0 36.0 47.0 35.75 48.15 Q7.65 38.65 -16.25 22.2 L-16.25 -63.55 M35.55 49.25 L35.45 50.0 Q18.0 53.8 0.5 53.8 -18.75 53.75 -38.0 49.2 L-38.0 49.0 -34.5 44.9 -34.35 44.95 Q-15.1 49.5 4.15 49.55 L17.3 49.05 Q26.3 49.55 35.55 49.25" fill="#cccccc" fill-rule="evenodd" stroke="none"/>
    <path d="M-32.05 -49.45 L-32.05 -50.15 -31.55 -50.0 -30.1 -49.55 -32.3 41.65 Q-13.2 47.2 5.65 48.05 L6.7 48.1 Q-11.35 46.0 -28.1 40.5 L-28.1 -55.6 -28.1 -58.85 -23.25 -57.05 -23.25 31.85 Q4.9 44.8 35.65 48.75 L35.55 49.25 Q26.3 49.55 17.3 49.05 L4.15 49.55 Q-15.1 49.5 -34.35 44.95 L-32.05 -49.45" fill="#dddddd" fill-rule="evenodd" stroke="none"/>
    <path d="M-35.75 -43.95 L-35.7 -45.95 -35.35 -45.8 -32.05 -49.45 -34.35 44.95 -34.5 44.9 -38.0 49.0 -35.75 -43.95" fill="#eaeaea" fill-rule="evenodd" stroke="none"/>
    <path d="M38.75 -50.25 L38.8 -50.25 38.8 -50.2 38.75 -50.25 M-30.1 -49.55 L-29.95 -56.35 -29.45 -56.15 -28.1 -55.6 -28.1 40.5 Q-11.35 46.0 6.7 48.1 L5.65 48.05 Q-13.2 47.2 -32.3 41.65 L-30.1 -49.55 M-23.25 -57.05 L-23.25 -67.5 Q-19.7 -65.4 -16.25 -63.55 L-16.25 22.2 Q7.65 38.65 35.75 48.15 L35.65 48.75 Q4.9 44.8 -23.25 31.85 L-23.25 -57.05" fill="#ffffff" fill-rule="evenodd" stroke="none"/>
    <path d="M-10.45 -71.65 L-10.45 -79.25 Q-10.5 -87.55 -5.3 -83.6 L33.6 -54.1 33.6 -54.15 36.5 -51.95 36.25 47.25 36.0 47.0 35.95 47.0 35.95 47.05 -5.3 15.75 Q-10.5 11.8 -10.45 3.55 L-10.45 -71.65" fill="#6fb9d7" fill-rule="evenodd" stroke="none"/>
    <path d="M-10.45 -71.65 L-10.45 -79.25 Q-10.5 -87.55 -5.3 -83.6 L33.6 -54.1 33.6 -54.15 36.5 -51.95 38.75 -50.25 M38.8 -50.15 L38.85 -50.15 38.85 49.2 38.75 49.15 38.75 49.25 38.65 49.25 38.65 50.2 Q38.45 53.3 34.0 54.85 L33.2 55.6 30.25 55.75 29.9 55.8 30.05 55.75 Q5.5 56.85 -18.85 55.45 L-25.65 54.95 -34.6 53.5 Q-38.95 52.55 -41.0 48.45 L-41.0 48.35 -40.75 47.3 -40.75 -35.45 -40.8 -35.65 -40.55 -37.25 -39.7 -43.35 -35.75 -43.95 -35.7 -45.95 -35.35 -45.8 -32.05 -49.45 -32.05 -50.15 -31.55 -50.0 -30.1 -49.55 -29.95 -56.35 -29.45 -56.15 -28.1 -55.6 -28.1 -58.85 -23.25 -57.05 -23.25 -67.5 Q-19.7 -65.4 -16.25 -63.55 L-16.25 -77.15 -10.45 -71.65 -10.45 3.55 Q-10.5 11.8 -5.3 15.75 L35.95 47.05 35.95 47.0 36.0 47.0" fill="none" stroke="#1b2e54" stroke-linecap="round" stroke-linejoin="round" stroke-width="8.0"/>
  </g>
</svg>
