<?xml version="1.0" encoding="UTF-8" standalone="no"?>
<svg xmlns:xlink="http://www.w3.org/1999/xlink" height="77.3px" width="32.8px" xmlns="http://www.w3.org/2000/svg">
  <g transform="matrix(1.0, 0.0, 0.0, 1.0, 15.2, 6.15)">
    <path d="M1.85 -1.95 L8.55 -0.7 13.6 10.5 1.05 51.8 -4.05 51.75 -11.2 8.05 -2.65 -2.15 1.85 -1.95" fill="#f8350f" fill-rule="evenodd" stroke="none"/>
    <path d="M1.85 -1.95 L-2.65 -2.15 -11.2 8.05 -4.05 51.75 1.05 51.8 13.6 10.5 8.55 -0.7 1.85 -1.95 Z" fill="none" stroke="#f8350f" stroke-linecap="round" stroke-linejoin="round" stroke-width="8.0"/>
    <path d="M-9.3 58.25 L6.55 56.35 7.15 67.15 -8.45 65.15 -9.3 58.25" fill="#f8350f" fill-rule="evenodd" stroke="none"/>
    <path d="M-9.3 58.25 L-8.45 65.15 7.15 67.15 6.55 56.35 -9.3 58.25 Z" fill="none" stroke="#f8350f" stroke-linecap="round" stroke-linejoin="round" stroke-width="8.0"/>
    <path d="M1.85 -1.95 L8.55 -0.7 13.6 10.5 1.05 51.8 -4.05 51.75 -11.2 8.05 -2.65 -2.15 1.85 -1.95" fill="#000000" fill-rule="evenodd" stroke="none"/>
    <path d="M1.85 -1.95 L-2.65 -2.15 -11.2 8.05 -4.05 51.75 1.05 51.8 13.6 10.5 8.55 -0.7 1.85 -1.95 Z" fill="none" stroke="#000000" stroke-linecap="round" stroke-linejoin="round" stroke-width="3.0"/>
    <path d="M-9.3 58.25 L6.55 56.35 7.15 67.15 -8.45 65.15 -9.3 58.25" fill="#000000" fill-rule="evenodd" stroke="none"/>
    <path d="M-9.3 58.25 L-8.45 65.15 7.15 67.15 6.55 56.35 -9.3 58.25 Z" fill="none" stroke="#000000" stroke-linecap="round" stroke-linejoin="round" stroke-width="3.0"/>
    <path d="M8.4 -0.7 L8.55 -0.7 13.2 9.7 11.95 9.25 7.1 0.6 8.4 -0.7 M1.0 51.8 L-4.05 51.75 -11.15 8.3 -6.65 9.4 -2.45 49.45 -2.45 49.55 0.05 49.7 0.25 50.15 1.0 51.8" fill="#d8901f" fill-rule="evenodd" stroke="none"/>
    <path d="M-11.15 8.3 L-11.2 8.05 -2.65 -2.15 1.85 -1.95 8.4 -0.7 7.1 0.6 -1.35 -0.5 -6.3 8.35 -6.65 9.4 -11.15 8.3 M13.2 9.7 L13.6 10.5 1.05 51.8 1.0 51.8 0.25 50.15 11.95 9.25 13.2 9.7" fill="#f6f8b1" fill-rule="evenodd" stroke="none"/>
    <path d="M-6.65 9.4 L-6.3 8.35 -1.35 -0.5 7.1 0.6 11.95 9.25 0.25 50.15 0.05 49.7 -2.45 49.55 -2.45 49.45 -6.65 9.4" fill="#f7f619" fill-rule="evenodd" stroke="none"/>
    <path d="M6.7 67.05 L-8.45 65.15 -9.3 58.25 -8.85 58.2 -7.1 60.2 -6.55 60.85 -6.5 62.85 3.4 63.2 3.55 63.45 6.7 67.05" fill="#d8901f" fill-rule="evenodd" stroke="none"/>
    <path d="M-8.85 58.2 L6.55 56.35 7.15 67.15 6.7 67.05 3.55 63.45 4.3 58.3 -7.1 60.2 -8.85 58.2" fill="#f6f8b1" fill-rule="evenodd" stroke="none"/>
    <path d="M3.55 63.45 L3.4 63.2 -6.5 62.85 -6.55 60.85 -7.1 60.2 4.3 58.3 3.55 63.45" fill="#f7f619" fill-rule="evenodd" stroke="none"/>
  </g>
</svg>
