<?xml version="1.0" encoding="UTF-8" standalone="no"?>
<svg xmlns:xlink="http://www.w3.org/1999/xlink" height="203.95px" width="363.5px" xmlns="http://www.w3.org/2000/svg">
  <g transform="matrix(1.0, 0.0, 0.0, 1.0, 51.85, 38.2)">
    <path d="M172.2 125.5 Q160.05 131.0 147.5 135.45 136.9 139.15 126.0 142.1 89.4 151.8 52.0 157.25 15.75 162.75 -20.7 165.75 L-20.85 164.85 Q1.55 162.15 34.3 156.8 71.7 151.7 108.3 142.55 119.85 139.6 131.1 135.85 146.8 132.45 162.35 128.35 L172.2 125.5" fill="#ffffff" fill-opacity="0.5019608" fill-rule="evenodd" stroke="none"/>
    <path d="M74.05 -9.05 Q109.15 -16.75 145.15 -16.55 179.45 -16.35 212.9 -9.45 236.0 -4.85 252.3 11.55 257.35 16.65 258.25 23.65 260.8 42.95 250.7 60.05 235.5 85.9 211.85 103.3 198.15 110.35 183.85 116.05 172.2 120.7 160.2 124.45 169.45 120.25 178.45 115.5 213.05 97.25 233.0 65.35 243.1 49.2 240.55 31.05 239.65 24.45 234.6 19.7 218.3 4.25 195.2 -0.1 161.75 -6.6 127.45 -6.75 90.55 -6.95 54.55 0.65 34.25 5.05 14.75 11.6 8.0 13.85 1.4 16.35 L1.2 15.8 Q7.9 12.65 14.75 9.85 29.3 3.7 44.4 -1.05 40.95 0.45 37.55 2.05 L37.75 2.6 Q44.35 0.1 51.1 -2.15 62.4 -5.95 74.05 -9.05" fill="#ffffff" fill-opacity="0.3019608" fill-rule="evenodd" stroke="none"/>
    <path d="M67.4 -12.1 Q54.55 -8.3 42.0 -3.6 L27.25 2.2 27.05 1.55 34.6 -2.25 42.0 -5.8 Q72.85 -20.15 105.6 -28.5 145.35 -38.45 186.15 -38.2 224.05 -37.95 261.05 -29.45 286.6 -23.8 304.6 -3.65 310.2 2.55 311.2 11.15 314.0 34.85 300.25 72.5 294.15 89.2 284.45 102.45 277.7 111.6 269.25 119.15 257.6 113.1 245.25 108.35 L252.85 101.6 Q270.7 84.7 283.3 62.35 294.45 42.55 291.65 20.25 290.65 12.2 285.05 6.3 267.0 -12.65 241.5 -18.0 204.5 -25.95 166.6 -26.2 125.8 -26.45 86.0 -17.1 76.6 -14.85 67.4 -12.1" fill="#ffffff" fill-opacity="0.15294118" fill-rule="evenodd" stroke="none"/>
    <path d="M18.35 -21.4 Q21.25 -22.4 23.65 -20.75 25.8 -19.2 26.45 -16.7 L29.05 -18.9 Q33.9 -21.3 37.25 -16.4 38.8 -14.15 38.4 -12.25 L37.9 -10.3 37.7 -9.85 37.5 -9.6 37.45 -10.65 Q38.15 -12.3 35.2 -15.6 29.4 -17.6 27.9 -14.3 L26.15 -10.35 26.55 -15.25 Q23.15 -20.4 17.1 -19.05 14.75 -18.6 14.05 -16.3 13.35 -13.8 13.45 -11.4 11.3 -18.8 18.35 -21.4 M13.75 -6.75 L12.2 -4.65 Q11.8 0.3 14.9 4.35 16.45 6.3 18.95 6.05 20.8 5.75 21.95 3.9 L23.75 1.25 Q25.65 5.55 29.3 8.1 30.6 9.05 32.3 8.7 37.6 8.0 37.35 2.35 L37.35 -0.25 37.75 0.05 38.55 3.25 Q41.95 5.1 44.75 2.4 47.5 -0.3 46.15 -3.4 44.8 -6.5 43.8 -6.75 L40.95 -7.15 Q44.15 -9.5 46.75 -6.95 50.75 -3.0 48.5 2.15 46.85 5.85 42.9 6.5 40.5 6.65 38.4 5.4 37.9 8.5 34.9 9.35 29.35 11.05 24.85 7.35 24.3 6.85 24.15 6.05 22.2 8.4 19.15 9.05 17.45 9.45 15.75 8.65 9.4 5.45 10.55 -1.95 10.95 -4.55 13.05 -6.4 L13.75 -6.75 M39.35 -15.65 L39.45 -16.2 Q40.4 -20.9 45.1 -22.0 50.0 -23.0 53.3 -19.05 55.05 -16.4 53.6 -13.4 52.15 -10.45 49.25 -9.0 51.55 -10.3 51.75 -12.6 52.15 -17.05 48.25 -18.75 44.65 -20.35 41.4 -18.2 39.85 -17.2 39.35 -15.65 M42.65 39.0 Q42.35 45.5 36.75 47.8 L35.8 47.95 30.75 47.55 36.45 46.85 Q40.55 43.3 38.75 38.9 38.25 37.7 36.95 37.4 L32.9 37.15 Q38.45 34.25 42.1 37.95 42.5 38.3 42.65 39.0 M14.65 23.15 Q16.45 21.9 18.4 21.25 25.75 18.75 29.35 26.55 26.6 23.8 23.25 22.8 21.35 21.55 19.2 22.3 15.5 23.4 12.4 25.5 13.3 24.05 14.65 23.15 M14.45 32.25 Q6.65 23.85 -2.95 28.85 -5.1 29.95 -6.45 31.9 -8.2 34.6 -9.3 37.7 L-9.9 35.4 Q-16.05 44.6 -8.85 51.9 L-10.1 51.55 Q-10.3 55.2 -8.5 57.35 L-7.7 58.2 -5.35 58.65 Q-2.65 58.65 -0.9 57.35 L1.8 53.0 Q3.85 55.95 7.3 55.95 14.15 55.95 16.3 49.05 17.35 52.25 14.65 56.8 11.9 61.3 3.75 57.25 L-2.65 60.15 Q-10.65 61.25 -11.05 52.7 L-11.0 51.2 Q-18.45 46.2 -14.7 39.05 -13.95 37.65 -12.7 36.65 -11.5 35.75 -10.15 35.0 -9.4 25.7 -1.2 23.5 2.75 22.35 6.55 23.8 11.3 25.8 13.6 29.95 L14.45 32.25 M18.3 53.95 Q24.7 55.65 28.65 51.3 29.15 50.8 29.3 50.0 L29.75 47.55 29.6 50.55 Q27.45 58.15 20.1 54.85 L18.3 53.95 M-15.7 4.95 Q-12.9 6.5 -12.6 11.25 -12.95 9.1 -14.4 7.9 -15.85 6.7 -18.1 6.6 -20.35 6.5 -21.45 7.5 -22.6 8.45 -22.25 11.4 -21.4 15.6 -19.3 15.9 L-16.55 16.15 -15.2 15.45 Q-15.8 16.7 -17.15 16.9 -18.3 17.25 -20.85 16.1 -23.4 14.95 -24.05 12.45 -24.75 9.9 -24.25 7.4 -23.8 4.9 -19.3 3.9 -17.4 4.1 -15.7 4.95 M-23.45 24.5 Q-21.45 26.75 -21.45 29.45 -21.45 32.3 -24.7 34.9 -27.95 37.45 -30.25 36.45 -28.95 39.55 -31.35 42.75 -33.8 46.05 -37.65 46.05 -42.35 46.05 -45.45 42.5 -48.25 39.3 -48.25 35.45 -48.25 33.0 -47.25 31.9 -48.4 31.35 -49.35 30.6 -51.85 28.6 -51.85 25.65 -51.85 23.75 -49.45 21.65 -47.1 19.6 -45.25 19.6 -44.1 19.6 -42.3 20.45 L-41.25 20.85 Q-47.05 20.95 -47.05 26.05 -47.05 27.65 -41.85 32.85 L-43.85 32.85 -45.45 32.5 -46.25 33.85 Q-46.25 36.55 -43.85 38.85 -41.4 41.25 -38.45 41.25 -35.15 41.25 -32.95 39.85 -29.95 37.95 -32.25 34.45 L-32.25 34.05 -28.85 34.85 Q-26.5 34.85 -25.05 32.45 -23.85 30.4 -23.85 28.05 -23.85 22.85 -29.45 22.85 L-32.25 23.65 -28.65 22.05 Q-25.6 22.05 -23.45 24.5" fill="#ffffff" fill-opacity="0.8" fill-rule="evenodd" stroke="none"/>
  </g>
</svg>
