<?xml version="1.0" encoding="UTF-8" standalone="no"?>
<svg xmlns:xlink="http://www.w3.org/1999/xlink" height="50.6px" width="117.5px" xmlns="http://www.w3.org/2000/svg">
  <g transform="matrix(1.0, 0.0, 0.0, 1.0, 78.15, 18.8)">
    <path d="M-75.95 -5.05 Q-75.1 -0.85 -73.0 -0.55 L-70.25 -0.3 Q-69.55 -0.6 -68.9 -1.0 -69.5 0.25 -70.85 0.45 -72.0 0.8 -74.55 -0.35 -77.1 -1.5 -77.75 -4.0 -78.45 -6.55 -77.95 -9.05 -77.5 -11.55 -73.0 -12.55 -71.1 -12.35 -69.4 -11.5 -66.6 -9.95 -66.3 -5.2 -66.65 -7.35 -68.1 -8.55 -69.55 -9.75 -71.8 -9.85 -74.05 -9.95 -75.15 -8.95 -76.3 -8.0 -75.95 -5.05 M13.05 -9.05 L17.2 -15.9 Q18.25 -17.9 20.7 -18.45 26.4 -19.95 29.35 -14.65 L35.5 -14.35 Q38.35 -13.4 39.25 -8.4 40.15 -3.4 32.4 -0.6 L34.15 -2.0 Q42.1 -9.35 31.9 -14.0 L29.9 -13.3 Q30.65 -12.2 30.55 -10.0 30.45 -8.15 28.8 -5.65 30.9 -9.1 28.1 -12.4 21.8 -19.85 13.05 -9.05 M-21.65 -5.0 Q-16.25 -5.2 -12.95 -2.0 -10.85 0.0 -10.85 1.9 L-7.75 0.9 Q-3.65 0.0 -1.1 2.45 0.5 4.0 0.8 8.15 1.05 12.3 -0.1 13.85 -1.25 15.4 -3.65 17.2 -6.1 19.05 -2.9 15.0 -0.25 10.95 -2.25 5.85 -4.3 0.75 -16.85 6.55 L-14.95 4.55 -13.1 3.2 -13.5 1.3 Q-15.8 -0.9 -20.85 -1.5 -25.95 -2.15 -29.0 0.85 -32.05 3.85 -32.35 9.05 -32.7 14.25 -27.45 14.8 L-27.15 15.15 Q-30.15 16.85 -31.1 17.9 -33.35 20.25 -32.7 23.65 -32.1 26.55 -30.1 28.45 -25.8 32.55 -20.15 28.35 L-20.65 28.9 Q-23.5 31.65 -27.45 31.8 -31.3 31.9 -33.6 29.7 -36.05 27.35 -35.1 22.0 -34.2 16.65 -31.1 15.15 -35.0 13.9 -35.45 8.9 -35.9 3.75 -32.2 -0.1 -27.7 -4.8 -21.65 -5.0" fill="#ffffff" fill-opacity="0.6" fill-rule="evenodd" stroke="none"/>
  </g>
</svg>
