<?xml version="1.0" encoding="UTF-8" standalone="no"?>
<svg xmlns:xlink="http://www.w3.org/1999/xlink" height="206.85px" width="18.1px" xmlns="http://www.w3.org/2000/svg">
  <g transform="matrix(1.0, 0.0, 0.0, 1.0, 9.0, 23.0)">
    <path d="M2.85 -13.1 L2.85 176.85 -2.15 176.85 -2.15 -13.1 2.85 -13.1" fill="#626262" fill-rule="evenodd" stroke="none"/>
    <path d="M0.45 -5.0 Q-2.1 -4.9 -4.15 -6.0 -6.25 -7.1 -7.55 -9.05 -8.85 -11.0 -9.0 -13.55 -9.15 -16.05 -8.05 -18.15 -6.95 -20.25 -5.0 -21.5 -3.05 -22.85 -0.5 -23.0 2.0 -23.1 4.1 -22.0 6.15 -20.9 7.5 -18.95 8.8 -17.0 9.0 -14.5 9.05 -12.0 7.95 -9.9 6.85 -7.8 4.9 -6.5 2.95 -5.2 0.45 -5.0" fill="#999999" fill-rule="evenodd" stroke="none"/>
    <path d="M7.0 169.2 Q8.55 171.0 9.0 173.45 9.35 175.9 8.5 178.1 7.65 180.25 5.85 181.8 4.0 183.3 1.55 183.75 -0.95 184.1 -3.15 183.25 -5.4 182.4 -6.9 180.65 -8.45 178.85 -8.85 176.4 -9.25 173.9 -8.35 171.75 -7.55 169.55 -5.7 168.05 -3.9 166.55 -1.45 166.1 1.05 165.75 3.25 166.6 5.45 167.4 7.0 169.2" fill="#999999" fill-rule="evenodd" stroke="none"/>
  </g>
</svg>
