<?xml version="1.0" encoding="UTF-8" standalone="no"?>
<svg xmlns:xlink="http://www.w3.org/1999/xlink" height="126.7px" width="123.65px" xmlns="http://www.w3.org/2000/svg">
  <g transform="matrix(1.0, 0.0, 0.0, 1.0, 61.85, 75.8)">
    <path d="M50.95 -74.95 Q60.95 -74.95 60.95 -64.95 L60.95 40.05 Q60.95 50.05 50.95 50.05 L-51.0 50.05 Q-61.0 50.05 -61.0 40.05 L-61.0 -64.95 Q-61.0 -74.95 -51.0 -74.95 L50.95 -74.95" fill="#ffffff" fill-rule="evenodd" stroke="none"/>
    <path d="M50.95 -74.95 L-51.0 -74.95 Q-61.0 -74.95 -61.0 -64.95 L-61.0 40.05 Q-61.0 50.05 -51.0 50.05 L50.95 50.05 Q60.95 50.05 60.95 40.05 L60.95 -64.95 Q60.95 -74.95 50.95 -74.95 Z" fill="none" stroke="#000000" stroke-linecap="round" stroke-linejoin="round" stroke-opacity="0.17254902" stroke-width="1.75"/>
    <path d="M46.45 -67.95 Q53.45 -67.95 53.45 -60.95 L53.45 35.05 Q53.45 42.05 46.45 42.05 L-46.5 42.05 Q-53.5 42.05 -53.5 35.05 L-53.5 -60.95 Q-53.5 -67.95 -46.5 -67.95 L46.45 -67.95" fill="#ffcc00" fill-rule="evenodd" stroke="none"/>
  </g>
</svg>
