<?xml version="1.0" encoding="UTF-8" standalone="no"?>
<svg xmlns:xlink="http://www.w3.org/1999/xlink" height="61.45px" width="73.75px" xmlns="http://www.w3.org/2000/svg">
  <g transform="matrix(1.0, 0.0, 0.0, 1.0, 36.85, 30.25)">
    <path d="M23.75 -28.15 L24.2 -28.0 24.5 -27.85 Q30.85 -25.45 33.95 -19.55 L33.9 -19.6 Q37.25 -13.45 35.0 -7.2 L34.95 -6.95 Q32.6 -0.65 26.05 2.05 L26.05 2.1 22.05 3.15 Q22.5 5.35 22.55 7.85 L22.55 7.9 Q22.5 17.05 16.05 23.6 L15.7 23.9 Q9.25 30.15 0.3 30.2 L0.25 30.2 Q-9.05 30.15 -15.55 23.65 -21.4 17.8 -22.05 10.0 L-22.05 9.8 -22.1 7.85 Q-22.1 5.4 -21.6 3.15 -23.8 2.9 -25.95 2.1 L-26.1 2.0 -26.15 2.0 -26.2 1.95 Q-28.3 1.0 -29.9 -0.2 -33.25 -2.8 -34.75 -6.7 L-34.9 -7.0 Q-37.25 -13.35 -33.85 -19.6 L-33.85 -19.55 Q-30.8 -25.6 -24.05 -28.0 L-24.1 -28.0 Q-19.0 -29.95 -14.05 -28.85 L-12.4 -28.35 -11.15 -27.95 -10.75 -27.75 Q-4.45 -25.15 -2.2 -18.9 L-2.2 -18.8 -2.15 -18.8 Q-1.45 -16.6 -1.3 -14.4 L0.1 -14.45 0.2 -14.45 0.3 -14.45 1.35 -14.45 Q1.45 -16.7 2.3 -18.95 L2.3 -18.9 Q4.55 -25.3 11.2 -27.85 L11.25 -27.85 Q17.0 -30.2 23.15 -28.3 L23.75 -28.15 M-1.65 -12.4 L-1.8 -14.35 -1.75 -14.35 -1.85 -14.35 -1.8 -12.4 -1.75 -12.4 -1.8 -12.35 -1.65 -12.4" fill="#000000" fill-rule="evenodd" stroke="none"/>
    <path d="M23.75 -28.15 L23.15 -28.3 Q17.0 -30.2 11.25 -27.85 L11.2 -27.85 Q4.55 -25.3 2.3 -18.9 L2.3 -18.95 Q1.45 -16.7 1.35 -14.45 L0.3 -14.45 0.2 -14.45 0.1 -14.45 -1.3 -14.4 Q-1.45 -16.6 -2.15 -18.8 L-2.2 -18.8 -2.2 -18.9 Q-4.45 -25.15 -10.75 -27.75 L-11.15 -27.95 -12.4 -28.35 -14.05 -28.85 Q-19.0 -29.95 -24.1 -28.0 L-24.05 -28.0 Q-30.8 -25.6 -33.85 -19.55 L-33.85 -19.6 Q-37.25 -13.35 -34.9 -7.0 L-34.75 -6.7 Q-33.25 -2.8 -29.9 -0.2 -28.3 1.0 -26.2 1.95 L-26.15 2.0 -26.1 2.0 -25.95 2.1 Q-23.8 2.9 -21.6 3.15 -22.1 5.4 -22.1 7.85 L-22.05 9.8 -22.05 10.0 Q-21.4 17.8 -15.55 23.65 -9.05 30.15 0.25 30.2 L0.3 30.2 Q9.25 30.15 15.7 23.9 L16.05 23.6 Q22.5 17.05 22.55 7.9 L22.55 7.85 Q22.5 5.35 22.05 3.15 L26.05 2.1 26.05 2.05 Q32.6 -0.65 34.95 -6.95 L35.0 -7.2 Q37.25 -13.45 33.9 -19.6 L33.95 -19.55 Q30.85 -25.45 24.5 -27.85 L24.2 -28.0 23.75 -28.15 Z" fill="none" stroke="#000000" stroke-linecap="round" stroke-linejoin="round" stroke-opacity="0.2509804" stroke-width="2.0"/>
    <path d="M-1.8 -14.85 L-1.75 -14.85 -1.85 -14.85 -1.8 -12.9 -1.75 -12.9 -1.8 -12.85 -1.65 -12.9 -1.8 -14.85 M23.75 -28.65 L24.2 -28.5 24.5 -28.35 Q30.85 -25.95 33.95 -20.05 L33.9 -20.1 Q37.25 -13.95 35.0 -7.7 L34.95 -7.45 Q32.6 -1.15 26.05 1.55 L26.05 1.6 22.05 2.65 Q22.5 4.85 22.55 7.35 L22.55 7.4 Q22.5 16.55 16.05 23.1 L15.7 23.4 Q9.25 29.65 0.3 29.7 L0.25 29.7 Q-9.05 29.65 -15.55 23.15 -21.4 17.3 -22.05 9.5 L-22.05 9.3 -22.1 7.35 Q-22.1 4.9 -21.6 2.65 -23.8 2.4 -25.95 1.6 L-26.1 1.5 -26.15 1.5 -26.2 1.45 Q-28.3 0.5 -29.9 -0.7 -33.25 -3.3 -34.75 -7.2 L-34.9 -7.5 Q-37.25 -13.85 -33.85 -20.1 L-33.85 -20.05 Q-30.8 -26.1 -24.05 -28.5 L-24.1 -28.5 Q-19.0 -30.45 -14.05 -29.35 L-12.4 -28.85 -11.15 -28.45 -10.75 -28.25 Q-4.45 -25.65 -2.2 -19.4 L-2.2 -19.3 -2.15 -19.3 Q-1.45 -17.1 -1.3 -14.9 L0.1 -14.95 0.2 -14.95 0.3 -14.95 1.35 -14.95 Q1.45 -17.2 2.3 -19.45 L2.3 -19.4 Q4.55 -25.8 11.2 -28.35 L11.25 -28.35 Q17.0 -30.7 23.15 -28.8 L23.75 -28.65" fill="#ff9900" fill-rule="evenodd" stroke="none"/>
    <path d="M1.75 -10.4 Q4.6 -10.2 7.15 -9.15 4.9 -13.5 6.5 -17.9 8.15 -22.4 12.85 -24.2 17.3 -26.0 22.05 -24.5 L22.55 -24.3 Q27.55 -22.45 29.95 -18.0 32.35 -13.55 30.7 -9.05 29.0 -4.55 24.35 -2.65 19.9 -0.9 15.15 -2.45 18.0 1.85 18.05 7.35 18.0 14.7 12.8 19.9 7.6 25.15 0.25 25.2 -7.15 25.15 -12.4 19.9 -17.0 15.3 -17.55 9.05 L-17.6 7.35 Q-17.6 5.2 -17.15 3.25 L-16.9 2.15 Q-16.15 -0.4 -14.6 -2.65 L-15.8 -2.25 Q-20.2 -1.05 -24.35 -2.65 -25.95 -3.35 -27.2 -4.3 -29.6 -6.15 -30.7 -9.05 -32.3 -13.55 -29.9 -18.0 -27.55 -22.5 -22.55 -24.3 -18.55 -25.8 -14.7 -24.85 L-14.65 -24.8 -12.8 -24.25 Q-8.1 -22.4 -6.45 -17.9 -5.05 -13.95 -6.7 -9.95 L-7.2 -8.9 Q-4.55 -10.15 -1.55 -10.4 L0.25 -10.45 1.75 -10.4" fill="#000000" fill-rule="evenodd" stroke="none"/>
    <path d="M1.75 -10.4 Q4.6 -10.2 7.15 -9.15 4.9 -13.5 6.5 -17.9 8.15 -22.4 12.85 -24.2 17.3 -26.0 22.05 -24.5 L22.55 -24.3 Q27.55 -22.45 29.95 -18.0 32.35 -13.55 30.7 -9.05 29.0 -4.55 24.35 -2.65 19.9 -0.9 15.15 -2.45 18.0 1.85 18.05 7.35 18.0 14.7 12.8 19.9 7.6 25.15 0.25 25.2 -7.15 25.15 -12.4 19.9 -17.0 15.3 -17.55 9.05 L-17.6 7.35 Q-17.6 5.2 -17.15 3.25 L-16.9 2.15 Q-16.15 -0.4 -14.6 -2.65 L-15.8 -2.25 Q-20.2 -1.05 -24.35 -2.65 -25.95 -3.35 -27.2 -4.3 -29.6 -6.15 -30.7 -9.05 -32.3 -13.55 -29.9 -18.0 -27.55 -22.5 -22.55 -24.3 -18.55 -25.8 -14.7 -24.85 L-14.65 -24.8 -12.8 -24.25 Q-8.1 -22.4 -6.45 -17.9 -5.05 -13.95 -6.7 -9.95 L-7.2 -8.9 Q-4.55 -10.15 -1.55 -10.4 L0.25 -10.45 1.75 -10.4 Z" fill="none" stroke="#ffffff" stroke-linecap="round" stroke-linejoin="round" stroke-width="5.0"/>
    <path d="M1.75 -10.4 Q4.6 -10.2 7.15 -9.15 4.9 -13.5 6.5 -17.9 8.15 -22.4 12.85 -24.2 17.3 -26.0 22.05 -24.5 L22.55 -24.3 Q27.55 -22.45 29.95 -18.0 32.35 -13.55 30.7 -9.05 29.0 -4.55 24.35 -2.65 19.9 -0.9 15.15 -2.45 18.0 1.85 18.05 7.35 18.0 14.7 12.8 19.9 7.6 25.15 0.25 25.2 -7.15 25.15 -12.4 19.9 -17.0 15.3 -17.55 9.05 L-17.6 7.35 Q-17.6 5.2 -17.15 3.25 L-16.9 2.15 Q-16.15 -0.4 -14.6 -2.65 L-15.8 -2.25 Q-20.2 -1.05 -24.35 -2.65 -25.95 -3.35 -27.2 -4.3 -29.6 -6.15 -30.7 -9.05 -32.3 -13.55 -29.9 -18.0 -27.55 -22.5 -22.55 -24.3 -18.55 -25.8 -14.7 -24.85 L-14.65 -24.8 -12.8 -24.25 Q-8.1 -22.4 -6.45 -17.9 -5.05 -13.95 -6.7 -9.95 L-7.2 -8.9 Q-4.55 -10.15 -1.55 -10.4 L0.25 -10.45 1.75 -10.4" fill="#ff6600" fill-rule="evenodd" stroke="none"/>
  </g>
</svg>
