<?xml version="1.0" encoding="UTF-8" standalone="no"?>
<svg xmlns:xlink="http://www.w3.org/1999/xlink" height="311.15px" width="206.45px" xmlns="http://www.w3.org/2000/svg">
  <g transform="matrix(1.0, 0.0, 0.0, 1.0, 102.95, 152.5)">
    <path d="M-11.75 -150.6 L-6.1 -146.25 Q-4.4 -109.9 1.1 -62.45 L13.5 45.8 15.0 59.15 20.25 109.2 Q22.6 133.3 24.4 155.15 21.15 156.75 18.2 157.35 L-11.75 -150.6" fill="#b74b04" fill-rule="evenodd" stroke="none"/>
    <path d="M18.2 157.35 Q10.7 158.75 4.8 153.3 L-0.6 116.5 -1.3 111.7 -1.65 109.2 -2.55 102.75 -3.9 93.1 -8.45 59.15 -13.15 21.9 Q-18.2 -19.65 -24.45 -65.3 L-32.9 -124.5 -33.7 -129.85 -34.85 -137.45 -36.1 -145.9 -30.45 -149.25 Q-27.85 -150.7 -22.7 -151.1 L-12.9 -151.5 -11.75 -150.6 18.2 157.35" fill="#cc6005" fill-rule="evenodd" stroke="none"/>
    <path d="M18.2 157.35 Q10.7 158.75 4.8 153.3 L-0.6 116.5 -1.3 111.7 -1.65 109.2 -2.55 102.75 -3.9 93.1 -8.45 59.15 -13.15 21.9 Q-18.2 -19.65 -24.45 -65.3 L-32.9 -124.5 -33.7 -129.85 -34.85 -137.45 -36.1 -145.9 -30.45 -149.25 Q-27.85 -150.7 -22.7 -151.1 L-12.9 -151.5 -11.75 -150.6 -6.1 -146.25 Q-4.4 -109.9 1.1 -62.45 L13.5 45.8 15.0 59.15 20.25 109.2 Q22.6 133.3 24.4 155.15 21.15 156.75 18.2 157.35 Z" fill="none" stroke="#a73e00" stroke-linecap="round" stroke-linejoin="round" stroke-width="2.0"/>
    <path d="M-91.0 101.8 L-95.15 91.75 -67.85 81.3 Q-57.6 78.3 -47.0 76.1 L-36.35 74.45 -34.2 74.25 -28.2 73.75 -25.4 73.65 -22.65 73.6 Q-14.25 73.45 -6.05 73.75 L18.6 75.2 23.1 75.6 30.35 76.4 70.1 80.55 90.0 82.3 90.05 82.3 90.0 82.5 89.7 83.3 88.05 91.85 87.75 93.15 87.5 96.1 71.55 94.9 42.75 92.85 30.35 92.2 19.65 91.8 Q2.0 91.2 -4.75 91.2 L-34.2 92.3 -49.3 93.95 Q-68.25 96.65 -79.6 99.15 L-91.0 101.8" fill="#cc6005" fill-rule="evenodd" stroke="none"/>
    <path d="M-91.0 101.8 L-79.6 99.15 Q-68.25 96.65 -49.3 93.95 L-34.2 92.3 -4.75 91.2 Q2.0 91.2 19.65 91.8 L30.35 92.2 42.75 92.85 71.55 94.9 87.5 96.1 87.75 93.15 88.05 91.85 89.7 83.3 90.0 82.5 90.05 82.3 92.35 82.5 88.95 98.4 87.05 98.25 86.9 98.25 66.55 96.8 Q60.25 96.45 54.15 96.5 L44.95 96.05 41.95 96.0 38.85 95.9 30.35 95.75 20.55 95.35 -2.05 94.85 Q-15.6 94.7 -29.15 95.3 L-34.2 95.55 -45.95 96.35 Q-55.75 97.2 -65.5 98.75 L-80.7 101.4 -90.45 103.2 -91.0 101.8" fill="#b74b04" fill-rule="evenodd" stroke="none"/>
    <path d="M90.05 82.3 L90.0 82.3 70.1 80.55 30.35 76.4 23.1 75.6 18.6 75.2 -6.05 73.75 Q-14.25 73.45 -22.65 73.6 L-25.4 73.65 -28.2 73.75 -34.2 74.25 -36.35 74.45 -47.0 76.1 Q-57.6 78.3 -67.85 81.3 L-95.15 91.75 -91.0 101.8 -90.45 103.2 -80.7 101.4 -65.5 98.75 Q-55.75 97.2 -45.95 96.35 L-34.2 95.55 -29.15 95.3 Q-15.6 94.7 -2.05 94.85 L20.55 95.35 30.35 95.75 38.85 95.9 41.95 96.0 44.95 96.05 54.15 96.5 Q60.25 96.45 66.55 96.8 L86.9 98.25 87.05 98.25 88.95 98.4 92.35 82.5 90.05 82.3 Z" fill="none" stroke="#a73e00" stroke-linecap="round" stroke-linejoin="round" stroke-width="2.0"/>
    <path d="M92.2 47.7 L92.7 61.75 95.35 61.6 95.35 65.05 92.85 65.1 92.7 61.75 Q71.95 62.9 56.4 66.1 L30.35 71.0 23.55 72.15 Q6.25 75.0 -10.95 76.3 L-34.2 77.4 -51.6 77.6 -59.25 76.95 -89.95 78.75 -89.95 61.6 -64.3 56.85 Q-53.8 55.05 -43.05 54.3 -36.05 54.0 -29.05 54.0 -18.55 53.85 -8.0 54.15 12.9 54.7 33.65 53.5 L55.95 51.9 71.45 50.4 92.2 47.7" fill="#9a3501" fill-rule="evenodd" stroke="none"/>
    <path d="M92.2 47.7 L95.35 47.3 95.35 61.6 92.7 61.75 92.2 47.7 M92.85 65.1 Q79.95 65.4 67.2 67.4 L46.45 71.3 30.35 74.3 23.1 75.6 17.8 76.55 14.25 77.15 -0.65 78.6 -34.2 80.15 -36.0 80.25 -62.9 81.1 -62.95 81.1 -67.85 81.3 -89.95 81.95 -89.95 78.75 -59.25 76.95 -51.6 77.6 -34.2 77.4 -10.95 76.3 Q6.25 75.0 23.55 72.15 L30.35 71.0 56.4 66.1 Q71.95 62.9 92.7 61.75 L92.85 65.1" fill="#872801" fill-rule="evenodd" stroke="none"/>
    <path d="M95.35 61.6 L95.35 47.3 92.2 47.7 71.45 50.4 55.95 51.9 33.65 53.5 Q12.9 54.7 -8.0 54.15 -18.55 53.85 -29.05 54.0 -36.05 54.0 -43.05 54.3 -53.8 55.05 -64.3 56.85 L-89.95 61.6 -89.95 78.75 -89.95 81.95 -67.85 81.3 -62.95 81.1 -62.9 81.1 -36.0 80.25 -34.2 80.15 -0.65 78.6 14.25 77.15 17.8 76.55 23.1 75.6 30.35 74.3 46.45 71.3 67.2 67.4 Q79.95 65.4 92.85 65.1 L95.35 65.05 95.35 61.6 Z" fill="none" stroke="#a73e00" stroke-linecap="round" stroke-linejoin="round" stroke-width="2.0"/>
    <path d="M86.45 6.75 Q88.55 9.35 93.65 17.3 L95.9 20.8 96.35 21.5 96.6 24.65 Q97.25 37.25 97.25 34.4 L97.4 38.75 Q63.45 43.85 47.1 45.55 L33.25 46.8 -13.6 48.45 -30.05 48.15 -42.45 47.85 -59.7 47.15 Q-68.9 47.15 -81.15 49.9 L-96.4 53.15 -96.85 43.9 -87.05 36.3 -87.35 33.4 -87.6 33.4 -97.55 30.6 -98.0 22.3 -88.1 22.15 -5.05 18.15 33.25 14.65 Q59.9 11.55 86.45 6.75" fill="#cc6005" fill-rule="evenodd" stroke="none"/>
    <path d="M86.45 6.75 L88.75 6.3 99.75 20.15 99.75 43.25 97.55 43.55 97.5 43.55 61.35 47.65 33.25 50.1 Q10.55 51.45 -6.9 50.4 -46.65 47.8 -96.25 56.0 L-96.4 53.15 -81.15 49.9 Q-68.9 47.15 -59.7 47.15 L-42.45 47.85 -30.05 48.15 -13.6 48.45 33.25 46.8 47.1 45.55 Q63.45 43.85 97.4 38.75 L97.25 34.4 Q97.25 37.25 96.6 24.65 L96.35 21.5 95.9 20.8 93.65 17.3 Q88.55 9.35 86.45 6.75 M-87.6 33.4 L-87.35 33.4 -87.05 36.3 -96.85 43.9 -97.0 40.85 -93.85 38.0 Q-88.85 33.45 -87.6 33.4" fill="#b74b04" fill-rule="evenodd" stroke="none"/>
    <path d="M97.55 43.55 L99.75 43.25 99.75 20.15 88.75 6.3 86.45 6.75 Q59.9 11.55 33.25 14.65 L-5.05 18.15 -88.1 22.15 -98.0 22.3 -97.55 30.6 -87.6 33.4 Q-88.85 33.45 -93.85 38.0 L-97.0 40.85 -96.85 43.9 -96.4 53.15 -96.25 56.0 Q-46.65 47.8 -6.9 50.4 10.55 51.45 33.25 50.1 L61.35 47.65 97.5 43.55" fill="none" stroke="#a73e00" stroke-linecap="round" stroke-linejoin="round" stroke-width="2.0"/>
    <path d="M0.05 -22.95 L0.05 -22.75 -1.8 -23.05 0.05 -22.95" fill="url(#gradient0)" fill-rule="evenodd" stroke="none"/>
    <path d="M0.05 -22.75 L0.05 -22.95 96.0 -18.0 96.6 -0.3 96.35 3.15 94.75 5.3 74.8 3.5 33.25 5.1 14.55 6.6 Q-3.25 9.55 -23.35 11.15 L-45.6 12.3 -63.95 11.45 -100.2 7.25 -96.5 -11.55 Q-86.1 -14.9 -75.65 -16.7 -38.0 -22.3 0.05 -22.75" fill="#ca7902" fill-rule="evenodd" stroke="none"/>
    <path d="M-100.2 7.25 L-63.95 11.45 -45.6 12.3 -23.35 11.15 Q-3.25 9.55 14.55 6.6 L33.25 5.1 74.8 3.5 94.75 5.3 96.35 3.15 96.6 -0.3 96.0 -18.0 99.85 -17.8 99.1 -15.3 99.05 8.45 Q65.95 7.9 33.25 9.45 L-13.2 12.7 Q-56.7 20.15 -100.95 11.1 L-100.2 7.25" fill="#a76503" fill-rule="evenodd" stroke="none"/>
    <path d="M0.05 -22.75 Q-38.0 -22.3 -75.65 -16.7 -86.1 -14.9 -96.5 -11.55 L-100.2 7.25 -100.95 11.1 Q-56.7 20.15 -13.2 12.7 L33.25 9.45 Q65.95 7.9 99.05 8.45 L99.1 -15.3 99.85 -17.8 96.0 -18.0 0.05 -22.95 -1.8 -23.05 0.05 -22.75 Z" fill="none" stroke="#a73e00" stroke-linecap="round" stroke-linejoin="round" stroke-width="2.0"/>
    <path d="M91.95 -35.75 L89.7 -33.3 90.3 -32.95 Q93.9 -30.95 98.2 -31.1 L98.25 -25.65 85.6 -25.75 55.75 -26.05 Q44.5 -26.1 33.25 -25.75 L29.5 -25.65 18.1 -24.8 Q3.4 -24.15 -11.4 -24.35 -25.25 -24.55 -39.0 -23.9 L-65.2 -22.45 Q-77.0 -20.7 -82.9 -18.95 -88.85 -17.25 -100.3 -17.65 L-101.3 -32.95 -101.85 -42.95 Q-38.45 -51.8 22.1 -51.8 67.2 -50.9 92.25 -49.95 L93.25 -49.9 Q97.2 -44.85 96.6 -40.85 L97.25 -40.2 97.55 -39.5 94.15 -37.25 92.2 -35.95 91.85 -35.75 91.95 -35.75" fill="#9a3501" fill-rule="evenodd" stroke="none"/>
    <path d="M91.95 -35.75 L92.25 -35.7 100.55 -34.15 100.55 -30.95 100.1 -21.75 Q69.3 -22.3 33.25 -21.7 L24.1 -21.55 Q-58.15 -19.8 -99.9 -12.5 L-100.3 -17.65 Q-88.85 -17.25 -82.9 -18.95 -77.0 -20.7 -65.2 -22.45 L-39.0 -23.9 Q-25.25 -24.55 -11.4 -24.35 3.4 -24.15 18.1 -24.8 L29.5 -25.65 33.25 -25.75 Q44.5 -26.1 55.75 -26.05 L85.6 -25.75 98.25 -25.65 98.2 -31.1 Q93.9 -30.95 90.3 -32.95 L89.7 -33.3 91.95 -35.75 M93.25 -49.9 L97.1 -49.75 98.55 -46.25 99.85 -41.0 97.55 -39.5 97.25 -40.2 96.6 -40.85 Q97.2 -44.85 93.25 -49.9" fill="#872801" fill-rule="evenodd" stroke="none"/>
    <path d="M-100.3 -17.65 L-99.9 -12.5 Q-58.15 -19.8 24.1 -21.55 L33.25 -21.7 Q69.3 -22.3 100.1 -21.75 L100.55 -30.95 100.55 -34.15 92.25 -35.7 91.95 -35.75 91.85 -35.75 92.2 -35.95 M-100.3 -17.65 L-101.3 -32.95 -101.85 -42.95 -101.9 -43.7 M-101.85 -42.95 Q-38.45 -51.8 22.1 -51.8 67.2 -50.9 92.25 -49.95 L93.25 -49.9 97.1 -49.75 98.55 -46.25 99.85 -41.0 97.55 -39.5 94.15 -37.25" fill="none" stroke="#a73e00" stroke-linecap="round" stroke-linejoin="round" stroke-width="2.0"/>
    <path d="M94.15 -74.85 L94.55 -71.65 Q95.35 -64.7 95.1 -57.85 L92.25 -57.3 Q84.3 -55.95 76.1 -55.3 L70.65 -54.75 70.35 -55.15 Q43.95 -53.7 24.6 -53.95 5.25 -54.2 -8.6 -53.7 L-33.3 -52.65 Q-48.95 -53.9 -64.5 -52.35 L-97.95 -50.45 -97.95 -65.7 Q-51.65 -72.55 -4.75 -73.5 L33.05 -75.45 Q55.3 -77.25 77.5 -75.75 L92.25 -74.95 94.15 -74.85" fill="#cc6005" fill-rule="evenodd" stroke="none"/>
    <path d="M-97.95 -50.45 L-64.5 -52.35 Q-48.95 -53.9 -33.3 -52.65 L-8.6 -53.7 Q5.25 -54.2 24.6 -53.95 43.95 -53.7 70.35 -55.15 L70.65 -54.75 76.1 -55.3 Q84.3 -55.95 92.25 -57.3 L95.1 -57.85 Q95.35 -64.7 94.55 -71.65 L94.15 -74.85 97.1 -74.7 98.35 -53.6 49.0 -49.8 Q18.65 -49.55 -12.8 -50.3 -55.5 -51.3 -97.95 -46.85 L-97.95 -50.45" fill="#b74b04" fill-rule="evenodd" stroke="none"/>
    <path d="M-97.95 -50.45 L-97.95 -46.85 Q-55.5 -51.3 -12.8 -50.3 18.65 -49.55 49.0 -49.8 L98.35 -53.6 97.1 -74.7 94.15 -74.85 92.25 -74.95 77.5 -75.75 Q55.3 -77.25 33.05 -75.45 L-4.75 -73.5 Q-51.65 -72.55 -97.95 -65.7 L-97.95 -50.45 Z" fill="none" stroke="#a73e00" stroke-linecap="round" stroke-linejoin="round" stroke-width="2.0"/>
    <path d="M-99.15 -73.9 Q-98.8 -76.8 -99.25 -83.1 -99.7 -90.0 -101.05 -94.0 -76.35 -96.55 -51.75 -100.35 -13.8 -100.4 23.2 -100.6 57.9 -100.8 92.25 -101.75 L93.75 -101.8 93.75 -101.4 Q94.15 -92.9 93.9 -91.0 93.75 -89.7 92.25 -86.65 L92.0 -86.15 82.5 -85.8 66.5 -86.4 65.55 -86.45 -37.65 -80.1 Q-73.35 -77.4 -99.15 -73.9" fill="#cc6005" fill-rule="evenodd" stroke="none"/>
    <path d="M93.75 -101.8 L96.75 -101.9 Q96.5 -98.55 95.8 -96.95 L95.8 -82.25 92.25 -82.3 Q79.45 -82.35 61.75 -81.85 L-3.2 -78.8 Q-86.0 -73.05 -100.2 -70.35 L-100.2 -71.5 Q-99.4 -71.6 -99.15 -73.9 -73.35 -77.4 -37.65 -80.1 L65.55 -86.45 66.5 -86.4 82.5 -85.8 92.0 -86.15 92.25 -86.65 Q93.75 -89.7 93.9 -91.0 94.15 -92.9 93.75 -101.4 L93.75 -101.8" fill="#b74b04" fill-rule="evenodd" stroke="none"/>
    <path d="M96.75 -101.9 Q96.5 -98.55 95.8 -96.95 L95.8 -82.25 92.25 -82.3 Q79.45 -82.35 61.75 -81.85 L-3.2 -78.8 Q-86.0 -73.05 -100.2 -70.35 M-100.2 -71.5 Q-99.4 -71.6 -99.15 -73.9 -98.8 -76.8 -99.25 -83.1 -99.7 -90.0 -101.05 -94.0" fill="none" stroke="#a73e00" stroke-linecap="round" stroke-linejoin="round" stroke-width="2.0"/>
    <path d="M93.75 -101.8 L96.75 -101.9 M-101.05 -94.0 Q-76.35 -96.55 -51.75 -100.35 -13.8 -100.4 23.2 -100.6 57.9 -100.8 92.25 -101.75 L93.75 -101.8" fill="none" stroke="#a73e00" stroke-linecap="round" stroke-linejoin="round" stroke-width="2.0"/>
    <path d="M-98.05 -99.4 Q-91.5 -99.25 -84.25 -99.45 L-62.35 -101.15 -22.45 -103.5 33.4 -105.75 Q63.3 -107.2 92.25 -106.8 L93.5 -106.8 95.1 -110.4 93.85 -114.95 Q92.6 -119.95 92.25 -125.05 92.05 -127.7 92.15 -130.4 L92.25 -130.4 92.45 -130.35 96.15 -130.0 96.15 -128.3 Q95.4 -118.8 98.55 -110.15 L99.05 -108.9 99.55 -107.7 Q100.8 -104.85 102.5 -102.1 L29.2 -103.1 -97.5 -96.6 -98.05 -99.4" fill="#b74b04" fill-rule="evenodd" stroke="none"/>
    <path d="M92.15 -130.4 Q92.05 -127.7 92.25 -125.05 92.6 -119.95 93.85 -114.95 L95.1 -110.4 93.5 -106.8 92.25 -106.8 Q63.3 -107.2 33.4 -105.75 L-22.45 -103.5 -62.35 -101.15 -84.25 -99.45 Q-91.5 -99.25 -98.05 -99.4 L-98.1 -99.5 -99.05 -104.45 -96.6 -106.15 Q-93.1 -108.55 -91.35 -108.35 L-100.1 -109.8 -101.95 -119.1 -100.1 -119.4 -72.4 -124.65 Q-51.55 -128.45 -35.6 -130.1 L-15.9 -131.95 1.5 -133.15 Q22.65 -134.5 54.65 -133.75 L75.05 -131.95 92.15 -130.4" fill="#cc6005" fill-rule="evenodd" stroke="none"/>
    <path d="M-98.05 -99.4 L-97.5 -96.6 29.2 -103.1 102.5 -102.1 Q100.8 -104.85 99.55 -107.7 L99.05 -108.9 98.55 -110.15 Q95.4 -118.8 96.15 -128.3 L96.15 -130.0 92.45 -130.35 92.25 -130.4 92.15 -130.4 75.05 -131.95 54.65 -133.75 Q22.65 -134.5 1.5 -133.15 L-15.9 -131.95 -35.6 -130.1 Q-51.55 -128.45 -72.4 -124.65 L-100.1 -119.4 -101.95 -119.1 -100.1 -109.8 -91.35 -108.35 Q-93.1 -108.55 -96.6 -106.15 L-99.05 -104.45 -98.1 -99.5" fill="none" stroke="#a73e00" stroke-linecap="round" stroke-linejoin="round" stroke-width="2.0"/>
  </g>
  <defs>
    <radialGradient cx="0" cy="0" gradientTransform="matrix(0.1586, 0.0, 0.0, 0.1586, 28.55, 0.75)" gradientUnits="userSpaceOnUse" id="gradient0" r="819.2" spreadMethod="pad">
      <stop offset="0.0" stop-color="#cd6106"/>
      <stop offset="1.0" stop-color="#9a3501"/>
    </radialGradient>
  </defs>
</svg>
