<?xml version="1.0" encoding="UTF-8" standalone="no"?>
<svg xmlns:xlink="http://www.w3.org/1999/xlink" height="50.45px" width="62.75px" xmlns="http://www.w3.org/2000/svg">
  <g transform="matrix(1.0, 0.0, 0.0, 1.0, 31.35, 25.25)">
    <path d="M7.15 -9.15 Q4.9 -13.5 6.5 -17.9 8.15 -22.4 12.85 -24.25 L22.05 -24.5 22.55 -24.35 Q27.55 -22.5 29.95 -18.0 32.35 -13.55 30.75 -9.05 29.05 -4.55 24.4 -2.65 19.9 -0.9 15.15 -2.45 18.0 1.85 18.05 7.35 18.0 14.7 12.8 19.9 7.6 25.2 0.25 25.2 -7.15 25.2 -12.4 19.9 -17.0 15.3 -17.55 9.05 L-17.6 7.35 Q-17.6 5.2 -17.15 3.25 L-16.9 2.15 Q-16.15 -0.4 -14.6 -2.65 L-15.8 -2.25 Q-20.2 -1.05 -24.4 -2.65 -26.0 -3.35 -27.25 -4.3 -29.65 -6.15 -30.7 -9.05 -32.3 -13.55 -29.95 -18.0 -27.55 -22.5 -22.55 -24.35 -18.55 -25.8 -14.7 -24.85 L-14.65 -24.85 -12.8 -24.25 Q-8.1 -22.4 -6.45 -17.9 -5.05 -13.95 -6.7 -9.95 L-7.2 -8.9 Q-4.55 -10.15 -1.55 -10.4 L0.25 -10.45 1.75 -10.4 Q4.6 -10.2 7.15 -9.15" fill="#000000" fill-rule="evenodd" stroke="none"/>
  </g>
</svg>
