<?xml version="1.0" encoding="UTF-8" standalone="no"?>
<svg xmlns:xlink="http://www.w3.org/1999/xlink" height="60.45px" width="185.9px" xmlns="http://www.w3.org/2000/svg">
  <g transform="matrix(1.0, 0.0, 0.0, 1.0, 92.95, 29.4)">
    <path d="M62.75 -9.85 Q58.6 -2.95 57.35 8.9 56.9 18.5 59.45 17.8 61.95 17.15 63.1 10.45 66.05 -7.65 75.2 -21.1 76.15 -22.65 76.3 -24.05 76.45 -25.55 71.9 -21.3 66.85 -16.75 62.75 -9.85" fill="#199432" fill-rule="evenodd" stroke="none"/>
    <path d="M60.95 5.1 Q62.9 2.5 65.95 -5.55 69.05 -13.65 67.0 -13.25 62.95 -9.7 61.3 -2.05 59.55 5.5 60.95 5.1" fill="#35a12f" fill-rule="evenodd" stroke="none"/>
    <path d="M47.4 -2.55 Q46.9 4.45 51.2 14.05 55.1 21.7 57.05 20.15 59.0 18.65 57.0 13.05 51.35 -2.15 53.4 -16.2 53.55 -17.8 53.0 -18.95 52.4 -20.1 50.3 -15.05 47.9 -9.6 47.4 -2.55" fill="#199432" fill-rule="evenodd" stroke="none"/>
    <path d="M92.9 7.05 Q90.95 2.75 82.1 1.2 73.35 -0.35 66.8 8.2 63.0 14.7 63.3 17.05 63.65 19.4 67.45 15.5 74.05 7.65 83.35 7.2 88.85 6.85 91.0 7.35 93.25 7.75 92.9 7.05" fill="#199432" fill-rule="evenodd" stroke="none"/>
    <path d="M71.0 8.7 L81.2 6.2 Q87.7 4.65 85.9 3.35 76.95 0.6 72.0 4.85 67.1 9.15 71.0 8.7" fill="#35a12f" fill-rule="evenodd" stroke="none"/>
    <path d="M3.8 -10.8 Q11.8 -5.1 14.3 11.1 14.65 18.05 12.8 17.6 11.0 17.1 10.2 12.25 7.95 -0.85 1.35 -10.65 0.6 -11.7 0.55 -12.8 0.5 -13.9 3.8 -10.8" fill="#2f9d2d" fill-rule="evenodd" stroke="none"/>
    <path d="M20.25 0.95 Q20.65 6.0 17.5 13.0 14.65 18.5 13.25 17.35 11.85 16.3 13.3 12.25 17.35 1.2 15.95 -9.0 15.8 -10.1 16.2 -11.0 16.6 -11.9 18.15 -8.15 19.9 -4.2 20.25 0.95" fill="#2f9d2d" fill-rule="evenodd" stroke="none"/>
    <path d="M-10.95 9.2 Q-9.55 6.1 -3.15 4.95 3.25 3.8 8.0 10.05 13.3 20.25 7.6 15.35 2.75 9.65 -4.0 9.35 -11.75 9.55 -10.95 9.2" fill="#2f9d2d" fill-rule="evenodd" stroke="none"/>
    <path d="M-78.2 -11.9 Q-70.2 -6.2 -67.7 10.0 -67.35 16.95 -69.2 16.5 -71.0 16.0 -71.8 11.15 -74.05 -1.95 -80.65 -11.75 -81.4 -12.8 -81.45 -13.9 -81.5 -15.0 -78.2 -11.9" fill="#2f9d2d" fill-rule="evenodd" stroke="none"/>
    <path d="M-61.7 -0.15 Q-61.3 4.9 -64.45 11.9 -67.3 17.4 -68.7 16.35 -70.1 15.2 -68.65 11.15 -64.6 0.1 -66.0 -10.1 -66.15 -11.2 -65.75 -12.1 -65.35 -13.0 -63.85 -9.25 -62.05 -5.3 -61.7 -0.15" fill="#2f9d2d" fill-rule="evenodd" stroke="none"/>
    <path d="M-92.9 8.05 Q-91.5 4.95 -85.1 3.8 -78.7 2.65 -73.95 8.9 -68.65 19.1 -74.35 14.2 -79.2 8.5 -85.95 8.2 -93.7 8.4 -92.9 8.05" fill="#2f9d2d" fill-rule="evenodd" stroke="none"/>
    <path d="M30.85 6.55 Q34.3 13.4 34.25 18.1 33.65 22.35 30.85 23.5 28.05 24.65 27.5 21.85 27.15 13.35 22.65 4.35 18.2 -4.65 7.95 -7.95 15.5 -9.85 21.45 -5.15 27.45 -0.4 30.85 6.55" fill="#199432" fill-rule="evenodd" stroke="none"/>
    <path d="M19.95 -4.35 Q21.7 -3.6 25.4 0.5 29.2 4.7 31.4 10.6 32.7 15.2 31.05 15.8 29.45 16.4 27.7 11.5 24.0 1.05 19.95 -4.35" fill="#50ad26" fill-rule="evenodd" stroke="none"/>
    <path d="M32.8 10.95 Q34.15 21.6 33.9 22.4 L31.25 22.95 Q30.8 2.75 22.1 -9.65 17.85 -15.95 19.75 -15.4 21.65 -14.85 25.4 -9.75 31.55 0.3 32.8 10.95" fill="#199432" fill-rule="evenodd" stroke="none"/>
    <path d="M22.8 -10.45 Q18.0 -3.55 11.6 -5.45 8.7 -6.65 8.5 -9.55 8.3 -12.45 12.6 -14.95 6.6 -16.9 9.5 -21.1 12.35 -25.25 20.75 -22.65 29.1 -32.45 32.9 -28.0 36.65 -23.65 32.95 -19.05 39.7 -16.9 35.25 -12.3 30.8 -7.75 22.8 -10.45" fill="#f6c15b" fill-rule="evenodd" stroke="none"/>
    <path d="M40.8 -5.15 Q45.9 -10.9 53.65 -10.35 44.05 -5.45 40.4 3.25 36.8 11.95 37.8 20.1 37.95 23.2 35.75 23.55 33.55 23.9 32.4 20.05 31.45 15.4 33.6 8.0 35.75 0.55 40.8 -5.15" fill="#199432" fill-rule="evenodd" stroke="none"/>
    <path d="M41.8 -3.95 Q38.4 2.0 36.1 12.95 35.3 18.1 33.95 17.8 32.7 17.55 33.15 12.85 34.3 6.55 37.25 1.85 40.25 -2.95 41.8 -3.95" fill="#50ad26" fill-rule="evenodd" stroke="none"/>
    <path d="M34.15 -14.65 Q31.7 -12.2 27.45 -11.6 23.2 -11.0 22.85 -12.15 22.7 -14.85 29.3 -17.8 31.6 -18.55 33.75 -17.8 35.9 -17.05 34.15 -14.65" fill="#f7eb77" fill-rule="evenodd" stroke="none"/>
    <path d="M26.55 -27.35 Q29.65 -28.65 31.6 -26.75 34.75 -22.1 29.25 -18.25 26.35 -16.7 23.65 -17.6 21.0 -18.45 22.1 -22.55 23.5 -26.05 26.55 -27.35" fill="#f7eb77" fill-rule="evenodd" stroke="none"/>
    <path d="M25.7 -21.15 Q30.95 -18.3 22.85 -13.85 14.7 -11.2 16.25 -16.7 17.55 -19.0 20.5 -20.35 23.45 -21.75 25.7 -21.15" fill="#f39d35" fill-rule="evenodd" stroke="none"/>
    <path d="M-16.9 -9.65 Q-8.9 -3.95 -6.4 12.25 -6.05 19.2 -7.9 18.75 -9.7 18.25 -10.5 13.4 -12.75 0.3 -19.35 -9.5 -20.1 -10.55 -20.15 -11.65 -20.2 -12.75 -16.9 -9.65" fill="#199432" fill-rule="evenodd" stroke="none"/>
    <path d="M-9.0 9.6 Q-10.4 7.7 -12.65 1.85 -14.85 -4.1 -13.45 -3.75 -10.5 -1.1 -9.25 4.4 -8.0 9.85 -9.0 9.6" fill="#35a12f" fill-rule="evenodd" stroke="none"/>
    <path d="M-0.4 2.15 Q0.0 7.2 -3.15 14.2 -6.0 19.7 -7.4 18.55 -8.8 17.5 -7.35 13.45 -3.3 2.4 -4.7 -7.8 -4.85 -8.9 -4.45 -9.8 -4.05 -10.7 -2.55 -6.95 -0.75 -3.0 -0.4 2.15" fill="#199432" fill-rule="evenodd" stroke="none"/>
    <path d="M-2.0 6.9 Q-3.4 11.7 -4.15 11.0 -4.55 9.0 -3.8 3.6 -3.15 -1.85 -2.0 -1.05 -0.6 2.1 -2.0 6.9" fill="#35a12f" fill-rule="evenodd" stroke="none"/>
    <path d="M-31.65 10.35 Q-30.25 7.25 -23.85 6.1 -17.45 4.95 -12.7 11.2 -7.4 21.4 -13.1 16.5 -17.95 10.8 -24.7 10.5 -32.45 10.7 -31.65 10.35" fill="#199432" fill-rule="evenodd" stroke="none"/>
    <path d="M-15.6 11.5 L-23.0 9.65 Q-27.75 8.5 -26.45 7.65 -19.9 5.6 -16.35 8.7 -12.75 11.8 -15.6 11.5" fill="#35a12f" fill-rule="evenodd" stroke="none"/>
    <path d="M-20.6 13.9 Q-14.9 6.7 -6.65 8.6 -14.2 10.7 -17.7 17.1 -21.3 23.5 -21.75 29.65 -22.25 31.7 -24.25 30.75 -26.3 29.85 -26.55 26.75 -26.3 21.15 -20.6 13.9" fill="#199432" fill-rule="evenodd" stroke="none"/>
    <path d="M-27.5 14.0 Q-25.2 22.9 -27.25 28.15 -28.6 30.8 -30.05 30.15 -31.6 29.65 -31.05 27.45 -29.2 21.75 -30.6 15.05 -32.0 8.4 -38.15 3.55 -29.85 5.1 -27.5 14.0" fill="#199432" fill-rule="evenodd" stroke="none"/>
    <path d="M-15.5 10.9 Q-18.5 14.65 -21.55 22.15 -23.05 25.65 -24.2 25.2 -25.35 24.7 -24.25 21.4 -22.45 17.15 -19.6 14.25 -16.75 11.35 -15.5 10.9" fill="#50ad26" fill-rule="evenodd" stroke="none"/>
    <path d="M-30.65 9.75 Q-29.65 10.7 -28.2 14.45 -26.75 18.3 -26.8 22.9 -28.3 29.9 -28.95 22.55 -29.05 14.45 -30.65 9.75" fill="#50ad26" fill-rule="evenodd" stroke="none"/>
    <path d="M-27.7 21.15 Q-26.7 13.4 -22.25 6.1 -19.55 2.4 -18.2 2.0 -16.85 1.6 -19.9 6.2 -26.25 15.15 -26.55 29.85 L-28.45 29.5 Q-28.65 28.8 -27.7 21.15" fill="#199432" fill-rule="evenodd" stroke="none"/>
    <path d="M-20.35 5.6 Q-26.15 7.55 -29.4 4.25 -32.6 0.9 -27.7 -0.65 -30.4 -3.95 -27.7 -7.2 -24.95 -10.45 -18.85 -3.2 -12.75 -5.15 -10.65 -2.15 -8.65 0.9 -12.95 2.3 -7.35 6.75 -12.2 9.2 -16.85 10.6 -20.35 5.6" fill="#f75e47" fill-rule="evenodd" stroke="none"/>
    <path d="M-12.6 3.2 Q-10.2 6.5 -12.7 7.5 -17.8 7.35 -19.15 3.6 -19.0 2.45 -16.65 2.3 -14.25 2.1 -12.6 3.2" fill="#fb8b3c" fill-rule="evenodd" stroke="none"/>
    <path d="M-23.7 4.75 Q-26.8 4.3 -28.6 2.55 -29.9 0.8 -28.35 0.25 -26.8 -0.3 -25.1 0.25 -20.3 2.4 -20.4 4.35 -20.65 5.15 -23.7 4.75" fill="#fb8b3c" fill-rule="evenodd" stroke="none"/>
    <path d="M-23.05 -6.7 Q-20.85 -5.75 -19.85 -3.2 -19.1 -0.25 -21.0 0.4 -22.95 1.05 -25.0 -0.1 -29.05 -2.85 -26.7 -6.3 -25.3 -7.65 -23.05 -6.7" fill="#fb8b3c" fill-rule="evenodd" stroke="none"/>
    <path d="M-15.3 -3.35 Q-12.95 -3.6 -11.45 -1.85 -10.45 -0.1 -12.15 0.5 -13.85 1.1 -14.8 1.1 -16.45 1.15 -17.45 -0.05 L-18.55 -1.45 Q-17.65 -3.1 -15.3 -3.35" fill="#fb8b3c" fill-rule="evenodd" stroke="none"/>
    <path d="M-20.35 3.15 Q-26.25 0.0 -22.4 -2.1 -18.25 -2.55 -15.5 1.15 -14.45 5.2 -20.35 3.15" fill="#f7e632" fill-rule="evenodd" stroke="none"/>
    <path d="M-45.3 4.95 Q-41.4 -2.1 -35.0 -6.75 -28.6 -11.4 -20.85 -9.1 -31.65 -6.15 -36.7 3.05 -41.75 12.2 -42.5 20.95 -43.15 23.95 -46.05 22.6 -48.9 21.25 -49.3 16.85 -49.15 11.95 -45.3 4.95" fill="#199432" fill-rule="evenodd" stroke="none"/>
    <path d="M-56.3 5.7 Q-52.45 12.7 -52.3 17.6 -52.65 21.8 -54.95 21.9 -57.15 22.05 -57.75 18.95 -58.6 10.4 -64.25 2.45 -69.9 -5.5 -80.75 -8.35 -73.0 -10.65 -66.6 -6.0 -60.2 -1.35 -56.3 5.7" fill="#199432" fill-rule="evenodd" stroke="none"/>
    <path d="M-33.5 -5.85 Q-37.95 -0.45 -42.25 10.25 -44.35 15.25 -45.95 14.55 -47.6 13.9 -46.1 9.2 -43.55 3.1 -39.45 -1.05 -35.3 -5.2 -33.5 -5.85" fill="#50ad26" fill-rule="evenodd" stroke="none"/>
    <path d="M-67.35 -4.5 Q-65.55 -3.85 -61.4 0.3 -57.4 4.45 -54.75 10.55 -53.2 15.2 -54.5 15.8 -55.75 16.3 -57.8 11.35 -62.5 0.75 -67.35 -4.5" fill="#50ad26" fill-rule="evenodd" stroke="none"/>
    <path d="M42.95 2.35 Q36.15 10.95 35.9 17.65 36.25 21.25 38.6 22.4 41.0 23.5 41.55 21.05 42.15 13.7 46.4 6.1 50.6 -1.5 59.55 -4.0 49.7 -6.2 42.95 2.35" fill="#199432" fill-rule="evenodd" stroke="none"/>
  </g>
</svg>
