<?xml version="1.0" encoding="UTF-8" standalone="no"?>
<svg xmlns:xlink="http://www.w3.org/1999/xlink" height="48.2px" width="168.2px" xmlns="http://www.w3.org/2000/svg">
  <g transform="matrix(1.0, 0.0, 0.0, 1.0, 87.5, 24.1)">
    <path d="M80.5 -19.85 L80.7 -19.05 80.0 -10.8 78.0 -10.05 79.85 -8.4 79.25 -0.95 78.1 -0.7 79.15 0.25 79.15 16.75 Q79.15 17.55 78.65 18.1 78.15 18.7 77.3 18.75 L-77.5 24.1 -77.9 24.1 -78.6 23.8 -78.9 23.6 -81.1 21.55 Q-81.7 21.05 -81.75 20.2 L-82.05 18.15 -80.7 17.85 -82.3 16.4 -85.65 -6.3 -84.05 -6.45 -85.9 -8.2 -86.5 -12.1 Q-86.5 -13.0 -85.95 -13.6 -85.4 -14.2 -84.5 -14.25 L76.3 -23.1 Q77.2 -23.1 77.8 -22.55 L80.0 -20.5 80.5 -19.85" fill="#6c2809" fill-rule="evenodd" stroke="none"/>
    <path d="M77.6 -10.45 L77.0 -3.0 71.45 -1.95 76.9 -1.8 76.95 14.7 Q76.95 15.5 76.4 16.05 75.9 16.65 75.1 16.7 L-79.75 22.05 Q-80.55 22.05 -81.1 21.55 -81.7 21.0 -81.75 20.2 L-82.05 18.15 -78.25 17.25 -82.3 16.4 -85.65 -6.3 -80.4 -6.9 -85.9 -8.2 -86.5 -12.1 Q-86.5 -13.0 -85.95 -13.6 -85.4 -14.2 -84.5 -14.25 L76.3 -23.1 Q77.2 -23.1 77.8 -22.55 78.4 -22.0 78.45 -21.1 L77.8 -12.85 73.3 -11.2 77.6 -10.45" fill="#cc6005" fill-rule="evenodd" stroke="none"/>
    <path d="M77.6 -10.45 L73.3 -11.2 77.8 -12.85 78.45 -21.1 Q78.4 -22.0 77.8 -22.55 77.2 -23.1 76.3 -23.1 L-84.5 -14.25 Q-85.4 -14.2 -85.95 -13.6 -86.5 -13.0 -86.5 -12.1 L-85.9 -8.2 -80.4 -6.9 -85.65 -6.3 -82.3 16.4 -78.25 17.25 -82.05 18.15 -81.75 20.2 Q-81.7 21.0 -81.1 21.55 -80.55 22.05 -79.75 22.05 L75.1 16.7 Q75.9 16.65 76.4 16.05 76.95 15.5 76.95 14.7 L76.9 -1.8 71.45 -1.95 77.0 -3.0 77.6 -10.45 Z" fill="none" stroke="#a73e00" stroke-linecap="square" stroke-linejoin="bevel" stroke-width="2.0"/>
    <path d="M-83.0 -10.8 L-82.95 -10.8 -82.95 -10.75 -83.0 -10.8 M-80.25 -12.95 L-80.1 -12.65 -78.9 -9.1 -78.9 -9.0 -78.9 -8.9 -79.05 -8.2 -79.1 -8.15 -79.15 -8.1 -79.25 -8.05 -79.3 -8.0 -79.4 -7.95 -79.5 -7.9 -79.6 -7.85 -79.65 -7.85 -80.2 -7.95 -80.35 -8.0 -80.4 -8.1 -80.5 -8.15 -82.95 -10.8 -83.05 -10.9 -83.1 -10.9 -83.25 -11.15 Q-83.55 -11.75 -83.35 -12.35 L-82.55 -13.4 -81.3 -13.6 Q-80.65 -13.5 -80.25 -12.95" fill="#ffbf17" fill-rule="evenodd" stroke="none"/>
    <path d="M-80.75 -13.35 Q-79.95 -13.25 -79.45 -12.55 L-79.35 -12.35 -79.3 -12.4 -79.3 -12.8 -79.15 -11.8 Q-79.05 -11.15 -79.35 -10.55 -79.6 -9.95 -80.25 -9.55 -80.9 -9.15 -81.6 -9.2 -82.25 -9.25 -82.75 -9.6 L-83.65 -10.3 -83.25 -10.05 -83.2 -10.05 -83.3 -10.25 Q-83.65 -11.0 -83.4 -11.8 -83.15 -12.55 -82.35 -13.05 L-80.75 -13.35" fill="#000000" fill-rule="evenodd" stroke="none"/>
    <path d="M-82.75 -9.95 Q-83.75 -10.2 -84.25 -11.1 -84.65 -11.95 -84.3 -12.85 -83.95 -13.75 -83.05 -14.35 -82.15 -14.85 -81.2 -14.7 -80.25 -14.6 -79.65 -13.8 -79.1 -12.95 -79.35 -11.95 -79.65 -10.95 -80.65 -10.3 -81.7 -9.7 -82.75 -9.95" fill="#ffe619" fill-rule="evenodd" stroke="none"/>
    <path d="M75.5 -18.9 L75.65 -17.65 Q75.5 -17.0 74.95 -16.65 L74.65 -16.5 74.6 -16.5 72.0 -16.05 71.9 -16.0 71.8 -16.0 71.15 -16.2 71.05 -16.3 71.0 -16.35 70.95 -16.4 70.9 -16.5 70.85 -16.6 70.85 -16.7 70.8 -16.8 70.8 -16.85 70.9 -17.4 71.0 -17.55 71.1 -17.6 71.15 -17.65 73.05 -19.6 73.3 -19.75 74.55 -19.8 75.5 -18.9" fill="#ffbf17" fill-rule="evenodd" stroke="none"/>
    <path d="M75.15 -18.75 Q75.55 -17.95 75.35 -17.15 75.2 -16.3 74.45 -15.85 L74.25 -15.75 74.35 -15.75 74.65 -15.7 73.7 -15.6 Q73.05 -15.55 72.45 -15.9 71.9 -16.2 71.55 -16.85 71.2 -17.55 71.25 -18.2 71.35 -18.85 71.75 -19.35 L72.5 -20.2 72.25 -19.8 72.2 -19.75 72.4 -19.85 Q73.2 -20.15 73.95 -19.85 L75.15 -18.75" fill="#000000" fill-rule="evenodd" stroke="none"/>
    <path d="M72.05 -19.3 Q72.35 -20.3 73.3 -20.75 L75.05 -20.7 Q75.95 -20.3 76.45 -19.4 76.9 -18.45 76.75 -17.5 76.55 -16.55 75.75 -16.0 L73.85 -15.85 Q72.85 -16.2 72.3 -17.25 71.75 -18.3 72.05 -19.3" fill="#ffe619" fill-rule="evenodd" stroke="none"/>
    <path d="M73.6 10.3 Q74.25 10.35 74.7 10.8 75.15 11.3 75.2 12.05 L74.75 13.25 Q74.3 13.75 73.65 13.8 L73.35 13.8 70.8 12.55 70.7 12.5 70.65 12.5 70.15 12.0 70.1 11.9 70.05 11.85 70.05 11.75 70.05 11.65 70.05 11.55 70.05 11.45 70.1 11.35 70.1 11.3 Q70.2 11.0 70.45 10.85 L70.6 10.8 70.6 10.75 70.7 10.75 70.75 10.7 73.25 10.35 73.3 10.35 73.6 10.3" fill="#ffbf17" fill-rule="evenodd" stroke="none"/>
    <path d="M74.75 10.5 Q75.3 11.15 75.35 12.05 75.35 12.95 74.8 13.55 74.3 14.2 73.45 14.3 L73.2 14.3 73.25 14.35 73.45 14.45 72.65 14.2 Q71.35 13.65 71.25 12.1 71.3 10.55 72.55 9.95 L73.6 9.55 73.2 9.8 73.15 9.85 73.35 9.8 Q74.2 9.9 74.75 10.5" fill="#000000" fill-rule="evenodd" stroke="none"/>
    <path d="M72.25 10.15 Q72.95 9.4 74.0 9.4 74.95 9.5 75.6 10.2 76.2 10.95 76.25 12.0 76.25 13.1 75.65 13.85 L74.1 14.7 Q73.05 14.8 72.35 14.05 71.6 13.3 71.55 12.1 71.55 10.9 72.25 10.15" fill="#ffe619" fill-rule="evenodd" stroke="none"/>
    <path d="M-74.85 16.6 L-74.8 16.7 -74.8 16.8 -74.75 16.85 -74.75 16.95 -74.85 17.5 -74.95 17.6 -75.0 17.7 -75.1 17.75 -76.95 19.5 -77.0 19.5 -77.25 19.7 Q-77.85 19.95 -78.5 19.7 L-79.45 18.85 -79.6 17.55 Q-79.45 16.9 -78.9 16.55 L-78.6 16.45 -78.55 16.45 -75.95 16.15 -75.9 16.15 -75.85 16.1 -75.75 16.1 -75.1 16.3 -75.0 16.35 -74.95 16.45 -74.9 16.5 -74.85 16.6" fill="#ffbf17" fill-rule="evenodd" stroke="none"/>
    <path d="M-76.45 15.75 Q-75.85 16.1 -75.5 16.75 -75.15 17.45 -75.25 18.1 -75.3 18.75 -75.7 19.25 L-76.45 20.1 -76.2 19.7 -76.4 19.75 Q-77.15 20.05 -77.95 19.75 L-79.15 18.65 Q-79.55 17.85 -79.35 17.05 -79.15 16.2 -78.45 15.75 L-78.25 15.65 -78.3 15.65 -78.6 15.65 -77.65 15.5 Q-77.05 15.45 -76.45 15.75" fill="#000000" fill-rule="evenodd" stroke="none"/>
    <path d="M-75.95 19.25 Q-76.25 20.25 -77.2 20.65 -78.1 21.05 -78.95 20.65 -79.85 20.25 -80.35 19.35 -80.85 18.4 -80.65 17.45 -80.45 16.5 -79.65 15.95 L-77.75 15.8 Q-76.8 16.1 -76.2 17.15 -75.7 18.25 -75.95 19.25" fill="#ffe619" fill-rule="evenodd" stroke="none"/>
    <path d="M-68.9 -11.35 L-63.65 -8.35 -68.1 0.1 -65.9 15.8 -68.65 16.7 -71.25 6.05 -72.8 9.0 -75.1 7.9 -68.9 -11.35" fill="#000000" fill-rule="evenodd" stroke="none"/>
    <path d="M-68.9 -11.35 L-75.1 7.9 -72.8 9.0 -71.25 6.05 -68.65 16.7 -65.9 15.8 -68.1 0.1 -63.65 -8.35 -68.9 -11.35 Z" fill="none" stroke="#000000" stroke-linecap="square" stroke-linejoin="bevel" stroke-width="5.2"/>
    <path d="M-45.25 11.35 L-45.15 14.4 -64.6 15.75 -64.8 11.3 -57.25 11.3 -57.55 7.6 -61.55 8.05 -61.8 2.75 -57.95 2.6 -58.25 -1.25 -64.25 -0.45 -64.45 -5.65 -46.45 -6.4 -46.3 -2.8 -52.95 -1.95 -53.1 2.4 -48.55 2.2 -48.4 6.55 -53.25 7.1 -53.4 11.35 -45.25 11.35" fill="#000000" fill-rule="evenodd" stroke="none"/>
    <path d="M-45.25 11.35 L-53.4 11.35 -53.25 7.1 -48.4 6.55 -48.55 2.2 -53.1 2.4 -52.95 -1.95 -46.3 -2.8 -46.45 -6.4 -64.45 -5.65 -64.25 -0.45 -58.25 -1.25 -57.95 2.6 -61.8 2.75 -61.55 8.05 -57.55 7.6 -57.25 11.3 -64.8 11.3 -64.6 15.75 -45.15 14.4 -45.25 11.35 Z" fill="none" stroke="#000000" stroke-linecap="square" stroke-linejoin="bevel" stroke-width="5.2"/>
    <path d="M-53.15 -10.7 L-53.85 -7.25 -57.15 -6.9 -58.45 -11.0 -53.15 -10.7" fill="#000000" fill-rule="evenodd" stroke="none"/>
    <path d="M-53.15 -10.7 L-58.45 -11.0 -57.15 -6.9 -53.85 -7.25 -53.15 -10.7 Z" fill="none" stroke="#000000" stroke-linecap="square" stroke-linejoin="bevel" stroke-width="5.2"/>
    <path d="M-38.4 -0.45 L-38.4 1.6 -31.15 1.3 -32.35 -0.95 -38.4 -0.45 M-24.65 -4.65 L-24.75 -6.95 -38.3 -7.15 -38.35 -4.1 -24.65 -4.65 M-19.3 -11.4 L-20.0 -2.0 -26.8 -1.45 -25.9 1.05 -17.55 0.75 -17.4 3.95 -24.6 4.7 -22.45 10.5 -21.0 9.85 -19.55 12.35 -24.0 14.55 -29.05 5.15 -38.45 6.1 -38.5 11.15 -35.7 11.05 -35.75 14.7 -41.65 14.9 -43.25 -10.05 -19.3 -11.4" fill="#000000" fill-rule="evenodd" stroke="none"/>
    <path d="M-19.3 -11.4 L-43.25 -10.05 -41.65 14.9 -35.75 14.7 -35.7 11.05 -38.5 11.15 -38.45 6.1 -29.05 5.15 -24.0 14.55 -19.55 12.35 -21.0 9.85 -22.45 10.5 -24.6 4.7 -17.4 3.95 -17.55 0.75 -25.9 1.05 -26.8 -1.45 -20.0 -2.0 -19.3 -11.4 M-24.65 -4.65 L-38.35 -4.1 -38.3 -7.15 -24.75 -6.95 -24.65 -4.65 M-38.4 -0.45 L-32.35 -0.95 -31.15 1.3 -38.4 1.6 -38.4 -0.45 Z" fill="none" stroke="#000000" stroke-linecap="square" stroke-linejoin="bevel" stroke-width="5.2"/>
    <path d="M10.25 -7.15 L10.6 -3.5 -1.1 -2.15 7.4 8.75 8.9 7.2 11.75 9.9 8.05 13.9 -4.9 2.7 -10.95 14.3 -14.3 12.45 -9.1 -1.2 -15.15 -0.5 -16.0 -6.1 -7.1 -6.45 -4.25 -13.95 2.3 -11.2 0.0 -6.75 10.25 -7.15" fill="#000000" fill-rule="evenodd" stroke="none"/>
    <path d="M10.25 -7.15 L0.0 -6.75 2.3 -11.2 -4.25 -13.95 -7.1 -6.45 -16.0 -6.1 -15.15 -0.5 -9.1 -1.2 -14.3 12.45 -10.95 14.3 -4.9 2.7 8.05 13.9 11.75 9.9 8.9 7.2 7.4 8.75 -1.1 -2.15 10.6 -3.5 10.25 -7.15 Z" fill="none" stroke="#000000" stroke-linecap="square" stroke-linejoin="bevel" stroke-width="5.2"/>
    <path d="M28.05 3.3 L27.35 4.25 30.95 4.1 27.6 1.95 26.0 2.15 28.05 3.3 M22.2 4.5 L23.2 2.45 22.05 2.6 19.5 4.6 22.2 4.5 M22.75 -9.75 L22.85 -8.75 28.9 -9.1 28.85 -10.45 22.75 -9.75 M31.8 -2.85 L32.0 -3.95 19.6 -3.3 19.7 -2.4 31.8 -2.85 M32.25 -5.5 L32.5 -7.3 19.2 -6.35 19.3 -5.5 32.25 -5.5 M38.9 -13.65 L39.0 -11.55 32.1 -10.8 31.8 -9.3 36.55 -9.55 36.3 -1.75 27.1 -1.4 25.75 -0.3 39.45 -1.1 39.55 0.6 32.85 1.35 37.15 4.75 38.3 3.7 40.45 5.75 37.85 8.55 33.4 5.7 33.35 11.9 27.25 12.7 26.75 9.6 28.8 9.4 28.45 6.7 25.4 7.1 20.85 13.6 17.0 11.35 18.4 8.75 19.8 9.35 20.6 7.75 18.15 8.05 17.75 6.0 14.5 8.55 12.8 6.8 16.25 3.25 12.8 3.65 12.45 0.45 19.4 0.05 20.55 -1.1 16.3 -0.95 14.9 -8.25 19.7 -8.55 19.5 -9.35 12.95 -8.65 12.15 -12.6 18.65 -12.85 18.25 -14.45 22.4 -14.6 22.5 -13.0 28.75 -13.25 28.7 -14.3 32.85 -14.5 32.65 -13.4 38.9 -13.65" fill="#000000" fill-rule="evenodd" stroke="none"/>
    <path d="M38.9 -13.65 L32.65 -13.4 32.85 -14.5 28.7 -14.3 28.75 -13.25 22.5 -13.0 22.4 -14.6 18.25 -14.45 18.65 -12.85 12.15 -12.6 12.95 -8.65 19.5 -9.35 19.7 -8.55 14.9 -8.25 16.3 -0.95 20.55 -1.1 19.4 0.05 12.45 0.45 12.8 3.65 16.25 3.25 12.8 6.8 14.5 8.55 17.75 6.0 18.15 8.05 20.6 7.75 19.8 9.35 18.4 8.75 17.0 11.35 20.85 13.6 25.4 7.1 28.45 6.7 28.8 9.4 26.75 9.6 27.25 12.7 33.35 11.9 33.4 5.7 37.85 8.55 40.45 5.75 38.3 3.7 37.15 4.75 32.85 1.35 39.55 0.6 39.45 -1.1 25.75 -0.3 27.1 -1.4 36.3 -1.75 36.55 -9.55 31.8 -9.3 32.1 -10.8 39.0 -11.55 38.9 -13.65 M32.25 -5.5 L19.3 -5.5 19.2 -6.35 32.5 -7.3 32.25 -5.5 M31.8 -2.85 L19.7 -2.4 19.6 -3.3 32.0 -3.95 31.8 -2.85 M22.75 -9.75 L28.85 -10.45 28.9 -9.1 22.85 -8.75 22.75 -9.75 M22.2 4.5 L19.5 4.6 22.05 2.6 23.2 2.45 22.2 4.5 M28.05 3.3 L26.0 2.15 27.6 1.95 30.95 4.1 27.35 4.25 28.05 3.3 Z" fill="none" stroke="#000000" stroke-linecap="square" stroke-linejoin="bevel" stroke-width="5.2"/>
    <path d="M53.2 -2.45 L53.1 -3.55 48.85 -3.65 48.9 -2.3 53.2 -2.45 M52.85 -5.8 L52.75 -6.75 48.85 -6.45 48.85 -5.5 52.85 -5.8 M48.8 -9.2 L52.5 -9.2 52.4 -10.35 48.8 -10.45 48.8 -9.2 M66.1 -13.5 L65.8 -10.0 58.0 -10.2 57.9 -9.25 64.65 -9.35 64.65 -7.75 57.75 -7.2 57.65 -6.15 63.8 -6.6 63.7 -3.4 57.4 -3.5 57.35 -2.6 66.3 -2.9 65.95 0.5 57.65 0.7 57.6 2.0 67.7 1.85 67.5 4.2 61.7 4.8 64.25 7.5 65.65 7.0 67.05 9.45 63.95 11.4 57.4 6.5 57.2 11.25 53.9 11.7 52.9 5.7 52.35 5.75 47.1 12.2 43.4 10.45 44.75 7.95 46.1 8.5 47.35 6.25 42.25 6.75 41.2 2.25 52.35 2.1 52.1 0.8 45.2 0.95 43.85 -6.85 42.2 -4.9 40.1 -6.6 45.65 -16.55 50.1 -14.4 48.7 -12.7 53.6 -12.95 52.45 -15.9 57.2 -16.3 56.4 -13.05 66.1 -13.5" fill="#000000" fill-rule="evenodd" stroke="none"/>
    <path d="M66.1 -13.5 L56.4 -13.05 57.2 -16.3 52.45 -15.9 53.6 -12.95 48.7 -12.7 50.1 -14.4 45.65 -16.55 40.1 -6.6 42.2 -4.9 43.85 -6.85 45.2 0.95 52.1 0.8 52.35 2.1 41.2 2.25 42.25 6.75 47.35 6.25 46.1 8.5 44.75 7.95 43.4 10.45 47.1 12.2 52.35 5.75 52.9 5.7 53.9 11.7 57.2 11.25 57.4 6.5 63.95 11.4 67.05 9.45 65.65 7.0 64.25 7.5 61.7 4.8 67.5 4.2 67.7 1.85 57.6 2.0 57.65 0.7 65.95 0.5 66.3 -2.9 57.35 -2.6 57.4 -3.5 63.7 -3.4 63.8 -6.6 57.65 -6.15 57.75 -7.2 64.65 -7.75 64.65 -9.35 57.9 -9.25 58.0 -10.2 65.8 -10.0 66.1 -13.5 M48.8 -9.2 L48.8 -10.45 52.4 -10.35 52.5 -9.2 48.8 -9.2 M52.85 -5.8 L48.85 -5.5 48.85 -6.45 52.75 -6.75 52.85 -5.8 M53.2 -2.45 L48.9 -2.3 48.85 -3.65 53.1 -3.55 53.2 -2.45 Z" fill="none" stroke="#000000" stroke-linecap="square" stroke-linejoin="bevel" stroke-width="5.2"/>
    <path d="M-62.45 -8.25 L-62.15 -7.2 -66.5 1.0 -64.25 16.45 -64.8 17.3 -67.6 18.2 -68.6 17.65 -70.65 9.0 -71.25 10.2 -72.3 10.5 -74.65 9.35 -75.05 8.45 -68.8 -10.8 -67.65 -11.25 -62.45 -8.25" fill="#ff3300" fill-rule="evenodd" stroke="none"/>
    <path d="M-64.4 -4.85 L-63.65 -5.65 -45.65 -6.4 -44.85 -5.65 -44.7 -2.05 -45.4 -1.25 -51.35 -0.5 -51.45 2.35 -47.75 2.2 -46.95 2.95 -46.8 7.3 -47.5 8.1 -51.7 8.55 -51.8 11.35 -44.45 11.35 -43.65 12.1 -43.55 15.15 -44.3 15.95 -63.75 17.3 -64.55 16.55 -64.75 12.1 -64.0 11.3 -57.3 11.3 -57.45 9.25 -60.65 9.6 -61.5 8.85 -61.75 3.55 -61.05 2.75 -57.95 2.6 -58.1 0.4 -63.35 1.1 -64.2 0.35 -64.4 -4.85" fill="#ff3300" fill-rule="evenodd" stroke="none"/>
    <path d="M-52.2 -10.65 L-51.5 -9.7 -52.25 -6.3 -52.9 -5.7 -56.2 -5.35 -57.05 -5.9 -58.3 -10.0 -57.5 -11.0 -52.2 -10.65" fill="#ff3300" fill-rule="evenodd" stroke="none"/>
    <path d="M-31.55 1.35 L-31.9 0.65 -36.8 1.05 -36.8 1.55 -31.55 1.35 M-36.7 -5.6 L-36.7 -4.15 -24.65 -4.65 -24.65 -5.35 -36.7 -5.6 M-43.15 -9.2 L-42.45 -10.0 -18.55 -11.35 -17.7 -10.55 -18.4 -1.2 -19.1 -0.45 -24.95 0.05 -24.55 1.05 -16.7 0.75 -15.9 1.5 -15.8 4.7 -16.5 5.5 -22.7 6.15 -21.2 10.25 -20.45 9.9 -19.45 10.25 -18.0 12.75 -18.35 13.8 -22.85 16.0 -23.85 15.7 -28.65 6.75 -36.85 7.55 -36.9 11.15 -34.95 11.05 -34.1 11.85 -34.15 15.5 -34.9 16.25 -40.8 16.5 -41.6 15.75 -43.15 -9.2" fill="#ff3300" fill-rule="evenodd" stroke="none"/>
    <path d="M3.45 -11.2 L3.85 -10.15 2.15 -6.8 11.1 -7.15 11.9 -6.45 12.25 -2.8 11.55 -1.95 1.2 -0.75 8.3 8.35 9.2 7.45 10.3 7.4 13.15 10.05 13.15 11.15 9.4 15.2 8.35 15.25 -3.8 4.65 -9.4 15.4 -10.45 15.75 -13.8 13.9 -14.15 12.95 -9.4 0.5 -14.2 1.05 -15.05 0.4 -15.9 -5.2 -15.15 -6.1 -6.8 -6.45 -4.1 -13.45 -3.1 -13.9 3.45 -11.2" fill="#ff3300" fill-rule="evenodd" stroke="none"/>
    <path d="M23.05 5.25 L24.05 3.2 22.9 3.35 20.35 5.35 23.05 5.25 M28.9 4.05 L28.2 5.05 31.8 4.9 28.4 2.7 26.8 2.9 28.9 4.05 M20.45 -2.55 L20.55 -1.6 32.65 -2.1 32.85 -3.2 20.45 -2.55 M29.75 -8.35 L29.7 -9.65 23.6 -9.0 23.7 -8.0 29.75 -8.35 M20.05 -5.6 L20.15 -4.75 33.05 -4.75 33.35 -6.5 20.05 -5.6 M13.8 -7.9 L13.0 -11.85 19.5 -12.1 19.1 -13.65 23.2 -13.85 23.35 -12.25 29.6 -12.5 29.55 -13.55 33.7 -13.7 33.5 -12.65 39.75 -12.9 39.85 -10.8 32.95 -10.05 32.65 -8.55 37.35 -8.8 37.15 -1.0 27.95 -0.6 26.6 0.45 40.3 -0.35 40.35 1.35 33.7 2.1 38.0 5.55 39.15 4.45 41.3 6.5 38.7 9.3 34.25 6.45 34.2 12.65 28.1 13.5 27.6 10.35 29.65 10.15 29.3 7.45 26.25 7.85 21.7 14.4 17.85 12.1 19.25 9.5 20.65 10.1 21.45 8.5 19.0 8.8 18.55 6.75 15.35 9.3 13.65 7.55 17.1 4.0 13.6 4.4 13.3 1.2 20.25 0.8 21.35 -0.35 17.1 -0.2 15.75 -7.5 20.5 -7.8 20.3 -8.6 13.8 -7.9" fill="#ff3300" fill-rule="evenodd" stroke="none"/>
    <path d="M13.8 -7.9 L20.3 -8.6 20.5 -7.8 15.75 -7.5 17.1 -0.2 21.35 -0.35 20.25 0.8 13.3 1.2 13.6 4.4 17.1 4.0 13.65 7.55 15.35 9.3 18.55 6.75 19.0 8.8 21.45 8.5 20.65 10.1 19.25 9.5 17.85 12.1 21.7 14.4 26.25 7.85 29.3 7.45 29.65 10.15 27.6 10.35 28.1 13.5 34.2 12.65 34.25 6.45 38.7 9.3 41.3 6.5 39.15 4.45 38.0 5.55 33.7 2.1 40.35 1.35 40.3 -0.35 26.6 0.45 27.95 -0.6 37.15 -1.0 37.35 -8.8 32.65 -8.55 32.95 -10.05 39.85 -10.8 39.75 -12.9 33.5 -12.65 33.7 -13.7 29.55 -13.55 29.6 -12.5 23.35 -12.25 23.2 -13.85 19.1 -13.65 19.5 -12.1 13.0 -11.85 13.8 -7.9 M20.05 -5.6 L33.35 -6.5 33.05 -4.75 20.15 -4.75 20.05 -5.6 M29.75 -8.35 L23.7 -8.0 23.6 -9.0 29.7 -9.65 29.75 -8.35 M20.45 -2.55 L32.85 -3.2 32.65 -2.1 20.55 -1.6 20.45 -2.55 M28.9 4.05 L26.8 2.9 28.4 2.7 31.8 4.9 28.2 5.05 28.9 4.05 M23.05 5.25 L20.35 5.35 22.9 3.35 24.05 3.2 23.05 5.25 Z" fill="none" stroke="#ff3300" stroke-linecap="square" stroke-linejoin="bevel" stroke-width="1.55"/>
    <path d="M49.7 -2.9 L49.7 -1.55 54.0 -1.7 53.9 -2.8 49.7 -2.9 M49.65 -5.7 L49.65 -4.8 53.65 -5.05 53.55 -6.0 49.65 -5.7 M49.6 -9.7 L49.6 -8.45 53.3 -8.5 53.2 -9.6 49.6 -9.7 M53.25 -15.15 L58.0 -15.55 57.2 -12.35 66.9 -12.75 66.6 -9.25 58.8 -9.45 58.7 -8.5 65.45 -8.6 65.45 -7.0 58.55 -6.45 58.45 -5.4 64.65 -5.85 64.5 -2.65 58.2 -2.75 58.15 -1.85 67.1 -2.2 66.75 1.25 58.45 1.45 58.4 2.75 68.5 2.6 68.3 4.95 62.5 5.55 65.05 8.25 66.45 7.7 67.85 10.2 64.75 12.1 58.2 7.25 58.05 12.0 54.7 12.45 53.7 6.45 53.15 6.5 47.9 12.95 44.25 11.2 45.55 8.7 46.9 9.2 48.15 7.0 43.05 7.5 42.0 3.0 53.15 2.85 52.95 1.55 46.0 1.7 44.65 -6.1 43.0 -4.15 40.9 -5.85 46.45 -15.8 50.9 -13.65 49.55 -12.0 54.4 -12.2 53.25 -15.15" fill="#ff3300" fill-rule="evenodd" stroke="none"/>
    <path d="M53.25 -15.15 L54.4 -12.2 49.55 -12.0 50.9 -13.65 46.45 -15.8 40.9 -5.85 43.0 -4.15 44.65 -6.1 46.0 1.7 52.95 1.55 53.15 2.85 42.0 3.0 43.05 7.5 48.15 7.0 46.9 9.2 45.55 8.7 44.25 11.2 47.9 12.95 53.15 6.5 53.7 6.45 54.7 12.45 58.05 12.0 58.2 7.25 64.75 12.1 67.85 10.2 66.45 7.7 65.05 8.25 62.5 5.55 68.3 4.95 68.5 2.6 58.4 2.75 58.45 1.45 66.75 1.25 67.1 -2.2 58.15 -1.85 58.2 -2.75 64.5 -2.65 64.65 -5.85 58.45 -5.4 58.55 -6.45 65.45 -7.0 65.45 -8.6 58.7 -8.5 58.8 -9.45 66.6 -9.25 66.9 -12.75 57.2 -12.35 58.0 -15.55 53.25 -15.15 M49.6 -9.7 L53.2 -9.6 53.3 -8.5 49.6 -8.45 49.6 -9.7 M49.65 -5.7 L53.55 -6.0 53.65 -5.05 49.65 -4.8 49.65 -5.7 M49.7 -2.9 L53.9 -2.8 54.0 -1.7 49.7 -1.55 49.7 -2.9 Z" fill="none" stroke="#ff3300" stroke-linecap="square" stroke-linejoin="bevel" stroke-width="1.55"/>
    <path d="M-68.85 -11.35 L-63.65 -8.35 -68.1 0.1 -65.85 15.8 -68.65 16.7 -71.2 6.05 -72.75 9.0 -75.1 7.9 -68.85 -11.35" fill="#ffff00" fill-rule="evenodd" stroke="none"/>
    <path d="M-46.5 -6.4 L-46.35 -2.8 -52.95 -1.95 -53.1 2.4 -48.55 2.2 -48.4 6.55 -53.25 7.1 -53.4 11.3 -45.3 11.35 -45.15 14.4 -64.6 15.75 -64.8 11.25 -57.3 11.3 -57.55 7.6 -61.6 8.05 -61.8 2.75 -57.95 2.6 -58.25 -1.25 -64.25 -0.45 -64.45 -5.65 -46.5 -6.4" fill="#ffff00" fill-rule="evenodd" stroke="none"/>
    <path d="M-53.1 -10.65 L-53.8 -7.25 -57.1 -6.9 -58.4 -11.0 -53.1 -10.65" fill="#ffff00" fill-rule="evenodd" stroke="none"/>
    <path d="M-31.15 1.25 L-32.35 -1.0 -38.4 -0.5 -38.4 1.55 -31.15 1.25 M-24.65 -4.7 L-24.75 -6.95 -38.3 -7.2 -38.35 -4.1 -24.65 -4.7 M-17.55 0.7 L-17.4 3.9 -24.6 4.65 -22.5 10.5 -21.0 9.8 -19.55 12.3 -24.05 14.55 -29.1 5.1 -38.45 6.1 -38.55 11.15 -35.75 11.05 -35.75 14.65 -41.7 14.9 -43.25 -10.05 -19.35 -11.4 -20.0 -2.05 -26.85 -1.45 -25.95 1.05 -17.55 0.7" fill="#ffff00" fill-rule="evenodd" stroke="none"/>
    <path d="M10.25 -7.15 L10.55 -3.5 -1.1 -2.1 7.4 8.75 8.9 7.2 11.75 9.9 8.0 13.95 -4.95 2.7 -10.95 14.3 -14.3 12.45 -9.1 -1.2 -15.15 -0.45 -16.0 -6.1 -7.1 -6.45 -4.3 -13.95 2.3 -11.2 0.0 -6.75 10.25 -7.15" fill="#ffff00" fill-rule="evenodd" stroke="none"/>
    <path d="M27.35 4.25 L30.95 4.1 27.6 1.95 26.0 2.15 28.05 3.25 27.35 4.25 M19.5 4.6 L22.2 4.45 23.2 2.45 22.05 2.6 19.5 4.6 M19.2 -6.35 L19.3 -5.5 32.2 -5.55 32.5 -7.3 19.2 -6.35 M31.8 -2.9 L32.0 -3.95 19.6 -3.3 19.7 -2.4 31.8 -2.9 M28.9 -9.1 L28.85 -10.45 22.75 -9.75 22.85 -8.75 28.9 -9.1 M38.9 -13.7 L39.0 -11.55 32.1 -10.8 31.8 -9.3 36.55 -9.6 36.3 -1.75 27.1 -1.4 25.75 -0.35 39.45 -1.1 39.55 0.55 32.85 1.35 37.15 4.75 38.3 3.7 40.45 5.75 37.85 8.5 33.4 5.7 33.35 11.9 27.25 12.7 26.75 9.6 28.8 9.4 28.45 6.7 25.4 7.1 20.85 13.6 17.0 11.35 18.4 8.75 19.8 9.35 20.6 7.75 18.15 8.05 17.75 6.0 14.5 8.5 12.8 6.8 16.25 3.25 12.8 3.65 12.45 0.45 19.4 0.05 20.55 -1.1 16.3 -0.95 14.9 -8.3 19.7 -8.55 19.5 -9.4 12.95 -8.65 12.15 -12.6 18.65 -12.85 18.25 -14.45 22.35 -14.6 22.5 -13.0 28.75 -13.25 28.7 -14.3 32.85 -14.5 32.65 -13.4 38.9 -13.7" fill="#ffff00" fill-rule="evenodd" stroke="none"/>
    <path d="M48.85 -3.65 L48.9 -2.35 53.2 -2.5 53.1 -3.6 48.85 -3.65 M52.85 -5.85 L52.75 -6.8 48.85 -6.45 48.85 -5.55 52.85 -5.85 M52.5 -9.25 L52.4 -10.4 48.8 -10.5 48.8 -9.2 52.5 -9.25 M63.8 -6.65 L63.7 -3.4 57.4 -3.5 57.35 -2.65 66.3 -2.95 65.95 0.45 57.65 0.65 57.6 1.95 67.7 1.8 67.5 4.2 61.7 4.75 64.25 7.45 65.65 6.95 67.05 9.4 63.95 11.35 57.4 6.5 57.2 11.25 53.9 11.65 52.9 5.65 52.35 5.7 47.05 12.2 43.4 10.4 44.75 7.9 46.1 8.45 47.35 6.2 42.25 6.7 41.2 2.25 52.35 2.05 52.1 0.8 45.2 0.95 43.85 -6.9 42.2 -4.95 40.1 -6.6 45.65 -16.6 50.1 -14.4 48.7 -12.75 53.55 -13.0 52.45 -15.95 57.2 -16.3 56.4 -13.1 66.05 -13.55 65.8 -10.05 58.0 -10.25 57.9 -9.3 64.65 -9.35 64.65 -7.8 57.75 -7.2 57.65 -6.2 63.8 -6.65" fill="#ffff00" fill-rule="evenodd" stroke="none"/>
  </g>
</svg>
