<?xml version="1.0" encoding="UTF-8" standalone="no"?>
<svg xmlns:xlink="http://www.w3.org/1999/xlink" height="17.15px" width="145.25px" xmlns="http://www.w3.org/2000/svg">
  <g transform="matrix(1.0, 0.0, 0.0, 1.0, 68.25, 33.5)">
    <path d="M-57.4 -16.95 L-59.5 -19.65 -60.65 -19.6 -60.4 -16.6 -62.5 -16.45 -62.75 -19.4 -63.65 -19.35 -65.5 -16.35 -67.45 -17.05 -66.05 -19.2 -67.65 -19.05 -67.8 -20.5 -62.85 -20.85 -62.9 -21.25 -64.85 -21.1 -65.0 -22.95 -66.25 -21.0 -67.95 -21.85 -66.25 -24.45 -65.05 -23.95 -65.2 -25.9 -66.75 -24.75 -68.25 -26.65 -66.7 -27.75 -65.2 -26.0 -65.35 -27.65 -63.7 -27.75 -63.6 -28.6 -61.5 -28.65 -61.7 -27.95 -61.65 -27.95 -61.25 -28.0 Q-60.15 -28.05 -59.85 -27.45 -59.55 -26.95 -59.4 -25.3 L-59.35 -24.15 -58.05 -25.1 -55.9 -23.05 -57.4 -21.95 -59.35 -23.75 -59.35 -23.2 -59.15 -23.2 -59.0 -21.75 -60.8 -21.6 -60.75 -21.05 -55.9 -21.4 -55.8 -19.95 -57.1 -19.85 -55.7 -18.2 -57.4 -16.95 M-57.5 -25.4 L-59.15 -26.2 -57.95 -28.5 -56.15 -27.65 Q-56.65 -26.65 -57.5 -25.4 M-62.0 -26.65 L-63.2 -26.4 -63.15 -25.4 -61.5 -25.55 -61.65 -26.55 -62.0 -26.65 M-62.95 -22.9 L-61.4 -23.05 -61.4 -24.1 -63.05 -23.95 -62.95 -22.9" fill="#000000" fill-rule="evenodd" stroke="none"/>
    <path d="M-43.25 -21.45 Q-47.3 -17.8 -50.1 -17.55 -52.25 -17.45 -53.3 -18.75 -54.2 -19.85 -54.3 -22.15 -54.55 -24.95 -53.9 -29.15 L-51.95 -28.85 Q-52.6 -24.95 -52.4 -22.3 -52.3 -20.8 -51.75 -20.15 -51.0 -19.4 -49.55 -19.5 -48.45 -19.6 -46.4 -21.1 -44.55 -22.5 -43.4 -23.8 L-43.25 -21.45" fill="#000000" fill-rule="evenodd" stroke="none"/>
    <path d="M-33.95 -29.7 Q-31.9 -26.7 -30.5 -21.2 L-32.4 -20.75 Q-33.7 -25.7 -35.65 -28.8 L-33.95 -29.7 M-39.65 -29.55 Q-40.6 -25.6 -40.4 -22.75 L-40.1 -21.2 Q-39.7 -20.2 -39.05 -20.25 -38.05 -20.3 -36.5 -22.65 L-36.2 -20.15 Q-37.9 -18.5 -39.2 -18.4 -40.75 -18.3 -41.55 -19.75 -42.25 -20.85 -42.35 -22.6 -42.5 -25.2 -41.6 -29.8 L-39.65 -29.55" fill="#000000" fill-rule="evenodd" stroke="none"/>
    <path d="M-17.65 -22.2 L-21.1 -22.0 -20.95 -19.15 -23.05 -19.05 -23.2 -21.95 -24.25 -21.9 -24.2 -21.75 -26.15 -21.6 -26.5 -28.5 -27.0 -27.4 -26.55 -18.85 -28.55 -18.75 -28.9 -25.15 -30.15 -25.7 Q-28.85 -28.45 -28.0 -31.0 L-25.9 -30.25 -26.35 -28.9 -24.6 -28.95 -24.6 -28.75 -23.55 -28.95 -23.7 -31.15 -21.6 -31.25 -21.45 -29.15 -21.1 -29.15 -20.85 -29.2 Q-19.35 -29.3 -18.7 -28.8 -18.05 -28.4 -18.0 -27.55 -17.95 -25.85 -18.25 -23.7 L-17.7 -23.7 -17.65 -22.2 M-24.5 -27.2 L-24.3 -23.4 -23.25 -23.45 -23.5 -27.4 -24.5 -27.2 M-21.4 -27.65 L-21.2 -23.5 -20.45 -23.6 Q-20.1 -25.7 -20.2 -27.15 -20.2 -27.75 -20.95 -27.65 L-21.4 -27.65" fill="#000000" fill-rule="evenodd" stroke="none"/>
    <path d="M-6.2 -20.0 L-7.55 -20.0 -7.65 -20.6 -11.8 -20.4 -11.8 -20.05 -13.55 -20.0 -13.8 -25.5 -12.05 -25.6 -12.05 -25.35 -10.05 -25.65 -9.9 -25.65 -8.05 -25.3 Q-7.55 -24.85 -7.5 -24.15 -7.45 -23.1 -7.7 -21.8 L-7.5 -21.8 -7.5 -21.3 -6.65 -21.3 Q-6.4 -21.35 -6.4 -21.75 L-6.65 -26.35 -8.45 -26.2 -8.45 -25.95 -10.2 -25.9 -10.5 -31.9 -8.75 -31.95 -8.7 -31.65 -7.1 -31.95 -6.75 -31.95 Q-5.0 -32.0 -4.95 -30.3 L-4.5 -21.6 Q-4.45 -20.05 -5.8 -20.05 L-6.2 -20.0 M-8.6 -29.75 L-6.8 -29.85 -6.8 -29.95 Q-6.85 -30.6 -7.65 -30.5 L-8.7 -30.3 -8.6 -29.75 M-10.9 -26.0 L-14.35 -25.9 -14.1 -19.55 -16.0 -19.45 -16.55 -31.55 -14.65 -31.65 -14.6 -31.3 -13.45 -31.6 -13.35 -31.6 -11.55 -31.25 Q-11.05 -30.9 -11.05 -30.2 -10.95 -28.95 -11.3 -27.3 L-11.0 -27.35 -10.9 -26.0 M-8.55 -27.5 L-6.7 -27.65 -6.75 -28.55 -8.55 -28.45 -8.55 -27.5 M-12.75 -29.95 Q-12.8 -30.4 -13.45 -30.35 L-14.6 -30.1 -14.5 -29.5 -12.75 -29.55 -12.75 -29.95 M-14.45 -27.2 L-13.05 -27.25 -12.85 -28.25 -14.45 -28.2 -14.45 -27.2 M-11.95 -23.6 L-9.3 -23.7 -9.3 -24.1 Q-9.35 -24.5 -10.0 -24.5 L-12.0 -24.15 -11.95 -23.6 M-11.85 -21.6 L-9.55 -21.75 -9.4 -22.5 -11.9 -22.4 -11.85 -21.6" fill="#000000" fill-rule="evenodd" stroke="none"/>
    <path d="M7.15 -27.7 Q5.65 -29.4 3.75 -30.75 L5.2 -31.95 8.65 -28.85 7.15 -27.7 M8.2 -31.35 L7.45 -30.75 6.35 -32.0 7.05 -32.5 8.2 -31.35 M9.3 -32.15 L8.6 -31.45 7.45 -32.6 8.1 -33.2 9.3 -32.15 M5.5 -28.8 Q6.1 -27.8 6.2 -25.6 6.3 -23.25 5.8 -22.05 5.1 -20.45 3.05 -20.4 L0.8 -20.65 0.65 -20.7 0.3 -22.7 2.85 -22.45 Q3.9 -22.5 4.2 -23.55 L4.25 -25.5 4.05 -27.35 Q3.6 -28.25 2.5 -28.2 L1.7 -28.1 0.25 -24.25 -1.45 -20.45 -3.3 -21.2 -1.85 -24.35 Q-1.05 -26.15 -0.6 -27.65 L-2.5 -26.95 -3.2 -28.55 0.05 -29.65 0.6 -32.2 2.6 -31.85 2.2 -30.0 2.65 -30.1 Q4.75 -30.15 5.5 -28.8" fill="#000000" fill-rule="evenodd" stroke="none"/>
    <path d="M21.55 -27.75 L13.5 -27.5 13.5 -28.15 12.9 -27.15 13.05 -20.65 11.0 -20.55 10.9 -24.75 9.5 -25.4 12.4 -30.15 14.3 -29.45 14.0 -29.0 16.45 -29.1 16.45 -30.4 13.95 -30.3 13.9 -31.8 16.35 -31.9 16.35 -32.85 18.4 -32.9 18.45 -31.95 20.85 -32.05 20.9 -30.55 18.5 -30.45 18.55 -29.15 21.5 -29.25 21.55 -27.75 M20.5 -21.6 Q20.0 -20.9 19.15 -20.9 L18.85 -20.9 16.65 -20.95 16.2 -22.45 18.35 -22.35 Q18.6 -22.35 18.7 -22.7 L18.7 -23.7 18.65 -24.95 16.05 -24.95 16.55 -24.7 Q16.95 -24.4 16.95 -23.85 17.0 -23.3 16.6 -22.95 16.15 -22.65 15.75 -22.6 15.2 -22.6 14.8 -22.95 14.45 -23.35 14.4 -23.75 L14.65 -24.55 15.2 -24.9 13.45 -24.85 13.45 -26.4 18.65 -26.5 18.55 -27.4 20.65 -27.5 20.75 -26.6 21.7 -26.65 21.75 -25.1 20.75 -25.05 20.85 -23.4 Q20.85 -22.1 20.5 -21.6 M13.35 -32.15 L10.85 -28.6 9.2 -29.3 11.5 -32.8 13.35 -32.15" fill="#000000" fill-rule="evenodd" stroke="none"/>
    <path d="M32.4 -27.35 Q32.5 -23.0 25.95 -21.35 L25.4 -23.1 Q27.5 -23.55 28.8 -24.45 30.65 -25.6 30.6 -27.3 30.6 -28.2 29.95 -28.7 L28.35 -29.0 Q26.9 -29.0 23.4 -27.8 L22.8 -29.6 Q26.5 -30.8 28.35 -30.8 30.0 -30.85 31.15 -30.0 32.35 -29.1 32.4 -27.35" fill="#000000" fill-rule="evenodd" stroke="none"/>
    <path d="M45.55 -30.9 Q44.2 -30.9 42.5 -30.15 40.8 -29.4 39.7 -28.25 38.5 -26.9 38.5 -25.65 38.5 -24.6 39.7 -24.2 L41.75 -23.9 45.1 -24.3 44.55 -22.25 41.85 -21.85 Q39.65 -21.85 38.2 -22.65 36.35 -23.6 36.35 -25.65 36.3 -28.4 39.7 -30.85 L34.05 -29.95 33.65 -31.95 Q37.8 -32.9 41.9 -32.95 L45.5 -32.8 45.55 -30.9" fill="#000000" fill-rule="evenodd" stroke="none"/>
    <path d="M58.15 -26.1 Q58.1 -24.1 56.3 -22.8 54.65 -21.65 52.55 -21.65 L50.0 -22.1 Q48.5 -22.7 48.45 -24.0 48.5 -25.0 49.2 -25.6 49.9 -26.15 50.95 -26.15 52.9 -26.15 54.5 -24.0 56.2 -24.85 56.2 -26.15 56.2 -26.95 55.15 -27.35 L53.45 -27.7 Q52.35 -27.7 50.75 -26.95 L48.2 -25.6 46.75 -27.25 49.95 -28.85 Q51.75 -29.8 53.05 -30.75 L53.9 -31.5 53.4 -31.6 Q51.9 -31.55 48.55 -29.85 L47.75 -31.75 Q51.2 -33.4 53.15 -33.45 56.25 -33.5 56.25 -31.45 56.25 -30.35 55.0 -29.3 56.3 -29.15 57.15 -28.35 58.15 -27.45 58.15 -26.1 M51.2 -23.65 L52.1 -23.5 Q51.4 -24.2 50.8 -24.2 50.35 -24.2 50.35 -24.05 50.4 -23.85 51.2 -23.65" fill="#000000" fill-rule="evenodd" stroke="none"/>
    <path d="M70.0 -22.9 Q67.75 -24.2 65.2 -24.85 64.85 -23.45 64.0 -22.65 63.1 -21.75 61.75 -21.75 60.75 -21.7 60.1 -22.3 59.45 -22.9 59.45 -23.85 59.4 -25.35 60.7 -26.2 61.85 -27.0 63.4 -26.95 L63.65 -26.95 63.65 -28.15 Q63.65 -30.45 63.25 -33.2 L65.15 -33.5 65.4 -31.55 Q66.8 -31.8 68.85 -32.75 L69.45 -30.8 Q67.1 -29.85 65.55 -29.6 L65.55 -26.75 Q68.15 -26.2 70.85 -24.7 L70.0 -22.9 M62.0 -24.8 Q61.3 -24.5 61.3 -23.8 61.3 -23.45 61.75 -23.5 62.3 -23.5 62.7 -24.05 L63.25 -25.05 62.0 -24.8" fill="#000000" fill-rule="evenodd" stroke="none"/>
    <path d="M77.0 -33.5 L75.6 -24.75 73.9 -24.75 74.55 -33.5 77.0 -33.5 M74.5 -21.8 Q73.95 -21.8 73.6 -22.15 73.25 -22.55 73.25 -23.05 73.25 -23.6 73.6 -23.95 73.95 -24.3 74.5 -24.3 75.05 -24.3 75.4 -23.95 75.8 -23.6 75.8 -23.05 75.75 -22.55 75.4 -22.2 75.0 -21.75 74.5 -21.8" fill="#000000" fill-rule="evenodd" stroke="none"/>
  </g>
</svg>
