<?xml version="1.0" encoding="UTF-8" standalone="no"?>
<svg xmlns:xlink="http://www.w3.org/1999/xlink" height="26.7px" width="157.55px" xmlns="http://www.w3.org/2000/svg">
  <g transform="matrix(1.0, 0.0, 0.0, 1.0, 96.95, -48.0)">
    <path d="M-86.2 59.0 L-90.3 59.1 -90.2 63.05 -86.1 62.95 -86.2 59.0 M-31.2 65.35 L-27.7 65.25 -27.85 59.7 -31.35 59.8 -31.2 65.35 M-22.75 66.55 L-22.85 63.4 -26.25 63.5 -26.15 66.7 -22.75 66.55 M-36.85 65.8 L-36.9 63.7 -39.4 63.75 -39.35 65.85 -36.85 65.8 M-36.95 61.1 L-39.45 61.15 -39.4 63.25 -36.9 63.2 -36.95 61.1 M-3.85 66.3 L-0.45 66.45 -0.45 63.15 -3.8 63.1 -3.85 66.3 M-18.0 66.3 L-18.05 63.3 -21.45 63.4 -21.35 66.5 -18.0 66.3 M-64.25 66.0 L-64.3 63.75 -66.25 63.8 -66.2 66.05 -64.25 66.0 M-63.45 65.95 L-61.45 65.9 -61.5 63.7 -63.5 63.75 -63.45 65.95 M-74.6 57.25 L-76.1 57.3 -75.8 67.25 -74.3 67.2 -74.6 57.25 M-71.75 57.15 L-73.25 57.2 -73.0 67.15 -71.5 67.15 -71.75 57.15 M-73.1 54.6 L-73.15 52.0 -74.15 52.05 -74.1 54.65 -73.1 54.6 M-72.65 54.6 L-71.65 54.55 -71.7 52.0 -72.75 52.0 -72.65 54.6 M-64.4 60.85 L-66.35 60.9 -66.3 63.1 -64.3 63.05 -64.4 60.85 M-61.6 60.8 L-63.55 60.85 -63.5 63.05 -61.55 63.0 -61.6 60.8 M-68.9 57.1 L-70.4 57.15 -70.15 67.1 -68.65 67.05 -68.9 57.1 M-42.7 61.25 L-42.65 63.35 -40.15 63.3 -40.2 61.2 -42.7 61.25 M-42.65 63.85 L-42.55 65.95 -40.1 65.9 -40.15 63.8 -42.65 63.85 M-55.2 58.7 L-58.0 58.75 -57.85 63.3 -55.1 63.25 -55.2 58.7 M-51.3 58.6 L-54.05 58.65 -53.95 63.2 -51.2 63.15 -51.3 58.6 M49.65 66.15 L51.15 66.15 51.25 56.2 49.75 56.15 49.65 66.15 M44.35 65.1 L44.4 62.9 42.4 62.9 42.4 65.1 44.35 65.1 M48.45 56.15 L46.95 56.15 46.8 66.1 48.3 66.1 48.45 56.15 M44.45 60.0 L42.45 59.95 42.45 62.2 44.4 62.2 44.45 60.0 M50.65 53.6 L50.7 51.0 49.65 51.0 49.65 53.55 50.65 53.6 M52.1 51.0 L51.1 51.0 51.05 53.6 52.1 53.6 52.1 51.0 M59.7 52.65 L60.6 54.35 59.15 56.7 57.8 58.8 57.35 58.8 59.05 55.9 57.85 55.85 59.7 52.65 M17.5 65.35 L17.5 63.25 15.0 63.2 15.0 65.3 17.5 65.35 M0.95 63.15 L0.95 66.5 4.3 66.55 4.35 63.2 0.95 63.15 M9.4 59.4 L5.9 59.4 5.85 64.9 9.35 64.95 9.4 59.4 M17.55 60.65 L15.05 60.6 15.0 62.7 17.5 62.75 17.55 60.65 M20.75 62.8 L20.8 60.7 18.3 60.65 18.25 62.75 20.75 62.8 M39.65 59.95 L39.65 62.15 41.6 62.15 41.65 59.95 39.65 59.95 M29.3 62.45 L32.05 62.5 32.1 57.95 29.35 57.9 29.3 62.45 M39.65 62.85 L39.6 65.05 41.6 65.1 41.6 62.85 39.65 62.85 M20.75 65.4 L20.75 63.3 18.25 63.25 18.25 65.35 20.75 65.4 M36.0 58.0 L33.25 57.95 33.2 62.5 35.95 62.55 36.0 58.0 M32.55 50.5 L34.9 53.25 34.9 51.1 37.15 51.1 37.1 55.9 38.1 57.1 38.1 60.1 43.2 56.65 46.15 58.75 46.2 55.45 48.75 53.35 48.75 50.2 51.4 48.0 53.95 50.25 53.9 53.4 56.4 55.6 56.35 61.0 54.0 64.05 54.1 56.2 52.6 56.2 52.5 65.8 51.1 67.25 Q43.95 74.35 36.3 74.7 34.6 74.0 29.65 73.3 L17.65 72.05 2.3 70.9 -14.2 70.0 -29.75 69.25 -42.35 68.75 -49.85 68.55 Q-63.1 68.1 -71.35 68.75 -85.85 69.8 -96.95 71.7 L-96.8 71.15 -94.35 63.2 -91.85 63.1 -92.0 59.15 -93.15 59.15 -91.7 53.75 -84.55 58.4 -84.45 62.75 -83.95 62.7 -82.55 60.0 -83.8 60.05 -82.25 57.05 -83.4 57.1 -81.7 53.8 -79.85 57.0 -81.0 57.0 -79.3 59.9 -80.55 59.95 -79.1 62.45 -78.2 62.4 -78.4 56.7 -75.95 54.45 -76.0 51.35 -73.5 49.0 -70.85 51.2 -70.75 54.35 -68.2 56.4 -68.1 59.7 -65.2 57.55 -60.0 60.95 -60.1 57.9 -59.1 56.7 -59.2 51.9 -57.0 51.85 -56.9 54.0 -54.65 51.2 -48.85 57.6 -48.7 62.3 -48.4 62.35 -46.7 59.05 -47.95 59.1 -46.4 56.1 -47.55 56.15 -45.85 52.85 -44.0 56.05 -45.15 56.05 -43.45 58.95 -44.7 59.0 -43.75 60.6 -39.2 58.3 -35.65 59.85 -35.65 58.9 -30.15 55.0 -27.75 56.5 -27.8 55.25 -25.55 55.2 -25.45 57.95 -24.4 58.6 -24.35 61.05 -21.4 59.5 -15.4 62.25 -15.3 65.4 -11.4 65.8 -6.55 65.2 -6.5 62.1 -0.55 59.25 2.45 60.75 2.45 58.3 3.5 57.65 3.55 54.9 5.8 54.9 5.75 56.15 8.15 54.6 13.75 58.45 13.7 59.35 17.2 57.75 21.85 60.0 22.75 58.4 21.5 58.4 23.15 55.45 22.0 55.45 23.8 52.25 25.55 55.5 24.4 55.45 26.0 58.45 24.75 58.4 26.5 61.7 26.8 61.65 26.85 56.95 32.55 50.5" fill="#73be1e" fill-rule="evenodd" stroke="none"/>
  </g>
</svg>
