<?xml version="1.0" encoding="UTF-8" standalone="no"?>
<svg xmlns:xlink="http://www.w3.org/1999/xlink" height="101.65px" width="117.6px" xmlns="http://www.w3.org/2000/svg">
  <g transform="matrix(1.0, 0.0, 0.0, 1.0, 58.8, 100.65)">
    <path d="M31.2 -99.6 L34.6 -99.5 Q43.7 -98.1 49.2 -93.7 54.7 -88.7 57.05 -82.15 59.05 -75.4 55.6 -68.15 52.75 -64.45 49.0 -62.6 45.2 -60.7 41.4 -59.9 42.05 -59.85 45.1 -54.55 48.0 -49.3 49.2 -39.5 49.75 -33.4 47.6 -25.7 44.8 -17.9 37.45 -11.1 30.1 -4.35 15.85 -1.2 -2.8 2.05 -14.65 -3.65 -26.15 -9.4 -29.9 -17.05 -31.05 -19.55 -31.8 -22.1 L-30.6 -19.2 Q-26.95 -11.7 -15.75 -6.1 -4.2 -0.55 13.95 -3.7 27.85 -6.8 35.05 -13.35 42.2 -20.0 44.9 -27.6 47.0 -35.1 46.45 -41.05 45.3 -50.6 42.45 -55.7 39.5 -60.85 38.85 -60.95 42.55 -61.7 46.3 -63.55 49.95 -65.35 52.7 -68.95 56.05 -76.0 54.1 -82.6 51.8 -89.0 46.45 -93.85 41.1 -98.15 32.25 -99.5 L31.2 -99.6 M-31.5 -47.25 L-33.8 -46.1 Q-37.4 -44.2 -42.85 -44.85 -48.75 -46.05 -51.9 -49.8 -55.1 -53.15 -56.45 -57.2 -57.9 -61.05 -57.8 -66.1 -57.75 -61.7 -56.5 -58.3 -55.15 -54.35 -52.05 -51.1 -49.0 -47.4 -43.25 -46.25 -37.95 -45.6 -34.4 -47.45 -30.95 -49.2 -30.4 -49.7 L-31.5 -47.25 M-27.75 -98.0 Q-22.4 -97.8 -19.6 -95.75 -15.9 -94.05 -12.6 -88.55 -9.45 -83.45 -9.85 -71.3 L-11.15 -70.55 Q-10.5 -83.55 -13.75 -88.85 -16.95 -94.2 -20.55 -95.85 -23.1 -97.7 -27.75 -98.0" fill="#961c18" fill-rule="evenodd" stroke="none"/>
    <path d="M-31.8 -22.1 Q-34.2 -28.7 -33.6 -35.85 -33.45 -42.45 -31.5 -47.25 L-30.4 -49.7 Q-30.95 -49.2 -34.4 -47.45 -37.95 -45.6 -43.25 -46.25 -49.0 -47.4 -52.05 -51.1 -55.15 -54.35 -56.5 -58.3 -57.75 -61.7 -57.8 -66.1 -57.85 -69.7 -57.1 -73.95 -55.6 -83.35 -48.25 -90.65 -40.3 -97.25 -32.2 -98.05 -29.8 -98.2 -27.75 -98.0 -23.1 -97.7 -20.55 -95.85 -16.95 -94.2 -13.75 -88.85 -10.5 -83.55 -11.15 -70.55 L-9.85 -71.3 -1.5 -73.95 Q7.8 -76.3 20.8 -73.2 18.0 -77.0 17.0 -82.6 16.0 -88.45 18.2 -93.25 22.85 -100.1 31.2 -99.6 L32.25 -99.5 Q41.1 -98.15 46.45 -93.85 51.8 -89.0 54.1 -82.6 56.05 -76.0 52.7 -68.95 49.95 -65.35 46.3 -63.55 42.55 -61.7 38.85 -60.95 39.5 -60.85 42.45 -55.7 45.3 -50.6 46.45 -41.05 47.0 -35.1 44.9 -27.6 42.2 -20.0 35.05 -13.35 27.85 -6.8 13.95 -3.7 -4.2 -0.55 -15.75 -6.1 -26.95 -11.7 -30.6 -19.2 L-31.8 -22.1" fill="#d72019" fill-rule="evenodd" stroke="none"/>
    <path d="M31.2 -99.6 L34.6 -99.5 Q43.7 -98.1 49.2 -93.7 54.7 -88.7 57.05 -82.15 59.05 -75.4 55.6 -68.15 52.75 -64.45 49.0 -62.6 45.2 -60.7 41.4 -59.9 42.05 -59.85 45.1 -54.55 48.0 -49.3 49.2 -39.5 49.75 -33.4 47.6 -25.7 44.8 -17.9 37.45 -11.1 30.1 -4.35 15.85 -1.2 -2.8 2.05 -14.65 -3.65 -26.15 -9.4 -29.9 -17.05 -31.05 -19.55 -31.8 -22.1 -34.2 -28.7 -33.6 -35.85 -33.45 -42.45 -31.5 -47.25 L-33.8 -46.1 Q-37.4 -44.2 -42.85 -44.85 -48.75 -46.05 -51.9 -49.8 -55.1 -53.15 -56.45 -57.2 -57.9 -61.05 -57.8 -66.1 -57.85 -69.7 -57.1 -73.95 -55.6 -83.35 -48.25 -90.65 -40.3 -97.25 -32.2 -98.05 -29.8 -98.2 -27.75 -98.0 -22.4 -97.8 -19.6 -95.75 -15.9 -94.05 -12.6 -88.55 -9.45 -83.45 -9.85 -71.3 L-1.5 -73.95 Q7.8 -76.3 20.8 -73.2 18.0 -77.0 17.0 -82.6 16.0 -88.45 18.2 -93.25 22.85 -100.1 31.2 -99.6 L32.25 -99.5 Q41.1 -98.15 46.45 -93.85 51.8 -89.0 54.1 -82.6 56.05 -76.0 52.7 -68.95 49.95 -65.35 46.3 -63.55 42.55 -61.7 38.85 -60.95 39.5 -60.85 42.45 -55.7 45.3 -50.6 46.45 -41.05 47.0 -35.1 44.9 -27.6 42.2 -20.0 35.05 -13.35 27.85 -6.8 13.95 -3.7 -4.2 -0.55 -15.75 -6.1 -26.95 -11.7 -30.6 -19.2 L-31.8 -22.1 M-27.75 -98.0 Q-23.1 -97.7 -20.55 -95.85 -16.95 -94.2 -13.75 -88.85 -10.5 -83.55 -11.15 -70.55 L-9.85 -71.3 M-31.5 -47.25 L-30.4 -49.7 Q-30.95 -49.2 -34.4 -47.45 -37.95 -45.6 -43.25 -46.25 -49.0 -47.4 -52.05 -51.1 -55.15 -54.35 -56.5 -58.3 -57.75 -61.7 -57.8 -66.1" fill="none" stroke="#961c18" stroke-linecap="round" stroke-linejoin="round" stroke-width="2.0"/>
  </g>
</svg>
