<?xml version="1.0" encoding="UTF-8" standalone="no"?>
<svg xmlns:xlink="http://www.w3.org/1999/xlink" height="9.35px" width="9.45px" xmlns="http://www.w3.org/2000/svg">
  <g transform="matrix(1.0, 0.0, 0.0, 1.0, -78.05, -32.9)">
    <path d="M84.6 33.1 Q85.65 33.15 86.5 34.25 87.45 35.35 87.5 37.2 87.45 39.0 86.6 40.2 85.75 41.45 84.6 41.7 L85.35 41.6 86.15 41.45 82.0 42.25 Q80.3 42.2 79.2 40.85 78.1 39.55 78.05 37.55 78.1 35.6 79.2 34.25 80.3 32.95 82.0 32.9 L84.6 33.1" fill="#8b2b09" fill-rule="evenodd" stroke="none"/>
    <path d="M82.35 41.65 Q81.1 41.6 80.2 40.7 79.25 39.8 79.05 38.35 81.75 39.1 84.9 39.1 L85.0 41.1 82.35 41.65" fill="#f0620e" fill-rule="evenodd" stroke="none"/>
    <path d="M82.35 33.45 L84.55 33.6 84.9 39.05 Q81.75 39.05 79.05 38.25 L79.0 37.5 Q79.05 35.75 80.0 34.65 80.9 33.5 82.35 33.45" fill="#f39044" fill-rule="evenodd" stroke="none"/>
    <path d="M87.35 37.3 Q87.35 38.9 86.55 40.0 85.85 41.0 84.55 41.05 83.2 41.0 82.35 40.0 81.5 38.95 81.45 37.35 81.5 35.75 82.35 34.7 83.2 33.65 84.55 33.6 85.85 33.65 86.55 34.65 87.35 35.7 87.35 37.3" fill="#8b2b09" fill-rule="evenodd" stroke="none"/>
    <path d="M87.05 37.3 Q87.05 38.65 86.45 39.55 85.9 40.45 84.8 40.5 83.75 40.45 83.0 39.55 82.3 38.65 82.25 37.3 82.3 35.9 83.0 35.0 83.75 34.1 84.8 34.05 85.8 34.1 86.45 35.0 87.0 35.9 87.05 37.3" fill="#f39044" fill-rule="evenodd" stroke="none"/>
    <path d="M87.05 37.75 Q87.05 38.9 86.45 39.65 85.9 40.45 84.8 40.5 83.75 40.45 83.0 39.75 82.3 38.95 82.25 37.75 82.3 36.6 83.0 35.8 83.75 35.05 84.8 35.0 85.8 35.05 86.45 35.8 87.0 36.6 87.05 37.75" fill="#f0620e" fill-rule="evenodd" stroke="none"/>
  </g>
</svg>
