<?xml version="1.0" encoding="UTF-8" standalone="no"?>
<svg xmlns:xlink="http://www.w3.org/1999/xlink" height="121.6px" width="108.15px" xmlns="http://www.w3.org/2000/svg">
  <g transform="matrix(1.0, 0.0, 0.0, 1.0, 3.2, 6.45)">
    <path d="M47.9 60.75 L65.5 58.75 Q64.65 60.55 63.9 65.2 63.15 69.9 62.55 76.15 L61.35 89.1 60.55 101.45 59.95 110.75 59.8 114.35 49.95 115.15 Q50.35 113.25 50.4 108.6 L50.15 97.85 49.55 85.3 48.85 73.25 48.2 64.3 47.9 60.75" fill="#a2360d" fill-rule="evenodd" stroke="none"/>
    <path d="M50.5 59.25 L62.5 57.75 Q62.0 59.55 61.45 64.15 L60.5 75.05 Q60.0 81.25 59.65 87.85 L58.95 100.1 58.55 109.2 58.4 112.85 52.9 112.5 53.1 106.1 52.75 95.55 52.15 83.2 51.35 71.45 50.75 62.65 50.5 59.25" fill="#bd6e41" fill-rule="evenodd" stroke="none"/>
    <path d="M57.2 54.25 L63.4 53.85 Q62.35 57.5 61.6 63.15 60.9 68.85 60.45 75.55 59.9 82.2 59.6 88.8 L59.2 100.9 59.05 109.7 59.0 113.1 56.05 112.55 Q55.9 110.75 55.9 105.85 L56.0 94.35 56.35 80.85 56.75 67.85 57.05 58.05 57.2 54.25" fill="#ab4b1e" fill-rule="evenodd" stroke="none"/>
    <path d="M53.2 66.15 L52.2 59.2 64.7 58.15 60.25 74.1 57.6 77.15 Q57.25 73.2 56.2 70.75 55.15 68.3 54.25 67.2 L53.2 66.15" fill="#ab4b1e" fill-rule="evenodd" stroke="none"/>
    <path d="M74.8 13.15 Q84.4 14.05 96.75 12.95 100.1 14.05 102.15 17.35 104.1 20.7 104.7 25.45 105.25 30.3 104.5 35.75 103.7 41.2 101.5 46.55 99.35 51.95 95.75 56.4 92.2 60.9 87.25 63.7 L82.35 64.25 69.15 65.1 59.8 65.5 51.05 65.85 44.5 66.15 41.95 66.3 25.9 56.95 19.3 -6.3 Q22.3 -6.8 25.75 -5.75 29.15 -4.7 32.55 -2.85 35.9 -1.0 38.65 1.05 L43.1 4.4 44.8 5.85 48.25 7.4 Q51.8 8.85 58.5 10.6 65.15 12.35 74.8 13.15" fill="#ad0000" fill-rule="evenodd" stroke="none"/>
    <path d="M87.1 62.05 L41.15 62.0 23.2 54.95 45.0 7.1 50.2 9.25 Q54.6 10.85 61.7 12.55 68.7 14.25 77.55 14.95 L95.95 14.25 Q99.0 14.45 100.9 17.2 102.8 20.0 103.45 24.5 104.15 29.0 103.55 34.3 102.9 39.65 100.9 45.0 98.9 50.35 95.45 54.8 92.05 59.3 87.1 62.05" fill="#e47058" fill-rule="evenodd" stroke="none"/>
    <path d="M93.85 56.05 Q90.55 60.45 85.7 63.15 L81.15 63.45 68.6 64.1 59.95 64.4 51.3 64.8 44.55 65.1 41.9 65.2 22.8 55.35 34.75 1.6 36.9 3.4 Q39.05 5.15 43.6 7.6 48.1 10.05 55.05 12.35 62.1 14.6 71.8 15.8 81.5 17.0 93.95 16.1 96.9 16.35 98.8 19.05 100.7 21.8 101.4 26.25 102.1 30.7 101.5 35.9 100.95 41.2 99.0 46.4 97.15 51.7 93.85 56.05" fill="#c11614" fill-rule="evenodd" stroke="none"/>
    <path d="M100.75 36.8 Q99.65 42.7 97.9 46.9 96.2 51.1 94.4 53.7 92.6 56.35 91.4 57.5 L90.15 58.75 87.1 59.05 79.5 59.8 69.35 60.7 58.75 61.6 49.7 62.1 Q45.8 62.3 44.3 62.05 42.55 61.75 40.8 60.1 39.0 58.4 37.4 56.05 L34.55 51.45 32.5 47.6 31.75 46.05 Q43.6 49.4 53.15 50.2 62.75 50.95 70.25 49.9 77.65 48.85 83.2 46.85 88.65 44.8 92.35 42.55 L98.1 38.65 Q100.2 37.05 100.75 36.8" fill="#b00b0b" fill-rule="evenodd" stroke="none"/>
    <path d="M37.5 3.25 Q41.45 8.15 44.75 16.95 46.2 21.65 46.4 27.95 46.55 34.25 45.9 40.95 45.35 47.6 44.4 53.35 L42.75 62.65 41.95 66.3 39.7 65.3 33.75 63.15 Q29.95 61.95 25.2 61.1 L19.9 60.1 17.55 59.55 16.95 59.35 17.0 59.35 15.2 56.1 11.1 47.75 Q8.7 42.55 6.65 36.3 4.55 30.05 3.8 23.75 3.05 17.45 4.55 12.1 5.65 8.45 8.15 5.0 10.55 1.6 14.0 -0.9 17.35 -3.4 21.35 -4.2 25.3 -4.95 29.45 -3.35 33.6 -1.65 37.5 3.25" fill="#ad0000" fill-rule="evenodd" stroke="none"/>
    <path d="M39.65 9.85 Q41.35 13.1 42.75 17.35 44.2 22.25 44.4 28.35 44.65 34.5 44.1 40.8 43.65 47.1 42.85 52.4 L41.4 61.0 40.75 64.3 39.15 63.7 35.15 62.4 29.9 60.75 24.6 59.55 19.9 58.55 18.1 57.9 17.75 57.75 16.2 54.95 12.55 47.65 Q10.4 43.05 8.35 37.5 6.4 31.9 5.35 26.2 12.5 19.7 21.3 15.65 30.1 11.55 39.65 9.85" fill="#e47058" fill-rule="evenodd" stroke="none"/>
    <path d="M40.8 18.1 Q42.1 22.7 42.35 28.45 42.6 34.25 42.1 40.1 L40.85 50.95 39.5 58.95 38.85 62.1 36.65 61.15 31.05 59.25 Q27.6 58.15 23.5 57.4 L18.25 56.35 17.0 56.0 17.1 55.95 15.4 53.0 Q13.8 50.15 11.55 45.45 9.35 40.75 7.35 35.1 5.45 29.55 4.7 23.95 4.0 18.4 5.4 13.8 6.9 9.2 9.95 5.6 13.0 2.0 17.0 0.2 20.95 -1.6 25.3 -0.7 29.6 0.2 33.6 4.7 37.65 9.15 40.8 18.1" fill="#d72019" fill-rule="evenodd" stroke="none"/>
    <path d="M35.45 26.1 L37.7 27.2 Q38.15 29.1 37.9 31.0 L37.25 34.2 36.85 35.6 Q31.85 33.7 27.35 33.0 L19.15 32.4 13.4 32.8 11.25 33.15 Q10.7 32.8 10.35 31.7 L9.75 29.2 9.45 26.85 9.4 25.8 Q15.15 23.55 20.25 23.35 L29.3 24.1 Q33.2 25.05 35.45 26.1" fill="#ad0000" fill-rule="evenodd" stroke="none"/>
    <path d="M39.65 9.95 L30.7 9.05 Q25.95 9.05 21.2 10.55 16.4 12.15 12.3 15.85 8.2 19.65 5.35 26.3 4.7 22.65 4.7 19.2 4.7 15.85 5.65 12.9 7.1 8.45 9.9 4.85 12.7 1.15 16.35 -0.9 20.1 -3.05 24.15 -2.95 28.2 -2.85 32.2 0.2 36.2 3.25 39.65 9.95" fill="#c11614" fill-rule="evenodd" stroke="none"/>
    <path d="M22.2 -5.35 L20.55 -3.2 19.7 -3.4 Q15.15 -2.3 12.25 0.55 9.35 3.45 7.6 7.1 5.95 10.8 5.1 14.25 4.35 17.75 4.15 20.0 L3.95 22.4 -0.05 24.2 -0.4 17.15 Q-0.4 13.6 0.45 10.15 1.35 6.65 3.85 3.4 6.35 0.1 11.05 -2.8 14.9 -5.05 17.7 -5.5 L22.2 -5.35" fill="#ad0000" fill-rule="evenodd" stroke="none"/>
    <path d="M27.05 -3.5 L14.0 -3.8 Q9.3 -2.1 6.45 1.2 3.6 4.45 2.2 8.4 0.8 12.25 0.35 15.85 -0.1 19.45 -0.05 21.8 L0.0 24.25 -3.2 22.6 Q-2.85 15.4 -0.95 10.35 1.0 5.3 3.55 2.15 6.05 -0.95 8.05 -2.45 10.15 -4.0 10.8 -4.2 L13.1 -5.15 16.9 -6.2 21.65 -6.0 Q24.25 -5.5 27.05 -3.5" fill="#ad0000" fill-rule="evenodd" stroke="none"/>
    <path d="M11.6 -2.9 Q15.35 -5.15 17.95 -5.5 L22.25 -5.35 20.7 -3.35 19.8 -3.5 Q15.55 -2.5 12.65 0.35 9.75 3.15 8.0 6.75 6.2 10.45 5.3 13.9 4.35 17.35 4.1 19.6 L3.8 22.0 -0.3 23.35 Q-0.7 18.95 -0.15 14.3 0.35 9.6 3.05 5.2 5.7 0.75 11.6 -2.9" fill="#ad0000" fill-rule="evenodd" stroke="none"/>
    <path d="M90.8 57.9 L94.3 57.65 Q93.7 58.7 92.1 60.0 L89.2 62.3 87.75 63.35 40.75 66.95 Q41.4 66.15 41.85 64.5 L42.7 61.1 43.25 58.1 43.4 56.8 Q44.4 57.85 48.4 58.3 L58.2 58.9 70.25 58.75 81.9 58.35 90.8 57.9" fill="#d72019" fill-rule="evenodd" stroke="none"/>
    <path d="M90.95 58.0 L94.3 57.65 Q93.7 58.7 92.1 60.0 L89.2 62.3 87.75 63.35 40.75 66.95 Q41.4 66.15 41.85 64.5 L42.7 61.1 43.25 58.1 43.4 56.8 Q49.45 58.2 56.35 58.7 L69.95 59.1 82.15 58.7 90.95 58.0" fill="#c75409" fill-rule="evenodd" stroke="none"/>
    <path d="M92.05 58.55 L90.35 60.4 88.25 62.05 87.2 62.75 42.4 65.85 43.2 62.85 43.8 59.65 43.95 58.2 62.75 60.05 Q71.4 60.35 78.05 60.0 L88.25 59.05 92.05 58.55" fill="#c65b21" fill-rule="evenodd" stroke="none"/>
    <path d="M45.4 8.5 L44.1 7.85 41.2 6.2 38.2 4.15 35.0 1.1 Q33.0 -0.8 30.6 -2.35 28.15 -3.9 25.65 -3.75 L26.05 -3.95 27.7 -4.0 30.85 -2.95 Q32.95 -1.9 35.65 0.25 L40.8 4.5 Q43.35 6.55 45.15 7.2 L45.4 8.5" fill="#e47058" fill-rule="evenodd" stroke="none"/>
    <path d="M49.4 59.05 L49.55 59.15 47.75 59.05 Q46.6 59.1 45.6 59.65 44.6 60.15 44.5 61.25 44.45 62.25 43.9 63.3 L42.9 65.05 42.65 65.55 43.15 63.75 43.75 60.55 43.95 58.7 44.35 58.35 44.7 58.3 48.25 58.75 49.4 59.05" fill="#e8ae82" fill-rule="evenodd" stroke="none"/>
    <path d="M74.2 20.55 L66.6 19.75 55.95 20.1 Q50.1 20.8 43.9 23.1 L45.65 20.55 48.35 19.75 55.55 18.4 Q60.1 17.8 65.65 18.3 71.25 18.75 77.1 21.15 L74.2 20.55" fill="#ad0000" fill-rule="evenodd" stroke="none"/>
    <path d="M31.7 23.55 L30.2 23.4 Q29.45 22.55 28.0 21.65 26.45 20.7 24.35 20.2 22.2 19.7 19.4 20.2 16.6 20.7 13.25 22.8 L12.0 22.35 6.45 14.0 8.15 12.35 Q9.8 10.85 12.85 9.05 15.85 7.3 19.85 6.5 23.85 5.7 28.6 7.05 33.4 8.4 38.55 13.15 L31.7 23.55" fill="#732d00" fill-rule="evenodd" stroke="none"/>
    <path d="M27.6 7.0 L14.95 7.95 14.65 7.2 Q14.5 6.4 14.6 5.1 14.7 3.8 15.65 2.1 16.95 0.0 18.6 -0.7 L22.0 -1.05 Q23.65 -0.75 24.75 0.25 25.8 1.3 26.45 2.85 L27.3 5.65 27.6 7.0" fill="#732d00" fill-rule="evenodd" stroke="none"/>
    <path d="M30.2 22.65 L28.95 21.55 Q27.75 20.6 25.4 19.75 L19.65 19.35 Q16.3 19.85 11.95 22.5 L5.8 13.35 7.5 11.7 Q9.15 10.2 12.2 8.4 15.2 6.65 19.2 5.85 23.2 5.05 27.95 6.4 32.75 7.75 37.9 12.5 L30.2 22.65" fill="#953b00" fill-rule="evenodd" stroke="none"/>
    <path d="M26.4 7.15 L13.75 8.1 13.45 7.35 Q13.3 6.55 13.4 5.25 13.5 3.95 14.45 2.25 15.75 0.15 17.4 -0.55 L20.8 -0.9 Q22.45 -0.6 23.55 0.4 24.6 1.45 25.25 3.0 L26.1 5.8 26.4 7.15" fill="#953b00" fill-rule="evenodd" stroke="none"/>
    <path d="M23.75 8.15 Q25.9 8.5 28.45 9.45 31.0 10.45 33.65 12.5 L29.6 20.05 28.4 19.1 Q27.15 18.35 24.9 17.7 L19.55 17.55 Q16.55 18.0 12.85 20.45 L7.55 13.7 8.4 12.85 Q9.3 12.1 10.85 10.9 12.35 9.8 14.5 8.85 14.4 7.9 14.85 6.15 15.35 4.5 16.25 3.2 17.7 1.4 19.4 1.4 21.0 1.4 22.45 2.75 23.05 3.3 23.3 4.35 L23.55 6.45 23.75 8.15" fill="#732d00" fill-rule="evenodd" stroke="none"/>
    <path d="M24.05 8.35 L24.85 8.45 Q18.0 12.2 12.05 17.35 L9.65 13.7 11.15 12.2 Q12.65 10.8 15.8 9.3 15.75 8.35 16.1 6.9 16.5 5.4 17.35 4.15 18.8 2.3 20.05 2.2 21.2 2.1 22.6 3.4 23.45 4.3 23.7 5.85 L24.05 8.35" fill="#fd8d1c" fill-rule="evenodd" stroke="none"/>
    <path d="M12.0 17.45 Q17.9 12.25 24.85 8.55 L28.35 9.55 Q30.3 10.2 32.25 11.2 25.95 13.7 20.3 17.45 17.4 17.85 13.65 19.95 L12.0 17.45" fill="#fcae53" fill-rule="evenodd" stroke="none"/>
    <path d="M20.3 17.45 Q25.95 13.7 32.25 11.25 L34.65 12.8 29.6 20.0 28.55 19.15 Q27.45 18.4 25.35 17.75 L20.3 17.45" fill="#fda13d" fill-rule="evenodd" stroke="none"/>
    <path d="M33.75 -0.2 Q37.2 2.75 39.55 6.5 41.9 10.3 43.35 13.9 44.8 17.45 45.45 19.8 L46.05 22.25 37.55 25.15 33.45 23.7 33.25 22.2 32.7 18.5 32.1 13.95 Q31.35 8.25 29.8 3.9 28.3 -0.4 25.45 -2.45 23.8 -3.5 22.5 -4.0 L21.75 -4.15 Q18.45 -4.75 15.6 -4.1 12.7 -3.45 10.45 -2.3 L6.85 -0.1 10.05 -2.75 Q11.95 -4.25 14.9 -5.1 17.85 -5.9 22.1 -5.25 L22.2 -5.45 23.4 -5.05 25.8 -4.15 Q30.4 -3.1 33.75 -0.2" fill="#ad0000" fill-rule="evenodd" stroke="none"/>
    <path d="M45.55 17.95 L46.25 20.25 37.25 23.8 36.85 22.4 35.6 17.75 33.6 9.0 Q32.5 4.45 30.15 1.6 27.8 -1.2 25.35 -2.6 22.85 -4.0 21.45 -4.3 L21.85 -4.8 22.2 -5.4 23.95 -4.75 24.55 -4.35 Q29.4 -3.65 33.05 -1.0 36.7 1.7 39.2 5.2 41.75 8.8 43.25 12.25 44.85 15.65 45.55 17.95" fill="#c11614" fill-rule="evenodd" stroke="none"/>
    <path d="M22.95 -5.1 Q27.2 -4.15 29.85 -1.05 32.6 2.1 34.1 6.3 35.6 10.45 36.3 14.45 L37.15 21.1 37.25 23.85 34.7 23.25 34.5 21.7 34.0 18.0 33.35 13.5 Q32.25 6.05 29.2 1.4 26.1 -3.25 21.8 -4.1 L16.85 -4.3 Q14.55 -3.95 12.6 -3.2 8.65 -1.25 6.15 2.0 3.7 5.2 2.35 8.85 1.0 12.5 0.45 15.8 -0.1 19.1 -0.2 21.2 L-0.25 23.35 -2.4 22.3 Q-1.65 13.9 0.55 8.8 2.7 3.6 5.15 1.0 7.65 -1.65 9.4 -2.55 11.65 -4.1 15.0 -5.05 18.45 -5.9 22.95 -5.1" fill="#e47058" fill-rule="evenodd" stroke="none"/>
    <path d="M35.4 57.65 L18.45 54.9 Q18.2 54.7 17.1 52.45 15.95 50.25 14.55 47.05 13.15 43.9 12.1 40.85 11.05 37.75 11.0 35.9 L12.95 35.25 18.5 34.5 27.3 35.2 Q32.4 36.15 38.85 39.1 L39.1 40.8 Q39.2 42.5 38.5 46.6 37.8 50.65 35.4 57.65" fill="#ad0000" fill-rule="evenodd" stroke="none"/>
    <path d="M14.2 4.75 L14.6 3.5 Q14.95 2.4 16.0 1.25 17.0 0.1 18.8 -0.2 L18.9 0.3 18.05 0.55 Q17.15 0.8 16.05 1.7 15.0 2.7 14.2 4.75" fill="#ba7337" fill-rule="evenodd" stroke="none"/>
    <path d="M10.25 18.85 L12.55 20.75 15.25 19.85 12.55 21.3 10.25 18.85" fill="#ba7337" fill-rule="evenodd" stroke="none"/>
    <path d="M67.65 45.95 L71.55 45.85 73.15 45.7 72.25 47.6 71.1 50.55 70.5 52.05 73.3 52.4 Q72.7 53.1 72.55 54.25 L72.3 56.3 72.3 57.3 Q71.3 56.75 69.5 56.6 L65.9 56.4 62.8 56.6 61.45 56.7 62.45 51.9 67.25 51.7 67.3 50.3 63.6 50.75 63.15 45.1 Q65.4 45.85 67.65 45.95" fill="#ad0000" fill-rule="evenodd" stroke="none"/>
    <path d="M70.9 48.45 L69.9 51.05 69.5 52.5 72.1 53.05 71.8 54.35 71.75 55.8 71.8 56.5 Q70.8 55.85 69.2 55.7 L66.05 55.5 63.35 55.6 62.2 55.7 63.0 52.65 67.2 52.5 67.95 49.8 64.15 50.0 63.7 46.25 67.7 47.1 70.65 46.95 71.75 46.7 70.9 48.45" fill="#ffff00" fill-rule="evenodd" stroke="none"/>
    <path d="M61.85 40.65 L64.1 41.25 Q63.15 41.65 62.4 43.05 L61.1 45.7 60.65 47.1 50.1 45.5 Q50.55 44.7 50.55 43.2 L50.25 39.95 49.75 37.1 49.45 35.9 Q53.1 37.75 56.4 39.0 L61.85 40.65" fill="#ad0000" fill-rule="evenodd" stroke="none"/>
    <path d="M61.25 42.9 Q60.7 44.05 60.5 45.05 L60.3 46.1 51.15 44.95 Q51.65 43.9 51.45 42.2 L50.85 38.85 50.35 37.2 Q53.7 38.9 56.45 39.85 L60.8 41.2 62.55 41.55 Q61.65 41.85 61.25 42.9" fill="#ffff00" fill-rule="evenodd" stroke="none"/>
    <path d="M60.75 48.35 L62.8 48.0 Q62.2 48.4 61.75 49.8 61.2 51.2 60.95 52.85 L60.35 55.65 60.15 56.95 Q57.25 56.0 53.95 55.75 L48.4 55.55 45.95 55.65 Q46.6 54.65 46.9 52.9 L47.25 49.35 47.3 46.35 47.3 45.05 Q51.8 47.55 55.3 48.15 L60.75 48.35" fill="#ad0000" fill-rule="evenodd" stroke="none"/>
    <path d="M59.8 49.7 L61.15 49.3 Q60.45 49.9 60.2 51.4 59.8 52.9 59.75 54.35 L59.7 55.75 Q56.75 54.8 53.9 54.65 51.0 54.5 49.1 54.65 L47.05 54.85 Q47.85 53.45 48.1 51.45 L48.15 48.0 48.05 46.4 Q52.5 48.9 55.5 49.4 L59.8 49.7" fill="#ffff00" fill-rule="evenodd" stroke="none"/>
    <path d="M80.3 46.5 L81.7 46.1 81.1 53.4 79.2 52.9 76.3 52.7 73.6 52.7 72.45 52.75 Q73.2 52.25 73.1 50.9 L72.55 48.5 72.1 47.25 Q74.55 47.5 76.7 47.2 L80.3 46.5" fill="#ad0000" fill-rule="evenodd" stroke="none"/>
    <path d="M80.75 47.3 L80.35 52.5 Q79.6 52.0 78.0 51.9 L75.0 51.85 73.5 51.9 Q73.9 51.3 73.85 50.45 L73.6 48.95 73.3 48.25 77.35 48.3 79.85 47.65 80.75 47.3" fill="#ffff00" fill-rule="evenodd" stroke="none"/>
    <path d="M94.5 39.95 L97.25 39.7 Q96.55 39.9 95.55 41.25 L93.4 44.55 91.7 47.8 90.9 49.25 94.4 52.95 Q93.55 53.15 92.7 54.15 L91.45 56.25 90.9 57.35 88.2 52.9 Q88.1 52.65 87.5 53.35 L86.2 55.15 84.95 57.05 84.35 57.95 Q84.15 56.95 82.95 56.4 81.85 55.8 80.45 55.5 L78.1 55.15 77.05 55.1 79.6 53.75 83.1 50.8 86.1 47.9 87.45 46.55 85.05 46.9 82.35 47.65 81.05 48.1 Q81.45 47.25 81.25 45.7 L80.45 42.5 79.5 39.7 79.0 38.5 Q83.45 39.85 87.6 40.05 91.8 40.25 94.5 39.95" fill="#ad0000" fill-rule="evenodd" stroke="none"/>
    <path d="M92.55 41.25 L94.9 41.0 Q94.1 41.25 93.25 42.4 L91.5 45.2 Q90.65 46.75 90.2 48.0 L89.6 49.25 93.1 52.35 Q92.25 52.55 91.7 53.45 91.2 54.4 91.05 55.2 L90.8 56.25 88.0 51.75 Q87.5 51.85 86.7 53.05 L85.1 55.6 84.45 56.9 Q84.0 55.6 82.85 55.15 L80.55 54.75 79.7 54.8 82.05 53.35 85.2 50.25 87.9 47.05 89.0 45.65 86.5 45.8 83.65 46.4 82.25 46.75 Q82.8 45.65 82.4 44.1 L81.6 41.35 80.95 40.05 Q83.85 41.05 87.0 41.25 L92.55 41.25" fill="#ffff00" fill-rule="evenodd" stroke="none"/>
    <path d="M17.2 52.75 L18.75 52.85 20.2 53.05 28.0 54.0 34.6 55.15 35.55 55.35 36.1 55.45 41.15 56.5 43.35 56.95 Q43.85 59.95 43.2 62.25 L41.65 65.85 40.75 67.2 Q35.8 64.1 31.6 62.75 27.35 61.35 24.15 61.0 L19.15 60.75 17.3 60.9 13.5 52.75 17.2 52.75 M19.35 56.3 L19.45 55.65 Q19.6 55.15 20.0 55.05 20.45 55.0 20.8 55.45 L21.35 56.6 Q21.45 57.3 21.2 57.85 21.0 58.35 20.6 58.45 L20.35 58.45 20.4 58.45 20.7 58.4 21.0 57.65 20.7 57.85 20.0 57.75 Q19.6 57.45 19.35 56.3 M23.25 54.15 L22.5 54.05 19.85 53.75 18.5 53.65 15.35 53.65 17.75 59.85 17.9 59.8 17.9 59.85 18.35 59.8 20.1 59.8 20.75 59.85 Q23.7 59.9 28.55 61.0 30.65 61.4 32.9 62.25 L37.5 64.25 40.5 65.85 41.35 63.95 Q42.05 61.95 42.25 57.8 L40.3 57.35 35.15 56.25 28.35 54.9 23.25 54.15 M32.95 59.2 L32.95 58.8 Q33.05 57.8 33.6 57.2 34.1 56.55 34.75 56.6 35.4 56.7 35.75 57.45 36.1 58.2 36.0 59.2 35.85 60.15 35.35 60.75 34.8 61.35 34.15 61.3 L34.4 61.3 35.15 60.45 34.6 60.65 Q34.1 60.65 33.6 60.2 33.1 59.7 33.2 58.05 L33.0 58.75 32.95 59.2" fill="#c75409" fill-rule="evenodd" stroke="none"/>
    <path d="M19.95 54.9 Q19.45 55.0 19.15 55.7 18.85 56.35 19.0 57.25 19.15 58.2 19.65 58.75 20.1 59.3 20.7 59.2 21.3 59.05 21.55 58.4 21.8 57.75 21.65 56.85 L21.0 55.35 Q20.55 54.8 19.95 54.9 M17.9 59.8 L17.75 59.85 15.35 53.65 18.5 53.65 19.85 53.75 22.5 54.05 23.25 54.15 30.7 55.35 34.7 56.2 34.05 56.15 34.55 56.3 Q33.7 56.3 33.1 57.0 32.35 57.75 32.2 59.05 32.05 60.25 32.6 61.2 33.0 62.1 33.95 62.2 34.85 62.3 35.55 61.6 36.3 60.85 36.5 59.55 36.6 58.25 36.1 57.35 L35.55 56.65 37.3 57.35 Q38.35 57.8 38.7 58.15 L39.55 59.05 40.05 60.55 39.6 63.4 39.15 65.05 37.5 64.25 32.9 62.25 Q30.65 61.4 28.55 61.0 23.7 59.9 20.75 59.85 L20.1 59.8 18.35 59.8 17.9 59.8 M39.7 57.35 L38.65 57.1 40.25 57.45 40.25 57.5 39.7 57.35" fill="#fcae53" fill-rule="evenodd" stroke="none"/>
    <path d="M19.35 56.3 L19.35 56.35 19.35 56.85 19.65 57.9 Q19.85 58.35 20.35 58.4 L20.35 58.45 20.6 58.45 Q21.0 58.35 21.2 57.85 21.45 57.3 21.35 56.6 L20.8 55.45 Q20.45 55.0 20.0 55.05 19.6 55.15 19.45 55.65 L19.35 56.3 M19.95 54.9 Q20.55 54.8 21.0 55.35 L21.65 56.85 Q21.8 57.75 21.55 58.4 21.3 59.05 20.7 59.2 20.1 59.3 19.65 58.75 19.15 58.2 19.0 57.25 18.85 56.35 19.15 55.7 19.45 55.0 19.95 54.9 M34.55 56.3 L34.75 56.3 Q35.15 56.4 35.55 56.65 L36.1 57.35 Q36.6 58.25 36.5 59.55 36.3 60.85 35.55 61.6 34.85 62.3 33.95 62.2 33.0 62.1 32.6 61.2 32.05 60.25 32.2 59.05 32.35 57.75 33.1 57.0 33.7 56.3 34.55 56.3 M34.15 61.3 Q34.8 61.35 35.35 60.75 35.85 60.15 36.0 59.2 36.1 58.2 35.75 57.45 35.4 56.7 34.75 56.6 34.1 56.55 33.6 57.2 33.05 57.8 32.95 58.8 L32.95 59.2 32.95 60.2 Q33.05 60.95 33.9 61.3 L34.15 61.3" fill="#b84100" fill-rule="evenodd" stroke="none"/>
    <path d="M20.35 58.45 L20.35 58.4 Q19.85 58.35 19.65 57.9 L19.35 56.85 19.35 56.35 19.35 56.3 Q19.6 57.45 20.0 57.75 L20.7 57.85 21.0 57.65 20.7 58.4 20.4 58.45 20.35 58.45 M34.15 61.3 L33.9 61.3 Q33.05 60.95 32.95 60.2 L32.95 59.2 33.0 58.75 33.2 58.05 Q33.1 59.7 33.6 60.2 34.1 60.65 34.6 60.65 L35.15 60.45 34.4 61.3 34.15 61.3" fill="#d47d2d" fill-rule="evenodd" stroke="none"/>
    <path d="M23.25 54.15 L28.35 54.9 35.15 56.25 40.3 57.35 42.25 57.8 Q42.05 61.95 41.35 63.95 L40.5 65.85 37.5 64.25 39.15 65.05 39.6 63.4 40.05 60.55 39.55 59.05 38.7 58.15 Q38.35 57.8 37.3 57.35 L35.55 56.65 Q35.15 56.4 34.75 56.3 L34.55 56.3 34.05 56.15 34.7 56.2 30.7 55.35 23.25 54.15 M18.35 59.8 L17.9 59.85 17.9 59.8 18.35 59.8 M39.7 57.35 L40.25 57.5 40.25 57.45 38.65 57.1 39.7 57.35" fill="#fcd197" fill-rule="evenodd" stroke="none"/>
    <path d="M52.5 49.95 L56.05 50.95 57.8 51.4 54.9 51.7 51.95 51.2 50.6 50.8 49.6 52.3 48.8 52.75 Q49.45 52.1 49.65 51.15 L49.7 49.4 49.45 48.5 Q50.55 49.25 52.5 49.95 M56.45 42.3 L54.8 42.4 53.95 42.4 Q53.95 43.05 53.55 43.5 L52.75 44.25 52.25 44.55 Q52.75 44.05 52.7 42.85 L52.55 40.65 52.25 39.6 Q53.05 40.35 54.4 40.85 L56.7 41.7 57.8 41.95 56.45 42.3 M63.8 53.3 L67.0 53.2 Q66.15 53.25 65.4 53.7 L63.9 54.65 63.3 55.15 63.8 53.3 M65.15 48.6 L64.95 49.1 64.95 47.9 64.65 47.25 66.15 47.6 66.6 47.95 Q65.5 48.0 65.15 48.6 M76.3 49.35 L78.45 49.15 78.8 49.05 77.65 49.5 75.55 50.7 74.55 51.3 74.65 49.95 74.55 48.95 Q75.15 49.4 76.3 49.35 M87.45 42.65 L89.0 42.8 85.7 43.3 84.3 43.1 Q84.45 44.3 84.0 45.15 L83.5 46.1 83.35 44.3 82.7 42.1 82.25 41.0 Q82.8 41.6 84.45 42.0 L87.45 42.65" fill="#ffffff" fill-rule="evenodd" stroke="none"/>
    <path d="M19.0 53.0 L17.5 52.85 17.4 52.6 Q16.15 50.4 14.8 47.2 13.4 44.05 12.35 41.0 11.3 37.95 11.25 36.1 L13.25 35.45 Q15.15 34.8 18.75 34.65 L27.55 35.4 Q32.7 36.3 39.15 39.25 L39.35 40.95 Q39.45 42.7 38.75 46.75 38.2 50.1 36.4 55.55 L35.8 55.45 34.85 55.25 36.75 48.4 37.75 42.35 37.8 40.3 Q31.8 37.55 27.2 36.75 L19.4 36.2 Q16.2 36.45 14.6 37.0 L12.95 37.6 Q13.0 39.4 14.05 42.25 L16.65 48.15 19.0 53.0" fill="#ad0000" fill-rule="evenodd" stroke="none"/>
    <path d="M19.0 53.0 L16.65 48.15 14.05 42.25 Q13.0 39.4 12.95 37.6 L14.6 37.0 Q16.2 36.45 19.4 36.2 L27.2 36.75 Q31.8 37.55 37.8 40.3 L37.75 42.35 36.75 48.4 34.85 55.25 28.25 54.1 20.45 53.15 19.0 53.0 M25.15 37.15 L20.75 36.55 Q17.85 36.5 13.85 37.95 L14.25 39.75 15.35 43.65 Q16.05 45.75 17.0 47.15 L16.65 46.15 15.9 43.5 15.2 40.65 Q14.95 39.35 15.1 38.8 L17.05 38.1 Q18.85 37.4 21.5 37.15 24.15 36.8 26.65 37.75 L25.15 37.15" fill="#d72019" fill-rule="evenodd" stroke="none"/>
    <path d="M25.15 37.15 L26.65 37.75 Q24.15 36.8 21.5 37.15 18.85 37.4 17.05 38.1 L15.1 38.8 Q14.95 39.35 15.2 40.65 L15.9 43.5 16.65 46.15 17.0 47.15 Q16.05 45.75 15.35 43.65 L14.25 39.75 13.85 37.95 Q17.85 36.5 20.75 36.55 L25.15 37.15" fill="#e47058" fill-rule="evenodd" stroke="none"/>
  </g>
</svg>
