<?xml version="1.0" encoding="UTF-8" standalone="no"?>
<svg xmlns:xlink="http://www.w3.org/1999/xlink" height="19.85px" width="26.6px" xmlns="http://www.w3.org/2000/svg">
  <g transform="matrix(1.0, 0.0, 0.0, 1.0, -37.35, -38.85)">
    <path d="M44.7 56.25 L43.25 56.15 43.15 55.9 40.7 50.8 Q39.4 47.8 38.4 44.9 37.4 42.0 37.35 40.25 L39.25 39.65 Q41.05 39.05 44.45 38.9 L52.8 39.6 Q57.65 40.45 63.75 43.25 L63.95 44.85 Q64.05 46.5 63.4 50.35 62.85 53.55 61.15 58.7 L60.6 58.6 59.7 58.4 Q60.9 54.65 61.5 51.9 L62.45 46.2 62.5 44.25 Q56.8 41.65 52.45 40.9 L45.05 40.35 Q42.05 40.6 40.5 41.1 L38.95 41.7 Q39.0 43.4 40.0 46.1 41.05 48.8 42.45 51.7 L44.7 56.25" fill="#ad0000" fill-rule="evenodd" stroke="none"/>
    <path d="M44.7 56.25 L42.45 51.7 Q41.05 48.8 40.0 46.1 39.0 43.4 38.95 41.7 L40.5 41.1 Q42.05 40.6 45.05 40.35 L52.45 40.9 Q56.8 41.65 62.5 44.25 L62.45 46.2 61.5 51.9 Q60.9 54.65 59.7 58.4 L53.45 57.3 46.05 56.4 44.7 56.25 M50.5 41.25 L46.35 40.7 Q43.6 40.65 39.8 42.0 L40.2 43.75 Q40.55 45.3 41.25 47.4 41.9 49.4 42.8 50.75 L42.45 49.8 41.75 47.3 41.1 44.6 Q40.85 43.35 41.0 42.85 L42.85 42.15 Q44.55 41.5 47.05 41.25 49.55 40.95 51.95 41.85 L50.5 41.25" fill="#d72019" fill-rule="evenodd" stroke="none"/>
    <path d="M50.5 41.25 L51.95 41.85 Q49.55 40.95 47.05 41.25 44.55 41.5 42.85 42.15 L41.0 42.85 Q40.85 43.35 41.1 44.6 L41.75 47.3 42.45 49.8 42.8 50.75 Q41.9 49.4 41.25 47.4 40.55 45.3 40.2 43.75 L39.8 42.0 Q43.6 40.65 46.35 40.7 L50.5 41.25" fill="#e47058" fill-rule="evenodd" stroke="none"/>
  </g>
</svg>
