<?xml version="1.0" encoding="UTF-8" standalone="no"?>
<svg xmlns:xlink="http://www.w3.org/1999/xlink" height="20.95px" width="38.6px" xmlns="http://www.w3.org/2000/svg">
  <g transform="matrix(1.0, 0.0, 0.0, 1.0, -23.0, -53.95)">
    <path d="M60.05 61.05 L56.45 65.2 52.55 70.35 Q50.7 72.9 49.8 74.9 L47.85 74.9 42.9 74.5 Q39.85 74.2 36.45 73.3 33.0 72.35 30.0 70.65 26.95 69.0 25.0 66.2 L24.35 65.4 23.55 64.1 23.0 63.3 25.05 61.95 Q27.0 60.7 30.2 59.0 33.4 57.3 37.05 55.85 40.75 54.4 44.25 53.95 L61.6 59.3 60.05 61.05" fill="#ad0000" fill-rule="evenodd" stroke="none"/>
    <path d="M59.0 59.4 L55.5 63.3 Q53.5 65.7 51.65 68.2 49.8 70.7 48.95 72.6 L46.75 72.1 41.35 70.8 34.55 68.75 Q31.1 67.6 28.3 66.25 25.5 64.9 24.35 63.45 24.4 63.35 26.1 62.2 L30.6 59.55 Q33.45 57.95 36.9 56.6 40.35 55.25 43.8 54.8 L60.5 57.8 59.0 59.4" fill="#d72019" fill-rule="evenodd" stroke="none"/>
    <path d="M48.35 73.1 L49.0 73.25 46.5 73.3 40.4 72.8 Q36.7 72.25 32.8 70.75 28.9 69.2 25.85 66.2 24.45 64.35 24.35 63.85 L24.35 63.45 24.95 64.25 Q25.65 65.05 27.85 66.4 30.05 67.75 34.6 69.4 39.15 71.05 46.8 72.8 L48.35 73.1" fill="#e47058" fill-rule="evenodd" stroke="none"/>
  </g>
</svg>
