<?xml version="1.0" encoding="UTF-8" standalone="no"?>
<svg xmlns:xlink="http://www.w3.org/1999/xlink" height="79.2px" width="280.3px" xmlns="http://www.w3.org/2000/svg">
  <g transform="matrix(1.0, 0.0, 0.0, 1.0, 149.9, 29.6)">
    <path d="M95.1 7.1 Q112.0 9.5 91.45 10.4 81.55 9.95 84.65 8.4 87.75 6.85 95.1 7.1" fill="#87c71f" fill-rule="evenodd" stroke="none"/>
    <path d="M-20.8 3.2 Q-3.75 5.0 -24.45 5.65 -34.35 5.35 -31.25 4.2 -28.15 3.05 -20.8 3.2" fill="#87c71f" fill-rule="evenodd" stroke="none"/>
    <path d="M87.8 -2.4 Q102.65 0.55 83.8 0.9 74.9 0.15 78.1 -1.35 81.25 -2.8 87.8 -2.4" fill="#1a9431" fill-rule="evenodd" stroke="none"/>
    <path d="M76.0 0.9 Q57.1 0.55 71.95 -2.4 78.55 -2.8 81.65 -1.35 84.85 0.15 76.0 0.9" fill="#1a9431" fill-rule="evenodd" stroke="none"/>
    <path d="M79.0 -12.15 L80.55 -13.2 Q81.85 -14.0 81.35 -12.15 80.6 -9.5 80.3 -4.9 L79.95 0.2 77.5 0.1 77.85 -4.75 Q78.25 -9.1 79.0 -12.15" fill="#199432" fill-rule="evenodd" stroke="none"/>
    <path d="M86.05 -20.4 Q91.7 -20.3 91.0 -17.1 90.15 -13.85 86.8 -12.6 90.1 -9.7 87.05 -8.25 84.0 -6.85 79.55 -9.55 78.25 -8.35 75.3 -7.25 72.4 -6.1 70.45 -7.85 68.9 -9.7 69.9 -10.8 70.85 -11.95 71.7 -12.1 66.7 -12.25 67.25 -14.55 67.8 -16.85 73.55 -16.3 70.85 -18.85 73.5 -20.4 76.1 -21.95 80.0 -18.35 80.95 -19.0 86.05 -20.4" fill="#ffffff" fill-rule="evenodd" stroke="none"/>
    <path d="M83.6 -16.0 Q85.75 -14.75 84.75 -12.9 83.8 -11.0 82.4 -10.6 81.1 -10.4 78.85 -11.15 76.65 -11.9 76.05 -12.4 74.25 -14.05 75.0 -16.0 78.8 -17.95 83.6 -16.0" fill="#f3db31" fill-rule="evenodd" stroke="none"/>
    <path d="M65.4 -3.75 Q60.2 -5.5 64.55 -6.15 68.9 -6.55 73.1 -5.1 77.2 -3.6 78.05 -0.75 70.65 -2.05 65.4 -3.75" fill="#8fcb24" fill-rule="evenodd" stroke="none"/>
    <path d="M92.9 -5.7 Q97.25 -5.05 92.1 -3.3 86.85 -1.6 79.45 -0.3 80.25 -3.15 84.4 -4.65 88.55 -6.1 92.9 -5.7" fill="#8fcb24" fill-rule="evenodd" stroke="none"/>
    <path d="M38.9 5.85 Q24.2 5.6 35.75 3.55 40.85 3.2 43.3 4.3 45.8 5.35 38.9 5.85" fill="#1a9431" fill-rule="evenodd" stroke="none"/>
    <path d="M48.05 3.55 Q59.65 5.6 44.95 5.85 38.05 5.35 40.5 4.3 42.95 3.2 48.05 3.55" fill="#1a9431" fill-rule="evenodd" stroke="none"/>
    <path d="M42.55 -3.25 Q43.1 -1.15 43.35 2.0 L43.7 5.35 41.8 5.45 41.45 1.85 Q41.2 -1.35 40.65 -3.25 40.25 -4.55 41.3 -4.0 L42.55 -3.25" fill="#199432" fill-rule="evenodd" stroke="none"/>
    <path d="M46.35 -6.05 Q50.45 -6.5 50.85 -5.0 51.25 -3.55 47.75 -3.45 49.8 -3.1 48.65 -0.65 44.95 0.65 42.15 -1.8 39.05 0.0 36.9 -1.0 34.75 -1.9 37.05 -3.7 34.65 -4.5 34.1 -6.55 33.55 -8.7 37.55 -8.7 L41.9 -7.4 Q44.6 -9.7 46.5 -8.7 48.3 -7.7 46.35 -6.05" fill="#f8f98d" fill-rule="evenodd" stroke="none"/>
    <path d="M40.15 -2.35 Q37.2 -3.6 39.25 -5.9 42.8 -7.15 45.45 -5.9 46.0 -4.65 44.7 -3.5 42.95 -2.6 40.15 -2.35" fill="#f3db31" fill-rule="evenodd" stroke="none"/>
    <path d="M53.8 0.9 Q57.2 1.4 53.15 2.55 L43.3 4.7 Q43.95 2.6 47.15 1.65 50.35 0.55 53.8 0.9" fill="#8fcb24" fill-rule="evenodd" stroke="none"/>
    <path d="M32.45 2.9 Q28.35 1.75 31.8 1.25 35.2 0.9 38.4 2.0 41.65 2.95 42.25 5.05 L32.45 2.9" fill="#8fcb24" fill-rule="evenodd" stroke="none"/>
    <path d="M-22.5 12.85 Q-23.55 11.3 -14.85 10.15 -7.05 9.65 -3.35 11.45 0.4 13.2 -10.1 14.1 -21.45 14.5 -22.5 12.85" fill="#1a9431" fill-rule="evenodd" stroke="none"/>
    <path d="M3.95 10.15 Q12.55 11.3 11.5 12.85 10.5 14.5 -0.8 14.1 -11.35 13.2 -7.65 11.45 -3.85 9.65 3.95 10.15" fill="#1a9431" fill-rule="evenodd" stroke="none"/>
    <path d="M12.75 5.65 Q17.95 6.45 11.7 8.5 5.55 10.5 -3.25 12.05 -2.25 8.6 2.65 6.9 7.6 5.15 12.75 5.65" fill="#8fcb24" fill-rule="evenodd" stroke="none"/>
    <path d="M-19.85 9.1 Q-26.05 7.05 -20.9 6.25 -15.75 5.75 -10.8 7.5 -5.85 9.2 -4.9 12.65 -13.65 11.1 -19.85 9.1" fill="#8fcb24" fill-rule="evenodd" stroke="none"/>
    <path d="M-47.95 26.25 Q-44.15 34.3 -46.55 34.55 -48.95 34.9 -52.2 29.55 -61.15 15.0 -73.75 6.7 -75.15 5.75 -75.7 4.5 -76.25 3.25 -70.95 5.3 -65.0 7.45 -59.05 11.95 -53.1 16.5 -47.95 26.25" fill="#199432" fill-rule="evenodd" stroke="none"/>
    <path d="M-64.05 10.5 Q-59.3 12.15 -55.2 18.05 -51.05 24.05 -52.4 24.15 -54.95 22.55 -60.45 16.65 -65.85 10.85 -64.05 10.5" fill="#35a12f" fill-rule="evenodd" stroke="none"/>
    <path d="M-45.35 26.85 Q-46.0 34.8 -48.2 34.15 -50.45 33.5 -50.6 28.0 -51.1 13.0 -57.85 1.55 -58.5 0.35 -58.4 -0.9 -58.3 -2.05 -54.8 1.55 -45.65 8.3 -45.35 26.85" fill="#199432" fill-rule="evenodd" stroke="none"/>
    <path d="M-48.85 8.25 Q-45.55 11.3 -45.0 17.6 -44.35 24.0 -45.55 23.6 -46.95 21.4 -48.75 14.55 -50.55 7.85 -48.85 8.25" fill="#35a12f" fill-rule="evenodd" stroke="none"/>
    <path d="M-57.3 21.25 Q-49.45 33.75 -57.3 28.05 -64.05 21.35 -72.7 21.65 L-81.55 22.25 Q-80.05 18.15 -72.0 16.0 -64.05 13.85 -57.3 21.25" fill="#199432" fill-rule="evenodd" stroke="none"/>
    <path d="M-62.35 18.55 Q-57.55 22.05 -61.15 22.0 L-70.75 20.45 Q-76.9 19.5 -75.35 18.2 -67.2 14.95 -62.35 18.55" fill="#35a12f" fill-rule="evenodd" stroke="none"/>
    <path d="M-30.8 16.55 Q-30.4 25.0 -32.6 24.45 -34.8 23.85 -35.8 17.95 -38.5 1.95 -46.55 -9.95 -47.45 -11.3 -47.55 -12.6 -47.65 -13.9 -43.6 -10.15 -33.85 -3.25 -30.8 16.55" fill="#50ad26" fill-rule="evenodd" stroke="none"/>
    <path d="M-30.9 14.9 Q-34.35 21.6 -36.05 20.2 -37.75 18.9 -35.95 14.0 -31.05 0.5 -32.75 -11.9 -32.95 -13.3 -32.45 -14.35 -31.95 -15.4 -30.15 -10.9 -27.9 -6.05 -27.5 0.2 -27.0 6.35 -30.9 14.9" fill="#50ad26" fill-rule="evenodd" stroke="none"/>
    <path d="M-42.4 11.25 Q-35.95 23.65 -42.9 17.65 -48.85 10.75 -57.05 10.35 -66.5 10.6 -65.5 10.15 -63.8 6.4 -55.95 5.0 -48.15 3.6 -42.4 11.25" fill="#50ad26" fill-rule="evenodd" stroke="none"/>
    <path d="M-30.7 27.85 Q-32.2 22.0 -29.9 12.3 -27.5 2.7 -21.45 -4.95 -15.3 -12.55 -5.25 -12.4 -17.15 -5.25 -20.2 7.3 -23.25 19.85 -21.2 30.55 -21.1 34.35 -24.95 33.65 -28.85 33.0 -30.7 27.85" fill="#199432" fill-rule="evenodd" stroke="none"/>
    <path d="M-29.25 29.65 Q-28.75 34.8 -31.5 35.45 -34.25 36.2 -35.65 32.5 -38.45 22.25 -47.1 13.7 -55.7 5.25 -69.5 4.1 -55.7 -1.75 -43.55 9.1 -31.4 19.95 -29.25 29.65" fill="#199432" fill-rule="evenodd" stroke="none"/>
    <path d="M-37.35 23.15 Q-45.4 11.3 -52.4 5.9 -50.0 6.3 -44.2 10.5 -38.25 14.7 -33.85 21.5 -29.15 33.35 -37.35 23.15" fill="#50ad26" fill-rule="evenodd" stroke="none"/>
    <path d="M-43.55 -7.75 Q-43.15 -15.85 -41.6 -17.75 -39.95 -19.7 -39.95 -9.95 -40.5 9.5 -26.55 31.5 L-29.75 32.85 Q-30.65 32.1 -36.8 19.8 -43.0 7.4 -43.55 -7.75" fill="#199432" fill-rule="evenodd" stroke="none"/>
    <path d="M13.0 15.85 Q12.75 19.35 10.4 20.5 8.1 21.6 7.5 19.2 6.85 12.05 2.75 4.6 -1.35 -2.9 -10.15 -5.35 -0.55 -7.55 6.1 0.9 12.75 9.25 13.0 15.85" fill="#199432" fill-rule="evenodd" stroke="none"/>
    <path d="M7.3 10.45 Q3.75 1.75 0.15 -2.7 1.65 -2.15 5.0 1.25 8.3 4.6 10.4 9.55 11.75 17.9 7.3 10.45" fill="#50ad26" fill-rule="evenodd" stroke="none"/>
    <path d="M112.65 21.15 Q113.4 35.65 109.6 34.7 105.75 33.6 104.0 23.5 99.5 -4.1 85.55 -24.55 84.05 -26.85 83.9 -29.05 83.75 -31.25 90.65 -24.8 98.25 -17.95 104.5 -7.45 110.85 3.05 112.65 21.15" fill="#199432" fill-rule="evenodd" stroke="none"/>
    <path d="M97.95 -12.65 Q102.05 -9.6 104.6 -2.45 107.25 4.7 108.0 10.5 108.75 16.25 107.25 15.25 105.6 13.3 102.5 6.0 99.3 -1.25 97.45 -7.5 95.65 -13.7 97.95 -12.65" fill="#35a12f" fill-rule="evenodd" stroke="none"/>
    <path d="M119.55 24.95 Q113.55 36.55 110.6 34.25 107.7 31.95 110.75 23.4 115.6 11.5 116.45 0.65 117.15 -10.2 116.25 -21.1 116.0 -23.5 116.85 -25.3 117.65 -27.1 120.85 -19.4 124.55 -11.0 125.4 -0.35 126.1 10.25 119.55 24.95" fill="#199432" fill-rule="evenodd" stroke="none"/>
    <path d="M121.85 -7.0 Q124.85 -0.35 121.9 9.65 118.95 19.6 117.4 18.3 116.85 16.1 117.3 9.25 117.8 2.35 119.05 -3.2 120.25 -8.7 121.85 -7.0" fill="#35a12f" fill-rule="evenodd" stroke="none"/>
    <path d="M100.9 18.75 Q105.3 28.6 104.9 32.2 104.45 35.75 100.25 29.75 92.65 17.9 82.2 17.25 75.85 16.75 73.35 17.4 70.8 18.0 71.25 16.9 73.5 10.45 83.45 8.05 93.45 5.65 100.9 18.75" fill="#199432" fill-rule="evenodd" stroke="none"/>
    <path d="M95.1 13.55 Q100.6 20.05 96.2 19.4 92.1 17.9 84.65 15.55 77.2 13.15 79.25 11.2 89.5 7.0 95.1 13.55" fill="#35a12f" fill-rule="evenodd" stroke="none"/>
    <path d="M81.8 37.55 Q78.65 34.45 80.4 28.45 84.85 18.1 100.6 8.55 116.35 -0.9 130.4 8.5 114.9 7.1 103.7 16.6 92.55 26.05 87.3 37.2 84.9 40.75 81.8 37.55" fill="#199432" fill-rule="evenodd" stroke="none"/>
    <path d="M92.95 23.4 Q87.75 28.9 85.95 27.15 84.15 25.45 88.4 20.0 94.8 13.35 102.2 9.9 109.6 6.55 112.3 6.55 103.85 11.5 92.95 23.4" fill="#50ad26" fill-rule="evenodd" stroke="none"/>
    <path d="M83.75 35.2 Q83.3 38.95 81.4 38.95 79.45 39.0 79.05 36.2 78.7 28.55 74.15 21.3 69.7 14.1 60.55 11.1 67.2 9.4 72.45 13.75 77.75 18.15 80.8 24.5 83.85 30.9 83.75 35.2" fill="#199432" fill-rule="evenodd" stroke="none"/>
    <path d="M79.4 29.35 Q75.75 19.85 71.85 14.95 73.4 15.65 76.7 19.45 80.05 23.25 81.95 28.75 83.1 32.9 82.0 33.4 80.95 33.85 79.4 29.35" fill="#50ad26" fill-rule="evenodd" stroke="none"/>
    <path d="M-127.5 35.65 Q-128.35 39.35 -126.8 41.35 -125.15 43.25 -123.95 41.1 -121.3 34.2 -115.55 28.25 -109.85 22.4 -101.9 23.2 -109.15 17.4 -117.2 23.3 -125.3 29.2 -127.5 35.65" fill="#199432" fill-rule="evenodd" stroke="none"/>
    <path d="M-121.1 32.5 Q-115.45 25.05 -111.15 22.05 -112.5 22.05 -116.3 24.2 -120.1 26.25 -123.35 30.45 -125.6 33.75 -124.65 34.8 -123.75 35.9 -121.1 32.5" fill="#50ad26" fill-rule="evenodd" stroke="none"/>
    <path d="M-121.05 13.7 Q-126.6 24.75 -127.75 36.4 -128.95 48.15 -128.7 49.0 L-126.35 49.6 Q-125.95 27.45 -118.1 13.9 -114.3 6.95 -115.95 7.55 -117.6 8.15 -121.05 13.7" fill="#199432" fill-rule="evenodd" stroke="none"/>
    <path d="M-104.3 8.55 Q-105.0 5.5 -109.4 4.45 -104.8 0.3 -108.4 -3.05 -112.05 -6.45 -118.6 -0.75 -128.55 -8.15 -130.55 -2.2 -132.55 3.65 -128.0 7.15 -133.15 11.75 -128.1 15.0 -122.95 18.2 -116.85 12.6 -110.7 18.2 -105.8 13.85 -103.6 11.65 -104.3 8.55" fill="#f6c15b" fill-rule="evenodd" stroke="none"/>
    <path d="M-126.2 38.5 Q-126.2 30.05 -132.85 18.8 -139.55 7.55 -149.9 9.85 -140.65 13.3 -135.95 21.95 -131.35 30.65 -131.05 39.8 -130.65 43.05 -128.6 43.05 -126.6 42.95 -126.2 38.5" fill="#199432" fill-rule="evenodd" stroke="none"/>
    <path d="M-128.15 30.9 Q-130.1 24.35 -133.5 19.85 -136.85 15.2 -138.45 14.45 -134.45 20.2 -130.75 31.6 -126.7 41.6 -128.15 30.9" fill="#50ad26" fill-rule="evenodd" stroke="none"/>
    <path d="M-106.95 11.55 Q-104.45 8.85 -108.55 5.4 -110.85 4.65 -113.65 6.0 -116.4 7.3 -116.15 8.95 -115.3 10.9 -112.3 12.05 -109.35 13.2 -106.95 11.55" fill="#f7eb77" fill-rule="evenodd" stroke="none"/>
    <path d="M-124.55 7.2 Q-126.75 7.2 -128.35 8.75 -130.0 10.2 -127.8 12.1 -124.95 13.85 -121.15 12.95 -117.3 12.1 -117.4 10.85 -118.05 7.95 -124.55 7.2" fill="#f7eb77" fill-rule="evenodd" stroke="none"/>
    <path d="M-119.5 5.45 Q-117.5 3.6 -119.6 -0.25 -121.8 -3.4 -124.75 -3.7 -127.75 -4.0 -128.95 -1.4 -130.3 4.65 -124.4 6.7 -121.5 7.25 -119.5 5.45" fill="#f7eb77" fill-rule="evenodd" stroke="none"/>
    <path d="M-117.5 1.55 L-115.65 3.05 Q-114.0 4.3 -112.0 3.45 -110.9 3.0 -109.15 1.35 -107.4 -0.3 -109.25 -2.4 -111.7 -4.15 -114.4 -2.7 -117.0 -1.25 -117.5 1.55" fill="#f7eb77" fill-rule="evenodd" stroke="none"/>
    <path d="M-112.9 3.85 Q-114.65 1.95 -117.55 1.55 -120.5 1.15 -122.25 2.5 -126.0 7.3 -117.8 9.15 -109.95 9.15 -112.9 3.85" fill="#f39d35" fill-rule="evenodd" stroke="none"/>
    <path d="M-92.75 25.4 Q-93.0 30.8 -91.6 30.45 -90.2 30.0 -89.6 26.2 -87.95 15.9 -82.9 8.2 L-82.3 6.5 Q-82.2 5.7 -84.75 8.15 -90.85 12.45 -92.75 25.4" fill="#2f9d2d" fill-rule="evenodd" stroke="none"/>
    <path d="M-95.3 26.85 Q-93.15 31.2 -92.1 30.25 -91.05 29.45 -92.2 26.2 -95.25 17.55 -94.1 9.5 -94.0 8.6 -94.35 7.95 -94.65 7.3 -95.85 10.2 -99.35 16.1 -95.3 26.85" fill="#2f9d2d" fill-rule="evenodd" stroke="none"/>
    <path d="M-88.1 24.45 Q-92.1 32.45 -87.75 28.6 -84.1 24.15 -79.05 23.9 -73.15 24.05 -73.75 23.8 -74.8 21.35 -79.65 20.45 -84.55 19.55 -88.1 24.45" fill="#2f9d2d" fill-rule="evenodd" stroke="none"/>
  </g>
</svg>
