<?xml version="1.0" encoding="UTF-8" standalone="no"?>
<svg xmlns:xlink="http://www.w3.org/1999/xlink" height="283.2px" width="222.2px" xmlns="http://www.w3.org/2000/svg">
  <g transform="matrix(1.0, 0.0, 0.0, 1.0, 100.95, 123.95)">
    <path d="M117.4 -123.2 L120.5 -114.75 120.5 -111.4 118.65 -112.05 118.65 -107.95 120.4 -107.3 116.3 152.25 108.2 158.5 111.1 -102.05 105.35 -104.55 104.8 -113.5 105.5 -113.2 105.25 -115.7 105.05 -116.9 104.65 -119.65 117.4 -123.2 M-66.6 120.1 L-66.35 154.05 -72.1 156.9 -78.75 -94.8 -78.6 -94.8 -73.4 -90.45 -73.25 -90.6 -67.0 108.7 -69.25 108.7 -68.95 120.15 -66.6 120.1" fill="#c5cf5a" fill-rule="evenodd" stroke="none"/>
    <path d="M108.2 158.5 L98.4 157.9 98.0 120.8 -66.6 120.1 -68.95 120.15 -69.25 108.7 -67.0 108.7 98.0 107.65 98.4 -92.95 98.4 -96.95 -78.6 -94.8 -78.75 -94.8 -72.1 156.9 -81.25 154.9 -91.05 -103.1 111.1 -102.05 108.2 158.5 M-99.75 -105.0 L-99.75 -111.25 -97.65 -111.3 104.8 -113.5 105.35 -104.55 -99.75 -105.0 M-98.1 -113.8 L-100.2 -113.7 -100.2 -115.9 104.65 -119.65 105.05 -116.9 -98.1 -113.8" fill="#cdf7bb" fill-rule="evenodd" stroke="none"/>
    <path d="M-91.05 -103.1 L-99.75 -105.0 105.35 -104.55 111.1 -102.05 -91.05 -103.1 M-97.85 -112.8 L-98.1 -113.8 105.05 -116.9 105.25 -115.7 -97.85 -112.8 M-78.6 -94.8 L98.4 -96.95 98.4 -92.95 -73.25 -90.6 -73.4 -90.45 -78.6 -94.8" fill="#7e9b53" fill-rule="evenodd" stroke="none"/>
    <path d="M-97.65 -111.3 L-97.85 -112.8 105.25 -115.7 105.5 -113.2 104.8 -113.5 -97.65 -111.3" fill="#d0d97b" fill-rule="evenodd" stroke="none"/>
    <path d="M-100.2 -115.9 L-91.1 -119.7 117.4 -123.2 104.65 -119.65 -100.2 -115.9" fill="#effce9" fill-rule="evenodd" stroke="none"/>
    <path d="M117.4 -123.2 L120.5 -114.75 120.5 -111.4 118.65 -112.05 118.65 -107.95 120.4 -107.3 116.3 152.25 M98.4 157.9 L98.0 120.8 -66.6 120.1 -66.35 154.05 M-81.25 154.9 L-91.05 -103.1 -99.75 -105.0 -99.75 -111.25 -97.65 -111.3 -97.85 -112.8 M-98.1 -113.8 L-100.2 -113.7 -100.2 -115.9 -91.1 -119.7 117.4 -123.2" fill="none" stroke="#498231" stroke-linecap="round" stroke-linejoin="round" stroke-width="1.5"/>
    <path d="M116.3 152.25 L108.2 158.5 98.4 157.9 M-66.35 154.05 L-72.1 156.9 -81.25 154.9" fill="none" stroke="#bdca46" stroke-linecap="round" stroke-linejoin="round" stroke-width="1.5"/>
  </g>
</svg>
