<?xml version="1.0" encoding="UTF-8" standalone="no"?>
<svg xmlns:xlink="http://www.w3.org/1999/xlink" height="60.7px" width="168.05px" xmlns="http://www.w3.org/2000/svg">
  <g transform="matrix(1.0, 0.0, 0.0, 1.0, -209.1, -608.95)">
    <path d="M373.75 609.6 L374.55 609.6 375.4 609.6 376.15 609.65 375.5 611.4 374.8 613.15 374.05 614.9 373.25 616.65 372.8 617.55 372.45 618.45 372.15 619.35 371.9 620.25 371.7 620.9 371.5 621.5 371.3 622.1 371.15 622.75 370.95 623.3 370.8 623.9 370.6 624.5 370.4 625.1 369.9 626.5 369.5 627.85 369.1 629.25 368.75 630.6 368.05 633.7 367.45 636.8 367.0 639.9 366.55 642.95 366.25 645.55 365.7 648.2 365.05 650.85 364.2 653.5 363.25 655.95 362.4 658.35 361.55 660.8 360.7 663.2 360.3 664.55 359.9 665.9 359.55 667.25 359.2 668.6 255.3 668.55 255.9 668.25 247.85 668.4 239.8 668.55 231.75 668.8 223.65 669.1 220.8 669.15 217.95 669.15 215.1 669.1 212.25 669.05 211.7 669.05 211.15 669.05 210.6 669.0 210.1 669.0 210.85 666.45 211.65 663.95 212.6 661.4 213.65 658.9 213.75 658.55 213.85 658.2 213.95 657.9 214.0 657.6 214.45 655.8 215.05 654.0 215.8 652.25 216.75 650.5 217.4 649.35 218.0 648.25 218.55 647.15 219.0 646.05 219.6 644.6 220.15 643.15 220.7 641.75 221.2 640.3 222.45 636.9 223.8 633.5 225.2 630.1 226.7 626.65 227.5 624.8 228.25 622.95 228.85 621.1 229.35 619.25 229.75 617.85 230.05 616.5 230.2 615.1 230.35 613.75 230.4 613.3 230.5 612.8 230.65 612.35 230.85 611.85 231.15 611.25 231.4 610.65 231.7 610.1 232.05 609.5 240.85 609.55 249.7 609.65 258.55 609.75 267.35 609.9 279.7 610.1 292.0 610.25 304.3 610.3 316.65 610.3 322.0 610.25 327.4 610.15 332.8 610.05 338.2 609.95 342.7 609.8 347.2 609.7 351.75 609.6 356.2 609.5 360.4 609.45 364.6 609.45 368.8 609.5 372.95 609.6 373.75 609.6" fill="#ffffcb" fill-rule="evenodd" stroke="none"/>
    <path d="M376.5 611.35 L375.8 613.05 375.05 614.9 374.2 616.7 373.8 617.5 373.45 618.35 373.15 619.3 372.85 620.25 372.65 620.9 372.45 621.5 372.3 622.1 372.15 622.7 372.05 623.0 371.95 623.3 371.85 623.6 371.75 623.9 371.65 624.2 371.55 624.5 371.5 624.8 371.4 625.1 370.85 626.6 370.4 628.0 370.05 629.35 369.75 630.6 369.1 633.55 368.5 636.55 368.0 639.7 367.6 642.9 367.25 645.45 366.75 648.05 366.05 650.75 365.15 653.5 364.55 655.1 364.0 656.75 363.4 658.35 362.85 659.9 361.7 663.2 361.3 664.55 360.9 665.9 360.55 667.25 360.2 668.6 360.05 668.8 359.8 668.95 359.45 669.05 359.05 669.1 255.15 669.1 254.9 669.05 254.65 669.0 254.5 668.9 254.35 668.8 247.05 668.9 238.85 669.1 231.05 669.3 223.5 669.6 220.65 669.65 217.8 669.65 214.95 669.6 212.1 669.55 211.75 669.55 211.45 669.55 211.15 669.55 210.85 669.55 210.65 669.5 210.4 669.5 210.15 669.5 209.95 669.5 209.55 669.45 209.3 669.35 209.15 669.2 209.1 669.0 209.9 666.25 210.8 663.65 211.7 661.2 212.7 658.9 212.8 658.55 212.9 658.25 212.95 657.9 213.0 657.6 213.5 655.75 214.1 653.9 214.9 652.15 215.8 650.4 216.5 649.2 217.1 648.05 217.6 647.0 218.05 646.0 218.85 644.0 219.2 643.05 219.6 642.15 219.9 641.2 220.25 640.3 221.55 636.7 222.9 633.2 224.3 629.9 225.75 626.65 226.6 624.7 227.3 622.8 227.9 621.0 228.4 619.25 228.8 617.85 229.05 616.45 229.25 615.1 229.35 613.75 229.45 613.25 229.55 612.8 229.7 612.3 229.9 611.8 230.2 611.2 230.45 610.6 230.75 610.05 231.1 609.45 231.25 609.25 231.5 609.15 231.85 609.05 232.2 609.0 241.1 609.05 249.95 609.15 258.8 609.25 267.55 609.4 279.85 609.6 292.15 609.75 304.5 609.8 316.75 609.8 322.6 609.75 328.1 609.65 333.25 609.55 338.3 609.45 356.3 609.0 360.9 608.95 365.25 608.95 369.3 609.0 373.1 609.1 373.9 609.1 374.75 609.1 375.55 609.1 376.4 609.15 376.75 609.2 377.0 609.3 377.15 609.5 377.15 609.65 376.5 611.35 M373.65 610.1 L372.85 610.1 369.0 610.0 364.95 609.95 360.7 609.95 356.15 610.0 338.1 610.4 333.1 610.55 327.85 610.65 322.35 610.7 316.5 610.75 304.2 610.8 291.85 610.7 279.5 610.6 267.2 610.4 258.45 610.2 249.6 610.1 240.75 610.0 232.7 610.0 232.65 610.1 232.35 610.7 232.1 611.3 231.8 611.85 231.65 612.3 231.5 612.75 231.4 613.2 231.3 613.7 231.2 615.0 231.0 616.35 230.75 617.8 230.35 619.25 229.85 621.0 229.25 622.85 228.5 624.75 227.7 626.7 226.25 629.95 224.85 633.25 223.5 636.7 222.2 640.3 221.85 641.25 221.5 642.15 221.15 643.1 220.8 644.05 220.0 646.05 219.55 647.05 219.05 648.15 218.4 649.3 217.7 650.55 216.8 652.25 216.05 653.95 215.45 655.75 215.0 657.55 214.95 657.85 214.85 658.2 214.75 658.55 214.65 658.9 213.65 661.2 212.75 663.65 211.9 666.25 211.25 668.5 211.35 668.5 211.6 668.5 211.9 668.55 212.15 668.55 212.45 668.55 215.3 668.6 218.1 668.6 220.95 668.6 223.75 668.55 231.25 668.3 239.05 668.05 247.25 667.9 256.05 667.75 256.35 667.75 256.55 667.8 256.75 667.9 256.9 668.05 358.35 668.1 358.55 667.25 358.9 665.9 359.3 664.55 359.7 663.15 359.75 663.15 360.9 659.9 361.45 658.3 362.0 656.7 362.6 655.05 363.2 653.45 364.05 650.75 364.75 648.1 365.25 645.5 365.6 643.0 366.0 639.75 366.5 636.6 367.1 633.6 367.75 630.6 368.05 629.35 368.45 628.0 368.9 626.55 369.45 625.05 369.5 624.8 369.6 624.5 369.7 624.2 369.8 623.9 369.9 623.6 370.0 623.3 370.1 623.0 370.15 622.7 370.35 622.1 370.5 621.45 370.7 620.85 370.95 620.2 371.2 619.25 371.55 618.3 371.9 617.4 372.3 616.6 373.1 614.8 373.85 613.0 374.55 611.25 375.0 610.1 374.4 610.1 373.65 610.1" fill="#fbd672" fill-rule="evenodd" stroke="none"/>
    <path d="M219.2 665.25 L219.0 665.6 218.95 665.7 218.95 665.6 219.0 665.6 219.0 665.5 218.95 665.55 218.9 665.55 218.85 665.6 218.5 665.75 218.15 665.9 217.75 665.95 217.35 666.0 217.0 666.0 216.6 666.0 216.25 665.95 215.9 665.85 215.55 665.7 215.3 665.55 215.1 665.4 215.05 665.25 215.05 665.0 215.1 664.8 215.25 664.6 215.4 664.4 215.4 664.35 215.45 664.35 215.45 664.3 215.35 664.35 215.25 664.4 215.15 664.4 215.0 664.45 216.0 664.05 216.35 664.0 216.6 663.95 216.9 663.9 217.25 663.85 217.6 663.85 217.9 663.9 218.2 664.0 218.5 664.05 218.8 664.15 219.0 664.3 219.2 664.4 219.3 664.55 219.35 664.7 219.35 664.9 219.3 665.05 219.2 665.25" fill="#000000" fill-rule="evenodd" stroke="none"/>
    <path d="M219.05 665.5 L218.9 665.75 218.7 666.0 218.35 666.2 218.0 666.4 217.65 666.5 217.2 666.6 216.75 666.6 216.3 666.65 215.85 666.65 215.4 666.55 214.9 666.45 214.55 666.3 214.3 666.1 214.1 665.9 214.0 665.7 213.95 665.45 214.0 665.25 214.1 665.0 214.3 664.8 214.65 664.55 215.1 664.4 215.5 664.3 215.95 664.2 216.5 664.2 217.05 664.25 217.55 664.3 217.95 664.4 218.4 664.6 218.7 664.8 218.95 665.0 219.05 665.25 219.05 665.5" fill="#ffe617" fill-rule="evenodd" stroke="none"/>
    <path d="M355.9 665.6 L355.9 665.75 355.8 665.95 355.65 666.2 355.4 666.4 355.15 666.6 354.85 666.75 354.45 666.9 354.05 666.95 353.7 667.0 353.3 667.05 352.9 667.0 352.55 666.95 352.45 666.95 352.45 667.0 352.0 666.7 351.85 666.6 351.7 666.45 351.65 666.25 351.65 666.1 351.65 665.95 351.75 665.75 351.85 665.6 352.05 665.4 352.3 665.25 352.6 665.15 352.85 665.0 353.15 664.95 353.5 664.85 353.8 664.8 354.1 664.75 354.4 664.75 355.15 664.8 355.1 664.85 355.05 664.85 355.05 664.9 355.1 664.9 355.2 664.9 355.45 665.05 355.65 665.2 355.85 665.35 355.9 665.6" fill="#000000" fill-rule="evenodd" stroke="none"/>
    <path d="M354.45 665.05 L354.75 665.2 355.0 665.35 355.15 665.55 355.25 665.75 355.25 666.05 355.15 666.3 354.95 666.55 354.7 666.8 354.3 667.0 353.9 667.2 353.5 667.3 353.0 667.4 352.6 667.5 352.15 667.55 351.75 667.55 351.3 667.45 350.9 667.35 350.6 667.15 350.35 666.95 350.2 666.75 350.2 666.45 350.3 666.2 350.5 665.95 350.8 665.65 351.15 665.4 351.55 665.2 352.05 665.05 352.6 664.95 353.05 664.85 353.5 664.85 354.0 664.9 354.45 665.05" fill="#ffe617" fill-rule="evenodd" stroke="none"/>
    <path d="M370.15 612.25 L370.0 612.5 369.8 612.7 369.6 612.85 369.35 613.0 369.0 613.15 368.65 613.25 368.25 613.35 367.9 613.35 367.8 613.35 367.7 613.35 367.8 613.4 367.9 613.45 367.95 613.5 367.05 613.3 366.55 613.15 366.25 612.9 366.1 612.6 366.15 612.3 366.3 611.9 366.65 611.6 367.1 611.4 367.7 611.25 368.4 611.15 368.5 611.15 368.6 611.15 368.95 611.2 369.25 611.3 369.55 611.4 369.75 611.55 369.9 611.7 370.05 611.85 370.15 612.05 370.15 612.25" fill="#000000" fill-rule="evenodd" stroke="none"/>
    <path d="M369.0 611.65 L369.25 611.85 369.4 612.05 369.5 612.3 369.45 612.55 369.3 612.8 369.1 613.05 368.85 613.25 368.55 613.45 368.1 613.6 367.7 613.7 367.3 613.8 366.85 613.8 366.4 613.8 365.95 613.75 365.6 613.65 365.3 613.45 365.05 613.25 364.85 613.05 364.75 612.8 364.75 612.55 364.95 612.25 365.2 611.95 365.55 611.75 365.9 611.55 366.3 611.4 366.7 611.3 367.15 611.25 367.65 611.25 368.1 611.3 368.5 611.35 368.8 611.5 369.0 611.65" fill="#ffe617" fill-rule="evenodd" stroke="none"/>
    <path d="M238.35 612.4 L238.15 612.55 237.9 612.7 237.65 612.85 237.35 612.95 237.1 613.05 236.8 613.1 236.45 613.15 236.15 613.15 235.85 613.15 235.25 613.1 235.2 613.05 234.9 612.9 234.7 612.75 234.6 612.6 234.55 612.4 234.5 612.25 234.55 612.05 234.7 611.85 234.9 611.65 235.25 611.45 235.6 611.3 235.95 611.2 236.3 611.1 236.7 611.05 237.05 611.0 237.4 611.05 237.75 611.1 237.8 611.1 237.85 611.15 237.95 611.15 237.9 611.1 237.9 611.05 237.85 611.0 238.35 611.35 238.5 611.45 238.6 611.6 238.6 611.75 238.55 611.9 238.55 612.1 238.45 612.25 238.35 612.4" fill="#000000" fill-rule="evenodd" stroke="none"/>
    <path d="M237.55 610.75 L237.85 610.9 238.0 611.1 238.15 611.35 238.15 611.6 238.05 611.85 237.85 612.1 237.55 612.35 237.15 612.6 236.75 612.8 236.3 612.9 235.8 613.0 235.3 613.1 234.85 613.1 234.4 613.05 233.95 612.95 233.7 612.8 233.5 612.6 233.35 612.45 233.25 612.2 233.3 612.0 233.4 611.75 233.6 611.55 233.95 611.3 234.25 611.1 234.65 610.9 235.05 610.75 235.5 610.65 235.9 610.6 236.3 610.55 236.75 610.6 237.15 610.65 237.55 610.75" fill="#ffe617" fill-rule="evenodd" stroke="none"/>
  </g>
</svg>
