<?xml version="1.0" encoding="UTF-8" standalone="no"?>
<svg xmlns:xlink="http://www.w3.org/1999/xlink" height="60.85px" width="168.35px" xmlns="http://www.w3.org/2000/svg">
  <g transform="matrix(1.0, 0.0, 0.0, 1.0, -208.5, -598.85)">
    <path d="M374.3 599.4 L374.85 599.45 375.35 599.45 375.85 599.45 375.35 601.85 374.7 604.3 373.95 606.7 373.1 609.15 373.0 609.5 372.95 609.8 372.85 610.15 372.85 610.45 372.55 612.15 372.05 613.9 371.45 615.65 370.6 617.35 370.05 618.45 369.5 619.55 369.05 620.65 368.65 621.75 368.2 623.2 367.7 624.6 367.25 626.05 366.85 627.45 365.8 630.9 364.7 634.35 363.5 637.8 362.15 641.3 361.45 643.2 360.85 645.1 360.3 647.05 359.9 648.95 359.6 650.4 359.4 651.85 359.3 653.3 359.25 654.75 359.2 655.2 359.15 655.7 359.0 656.2 358.85 656.75 358.6 657.35 358.35 658.0 358.05 658.6 357.75 659.2 348.55 659.15 339.35 659.05 330.15 658.9 321.0 658.7 308.25 658.45 295.55 658.3 282.9 658.2 270.25 658.15 264.75 658.2 259.2 658.3 253.7 658.4 248.15 658.5 243.55 658.6 238.95 658.7 234.35 658.8 229.75 658.9 225.5 658.95 221.2 658.95 216.95 658.9 212.75 658.75 211.95 658.75 211.1 658.75 210.3 658.75 209.5 658.7 210.35 656.9 211.2 655.05 212.1 653.25 213.0 651.4 213.5 650.5 213.95 649.55 214.35 648.65 214.65 647.7 214.9 647.1 215.15 646.45 215.4 645.85 215.6 645.2 215.8 644.6 216.05 644.0 216.3 643.4 216.5 642.8 217.1 641.4 217.65 640.0 218.15 638.6 218.55 637.2 219.45 634.1 220.25 631.0 220.95 627.95 221.6 624.95 222.1 622.4 222.75 619.8 223.6 617.25 224.65 614.7 225.65 612.35 226.65 610.0 227.65 607.7 228.6 605.4 229.1 604.15 229.55 602.85 230.0 601.6 230.4 600.3 331.35 600.0 330.75 600.3 338.65 600.15 346.6 600.0 354.5 599.75 362.5 599.45 365.3 599.35 368.1 599.35 370.9 599.35 373.7 599.4 374.3 599.4" fill="#ffffcb" fill-rule="evenodd" stroke="none"/>
    <path d="M375.6 604.55 L374.9 606.9 374.1 609.15 374.0 609.45 373.9 609.8 373.85 610.1 373.85 610.4 373.5 612.2 373.0 613.95 372.4 615.7 371.6 617.4 370.95 618.6 370.45 619.7 370.0 620.75 369.65 621.75 369.0 623.75 368.65 624.7 368.4 625.6 368.1 626.5 367.85 627.45 366.75 631.05 365.6 634.6 364.4 638.0 363.15 641.3 362.4 643.3 361.8 645.25 361.3 647.15 360.9 648.95 360.6 650.45 360.4 651.9 360.3 653.3 360.3 654.7 360.2 655.2 360.15 655.75 360.0 656.25 359.85 656.75 359.6 657.4 359.35 658.0 359.05 658.65 358.75 659.25 358.6 659.45 358.35 659.6 358.0 659.7 357.65 659.7 348.35 659.65 339.1 659.55 329.95 659.4 320.85 659.2 308.15 658.95 295.4 658.8 282.7 658.7 270.1 658.7 264.1 658.7 258.5 658.8 253.2 658.9 248.05 659.0 229.65 659.4 224.95 659.45 220.55 659.45 216.45 659.4 212.6 659.25 211.75 659.25 210.9 659.25 210.1 659.25 209.25 659.2 208.9 659.15 208.65 659.05 208.5 658.85 208.55 658.65 209.3 656.95 210.15 655.1 211.1 653.25 212.05 651.35 212.5 650.5 212.95 649.65 213.3 648.7 213.7 647.7 213.95 647.05 214.2 646.45 214.4 645.8 214.6 645.2 214.75 644.9 214.85 644.55 214.95 644.25 215.1 643.95 215.2 643.65 215.3 643.35 215.45 643.05 215.55 642.75 216.2 641.25 216.75 639.8 217.2 638.45 217.6 637.2 218.45 634.25 219.25 631.25 219.95 628.15 220.6 624.95 221.1 622.45 221.75 619.9 222.65 617.3 223.65 614.65 224.35 613.1 225.05 611.55 225.7 610.0 226.35 608.5 227.65 605.35 227.7 605.35 228.15 604.1 228.6 602.85 229.0 601.55 229.45 600.3 229.6 600.1 229.85 599.95 230.2 599.85 230.55 599.8 331.45 599.5 331.75 599.55 331.95 599.6 332.15 599.7 332.3 599.8 339.45 599.65 347.55 599.45 355.2 599.2 362.6 598.95 365.4 598.85 368.2 598.85 371.05 598.85 373.85 598.9 374.2 598.9 374.5 598.9 374.8 598.95 375.05 598.95 375.3 598.95 375.55 598.95 375.75 598.95 376.0 598.95 376.35 599.0 376.65 599.1 376.8 599.25 376.85 599.45 376.25 602.05 375.6 604.55 M374.4 599.9 L374.15 599.9 373.9 599.9 373.6 599.9 370.75 599.85 367.95 599.85 365.2 599.85 362.4 599.9 355.0 600.2 347.35 600.45 339.3 600.65 330.65 600.8 330.4 600.75 330.15 600.7 329.95 600.6 329.85 600.5 231.2 600.8 230.95 601.55 230.5 602.85 230.05 604.1 229.55 605.4 228.25 608.55 227.6 610.05 226.95 611.6 226.3 613.15 225.6 614.7 224.55 617.35 223.75 619.9 223.05 622.4 222.6 624.9 221.95 628.1 221.2 631.2 220.4 634.2 219.55 637.2 219.15 638.45 218.7 639.85 218.15 641.25 217.5 642.8 217.4 643.1 217.25 643.4 217.15 643.7 217.05 644.0 216.9 644.3 216.8 644.6 216.7 644.9 216.6 645.2 216.35 645.85 216.15 646.45 215.9 647.1 215.65 647.75 215.25 648.75 214.9 649.7 214.45 650.6 214.0 651.5 213.0 653.35 212.1 655.2 211.25 657.0 210.75 658.25 211.3 658.25 212.1 658.25 212.9 658.25 216.8 658.35 220.9 658.4 225.25 658.4 229.9 658.35 248.3 658.0 253.45 657.85 258.75 657.75 264.4 657.7 270.4 657.65 283.05 657.65 295.75 657.75 308.5 657.95 321.2 658.2 330.3 658.35 339.45 658.5 348.65 658.6 357.05 658.7 357.1 658.55 357.35 657.9 357.6 657.3 357.85 656.7 358.0 656.2 358.1 655.75 358.2 655.25 358.25 654.75 358.3 653.4 358.4 651.95 358.6 650.45 358.9 648.95 359.3 647.1 359.8 645.2 360.45 643.25 361.15 641.25 362.45 637.95 363.65 634.55 364.75 631.05 365.85 627.45 366.1 626.5 366.4 625.6 366.7 624.65 367.0 623.7 367.65 621.75 368.05 620.7 368.5 619.65 369.05 618.5 369.65 617.25 370.45 615.65 371.05 613.95 371.55 612.2 371.85 610.45 371.9 610.15 371.95 609.8 372.0 609.5 372.1 609.15 372.9 606.9 373.65 604.55 374.3 602.1 374.8 599.9 374.65 599.9 374.4 599.9" fill="#fbd672" fill-rule="evenodd" stroke="none"/>
    <path d="M371.15 603.65 L370.95 603.85 370.95 603.9 370.9 603.9 370.85 603.95 370.95 603.95 371.05 603.9 371.1 603.85 371.25 603.8 371.35 603.8 370.95 603.95 370.4 604.15 370.1 604.25 369.8 604.3 369.5 604.35 369.15 604.35 368.85 604.35 368.55 604.3 368.25 604.25 367.95 604.2 367.65 604.05 367.4 603.95 367.2 603.85 367.1 603.7 367.05 603.55 367.05 603.4 367.1 603.25 367.15 603.05 367.4 602.55 367.4 602.65 367.35 602.7 367.35 602.8 367.4 602.75 367.45 602.75 367.45 602.7 Q367.6 602.6 367.8 602.55 L368.15 602.4 368.5 602.35 368.95 602.3 369.3 602.3 369.65 602.3 370.0 602.35 370.35 602.45 370.7 602.6 371.0 602.75 371.2 602.9 371.3 603.05 371.25 603.25 371.25 603.45 371.15 603.65" fill="#000000" fill-rule="evenodd" stroke="none"/>
    <path d="M372.3 602.8 L372.3 603.0 372.2 603.2 372.05 603.45 371.65 603.65 371.25 603.8 370.85 603.9 370.4 604.0 369.9 604.0 369.35 604.0 368.85 603.9 368.4 603.8 368.0 603.65 367.65 603.45 367.4 603.25 367.25 603.0 367.3 602.8 367.4 602.55 367.6 602.3 367.9 602.1 368.25 601.9 368.6 601.8 369.0 601.7 369.45 601.7 369.9 601.65 370.35 601.65 370.8 601.75 371.3 601.85 371.65 602.0 371.95 602.15 372.15 602.35 372.25 602.55 372.3 602.8" fill="#ffe617" fill-rule="evenodd" stroke="none"/>
    <path d="M237.3 603.1 L237.1 603.25 236.85 603.4 236.6 603.5 236.3 603.65 236.0 603.7 235.7 603.8 235.4 603.85 235.1 603.85 234.8 603.9 234.05 603.85 234.05 603.8 234.15 603.8 234.25 603.8 234.2 603.75 234.05 603.75 233.8 603.6 233.6 603.5 233.45 603.3 233.4 603.1 233.45 602.95 233.5 602.75 233.7 602.55 233.95 602.35 234.2 602.15 234.5 602.0 234.85 601.9 235.3 601.8 235.6 601.75 236.0 601.7 236.35 601.75 236.75 601.8 236.85 601.8 236.8 601.75 237.25 602.05 237.4 602.15 237.5 602.3 237.55 602.45 237.5 602.6 237.5 602.75 237.45 602.9 237.3 603.1 M236.8 601.7 L236.75 601.7 236.7 601.65 236.8 601.7" fill="#000000" fill-rule="evenodd" stroke="none"/>
    <path d="M238.35 601.45 L238.65 601.6 238.85 601.8 239.0 602.0 238.95 602.25 238.85 602.5 238.65 602.8 238.35 603.05 238.0 603.25 237.6 603.45 237.1 603.6 236.6 603.7 236.15 603.8 235.7 603.8 235.25 603.75 234.8 603.6 234.5 603.5 234.3 603.35 234.15 603.15 234.05 602.95 234.1 602.7 234.2 602.45 234.4 602.2 234.65 601.95 235.05 601.75 235.45 601.6 235.85 601.5 236.3 601.4 236.7 601.3 237.15 601.25 237.55 601.25 237.95 601.35 238.35 601.45" fill="#ffe617" fill-rule="evenodd" stroke="none"/>
    <path d="M220.0 655.55 L219.95 655.95 219.7 656.3 219.35 656.6 218.9 656.85 218.3 657.0 217.55 657.15 217.55 657.1 217.45 657.1 217.35 657.1 217.0 657.05 216.7 656.95 216.4 656.85 216.2 656.7 216.05 656.55 215.9 656.35 215.85 656.15 215.9 655.9 216.05 655.7 216.25 655.5 216.45 655.3 216.7 655.15 217.1 655.0 217.45 654.9 217.85 654.8 218.25 654.8 218.4 654.8 218.3 654.75 218.25 654.7 219.1 654.85 219.55 655.05 219.85 655.3 220.0 655.55" fill="#000000" fill-rule="evenodd" stroke="none"/>
    <path d="M220.8 654.7 L221.1 654.9 221.25 655.15 221.3 655.4 221.3 655.7 221.05 656.0 220.8 656.25 220.45 656.5 220.05 656.7 219.65 656.85 219.25 656.95 218.75 657.0 218.25 657.0 217.8 656.95 217.4 656.9 217.15 656.75 216.9 656.6 216.7 656.4 216.55 656.15 216.5 655.95 216.55 655.65 216.7 655.4 216.95 655.15 217.2 654.9 217.55 654.7 217.95 654.55 218.4 654.45 218.8 654.4 219.25 654.35 219.75 654.35 220.15 654.45 220.55 654.55 220.8 654.7" fill="#ffe617" fill-rule="evenodd" stroke="none"/>
    <path d="M354.85 656.7 L354.65 656.9 354.3 657.1 353.95 657.25 353.6 657.4 353.2 657.5 352.8 657.55 352.45 657.55 352.05 657.55 351.7 657.5 351.65 657.45 351.6 657.45 351.55 657.45 351.5 657.4 351.55 657.5 351.6 657.55 351.6 657.6 351.65 657.65 351.05 657.2 350.9 657.1 350.8 656.95 350.8 656.8 350.85 656.6 350.85 656.45 350.9 656.25 351.05 656.1 351.2 655.95 351.5 655.8 351.75 655.65 352.0 655.5 352.25 655.4 352.6 655.35 352.95 655.3 353.25 655.3 353.6 655.3 354.15 655.35 354.2 655.35 354.2 655.4 354.25 655.4 354.55 655.55 354.8 655.7 354.9 655.9 355.0 656.1 355.0 656.3 354.95 656.5 354.85 656.7" fill="#000000" fill-rule="evenodd" stroke="none"/>
    <path d="M355.5 655.55 L355.8 655.75 356.05 655.9 356.2 656.1 356.3 656.35 356.3 656.55 356.15 656.8 355.95 657.05 355.65 657.3 355.35 657.55 354.95 657.7 354.5 657.85 354.05 658.0 353.65 658.05 353.2 658.1 352.8 658.05 352.35 657.95 351.95 657.85 351.65 657.7 351.4 657.5 351.25 657.25 351.25 657.0 351.35 656.75 351.55 656.45 351.85 656.15 352.25 655.95 352.65 655.75 353.1 655.6 353.65 655.5 354.1 655.4 354.6 655.4 355.1 655.45 355.5 655.55" fill="#ffe617" fill-rule="evenodd" stroke="none"/>
  </g>
</svg>
