<?xml version="1.0" encoding="UTF-8" standalone="no"?>
<svg xmlns:xlink="http://www.w3.org/1999/xlink" height="60.9px" width="168.75px" xmlns="http://www.w3.org/2000/svg">
  <g transform="matrix(1.0, 0.0, 0.0, 1.0, -207.25, -593.8)">
    <path d="M229.2 594.5 L229.3 594.4 229.3 594.35 229.35 594.3 229.4 594.25 229.45 594.2 229.5 594.15 229.55 594.15 229.65 594.1 229.7 594.05 229.8 594.05 229.85 594.0 229.95 594.0 230.0 594.0 230.1 593.95 230.2 593.95 230.3 593.95 230.4 593.95 232.6 593.95 234.8 593.95 237.05 594.0 239.25 594.0 241.5 594.0 243.7 594.0 245.9 594.05 248.15 594.05 250.35 594.1 252.55 594.1 254.75 594.15 256.95 594.2 259.15 594.2 261.35 594.25 263.55 594.3 265.7 594.3 268.8 594.4 271.0 594.45 229.2 594.5 271.0 594.45 271.85 594.45 274.9 594.5 278.0 594.5 281.05 594.55 284.15 594.6 287.2 594.6 288.75 594.65 290.3 594.65 293.35 594.65 294.35 594.65 295.4 594.7 296.55 594.65 322.0 594.6 323.1 594.6 323.5 594.55 324.85 594.55 326.15 594.55 327.5 594.5 328.8 594.5 330.1 594.45 331.35 594.45 332.65 594.4 333.9 594.35 335.15 594.35 335.65 594.35 335.7 594.35 336.4 594.3 354.4 593.9 355.6 593.85 356.75 593.85 357.85 593.8 359.0 593.8 360.1 593.8 361.2 593.8 362.25 593.8 363.3 593.8 364.35 593.8 365.35 593.8 366.35 593.85 367.35 593.85 368.35 593.85 369.05 593.9 369.3 593.9 369.5 593.9 370.25 593.9 370.9 593.9 371.35 593.95 371.55 593.95 371.75 593.95 371.95 593.95 372.2 593.95 372.3 593.95 372.4 593.95 372.6 593.95 373.25 593.95 373.35 593.95 373.4 593.95 373.5 593.95 373.6 593.95 373.65 593.95 373.75 593.95 373.85 593.95 374.05 593.95 374.25 594.0 374.45 594.0 374.55 594.0 374.65 594.0 374.8 594.0 374.9 594.0 375.15 594.0 375.25 594.0 375.35 594.0 375.45 594.05 375.55 594.05 375.6 594.05 375.7 594.1 375.75 594.1 375.8 594.15 375.85 594.2 375.9 594.2 376.0 594.3 376.0 594.45 376.0 594.5 375.85 595.15 375.75 595.8 375.6 596.45 375.45 597.1 375.25 597.75 375.1 598.35 374.95 599.0 374.75 599.6 374.6 600.2 374.4 600.8 374.25 601.35 374.05 601.95 373.85 602.5 373.65 603.05 373.45 603.6 373.25 604.15 373.2 604.25 373.2 604.35 373.15 604.4 373.15 604.5 373.15 604.55 373.1 604.65 373.1 604.75 373.1 604.8 373.05 604.9 373.05 604.95 373.05 605.05 373.05 605.1 373.0 605.2 373.0 605.25 373.0 605.35 373.0 605.4 372.95 605.85 372.85 606.3 372.75 606.75 372.65 607.2 372.55 607.65 372.45 608.1 372.3 608.55 372.2 609.0 372.05 609.45 371.9 609.85 371.7 610.3 371.55 610.75 371.35 611.15 371.15 611.6 370.95 612.0 370.75 612.4 370.6 612.7 370.4 613.05 370.25 613.3 370.15 613.6 370.1 613.6 370.0 613.9 369.85 614.2 369.7 614.45 369.6 614.75 369.5 615.0 369.35 615.25 369.25 615.55 369.15 615.8 369.05 616.05 368.95 616.3 368.9 616.55 368.8 616.8 368.15 618.75 368.05 619.0 368.0 619.25 367.9 619.45 367.85 619.7 367.75 619.9 367.65 620.15 367.6 620.4 367.55 620.6 367.45 620.85 367.4 621.05 367.3 621.3 367.25 621.55 367.15 621.75 367.1 622.0 367.05 622.2 367.0 622.45 366.7 623.35 366.45 624.3 366.15 625.2 365.9 626.05 365.7 626.65 365.6 627.45 365.55 628.1 365.45 628.75 365.4 629.4 365.3 630.0 365.15 630.65 365.05 631.3 364.9 631.95 364.75 632.6 364.6 633.25 364.45 633.9 364.25 634.6 364.1 635.25 363.9 635.95 363.65 636.6 363.45 637.3 363.2 638.0 363.05 638.4 362.9 638.8 362.75 639.2 362.6 639.6 362.45 640.0 362.3 640.4 362.15 640.8 362.0 641.2 361.85 641.6 361.7 642.0 361.6 642.4 361.45 642.8 361.3 643.2 361.15 643.6 361.1 643.75 361.0 643.95 360.9 644.35 359.75 647.65 359.65 647.95 359.5 648.3 359.45 648.45 359.45 648.6 359.4 648.95 359.4 649.3 359.4 649.65 359.4 649.8 359.4 649.9 359.35 650.05 359.35 650.2 359.35 650.3 359.3 650.45 359.3 650.5 359.3 650.55 359.25 650.7 359.25 650.8 359.2 650.95 359.2 651.1 359.15 651.2 359.1 651.35 359.05 651.45 359.0 651.6 359.0 651.7 358.95 651.75 358.9 651.9 358.85 652.05 358.8 652.2 358.7 652.35 358.65 652.5 358.6 652.65 358.55 652.8 358.45 652.95 358.4 653.15 358.35 653.3 358.25 653.45 358.2 653.6 358.1 653.75 358.1 653.85 358.05 653.9 357.95 654.05 357.95 654.2 357.9 654.25 357.85 654.3 357.8 654.3 357.75 654.35 357.7 654.4 357.65 654.45 357.6 654.5 357.55 654.5 357.45 654.55 357.4 654.6 357.3 654.6 357.2 654.65 357.15 654.65 357.05 654.65 356.95 654.65 356.85 654.7 356.75 654.7 354.45 654.65 352.1 654.65 349.8 654.65 347.5 654.6 345.15 654.6 342.85 654.55 340.55 654.55 338.25 654.5 335.9 654.45 333.6 654.45 331.3 654.4 329.05 654.35 326.75 654.3 324.45 654.25 322.2 654.25 319.9 654.2 318.65 654.15 316.75 654.1 313.55 654.05 310.4 654.0 307.2 653.95 304.05 653.9 300.85 653.85 297.65 653.8 294.5 653.75 291.3 653.75 288.15 653.7 284.95 653.7 281.8 653.65 278.6 653.65 275.45 653.65 272.3 653.65 269.15 653.65 267.6 653.65 266.5 653.7 266.1 653.7 264.65 653.7 261.75 653.7 261.65 653.7 260.3 653.75 258.95 653.75 257.55 653.8 256.2 653.8 254.85 653.8 253.55 653.85 252.25 653.85 250.95 653.9 249.65 653.95 248.35 653.95 247.1 654.0 243.35 654.1 228.65 654.4 227.45 654.4 226.25 654.4 225.1 654.45 223.95 654.45 222.85 654.45 221.75 654.45 220.65 654.45 219.55 654.45 218.5 654.4 217.5 654.4 216.45 654.4 215.45 654.35 214.45 654.35 213.5 654.3 212.55 654.3 211.6 654.25 211.4 654.25 211.2 654.25 210.95 654.25 210.75 654.25 210.55 654.25 210.35 654.25 210.15 654.25 209.9 654.25 209.7 654.25 209.5 654.25 209.3 654.25 209.1 654.25 208.9 654.25 208.65 654.2 208.45 654.2 208.25 654.2 208.15 654.2 208.05 654.2 207.95 654.15 207.9 654.15 207.8 654.1 207.75 654.1 207.7 654.05 207.65 654.05 207.6 654.0 207.55 653.95 207.55 653.9 207.5 653.85 207.45 653.85 207.4 653.8 207.35 653.75 207.3 653.7 207.25 653.65 207.25 653.5 207.45 652.8 207.65 652.1 207.85 651.4 208.05 650.75 208.3 650.1 208.5 649.45 208.7 648.8 208.95 648.15 209.15 647.55 209.4 646.95 209.6 646.35 209.85 645.75 210.1 645.15 210.35 644.55 210.6 644.0 210.85 643.45 210.85 643.35 210.9 643.3 210.9 643.2 210.95 643.1 210.95 643.05 211.0 642.95 211.0 642.85 211.05 642.8 211.05 642.7 211.1 642.65 211.1 642.55 211.1 642.45 211.15 642.4 211.15 642.3 211.15 642.25 211.15 642.15 211.25 641.7 211.4 641.25 211.5 640.8 211.65 640.3 211.8 639.85 211.95 639.4 212.1 638.95 212.25 638.5 212.45 638.05 212.65 637.65 212.85 637.2 213.05 636.75 213.25 636.3 213.5 635.9 213.7 635.45 213.95 635.05 214.15 634.75 214.3 634.45 214.5 634.15 214.65 633.85 214.8 633.55 214.95 633.25 215.1 633.0 215.25 632.8 215.25 632.75 215.25 632.7 215.4 632.45 215.55 632.2 215.65 631.9 215.8 631.65 215.9 631.4 216.0 631.15 216.1 630.9 216.2 630.65 216.95 628.8 208.45 654.05 243.35 654.1 208.45 654.05 216.95 628.8 217.0 628.7 217.1 628.45 217.2 628.2 217.3 628.0 217.4 627.75 217.45 627.5 217.55 627.3 217.65 627.05 217.75 626.85 217.85 626.6 217.9 626.4 218.0 626.15 218.1 625.9 218.15 625.7 218.25 625.45 218.35 625.25 218.4 625.0 218.75 624.1 218.8 623.95 219.0 623.2 219.15 622.4 219.25 622.0 219.3 621.6 219.5 620.8 219.65 620.0 219.75 619.4 219.8 619.3 219.85 618.75 220.0 618.15 220.15 617.5 220.3 616.9 220.45 616.25 220.6 615.6 220.8 614.95 221.0 614.3 221.2 613.7 221.45 613.05 221.65 612.35 221.9 611.7 222.15 611.05 222.45 610.4 222.7 609.7 222.9 609.3 223.05 608.95 223.25 608.55 223.4 608.15 223.6 607.75 223.75 607.4 223.8 607.3 223.9 607.0 224.1 606.6 224.25 606.25 224.4 605.85 224.55 605.45 224.75 605.1 224.9 604.7 225.05 604.3 225.2 603.95 225.35 603.55 225.75 602.65 226.7 600.45 226.8 600.15 226.95 599.8 227.05 599.5 227.15 599.2 227.3 598.85 227.4 598.55 227.5 598.2 227.65 597.9 227.75 597.6 227.85 597.25 227.95 596.95 228.05 596.65 228.15 596.3 228.3 596.0 228.4 595.7 228.5 595.4 228.5 595.35 228.55 595.3 228.6 595.25 228.65 595.2 228.7 595.15 228.8 595.05 228.9 595.05 228.95 595.0 228.95 594.95 229.05 594.8 229.05 594.75 229.1 594.65 229.2 594.5 M278.95 652.65 L282.1 652.65 285.3 652.65 288.45 652.7 291.65 652.7 294.8 652.75 298.0 652.8 301.2 652.8 304.4 652.85 307.55 652.9 310.75 652.95 313.95 653.0 317.1 653.1 320.3 653.15 322.55 653.2 324.85 653.25 327.1 653.3 329.4 653.35 331.65 653.35 333.95 653.4 336.25 653.45 338.55 653.5 340.85 653.5 343.15 653.55 345.5 653.55 347.8 653.6 350.1 653.6 352.4 653.6 354.75 653.65 356.15 653.65 356.2 653.5 356.3 653.35 356.35 653.2 356.4 653.05 356.5 652.9 356.55 652.75 356.6 652.6 356.65 652.45 356.75 652.25 356.8 652.1 356.85 651.95 356.9 651.8 356.95 651.65 357.0 651.55 357.05 651.45 357.1 651.3 357.15 651.2 357.15 651.05 357.2 650.95 357.25 650.85 357.25 650.7 357.3 650.6 357.3 650.45 357.3 650.35 357.35 650.25 357.35 650.1 357.35 650.0 357.35 649.85 357.4 649.75 357.4 649.4 357.4 649.05 357.4 648.7 357.4 648.35 357.45 648.0 357.45 647.65 357.5 647.3 357.5 646.9 357.55 646.55 357.6 646.2 357.65 645.8 357.7 645.45 357.8 645.05 357.85 644.7 357.95 644.3 358.05 643.95 358.15 643.5 358.25 643.05 358.35 642.55 358.45 642.1 358.55 641.65 358.7 641.15 358.8 640.7 358.95 640.2 359.1 639.7 359.25 639.25 359.4 638.75 359.6 638.25 359.75 637.75 359.95 637.25 360.1 636.75 360.3 636.25 360.65 635.4 360.95 634.6 361.25 633.75 361.6 632.9 361.9 632.1 362.2 631.25 362.5 630.4 362.75 629.55 363.05 628.65 363.35 627.8 363.65 626.95 363.9 626.05 364.2 625.15 364.45 624.25 364.75 623.35 365.0 622.45 365.05 622.2 365.15 621.95 365.2 621.75 365.25 621.5 365.35 621.3 365.4 621.05 365.5 620.8 365.55 620.6 365.65 620.35 365.7 620.15 365.8 619.9 365.85 619.65 365.95 619.45 366.0 619.2 366.1 618.95 366.15 618.7 366.8 616.75 366.9 616.5 367.0 616.25 367.1 616.0 367.2 615.75 367.3 615.45 367.4 615.2 367.55 614.95 367.65 614.65 367.8 614.35 367.9 614.1 368.05 613.8 368.2 613.5 368.35 613.2 368.5 612.9 368.65 612.6 368.8 612.3 369.0 611.9 369.2 611.45 369.4 611.05 369.6 610.65 369.75 610.25 369.95 609.8 370.1 609.4 370.2 608.95 370.35 608.55 370.5 608.1 370.6 607.65 370.7 607.25 370.8 606.8 370.9 606.35 370.95 605.9 371.0 605.5 371.05 605.4 371.05 605.35 371.05 605.25 371.05 605.15 371.05 605.1 371.05 605.0 371.1 604.95 371.1 604.85 371.1 604.75 371.15 604.7 371.15 604.6 371.2 604.5 371.2 604.45 371.25 604.35 371.25 604.25 371.25 604.15 371.5 603.6 371.7 603.05 371.9 602.5 372.1 601.95 372.25 601.35 372.45 600.8 372.65 600.2 372.8 599.6 373.0 599.0 373.15 598.35 373.3 597.75 373.45 597.1 373.6 596.5 373.75 595.85 373.9 595.2 374.0 594.95 373.85 594.95 373.75 594.95 373.6 594.95 373.5 594.95 373.4 594.95 373.3 594.95 373.2 594.95 373.1 594.95 373.05 594.95 372.95 594.95 372.85 594.95 372.75 594.95 372.05 594.9 371.35 594.9 370.65 594.9 369.9 594.9 369.2 594.9 368.5 594.9 367.85 594.85 367.15 594.85 366.45 594.9 365.75 594.9 365.05 594.9 364.35 594.9 363.65 594.9 362.95 594.9 362.25 594.95 361.55 594.95 359.75 595.05 357.9 595.1 356.05 595.2 354.15 595.25 352.3 595.3 350.4 595.35 348.45 595.45 346.5 595.5 344.5 595.55 342.5 595.6 340.5 595.65 338.4 595.7 336.3 595.7 334.15 595.75 332.0 595.8 329.8 595.85 329.7 595.85 329.65 595.85 329.55 595.85 329.5 595.8 329.4 595.8 329.3 595.8 329.25 595.75 329.15 595.75 329.1 595.7 329.05 595.65 329.0 595.6 328.95 595.55 230.25 595.85 230.2 596.0 230.1 596.3 230.0 596.65 229.9 596.95 229.8 597.25 229.65 597.6 229.55 597.9 229.45 598.25 229.35 598.55 229.2 598.85 229.1 599.2 229.0 599.5 228.85 599.85 228.75 600.15 228.6 600.5 227.3 603.6 227.15 604.0 226.95 604.35 226.8 604.75 226.65 605.1 226.5 605.5 226.35 605.9 226.15 606.25 226.0 606.65 225.85 607.05 225.65 607.45 225.5 607.8 225.35 608.2 225.15 608.6 225.0 609.0 224.8 609.4 224.65 609.75 224.35 610.45 224.1 611.1 223.85 611.75 223.6 612.4 223.35 613.05 223.15 613.65 222.95 614.3 222.75 614.95 222.6 615.6 222.4 616.2 222.25 616.85 222.1 617.45 221.95 618.1 221.85 618.7 221.7 619.3 221.6 619.95 221.45 620.75 221.3 621.55 221.1 622.35 220.95 623.1 220.8 623.9 220.6 624.7 220.45 625.45 220.25 626.2 220.05 627.0 219.85 627.75 219.65 628.5 219.45 629.25 219.25 630.0 219.0 630.75 218.8 631.45 218.55 632.2 218.5 632.55 218.4 632.85 218.3 633.15 218.2 633.5 218.05 633.85 217.95 634.15 217.85 634.5 217.7 634.85 217.55 635.2 217.45 635.55 217.3 635.9 217.15 636.3 217.0 636.65 216.85 637.05 216.65 637.4 216.5 637.8 216.45 637.9 216.45 637.95 216.4 638.05 216.4 638.1 216.35 638.2 216.35 638.25 216.3 638.35 216.3 638.4 216.25 638.5 216.25 638.55 216.2 638.65 216.15 638.7 216.15 638.8 216.1 638.85 216.1 638.95 216.05 639.0 216.0 639.1 216.0 639.15 215.95 639.25 215.95 639.3 215.9 639.4 215.85 639.45 215.85 639.55 215.8 639.6 215.8 639.7 215.75 639.75 215.75 639.85 215.7 639.9 215.7 640.0 215.65 640.05 215.65 640.15 215.6 640.2 215.55 640.35 215.5 640.55 215.45 640.7 215.4 640.85 215.35 641.0 215.3 641.15 215.2 641.3 215.15 641.5 215.1 641.65 215.05 641.8 215.0 641.95 214.9 642.1 214.85 642.25 214.8 642.45 214.7 642.6 214.65 642.75 214.55 643.0 214.45 643.25 214.4 643.5 214.3 643.75 214.2 644.0 214.1 644.25 214.0 644.5 213.9 644.7 213.8 644.95 213.7 645.2 213.55 645.4 213.45 645.65 213.35 645.85 213.25 646.05 213.1 646.3 213.0 646.5 212.75 646.95 212.5 647.4 212.25 647.9 212.05 648.35 211.8 648.8 211.55 649.3 211.35 649.75 211.1 650.2 210.9 650.65 210.7 651.1 210.5 651.55 210.3 652.0 210.05 652.45 209.85 652.9 209.75 653.2 209.95 653.2 210.15 653.25 210.3 653.25 210.5 653.25 210.7 653.25 210.9 653.25 211.1 653.25 211.3 653.25 211.5 653.25 211.75 653.25 211.95 653.25 212.9 653.25 213.85 653.3 214.85 653.35 215.8 653.35 216.85 653.35 217.85 653.4 218.9 653.4 219.95 653.4 221.0 653.4 222.05 653.4 223.15 653.4 224.3 653.4 225.4 653.4 226.55 653.4 227.75 653.4 228.9 653.35 247.3 652.95 248.6 652.95 249.85 652.9 251.15 652.9 252.45 652.85 253.8 652.8 255.1 652.8 256.45 652.8 257.8 652.75 259.2 652.75 260.6 652.7 262.0 652.7 263.45 652.7 264.9 652.65 266.4 652.65 267.9 652.65 269.45 652.65 272.6 652.65 275.75 652.65 278.95 652.65 M357.95 654.2 L318.65 654.15 357.95 654.2 M365.3 628.0 L361.1 643.75 365.3 628.0 M230.4 595.45 L230.4 595.4 230.4 595.45 M231.1 594.55 L231.1 594.6 231.1 594.55 M288.75 594.65 L229.05 594.75 288.75 594.65 M219.25 622.0 L225.75 602.65 219.25 622.0 M214.75 637.25 L214.7 637.35 214.9 637.0 214.95 636.85 214.75 637.25 M214.55 637.7 L214.5 637.85 214.55 637.75 214.7 637.4 214.55 637.7 M214.5 637.85 L214.45 638.0 214.4 638.1 214.2 638.55 214.05 639.0 213.9 639.45 213.8 639.8 213.8 639.75 213.85 639.65 213.85 639.6 213.9 639.5 213.9 639.45 213.95 639.35 213.95 639.3 214.0 639.2 214.05 639.15 214.05 639.05 214.1 639.0 214.1 638.9 214.15 638.85 214.2 638.75 214.2 638.7 214.25 638.6 214.25 638.55 214.3 638.45 214.35 638.4 214.35 638.3 214.4 638.25 214.4 638.15 214.45 638.05 214.45 638.0 214.5 637.9 214.5 637.85 M213.75 639.9 L213.75 639.85 213.7 639.95 213.75 639.9 M213.65 640.1 L213.6 640.3 213.6 640.4 213.6 640.35 213.65 640.2 213.65 640.1 213.7 640.05 213.7 639.95 213.65 640.1 M209.9 648.65 L215.25 632.8 209.9 648.65 M344.65 594.5 L375.2 594.5 370.15 613.6 375.2 594.5 344.65 594.5 322.0 594.6 344.65 594.5 335.7 594.35 344.65 594.5 M330.65 595.6 L330.55 595.65 330.6 595.65 330.65 595.6" fill="#fbd672" fill-rule="evenodd" stroke="none"/>
    <path d="M278.95 652.65 L275.75 652.65 272.6 652.65 269.45 652.65 267.9 652.65 266.4 652.65 264.9 652.65 263.45 652.7 262.0 652.7 260.6 652.7 259.2 652.75 257.8 652.75 256.45 652.8 255.1 652.8 253.8 652.8 252.45 652.85 251.15 652.9 249.85 652.9 248.6 652.95 247.3 652.95 228.9 653.35 227.75 653.4 226.55 653.4 225.4 653.4 224.3 653.4 223.15 653.4 222.05 653.4 221.0 653.4 219.95 653.4 218.9 653.4 217.85 653.4 216.85 653.35 215.8 653.35 214.85 653.35 213.85 653.3 212.9 653.25 211.95 653.25 211.75 653.25 211.5 653.25 211.3 653.25 211.1 653.25 210.9 653.25 210.7 653.25 210.5 653.25 210.3 653.25 210.15 653.25 209.95 653.2 209.75 653.2 209.85 652.9 210.05 652.45 210.3 652.0 210.5 651.55 210.7 651.1 210.9 650.65 211.1 650.2 211.35 649.75 211.55 649.3 211.8 648.8 212.05 648.35 212.25 647.9 212.5 647.4 212.75 646.95 213.0 646.5 213.1 646.3 213.25 646.05 213.35 645.85 213.45 645.65 213.55 645.4 213.7 645.2 213.8 644.95 213.9 644.7 214.0 644.5 214.1 644.25 214.2 644.0 214.3 643.75 214.4 643.5 214.45 643.25 214.55 643.0 214.65 642.75 214.7 642.6 214.8 642.45 214.85 642.25 214.9 642.1 215.0 641.95 215.05 641.8 215.1 641.65 215.15 641.5 215.2 641.3 215.3 641.15 215.35 641.0 215.4 640.85 215.45 640.7 215.5 640.55 215.55 640.35 215.6 640.2 215.65 640.15 215.65 640.05 215.7 640.0 215.7 639.9 215.75 639.85 215.75 639.75 215.8 639.7 215.8 639.6 215.85 639.55 215.85 639.45 215.9 639.4 215.95 639.3 215.95 639.25 216.0 639.15 216.0 639.1 216.05 639.0 216.1 638.95 216.1 638.85 216.15 638.8 216.15 638.7 216.2 638.65 216.25 638.55 216.25 638.5 216.3 638.4 216.3 638.35 216.35 638.25 216.35 638.2 216.4 638.1 216.4 638.05 216.45 637.95 216.45 637.9 216.5 637.8 216.65 637.4 216.85 637.05 217.0 636.65 217.15 636.3 217.3 635.9 217.45 635.55 217.55 635.2 217.7 634.85 217.85 634.5 217.95 634.15 218.05 633.85 218.2 633.5 218.3 633.15 218.4 632.85 218.5 632.55 218.55 632.2 218.8 631.45 219.0 630.75 219.25 630.0 219.45 629.25 219.65 628.5 219.85 627.75 220.05 627.0 220.25 626.2 220.45 625.45 220.6 624.7 220.8 623.9 220.95 623.1 221.1 622.35 221.3 621.55 221.45 620.75 221.6 619.95 221.7 619.3 221.85 618.7 221.95 618.1 222.1 617.45 222.25 616.85 222.4 616.2 222.6 615.6 222.75 614.95 222.95 614.3 223.15 613.65 223.35 613.05 223.6 612.4 223.85 611.75 224.1 611.1 224.35 610.45 224.65 609.75 224.8 609.4 225.0 609.0 225.15 608.6 225.35 608.2 225.5 607.8 225.65 607.45 225.85 607.05 226.0 606.65 226.15 606.25 226.35 605.9 226.5 605.5 226.65 605.1 226.8 604.75 226.95 604.35 227.15 604.0 227.3 603.6 228.6 600.5 228.75 600.15 228.85 599.85 229.0 599.5 229.1 599.2 229.2 598.85 229.35 598.55 229.45 598.25 229.55 597.9 229.65 597.6 229.8 597.25 229.9 596.95 230.0 596.65 230.1 596.3 230.2 596.0 230.25 595.85 328.95 595.55 329.0 595.6 329.05 595.65 329.1 595.7 329.15 595.75 329.25 595.75 329.3 595.8 329.4 595.8 329.5 595.8 329.55 595.85 329.65 595.85 329.7 595.85 329.8 595.85 332.0 595.8 334.15 595.75 336.3 595.7 338.4 595.7 340.5 595.65 342.5 595.6 344.5 595.55 346.5 595.5 348.45 595.45 350.4 595.35 352.3 595.3 354.15 595.25 356.05 595.2 357.9 595.1 359.75 595.05 361.55 594.95 362.25 594.95 362.95 594.9 363.65 594.9 364.35 594.9 365.05 594.9 365.75 594.9 366.45 594.9 367.15 594.85 367.85 594.85 368.5 594.9 369.2 594.9 369.9 594.9 370.65 594.9 371.35 594.9 372.05 594.9 372.75 594.95 372.85 594.95 372.95 594.95 373.05 594.95 373.1 594.95 373.2 594.95 373.3 594.95 373.4 594.95 373.5 594.95 373.6 594.95 373.75 594.95 373.85 594.95 374.0 594.95 373.9 595.2 373.75 595.85 373.6 596.5 373.45 597.1 373.3 597.75 373.15 598.35 373.0 599.0 372.8 599.6 372.65 600.2 372.45 600.8 372.25 601.35 372.1 601.95 371.9 602.5 371.7 603.05 371.5 603.6 371.25 604.15 371.25 604.25 371.25 604.35 371.2 604.45 371.2 604.5 371.15 604.6 371.15 604.7 371.1 604.75 371.1 604.85 371.1 604.95 371.05 605.0 371.05 605.1 371.05 605.15 371.05 605.25 371.05 605.35 371.05 605.4 371.0 605.5 370.95 605.9 370.9 606.35 370.8 606.8 370.7 607.25 370.6 607.65 370.5 608.1 370.35 608.55 370.2 608.95 370.1 609.4 369.95 609.8 369.75 610.25 369.6 610.65 369.4 611.05 369.2 611.45 369.0 611.9 368.8 612.3 368.65 612.6 368.5 612.9 368.35 613.2 368.2 613.5 368.05 613.8 367.9 614.1 367.8 614.35 367.65 614.65 367.55 614.95 367.4 615.2 367.3 615.45 367.2 615.75 367.1 616.0 367.0 616.25 366.9 616.5 366.8 616.75 366.15 618.7 366.1 618.95 366.0 619.2 365.95 619.45 365.85 619.65 365.8 619.9 365.7 620.15 365.65 620.35 365.55 620.6 365.5 620.8 365.4 621.05 365.35 621.3 365.25 621.5 365.2 621.75 365.15 621.95 365.05 622.2 365.0 622.45 364.75 623.35 364.45 624.25 364.2 625.15 363.9 626.05 363.65 626.95 363.35 627.8 363.05 628.65 362.75 629.55 362.5 630.4 362.2 631.25 361.9 632.1 361.6 632.9 361.25 633.75 360.95 634.6 360.65 635.4 360.3 636.25 360.1 636.75 359.95 637.25 359.75 637.75 359.6 638.25 359.4 638.75 359.25 639.25 359.1 639.7 358.95 640.2 358.8 640.7 358.7 641.15 358.55 641.65 358.45 642.1 358.35 642.55 358.25 643.05 358.15 643.5 358.05 643.95 357.95 644.3 357.85 644.7 357.8 645.05 357.7 645.45 357.65 645.8 357.6 646.2 357.55 646.55 357.5 646.9 357.5 647.3 357.45 647.65 357.45 648.0 357.4 648.35 357.4 648.7 357.4 649.05 357.4 649.4 357.4 649.75 357.35 649.85 357.35 650.0 357.35 650.1 357.35 650.25 357.3 650.35 357.3 650.45 357.3 650.6 357.25 650.7 357.25 650.85 357.2 650.95 357.15 651.05 357.15 651.2 357.1 651.3 357.05 651.45 357.0 651.55 356.95 651.65 356.9 651.8 356.85 651.95 356.8 652.1 356.75 652.25 356.65 652.45 356.6 652.6 356.55 652.75 356.5 652.9 356.4 653.05 356.35 653.2 356.3 653.35 356.2 653.5 356.15 653.65 354.75 653.65 352.4 653.6 350.1 653.6 347.8 653.6 345.5 653.55 343.15 653.55 340.85 653.5 338.55 653.5 336.25 653.45 333.95 653.4 331.65 653.35 329.4 653.35 327.1 653.3 324.85 653.25 322.55 653.2 320.3 653.15 317.1 653.1 313.95 653.0 310.75 652.95 307.55 652.9 304.4 652.85 301.2 652.8 298.0 652.8 294.8 652.75 291.65 652.7 288.45 652.7 285.3 652.65 282.1 652.65 278.95 652.65 M234.65 598.9 L234.85 598.9 234.95 598.9 235.05 598.9 235.2 598.9 235.3 598.85 235.4 598.85 235.55 598.85 235.65 598.8 235.8 598.8 235.9 598.75 236.05 598.75 236.15 598.7 236.3 598.7 236.4 598.65 236.55 598.6 236.65 598.55 236.75 598.5 236.85 598.45 236.95 598.4 237.05 598.35 237.15 598.3 237.25 598.25 237.35 598.2 237.4 598.15 237.5 598.05 237.6 598.0 237.65 597.95 237.75 597.9 237.8 597.8 237.85 597.75 237.9 597.7 237.9 597.6 237.95 597.55 237.95 597.5 238.0 597.45 238.0 597.35 238.05 597.3 238.05 597.2 238.05 597.1 237.95 597.0 237.95 596.95 237.9 596.9 237.85 596.85 237.75 596.75 237.7 596.7 237.65 596.7 237.55 596.65 237.5 596.6 237.4 596.55 237.35 596.55 237.25 596.5 237.15 596.45 237.0 596.45 236.9 596.4 236.8 596.4 236.7 596.4 236.6 596.35 236.5 596.35 236.4 596.35 236.3 596.35 236.2 596.35 236.1 596.35 236.0 596.35 235.85 596.4 235.75 596.4 235.65 596.4 235.55 596.45 235.45 596.45 235.35 596.5 235.25 596.5 235.15 596.55 235.0 596.55 234.9 596.6 234.8 596.6 234.7 596.65 234.6 596.65 234.5 596.7 234.4 596.75 234.3 596.8 234.2 596.85 234.1 596.85 234.0 596.9 233.9 596.95 233.8 597.0 233.7 597.05 233.6 597.1 233.5 597.15 233.45 597.15 233.35 597.2 233.3 597.25 233.25 597.3 233.15 597.35 233.05 597.45 233.0 597.5 232.9 597.55 232.85 597.6 232.8 597.65 232.75 597.7 232.7 597.75 232.6 597.85 232.6 597.9 232.55 597.95 232.55 598.05 232.5 598.05 232.5 598.3 232.55 598.35 232.55 598.4 232.6 598.45 232.6 598.5 232.65 598.55 232.7 598.6 232.75 598.6 232.8 598.65 232.85 598.7 232.9 598.7 232.95 598.75 233.05 598.8 233.1 598.8 233.15 598.85 233.3 598.85 233.3 598.9 233.15 598.9 233.15 598.95 233.9 599.0 233.95 599.0 234.05 599.0 234.1 599.0 234.2 598.95 234.25 598.95 234.35 598.95 234.4 598.95 234.5 598.95 234.55 598.95 234.65 598.9 M231.1 594.55 L231.1 594.6 231.1 594.55 M230.4 595.45 L230.4 595.4 230.4 595.45 M214.55 637.7 L214.7 637.4 214.55 637.75 214.5 637.85 214.55 637.7 M214.75 637.25 L214.95 636.85 214.9 637.0 214.7 637.35 214.75 637.25 M214.5 637.85 L214.5 637.9 214.45 638.0 214.45 638.05 214.4 638.15 214.4 638.25 214.35 638.3 214.35 638.4 214.3 638.45 214.25 638.55 214.25 638.6 214.2 638.7 214.2 638.75 214.15 638.85 214.1 638.9 214.1 639.0 214.05 639.05 214.05 639.15 214.0 639.2 213.95 639.3 213.95 639.35 213.9 639.45 213.9 639.5 213.85 639.6 213.85 639.65 213.8 639.75 213.8 639.8 213.9 639.45 214.05 639.0 214.2 638.55 214.4 638.1 214.45 638.0 214.5 637.85 M213.65 640.1 L213.65 640.2 213.6 640.35 213.6 640.4 213.6 640.3 213.65 640.1 213.7 639.95 213.7 640.05 213.65 640.1 M213.75 639.9 L213.7 639.95 213.75 639.85 213.75 639.9 M217.3 652.05 L217.45 652.05 217.6 652.05 217.7 652.05 217.8 652.05 217.95 652.05 218.05 652.05 218.2 652.05 218.3 652.0 218.4 652.0 218.5 651.95 218.6 651.95 218.7 651.9 218.8 651.85 218.9 651.85 219.0 651.8 219.1 651.75 219.2 651.7 219.3 651.65 219.4 651.6 219.5 651.55 219.6 651.5 219.7 651.45 219.75 651.35 219.85 651.3 219.9 651.25 220.0 651.2 220.05 651.1 220.1 651.05 220.2 650.95 220.25 650.9 220.3 650.8 220.35 650.75 220.35 650.65 220.35 650.6 220.35 650.55 220.35 650.45 220.35 650.35 220.35 650.25 220.3 650.2 220.25 650.15 220.25 650.1 220.2 650.0 220.15 649.95 220.05 649.9 220.0 649.85 219.95 649.8 219.85 649.75 219.8 649.7 219.75 649.65 219.65 649.65 219.6 649.6 219.5 649.55 219.4 649.55 219.35 649.5 219.25 649.5 219.15 649.45 219.0 649.45 218.9 649.45 218.8 649.4 218.7 649.4 218.55 649.4 218.45 649.4 218.3 649.4 218.2 649.4 218.1 649.4 217.95 649.4 217.85 649.45 217.75 649.45 217.65 649.45 217.55 649.5 217.45 649.5 217.35 649.55 217.25 649.55 217.15 649.6 217.0 649.6 216.9 649.65 216.8 649.7 216.7 649.7 216.6 649.75 216.5 649.8 216.45 649.85 216.35 649.9 216.25 649.95 216.2 650.0 216.1 650.05 216.0 650.1 215.9 650.1 215.8 650.15 215.75 650.2 215.65 650.25 215.6 650.3 215.55 650.35 215.45 650.35 215.4 650.4 215.35 650.45 215.2 650.6 215.15 650.65 215.0 650.8 214.95 650.85 214.9 650.9 214.9 650.95 214.85 651.05 214.85 651.25 214.9 651.3 214.9 651.4 214.95 651.45 215.0 651.5 215.0 651.55 215.05 651.55 215.1 651.6 215.15 651.65 215.15 651.7 215.2 651.75 215.25 651.75 215.35 651.85 215.45 651.9 215.5 651.9 215.55 651.95 215.65 651.95 215.7 652.0 215.8 652.0 215.85 652.05 215.95 652.05 216.0 652.1 216.1 652.1 216.2 652.1 216.3 652.15 216.55 652.15 216.55 652.2 217.3 652.05 M370.15 598.95 L370.25 598.9 370.35 598.9 370.45 598.85 370.55 598.8 370.65 598.8 370.75 598.75 370.85 598.7 370.95 598.65 371.05 598.6 371.15 598.55 371.25 598.5 371.3 598.45 371.35 598.4 371.35 598.35 371.4 598.25 371.45 598.2 371.45 598.15 371.5 598.1 371.5 597.8 371.5 597.7 371.5 597.65 371.45 597.6 371.45 597.55 371.4 597.5 371.4 597.45 371.35 597.4 371.3 597.35 371.25 597.3 371.2 597.25 371.15 597.2 371.05 597.15 371.0 597.1 370.95 597.1 370.85 597.05 370.75 597.0 370.7 596.95 370.6 596.9 370.5 596.9 370.35 596.85 370.25 596.85 370.15 596.8 370.0 596.8 369.9 596.75 369.8 596.75 369.7 596.75 369.55 596.7 369.45 596.7 369.35 596.7 369.25 596.7 369.1 596.7 369.0 596.7 368.9 596.7 368.8 596.7 368.65 596.75 368.55 596.75 368.4 596.75 368.3 596.75 368.2 596.75 368.1 596.8 368.0 596.8 367.9 596.8 367.8 596.85 367.7 596.85 367.6 596.9 367.5 596.95 367.45 596.95 367.35 597.0 367.25 597.05 367.2 597.1 367.1 597.15 367.0 597.2 366.95 597.25 366.85 597.3 366.75 597.4 366.7 597.5 366.65 597.55 366.6 597.6 366.55 597.65 366.5 597.7 366.5 597.75 366.5 597.85 366.45 597.9 366.45 597.95 366.35 598.15 366.35 598.2 366.3 598.25 366.3 598.35 366.25 598.35 366.25 598.7 366.3 598.7 366.3 598.8 366.4 598.9 366.4 598.95 366.45 598.95 366.5 599.0 366.55 599.0 366.6 599.05 366.65 599.1 366.7 599.1 366.75 599.15 366.85 599.15 366.9 599.2 367.0 599.2 367.05 599.25 367.15 599.25 367.2 599.3 367.3 599.3 367.35 599.35 367.45 599.35 367.5 599.35 367.6 599.4 367.65 599.4 367.75 599.4 367.8 599.4 367.9 599.45 368.0 599.45 368.05 599.45 368.15 599.45 368.2 599.45 368.3 599.45 368.35 599.45 368.45 599.45 368.55 599.45 368.65 599.45 368.7 599.45 368.8 599.4 368.85 599.4 368.95 599.4 369.0 599.4 369.1 599.35 369.2 599.35 369.3 599.35 369.35 599.3 369.45 599.3 369.5 599.3 369.6 599.25 370.6 598.9 370.45 598.9 370.4 598.9 370.4 598.95 370.3 598.95 370.25 599.0 370.15 599.0 370.15 598.95 M370.1 599.0 L370.15 599.0 370.15 599.05 370.05 599.05 370.1 599.0 M330.65 595.6 L330.6 595.65 330.55 595.65 330.65 595.6 M350.5 652.45 L350.55 652.5 350.7 652.65 350.8 652.7 350.85 652.75 350.9 652.8 351.0 652.85 351.1 652.85 351.2 652.9 351.3 652.9 351.4 652.95 351.5 652.95 351.6 653.0 351.7 653.0 351.85 653.05 351.95 653.05 352.05 653.05 352.15 653.1 352.25 653.1 352.35 653.1 352.5 653.1 352.6 653.1 352.7 653.05 352.8 653.05 352.9 653.05 353.0 653.0 353.1 653.0 353.2 652.95 353.35 652.95 353.45 652.95 353.55 652.9 353.7 652.85 353.8 652.85 353.9 652.8 354.0 652.75 354.1 652.7 354.2 652.65 354.3 652.6 354.4 652.6 354.5 652.55 354.55 652.45 354.65 652.4 354.75 652.35 354.8 652.3 354.9 652.25 355.0 652.15 355.05 652.1 355.1 652.05 355.2 652.0 355.25 651.9 355.35 651.8 355.35 651.75 355.4 651.7 355.4 651.6 355.45 651.55 355.45 651.3 355.4 651.2 355.4 651.15 355.35 651.1 355.3 651.05 355.3 651.0 355.25 650.95 355.2 650.9 355.15 650.85 355.1 650.8 355.05 650.75 354.95 650.75 354.9 650.7 354.85 650.65 354.75 650.6 354.65 650.55 354.55 650.55 354.45 650.5 354.35 650.45 354.25 650.45 354.1 650.45 354.0 650.4 353.9 650.4 353.75 650.4 353.65 650.4 353.5 650.4 353.4 650.4 353.35 650.4 353.35 650.35 352.75 650.3 352.65 650.3 352.6 650.3 352.5 650.3 352.4 650.3 352.35 650.3 352.25 650.3 352.15 650.3 352.1 650.3 352.0 650.3 351.9 650.35 351.8 650.35 351.75 650.35 351.65 650.35 351.55 650.4 351.5 650.4 351.4 650.4 351.35 650.45 351.3 650.45 351.2 650.5 351.15 650.5 351.1 650.55 351.0 650.6 350.95 650.6 350.9 650.65 350.85 650.65 350.75 650.7 350.7 650.75 350.65 650.8 350.55 650.8 350.5 650.85 350.45 650.9 350.35 650.95 350.3 650.95 350.25 651.0 350.25 651.05 350.2 651.1 350.15 651.15 350.05 651.25 350.05 651.3 350.0 651.35 350.0 651.45 350.0 651.5 349.95 651.5 349.95 651.55 350.0 651.6 349.95 651.65 349.95 651.95 350.0 652.0 350.05 652.05 350.05 652.1 350.1 652.1 350.15 652.15 350.15 652.2 350.2 652.2 350.5 652.45" fill="#ffffcb" fill-rule="evenodd" stroke="none"/>
    <path d="M233.7 597.05 L233.8 597.0 233.9 596.95 234.0 596.9 234.1 596.85 234.2 596.85 234.3 596.8 234.4 596.75 234.5 596.7 234.6 596.65 234.7 596.65 234.8 596.6 234.9 596.6 235.0 596.55 235.15 596.55 235.25 596.5 235.35 596.5 235.45 596.45 235.55 596.45 235.65 596.4 235.75 596.4 235.85 596.4 236.0 596.35 236.1 596.35 236.2 596.35 236.3 596.35 236.4 596.35 236.5 596.35 236.6 596.35 236.7 596.4 236.8 596.4 236.9 596.4 237.0 596.45 237.15 596.45 237.25 596.5 237.35 596.55 237.4 596.55 237.5 596.6 237.55 596.65 237.65 596.7 237.7 596.7 237.75 596.75 237.85 596.85 237.9 596.9 237.95 596.95 237.95 597.0 238.05 597.1 238.05 597.2 238.05 597.3 238.0 597.35 238.0 597.45 237.95 597.5 237.95 597.55 237.9 597.6 237.9 597.7 237.85 597.75 237.8 597.8 237.75 597.9 237.65 597.95 237.6 598.0 237.5 598.05 237.4 598.15 237.35 598.2 237.25 598.25 237.15 598.3 237.05 598.35 236.95 598.4 236.85 598.45 236.75 598.5 236.65 598.55 236.55 598.6 236.4 598.65 236.3 598.7 236.15 598.7 236.05 598.75 235.9 598.75 235.8 598.8 235.65 598.8 235.55 598.85 235.4 598.85 235.3 598.85 235.2 598.9 235.05 598.9 234.95 598.9 234.85 598.9 234.65 598.9 234.5 598.85 234.4 598.85 234.3 598.85 234.2 598.8 234.05 598.8 233.95 598.75 233.85 598.7 233.75 598.7 233.7 598.65 233.6 598.65 233.55 598.6 233.5 598.55 233.45 598.5 233.4 598.5 233.3 598.4 233.25 598.35 233.25 598.3 233.2 598.25 233.15 598.2 233.15 598.15 233.1 598.1 233.1 598.0 233.1 597.9 233.15 597.85 233.15 597.75 233.2 597.65 233.25 597.6 233.25 597.55 233.3 597.5 233.35 597.45 233.4 597.4 233.45 597.3 233.5 597.25 233.55 597.2 233.65 597.15 233.7 597.05 M216.2 650.0 L216.25 649.95 216.35 649.9 216.45 649.85 216.5 649.8 216.6 649.75 216.7 649.7 216.8 649.7 216.9 649.65 217.0 649.6 217.15 649.6 217.25 649.55 217.35 649.55 217.45 649.5 217.55 649.5 217.65 649.45 217.75 649.45 217.85 649.45 217.95 649.4 218.1 649.4 218.2 649.4 218.3 649.4 218.45 649.4 218.55 649.4 218.7 649.4 218.8 649.4 218.9 649.45 219.0 649.45 219.15 649.45 219.25 649.5 219.35 649.5 219.4 649.55 219.5 649.55 219.6 649.6 219.65 649.65 219.75 649.65 219.8 649.7 219.85 649.75 219.95 649.8 220.0 649.85 220.05 649.9 220.15 649.95 220.2 650.0 220.25 650.1 220.25 650.15 220.3 650.2 220.35 650.25 220.35 650.35 220.35 650.45 220.35 650.55 220.35 650.6 220.35 650.65 220.35 650.75 220.3 650.8 220.25 650.9 220.2 650.95 220.1 651.05 220.05 651.1 220.0 651.2 219.9 651.25 219.85 651.3 219.75 651.35 219.7 651.45 219.6 651.5 219.5 651.55 219.4 651.6 219.3 651.65 219.2 651.7 219.1 651.75 219.0 651.8 218.9 651.85 218.8 651.85 218.7 651.9 218.6 651.95 218.5 651.95 218.4 652.0 218.3 652.0 218.2 652.05 218.05 652.05 217.95 652.05 217.8 652.05 217.7 652.05 217.6 652.05 217.45 652.05 217.3 652.05 217.2 652.05 217.1 652.05 216.95 652.05 216.85 652.0 216.75 652.0 216.65 652.0 216.55 651.95 216.45 651.95 216.4 651.9 216.3 651.9 216.25 651.85 216.2 651.8 216.1 651.75 216.05 651.75 216.0 651.7 215.95 651.65 215.9 651.6 215.85 651.55 215.8 651.5 215.75 651.45 215.7 651.4 215.7 651.35 215.65 651.3 215.6 651.2 215.6 651.15 215.55 651.1 215.55 651.0 215.55 650.9 215.55 650.8 215.6 650.7 215.65 650.65 215.65 650.6 215.7 650.5 215.75 650.45 215.8 650.4 215.9 650.35 215.95 650.25 216.0 650.2 216.05 650.15 216.15 650.1 216.2 650.0 M366.45 597.95 L366.45 597.9 366.5 597.85 366.5 597.75 366.5 597.7 366.55 597.65 366.6 597.6 366.65 597.55 366.7 597.5 366.75 597.4 366.85 597.3 366.95 597.25 367.0 597.2 367.1 597.15 367.2 597.1 367.25 597.05 367.35 597.0 367.45 596.95 367.5 596.95 367.6 596.9 367.7 596.85 367.8 596.85 367.9 596.8 368.0 596.8 368.1 596.8 368.2 596.75 368.3 596.75 368.4 596.75 368.55 596.75 368.65 596.75 368.8 596.7 368.9 596.7 369.0 596.7 369.1 596.7 369.25 596.7 369.35 596.7 369.45 596.7 369.55 596.7 369.7 596.75 369.8 596.75 369.9 596.75 370.0 596.8 370.15 596.8 370.25 596.85 370.35 596.85 370.5 596.9 370.6 596.9 370.7 596.95 370.75 597.0 370.85 597.05 370.95 597.1 371.0 597.1 371.05 597.15 371.15 597.2 371.2 597.25 371.25 597.3 371.3 597.35 371.35 597.4 371.4 597.45 371.4 597.5 371.45 597.55 371.45 597.6 371.5 597.65 371.5 597.7 371.5 597.8 371.5 598.1 371.45 598.15 371.45 598.2 371.4 598.25 371.35 598.35 371.35 598.4 371.3 598.45 371.25 598.5 371.15 598.55 371.05 598.6 370.95 598.65 370.85 598.7 370.75 598.75 370.65 598.8 370.55 598.8 370.45 598.85 370.35 598.9 370.25 598.9 370.15 598.95 370.05 598.95 369.95 599.0 369.85 599.0 369.75 599.0 369.6 599.05 369.5 599.05 369.35 599.05 369.2 599.05 369.1 599.05 368.95 599.05 368.8 599.05 368.7 599.05 368.55 599.05 368.4 599.0 368.3 599.0 368.15 599.0 368.05 598.95 367.95 598.95 367.8 598.9 367.7 598.85 367.6 598.85 367.5 598.8 367.4 598.75 367.3 598.7 367.2 598.7 367.1 598.65 367.0 598.6 366.9 598.55 366.85 598.5 366.75 598.45 366.7 598.4 366.6 598.3 366.55 598.2 366.5 598.15 366.5 598.1 366.45 598.05 366.45 597.95 M353.35 650.4 L353.4 650.4 353.5 650.4 353.65 650.4 353.75 650.4 353.9 650.4 354.0 650.4 354.1 650.45 354.25 650.45 354.35 650.45 354.45 650.5 354.55 650.55 354.65 650.55 354.75 650.6 354.85 650.65 354.9 650.7 354.95 650.75 355.05 650.75 355.1 650.8 355.15 650.85 355.2 650.9 355.25 650.95 355.3 651.0 355.3 651.05 355.35 651.1 355.4 651.15 355.4 651.2 355.45 651.3 355.45 651.55 355.4 651.6 355.4 651.7 355.35 651.75 355.35 651.8 355.25 651.9 355.2 652.0 355.1 652.05 355.05 652.1 355.0 652.15 354.9 652.25 354.8 652.3 354.75 652.35 354.65 652.4 354.55 652.45 354.5 652.55 354.4 652.6 354.3 652.6 354.2 652.65 354.1 652.7 354.0 652.75 353.9 652.8 353.8 652.85 353.7 652.85 353.55 652.9 353.45 652.95 353.35 652.95 353.2 652.95 353.1 653.0 353.0 653.0 352.9 653.05 352.8 653.05 352.7 653.05 352.6 653.1 352.5 653.1 352.35 653.1 352.25 653.1 352.15 653.1 352.05 653.05 351.95 653.05 351.85 653.05 351.7 653.0 351.6 653.0 351.5 652.95 351.4 652.95 351.3 652.9 351.2 652.9 351.1 652.85 351.0 652.85 350.9 652.8 350.85 652.75 350.8 652.7 350.7 652.65 350.55 652.5 350.5 652.45 350.5 652.4 350.45 652.3 350.4 652.25 350.4 652.2 350.4 652.1 350.4 652.0 350.45 651.9 350.45 651.8 350.5 651.75 350.55 651.65 350.6 651.6 350.65 651.55 350.7 651.45 350.75 651.4 350.8 651.3 350.9 651.25 351.0 651.15 351.1 651.1 351.2 651.05 351.3 651.0 351.4 650.95 351.5 650.85 351.6 650.8 351.7 650.75 351.8 650.75 351.9 650.7 352.05 650.65 352.15 650.6 352.25 650.6 352.4 650.55 352.5 650.55 352.65 650.5 352.8 650.5 352.9 650.5 353.0 650.45 353.15 650.45 353.25 650.4 353.35 650.4" fill="#ffe617" fill-rule="evenodd" stroke="none"/>
    <path d="M234.65 598.9 L234.55 598.95 234.5 598.95 234.4 598.95 234.35 598.95 234.25 598.95 234.2 598.95 234.1 599.0 234.05 599.0 233.95 599.0 233.9 599.0 233.15 598.95 233.15 598.9 233.3 598.9 233.3 598.85 233.15 598.85 233.1 598.8 233.05 598.8 232.95 598.75 232.9 598.7 232.85 598.7 232.8 598.65 232.75 598.6 232.7 598.6 232.65 598.55 232.6 598.5 232.6 598.45 232.55 598.4 232.55 598.35 232.5 598.3 232.5 598.05 232.55 598.05 232.55 597.95 232.6 597.9 232.6 597.85 232.7 597.75 232.75 597.7 232.8 597.65 232.85 597.6 232.9 597.55 233.0 597.5 233.05 597.45 233.15 597.35 233.25 597.3 233.3 597.25 233.35 597.2 233.45 597.15 233.5 597.15 233.6 597.1 233.7 597.05 233.65 597.15 233.55 597.2 233.5 597.25 233.45 597.3 233.4 597.4 233.35 597.45 233.3 597.5 233.25 597.55 233.25 597.6 233.2 597.65 233.15 597.75 233.15 597.85 233.1 597.9 233.1 598.0 233.1 598.1 233.15 598.15 233.15 598.2 233.2 598.25 233.25 598.3 233.25 598.35 233.3 598.4 233.4 598.5 233.45 598.5 233.5 598.55 233.55 598.6 233.6 598.65 233.7 598.65 233.75 598.7 233.85 598.7 233.95 598.75 234.05 598.8 234.2 598.8 234.3 598.85 234.4 598.85 234.5 598.85 234.65 598.9 M217.3 652.05 L216.55 652.2 216.55 652.15 216.3 652.15 216.2 652.1 216.1 652.1 216.0 652.1 215.95 652.05 215.85 652.05 215.8 652.0 215.7 652.0 215.65 651.95 215.55 651.95 215.5 651.9 215.45 651.9 215.35 651.85 215.25 651.75 215.2 651.75 215.15 651.7 215.15 651.65 215.1 651.6 215.05 651.55 215.0 651.55 215.0 651.5 214.95 651.45 214.9 651.4 214.9 651.3 214.85 651.25 214.85 651.05 214.9 650.95 214.9 650.9 214.95 650.85 215.0 650.8 215.15 650.65 215.2 650.6 215.35 650.45 215.4 650.4 215.45 650.35 215.55 650.35 215.6 650.3 215.65 650.25 215.75 650.2 215.8 650.15 215.9 650.1 216.0 650.1 216.1 650.05 216.2 650.0 216.15 650.1 216.05 650.15 216.0 650.2 215.95 650.25 215.9 650.35 215.8 650.4 215.75 650.45 215.7 650.5 215.65 650.6 215.65 650.65 215.6 650.7 215.55 650.8 215.55 650.9 215.55 651.0 215.55 651.1 215.6 651.15 215.6 651.2 215.65 651.3 215.7 651.35 215.7 651.4 215.75 651.45 215.8 651.5 215.85 651.55 215.9 651.6 215.95 651.65 216.0 651.7 216.05 651.75 216.1 651.75 216.2 651.8 216.25 651.85 216.3 651.9 216.4 651.9 216.45 651.95 216.55 651.95 216.65 652.0 216.75 652.0 216.85 652.0 216.95 652.05 217.1 652.05 217.2 652.05 217.3 652.05 M370.15 598.95 L370.15 599.0 370.25 599.0 370.3 598.95 370.4 598.95 370.4 598.9 370.45 598.9 370.6 598.9 369.6 599.25 369.5 599.3 369.45 599.3 369.35 599.3 369.3 599.35 369.2 599.35 369.1 599.35 369.0 599.4 368.95 599.4 368.85 599.4 368.8 599.4 368.7 599.45 368.65 599.45 368.55 599.45 368.45 599.45 368.35 599.45 368.3 599.45 368.2 599.45 368.15 599.45 368.05 599.45 368.0 599.45 367.9 599.45 367.8 599.4 367.75 599.4 367.65 599.4 367.6 599.4 367.5 599.35 367.45 599.35 367.35 599.35 367.3 599.3 367.2 599.3 367.15 599.25 367.05 599.25 367.0 599.2 366.9 599.2 366.85 599.15 366.75 599.15 366.7 599.1 366.65 599.1 366.6 599.05 366.55 599.0 366.5 599.0 366.45 598.95 366.4 598.95 366.4 598.9 366.3 598.8 366.3 598.7 366.25 598.7 366.25 598.35 366.3 598.35 366.3 598.25 366.35 598.2 366.35 598.15 366.45 597.95 366.45 598.05 366.5 598.1 366.5 598.15 366.55 598.2 366.6 598.3 366.7 598.4 366.75 598.45 366.85 598.5 366.9 598.55 367.0 598.6 367.1 598.65 367.2 598.7 367.3 598.7 367.4 598.75 367.5 598.8 367.6 598.85 367.7 598.85 367.8 598.9 367.95 598.95 368.05 598.95 368.15 599.0 368.3 599.0 368.4 599.0 368.55 599.05 368.7 599.05 368.8 599.05 368.95 599.05 369.1 599.05 369.2 599.05 369.35 599.05 369.5 599.05 369.6 599.05 369.75 599.0 369.85 599.0 369.95 599.0 370.05 598.95 370.15 598.95 M370.1 599.0 L370.05 599.05 370.15 599.05 370.15 599.0 370.1 599.0 M350.5 652.45 L350.2 652.2 350.15 652.2 350.15 652.15 350.1 652.1 350.05 652.1 350.05 652.05 350.0 652.0 349.95 651.95 349.95 651.65 350.0 651.6 349.95 651.55 349.95 651.5 350.0 651.5 350.0 651.45 350.0 651.35 350.05 651.3 350.05 651.25 350.15 651.15 350.2 651.1 350.25 651.05 350.25 651.0 350.3 650.95 350.35 650.95 350.45 650.9 350.5 650.85 350.55 650.8 350.65 650.8 350.7 650.75 350.75 650.7 350.85 650.65 350.9 650.65 350.95 650.6 351.0 650.6 351.1 650.55 351.15 650.5 351.2 650.5 351.3 650.45 351.35 650.45 351.4 650.4 351.5 650.4 351.55 650.4 351.65 650.35 351.75 650.35 351.8 650.35 351.9 650.35 352.0 650.3 352.1 650.3 352.15 650.3 352.25 650.3 352.35 650.3 352.4 650.3 352.5 650.3 352.6 650.3 352.65 650.3 352.75 650.3 353.35 650.35 353.35 650.4 353.25 650.4 353.15 650.45 353.0 650.45 352.9 650.5 352.8 650.5 352.65 650.5 352.5 650.55 352.4 650.55 352.25 650.6 352.15 650.6 352.05 650.65 351.9 650.7 351.8 650.75 351.7 650.75 351.6 650.8 351.5 650.85 351.4 650.95 351.3 651.0 351.2 651.05 351.1 651.1 351.0 651.15 350.9 651.25 350.8 651.3 350.75 651.4 350.7 651.45 350.65 651.55 350.6 651.6 350.55 651.65 350.5 651.75 350.45 651.8 350.45 651.9 350.4 652.0 350.4 652.1 350.4 652.2 350.4 652.25 350.45 652.3 350.5 652.4 350.5 652.45" fill="#000000" fill-rule="evenodd" stroke="none"/>
    <path d="M264.65 653.7 L261.75 653.7" fill="none" stroke="#000000" stroke-linecap="square" stroke-linejoin="bevel" stroke-opacity="0.003921569" stroke-width="0.05"/>
    <path d="M335.65 594.35 L335.7 594.35 M215.25 632.75 L215.25 632.7 M223.8 607.3 L223.9 607.0" fill="none" stroke="#000000" stroke-linecap="square" stroke-linejoin="bevel" stroke-opacity="0.003921569" stroke-width="0.05"/>
    <path d="M271.0 594.45 L335.65 594.35 M370.15 613.6 L359.3 654.2 357.95 654.2 318.65 654.15 243.35 654.1 208.45 654.05 216.95 628.8 219.25 622.0 225.75 602.65 228.4 594.75 229.05 594.75 288.75 594.65 290.3 594.65 293.35 594.65 294.35 594.65 296.55 594.65 322.0 594.6 344.65 594.5 375.2 594.5 370.15 613.6 M215.25 632.7 L219.8 619.3 M223.9 607.0 L228.1 594.5 229.2 594.5 271.0 594.45 M266.5 653.7 L291.3 653.75 M361.1 643.75 L359.35 650.3 359.3 650.5 M335.7 594.35 L344.65 594.5 M359.0 651.7 L358.4 653.85 358.1 653.85" fill="none" stroke="#000000" stroke-linecap="round" stroke-linejoin="bevel" stroke-opacity="0.003921569" stroke-width="0.05"/>
    <path d="M291.3 653.75 L294.5 653.75 M359.0 651.7 L359.0 651.6 M361.1 643.75 L365.3 628.0 M266.5 653.7 L266.1 653.7 M215.25 632.8 L209.9 648.65" fill="none" stroke="#000000" stroke-linecap="round" stroke-linejoin="bevel" stroke-opacity="0.003921569" stroke-width="0.05"/>
  </g>
</svg>
