<?xml version="1.0" encoding="UTF-8" standalone="no"?>
<svg xmlns:xlink="http://www.w3.org/1999/xlink" height="85.65px" width="165.2px" xmlns="http://www.w3.org/2000/svg">
  <g transform="matrix(1.0, 0.0, 0.0, 1.0, -483.0, -485.2)">
    <path d="M646.0 564.95 L646.65 567.4 647.25 569.9 646.45 569.95 645.65 569.95 644.85 569.95 644.05 569.95 639.85 570.1 635.65 570.15 631.4 570.15 627.2 570.05 622.7 569.95 618.15 569.8 613.6 569.6 609.1 569.45 603.65 569.25 598.25 569.1 592.85 569.0 587.45 568.9 575.05 568.9 562.7 568.95 550.3 569.15 537.95 569.45 529.05 569.65 520.15 569.8 511.25 569.9 502.4 569.95 502.1 569.15 501.85 568.3 501.6 567.5 501.35 566.65 501.2 565.95 501.05 565.25 501.0 564.6 500.95 563.95 500.9 562.0 500.8 560.05 500.6 558.1 500.3 556.15 499.9 553.55 499.35 550.95 498.75 548.3 498.1 545.7 496.75 540.85 495.55 536.05 494.4 531.25 493.4 526.4 492.95 524.45 492.5 522.45 492.0 520.45 491.55 518.4 491.1 516.85 490.65 515.25 490.1 513.7 489.55 512.1 488.7 509.6 488.05 507.15 487.55 504.65 487.2 502.15 487.2 501.7 487.1 501.25 487.05 500.75 486.95 500.3 486.05 496.75 485.25 493.2 484.6 489.65 484.0 486.1 484.5 486.1 485.05 486.05 485.6 486.05 486.15 486.0 489.0 485.95 491.85 485.9 494.7 485.9 497.55 486.0 505.6 486.4 513.65 486.75 521.7 487.0 529.75 487.15 529.2 486.75 633.05 486.8 633.35 488.7 633.65 490.6 634.0 492.5 634.35 494.35 635.05 497.8 635.8 501.2 636.55 504.6 637.35 508.0 638.05 511.75 638.6 515.5 639.0 519.15 639.2 522.85 639.45 527.15 639.8 531.5 640.25 535.85 640.8 540.25 641.05 542.2 641.4 544.15 641.8 546.1 642.2 548.0 642.35 548.85 642.5 549.7 642.7 550.55 642.85 551.4 642.95 552.25 643.1 553.15 643.25 554.0 643.45 554.9 643.7 556.15 643.95 557.4 644.25 558.7 644.65 559.95 645.35 562.45 646.0 564.95" fill="#ffffcb" fill-rule="evenodd" stroke="none"/>
    <path d="M645.6 559.9 L646.35 562.5 647.05 565.05 647.65 567.5 648.2 569.85 648.2 570.15 648.05 570.35 647.8 570.55 647.45 570.6 646.6 570.65 645.8 570.65 644.95 570.65 644.15 570.65 640.3 570.8 636.25 570.85 631.9 570.85 627.25 570.75 609.15 570.15 604.15 570.0 598.9 569.85 593.4 569.7 587.55 569.65 575.2 569.6 562.8 569.7 550.45 569.85 538.1 570.15 529.25 570.35 520.4 570.5 511.45 570.6 502.5 570.65 502.15 570.6 501.85 570.5 501.6 570.3 501.45 570.05 501.15 569.2 500.9 568.4 500.65 567.55 500.4 566.7 500.2 566.0 500.1 565.3 500.0 564.65 499.95 563.95 499.9 562.05 499.85 560.15 499.65 558.15 499.35 556.2 498.95 553.7 498.45 551.15 497.85 548.45 497.1 545.75 495.85 541.15 494.65 536.45 493.5 531.55 492.4 526.45 492.15 525.15 491.85 523.85 491.55 522.55 491.2 521.25 490.55 518.4 490.2 517.0 489.75 515.5 489.2 513.9 488.55 512.2 487.75 509.75 487.1 507.3 486.55 504.7 486.2 502.1 486.2 501.65 486.15 501.25 486.05 500.75 485.95 500.3 485.1 497.05 484.35 493.6 483.65 490.0 483.0 486.1 483.05 485.8 483.2 485.6 483.5 485.45 483.85 485.4 484.1 485.4 484.3 485.4 484.55 485.35 484.8 485.35 485.1 485.35 485.4 485.35 485.7 485.3 486.0 485.3 488.9 485.25 491.75 485.2 494.6 485.2 497.45 485.3 504.95 485.7 512.7 486.0 520.9 486.25 528.25 486.45 528.35 486.3 528.55 486.15 528.8 486.05 529.05 486.05 632.95 486.1 633.35 486.15 633.7 486.3 633.95 486.55 634.05 486.8 634.35 488.7 634.65 490.6 634.95 492.5 635.3 494.35 633.35 494.4 633.0 492.5 632.65 490.6 632.35 488.7 632.2 487.55 530.7 487.5 530.6 487.7 530.4 487.8 530.15 487.9 529.85 487.9 521.1 487.7 512.9 487.45 505.1 487.15 497.6 486.75 494.8 486.65 492.0 486.65 489.15 486.65 486.3 486.75 486.0 486.75 485.75 486.75 485.5 486.8 485.2 486.8 485.1 486.8 485.6 490.0 486.3 493.6 487.1 497.05 487.95 500.3 488.0 500.8 488.1 501.25 488.15 501.75 488.2 502.2 488.55 504.75 489.05 507.25 489.7 509.65 490.5 512.0 491.1 513.75 491.65 515.4 492.15 516.95 492.5 518.4 493.15 521.2 493.5 522.5 493.8 523.8 494.1 525.15 494.35 526.45 495.45 531.5 496.6 536.4 497.8 541.1 499.05 545.65 499.75 548.4 500.4 551.1 500.9 553.7 501.25 556.2 501.6 558.25 501.8 560.25 501.9 562.2 501.9 564.05 501.95 564.7 502.05 565.35 502.15 566.0 502.3 566.65 502.55 567.45 502.8 568.25 503.05 569.1 503.1 569.3 511.15 569.25 520.05 569.15 528.95 568.95 537.75 568.75 550.15 568.5 562.55 568.3 574.95 568.2 587.35 568.25 593.25 568.35 598.75 568.45 604.0 568.6 609.05 568.8 627.1 569.4 631.7 569.45 636.0 569.5 640.05 569.4 643.9 569.3 644.7 569.3 645.5 569.3 646.15 569.25 645.7 567.6 645.1 565.15 644.4 562.6 643.7 560.05 643.3 558.9 643.0 557.65 642.75 556.35 642.5 554.95 642.3 554.05 642.15 553.15 642.0 552.3 641.85 551.4 641.75 551.0 641.7 550.55 641.6 550.15 641.55 549.75 641.45 549.35 641.35 548.9 641.3 548.5 641.25 548.1 640.75 545.95 640.35 543.95 640.05 542.05 639.8 540.25 639.3 536.05 638.85 531.8 638.5 527.35 638.2 522.8 638.0 519.25 637.65 515.6 637.1 511.9 636.35 508.1 635.8 505.8 635.3 503.55 634.8 501.3 634.35 499.05 633.35 494.45 635.3 494.35 636.3 499.0 636.8 501.2 637.3 503.45 637.8 505.75 638.3 508.0 639.05 511.9 639.65 515.65 640.0 519.3 640.2 522.95 640.5 527.45 640.85 531.85 641.3 536.1 641.8 540.25 642.05 542.05 642.35 543.95 642.75 545.9 643.2 548.0 643.25 548.45 643.35 548.85 643.4 549.3 643.5 549.7 643.6 550.1 643.65 550.55 643.75 551.0 643.8 551.4 643.95 552.3 644.1 553.15 644.25 554.0 644.45 554.85 644.7 556.25 644.95 557.55 645.25 558.75 645.6 559.9" fill="#fbd672" fill-rule="evenodd" stroke="none"/>
    <path d="M492.6 490.7 L492.65 490.85 492.6 490.8 492.6 490.7 M492.55 490.9 L492.55 490.95 492.6 490.95 492.65 491.0 492.65 490.85 492.85 491.4 492.95 491.65 492.95 491.9 492.95 492.1 492.9 492.35 492.8 492.55 492.6 492.7 492.35 492.9 492.05 493.05 491.75 493.15 491.45 493.25 491.15 493.3 490.85 493.35 490.5 493.3 490.2 493.2 489.9 493.15 489.6 493.05 488.6 492.5 488.75 492.55 488.85 492.6 488.95 492.65 489.05 492.7 489.1 492.7 489.0 492.6 489.0 492.55 488.85 492.3 488.75 492.0 488.7 491.7 488.7 491.4 488.75 491.15 488.95 490.95 489.25 490.75 489.6 490.55 489.95 490.4 490.3 490.35 490.65 490.3 491.05 490.35 491.45 490.35 491.85 490.5 492.2 490.65 492.55 490.9" fill="#000000" fill-rule="evenodd" stroke="none"/>
    <path d="M492.7 491.0 L492.7 491.35 492.55 491.65 492.3 491.95 492.0 492.25 491.55 492.5 491.1 492.65 490.6 492.75 490.05 492.8 489.55 492.8 489.1 492.7 488.65 492.5 488.25 492.3 487.9 492.0 487.75 491.65 487.65 491.35 487.6 491.05 487.65 490.7 487.75 490.4 488.0 490.1 488.25 489.85 488.65 489.65 489.1 489.5 489.55 489.4 490.0 489.35 490.45 489.4 490.95 489.45 491.35 489.55 491.7 489.75 492.05 490.0 492.35 490.3 492.55 490.65 492.7 491.0" fill="#ffe617" fill-rule="evenodd" stroke="none"/>
    <path d="M628.85 489.55 L629.1 489.85 629.35 490.15 629.5 490.45 629.55 490.75 629.6 491.0 629.5 491.3 629.3 491.55 629.1 491.8 628.8 491.95 628.7 491.95 628.7 492.0 628.65 492.05 628.7 492.05 628.75 492.05 628.8 492.05 628.85 492.1 628.05 492.15 627.75 492.15 627.45 492.1 627.15 492.0 626.8 491.9 626.5 491.8 626.25 491.65 625.95 491.45 625.7 491.25 625.55 491.0 625.4 490.75 625.35 490.5 625.35 490.3 625.35 490.05 625.4 489.8 625.55 489.6 625.75 489.45 626.15 489.05 626.15 489.1 626.2 489.1 626.25 489.05 626.65 489.0 627.05 488.95 627.45 489.0 627.75 489.05 628.2 489.2 628.55 489.35 628.85 489.55" fill="#000000" fill-rule="evenodd" stroke="none"/>
    <path d="M628.1 489.0 L628.45 489.3 628.7 489.7 628.85 490.05 628.95 490.4 628.95 490.75 628.85 491.05 628.65 491.35 628.45 491.6 628.15 491.75 627.65 491.95 627.2 492.05 626.7 492.05 626.25 491.9 625.7 491.75 625.25 491.55 624.8 491.25 624.5 490.9 624.2 490.55 624.05 490.15 623.95 489.75 623.95 489.4 624.15 489.1 624.35 488.8 624.65 488.55 625.1 488.4 625.55 488.25 625.95 488.25 626.4 488.3 626.8 488.45 627.25 488.6 627.7 488.8 628.1 489.0" fill="#ffe617" fill-rule="evenodd" stroke="none"/>
    <path d="M640.8 565.3 L641.0 565.55 641.15 565.85 641.3 566.15 641.3 566.45 641.2 566.7 641.05 566.95 640.85 567.2 640.65 567.35 640.35 567.55 640.05 567.65 639.7 567.75 639.6 567.75 639.55 567.75 639.45 567.75 639.4 567.75 638.75 567.6 638.2 567.4 637.75 567.05 637.45 566.65 637.25 566.15 637.25 565.65 637.45 565.25 637.75 564.9 Q637.95 564.75 638.2 564.7 L639.1 564.45 639.0 564.5 638.9 564.6 639.0 564.6 639.1 564.6 639.45 564.65 639.85 564.7 640.2 564.85 640.55 565.1 640.8 565.3" fill="#000000" fill-rule="evenodd" stroke="none"/>
    <path d="M640.3 565.1 L640.45 565.45 640.6 565.8 640.65 566.15 640.55 566.5 640.35 566.8 640.15 567.05 639.9 567.3 639.6 567.45 639.2 567.55 638.75 567.6 638.25 567.6 637.8 567.55 637.4 567.4 637.0 567.2 636.65 566.9 636.35 566.6 636.1 566.25 635.9 565.8 635.9 565.45 636.0 565.1 636.2 564.75 636.5 564.5 636.8 564.25 637.15 564.1 637.6 564.05 638.1 564.0 638.5 564.05 638.95 564.15 639.35 564.3 639.75 564.5 640.05 564.75 640.3 565.1" fill="#ffe617" fill-rule="evenodd" stroke="none"/>
    <path d="M508.9 565.9 L509.05 566.1 509.1 566.35 509.1 566.55 509.15 566.8 509.1 567.0 509.0 567.2 508.85 567.4 508.35 567.9 508.35 567.8 508.4 567.75 508.45 567.65 508.35 567.65 508.3 567.7 508.25 567.7 507.9 567.8 507.55 567.8 507.2 567.8 506.8 567.7 506.45 567.6 506.1 567.4 505.75 567.2 505.4 566.95 505.2 566.65 505.1 566.4 505.05 566.1 505.1 565.85 505.15 565.6 505.3 565.35 505.5 565.15 505.8 564.95 505.8 564.9 505.9 564.9 506.45 564.85 506.75 564.8 507.05 564.8 507.4 564.9 507.75 564.95 507.95 565.1 508.2 565.25 508.5 565.45 508.75 565.65 508.9 565.9" fill="#000000" fill-rule="evenodd" stroke="none"/>
    <path d="M507.7 565.55 L508.05 565.9 508.35 566.3 508.55 566.65 508.6 567.0 508.65 567.35 508.5 567.7 508.25 567.95 508.0 568.15 507.55 568.3 507.15 568.4 506.75 568.45 506.3 568.4 505.9 568.3 505.5 568.15 505.05 567.95 504.7 567.7 504.4 567.4 504.1 567.05 503.9 566.7 503.8 566.4 503.75 566.1 503.85 565.8 504.0 565.55 504.25 565.3 504.5 565.05 504.95 564.9 505.4 564.85 505.9 564.9 506.35 565.0 506.85 565.1 507.3 565.3 507.7 565.55" fill="#ffe617" fill-rule="evenodd" stroke="none"/>
  </g>
</svg>
