<?xml version="1.0" encoding="UTF-8" standalone="no"?>
<svg xmlns:xlink="http://www.w3.org/1999/xlink" height="75.05px" width="57.1px" xmlns="http://www.w3.org/2000/svg">
  <g transform="matrix(1.0, 0.0, 0.0, 1.0, 0.0, 0.0)">
    <path d="M53.85 2.55 L53.8 1.85 50.6 2.0 43.25 2.35 33.5 2.75 22.9 3.15 13.15 3.6 5.75 3.85 2.4 4.0 2.7 6.2 3.0 8.8 3.25 11.1 3.6 16.0 3.8 18.25 4.05 22.4 4.35 28.9 4.55 33.4 4.55 33.85 4.65 38.55 4.65 40.45 4.65 44.2 4.55 49.05 4.15 55.3 4.1 56.3 3.75 60.4 3.25 65.3 3.05 66.55 2.35 71.85 2.1 73.05 5.6 72.8 13.15 72.25 23.1 71.5 33.85 70.65 43.75 69.95 51.15 69.4 54.35 69.15 54.4 68.9 54.6 64.2 54.65 63.15 54.95 56.75 54.95 56.25 55.1 52.45 55.25 47.35 55.3 46.95 55.35 43.8 55.4 39.45 55.4 37.35 55.4 37.2 55.2 31.7 55.2 30.95 54.95 25.3 54.85 22.65 54.75 21.1 54.5 15.65 54.4 14.05 54.2 9.0 54.05 6.55 53.85 2.55 M0.9 6.15 L0.5 3.35 0.25 2.25 55.45 0.0 55.5 0.9 55.6 3.0 55.85 8.4 56.2 15.8 56.6 23.85 56.95 31.45 57.1 37.3 57.05 44.15 56.8 52.7 56.45 61.05 56.15 67.45 56.05 70.05 56.0 70.9 0.0 75.05 0.25 73.9 0.8 70.65 1.8 62.1 2.75 49.35 Q3.05 42.05 2.8 33.5 2.4 22.25 1.85 15.65 L0.9 6.15" fill="#683172" fill-rule="evenodd" stroke="none"/>
    <path d="M2.7 6.2 L2.4 4.0 5.75 3.85 13.15 3.6 22.9 3.15 33.5 2.75 43.25 2.35 50.6 2.0 53.8 1.85 53.85 2.55 2.7 6.2 M54.2 9.0 L54.4 14.05 54.5 15.65 3.6 16.0 3.25 11.1 54.2 9.0 M54.75 21.1 L54.85 22.65 54.95 25.3 4.35 28.9 4.05 22.4 54.75 21.1 M55.2 31.7 L55.4 37.2 4.65 38.55 4.55 33.85 55.2 31.7 M55.35 43.8 L55.3 46.95 4.55 49.05 4.65 44.2 55.35 43.8 M55.1 52.45 L54.95 56.25 54.95 56.75 3.75 60.4 4.1 56.3 55.1 52.45 M54.65 63.15 L54.6 64.2 54.4 68.9 2.35 71.85 3.05 66.55 3.25 65.3 54.65 63.15" fill="#7f3d8c" fill-rule="evenodd" stroke="none"/>
    <path d="M53.85 2.55 L54.05 6.55 54.2 9.0 3.25 11.1 3.0 8.8 2.7 6.2 53.85 2.55 M54.5 15.65 L54.75 21.1 4.05 22.4 3.8 18.25 3.6 16.0 54.5 15.65 M54.95 25.3 L55.2 30.95 55.2 31.7 4.55 33.85 4.55 33.4 4.35 28.9 54.95 25.3 M55.4 37.2 L55.4 37.35 55.4 39.45 55.35 43.8 4.65 44.2 4.65 40.45 4.65 38.55 55.4 37.2 M55.3 46.95 L55.25 47.35 55.1 52.45 4.1 56.3 4.15 55.3 4.55 49.05 55.3 46.95 M54.95 56.75 L54.65 63.15 3.25 65.3 3.75 60.4 54.95 56.75 M54.4 68.9 L54.35 69.15 51.15 69.4 43.75 69.95 33.85 70.65 23.1 71.5 13.15 72.25 5.6 72.8 2.1 73.05 2.35 71.85 54.4 68.9" fill="#7f5597" fill-rule="evenodd" stroke="none"/>
  </g>
</svg>
