<?xml version="1.0" encoding="UTF-8" standalone="no"?>
<svg xmlns:xlink="http://www.w3.org/1999/xlink" height="53.2px" width="48.7px" xmlns="http://www.w3.org/2000/svg">
  <g transform="matrix(1.0, 0.0, 0.0, 1.0, 24.35, 41.7)">
    <path d="M23.75 10.9 L-23.75 10.9 -23.75 -41.1 23.75 -41.1 23.75 10.9" fill="#ffffff" fill-rule="evenodd" stroke="none"/>
    <path d="M23.75 10.9 L-23.75 10.9 -23.75 -41.1 23.75 -41.1 23.75 10.9 Z" fill="none" stroke="#000000" stroke-linecap="round" stroke-linejoin="round" stroke-opacity="0.19215687" stroke-width="1.25"/>
    <path d="M21.3 -36.2 L21.3 -38.75 16.55 -38.75 16.55 -36.2 21.3 -36.2 M21.3 -31.65 L21.3 -34.2 16.55 -34.2 16.55 -31.65 21.3 -31.65 M21.3 -27.1 L21.3 -29.65 16.55 -29.65 16.55 -27.1 21.3 -27.1 M16.55 -9.7 L21.3 -9.7 21.3 -12.25 16.55 -12.25 16.55 -9.7 M16.55 -5.15 L21.3 -5.15 21.3 -7.7 16.55 -7.7 16.55 -5.15 M16.55 -0.6 L21.3 -0.6 21.3 -3.15 16.55 -3.15 16.55 -0.6 M16.55 -18.0 L21.3 -18.0 21.3 -20.55 16.55 -20.55 16.55 -18.0 M16.55 -14.25 L21.3 -14.25 21.3 -16.0 16.55 -16.0 16.55 -14.25 M21.3 -22.55 L21.3 -25.1 16.55 -25.1 16.55 -22.55 21.3 -22.55 M22.3 -39.5 L22.3 9.75 -22.25 9.75 -22.25 -39.5 22.3 -39.5 M21.3 8.5 L21.3 5.95 16.55 5.95 16.55 8.5 21.3 8.5 M21.3 3.95 L21.3 1.4 16.55 1.4 16.55 3.95 21.3 3.95 M-16.5 -29.65 L-21.25 -29.65 -21.25 -27.1 -16.5 -27.1 -16.5 -29.65 M-16.5 -34.2 L-21.25 -34.2 -21.25 -31.65 -16.5 -31.65 -16.5 -34.2 M-16.5 -38.75 L-21.25 -38.75 -21.25 -36.2 -16.5 -36.2 -16.5 -38.75 M-21.25 -20.55 L-21.25 -18.0 -16.5 -18.0 -16.5 -20.55 -21.25 -20.55 M-21.25 -16.0 L-21.25 -14.25 -16.5 -14.25 -16.5 -16.0 -21.25 -16.0 M-21.25 -12.25 L-21.25 -9.7 -16.5 -9.7 -16.5 -12.25 -21.25 -12.25 M-21.25 -7.7 L-21.25 -5.15 -16.5 -5.15 -16.5 -7.7 -21.25 -7.7 M-21.25 -3.15 L-21.25 -0.6 -16.5 -0.6 -16.5 -3.15 -21.25 -3.15 M-16.5 -22.55 L-16.5 -25.1 -21.25 -25.1 -21.25 -22.55 -16.5 -22.55 M-16.5 1.4 L-21.25 1.4 -21.25 3.95 -16.5 3.95 -16.5 1.4 M-16.5 5.95 L-21.25 5.95 -21.25 8.5 -16.5 8.5 -16.5 5.95" fill="#000033" fill-rule="evenodd" stroke="none"/>
    <path d="M8.2 -31.2 Q7.15 -30.6 7.15 -28.9 7.15 -26.55 9.95 -25.5 6.3 -23.75 5.75 -22.55 5.3 -21.4 5.35 -19.4 L4.8 -20.05 Q3.9 -20.8 2.35 -20.8 0.95 -20.8 -0.85 -19.05 -2.55 -17.45 -2.65 -16.6 L-2.8 -17.1 -2.3 -20.45 Q-2.3 -22.0 -3.25 -22.65 -4.5 -23.4 -7.55 -23.15 -6.2 -23.45 -5.2 -24.5 -4.05 -25.7 -4.05 -26.8 -4.05 -27.65 -5.1 -29.2 L-7.2 -31.45 Q-5.35 -30.4 -4.3 -30.4 -2.5 -30.4 -2.1 -32.0 L-1.95 -34.25 -1.55 -33.8 Q-1.0 -33.4 0.6 -33.4 2.55 -33.4 3.65 -34.8 L3.85 -34.95 Q3.3 -34.0 3.3 -33.45 3.3 -31.15 7.0 -31.1 L8.2 -31.2 M4.95 -14.25 Q6.2 -11.65 11.55 -11.65 L13.85 -11.85 Q11.9 -10.6 11.9 -7.4 11.9 -3.9 15.1 -1.95 L15.1 0.15 Q10.05 2.8 9.25 4.8 8.6 6.25 8.5 8.5 L5.5 8.5 2.7 8.15 0.85 8.5 -6.2 8.5 Q-6.3 5.7 -8.05 4.6 -10.15 3.35 -14.95 3.5 L-14.95 3.2 Q-13.15 2.5 -11.75 1.05 -9.55 -1.25 -9.55 -3.4 -9.55 -5.0 -11.6 -7.95 -13.25 -10.35 -14.95 -11.8 L-14.95 -11.95 Q-11.85 -10.3 -10.0 -10.3 -6.55 -10.3 -5.8 -13.3 L-5.7 -14.25 4.95 -14.25" fill="#a1eaef" fill-rule="evenodd" stroke="none"/>
    <path d="M15.1 -1.95 Q11.9 -3.9 11.9 -7.4 11.9 -10.6 13.85 -11.85 L11.55 -11.65 Q6.2 -11.65 4.95 -14.25 L15.1 -14.25 15.1 -1.95 M8.2 -31.2 L7.0 -31.1 Q3.3 -31.15 3.3 -33.45 3.3 -34.0 3.85 -34.95 L3.65 -34.8 Q2.55 -33.4 0.6 -33.4 -1.0 -33.4 -1.55 -33.8 L-1.95 -34.25 -2.1 -32.0 Q-2.5 -30.4 -4.3 -30.4 -5.35 -30.4 -7.2 -31.45 L-5.1 -29.2 Q-4.05 -27.65 -4.05 -26.8 -4.05 -25.7 -5.2 -24.5 -6.2 -23.45 -7.55 -23.15 -4.5 -23.4 -3.25 -22.65 -2.3 -22.0 -2.3 -20.45 L-2.8 -17.1 -2.65 -16.6 Q-2.55 -17.45 -0.85 -19.05 0.95 -20.8 2.35 -20.8 3.9 -20.8 4.8 -20.05 L5.35 -19.4 Q5.3 -21.4 5.75 -22.55 6.3 -23.75 9.95 -25.5 7.15 -26.55 7.15 -28.9 7.15 -30.6 8.2 -31.2 M-5.7 -14.25 L-5.8 -13.3 Q-6.55 -10.3 -10.0 -10.3 -11.85 -10.3 -14.95 -11.95 L-14.95 -14.25 -5.7 -14.25 M-14.95 -11.8 Q-13.25 -10.35 -11.6 -7.95 -9.55 -5.0 -9.55 -3.4 -9.55 -1.25 -11.75 1.05 -13.15 2.5 -14.95 3.2 L-14.95 -11.8 M-14.95 3.5 Q-10.15 3.35 -8.05 4.6 -6.3 5.7 -6.2 8.5 L-14.95 8.5 -14.95 3.5 M0.85 8.5 L2.7 8.15 5.5 8.5 0.85 8.5 M8.5 8.5 Q8.6 6.25 9.25 4.8 10.05 2.8 15.1 0.15 L15.1 8.5 8.5 8.5 M15.1 -15.5 L-14.95 -15.5 -14.95 -38.25 15.1 -38.25 15.1 -15.5" fill="#159ad6" fill-rule="evenodd" stroke="none"/>
  </g>
</svg>
