<?xml version="1.0" encoding="UTF-8" standalone="no"?>
<svg xmlns:xlink="http://www.w3.org/1999/xlink" height="18.35px" width="17.5px" xmlns="http://www.w3.org/2000/svg">
  <g transform="matrix(1.0, 0.0, 0.0, 1.0, -6.0, -27.45)">
    <path d="M21.75 31.2 Q20.7 31.8 20.7 33.5 20.7 35.85 23.5 36.9 19.85 38.65 19.3 39.85 18.85 41.0 18.9 43.0 L18.35 42.35 Q17.45 41.6 15.9 41.6 14.5 41.6 12.7 43.35 11.0 44.95 10.9 45.8 10.75 45.7 10.75 45.3 L11.25 41.95 Q11.25 40.4 10.3 39.75 9.05 39.0 6.0 39.25 7.35 38.95 8.35 37.9 9.5 36.7 9.5 35.6 9.5 34.75 8.45 33.2 7.4 31.75 6.35 30.95 8.2 32.0 9.25 32.0 11.05 32.0 11.45 30.4 L11.6 28.15 12.0 28.6 Q12.55 29.0 14.15 29.0 16.1 29.0 17.2 27.6 L17.4 27.45 Q16.85 28.4 16.85 28.95 16.85 31.25 20.55 31.3 L21.75 31.2" fill="#ffcc00" fill-rule="evenodd" stroke="none"/>
  </g>
</svg>
