<?xml version="1.0" encoding="UTF-8" standalone="no"?>
<svg xmlns:xlink="http://www.w3.org/1999/xlink" height="26.2px" width="27.35px" xmlns="http://www.w3.org/2000/svg">
  <g transform="matrix(1.0, 0.0, 0.0, 1.0, 13.6, 12.55)">
    <path d="M8.3 -2.35 Q9.05 -0.4 10.6 1.4 11.25 2.0 11.25 2.7 11.2 3.8 10.45 4.6 9.5 5.55 8.35 5.6 7.8 5.55 7.1 4.85 5.75 3.35 4.45 0.5 L3.7 -1.75 3.1 0.35 Q2.15 3.05 1.2 4.65 0.35 5.5 -0.65 5.6 -1.6 5.6 -2.65 4.7 -3.4 4.1 -3.4 3.05 L-3.05 2.05 Q-1.4 -0.55 -0.8 -2.05 L0.3 -5.55 -1.05 -5.55 Q-2.0 -5.55 -2.45 -6.2 -2.9 -6.7 -2.95 -7.7 -2.9 -8.8 -2.35 -9.35 -2.0 -9.85 -1.05 -9.85 L4.05 -9.85 Q6.85 -9.85 7.2 -7.45 7.6 -4.15 8.3 -2.35 M10.65 10.05 Q10.0 10.85 8.4 10.85 L1.3 10.85 Q-3.25 10.85 -5.2 9.5 -5.4 9.15 -5.65 9.15 -5.8 9.15 -6.05 9.5 -7.4 11.15 -8.25 11.15 -9.4 11.15 -10.4 10.0 -11.1 9.2 -11.1 8.15 -11.1 7.5 -10.5 6.85 L-8.6 5.05 -8.25 4.4 -8.25 2.25 Q-8.25 1.75 -8.65 1.75 L-9.2 1.75 Q-10.2 1.75 -10.6 1.15 -11.0 0.75 -11.0 -0.4 -11.0 -1.5 -10.55 -2.05 -10.15 -2.55 -9.2 -2.55 L-6.65 -2.55 Q-3.75 -2.55 -3.75 0.25 L-3.75 4.55 Q-3.75 5.4 -3.05 5.75 -1.85 6.35 0.2 6.35 L5.8 6.2 9.65 6.05 Q10.3 6.05 10.7 6.55 11.25 7.1 11.25 7.85 11.25 9.3 10.65 10.05 M-5.55 -9.0 Q-4.3 -7.1 -4.3 -5.85 -4.3 -4.85 -5.3 -4.35 -6.4 -3.65 -7.5 -3.65 -8.45 -3.8 -8.8 -4.8 L-10.05 -7.3 -10.4 -8.2 Q-10.4 -9.0 -9.4 -9.55 L-7.4 -10.05 Q-6.3 -10.05 -5.55 -9.0" fill="#3399ff" fill-rule="evenodd" stroke="none"/>
    <path d="M8.3 -2.35 Q9.05 -0.4 10.6 1.4 11.25 2.0 11.25 2.7 11.2 3.8 10.45 4.6 9.5 5.55 8.35 5.6 7.8 5.55 7.1 4.85 5.75 3.35 4.45 0.5 L3.7 -1.75 3.1 0.35 Q2.15 3.05 1.2 4.65 0.35 5.5 -0.65 5.6 -1.6 5.6 -2.65 4.7 -3.4 4.1 -3.4 3.05 L-3.05 2.05 Q-1.4 -0.55 -0.8 -2.05 L0.3 -5.55 -1.05 -5.55 Q-2.0 -5.55 -2.45 -6.2 -2.9 -6.7 -2.95 -7.7 -2.9 -8.8 -2.35 -9.35 -2.0 -9.85 -1.05 -9.85 L4.05 -9.85 Q6.85 -9.85 7.2 -7.45 7.6 -4.15 8.3 -2.35 M10.65 10.05 Q10.0 10.85 8.4 10.85 L1.3 10.85 Q-3.25 10.85 -5.2 9.5 -5.4 9.15 -5.65 9.15 -5.8 9.15 -6.05 9.5 -7.4 11.15 -8.25 11.15 -9.4 11.15 -10.4 10.0 -11.1 9.2 -11.1 8.15 -11.1 7.5 -10.5 6.85 L-8.6 5.05 -8.25 4.4 -8.25 2.25 Q-8.25 1.75 -8.65 1.75 L-9.2 1.75 Q-10.2 1.75 -10.6 1.15 -11.0 0.75 -11.0 -0.4 -11.0 -1.5 -10.55 -2.05 -10.15 -2.55 -9.2 -2.55 L-6.65 -2.55 Q-3.75 -2.55 -3.75 0.25 L-3.75 4.55 Q-3.75 5.4 -3.05 5.75 -1.85 6.35 0.2 6.35 L5.8 6.2 9.65 6.05 Q10.3 6.05 10.7 6.55 11.25 7.1 11.25 7.85 11.25 9.3 10.65 10.05 M-5.55 -9.0 Q-4.3 -7.1 -4.3 -5.85 -4.3 -4.85 -5.3 -4.35 -6.4 -3.65 -7.5 -3.65 -8.45 -3.8 -8.8 -4.8 L-10.05 -7.3 -10.4 -8.2 Q-10.4 -9.0 -9.4 -9.55 L-7.4 -10.05 Q-6.3 -10.05 -5.55 -9.0 Z" fill="none" stroke="#ffffff" stroke-linecap="round" stroke-linejoin="round" stroke-width="5.0"/>
    <path d="M8.3 -2.35 Q9.05 -0.4 10.6 1.4 11.25 2.0 11.25 2.7 11.2 3.8 10.45 4.6 9.5 5.55 8.35 5.6 7.8 5.55 7.1 4.85 5.75 3.35 4.45 0.5 L3.7 -1.75 3.1 0.35 Q2.15 3.05 1.2 4.65 0.35 5.5 -0.65 5.6 -1.6 5.6 -2.65 4.7 -3.4 4.1 -3.4 3.05 L-3.05 2.05 Q-1.4 -0.55 -0.8 -2.05 L0.3 -5.55 -1.05 -5.55 Q-2.0 -5.55 -2.45 -6.2 -2.9 -6.7 -2.95 -7.7 -2.9 -8.8 -2.35 -9.35 -2.0 -9.85 -1.05 -9.85 L4.05 -9.85 Q6.85 -9.85 7.2 -7.45 7.6 -4.15 8.3 -2.35 M10.65 10.05 Q10.0 10.85 8.4 10.85 L1.3 10.85 Q-3.25 10.85 -5.2 9.5 -5.4 9.15 -5.65 9.15 -5.8 9.15 -6.05 9.5 -7.4 11.15 -8.25 11.15 -9.4 11.15 -10.4 10.0 -11.1 9.2 -11.1 8.15 -11.1 7.5 -10.5 6.85 L-8.6 5.05 -8.25 4.4 -8.25 2.25 Q-8.25 1.75 -8.65 1.75 L-9.2 1.75 Q-10.2 1.75 -10.6 1.15 -11.0 0.75 -11.0 -0.4 -11.0 -1.5 -10.55 -2.05 -10.15 -2.55 -9.2 -2.55 L-6.65 -2.55 Q-3.75 -2.55 -3.75 0.25 L-3.75 4.55 Q-3.75 5.4 -3.05 5.75 -1.85 6.35 0.2 6.35 L5.8 6.2 9.65 6.05 Q10.3 6.05 10.7 6.55 11.25 7.1 11.25 7.85 11.25 9.3 10.65 10.05 M-5.55 -9.0 Q-4.3 -7.1 -4.3 -5.85 -4.3 -4.85 -5.3 -4.35 -6.4 -3.65 -7.5 -3.65 -8.45 -3.8 -8.8 -4.8 L-10.05 -7.3 -10.4 -8.2 Q-10.4 -9.0 -9.4 -9.55 L-7.4 -10.05 Q-6.3 -10.05 -5.55 -9.0" fill="#3399ff" fill-rule="evenodd" stroke="none"/>
  </g>
</svg>
