<?xml version="1.0" encoding="UTF-8" standalone="no"?>
<svg xmlns:xlink="http://www.w3.org/1999/xlink" height="69.95px" width="51.0px" xmlns="http://www.w3.org/2000/svg">
  <g transform="matrix(1.0, 0.0, 0.0, 1.0, 23.95, 35.75)">
    <path d="M6.75 -34.25 Q5.9 -34.3 5.2 -33.65 L0.25 -29.7 -0.2 -29.05 0.1 -28.1 Q0.5 -27.6 1.1 -27.65 1.45 -27.65 1.95 -28.0 3.6 -29.15 6.3 -31.85 L6.8 -32.05 7.1 -31.85 Q9.6 -29.6 11.55 -28.5 L12.85 -28.1 Q13.35 -28.15 13.65 -28.5 L13.95 -29.5 13.5 -30.15 Q10.3 -32.1 8.75 -33.4 7.6 -34.35 6.75 -34.25 M6.7 -35.75 Q8.1 -35.8 9.65 -34.5 L14.2 -31.4 Q15.3 -30.8 15.4 -29.5 L15.2 -28.3 14.8 -27.6 Q14.05 -26.7 12.9 -26.65 L12.55 -26.7 12.6 -24.45 12.7 -22.35 12.7 -21.35 Q12.7 -20.5 12.25 -19.85 L11.6 -19.25 Q11.1 -18.9 10.2 -18.85 8.9 -18.85 8.2 -19.65 7.6 -20.35 7.6 -21.3 L7.6 -22.35 7.5 -24.6 7.45 -26.85 7.4 -27.9 Q7.4 -28.85 7.85 -29.35 L6.75 -30.25 6.05 -29.55 Q6.55 -29.1 6.65 -27.85 L6.65 -27.35 6.7 -26.45 6.7 -25.9 6.35 -23.25 Q5.7 -21.05 3.9 -19.4 3.1 -18.65 2.05 -18.6 L0.85 -18.8 Q0.35 -19.0 0.15 -19.25 L-0.5 -20.0 -0.85 -19.55 Q-1.6 -18.75 -2.95 -18.7 L-4.1 -18.7 -6.2 -18.6 -7.35 -18.6 Q-8.45 -18.55 -9.2 -19.1 L-9.7 -19.0 -9.8 -19.0 -10.4 -19.1 -10.55 -18.9 -11.2 -18.45 -12.25 -18.2 -13.3 -18.35 -13.95 -18.75 -14.05 -18.9 -14.65 -18.8 Q-15.5 -18.8 -16.15 -19.2 -17.2 -19.75 -17.25 -21.0 L-17.1 -22.05 -17.05 -22.15 -17.05 -22.2 -16.5 -24.3 -16.5 -24.35 Q-17.15 -24.95 -17.2 -26.1 -17.1 -27.2 -16.65 -27.65 -16.45 -27.95 -15.9 -28.25 L-16.15 -28.4 -16.3 -28.55 -16.55 -28.75 Q-17.35 -29.5 -17.4 -30.6 L-17.4 -30.65 Q-17.4 -31.6 -16.7 -32.35 -16.25 -32.8 -15.7 -32.9 L-15.5 -33.35 -15.4 -33.65 Q-14.8 -34.85 -13.45 -35.0 L-13.4 -35.0 -12.7 -34.8 -11.95 -34.6 -11.5 -34.2 -11.1 -34.3 -10.85 -34.25 -10.3 -34.15 Q-9.8 -34.75 -8.85 -34.8 L-3.55 -34.95 -2.3 -34.85 -1.4 -34.45 -1.35 -34.4 -1.3 -34.35 Q-0.35 -33.7 -0.3 -32.1 L-0.3 -31.1 4.25 -34.75 Q5.3 -35.7 6.7 -35.75 M4.95 -28.55 L4.05 -28.8 3.25 -28.55 Q2.95 -28.3 3.0 -27.75 L3.05 -26.1 Q3.05 -24.85 2.6 -23.8 2.15 -22.7 0.9 -21.7 L0.65 -21.05 Q0.7 -20.6 1.05 -20.35 1.3 -20.0 2.0 -20.05 2.55 -20.05 2.9 -20.45 4.35 -21.9 4.95 -23.7 5.3 -24.85 5.25 -25.8 L5.2 -27.85 4.95 -28.55 M8.0 -29.6 L8.05 -29.65 8.15 -29.75 8.0 -29.6 M1.6 -26.3 L1.15 -26.2 Q-0.05 -26.15 -0.9 -27.0 L-0.95 -26.95 Q-0.3 -26.25 -0.2 -25.1 L-0.15 -22.7 0.0 -22.8 Q0.95 -23.6 1.3 -24.45 L1.6 -25.9 1.6 -26.05 1.6 -26.3 M9.9 -29.0 Q9.35 -29.0 9.15 -28.65 8.85 -28.4 8.85 -27.85 L9.05 -21.3 Q9.0 -20.95 9.3 -20.65 9.6 -20.25 10.15 -20.3 10.8 -20.3 11.05 -20.7 L11.25 -21.4 11.05 -27.95 Q11.05 -28.5 10.7 -28.7 10.4 -29.0 9.9 -29.0 M7.3 -30.75 L7.4 -30.85 7.25 -30.7 7.35 -30.75 7.3 -30.75 M25.4 24.75 L24.75 24.4 15.75 24.65 Q15.3 24.7 15.15 25.05 L14.95 25.9 Q14.9 26.35 15.15 26.7 15.4 27.05 15.8 27.05 L24.8 26.85 25.45 26.4 25.6 25.5 25.4 24.75 M24.7 22.95 Q25.8 22.95 26.6 23.95 27.0 24.65 27.05 25.5 L26.7 27.0 Q26.05 28.15 24.85 28.3 L15.85 28.5 Q14.65 28.5 13.95 27.45 13.5 26.75 13.5 25.95 13.4 25.1 13.85 24.35 L13.15 24.9 11.3 25.6 6.7 26.9 6.75 27.8 6.75 28.3 7.65 28.35 12.55 27.8 13.8 27.95 14.65 28.45 Q15.4 29.2 15.5 30.15 15.6 31.1 15.05 31.9 L14.45 32.5 13.4 32.85 7.75 33.5 Q5.05 33.55 3.55 32.55 1.75 31.3 1.6 28.55 1.1 28.9 0.45 28.95 L-8.55 29.2 -8.3 29.7 -8.0 30.25 -7.85 30.8 -7.75 31.3 Q-7.75 32.45 -8.6 33.2 -9.35 33.9 -10.35 33.9 -11.45 33.8 -12.1 33.0 L-14.5 33.3 -17.5 33.7 -20.0 34.05 -21.05 34.2 Q-22.35 34.3 -23.15 33.55 -23.9 32.8 -23.95 31.75 L-23.95 31.65 Q-24.0 30.8 -23.45 30.05 -23.05 29.55 -22.15 29.3 L-19.35 21.05 -19.35 21.1 Q-18.85 19.15 -16.8 19.15 -15.9 19.15 -15.15 19.8 -14.35 20.5 -14.35 21.6 L-14.35 21.95 -14.4 22.35 -16.4 28.4 -15.7 28.35 -14.95 28.25 -15.15 27.6 -15.35 27.0 -15.35 26.9 Q-15.35 25.9 -14.65 25.2 -13.9 24.45 -12.9 24.4 -11.5 24.3 -10.7 25.4 L-10.5 25.05 Q-9.9 23.95 -8.7 23.9 L-7.25 23.9 -4.2 23.8 -1.1 23.7 0.3 23.65 1.45 23.95 1.45 22.3 1.4 21.1 Q1.4 20.4 1.65 19.95 L2.1 19.3 Q2.85 18.6 3.85 18.55 4.9 18.5 5.55 19.1 6.5 19.8 6.55 21.0 L6.55 21.25 6.55 21.65 9.15 20.9 10.45 20.5 10.15 19.55 10.7 18.15 11.25 17.75 12.25 17.55 12.5 17.55 Q13.0 16.9 14.1 16.85 15.1 16.85 15.85 17.65 L16.1 18.05 16.6 18.8 16.85 19.25 17.0 19.75 17.15 20.35 16.65 21.75 16.25 21.95 15.5 22.25 Q15.15 22.35 15.15 22.4 L14.75 22.35 14.6 22.5 14.55 22.5 14.55 22.55 14.55 22.65 14.25 23.9 Q14.8 23.25 15.7 23.2 L24.7 22.95 M-13.35 -33.5 L-14.05 -32.95 -14.65 -31.5 -15.0 -31.55 -15.7 -31.25 -15.95 -30.6 Q-15.95 -30.15 -15.55 -29.75 -14.65 -29.15 -13.8 -28.35 L-14.8 -26.95 -14.9 -26.95 -15.5 -26.75 -15.75 -26.05 Q-15.7 -25.55 -15.45 -25.3 -15.2 -25.05 -14.65 -25.05 L-13.4 -25.25 -13.4 -24.2 -13.65 -24.55 -14.3 -24.75 Q-15.0 -24.75 -15.05 -24.05 -15.35 -22.45 -15.7 -21.6 L-15.8 -21.0 Q-15.8 -20.6 -15.45 -20.4 L-14.65 -20.2 Q-14.15 -20.2 -14.05 -20.8 L-13.45 -22.7 -13.35 -23.3 -13.25 -20.55 -13.05 -19.8 -12.3 -19.6 Q-11.8 -19.65 -11.6 -19.85 -11.35 -20.1 -11.35 -20.65 L-11.5 -25.65 -11.1 -25.8 Q-11.0 -25.2 -10.3 -25.2 -9.5 -25.25 -9.45 -25.9 -9.5 -27.3 -10.1 -28.3 -10.35 -28.85 -11.0 -28.85 -11.35 -28.8 -11.55 -28.55 L-10.2 -30.9 -9.95 -32.0 Q-9.95 -32.45 -10.3 -32.7 L-11.05 -32.8 -11.75 -32.35 -12.75 -30.1 -13.15 -30.5 -12.35 -32.1 -12.25 -32.7 Q-12.25 -33.15 -12.65 -33.3 L-13.35 -33.5 M0.4 27.5 L1.05 27.05 1.2 26.25 1.0 25.4 Q0.75 25.05 0.3 25.1 L-8.65 25.35 Q-9.1 25.35 -9.25 25.7 L-9.45 26.6 -9.2 27.35 -8.6 27.75 0.4 27.5 M13.65 21.4 L13.8 21.0 13.7 20.45 12.9 19.3 Q12.6 18.95 12.3 19.0 11.55 18.95 11.6 19.55 L11.9 20.2 12.6 21.3 Q12.8 21.6 13.25 21.6 13.45 21.6 13.65 21.4 M13.5 18.9 Q13.45 19.15 13.75 19.55 L14.5 20.65 Q14.7 20.95 15.1 20.9 15.7 20.9 15.7 20.4 L15.55 19.8 14.75 18.6 Q14.5 18.3 14.15 18.3 13.45 18.3 13.5 18.9 M4.7 20.25 Q4.4 19.95 3.9 20.0 3.45 20.0 3.15 20.3 2.85 20.6 2.85 21.15 L3.05 28.35 Q3.1 30.45 4.4 31.35 5.5 32.1 7.75 32.05 L13.15 31.4 Q13.6 31.35 13.85 31.05 L14.05 30.3 13.65 29.5 Q13.25 29.2 12.7 29.25 L7.7 29.8 5.95 29.65 Q5.35 29.35 5.3 28.3 L5.2 25.75 Q10.9 24.4 12.45 23.65 13.1 23.3 13.1 22.65 L12.8 21.9 Q12.45 21.5 12.1 21.5 L11.45 21.65 5.15 23.5 5.1 21.05 4.7 20.25 M-12.3 -27.55 L-12.1 -27.4 -12.05 -27.35 -12.45 -27.3 -12.3 -27.55 M-15.8 21.65 Q-15.8 21.15 -16.15 20.9 -16.5 20.55 -16.85 20.6 -17.8 20.55 -17.95 21.45 L-21.05 30.5 -21.55 30.55 Q-22.05 30.6 -22.25 30.95 L-22.5 31.7 -22.15 32.5 -21.25 32.75 -11.5 31.45 -11.35 31.75 Q-11.05 32.45 -10.35 32.45 -9.9 32.4 -9.55 32.15 -9.2 31.8 -9.2 31.35 L-9.3 30.85 -10.4 28.75 -11.75 26.45 Q-12.1 25.8 -12.8 25.85 -13.3 25.85 -13.55 26.2 -13.9 26.5 -13.9 26.95 L-13.7 27.55 -12.6 29.4 -18.55 30.15 -15.8 22.0 -15.8 21.65 M-3.75 -22.55 Q-3.75 -22.1 -4.2 -22.1 L-6.4 -22.05 Q-6.85 -22.05 -6.9 -22.45 L-6.95 -23.85 Q-6.95 -24.35 -6.45 -24.35 L-4.25 -24.45 Q-3.8 -24.45 -3.8 -23.95 L-3.75 -22.55 M-7.55 -26.3 Q-9.05 -26.25 -9.0 -24.8 L-8.9 -22.35 -9.45 -24.4 Q-9.7 -24.95 -10.4 -24.95 -11.15 -24.85 -11.15 -24.15 L-11.1 -23.9 -10.65 -21.1 Q-10.55 -20.45 -9.8 -20.4 -8.95 -20.45 -8.85 -21.0 -8.7 -19.95 -7.4 -20.0 L-3.0 -20.1 Q-1.55 -20.15 -1.55 -21.6 L-1.65 -25.0 Q-1.7 -26.45 -3.15 -26.4 L-7.55 -26.3 M-4.1 -31.3 L-3.85 -31.05 Q-3.8 -29.2 -4.2 -29.15 L-4.55 -29.15 -5.4 -29.1 -5.9 -28.65 -6.0 -28.05 -5.8 -27.25 Q-5.6 -27.05 -5.05 -26.95 L-4.25 -26.9 -3.7 -26.9 -2.65 -27.15 Q-2.1 -27.4 -2.0 -28.2 -1.65 -28.9 -1.75 -32.0 -1.8 -32.95 -2.2 -33.15 -2.4 -33.5 -3.5 -33.45 L-8.8 -33.3 Q-9.6 -33.25 -9.65 -32.3 -9.55 -31.25 -8.7 -31.2 L-8.0 -31.25 Q-8.05 -30.4 -8.25 -29.9 -8.6 -28.9 -9.25 -28.1 L-9.5 -27.35 -9.15 -26.8 -8.4 -26.6 Q-8.1 -26.6 -7.85 -26.8 -6.85 -27.65 -6.35 -29.15 -6.05 -30.15 -5.9 -31.25 L-4.1 -31.3" fill="#281433" fill-rule="evenodd" stroke="none"/>
    <path d="M6.75 -34.25 Q7.6 -34.35 8.75 -33.4 10.3 -32.1 13.5 -30.15 L13.95 -29.5 13.65 -28.5 Q13.35 -28.15 12.85 -28.1 L11.55 -28.5 Q9.6 -29.6 7.1 -31.85 L6.8 -32.05 6.3 -31.85 Q3.6 -29.15 1.95 -28.0 1.45 -27.65 1.1 -27.65 0.5 -27.6 0.1 -28.1 L-0.2 -29.05 0.25 -29.7 5.2 -33.65 Q5.9 -34.3 6.75 -34.25 M4.95 -28.55 L5.2 -27.85 5.25 -25.8 Q5.3 -24.85 4.95 -23.7 4.35 -21.9 2.9 -20.45 2.55 -20.05 2.0 -20.05 1.3 -20.0 1.05 -20.35 0.7 -20.6 0.65 -21.05 L0.9 -21.7 Q2.15 -22.7 2.6 -23.8 3.05 -24.85 3.05 -26.1 L3.0 -27.75 Q2.95 -28.3 3.25 -28.55 L4.05 -28.8 4.95 -28.55 M9.9 -29.0 Q10.4 -29.0 10.7 -28.7 11.05 -28.5 11.05 -27.95 L11.25 -21.4 11.05 -20.7 Q10.8 -20.3 10.15 -20.3 9.6 -20.25 9.3 -20.65 9.0 -20.95 9.05 -21.3 L8.85 -27.85 Q8.85 -28.4 9.15 -28.65 9.35 -29.0 9.9 -29.0 M25.4 24.75 L25.6 25.5 25.45 26.4 24.8 26.85 15.8 27.05 Q15.4 27.05 15.15 26.7 14.9 26.35 14.95 25.9 L15.15 25.05 Q15.3 24.7 15.75 24.65 L24.75 24.4 25.4 24.75 M4.7 20.25 L5.1 21.05 5.15 23.5 11.45 21.65 12.1 21.5 Q12.45 21.5 12.8 21.9 L13.1 22.65 Q13.1 23.3 12.45 23.65 10.9 24.4 5.2 25.75 L5.3 28.3 Q5.35 29.35 5.95 29.65 L7.7 29.8 12.7 29.25 Q13.25 29.2 13.65 29.5 L14.05 30.3 13.85 31.05 Q13.6 31.35 13.15 31.4 L7.75 32.05 Q5.5 32.1 4.4 31.35 3.1 30.45 3.05 28.35 L2.85 21.15 Q2.85 20.6 3.15 20.3 3.45 20.0 3.9 20.0 4.4 19.95 4.7 20.25 M13.5 18.9 Q13.45 18.3 14.15 18.3 14.5 18.3 14.75 18.6 L15.55 19.8 15.7 20.4 Q15.7 20.9 15.1 20.9 14.7 20.95 14.5 20.65 L13.75 19.55 Q13.45 19.15 13.5 18.9 M13.65 21.4 Q13.45 21.6 13.25 21.6 12.8 21.6 12.6 21.3 L11.9 20.2 11.6 19.55 Q11.55 18.95 12.3 19.0 12.6 18.95 12.9 19.3 L13.7 20.45 13.8 21.0 13.65 21.4 M0.4 27.5 L-8.6 27.75 -9.2 27.35 -9.45 26.6 -9.25 25.7 Q-9.1 25.35 -8.65 25.35 L0.3 25.1 Q0.75 25.05 1.0 25.4 L1.2 26.25 1.05 27.05 0.4 27.5 M-13.35 -33.5 L-12.65 -33.3 Q-12.25 -33.15 -12.25 -32.7 L-12.35 -32.1 -13.15 -30.5 -12.75 -30.1 -11.75 -32.35 -11.05 -32.8 -10.3 -32.7 Q-9.95 -32.45 -9.95 -32.0 L-10.2 -30.9 -11.55 -28.55 Q-11.35 -28.8 -11.0 -28.85 -10.35 -28.85 -10.1 -28.3 -9.5 -27.3 -9.45 -25.9 -9.5 -25.25 -10.3 -25.2 -11.0 -25.2 -11.1 -25.8 L-11.5 -25.65 -11.35 -20.65 Q-11.35 -20.1 -11.6 -19.85 -11.8 -19.65 -12.3 -19.6 L-13.05 -19.8 -13.25 -20.55 -13.35 -23.3 -13.45 -22.7 -14.05 -20.8 Q-14.15 -20.2 -14.65 -20.2 L-15.45 -20.4 Q-15.8 -20.6 -15.8 -21.0 L-15.7 -21.6 Q-15.35 -22.45 -15.05 -24.05 -15.0 -24.75 -14.3 -24.75 L-13.65 -24.55 -13.4 -24.2 -13.4 -25.25 -14.65 -25.05 Q-15.2 -25.05 -15.45 -25.3 -15.7 -25.55 -15.75 -26.05 L-15.5 -26.75 -14.9 -26.95 -14.8 -26.95 -13.8 -28.35 Q-14.65 -29.15 -15.55 -29.75 -15.95 -30.15 -15.95 -30.6 L-15.7 -31.25 -15.0 -31.55 -14.65 -31.5 -14.05 -32.95 -13.35 -33.5 M-12.05 -27.35 L-11.5 -27.5 -11.65 -27.9 -11.65 -28.1 -11.6 -28.45 -12.3 -27.55 -12.45 -27.3 -12.05 -27.35 M-4.1 -31.3 L-5.9 -31.25 Q-6.05 -30.15 -6.35 -29.15 -6.85 -27.65 -7.85 -26.8 -8.1 -26.6 -8.4 -26.6 L-9.15 -26.8 -9.5 -27.35 -9.25 -28.1 Q-8.6 -28.9 -8.25 -29.9 -8.05 -30.4 -8.0 -31.25 L-8.7 -31.2 Q-9.55 -31.25 -9.65 -32.3 -9.6 -33.25 -8.8 -33.3 L-3.5 -33.45 Q-2.4 -33.5 -2.2 -33.15 -1.8 -32.95 -1.75 -32.0 -1.65 -28.9 -2.0 -28.2 -2.1 -27.4 -2.65 -27.15 L-3.7 -26.9 -4.25 -26.9 -5.05 -26.95 Q-5.6 -27.05 -5.8 -27.25 L-6.0 -28.05 -5.9 -28.65 -5.4 -29.1 -4.55 -29.15 -4.2 -29.15 Q-3.8 -29.2 -3.85 -31.05 L-4.1 -31.3 M-7.55 -26.3 L-3.15 -26.4 Q-1.7 -26.45 -1.65 -25.0 L-1.55 -21.6 Q-1.55 -20.15 -3.0 -20.1 L-7.4 -20.0 Q-8.7 -19.95 -8.85 -21.0 -8.95 -20.45 -9.8 -20.4 -10.55 -20.45 -10.65 -21.1 L-11.1 -23.9 -11.15 -24.15 Q-11.15 -24.85 -10.4 -24.95 -9.7 -24.95 -9.45 -24.4 L-8.9 -22.35 -9.0 -24.8 Q-9.05 -26.25 -7.55 -26.3 M-3.75 -22.55 L-3.8 -23.95 Q-3.8 -24.45 -4.25 -24.45 L-6.45 -24.35 Q-6.95 -24.35 -6.95 -23.85 L-6.9 -22.45 Q-6.85 -22.05 -6.4 -22.05 L-4.2 -22.1 Q-3.75 -22.1 -3.75 -22.55 M-15.8 21.65 L-15.8 22.0 -18.55 30.15 -12.6 29.4 -13.7 27.55 -13.9 26.95 Q-13.9 26.5 -13.55 26.2 -13.3 25.85 -12.8 25.85 -12.1 25.8 -11.75 26.45 L-10.4 28.75 -9.3 30.85 -9.2 31.35 Q-9.2 31.8 -9.55 32.15 -9.9 32.4 -10.35 32.45 -11.05 32.45 -11.35 31.75 L-11.5 31.45 -21.25 32.75 -22.15 32.5 -22.5 31.7 -22.25 30.95 Q-22.05 30.6 -21.55 30.55 L-21.05 30.5 -17.95 21.45 Q-17.8 20.55 -16.85 20.6 -16.5 20.55 -16.15 20.9 -15.8 21.15 -15.8 21.65" fill="#ffff00" fill-rule="evenodd" stroke="none"/>
  </g>
</svg>
