<?xml version="1.0" encoding="UTF-8" standalone="no"?>
<svg xmlns:xlink="http://www.w3.org/1999/xlink" height="33.2px" width="35.95px" xmlns="http://www.w3.org/2000/svg">
  <g transform="matrix(1.0, 0.0, 0.0, 1.0, -12.6, 0.0)">
    <path d="M40.2 26.2 L46.4 11.65 Q45.0 9.35 42.45 6.3 40.25 3.7 37.25 0.65 28.55 -0.4 22.2 1.7 L21.65 2.25 20.1 3.8 Q15.35 8.6 12.85 12.4 14.4 20.05 18.9 30.65 L18.55 30.6 Q14.05 20.0 12.6 12.45 12.55 12.3 12.65 12.2 15.6 7.65 21.95 1.5 L22.05 1.45 Q28.55 -0.7 37.3 0.35 L37.45 0.45 Q44.1 7.25 46.65 11.45 L46.7 11.75 40.55 26.2 40.5 26.15 40.2 26.2 M22.95 5.2 L24.05 5.05 25.85 5.35 24.05 5.4 Q22.9 5.35 22.15 5.85 21.25 6.35 21.25 7.2 21.25 8.15 21.85 8.9 22.8 10.0 24.3 10.05 L24.4 10.05 25.15 9.5 25.35 9.15 Q25.9 8.25 26.6 8.2 L27.95 8.4 Q28.6 8.15 28.65 7.45 28.65 6.25 27.65 6.3 L26.75 6.5 Q27.15 5.95 27.65 6.0 28.95 5.95 28.95 7.45 L28.9 7.65 Q30.95 9.1 33.95 9.1 35.9 9.1 38.8 7.65 L37.1 7.45 40.15 7.5 Q41.35 7.7 42.25 9.1 40.85 7.65 39.4 7.7 35.9 9.4 33.95 9.4 30.95 9.4 28.85 7.95 L27.95 8.75 26.95 8.55 26.6 8.5 Q26.1 8.55 25.55 9.5 24.95 10.35 24.3 10.35 22.85 10.3 21.9 9.35 L21.7 9.15 21.4 9.15 20.35 8.9 Q19.5 10.45 17.75 11.25 L17.25 11.45 16.15 11.8 14.25 12.15 13.35 12.1 15.35 11.7 Q19.05 10.7 20.1 8.75 19.75 8.55 19.75 8.2 19.7 7.1 20.55 7.15 L20.8 7.2 20.85 7.2 Q20.05 7.35 20.05 8.2 20.0 8.6 21.45 8.85 20.95 8.1 20.95 7.2 20.95 6.8 21.1 6.45 20.25 6.45 19.5 6.9 L19.7 6.65 19.9 6.45 21.1 6.15 21.3 6.15 21.5 5.95 21.95 5.6 Q22.4 5.3 22.95 5.2 M14.85 12.35 L19.15 12.75 Q21.85 12.9 24.2 12.65 29.6 12.0 40.15 7.8 41.9 11.75 37.25 24.15 26.5 28.7 18.45 26.05 L18.2 25.95 Q14.4 19.1 13.8 12.25 L14.85 12.35 M30.75 4.7 L31.45 5.0 29.85 4.85 29.05 4.9 27.7 5.4 28.35 4.95 Q29.1 4.45 29.7 4.45 L30.75 4.7 M36.7 21.15 L36.7 21.2 37.7 20.75 38.2 20.55 Q40.9 12.4 40.15 8.9 L40.2 8.9 40.05 8.5 39.95 8.2 36.55 9.5 Q37.4 14.4 36.7 21.15 M36.15 21.45 L36.4 21.35 Q37.1 14.55 36.3 9.6 L31.4 11.3 Q31.3 13.0 31.35 18.25 L31.25 23.25 31.8 23.05 36.15 21.45 M30.55 23.45 L31.0 23.3 31.05 18.35 31.1 11.4 Q27.0 12.65 24.25 12.95 L24.05 13.0 22.8 13.1 Q23.1 19.65 23.9 24.4 L24.75 24.4 26.75 24.25 30.55 23.45 M23.35 24.4 L23.6 24.4 Q22.8 19.65 22.5 13.1 L19.15 13.05 19.1 13.05 18.3 13.0 16.85 12.85 Q16.95 18.05 18.45 23.6 L18.8 23.7 23.35 24.4 M31.85 23.45 L31.25 23.65 31.1 25.9 31.05 25.9 31.05 25.95 34.75 24.8 35.7 24.5 35.75 24.5 35.95 24.4 36.0 24.35 36.35 21.75 36.05 21.9 31.85 23.45 M30.8 25.95 L30.95 23.75 30.6 23.85 26.75 24.7 24.85 24.85 24.0 24.85 24.35 26.75 25.25 26.75 30.8 26.0 30.8 25.95 M37.0 21.45 L36.65 21.65 36.35 23.8 36.3 24.2 36.3 24.25 36.95 23.95 37.0 23.9 38.05 21.0 37.5 21.25 37.0 21.45 M36.3 24.3 L36.45 24.25 36.3 24.3 M17.5 23.3 L17.55 23.35 17.75 23.4 17.9 23.45 18.1 23.5 Q16.6 18.05 16.55 12.85 L16.55 12.8 15.65 12.75 14.6 12.65 14.35 12.6 14.15 12.6 14.15 13.0 14.2 13.0 14.4 14.45 14.45 14.9 16.45 21.6 17.1 23.15 17.15 23.15 17.5 23.3 M17.35 23.55 L17.3 23.55 18.4 25.7 18.7 25.8 18.75 25.85 18.2 23.85 17.35 23.55 M18.8 24.05 L18.55 23.95 19.1 25.9 19.05 25.9 19.55 26.05 21.0 26.4 24.05 26.75 23.7 24.85 23.45 24.85 18.8 24.05" fill="#583191" fill-rule="evenodd" stroke="none"/>
    <path d="M42.45 6.3 Q45.0 9.35 46.4 11.65 L40.2 26.2 29.1 30.1 Q28.8 30.2 28.85 30.4 L28.8 30.55 28.6 31.4 23.35 31.1 22.4 30.0 20.3 28.15 18.45 26.05 Q26.5 28.7 37.25 24.15 41.9 11.75 40.15 7.8 29.6 12.0 24.2 12.65 21.85 12.9 19.15 12.75 L14.85 12.35 14.85 12.25 19.75 12.7 Q23.25 12.7 26.3 9.35 L26.95 8.55 27.95 8.75 28.85 7.95 Q30.95 9.4 33.95 9.4 35.9 9.4 39.4 7.7 40.85 7.65 42.25 9.1 41.35 7.7 40.15 7.5 L37.1 7.45 38.8 7.65 Q35.9 9.1 33.95 9.1 30.95 9.1 28.9 7.65 L28.95 7.45 Q28.95 5.95 27.65 6.0 27.15 5.95 26.75 6.5 L27.65 6.3 Q28.65 6.25 28.65 7.45 28.6 8.15 27.95 8.4 L26.6 8.2 Q25.9 8.25 25.35 9.15 L25.15 9.5 24.4 10.05 24.3 10.05 Q22.8 10.0 21.85 8.9 21.25 8.15 21.25 7.2 21.25 6.35 22.15 5.85 22.9 5.35 24.05 5.4 L25.85 5.35 24.05 5.05 22.95 5.2 23.1 4.75 23.05 4.55 24.2 4.4 22.15 3.1 21.75 3.25 21.55 2.8 21.65 2.25 22.2 1.7 Q28.55 -0.4 37.25 0.65 L37.15 1.75 Q37.9 5.3 42.45 6.3 M29.05 4.9 L29.85 4.85 31.45 5.0 30.75 4.7 29.65 3.3 29.3 2.3 32.6 1.7 28.6 1.7 25.45 4.15 25.85 4.55 25.75 4.65 Q25.3 5.15 25.65 5.25 26.5 5.4 27.35 5.9 27.8 5.9 28.35 5.4 L29.05 4.9 M21.1 6.15 L21.5 5.95 21.3 6.15 21.1 6.15 M17.25 11.45 L16.2 11.8 16.15 11.8 17.25 11.45 M15.35 11.7 L15.0 11.65 15.0 10.55 Q16.15 7.7 18.95 6.9 L19.7 6.65 19.5 6.9 Q20.25 6.45 21.1 6.45 20.95 6.8 20.95 7.2 20.95 8.1 21.45 8.85 20.0 8.6 20.05 8.2 20.05 7.35 20.85 7.2 L20.8 7.2 20.55 7.15 Q19.7 7.1 19.75 8.2 19.75 8.55 20.1 8.75 19.05 10.7 15.35 11.7 M21.4 9.15 L21.7 9.15 21.9 9.35 21.4 9.15" fill="#f4f3f4" fill-rule="evenodd" stroke="none"/>
    <path d="M21.65 2.25 L21.55 2.8 21.75 3.25 20.25 3.85 21.9 3.55 23.05 4.55 23.1 4.75 22.95 5.2 Q22.4 5.3 21.95 5.6 L21.5 5.95 21.1 6.15 19.9 6.45 19.7 6.65 18.95 6.9 Q16.15 7.7 15.0 10.55 L15.0 11.65 15.35 11.7 13.35 12.1 14.25 12.15 16.15 11.8 16.2 11.8 17.25 11.45 17.75 11.25 Q19.5 10.45 20.35 8.9 L21.4 9.15 21.9 9.35 Q22.85 10.3 24.3 10.35 24.95 10.35 25.55 9.5 26.1 8.55 26.6 8.5 L26.95 8.55 26.3 9.35 Q23.25 12.7 19.75 12.7 L14.85 12.25 14.85 12.35 13.8 12.25 Q14.4 19.1 18.2 25.95 L18.45 26.05 20.3 28.15 22.4 30.0 23.35 31.1 22.4 31.05 Q22.4 30.9 22.15 30.85 L18.9 30.65 Q14.4 20.05 12.85 12.4 15.35 8.6 20.1 3.8 L21.65 2.25 M29.05 4.9 L28.35 5.4 Q27.8 5.9 27.35 5.9 26.5 5.4 25.65 5.25 25.3 5.15 25.75 4.65 L25.85 4.55 26.9 4.4 28.8 2.4 29.3 2.3 29.65 3.3 30.75 4.7 29.7 4.45 Q29.1 4.45 28.35 4.95 L27.7 5.4 29.05 4.9" fill="#ece4f1" fill-rule="evenodd" stroke="none"/>
    <path d="M42.45 6.3 Q37.9 5.3 37.15 1.75 L37.25 0.65 Q40.25 3.7 42.45 6.3 M21.75 3.25 L22.15 3.1 24.2 4.4 23.05 4.55 21.9 3.55 20.25 3.85 21.75 3.25 M40.7 26.75 L44.15 27.15 44.4 27.25 48.5 27.7 48.5 28.05 44.4 27.5 44.4 27.55 44.4 27.6 Q43.1 30.05 42.15 32.4 L41.8 32.35 44.05 27.55 44.05 27.45 44.1 27.45 42.2 27.2 39.8 32.2 39.45 32.15 41.9 27.15 40.75 27.05 40.7 26.75 M48.5 31.95 L48.55 32.6 48.3 33.1 47.95 33.05 48.5 31.95 M41.45 32.35 L41.2 32.3 41.35 31.85 Q41.3 31.3 40.85 31.4 40.4 31.45 40.45 31.95 L40.55 32.25 40.25 32.25 40.25 32.0 Q40.2 31.3 40.85 31.2 41.45 31.1 41.55 31.85 L41.45 32.35 M37.55 31.95 L36.45 31.85 36.3 31.7 Q35.75 30.95 36.4 30.55 37.05 30.1 37.6 30.85 38.0 31.35 37.75 31.75 L37.65 31.9 37.55 31.95 M31.55 31.55 L30.8 31.5 30.45 31.15 Q29.9 30.4 30.6 30.0 31.25 29.55 31.8 30.3 32.3 31.05 31.65 31.5 L31.55 31.55 M41.8 28.7 Q41.75 27.9 42.45 27.8 43.1 27.7 43.2 28.5 43.2 29.25 42.55 29.4 41.8 29.5 41.8 28.7 M42.05 28.65 Q42.05 29.2 42.5 29.15 42.95 29.1 42.95 28.55 42.9 27.95 42.45 28.05 42.0 28.05 42.05 28.65 M25.85 4.55 L25.45 4.15 28.6 1.7 32.6 1.7 29.3 2.3 28.8 2.4 26.9 4.4 25.85 4.55 M39.55 27.5 Q39.1 27.8 39.5 28.3 39.85 28.85 40.3 28.55 40.75 28.25 40.35 27.75 39.95 27.2 39.55 27.5 M40.15 28.9 Q39.65 29.0 39.25 28.45 38.7 27.7 39.35 27.3 39.95 26.9 40.5 27.5 L40.55 27.6 Q41.15 28.35 40.45 28.75 L40.15 28.9 M38.25 29.0 Q37.8 29.3 38.2 29.8 38.55 30.3 39.0 30.0 39.45 29.75 39.05 29.25 38.65 28.75 38.25 29.0 M39.55 29.65 Q39.55 30.0 39.15 30.25 L38.95 30.35 Q38.4 30.55 37.95 29.95 37.4 29.2 38.05 28.8 38.7 28.35 39.3 29.1 L39.55 29.65 M30.75 30.2 Q30.3 30.5 30.7 31.0 31.05 31.5 31.5 31.25 31.9 30.95 31.55 30.45 31.15 29.95 30.75 30.2 M37.35 31.0 Q37.0 30.5 36.55 30.75 36.1 31.05 36.5 31.55 36.9 32.05 37.3 31.8 37.7 31.5 37.35 31.0" fill="#000000" fill-rule="evenodd" stroke="none"/>
    <path d="M48.5 28.05 L48.5 31.1 48.5 31.95 47.95 33.05 44.95 32.7 42.8 32.45 45.1 27.65 44.4 27.6 44.4 27.55 44.4 27.5 48.5 28.05 M48.55 32.6 L48.55 33.2 48.3 33.1 48.55 32.6 M41.8 32.35 L41.45 32.35 41.55 31.85 Q41.45 31.1 40.85 31.2 40.2 31.3 40.25 32.0 L40.25 32.25 39.8 32.2 42.2 27.2 44.1 27.45 44.05 27.45 44.05 27.55 41.8 32.35 M39.45 32.15 L38.55 32.1 41.15 28.25 41.05 28.15 41.0 28.0 40.75 27.05 41.9 27.15 39.45 32.15 M41.8 28.7 Q41.8 29.5 42.55 29.4 43.2 29.25 43.2 28.5 43.1 27.7 42.45 27.8 41.75 27.9 41.8 28.7" fill="#8f28cc" fill-rule="evenodd" stroke="none"/>
    <path d="M42.8 32.45 L42.15 32.4 Q43.1 30.05 44.4 27.6 L45.1 27.65 42.8 32.45 M38.55 32.1 L38.3 32.05 37.95 32.0 41.0 28.35 41.05 28.15 41.15 28.25 38.55 32.1" fill="#771bb5" fill-rule="evenodd" stroke="none"/>
    <path d="M28.6 31.4 L28.8 30.55 28.85 30.4 Q28.8 30.2 29.1 30.1 L40.2 26.2 40.5 26.15 40.55 26.2 40.7 26.75 40.75 27.05 41.0 28.0 41.05 28.15 41.0 28.35 37.95 32.0 37.55 31.95 37.65 31.9 37.75 31.75 38.95 30.35 39.15 30.25 Q39.55 30.0 39.55 29.65 L40.15 28.9 40.45 28.75 Q41.15 28.35 40.55 27.6 L40.5 27.5 40.15 26.7 40.1 26.5 40.05 26.5 29.3 30.35 29.2 30.35 29.95 31.45 29.55 31.45 29.1 30.75 28.95 31.4 28.6 31.4 M18.55 30.6 L18.9 30.65 22.15 30.85 Q22.4 30.9 22.4 31.05 L20.65 31.0 18.75 30.8 18.7 30.95 18.4 30.95 18.5 30.6 18.55 30.6" fill="#9b7ac0" fill-rule="evenodd" stroke="none"/>
    <path d="M36.45 31.85 L31.55 31.55 31.65 31.5 Q32.3 31.05 31.8 30.3 31.25 29.55 30.6 30.0 29.9 30.4 30.45 31.15 L30.8 31.5 29.95 31.45 29.2 30.35 29.3 30.35 40.05 26.5 40.1 26.5 40.15 26.7 40.5 27.5 Q39.95 26.9 39.35 27.3 38.7 27.7 39.25 28.45 39.65 29.0 40.15 28.9 L39.55 29.65 39.3 29.1 Q38.7 28.35 38.05 28.8 37.4 29.2 37.95 29.95 38.4 30.55 38.95 30.35 L37.75 31.75 Q38.0 31.35 37.6 30.85 37.05 30.1 36.4 30.55 35.75 30.95 36.3 31.7 L36.45 31.85 M18.7 30.95 L18.75 30.8 20.65 31.0 18.7 30.95" fill="#e2dde8" fill-rule="evenodd" stroke="none"/>
    <path d="M29.55 31.45 L29.2 31.4 28.95 31.4 29.1 30.75 29.55 31.45" fill="#ccbddc" fill-rule="evenodd" stroke="none"/>
    <path d="M41.2 32.3 L40.55 32.25 40.45 31.95 Q40.4 31.45 40.85 31.4 41.3 31.3 41.35 31.85 L41.2 32.3 M42.05 28.65 Q42.0 28.05 42.45 28.05 42.9 27.95 42.95 28.55 42.95 29.1 42.5 29.15 42.05 29.2 42.05 28.65 M39.55 27.5 Q39.95 27.2 40.35 27.75 40.75 28.25 40.3 28.55 39.85 28.85 39.5 28.3 39.1 27.8 39.55 27.5 M38.25 29.0 Q38.65 28.75 39.05 29.25 39.45 29.75 39.0 30.0 38.55 30.3 38.2 29.8 37.8 29.3 38.25 29.0 M30.75 30.2 Q31.15 29.95 31.55 30.45 31.9 30.95 31.5 31.25 31.05 31.5 30.7 31.0 30.3 30.5 30.75 30.2 M37.35 31.0 Q37.7 31.5 37.3 31.8 36.9 32.05 36.5 31.55 36.1 31.05 36.55 30.75 37.0 30.5 37.35 31.0" fill="#af3aea" fill-rule="evenodd" stroke="none"/>
    <path d="M36.7 21.15 L36.75 21.1 37.25 18.95 37.7 14.05 37.8 11.55 37.65 9.75 39.6 9.1 Q40.4 14.0 37.7 20.75 L36.7 21.2 36.7 21.15 M36.15 21.45 L31.8 23.05 31.85 23.0 32.55 11.4 36.1 10.25 Q36.75 17.65 36.15 21.45 M30.55 23.45 L26.75 24.25 24.75 24.4 23.65 13.65 23.65 13.55 27.0 13.0 30.35 12.1 30.55 23.45 M18.8 23.7 L18.8 23.65 Q17.65 14.9 17.3 13.5 L22.25 13.65 Q22.25 17.45 23.35 24.4 L18.8 23.7 M31.05 25.9 L34.75 24.8 31.05 25.95 31.05 25.9 M36.05 21.9 L36.05 22.1 35.8 23.75 31.95 24.85 Q31.65 24.4 31.75 23.8 L31.85 23.45 36.05 21.9 M30.6 23.85 L30.65 25.55 25.45 26.1 Q24.95 26.1 24.9 25.2 L24.85 24.85 26.75 24.7 30.6 23.85 M25.25 26.75 L30.7 26.0 30.8 25.95 30.8 26.0 25.25 26.75 M37.5 21.25 L36.95 22.5 37.0 21.45 37.5 21.25 M17.5 23.3 L16.45 20.4 Q15.25 16.85 14.75 13.1 L16.35 13.4 16.75 17.25 Q17.25 21.5 17.9 23.45 L17.75 23.4 17.6 23.3 17.55 23.35 17.5 23.3 M14.6 12.65 L14.55 12.65 14.35 12.6 14.6 12.65 M16.45 21.6 L17.15 23.15 17.1 23.15 16.45 21.6 M17.35 23.55 L17.3 23.6 18.4 25.7 17.3 23.55 17.35 23.55 M23.45 24.85 L23.7 26.4 19.35 25.75 18.8 24.1 18.8 24.05 23.45 24.85 M19.05 25.9 L19.55 26.05 19.05 25.9" fill="#ffffff" fill-rule="evenodd" stroke="none"/>
    <path d="M37.7 20.75 Q40.4 14.0 39.6 9.1 L37.65 9.75 37.8 11.55 37.7 14.05 37.25 18.95 36.75 21.1 36.7 21.15 Q37.4 14.4 36.55 9.5 L39.95 8.2 40.05 8.5 40.2 8.9 40.15 8.9 Q40.9 12.4 38.2 20.55 L37.7 20.75 M31.8 23.05 L31.25 23.25 31.35 18.25 Q31.3 13.0 31.4 11.3 L36.3 9.6 Q37.1 14.55 36.4 21.35 L36.15 21.45 Q36.75 17.65 36.1 10.25 L32.55 11.4 31.85 23.0 31.8 23.05 M24.75 24.4 L23.9 24.4 Q23.1 19.65 22.8 13.1 L24.05 13.0 24.25 12.95 Q27.0 12.65 31.1 11.4 L31.05 18.35 31.0 23.3 30.55 23.45 30.35 12.1 27.0 13.0 23.65 13.55 23.65 13.65 24.75 24.4 M18.8 23.7 L18.45 23.6 Q16.95 18.05 16.85 12.85 L18.3 13.0 19.1 13.05 19.15 13.05 22.5 13.1 Q22.8 19.65 23.6 24.4 L23.35 24.4 Q22.25 17.45 22.25 13.65 L17.3 13.5 Q17.65 14.9 18.8 23.65 L18.8 23.7 M31.05 25.9 L31.1 25.9 31.25 23.65 31.85 23.45 31.75 23.8 Q31.65 24.4 31.95 24.85 L35.8 23.75 36.05 22.1 36.05 21.9 36.35 21.75 36.0 24.35 35.95 24.4 35.75 24.5 35.7 24.5 34.75 24.8 31.05 25.9 M30.6 23.85 L30.95 23.75 30.8 25.95 30.7 26.0 25.25 26.75 24.35 26.75 24.0 24.85 24.85 24.85 24.9 25.2 Q24.95 26.1 25.45 26.1 L30.65 25.55 30.6 23.85 M37.5 21.25 L38.05 21.0 37.0 23.9 36.95 23.95 36.3 24.25 36.3 24.2 36.35 23.8 36.65 21.65 37.0 21.45 36.95 22.5 37.5 21.25 M36.3 24.3 L36.45 24.25 36.3 24.3 M17.9 23.45 Q17.25 21.5 16.75 17.25 L16.35 13.4 14.75 13.1 Q15.25 16.85 16.45 20.4 L17.5 23.3 17.15 23.15 16.45 21.6 14.45 14.9 14.4 14.45 14.2 13.0 14.15 13.0 14.15 12.6 14.35 12.6 14.55 12.65 14.6 12.65 15.65 12.75 16.55 12.8 16.55 12.85 Q16.6 18.05 18.1 23.5 L17.9 23.45 M17.55 23.35 L17.6 23.3 17.75 23.4 17.55 23.35 M18.4 25.7 L17.3 23.6 17.35 23.55 18.2 23.85 18.75 25.85 18.7 25.8 18.4 25.7 M18.8 24.05 L18.8 24.1 19.35 25.75 23.7 26.4 23.45 24.85 23.7 24.85 24.05 26.75 21.0 26.4 19.55 26.05 19.05 25.9 19.1 25.9 18.55 23.95 18.8 24.05" fill="#f0f2ef" fill-rule="evenodd" stroke="none"/>
  </g>
</svg>
