<?xml version="1.0" encoding="UTF-8" standalone="no"?>
<svg xmlns:xlink="http://www.w3.org/1999/xlink" height="184.95px" width="166.1px" xmlns="http://www.w3.org/2000/svg">
  <g transform="matrix(1.0, 0.0, 0.0, 1.0, 0.0, 0.0)">
    <path d="M24.2 44.25 L25.95 44.5 Q26.8 44.75 27.1 45.2 L27.45 46.1 27.5 46.25 27.7 47.65 27.9 49.2 Q30.75 49.9 32.65 51.9 34.55 53.85 35.65 57.3 L37.4 63.1 Q38.5 63.35 39.25 64.2 39.95 65.05 40.05 66.25 L40.3 68.65 40.65 70.65 41.15 72.95 41.2 73.05 41.35 74.55 41.2 76.25 40.8 77.8 40.8 77.95 Q41.8 78.2 42.65 78.9 43.5 79.55 44.0 80.6 44.55 81.65 44.55 83.05 L44.5 83.6 47.1 85.25 50.25 87.05 52.95 88.3 54.25 86.6 55.45 84.4 56.5 82.15 55.1 80.95 54.45 80.3 Q53.8 79.6 53.8 78.6 L53.8 78.3 Q53.95 77.45 54.35 76.75 54.8 76.05 55.35 75.65 L55.95 74.9 56.85 73.9 Q57.35 73.4 58.2 73.2 L59.1 71.8 60.1 69.5 58.55 69.55 56.3 69.6 54.3 69.65 53.4 69.7 Q49.2 69.7 46.2 68.5 43.15 67.25 41.65 64.85 L40.35 62.45 38.45 58.55 36.15 53.6 35.8 52.85 35.0 51.2 34.15 49.4 33.65 48.35 31.8 48.35 Q30.95 48.25 30.15 47.8 L28.7 46.6 Q27.7 45.25 27.65 43.55 L27.7 43.4 24.05 43.75 24.1 44.0 24.2 44.25 M21.75 32.5 L21.65 32.5 21.75 32.55 21.75 32.5 M89.3 2.25 Q92.05 0.9 94.9 0.15 96.45 -0.2 97.3 0.4 98.05 0.9 98.25 2.05 L98.3 3.3 98.05 7.45 97.3 12.95 96.2 19.1 101.65 30.2 Q103.95 34.45 105.65 36.8 107.35 39.15 108.65 40.1 109.95 41.0 111.1 41.15 L113.6 41.0 114.7 40.95 Q115.2 40.95 115.5 41.35 L115.6 41.8 115.45 42.35 115.15 42.95 114.05 44.35 112.95 45.35 Q113.65 45.4 113.95 45.9 L114.05 46.3 Q114.05 46.8 113.65 47.2 L113.05 47.85 111.5 49.2 107.5 52.65 Q105.2 54.6 102.2 56.75 99.2 58.85 95.55 60.8 91.9 62.75 87.65 64.25 88.3 66.35 88.55 68.35 L88.85 72.25 89.05 75.45 Q89.2 77.05 89.65 78.55 90.05 80.1 90.95 81.55 L93.05 84.65 95.2 87.05 97.8 89.2 101.25 91.7 102.95 92.9 Q106.15 95.25 108.95 98.45 111.75 101.6 113.8 105.25 115.85 108.9 116.9 112.6 L116.95 112.75 116.9 112.8 116.35 114.4 Q115.85 115.35 114.6 116.4 113.35 117.45 111.05 118.5 L114.15 123.35 117.75 128.1 Q119.6 130.3 121.4 131.8 L128.0 136.5 Q131.05 138.4 133.75 139.65 L138.7 141.85 Q141.3 142.9 143.55 144.05 147.8 146.2 151.85 148.85 155.85 151.55 159.05 154.9 162.25 158.25 164.15 162.55 166.05 166.85 166.1 172.25 L166.0 174.75 Q165.75 177.45 164.45 179.55 163.1 181.6 160.85 182.9 158.85 183.95 156.45 184.3 L151.5 184.15 Q148.95 183.65 146.55 182.45 143.7 180.9 141.35 178.2 139.05 175.45 137.15 172.05 135.3 168.65 133.8 165.05 L131.05 158.2 129.65 154.65 128.4 151.85 Q127.85 150.7 127.35 150.3 L124.95 148.3 122.55 146.25 116.6 141.15 Q113.05 138.15 110.65 134.9 L108.85 132.3 106.35 128.55 103.75 124.55 101.55 121.05 91.95 122.0 91.3 122.15 89.8 122.45 88.15 122.8 86.9 123.1 88.8 126.3 91.1 130.7 93.2 135.65 Q94.1 138.2 94.45 140.5 L94.55 142.6 Q94.55 145.2 94.0 148.2 L92.6 154.15 90.9 159.6 89.45 163.6 Q93.9 163.65 97.3 164.65 100.65 165.6 103.0 167.2 105.4 168.85 106.85 170.8 108.25 172.75 108.85 174.8 L109.3 176.35 109.45 177.9 Q109.5 178.95 108.95 179.95 108.05 181.7 105.05 182.6 L97.15 184.2 88.95 184.9 81.05 184.9 74.15 184.45 69.0 183.8 66.3 183.2 Q62.9 181.9 62.15 179.75 61.9 179.0 61.9 178.25 61.9 176.15 63.65 173.2 L67.2 167.65 71.1 162.25 76.25 154.9 Q78.65 151.3 80.2 147.85 81.7 144.4 81.85 141.05 L81.85 140.8 Q81.85 139.5 81.45 137.5 L80.4 133.2 79.05 128.65 77.75 124.6 Q73.5 125.0 69.65 124.8 65.8 124.55 62.1 123.7 60.95 123.4 60.15 122.85 L58.95 121.65 58.65 121.35 58.6 121.1 58.7 120.65 Q58.75 120.3 59.05 119.9 59.35 119.5 60.1 119.2 L62.9 117.7 64.95 115.95 Q62.9 111.75 61.5 106.85 60.05 101.95 59.3 96.6 58.6 97.45 57.3 98.0 L54.3 98.4 Q52.55 98.3 50.5 97.25 L47.0 95.3 43.05 92.95 39.5 90.8 37.35 91.7 34.9 91.85 Q33.65 91.65 32.6 91.0 30.95 89.9 30.5 88.15 27.2 87.9 24.3 86.9 21.4 85.85 19.3 84.55 17.25 83.25 16.4 82.05 L15.7 80.4 15.55 79.45 15.65 78.8 Q14.75 78.2 14.2 77.15 13.65 76.1 13.6 74.85 L13.9 73.35 12.45 71.8 Q11.85 70.8 11.8 69.35 L11.9 68.4 Q12.1 67.05 12.85 66.0 L14.45 64.0 15.65 62.55 Q15.25 60.6 15.25 59.05 15.25 57.0 15.75 55.45 16.2 53.95 16.95 52.85 17.7 51.7 18.55 51.0 L18.7 50.85 18.4 49.9 18.0 48.75 17.8 48.15 17.7 47.5 Q17.7 46.95 17.95 46.5 L18.5 45.8 19.45 45.25 20.45 44.85 20.45 44.75 19.15 45.1 17.7 45.2 15.9 44.85 Q15.15 44.45 14.65 43.75 14.0 42.8 14.0 41.7 L14.25 40.4 14.7 39.4 13.05 39.5 10.85 39.65 8.8 39.8 7.6 39.85 7.45 41.4 7.15 42.85 6.7 43.2 4.95 43.35 3.2 43.5 2.2 43.65 1.7 43.5 Q0.95 42.6 0.55 41.05 0.15 39.55 0.05 37.8 L0.05 34.55 Q0.2 33.05 0.45 32.2 0.6 31.85 0.95 31.85 L2.3 32.0 3.95 32.2 5.4 32.35 6.25 32.45 Q6.55 32.45 6.65 32.7 L7.0 33.7 7.25 34.8 8.1 34.85 9.4 35.0 8.05 33.7 Q7.55 32.95 7.4 32.15 L7.35 31.7 Q7.4 31.0 7.7 30.5 8.05 30.0 8.7 29.8 L10.75 29.0 8.65 27.85 Q7.0 26.6 6.45 25.3 5.95 24.05 6.0 23.1 L6.0 22.8 Q5.5 21.65 5.5 20.6 5.5 19.5 5.95 18.55 6.35 17.65 7.0 17.05 7.6 16.6 8.15 16.55 L9.2 16.8 11.4 18.15 14.9 20.1 18.8 22.2 22.15 24.0 22.5 24.15 23.15 24.5 23.6 24.75 Q25.6 24.75 27.45 25.55 29.35 26.35 31.65 27.95 33.9 29.5 36.15 31.5 L40.2 35.65 40.9 35.9 42.5 27.75 42.6 27.35 42.75 26.35 42.95 25.4 43.1 24.6 43.25 23.85 43.35 23.3 Q42.75 21.7 42.45 19.85 L42.2 15.95 42.4 11.65 42.8 7.55 43.05 4.8 Q43.15 3.95 43.45 3.6 43.75 3.3 44.0 3.25 L44.65 3.3 45.55 4.05 48.35 7.3 52.55 10.8 Q55.8 8.7 59.6 7.55 63.35 6.4 67.15 6.1 71.0 5.75 74.4 6.2 77.85 6.65 80.45 7.75 L84.2 5.1 Q86.5 3.55 89.3 2.25" fill="#ffffff" fill-rule="evenodd" stroke="none"/>
  </g>
</svg>
