<?xml version="1.0" encoding="UTF-8" standalone="no"?>
<svg xmlns:xlink="http://www.w3.org/1999/xlink" height="131.5px" width="219.6px" xmlns="http://www.w3.org/2000/svg">
  <g transform="matrix(1.0, 0.0, 0.0, 1.0, 109.8, 66.8)">
    <path d="M58.35 38.1 Q58.15 37.6 57.8 37.45 L56.95 37.5 Q56.45 37.7 56.0 38.4 55.6 38.95 55.45 39.7 L55.35 41.15 Q55.4 41.8 55.7 42.3 56.1 42.9 56.95 42.85 L58.0 41.6 Q58.45 40.65 58.55 39.5 L58.55 39.3 58.35 38.1 M-52.0 -2.6 L-57.35 -1.8 -54.95 -1.25 -52.45 -0.6 -50.1 0.1 Q-49.35 0.5 -48.7 1.25 L-47.7 2.85 -43.8 0.3 Q-41.9 -1.3 -40.65 -3.6 L-46.05 -3.25 -52.0 -2.6 M7.2 -2.35 Q6.1 -3.2 4.45 -3.85 2.5 -2.55 0.0 -1.95 1.65 0.6 2.95 3.35 L3.15 3.35 3.35 3.35 5.35 0.55 7.2 -2.35 M2.6 -17.3 L6.0 -17.15 Q7.6 -17.1 8.45 -16.0 L9.1 -14.6 9.3 -13.05 9.1 -11.2 11.5 -10.3 13.75 -9.3 Q17.0 -7.85 17.0 -4.75 L16.9 -3.7 Q16.65 -1.85 15.7 1.05 14.7 3.95 12.55 7.65 L13.4 9.4 13.7 11.2 13.4 12.75 15.4 14.45 Q18.45 17.2 18.45 20.0 L18.2 21.6 23.25 28.1 27.25 33.4 31.8 38.4 Q34.2 40.75 37.0 42.5 39.85 44.25 43.2 45.1 L50.65 45.6 Q49.4 44.45 48.9 42.65 48.6 41.6 48.6 40.5 48.65 38.85 49.15 37.3 49.65 35.75 50.65 34.4 52.55 31.95 54.75 30.95 57.0 29.95 59.15 30.2 61.3 30.4 62.95 31.55 64.5 32.75 65.4 34.6 66.25 36.45 66.25 38.7 L66.15 39.7 Q67.2 39.35 68.5 39.15 L71.1 39.0 Q72.4 39.05 73.55 39.65 75.45 40.75 75.95 43.2 L76.6 44.05 Q77.6 44.65 79.5 44.8 L83.6 44.8 88.0 44.3 91.75 43.6 97.15 43.05 102.3 43.45 106.65 44.4 Q108.5 44.95 109.55 45.5 109.9 45.7 109.8 46.1 L108.85 48.95 108.55 49.3 108.1 49.25 105.85 48.25 Q104.35 47.65 102.1 47.15 L97.15 46.65 Q94.4 46.6 91.3 47.4 L88.35 48.0 84.3 48.55 79.9 48.8 75.9 48.6 Q74.1 48.3 73.05 47.65 72.1 47.05 71.95 46.2 71.7 44.7 70.7 44.25 68.6 43.35 63.15 46.55 L61.1 48.55 57.85 50.4 53.85 51.55 49.7 52.05 45.8 52.1 Q40.55 51.8 36.35 50.15 32.15 48.45 28.75 45.85 25.3 43.25 22.45 40.15 L17.0 33.95 12.3 28.6 Q10.7 28.85 8.95 27.5 8.5 27.95 7.8 28.2 L7.7 28.8 7.5 29.65 7.4 30.35 Q7.95 30.55 8.5 31.0 L9.4 32.1 Q9.75 32.8 9.75 33.85 L9.45 35.8 8.15 39.15 Q10.6 40.05 13.45 41.45 16.3 42.8 19.4 44.75 L25.75 49.45 Q28.1 51.55 29.15 53.8 30.2 56.05 30.2 57.95 L30.05 59.2 Q29.6 61.25 28.0 61.85 L22.8 63.05 16.25 63.95 8.9 64.55 1.4 64.7 -5.55 64.4 -8.4 63.95 Q-9.85 63.55 -10.85 62.6 -11.85 61.6 -11.9 59.8 L-11.9 59.55 Q-11.75 56.55 -10.65 54.45 -9.5 52.3 -7.9 50.85 -6.3 49.45 -4.65 48.6 L-10.15 49.1 -14.9 48.7 -18.15 47.75 -20.3 46.4 Q-21.15 45.6 -21.35 44.35 L-21.45 43.35 -21.2 40.95 -20.65 38.25 -20.55 37.75 -20.3 36.75 Q-23.45 37.95 -26.5 39.75 -29.55 41.55 -32.35 43.95 L-33.8 45.45 -34.95 46.85 -36.2 48.35 Q-36.75 48.85 -37.35 48.75 -40.95 47.8 -43.85 45.9 -46.75 44.0 -48.75 41.2 L-51.75 43.0 -54.65 44.7 -56.95 46.05 -57.25 46.25 -57.65 46.5 -57.85 46.65 -60.4 48.75 Q-61.65 49.95 -62.4 52.15 -61.6 53.6 -61.25 54.95 -60.9 56.2 -60.95 57.3 -60.95 58.7 -61.25 59.65 L-61.9 61.1 -62.9 62.4 Q-63.45 62.85 -63.95 62.9 L-69.0 62.95 -73.7 63.0 -78.9 63.1 -84.0 63.1 -88.4 63.0 Q-90.6 62.9 -91.75 62.3 -92.95 61.7 -93.35 60.8 L-93.8 59.05 Q-93.75 56.5 -92.7 54.4 -91.65 52.3 -89.9 50.55 -88.15 48.8 -85.95 47.4 -83.75 46.0 -81.35 44.9 -79.0 43.75 -76.8 42.9 L-71.65 40.95 -67.2 39.4 -61.85 37.5 -58.65 35.85 -54.9 33.6 -54.4 33.25 -53.35 32.6 -52.5 32.1 -52.65 30.4 -52.55 29.2 -52.0 28.45 -49.85 26.95 -46.6 24.55 -43.05 21.75 -48.1 21.55 Q-49.75 24.15 -52.25 25.9 L-52.5 26.0 -54.5 26.1 -57.4 26.2 -60.45 26.2 -62.9 26.15 -65.5 25.45 -68.55 23.45 -70.5 22.6 -73.0 23.15 -75.5 22.75 -77.5 21.4 -77.95 21.45 -78.15 21.5 -82.1 21.25 Q-83.95 20.7 -85.3 19.5 L-86.65 17.65 -87.1 15.5 -87.95 15.25 -89.05 14.95 -89.85 14.75 Q-91.05 16.35 -92.7 17.4 L-92.95 17.5 -94.55 17.6 -96.85 17.7 -99.3 17.75 -101.3 17.7 -102.85 17.35 -105.0 16.3 -107.15 14.4 Q-110.25 10.65 -109.7 4.6 -109.4 2.0 -108.65 0.2 -107.9 -1.6 -106.95 -2.75 -105.95 -3.95 -105.0 -4.6 -103.75 -5.45 -102.55 -5.85 L-100.3 -6.3 -98.75 -6.2 -97.3 -5.9 -95.25 -5.4 -93.0 -4.85 -90.95 -4.2 Q-90.5 -4.0 -90.15 -3.6 L-89.5 -2.8 Q-89.15 -3.9 -88.3 -4.6 -87.45 -5.25 -86.2 -5.4 L-84.55 -5.1 -83.15 -4.4 -82.4 -3.85 Q-80.8 -2.55 -79.5 -1.9 -78.25 -1.3 -77.15 -1.0 L-74.95 -0.6 -73.2 -0.3 -71.25 0.2 Q-69.85 0.65 -68.85 1.2 L-66.65 -0.6 Q-67.8 -0.85 -68.65 -1.4 -69.5 -1.95 -69.9 -2.8 L-70.25 -4.25 Q-70.2 -5.1 -69.75 -5.9 L-70.2 -6.1 -70.45 -6.2 -72.85 -7.35 Q-74.0 -8.05 -74.8 -9.15 -75.6 -10.3 -75.65 -12.15 L-75.65 -12.25 Q-75.65 -13.95 -74.3 -15.1 -73.0 -16.2 -70.6 -16.5 -68.2 -16.85 -65.1 -16.4 -67.7 -20.95 -69.3 -24.85 -70.15 -27.0 -70.6 -29.25 -71.0 -31.5 -71.0 -33.7 L-70.55 -38.45 Q-70.05 -40.8 -69.05 -42.95 -67.25 -46.85 -64.1 -49.75 -60.95 -52.6 -56.7 -54.2 -57.05 -54.65 -57.8 -54.95 L-59.85 -55.25 -63.5 -54.85 -64.25 -54.95 -64.45 -55.25 -64.45 -55.35 -64.65 -55.35 -65.35 -55.45 -65.55 -55.75 -65.5 -56.2 -65.1 -56.6 -65.05 -56.6 Q-62.9 -57.35 -61.85 -58.0 -60.85 -58.7 -60.5 -59.3 -60.2 -59.95 -60.25 -60.4 -60.25 -60.8 -59.9 -60.9 L-57.35 -61.1 Q-56.05 -60.95 -54.95 -60.25 L-53.25 -58.8 -52.1 -56.85 Q-51.95 -57.4 -51.95 -58.0 L-52.15 -59.3 Q-52.55 -60.55 -53.65 -61.55 -54.8 -62.6 -56.5 -63.25 -57.25 -63.6 -57.25 -64.05 L-57.25 -64.15 -57.2 -64.3 -57.65 -64.5 -58.6 -64.85 -59.5 -65.25 -59.95 -65.4 -60.5 -65.8 -60.6 -66.15 -60.6 -66.35 -60.3 -66.7 -59.4 -66.75 -55.45 -66.2 -52.0 -66.1 -49.9 -66.05 -47.95 -65.85 Q-46.65 -65.65 -45.7 -64.8 -44.75 -63.95 -44.3 -62.6 -44.05 -61.8 -44.05 -60.95 -44.1 -59.15 -45.2 -57.55 -41.2 -58.1 -37.6 -57.5 -34.05 -56.9 -31.15 -55.25 -28.25 -53.6 -26.25 -51.05 -24.3 -48.45 -23.5 -45.1 -22.15 -39.35 -21.7 -34.55 -21.2 -29.75 -21.2 -26.4 -20.05 -26.05 -19.3 -25.3 -18.55 -24.55 -18.2 -23.5 L-18.0 -22.15 Q-18.05 -20.15 -19.55 -18.0 L-19.1 -18.05 -18.9 -18.05 -13.15 -18.15 -7.15 -17.95 -1.25 -17.55 2.6 -17.3" fill="#ffffff" fill-rule="evenodd" stroke="none"/>
  </g>
</svg>
