<?xml version="1.0" encoding="UTF-8" standalone="no"?>
<svg xmlns:xlink="http://www.w3.org/1999/xlink" height="133.1px" width="218.65px" xmlns="http://www.w3.org/2000/svg">
  <g transform="matrix(1.0, 0.0, 0.0, 1.0, 0.0, 0.0)">
    <path d="M139.9 122.55 L140.4 123.25 Q141.55 125.1 141.4 127.25 141.2 129.55 138.85 130.4 L134.1 131.9 129.5 132.45 127.7 132.55 119.55 133.1 120.3 133.0 115.0 133.05 104.45 132.65 Q98.2 132.15 95.4 131.2 92.55 130.25 93.4 129.2 94.25 128.15 98.9 127.25 L90.75 127.4 80.7 127.9 69.45 128.65 57.9 129.45 46.85 130.2 37.05 130.8 29.3 131.0 22.6 130.55 17.45 129.4 Q15.35 128.7 14.55 128.05 13.75 127.3 14.6 126.8 15.45 126.25 18.35 126.1 L28.6 125.7 41.05 125.35 54.8 125.0 68.9 124.7 82.45 124.45 94.6 124.3 104.4 124.15 110.95 124.05 113.3 124.0 139.9 122.55" fill="#000000" fill-opacity="0.15294118" fill-rule="evenodd" stroke="none"/>
    <path d="M59.65 97.3 L65.4 103.9 64.35 104.55 61.7 106.15 58.3 108.25 54.8 110.35 52.1 111.9 50.0 113.4 Q48.9 114.15 47.95 115.35 46.95 116.55 46.4 118.45 47.65 120.75 47.85 122.65 48.05 124.5 47.55 125.85 47.1 127.2 46.45 127.95 L45.4 128.65 42.2 128.7 37.35 128.75 31.65 128.85 25.95 128.85 20.95 128.8 Q19.05 128.7 18.0 128.2 16.9 127.75 16.5 127.0 16.05 126.2 16.05 125.3 16.1 122.35 17.6 119.95 19.1 117.55 21.55 115.65 24.0 113.7 26.9 112.25 29.85 110.75 32.7 109.6 37.65 107.7 41.5 106.45 L47.65 104.25 51.2 102.4 55.25 99.9 59.65 97.3" fill="#86432c" fill-rule="evenodd" stroke="none"/>
    <path d="M59.25 98.5 L63.3 103.9 62.4 104.5 60.05 105.95 57.0 107.85 53.95 109.75 51.45 111.2 49.25 112.9 47.05 115.05 Q46.0 116.2 45.4 117.5 43.9 116.4 42.25 116.05 L38.85 115.85 35.6 116.45 32.9 117.3 Q32.3 117.5 32.35 117.7 L32.9 117.75 37.2 116.9 Q39.35 116.55 41.35 116.9 43.35 117.2 44.95 118.7 46.25 120.0 46.65 121.5 47.05 122.95 46.85 124.3 46.65 125.65 46.1 126.5 45.55 127.4 45.0 127.45 L43.25 127.5 40.6 127.55 Q41.85 126.75 42.25 125.6 42.65 124.5 42.4 123.35 42.1 122.2 41.4 121.25 40.7 120.35 39.75 119.9 L38.7 119.6 Q38.45 119.65 39.35 120.3 40.5 121.05 41.0 122.1 41.55 123.15 41.5 124.25 41.45 125.4 40.85 126.25 40.25 127.15 39.1 127.6 L36.55 127.7 34.15 127.75 31.3 127.85 31.35 127.8 31.9 125.95 32.0 123.7 31.5 121.5 Q31.1 120.5 30.3 119.85 30.0 119.6 29.95 119.7 L30.1 120.2 Q31.45 122.35 31.35 124.35 31.25 126.3 30.15 127.85 L27.15 127.85 23.9 127.85 21.4 127.8 18.8 127.35 Q17.95 126.95 17.7 126.3 L17.45 124.85 Q17.5 122.1 19.0 119.9 20.5 117.75 22.95 116.0 25.35 114.25 28.15 112.8 30.9 111.4 33.5 110.2 L36.9 108.85 41.1 107.4 45.1 106.05 48.1 104.95 51.35 103.25 55.2 100.95 Q57.2 99.65 59.25 98.5" fill="#ffcf2e" fill-rule="evenodd" stroke="none"/>
    <path d="M40.95 126.2 Q40.35 127.15 39.15 127.6 L36.55 127.65 34.2 127.75 31.35 127.8 31.4 127.75 31.9 126.4 33.6 126.85 36.05 126.95 38.65 126.7 40.95 126.2" fill="#d9810d" fill-rule="evenodd" stroke="none"/>
    <path d="M31.05 126.1 L30.15 127.85 27.2 127.85 23.95 127.85 21.45 127.8 18.9 127.35 Q18.05 126.95 17.75 126.35 L20.6 127.05 24.45 127.2 28.25 126.8 Q30.05 126.55 31.05 126.1" fill="#d9810d" fill-rule="evenodd" stroke="none"/>
    <path d="M46.7 121.45 Q47.1 122.95 46.85 124.3 46.65 125.6 46.15 126.5 45.6 127.35 45.05 127.45 L43.25 127.5 40.6 127.55 Q41.6 126.9 42.05 126.1 L42.95 126.65 Q43.5 126.75 44.05 126.3 44.65 125.85 44.95 124.8 45.65 122.15 44.75 120.2 43.85 118.25 41.5 117.4 L35.3 117.2 38.8 116.75 42.1 117.05 Q43.7 117.45 45.0 118.65 46.3 120.0 46.7 121.45" fill="#d9810d" fill-rule="evenodd" stroke="none"/>
    <path d="M62.9 103.3 L63.25 103.95 62.0 104.75 59.6 106.25 56.7 108.1 53.8 109.85 Q52.4 110.65 51.5 111.2 L49.25 112.9 47.05 115.05 Q46.05 116.2 45.4 117.5 43.95 116.4 42.3 116.05 L38.95 115.85 35.75 116.4 33.05 117.25 Q33.55 116.35 35.2 115.1 36.85 113.85 39.1 112.45 L43.75 109.75 48.2 107.45 Q50.2 106.45 51.3 106.0 53.1 105.3 54.8 104.3 L57.85 102.05 Q59.15 100.75 59.6 98.95 L62.9 103.3" fill="#d9810d" fill-rule="evenodd" stroke="none"/>
    <path d="M118.2 98.55 Q118.85 99.75 118.3 101.9 117.1 105.85 115.0 108.4 112.9 110.95 110.25 112.4 107.6 113.8 104.75 114.4 L99.25 114.9 94.55 114.45 91.4 113.55 Q90.05 113.0 89.35 112.3 88.6 111.6 88.4 110.55 L88.45 108.15 89.0 105.25 89.65 102.2 86.45 103.5 81.95 105.95 76.6 109.85 Q75.4 110.9 74.55 112.05 L73.15 113.9 Q72.55 114.6 72.05 114.55 67.05 113.25 63.55 110.1 60.0 106.95 58.3 102.1 57.3 99.2 57.15 97.35 57.0 95.55 57.55 95.15 L59.4 93.85 62.2 91.8 65.4 89.35 68.45 86.8 70.75 84.6 Q71.3 84.0 73.4 83.3 75.45 82.6 78.55 81.95 L85.5 80.65 93.25 79.6 101.0 78.95 108.0 78.8 113.25 79.3 Q115.35 79.75 116.0 80.65 117.2 82.45 117.5 84.4 117.85 86.35 117.65 88.45 L116.95 92.65 116.1 96.95 Q117.55 97.35 118.2 98.55" fill="#012f2e" fill-rule="evenodd" stroke="none"/>
    <path d="M116.85 88.6 L116.15 92.6 115.25 96.65 113.35 96.55 111.35 96.65 Q110.65 96.7 110.45 96.9 110.3 97.15 111.0 97.15 L112.8 97.1 114.75 97.25 Q115.65 97.4 116.45 97.85 117.25 98.25 117.65 99.1 118.05 100.0 117.7 101.6 L117.2 102.9 116.4 103.95 Q116.0 104.35 115.95 103.95 115.95 103.6 116.3 102.4 L116.65 101.15 Q116.75 100.6 116.45 100.25 116.1 99.85 114.95 99.45 L112.1 98.95 107.95 99.05 103.1 99.9 Q100.55 100.5 98.15 101.65 95.75 102.8 93.75 104.55 92.15 106.05 91.35 107.6 90.6 109.15 90.75 110.45 90.9 111.75 92.0 112.5 L92.15 112.7 92.3 113.0 91.85 112.95 90.25 112.05 Q89.65 111.55 89.4 110.75 89.2 109.95 89.35 108.7 L90.05 104.75 90.9 100.85 Q91.2 99.45 91.95 97.7 92.65 95.95 93.75 94.25 94.85 92.55 96.3 91.3 L96.65 90.85 96.3 90.85 Q96.05 90.9 95.8 91.1 94.05 92.7 92.95 94.2 91.85 95.7 91.15 97.4 90.5 99.05 89.95 101.2 L86.2 102.75 81.35 105.3 Q78.75 106.85 76.3 108.9 75.15 109.9 74.35 111.0 L73.0 112.9 72.0 113.55 Q67.15 112.35 63.9 109.35 60.6 106.4 58.95 101.7 58.0 98.95 58.0 97.25 58.05 95.55 58.6 95.2 L60.35 93.95 63.05 92.0 66.2 89.6 69.1 87.15 71.35 85.05 Q71.9 84.45 73.9 83.8 L78.95 82.5 85.7 81.25 93.25 80.25 100.85 79.6 107.6 79.45 112.75 79.95 Q114.8 80.35 115.45 81.25 116.5 82.85 116.8 84.75 117.1 86.6 116.85 88.6" fill="#219058" fill-rule="evenodd" stroke="none"/>
    <path d="M97.3 89.85 L96.5 90.8 96.2 90.9 95.8 91.15 Q94.05 92.75 92.95 94.25 91.85 95.7 91.15 97.4 90.5 99.1 89.95 101.2 88.45 101.75 86.2 102.8 83.9 103.8 81.35 105.3 78.75 106.85 76.3 108.9 75.15 109.9 74.35 111.05 L73.0 112.9 72.0 113.55 Q68.55 112.7 65.85 110.9 L66.55 109.95 67.15 109.0 69.85 106.65 74.4 103.45 79.95 99.95 Q82.85 98.15 85.6 96.6 L90.4 93.9 Q92.5 92.8 93.5 92.4 L94.25 91.65 96.0 90.0 Q97.05 89.1 98.1 88.6 99.1 88.15 99.05 88.25 L98.45 88.8 97.3 89.85" fill="#0d5f3f" fill-rule="evenodd" stroke="none"/>
    <path d="M107.7 82.85 L112.15 82.55 116.1 82.45 Q117.0 84.55 116.95 86.9 L116.3 91.75 115.25 96.6 113.8 96.5 112.25 96.55 110.85 95.65 Q109.65 95.0 107.4 94.4 L102.15 93.65 100.75 93.35 Q100.55 93.05 100.85 92.6 L101.6 91.55 102.35 90.3 Q102.65 89.7 102.4 89.0 102.15 88.35 101.0 87.75 99.85 87.15 97.45 86.65 98.2 85.55 99.75 84.8 101.3 84.05 103.35 83.6 L107.7 82.85" fill="#0d5f3f" fill-rule="evenodd" stroke="none"/>
    <path d="M116.25 102.4 L116.65 101.15 Q116.75 100.6 116.4 100.2 116.05 99.8 114.95 99.4 L112.1 98.95 Q110.25 98.8 107.95 99.0 L103.05 99.85 Q100.55 100.5 98.15 101.65 95.75 102.8 93.75 104.55 92.1 106.05 91.35 107.6 90.6 109.15 90.75 110.45 90.9 111.75 91.95 112.5 L92.15 112.7 92.3 113.0 91.85 112.95 89.95 111.7 Q89.3 111.0 89.25 109.7 89.35 108.3 89.9 106.7 90.5 105.15 91.65 103.75 92.75 102.35 94.6 101.5 96.5 100.65 99.1 99.8 L104.55 98.4 110.05 97.65 114.7 98.0 115.35 97.9 114.5 97.25 114.7 97.25 Q115.6 97.4 116.4 97.8 117.25 98.25 117.65 99.1 118.05 100.0 117.65 101.55 L117.15 102.9 116.35 103.95 Q116.0 104.3 115.95 103.95 L116.25 102.4" fill="#0d6149" fill-rule="evenodd" stroke="none"/>
    <path d="M103.05 84.25 Q102.45 84.45 101.2 85.25 100.0 86.0 98.35 87.1 L94.95 89.3 91.4 91.25 Q89.05 92.4 86.75 92.4 84.4 92.35 82.4 90.65 80.4 89.0 79.1 85.2 L80.5 85.1 84.15 84.9 89.05 84.65 94.3 84.4 99.0 84.2 102.25 84.15 103.05 84.25" fill="#0d5f3f" fill-rule="evenodd" stroke="none"/>
    <path d="M137.7 119.7 Q138.7 121.55 138.9 123.25 139.15 124.9 138.65 126.1 138.2 127.3 137.15 127.65 L132.15 128.85 125.65 129.75 118.35 130.3 110.85 130.5 103.75 130.2 Q100.6 129.95 99.2 128.85 97.8 127.8 97.9 125.85 98.1 122.75 99.3 120.6 100.5 118.4 102.2 117.05 103.95 115.7 105.6 114.95 107.3 114.2 108.45 113.9 L109.6 113.65 108.3 113.05 104.95 111.6 100.45 109.95 Q98.1 109.15 97.05 108.0 95.95 106.8 96.0 105.6 96.0 104.35 97.0 103.45 98.65 102.1 100.7 101.35 102.8 100.65 104.95 100.35 L108.9 99.95 111.75 99.7 Q112.35 100.1 112.4 100.75 112.5 101.45 112.2 102.25 L111.55 103.75 117.95 106.15 Q121.6 107.55 125.9 109.95 130.15 112.3 134.7 116.15 136.65 117.85 137.7 119.7" fill="#86432c" fill-rule="evenodd" stroke="none"/>
    <path d="M138.15 123.05 Q138.4 124.55 137.95 125.55 137.55 126.6 136.5 126.95 L131.65 128.15 125.35 129.05 118.2 129.6 117.95 126.25 Q117.9 124.75 118.1 123.5 118.3 122.2 118.8 120.9 L118.8 120.5 118.45 120.8 Q117.8 121.65 117.5 123.05 117.15 124.4 117.1 126.1 L117.15 129.65 111.45 129.8 105.95 129.6 106.15 125.4 Q106.35 123.65 106.9 122.2 107.4 120.75 108.4 119.25 L108.45 118.85 Q108.3 118.8 107.9 119.1 106.85 120.05 106.2 121.7 105.55 123.3 105.3 125.35 105.0 127.4 104.95 129.55 L104.2 129.5 Q101.1 129.25 99.85 128.35 98.55 127.45 98.7 125.55 98.95 122.85 100.05 120.85 101.2 118.9 102.8 117.6 104.35 116.3 106.05 115.55 107.75 114.75 109.2 114.4 L111.4 113.9 111.95 113.85 114.75 113.65 117.45 113.75 119.25 114.05 119.85 114.1 119.7 113.9 119.35 113.7 116.45 113.3 113.3 113.15 110.3 113.35 107.75 112.3 104.45 110.95 100.95 109.55 Q98.4 108.6 97.5 107.4 96.55 106.2 96.85 105.1 97.1 103.95 98.15 103.1 99.95 101.6 102.4 100.85 104.8 100.15 107.3 99.9 L111.75 99.7 Q112.25 100.05 112.1 100.8 L111.6 102.4 110.95 103.7 108.85 103.25 107.25 103.05 106.6 102.95 106.5 102.75 105.75 102.55 Q105.15 102.65 105.0 102.9 104.9 103.2 105.6 103.25 L107.7 103.55 110.65 104.25 117.05 106.6 Q120.85 107.95 125.2 110.3 129.55 112.6 133.95 116.45 135.85 118.15 136.85 119.85 137.9 121.55 138.15 123.05" fill="#ffcf2e" fill-rule="evenodd" stroke="none"/>
    <path d="M104.2 129.45 Q101.9 129.3 100.6 128.75 99.3 128.2 98.9 127.2 100.0 128.2 101.6 128.3 103.2 128.4 105.05 127.25 L104.95 129.5 104.2 129.45" fill="#d9810d" fill-rule="evenodd" stroke="none"/>
    <path d="M117.05 127.15 L117.15 129.65 111.45 129.75 105.95 129.6 106.0 127.6 Q106.6 128.2 107.8 128.5 L110.45 128.85 113.3 128.75 115.75 128.15 Q116.75 127.75 117.05 127.15" fill="#d9810d" fill-rule="evenodd" stroke="none"/>
    <path d="M138.15 123.05 Q138.4 124.55 138.0 125.55 137.55 126.6 136.55 126.95 L131.65 128.15 125.4 129.05 118.2 129.6 118.05 127.85 Q119.4 128.5 121.45 128.5 L125.75 128.1 130.0 127.3 133.25 126.6 Q135.05 126.3 136.05 125.65 137.05 124.95 136.8 123.4 136.55 121.85 134.7 118.9 133.7 117.45 131.6 115.85 129.55 114.25 126.8 112.65 L121.05 109.65 Q118.1 108.2 115.25 107.05 112.45 105.9 110.2 105.1 L106.75 104.1 103.35 103.85 100.35 104.45 Q98.95 104.9 98.2 105.65 97.4 106.4 97.4 107.3 96.6 106.15 96.85 105.0 97.15 103.9 98.15 103.1 100.0 101.6 102.4 100.85 104.8 100.15 107.3 99.9 L111.75 99.7 Q112.25 100.05 112.1 100.8 L111.6 102.4 110.95 103.7 108.85 103.25 107.25 103.05 106.6 102.95 106.5 102.75 105.8 102.55 Q105.15 102.65 105.0 102.9 104.9 103.2 105.6 103.25 L107.7 103.55 110.7 104.25 117.1 106.6 Q120.85 107.95 125.2 110.3 129.55 112.6 134.0 116.45 135.85 118.15 136.9 119.85 137.9 121.55 138.15 123.05" fill="#d9810d" fill-rule="evenodd" stroke="none"/>
    <path d="M118.1 53.2 Q118.05 54.7 117.6 56.2 117.15 57.75 116.5 58.75 115.25 60.75 113.25 62.05 111.3 63.4 108.5 63.85 110.25 66.5 111.7 69.5 113.1 72.45 114.0 75.45 114.9 78.45 115.0 81.05 112.1 80.95 109.1 81.9 106.15 82.85 103.15 84.35 L97.15 87.4 Q94.1 88.95 91.1 90.0 87.1 91.35 84.1 90.6 81.1 89.85 79.15 87.1 77.2 84.4 76.25 79.95 76.1 78.75 75.1 78.6 74.15 78.5 72.95 78.95 L70.85 79.9 69.9 80.45 Q69.9 80.45 69.1 80.0 L67.05 78.75 64.55 76.75 62.2 74.2 Q61.2 72.75 60.8 71.1 60.65 70.5 60.9 70.2 L61.75 69.55 64.5 67.9 67.3 65.5 Q68.6 64.1 69.45 62.15 70.35 60.2 70.5 57.55 70.6 56.2 71.75 55.0 72.85 53.85 74.65 52.85 76.45 51.9 78.65 51.15 80.8 50.35 83.05 49.85 L87.2 49.0 90.45 48.6 Q93.5 48.45 96.9 48.55 L103.6 48.8 109.95 49.2 115.3 49.5 Q116.85 49.6 117.5 50.65 118.1 51.7 118.1 53.2" fill="#1b2e54" fill-rule="evenodd" stroke="none"/>
    <path d="M114.7 50.1 Q116.25 50.1 116.8 50.85 117.35 51.55 117.4 52.85 L117.25 53.3 Q117.05 53.35 117.05 53.0 117.05 52.3 116.7 51.75 L115.75 50.95 114.4 51.0 Q112.25 51.85 110.6 54.1 109.0 56.35 108.2 60.0 L108.0 61.1 107.9 62.25 108.1 63.05 108.85 63.2 110.05 62.85 Q110.2 62.85 110.2 62.95 L110.05 63.1 Q108.35 63.85 107.55 63.35 106.15 61.8 104.55 60.75 102.95 59.7 101.4 58.95 L98.6 57.7 98.35 58.0 100.7 59.25 Q102.15 59.95 103.8 61.0 105.45 62.05 106.9 63.6 L107.7 64.1 108.05 64.1 111.0 69.1 Q112.25 71.65 112.7 74.4 113.1 77.2 112.35 80.5 109.5 80.4 107.0 81.3 104.5 82.25 102.05 83.65 L97.05 86.6 Q94.5 88.05 91.6 89.1 87.7 90.45 84.9 89.95 82.15 89.45 80.3 87.15 78.5 84.85 77.45 80.85 L77.05 77.85 76.7 75.7 76.55 74.9 75.95 75.55 74.45 77.0 72.6 78.7 70.95 80.05 Q70.2 80.55 69.9 80.35 L68.25 78.9 66.05 76.6 63.85 74.05 62.05 71.95 61.85 71.1 61.95 70.75 62.35 70.45 65.4 68.2 68.3 65.35 Q69.65 63.75 70.5 61.95 71.35 60.15 71.4 58.15 71.4 56.55 72.85 55.25 74.25 53.9 76.45 52.9 78.7 51.9 81.25 51.15 L86.1 50.0 89.95 49.45 96.65 49.25 103.3 49.45 109.5 49.85 114.7 50.1" fill="#ffffe6" fill-rule="evenodd" stroke="none"/>
    <path d="M119.6 55.95 L122.85 57.35 Q124.2 58.0 124.85 58.8 125.55 59.6 125.7 60.5 125.9 61.45 125.7 62.45 L124.9 65.95 Q124.3 68.1 122.95 70.9 121.65 73.65 119.35 76.9 L117.9 76.1 115.7 74.95 113.35 73.85 111.45 72.95 110.7 72.6 112.65 70.45 114.95 67.35 117.2 63.75 Q116.05 62.85 114.6 62.2 L111.8 61.1 109.5 60.5 108.55 60.3 109.0 58.65 109.95 56.2 Q110.6 54.9 111.6 53.85 113.55 54.1 115.6 54.7 L119.6 55.95" fill="#86432c" fill-rule="evenodd" stroke="none"/>
    <path d="M119.2 56.45 L122.45 57.85 124.35 59.15 125.1 60.75 125.05 62.55 124.4 65.75 Q123.85 67.65 122.55 70.35 121.25 73.0 118.85 76.5 L117.1 75.5 114.55 74.25 112.3 73.15 111.35 72.7 113.3 70.45 115.7 67.2 117.95 63.6 119.05 62.05 120.1 61.2 120.4 60.95 120.15 60.9 119.8 60.95 118.6 61.85 117.45 63.25 113.65 61.3 110.45 60.25 108.65 59.85 109.15 58.25 110.0 56.2 Q110.5 55.1 111.25 54.2 L115.25 55.1 Q117.3 55.7 119.2 56.45" fill="#ffcf2e" fill-rule="evenodd" stroke="none"/>
    <path d="M115.1 55.05 L114.1 56.25 Q113.65 56.95 113.5 57.7 113.3 58.45 113.4 59.05 L115.4 60.15 117.3 61.15 118.65 61.75 117.45 63.25 113.65 61.3 110.45 60.25 108.65 59.85 109.15 58.25 110.0 56.2 Q110.5 55.1 111.25 54.2 L115.1 55.05" fill="#d9810d" fill-rule="evenodd" stroke="none"/>
    <path d="M125.1 60.7 L125.1 62.5 124.55 65.3 123.1 69.2 120.3 74.3 118.05 73.0 118.85 71.95 120.65 69.25 122.7 65.5 124.05 62.45 Q124.55 61.1 124.3 60.0 124.05 58.85 122.55 57.85 123.8 58.45 124.4 59.15 124.95 59.85 125.1 60.7" fill="#d9810d" fill-rule="evenodd" stroke="none"/>
    <path d="M114.7 50.1 Q116.3 50.1 116.85 50.85 117.4 51.55 117.45 52.85 L117.25 53.3 Q117.1 53.35 117.05 53.0 117.05 52.3 116.7 51.75 L115.8 50.95 114.45 51.0 Q112.25 51.85 110.65 54.1 109.0 56.35 108.2 60.0 L108.0 61.1 107.9 62.25 Q107.95 62.75 108.15 63.05 L108.85 63.2 110.1 62.85 110.2 62.95 110.1 63.1 Q108.4 63.85 107.55 63.35 L104.6 60.75 Q103.0 59.7 101.45 58.95 L98.65 57.7 98.4 58.0 100.75 59.25 Q102.2 59.95 103.85 61.0 105.45 62.05 106.95 63.6 107.4 64.05 107.75 64.1 L108.1 64.1 111.05 69.1 Q112.3 71.65 112.7 74.4 113.15 77.2 112.35 80.5 L110.85 80.5 109.95 76.35 108.5 71.45 Q107.6 68.9 106.35 66.6 105.15 64.35 103.55 62.7 L100.25 59.65 Q98.8 58.45 97.95 58.05 L97.05 57.3 Q96.95 57.0 97.65 57.1 L99.75 57.45 102.25 57.95 Q103.5 58.25 104.55 58.8 105.6 59.35 106.1 60.3 L106.8 61.2 107.05 60.75 Q107.0 58.35 107.95 56.25 108.9 54.15 110.25 52.75 111.65 51.3 112.95 50.85 L106.3 50.8 99.7 50.7 96.3 51.05 Q94.95 51.4 94.45 51.65 L95.5 54.1 96.4 57.7 Q96.7 59.65 96.25 61.4 95.85 63.2 94.2 64.3 92.6 65.45 89.35 65.4 87.2 69.5 85.35 71.75 83.55 73.95 82.0 74.75 80.5 75.5 79.25 75.15 78.05 74.85 77.05 73.8 L75.4 71.4 74.15 68.75 73.85 67.75 73.2 65.3 72.6 62.35 Q72.35 60.9 72.4 59.95 72.5 59.25 73.75 57.85 75.0 56.45 77.0 54.7 L81.2 51.2 Q83.75 50.45 86.05 50.0 L89.95 49.45 96.65 49.25 103.35 49.45 109.5 49.85 114.7 50.1" fill="#b8d2bf" fill-rule="evenodd" stroke="none"/>
    <path d="M74.3 72.05 L73.4 71.05 72.15 70.05 71.1 69.35 Q70.4 69.0 70.4 68.7 70.45 68.4 71.25 68.25 71.85 68.15 72.35 67.7 L73.2 66.8 73.5 66.35 77.35 76.85 76.95 77.15 76.65 75.5 76.55 74.9 76.05 75.4 74.85 76.6 73.25 78.15 71.45 77.75 70.65 77.5 70.95 77.1 71.65 76.05 72.25 74.9 Q72.45 74.35 72.25 74.0 71.95 73.6 72.15 73.4 72.4 73.15 72.95 73.0 L74.15 72.7 Q74.55 72.55 74.3 72.05" fill="#b8d2bf" fill-rule="evenodd" stroke="none"/>
    <path d="M112.0 92.15 Q111.65 93.3 110.85 93.85 110.05 94.4 109.15 94.35 108.25 94.35 107.55 93.8 106.9 93.3 106.25 92.95 L104.7 91.95 102.35 90.3 Q100.9 89.15 100.4 88.1 99.9 87.0 100.0 86.05 100.15 85.1 100.6 84.35 101.2 83.45 102.45 83.3 L105.2 83.65 Q106.7 84.15 108.2 85.0 L110.7 86.95 Q111.7 88.05 112.0 89.15 112.35 91.0 112.0 92.15" fill="#1d3f60" fill-rule="evenodd" stroke="none"/>
    <path d="M111.15 89.05 Q111.55 90.65 111.25 91.6 111.0 92.6 110.35 93.1 109.7 93.55 108.95 93.5 108.15 93.5 107.5 93.05 L106.4 92.35 105.1 91.5 103.0 90.1 Q101.75 89.15 101.2 88.2 100.65 87.25 100.7 86.45 100.75 85.6 101.15 85.0 101.65 84.2 102.75 84.1 L105.15 84.4 Q106.5 84.8 107.8 85.55 109.1 86.3 110.0 87.2 110.9 88.15 111.15 89.05" fill="#b8d2ca" fill-rule="evenodd" stroke="none"/>
    <path d="M108.1 92.65 L106.45 92.15 104.75 90.95 103.05 89.65 102.25 89.0 Q102.95 87.6 103.55 87.55 104.1 87.5 104.9 88.3 L106.2 89.35 108.0 90.6 109.6 91.75 110.3 92.35 Q110.25 92.55 109.6 92.65 L108.1 92.65" fill="#ffffff" fill-rule="evenodd" stroke="none"/>
    <path d="M122.1 75.3 Q122.65 76.75 122.5 78.05 122.3 79.3 121.6 80.0 120.95 80.55 119.35 80.4 L115.75 79.6 111.8 78.1 Q109.9 77.25 108.6 76.3 107.3 75.35 107.1 74.6 106.95 73.55 107.5 72.6 108.1 71.6 109.3 70.9 110.55 70.2 112.35 70.1 L116.5 70.6 Q118.85 71.35 120.2 72.6 121.55 73.85 122.1 75.3" fill="#1d3f60" fill-rule="evenodd" stroke="none"/>
    <path d="M121.45 75.35 Q121.95 76.65 121.8 77.75 121.65 78.9 120.95 79.5 120.4 80.0 118.95 79.85 L115.65 79.15 112.0 77.8 Q110.25 77.0 109.05 76.15 107.85 75.35 107.7 74.65 107.5 73.4 108.5 72.3 109.5 71.25 111.5 70.8 L116.35 71.15 Q118.45 71.8 119.7 72.95 120.95 74.05 121.45 75.35" fill="#ffffff" fill-rule="evenodd" stroke="none"/>
    <path d="M119.85 73.05 Q121.0 74.15 121.45 75.45 121.95 76.7 121.75 77.8 121.6 78.9 120.95 79.5 120.4 79.95 118.95 79.85 L115.65 79.1 112.0 77.75 Q110.25 76.95 109.05 76.15 107.85 75.3 107.7 74.65 107.55 73.6 108.2 72.7 108.25 73.6 109.3 74.15 110.35 74.75 112.05 75.2 L115.65 76.2 118.9 76.45 Q120.15 76.15 120.45 75.2 120.8 74.3 119.85 73.05" fill="#b8d2ca" fill-rule="evenodd" stroke="none"/>
    <path d="M87.9 50.75 Q89.9 52.5 90.5 54.25 91.1 56.05 90.75 57.7 L89.7 60.8 88.2 63.4 Q87.85 63.85 87.25 63.8 86.7 63.7 86.25 63.2 L84.1 60.9 Q82.95 59.85 81.9 59.1 L80.2 57.9 79.5 57.5 78.8 56.35 77.35 53.65 Q76.5 52.05 76.0 50.45 75.5 48.8 75.75 47.65 76.0 46.45 77.5 46.3 78.95 46.1 82.15 47.4 85.95 49.0 87.9 50.75" fill="#1d3f60" fill-rule="evenodd" stroke="none"/>
    <path d="M87.55 51.25 Q89.25 52.8 89.75 54.35 90.25 55.95 89.95 57.45 89.65 58.95 89.0 60.25 L87.8 62.6 87.4 63.0 Q87.1 63.1 86.7 62.65 L84.75 60.6 82.6 58.85 80.85 57.6 80.15 57.15 79.55 56.15 78.25 53.8 Q77.5 52.4 77.05 50.95 76.6 49.5 76.85 48.45 77.05 47.45 78.4 47.3 79.7 47.15 82.5 48.25 85.85 49.7 87.55 51.25" fill="#b8d2ca" fill-rule="evenodd" stroke="none"/>
    <path d="M83.55 61.8 Q84.1 62.25 84.1 62.75 L84.0 63.5 83.45 64.15 82.3 64.35 Q81.5 64.25 81.3 63.65 81.05 63.05 81.25 62.4 81.5 61.8 82.1 61.6 L83.55 61.8" fill="#4b658e" fill-rule="evenodd" stroke="none"/>
    <path d="M83.35 62.1 Q83.75 62.4 83.75 62.8 L83.5 63.65 Q83.25 64.05 82.35 64.0 81.8 63.95 81.6 63.5 81.45 63.05 81.6 62.55 81.75 62.1 82.2 61.95 L83.35 62.1" fill="#b8d2bf" fill-rule="evenodd" stroke="none"/>
    <path d="M87.4 70.15 Q87.9 70.55 87.9 71.05 L87.8 71.8 87.3 72.4 86.15 72.6 Q85.4 72.5 85.2 71.95 84.95 71.35 85.15 70.75 85.35 70.1 85.95 69.95 L87.4 70.15" fill="#7081a0" fill-rule="evenodd" stroke="none"/>
    <path d="M87.2 70.45 L87.6 71.15 87.35 71.95 Q87.1 72.35 86.25 72.3 L85.5 71.8 Q85.35 71.35 85.5 70.9 85.65 70.45 86.1 70.3 L87.2 70.45" fill="#ffffe6" fill-rule="evenodd" stroke="none"/>
    <path d="M91.05 76.2 L91.8 76.75 92.05 77.45 91.95 78.25 91.35 78.95 90.1 79.2 Q89.25 79.1 89.0 78.4 88.75 77.75 89.0 77.1 89.2 76.4 89.85 76.2 90.55 76.05 91.05 76.2" fill="#7081a0" fill-rule="evenodd" stroke="none"/>
    <path d="M91.25 76.7 Q91.65 77.05 91.7 77.5 91.75 77.95 91.45 78.4 91.15 78.85 90.2 78.8 89.55 78.7 89.35 78.2 89.15 77.75 89.35 77.2 89.55 76.7 90.0 76.55 L91.25 76.7" fill="#ffffe6" fill-rule="evenodd" stroke="none"/>
    <path d="M77.9 56.3 L79.35 58.1 79.9 58.85 79.2 60.65 78.55 63.05 78.0 65.3 Q77.85 65.95 77.4 66.1 L76.45 65.85 73.65 62.35 Q72.4 60.4 71.6 58.45 70.75 56.5 70.55 54.75 70.35 53.05 70.9 51.8 71.25 51.05 72.05 51.2 L73.85 52.2 75.95 54.1 77.9 56.3" fill="#1d3f60" fill-rule="evenodd" stroke="none"/>
    <path d="M79.4 58.75 L78.4 61.3 77.5 64.8 77.05 65.2 76.35 64.9 74.15 62.05 72.3 58.65 Q71.5 56.9 71.2 55.3 70.9 53.7 71.4 52.65 71.8 51.85 72.7 52.2 73.65 52.55 74.75 53.55 L76.95 55.8 78.7 57.85 79.4 58.75" fill="#b8d2ca" fill-rule="evenodd" stroke="none"/>
    <path d="M80.1 60.5 Q80.4 62.05 81.3 64.6 L83.45 70.3 86.35 76.7 Q87.95 80.05 89.7 83.15 91.45 86.25 93.3 88.75 L92.85 88.75 Q91.0 86.25 89.25 83.15 87.5 80.05 85.9 76.7 L83.0 70.3 80.85 64.6 Q79.95 62.05 79.65 60.5 L80.1 60.5" fill="#1d3f60" fill-rule="evenodd" stroke="none"/>
    <path d="M74.9 69.85 L76.9 74.85 Q77.75 76.9 77.9 78.25 78.05 79.65 77.85 80.5 L77.6 81.9 77.1 81.8 77.2 80.15 76.9 77.65 76.05 74.75 74.7 71.25 73.7 67.7 72.8 63.7 72.8 63.15 Q72.85 62.9 73.0 62.9 L73.25 63.55 Q73.9 67.0 74.9 69.85" fill="#1d3f60" fill-rule="evenodd" stroke="none"/>
    <path d="M211.55 110.2 L215.8 111.15 Q217.65 111.7 218.65 112.2 L217.65 115.1 Q216.7 114.55 215.05 113.95 L211.1 112.85 206.15 112.4 Q203.5 112.45 200.5 113.2 L196.85 113.9 192.1 114.45 187.3 114.55 183.5 113.95 Q182.0 113.45 181.75 112.4 181.4 110.7 180.4 110.15 L177.9 109.95 Q176.4 110.25 174.85 111.0 173.25 111.75 171.85 112.65 L169.45 114.15 171.2 108.45 Q172.2 107.85 173.7 107.2 175.2 106.5 176.95 106.1 L180.3 105.75 Q181.95 105.85 183.15 106.75 184.35 107.6 184.8 109.6 185.05 110.6 186.3 111.1 L189.5 111.65 193.6 111.55 197.75 111.0 201.15 110.4 206.5 109.85 211.55 110.2" fill="#66512f" fill-rule="evenodd" stroke="none"/>
    <path d="M211.3 110.75 L215.5 111.6 Q217.35 112.15 218.3 112.7 L217.85 114.3 215.15 113.2 211.2 112.25 206.25 111.95 200.6 112.75 196.95 113.45 192.3 114.0 187.6 114.05 183.9 113.45 Q182.4 112.95 182.15 111.9 181.8 110.25 180.75 109.7 L178.3 109.4 Q176.85 109.6 175.3 110.25 173.75 110.95 172.35 111.75 L170.0 113.15 171.05 109.1 Q172.0 108.45 173.5 107.8 L176.7 106.6 180.0 106.25 Q181.6 106.3 182.75 107.15 183.95 108.0 184.4 109.95 184.65 111.0 185.95 111.5 L189.15 112.05 193.3 112.0 197.45 111.55 200.9 110.9 206.25 110.35 211.3 110.75" fill="#bcab6f" fill-rule="evenodd" stroke="none"/>
    <path d="M218.05 113.45 L217.85 114.25 215.15 113.15 211.2 112.2 206.25 111.9 Q203.55 112.0 200.6 112.75 L196.95 113.45 192.3 113.95 187.6 114.05 183.9 113.45 Q182.4 112.9 182.15 111.85 181.75 110.15 180.65 109.65 L177.95 109.4 Q176.4 109.7 174.8 110.45 173.15 111.2 171.75 112.05 L174.25 107.45 175.0 107.15 175.9 108.0 Q176.25 108.45 176.25 109.0 179.25 107.95 181.1 108.55 182.95 109.2 183.2 111.05 183.4 112.8 185.35 113.25 L190.95 113.55 196.7 112.95 202.2 112.0 207.1 111.3 210.85 111.4 214.5 112.3 217.1 113.1 218.05 113.45" fill="#8c794d" fill-rule="evenodd" stroke="none"/>
    <path d="M182.5 108.05 L181.1 106.95 Q180.2 106.4 178.55 106.3 L181.15 106.4 Q182.35 106.65 183.2 107.5 184.05 108.35 184.4 110.0 L184.45 110.15 183.9 110.0 183.3 109.15 182.5 108.05" fill="#efde8d" fill-rule="evenodd" stroke="none"/>
    <path d="M145.35 115.7 Q141.05 113.85 137.55 111.05 134.1 108.25 131.15 105.0 L125.65 98.6 Q123.0 95.4 120.4 92.9 117.65 90.3 115.0 88.85 112.4 87.45 109.95 86.95 L105.3 86.4 101.15 86.7 97.6 87.15 91.9 87.75 85.45 88.1 77.15 87.85 70.7 87.55 64.65 87.4 58.45 87.05 59.75 72.6 65.95 73.65 72.15 75.05 78.75 76.45 84.9 77.4 89.7 77.85 93.8 77.95 97.8 78.0 102.9 78.0 109.6 78.6 Q113.25 79.15 117.05 80.75 120.85 82.3 124.5 85.45 126.85 87.6 129.1 90.55 L133.75 96.75 138.85 103.05 Q141.55 106.1 144.85 108.4 148.15 110.7 152.25 111.75 L161.4 112.15 Q160.05 111.5 159.3 110.25 158.55 108.95 158.45 107.35 158.35 105.7 158.8 104.0 159.3 102.35 160.35 100.9 162.05 98.7 164.15 97.7 166.2 96.7 168.25 96.85 170.3 97.0 171.95 98.2 173.5 99.35 174.35 101.25 175.15 103.1 175.05 105.4 174.95 107.7 173.75 110.0 172.55 112.35 170.1 114.35 168.3 115.8 165.75 116.55 163.15 117.35 160.35 117.65 L155.1 117.8 Q149.7 117.5 145.35 115.7 M166.1 103.25 Q165.4 103.5 164.85 104.3 164.4 105.05 164.25 106.0 164.05 106.9 164.2 107.75 164.35 108.6 164.9 109.1 165.45 109.65 166.4 109.5 167.1 109.25 167.6 108.35 L168.25 106.4 Q168.45 105.35 168.2 104.45 168.0 103.55 167.3 103.2 L166.1 103.25" fill="#62502c" fill-rule="evenodd" stroke="none"/>
    <path d="M156.2 113.1 L162.55 112.45 Q165.35 111.7 167.1 110.05 168.8 108.45 169.05 105.8 169.15 104.25 168.6 103.45 168.1 102.6 167.25 102.5 166.4 102.35 165.5 102.85 164.65 103.35 164.1 104.45 163.75 105.2 163.55 106.15 163.4 107.1 163.55 108.0 163.7 108.9 164.3 109.5 164.9 110.1 166.1 110.15 L164.9 110.8 163.75 111.35 162.3 111.85 Q161.05 111.5 160.35 110.5 159.65 109.5 159.4 108.2 159.15 106.85 159.3 105.5 159.5 104.1 160.0 103.0 160.75 101.4 162.05 100.15 163.35 98.85 164.95 98.2 166.6 97.5 168.35 97.65 170.1 97.8 171.85 99.1 173.1 100.0 173.75 101.65 174.45 103.35 174.35 105.45 174.25 107.55 173.1 109.75 172.0 112.0 169.55 114.0 167.75 115.45 165.3 116.15 L160.2 117.15 155.1 117.25 Q150.6 117.0 146.85 115.65 143.1 114.3 140.05 112.15 136.95 110.0 134.3 107.4 L129.35 102.05 124.9 96.7 120.55 92.0 Q117.8 89.4 115.2 88.05 112.6 86.7 110.2 86.25 L105.6 85.9 101.45 86.25 97.9 86.6 92.1 86.95 85.6 87.3 78.15 87.3 74.35 87.1 71.05 87.0 67.55 86.85 63.3 86.6 57.6 86.25 59.25 73.3 65.6 74.35 71.95 75.65 78.65 77.0 84.75 78.05 89.5 78.5 93.55 78.65 97.65 78.6 102.75 78.55 109.3 79.1 Q112.9 79.65 116.65 81.25 120.4 82.85 124.0 86.0 L128.55 90.9 132.85 96.55 137.3 102.3 Q139.65 105.1 142.4 107.45 145.2 109.75 148.55 111.25 151.95 112.75 156.2 113.1" fill="#bcab6f" fill-rule="evenodd" stroke="none"/>
    <path d="M155.15 117.25 Q150.6 117.0 146.9 115.65 143.15 114.3 140.05 112.15 136.95 110.05 134.35 107.4 131.7 104.8 129.4 102.05 L124.95 96.7 120.6 92.0 Q117.85 89.4 115.25 88.05 112.6 86.7 110.2 86.25 L105.6 85.9 101.5 86.25 97.9 86.6 92.15 86.95 85.6 87.35 78.15 87.3 74.45 87.15 71.2 87.0 67.85 86.9 63.75 86.65 58.3 86.3 62.1 74.0 64.15 76.4 65.75 78.2 67.0 79.95 77.65 81.75 87.4 82.6 95.5 82.8 101.1 82.65 103.4 82.55 Q104.3 81.4 104.35 80.45 L104.15 78.9 103.85 78.3 105.2 78.8 108.55 80.05 113.15 81.85 118.1 83.85 122.5 85.8 Q124.45 86.75 125.55 87.45 L126.55 88.55 127.05 91.15 127.25 93.8 127.0 95.6 Q129.3 98.9 132.1 102.2 134.9 105.5 138.3 108.35 141.75 111.2 145.85 113.1 149.95 115.05 154.8 115.55 L160.05 115.7 165.3 114.95 Q167.85 114.25 169.9 112.9 171.95 111.5 173.1 109.2 174.3 106.95 174.3 103.6 174.55 105.2 174.15 106.95 173.8 108.75 172.7 110.55 171.55 112.4 169.55 114.05 167.75 115.45 165.35 116.2 L160.25 117.15 155.15 117.25" fill="#8c794d" fill-rule="evenodd" stroke="none"/>
    <path d="M168.6 102.55 Q169.05 103.4 169.05 104.65 168.8 103.2 167.9 102.7 166.95 102.25 165.9 102.7 164.8 103.15 164.15 104.45 163.8 105.2 163.6 106.15 163.45 107.1 163.6 108.0 163.75 108.9 164.35 109.5 164.95 110.1 166.15 110.15 L164.85 110.9 163.55 111.45 162.9 110.05 Q162.5 109.2 162.25 108.05 L162.2 106.65 162.5 104.65 Q162.8 103.6 163.45 102.7 164.1 101.8 165.25 101.35 L167.25 101.3 Q168.1 101.65 168.6 102.55" fill="#8c794d" fill-rule="evenodd" stroke="none"/>
    <path d="M173.15 102.45 Q173.1 105.5 171.3 107.75 169.5 110.0 166.25 111.35 L162.0 112.6 Q164.9 111.95 166.8 110.4 168.65 108.85 169.05 106.3 169.55 104.95 169.65 103.65 169.8 102.35 169.45 101.25 169.0 100.0 168.0 99.5 L165.7 99.25 Q164.4 99.4 163.1 100.0 L160.9 101.55 Q162.15 99.8 163.95 98.75 165.7 97.7 167.8 97.65 169.85 97.65 171.9 99.1 L172.4 99.5 173.0 100.9 173.15 102.45" fill="#efde8d" fill-rule="evenodd" stroke="none"/>
    <path d="M104.25 78.6 Q104.35 79.15 103.8 79.6 103.25 80.05 101.55 80.15 L97.7 80.25 90.6 80.0 80.8 79.1 69.0 77.2 65.95 76.25 63.9 75.0 62.4 73.8 70.35 75.35 78.7 77.05 84.8 78.05 89.5 78.55 93.55 78.65 97.65 78.65 100.6 78.55 104.25 78.6" fill="#efde8d" fill-rule="evenodd" stroke="none"/>
    <path d="M92.15 86.25 L98.1 86.2 102.05 86.1 101.95 86.1 97.95 86.5 92.15 86.85 85.65 87.25 78.2 87.2 73.75 87.0 69.85 86.9 69.3 86.15 69.1 85.85 72.7 86.05 78.4 86.15 85.25 86.25 92.15 86.25" fill="#ab9856" fill-rule="evenodd" stroke="none"/>
    <path d="M123.6 93.3 Q122.2 94.6 120.9 94.4 119.55 94.25 118.3 93.15 117.6 93.95 116.55 94.15 L114.35 94.1 Q113.2 93.85 112.4 93.1 111.55 92.35 111.4 91.2 110.2 92.05 108.85 92.1 107.55 92.15 106.35 91.5 105.2 90.9 104.5 89.75 103.75 88.6 103.75 87.05 L104.0 85.85 104.5 83.9 104.9 82.0 105.15 80.9 Q105.55 79.7 105.2 79.1 104.85 78.45 103.9 78.25 L102.5 78.1 101.55 78.05 Q103.15 76.2 104.95 75.2 106.75 74.2 109.15 73.85 L113.1 74.2 Q115.25 74.85 117.4 76.05 119.5 77.2 121.35 78.55 L124.4 81.05 Q126.65 83.1 127.15 85.0 127.6 86.9 126.6 88.9 125.05 92.05 123.6 93.3" fill="#1d3f60" fill-rule="evenodd" stroke="none"/>
    <path d="M124.95 82.65 L126.1 84.65 Q126.45 85.55 126.45 86.4 126.45 87.3 126.05 88.4 124.85 91.3 123.45 92.6 122.05 93.9 120.75 93.85 119.5 93.8 118.7 92.75 L120.6 89.5 121.5 87.1 121.75 86.15 Q121.7 86.1 122.4 85.8 L122.65 85.5 Q122.55 85.35 122.35 85.3 L121.7 85.2 Q121.35 85.2 121.2 85.7 L120.75 87.35 119.6 90.0 117.95 92.55 Q117.2 93.35 116.25 93.55 L114.3 93.4 112.7 92.4 Q112.05 91.75 112.0 90.95 L112.05 90.85 112.9 88.9 113.75 86.45 114.45 84.25 114.8 82.9 115.05 82.6 115.35 82.25 115.4 81.95 114.7 81.9 Q114.25 82.0 114.15 82.5 L113.8 83.85 113.1 86.25 112.3 88.7 111.7 90.05 Q111.05 90.95 109.85 91.2 L107.4 91.0 Q106.1 90.6 105.25 89.65 104.4 88.65 104.4 87.05 L104.65 85.95 105.0 84.05 105.4 82.05 105.65 80.65 105.7 78.6 Q105.6 78.0 105.25 77.95 L104.2 78.0 102.45 78.05 Q102.95 77.2 104.0 76.45 105.05 75.7 106.45 75.15 L109.4 74.5 Q111.6 74.35 114.05 75.25 116.5 76.1 118.8 77.5 121.05 78.9 122.7 80.35 L124.95 82.65" fill="#ffffff" fill-rule="evenodd" stroke="none"/>
    <path d="M125.5 83.4 Q126.3 84.7 126.45 85.8 126.6 86.9 126.05 88.3 124.9 91.25 123.45 92.55 122.05 93.8 120.8 93.75 119.5 93.7 118.75 92.65 119.95 90.95 120.6 89.45 L121.5 87.0 121.75 86.05 Q121.75 86.0 122.45 85.75 122.75 85.6 122.65 85.45 L122.35 85.2 121.75 85.15 Q121.35 85.1 121.25 85.65 L120.75 87.3 119.6 89.9 117.95 92.5 Q117.25 93.3 116.25 93.45 L114.35 93.3 Q113.35 93.0 112.75 92.35 112.1 91.7 112.05 90.85 L112.1 90.75 112.9 88.8 113.8 86.4 114.45 84.2 114.85 82.85 115.05 82.5 115.4 82.2 115.4 81.9 114.75 81.8 Q114.3 81.95 114.15 82.45 L113.8 83.8 113.1 86.2 112.35 88.6 111.7 90.0 Q111.05 90.9 109.9 91.1 L107.4 90.95 Q106.15 90.55 105.3 89.55 104.4 88.6 104.4 87.0 L104.45 86.75 Q105.05 88.05 106.2 88.8 107.4 89.55 108.7 89.6 109.95 89.65 110.75 88.85 111.65 87.85 112.15 86.65 L113.0 84.25 113.75 82.15 Q114.2 81.25 114.8 81.15 L115.9 81.2 116.65 81.65 Q116.8 81.85 116.35 82.2 L115.3 83.15 Q114.75 83.7 114.6 84.4 L114.2 85.9 113.6 87.9 113.0 89.7 112.7 90.75 Q113.3 91.75 114.3 92.2 L116.25 92.4 Q117.25 92.2 117.95 91.1 L119.7 87.8 120.85 85.0 Q121.05 84.5 121.5 84.4 L122.4 84.45 123.1 84.9 Q123.35 85.2 123.1 85.5 122.05 86.6 121.2 88.95 L120.4 91.0 119.75 92.2 Q119.6 92.45 119.95 92.7 L121.0 92.95 Q121.65 92.95 122.4 92.55 L123.6 91.5 124.9 89.45 Q125.55 88.25 125.75 86.7 126.0 85.15 125.5 83.4" fill="#b8d2ca" fill-rule="evenodd" stroke="none"/>
    <path d="M85.35 21.3 Q86.55 26.5 87.05 30.95 L87.6 38.75 87.55 43.95 87.4 45.85 49.65 57.4 48.7 56.05 46.3 52.35 43.3 47.2 40.5 41.25 Q38.8 37.0 38.8 32.6 38.8 28.2 40.45 24.2 42.1 20.2 45.35 17.1 48.6 14.0 53.4 12.35 53.0 11.6 52.25 11.1 51.5 10.65 49.95 10.55 L45.75 10.95 45.4 10.9 45.6 10.7 46.15 10.5 46.75 10.25 47.0 10.15 45.95 10.25 44.65 10.45 44.25 10.35 44.45 10.15 47.7 8.7 Q48.85 8.0 49.25 7.3 L49.6 5.85 53.05 5.95 Q54.65 6.55 55.75 7.85 56.8 9.2 57.1 10.85 57.95 9.6 57.9 8.05 57.85 6.5 56.65 5.05 55.5 3.55 53.0 2.55 L52.6 2.3 Q52.45 2.15 52.9 2.15 L53.75 2.25 54.4 2.35 52.0 1.4 49.6 0.45 49.25 0.1 49.85 0.05 54.3 0.6 58.05 0.7 61.3 0.9 Q62.6 1.15 63.45 2.0 64.35 2.9 64.65 4.2 64.95 5.45 64.55 6.85 64.15 8.25 62.95 9.45 L70.8 9.15 Q74.55 9.65 77.55 11.25 80.55 12.85 82.55 15.45 84.6 18.0 85.35 21.3" fill="#86432c" fill-rule="evenodd" stroke="none"/>
    <path d="M81.85 15.75 Q83.95 18.3 84.65 21.55 85.65 26.05 86.1 30.15 L86.75 37.55 86.95 42.7 86.9 44.6 49.9 56.15 48.95 54.85 46.65 51.35 43.75 46.35 Q42.2 43.6 41.0 40.7 39.35 36.65 39.45 32.45 39.55 28.3 41.3 24.45 43.0 20.6 46.2 17.6 49.4 14.6 53.95 12.95 L54.75 14.15 54.65 13.55 54.4 12.8 53.05 11.1 Q52.2 10.45 50.95 10.2 L47.65 10.1 49.65 9.6 52.1 9.25 Q51.25 9.1 50.0 9.25 L47.55 9.6 45.75 10.0 Q47.95 9.25 48.95 8.35 49.95 7.45 50.15 6.3 L53.4 6.55 Q54.75 7.1 55.5 8.2 56.3 9.3 56.55 10.55 56.75 11.8 56.45 12.85 57.7 11.65 58.2 9.85 58.65 8.05 57.95 6.15 57.25 4.25 55.0 2.8 L56.05 2.9 57.45 3.0 58.75 3.05 57.25 2.7 54.85 1.95 52.2 0.8 54.3 1.1 56.9 1.25 59.35 1.3 61.05 1.4 Q62.3 1.65 63.15 2.65 64.0 3.65 64.1 5.05 64.25 6.45 63.4 7.95 62.55 9.45 60.4 10.7 59.55 11.15 59.6 11.2 L60.1 11.0 61.1 10.6 61.85 10.3 69.8 9.7 Q73.6 10.1 76.7 11.65 79.8 13.25 81.85 15.75" fill="#ffcf2e" fill-rule="evenodd" stroke="none"/>
    <path d="M55.0 42.4 Q55.5 42.7 55.2 43.15 L54.3 43.8 53.15 43.75 Q52.8 43.55 52.9 44.0 L53.35 45.15 54.0 46.4 54.3 47.0 53.55 46.5 51.65 45.15 49.3 43.4 47.05 41.65 45.65 40.15 Q44.6 38.7 43.7 38.15 L42.4 38.2 Q42.7 37.35 43.55 37.35 L45.45 37.6 Q46.4 37.95 47.0 38.45 L48.2 39.35 49.3 40.05 49.75 40.35 Q50.45 40.9 51.6 41.5 L53.7 42.35 55.0 42.4" fill="#d9810d" fill-rule="evenodd" stroke="none"/>
    <path d="M81.75 32.95 Q82.1 29.1 81.7 25.45 81.3 21.85 80.1 18.7 78.95 15.6 76.95 13.35 74.9 11.1 72.0 10.05 75.25 10.75 77.9 12.35 80.5 13.95 82.25 16.3 84.0 18.65 84.65 21.55 85.65 26.05 86.1 30.15 L86.75 37.55 86.95 42.7 86.9 44.6 77.75 47.45 Q79.4 44.2 80.4 40.5 81.4 36.8 81.75 32.95" fill="#d9810d" fill-rule="evenodd" stroke="none"/>
    <path d="M62.9 31.15 Q63.05 29.25 63.95 27.8 64.8 26.35 65.95 25.8 65.65 26.3 65.5 27.1 65.35 27.95 65.5 29.05 L65.25 30.75 64.55 33.9 63.6 37.6 62.55 41.0 61.65 43.35 Q61.3 44.15 61.15 43.8 60.9 43.0 60.2 42.6 59.5 42.15 58.75 42.0 L57.6 41.7 Q58.95 41.2 59.9 39.9 60.9 38.55 61.55 36.9 L62.5 33.7 62.9 31.15" fill="#d9810d" fill-rule="evenodd" stroke="none"/>
    <path d="M73.15 49.05 L65.2 52.8 Q62.8 49.4 61.75 46.55 60.7 43.75 60.45 41.9 L60.2 39.45 61.55 36.2 62.7 32.75 63.55 29.75 64.15 28.1 Q66.05 27.4 67.9 28.55 69.8 29.7 71.25 32.5 72.7 35.25 73.25 39.45 73.85 43.65 73.15 49.05" fill="#ffffff" fill-rule="evenodd" stroke="none"/>
    <path d="M57.45 53.25 L53.0 53.85 Q49.2 51.25 47.15 48.7 45.15 46.2 44.5 44.05 43.85 41.9 44.25 40.5 44.65 39.1 45.75 38.8 L47.95 38.95 Q49.15 39.45 50.55 41.05 51.95 42.65 53.65 45.6 55.35 48.6 57.45 53.25" fill="#ffffff" fill-rule="evenodd" stroke="none"/>
    <path d="M72.5 38.0 L73.4 40.25 Q73.85 44.1 73.2 48.85 L73.15 48.95 69.55 50.7 68.1 48.85 Q67.4 47.7 66.8 45.8 L70.25 44.15 66.3 44.0 66.3 43.9 Q65.7 41.25 65.95 39.5 66.2 37.8 67.0 36.9 67.85 36.0 68.95 35.95 70.05 35.9 71.15 36.55 71.95 37.05 72.5 38.0" fill="#111111" fill-rule="evenodd" stroke="none"/>
    <path d="M54.35 50.5 L52.35 50.4 52.15 50.1 Q51.25 48.7 50.9 47.5 50.5 46.3 50.65 45.55 50.8 44.8 51.5 44.75 52.2 44.7 53.45 45.5 L54.05 46.35 Q55.6 49.1 57.45 53.2 L55.3 53.5 54.0 52.45 53.1 51.4 54.35 50.5" fill="#111111" fill-rule="evenodd" stroke="none"/>
    <path d="M51.7 42.8 L52.45 43.3 51.8 43.2 Q49.9 42.45 48.45 42.45 47.0 42.45 46.25 43.35 45.5 44.25 45.7 46.2 45.75 46.75 45.4 46.4 45.05 46.1 44.75 44.85 44.4 42.95 45.25 42.15 46.1 41.35 47.8 41.55 49.5 41.7 51.7 42.8" fill="#943923" fill-rule="evenodd" stroke="none"/>
    <path d="M90.65 45.35 Q90.2 47.15 88.4 49.15 89.0 51.25 88.6 53.2 88.2 55.15 87.0 56.75 85.85 58.35 84.15 59.55 82.45 60.7 80.5 61.25 L76.95 61.9 73.35 62.05 69.6 62.1 65.15 62.35 60.1 62.8 55.1 63.45 50.85 64.1 48.0 64.7 43.35 65.25 Q41.5 65.0 40.55 64.15 39.65 63.25 39.6 62.15 39.55 61.05 40.25 60.1 L37.5 58.85 Q36.1 58.25 35.2 57.15 34.25 56.05 34.15 54.05 34.15 52.4 35.35 51.45 36.55 50.5 38.6 50.2 40.7 49.85 43.25 50.15 45.8 50.45 48.55 51.35 L51.65 51.75 55.4 52.0 Q57.35 52.0 59.3 51.4 L64.65 50.0 68.7 49.2 72.65 48.65 74.75 46.3 77.0 43.75 Q78.2 42.45 79.85 41.45 81.5 40.45 83.9 40.05 L88.05 40.25 Q89.7 40.9 90.4 42.25 91.1 43.55 90.65 45.35" fill="#5f2916" fill-rule="evenodd" stroke="none"/>
    <path d="M88.35 48.25 L88.15 48.2 87.8 47.95 Q87.65 47.85 87.65 48.05 L87.8 48.95 Q88.35 51.25 87.95 53.15 87.6 55.0 86.45 56.5 85.35 57.95 83.8 59.0 L80.6 60.7 77.25 61.35 73.45 61.45 Q71.5 61.4 69.85 61.5 L65.7 61.8 60.9 62.2 55.95 62.7 51.6 63.3 48.3 63.95 43.7 64.45 Q41.85 64.25 41.05 63.45 40.2 62.65 40.45 61.7 40.7 60.7 42.1 59.9 L39.75 59.05 37.45 58.0 Q36.35 57.35 35.7 56.4 35.0 55.45 34.9 54.0 34.9 52.6 36.05 51.8 37.15 51.0 39.15 50.8 L43.6 50.9 48.65 51.95 49.1 52.1 53.35 53.2 57.6 53.95 58.3 53.8 Q58.4 53.65 57.75 53.55 L53.15 52.7 52.95 52.55 53.5 52.45 56.4 52.4 59.4 51.85 64.4 50.45 68.3 49.65 72.0 49.1 71.85 49.3 71.6 49.7 71.75 49.75 72.9 49.0 74.7 47.1 76.9 44.65 Q78.1 43.35 79.8 42.3 81.45 41.25 83.8 40.85 86.85 40.4 88.55 41.3 90.2 42.2 90.25 44.05 90.25 45.9 88.35 48.25" fill="#d5531b" fill-rule="evenodd" stroke="none"/>
    <path d="M69.4 31.3 Q68.2 30.6 66.9 30.35 65.65 30.1 64.6 30.35 63.5 30.65 62.95 31.45 L62.85 30.75 Q63.4 29.8 64.5 29.45 L66.95 29.3 Q68.3 29.45 69.5 30.2 70.65 30.9 71.3 32.15 L71.55 33.05 Q71.6 33.35 71.4 33.1 70.6 32.0 69.4 31.3" fill="#943923" fill-rule="evenodd" stroke="none"/>
    <path d="M70.2 30.7 Q69.2 29.85 67.95 29.5 L65.5 29.25 Q64.35 29.35 63.5 29.95 L64.2 28.05 67.3 28.15 Q68.85 28.85 70.2 30.7" fill="#fea837" fill-rule="evenodd" stroke="none"/>
    <path d="M51.65 42.85 Q49.55 41.75 47.85 41.6 46.2 41.4 45.3 42.15 44.45 42.85 44.7 44.6 43.85 42.25 44.2 40.7 44.6 39.15 45.75 38.8 46.6 38.55 47.55 38.8 48.5 39.1 49.65 40.15 50.75 41.15 52.05 43.05 L51.65 42.85" fill="#fea837" fill-rule="evenodd" stroke="none"/>
    <path d="M66.8 24.75 Q67.05 24.8 66.5 25.35 65.5 26.3 64.85 27.25 L63.75 29.4 62.95 32.35 62.15 35.95 Q61.75 37.7 61.15 39.05 60.5 40.4 59.5 40.85 58.9 41.5 57.85 41.65 L55.75 41.25 Q54.7 40.7 54.0 39.35 53.9 39.1 54.05 39.1 L54.3 39.25 Q55.05 40.15 55.9 40.5 L57.7 40.8 56.65 40.25 Q56.2 39.9 55.9 39.25 L55.9 39.0 56.2 39.2 Q57.0 40.15 58.05 40.15 59.1 40.15 59.95 38.6 60.75 37.05 61.15 35.5 L62.05 32.0 62.85 29.5 Q63.3 28.25 64.05 27.15 64.8 26.0 66.1 25.0 66.55 24.7 66.8 24.75" fill="#86432c" fill-rule="evenodd" stroke="none"/>
    <path d="M52.15 41.9 Q52.9 42.4 53.7 42.65 L54.1 42.8 53.9 42.9 52.4 42.45 49.35 40.45 Q48.2 39.6 46.9 38.95 45.65 38.3 44.6 38.0 L42.9 37.95 Q42.3 38.15 42.4 39.0 L42.2 39.3 Q42.0 39.25 41.9 38.35 41.85 37.35 42.45 37.0 L44.1 36.85 Q45.15 37.0 46.25 37.55 L48.4 38.9 50.5 40.7 52.15 41.9" fill="#86432c" fill-rule="evenodd" stroke="none"/>
    <path d="M84.95 48.6 L85.55 49.55 85.25 49.5 84.5 49.05 83.85 49.05 83.55 49.1 83.35 49.2 83.15 49.4 83.35 49.6 84.0 50.25 84.45 51.55 84.2 53.3 Q83.65 54.5 82.4 55.3 81.15 56.15 79.5 56.7 L76.2 57.55 73.1 58.15 70.85 58.7 67.2 59.25 62.65 59.65 57.75 59.7 53.5 59.6 Q51.35 59.55 49.45 59.65 L46.05 60.15 44.25 60.5 Q43.7 60.55 43.8 60.35 L44.3 59.6 Q43.1 59.35 42.4 58.85 41.75 58.3 41.65 57.8 41.6 57.2 42.45 56.85 L44.85 56.6 47.3 57.0 49.9 57.7 52.55 58.3 60.2 58.8 67.15 58.5 72.65 57.55 Q76.05 56.65 78.05 55.45 80.0 54.2 80.8 52.9 81.65 51.55 81.65 50.35 81.6 49.65 81.15 49.55 L80.25 49.6 79.8 49.55 80.2 49.0 Q81.15 48.1 82.1 47.85 83.0 47.65 83.75 47.85 L84.95 48.6" fill="#4e1d13" fill-rule="evenodd" stroke="none"/>
    <path d="M62.95 2.45 Q63.9 3.4 64.1 4.85 64.3 6.3 63.45 7.85 62.6 9.4 60.4 10.7 59.55 11.15 59.6 11.2 L60.05 11.0 61.1 10.6 61.85 10.3 65.5 9.65 67.55 10.25 64.35 10.35 61.2 11.05 Q59.7 11.5 58.75 11.85 L57.75 12.25 58.05 11.3 Q58.4 10.4 59.7 8.9 L61.25 7.0 62.65 4.7 Q63.2 3.5 62.95 2.45" fill="#d9810d" fill-rule="evenodd" stroke="none"/>
    <path d="M55.75 8.5 Q56.4 9.5 56.55 10.65 L56.5 12.75 56.05 13.05 55.35 13.35 55.2 12.15 54.5 10.6 53.55 9.2 52.6 8.45 Q52.1 8.3 52.3 8.05 52.45 7.85 53.05 7.8 L54.5 8.1 55.75 8.5" fill="#d9810d" fill-rule="evenodd" stroke="none"/>
    <path d="M88.55 41.3 Q90.2 42.2 90.25 44.05 90.25 45.9 88.35 48.25 L88.15 48.2 87.8 47.95 Q87.65 47.85 87.65 48.05 L87.8 48.95 Q88.4 51.25 87.95 53.15 87.55 55.05 86.45 56.55 87.2 55.05 87.35 53.55 87.5 52.1 87.3 50.7 L86.85 48.25 86.45 47.2 86.25 46.7 Q86.3 46.6 86.95 47.25 87.35 46.9 87.35 46.25 L87.15 45.0 Q86.8 44.25 85.45 44.25 L82.2 44.8 Q80.35 45.35 78.45 46.45 76.6 47.5 75.25 48.9 L74.65 49.55 74.8 49.5 75.25 49.35 Q75.5 49.35 75.6 49.7 76.0 51.85 75.35 53.25 74.7 54.6 73.25 55.4 71.85 56.2 70.0 56.6 L66.3 57.15 62.75 57.4 58.9 57.15 54.45 56.1 48.65 54.5 45.8 53.95 42.6 53.65 39.55 53.65 37.3 54.1 Q36.4 54.5 36.3 55.2 L36.25 55.8 36.05 55.95 35.45 56.05 Q34.95 55.2 34.9 54.0 34.9 52.6 36.05 51.8 37.15 51.0 39.15 50.8 L43.6 50.9 48.65 51.95 49.1 52.1 53.35 53.2 57.6 53.95 58.3 53.8 Q58.4 53.65 57.75 53.55 L53.15 52.7 52.95 52.55 53.5 52.45 56.4 52.4 59.4 51.85 64.4 50.45 68.3 49.65 72.0 49.1 71.85 49.3 71.6 49.7 71.75 49.75 72.9 49.0 74.7 47.1 76.9 44.65 Q78.1 43.35 79.8 42.3 81.45 41.25 83.8 40.85 86.85 40.4 88.55 41.3" fill="#fc9b0e" fill-rule="evenodd" stroke="none"/>
    <path d="M61.3 60.6 Q62.15 60.65 62.2 60.85 L61.85 61.2 61.0 61.4 56.05 62.0 51.05 62.85 46.65 63.85 42.8 64.35 Q41.6 64.1 41.0 63.5 40.4 62.95 40.35 62.2 L40.35 62.1 40.45 61.65 40.5 61.55 41.3 60.9 Q41.65 60.95 41.75 61.35 41.95 62.3 43.3 62.3 L47.05 61.7 52.05 60.8 56.55 60.45 61.3 60.6" fill="#fc9b0e" fill-rule="evenodd" stroke="none"/>
    <path d="M45.7 72.8 L44.15 72.7 40.2 72.35 34.95 71.8 29.45 71.05 24.9 70.2 Q22.95 69.75 22.3 69.2 21.1 68.15 20.55 66.9 20.0 65.6 20.1 64.4 20.25 63.2 21.0 62.35 21.75 61.5 23.2 61.35 24.1 61.3 25.05 61.8 L26.6 62.75 Q28.45 64.25 29.9 64.95 L32.55 65.85 35.05 66.25 37.95 66.9 40.55 68.0 42.35 69.3 43.9 70.85 45.7 72.8" fill="#1d3f60" fill-rule="evenodd" stroke="none"/>
    <path d="M44.25 72.15 L42.85 72.0 39.25 71.7 34.5 71.2 29.6 70.55 25.45 69.75 23.05 68.9 Q21.95 68.05 21.4 66.95 20.9 65.9 20.95 64.85 21.05 63.8 21.75 63.1 22.4 62.4 23.75 62.25 L25.0 62.65 26.3 63.65 27.3 64.45 Q28.9 65.6 30.2 66.1 L32.65 66.8 35.05 67.1 37.75 67.65 Q39.25 68.1 40.05 68.5 40.9 68.9 41.5 69.4 L42.65 70.55 44.25 72.15" fill="#ffffff" fill-rule="evenodd" stroke="none"/>
    <path d="M38.3 68.8 Q38.95 69.0 38.45 69.15 L36.65 69.45 33.6 69.7 29.95 69.85 26.35 70.0 24.25 69.5 23.0 68.95 21.75 67.6 Q21.25 66.9 21.05 66.15 21.45 66.75 22.05 66.9 L23.45 67.0 25.0 66.75 26.4 66.25 27.4 65.95 Q27.85 65.9 28.7 66.4 29.65 66.9 31.3 67.3 L34.8 68.0 38.3 68.8" fill="#b8d2ca" fill-rule="evenodd" stroke="none"/>
    <path d="M59.0 66.8 Q60.2 67.4 61.25 69.45 62.3 71.45 62.9 74.35 63.45 77.2 63.15 80.4 62.9 83.6 61.4 86.6 59.9 89.55 56.8 91.75 L54.85 91.85 51.95 91.95 48.95 91.95 46.45 91.9 44.4 91.4 Q43.1 90.9 41.75 89.9 40.35 88.9 39.2 87.15 38.05 85.45 37.45 82.95 36.85 80.4 37.15 76.9 37.5 73.45 38.65 71.1 39.8 68.75 41.35 67.3 42.9 65.9 44.55 65.2 46.2 64.55 47.55 64.4 L49.65 64.45 51.4 64.85 53.9 65.4 56.6 66.1 59.0 66.8" fill="#4e1d13" fill-rule="evenodd" stroke="none"/>
    <path d="M62.15 74.2 Q62.7 76.95 62.45 80.0 62.15 83.1 60.85 85.95 59.5 88.8 56.85 90.9 L47.25 91.2 49.6 65.1 50.35 65.25 52.2 65.65 54.5 66.15 56.75 66.65 58.25 67.1 Q59.55 67.65 60.6 69.55 61.65 71.45 62.15 74.2" fill="#cea546" fill-rule="evenodd" stroke="none"/>
    <path d="M60.8 70.0 L61.85 72.95 62.45 76.45 54.15 75.25 50.6 68.45 60.8 70.0" fill="#efcf67" fill-rule="evenodd" stroke="none"/>
    <path d="M48.2 89.9 L48.4 88.85 58.35 89.55 57.5 90.35 48.2 89.9" fill="#fcf4bb" fill-rule="evenodd" stroke="none"/>
    <path d="M61.35 71.3 L62.1 73.95 51.6 72.7 50.8 69.6 61.35 71.3" fill="#ffffff" fill-rule="evenodd" stroke="none"/>
    <path d="M62.3 81.05 L61.35 84.75 Q60.65 86.55 59.5 88.15 L52.1 87.55 53.65 80.0 62.3 81.05" fill="#ab771f" fill-rule="evenodd" stroke="none"/>
    <path d="M62.1 82.25 Q61.6 84.6 60.4 86.75 L52.05 86.05 53.6 81.35 62.1 82.25" fill="#6e4224" fill-rule="evenodd" stroke="none"/>
    <path d="M57.2 71.75 Q58.3 74.95 58.0 79.35 57.65 84.25 56.1 86.9 54.6 89.6 52.25 90.55 49.9 91.5 47.0 91.2 44.55 90.9 42.8 89.5 41.1 88.05 40.05 85.95 39.05 83.85 38.65 81.5 38.25 79.2 38.45 77.15 38.65 75.1 39.45 72.95 40.25 70.8 41.65 69.0 43.0 67.2 44.9 66.1 46.8 65.0 49.15 65.05 51.8 65.15 53.95 66.85 56.05 68.6 57.2 71.75" fill="#f6efb3" fill-rule="evenodd" stroke="none"/>
    <path d="M56.5 71.75 Q57.6 74.95 57.3 79.35 56.95 84.25 55.4 86.9 53.9 89.6 51.55 90.55 49.2 91.5 46.3 91.2 43.85 90.9 42.1 89.5 40.4 88.05 39.35 85.95 38.35 83.85 37.95 81.5 37.55 79.2 37.75 77.15 37.95 75.1 38.75 72.95 39.55 70.8 40.95 69.0 42.3 67.2 44.2 66.1 46.1 65.0 48.45 65.05 51.1 65.15 53.25 66.85 55.35 68.6 56.5 71.75" fill="#e5cd75" fill-rule="evenodd" stroke="none"/>
    <path d="M55.15 87.4 Q53.7 89.65 51.65 90.5 49.6 91.4 47.1 91.25 L37.75 77.25 37.75 77.15 Q37.95 75.2 38.7 73.2 39.4 71.2 40.65 69.4 41.9 67.65 43.6 66.5 L55.15 87.4" fill="#f6efb3" fill-rule="evenodd" stroke="none"/>
    <path d="M38.45 73.75 Q39.0 72.15 39.85 70.65 40.7 69.15 41.85 67.95 L53.6 89.25 Q52.0 90.65 49.95 91.05 L38.45 73.75" fill="#ffffff" fill-rule="evenodd" stroke="none"/>
    <path d="M52.45 83.3 Q51.6 85.3 50.35 86.55 49.05 87.8 47.5 87.9 L10.8 78.2 13.9 67.2 15.6 67.25 20.0 67.4 26.2 67.65 33.1 67.9 39.75 68.15 45.2 68.35 48.4 68.45 Q50.55 69.1 51.75 70.75 52.95 72.4 53.4 74.55 53.8 76.75 53.55 79.05 53.25 81.35 52.45 83.3" fill="#4e1d13" fill-rule="evenodd" stroke="none"/>
    <path d="M52.85 78.95 Q52.6 81.0 51.85 82.75 51.15 84.55 50.1 85.7 49.05 86.85 47.8 87.05 L11.6 77.9 14.3 67.55 16.0 67.6 20.45 67.85 26.6 68.15 33.5 68.45 40.15 68.8 45.5 69.0 48.65 69.15 Q50.45 69.9 51.45 71.4 52.45 72.95 52.75 74.9 53.1 76.9 52.85 78.95" fill="#cea546" fill-rule="evenodd" stroke="none"/>
    <path d="M49.9 69.8 Q51.25 70.8 52.0 72.35 52.7 73.95 52.9 75.8 L19.05 71.65 19.15 68.55 49.9 69.8" fill="#efcf67" fill-rule="evenodd" stroke="none"/>
    <path d="M50.85 70.65 Q52.0 71.95 52.5 73.7 L18.8 70.55 18.85 69.0 50.85 70.65" fill="#ffffff" fill-rule="evenodd" stroke="none"/>
    <path d="M52.7 79.8 Q52.4 81.5 51.75 83.0 L50.25 85.5 19.95 77.55 20.65 74.35 52.7 79.8" fill="#ab771f" fill-rule="evenodd" stroke="none"/>
    <path d="M52.3 81.35 Q51.85 83.0 51.1 84.3 L19.75 77.1 20.1 75.5 52.3 81.35" fill="#6e4224" fill-rule="evenodd" stroke="none"/>
    <path d="M49.55 86.25 L48.6 86.8 18.5 79.2 19.5 78.5 49.55 86.25" fill="#efcf67" fill-rule="evenodd" stroke="none"/>
    <path d="M21.3 69.0 Q21.75 71.45 21.55 74.15 21.3 76.85 20.05 79.25 18.85 81.65 16.3 83.25 L14.75 83.35 12.45 83.45 10.05 83.55 8.05 83.5 6.3 83.05 4.05 81.8 Q2.9 80.9 1.9 79.5 0.9 78.05 0.4 75.95 -0.15 73.8 0.1 70.9 0.4 68.0 1.35 66.05 2.3 64.1 3.6 62.95 4.85 61.75 6.2 61.2 7.55 60.6 8.7 60.5 L10.45 60.55 12.55 61.0 15.4 61.7 18.15 62.5 Q19.15 63.05 20.0 64.75 20.85 66.5 21.3 69.0" fill="#4e1d13" fill-rule="evenodd" stroke="none"/>
    <path d="M20.7 68.75 Q21.15 71.0 20.9 73.5 20.7 76.0 19.6 78.35 18.5 80.65 16.35 82.4 L8.5 82.65 10.4 61.3 11.35 61.5 13.45 61.95 15.85 62.45 17.5 62.9 Q18.55 63.35 19.4 64.95 20.3 66.5 20.7 68.75" fill="#cea546" fill-rule="evenodd" stroke="none"/>
    <path d="M19.6 65.25 L20.45 67.65 20.95 70.55 14.15 69.55 11.25 64.0 19.6 65.25" fill="#efcf67" fill-rule="evenodd" stroke="none"/>
    <path d="M9.3 81.55 L9.45 80.7 17.6 81.25 16.9 81.95 9.3 81.55" fill="#fcf4bb" fill-rule="evenodd" stroke="none"/>
    <path d="M20.05 66.35 L20.65 68.5 12.05 67.5 11.4 64.95 20.05 66.35" fill="#ffffff" fill-rule="evenodd" stroke="none"/>
    <path d="M20.8 74.3 L20.0 77.3 Q19.45 78.8 18.5 80.1 L12.45 79.65 13.75 73.45 20.8 74.3" fill="#ab771f" fill-rule="evenodd" stroke="none"/>
    <path d="M20.6 75.35 Q20.2 77.25 19.25 79.0 L12.4 78.45 13.65 74.6 20.6 75.35" fill="#6e4224" fill-rule="evenodd" stroke="none"/>
    <path d="M16.6 66.75 Q17.55 69.3 17.3 72.95 17.0 76.95 15.75 79.1 14.5 81.3 12.6 82.1 10.65 82.85 8.3 82.6 6.3 82.4 4.85 81.25 3.45 80.05 2.6 78.35 1.8 76.6 1.45 74.7 1.15 72.8 1.3 71.15 1.45 69.45 2.15 67.7 2.8 65.95 3.9 64.45 5.05 63.0 6.6 62.1 8.15 61.25 10.05 61.25 12.25 61.3 13.95 62.75 15.7 64.15 16.6 66.75" fill="#f6efb3" fill-rule="evenodd" stroke="none"/>
    <path d="M16.05 66.75 Q17.0 69.3 16.75 72.95 16.45 76.95 15.2 79.1 13.95 81.3 12.05 82.1 10.1 82.85 7.75 82.6 5.75 82.4 4.3 81.25 2.9 80.05 2.05 78.35 1.25 76.6 0.9 74.7 0.6 72.8 0.75 71.15 0.9 69.45 1.6 67.7 2.25 65.95 3.35 64.45 4.5 63.0 6.05 62.1 7.6 61.25 9.5 61.25 11.7 61.3 13.4 62.75 15.15 64.15 16.05 66.75" fill="#e5cd75" fill-rule="evenodd" stroke="none"/>
    <path d="M14.9 79.45 Q13.75 81.25 12.05 82.0 10.4 82.7 8.35 82.6 L0.7 71.15 0.7 71.05 Q0.85 69.45 1.45 67.8 2.05 66.15 3.1 64.75 4.1 63.3 5.5 62.35 L14.9 79.45" fill="#f6efb3" fill-rule="evenodd" stroke="none"/>
    <path d="M1.3 68.35 L2.45 65.8 4.1 63.6 13.7 81.0 Q12.4 82.15 10.7 82.5 L1.3 68.35" fill="#ffffff" fill-rule="evenodd" stroke="none"/>
    <path d="M13.05 72.8 Q12.85 74.85 12.2 76.05 11.55 77.25 10.5 77.65 L8.25 78.0 Q6.8 77.8 5.95 76.8 5.1 75.85 4.8 74.5 4.45 73.15 4.55 71.95 4.65 70.8 5.25 69.6 5.8 68.4 6.8 67.6 7.8 66.8 9.15 66.8 10.3 66.85 11.2 67.55 12.15 68.25 12.65 69.55 13.15 70.9 13.05 72.8" fill="#ffffff" fill-rule="evenodd" stroke="none"/>
    <path d="M13.2 72.45 Q13.0 74.5 12.35 75.7 11.7 76.9 10.65 77.3 L8.4 77.65 Q6.95 77.45 6.1 76.5 5.25 75.5 4.95 74.15 4.6 72.8 4.7 71.6 4.8 70.45 5.4 69.25 5.95 68.05 6.95 67.25 7.95 66.45 9.3 66.45 10.45 66.5 11.35 67.2 12.3 67.9 12.8 69.2 13.3 70.55 13.2 72.45" fill="#836b1c" fill-rule="evenodd" stroke="none"/>
    <path d="M11.35 67.2 Q12.25 67.9 12.8 69.2 13.3 70.55 13.15 72.45 L12.65 75.0 Q11.85 73.45 10.6 72.25 9.3 71.05 7.85 70.35 6.4 69.65 5.2 69.6 5.75 68.3 6.8 67.35 7.8 66.45 9.3 66.45 10.4 66.5 11.35 67.2" fill="#111111" fill-rule="evenodd" stroke="none"/>
    <path d="M49.0 82.05 L48.85 84.4 Q48.35 86.25 46.9 87.6 45.4 89.0 43.3 89.4 L40.95 89.3 Q39.75 89.0 38.85 88.3 37.9 87.65 37.6 86.7 37.3 85.75 37.95 84.65 L40.2 84.4 Q41.0 83.95 41.6 83.0 L41.45 81.7 Q41.3 80.95 41.3 80.05 41.25 79.2 41.5 78.1 41.9 76.7 42.9 76.1 43.95 75.45 45.1 75.45 L47.2 75.85 Q48.1 76.3 48.2 77.0 L48.65 79.55 49.0 82.05" fill="#1d3f60" fill-rule="evenodd" stroke="none"/>
    <path d="M47.55 77.5 L47.9 79.75 48.2 82.0 48.05 84.1 Q47.7 85.7 46.5 86.95 45.3 88.15 43.55 88.5 L41.1 88.45 Q39.9 88.15 39.25 87.25 38.6 86.4 38.9 85.0 L40.65 84.75 41.85 83.8 42.1 84.45 42.3 84.4 42.3 83.2 42.1 81.55 42.1 80.15 42.35 78.55 Q42.65 77.35 43.45 76.8 44.25 76.25 45.15 76.2 L46.75 76.5 Q47.45 76.85 47.55 77.5" fill="#ffffff" fill-rule="evenodd" stroke="none"/>
    <path d="M42.05 81.5 L42.05 80.1 42.3 78.55 Q42.5 77.65 43.0 77.1 L44.2 76.35 44.1 78.0 44.25 80.4 44.3 82.6 Q44.25 83.5 44.95 83.95 L46.55 84.2 Q47.45 84.05 48.15 83.15 L48.05 84.05 Q47.65 85.65 46.45 86.9 45.25 88.15 43.55 88.5 L40.95 88.4 Q39.75 88.05 39.1 87.1 L39.8 84.95 40.95 84.55 41.8 83.75 42.05 84.4 Q42.2 84.65 42.3 84.4 L42.25 83.15 42.05 81.5" fill="#b8d2ca" fill-rule="evenodd" stroke="none"/>
    <path d="M43.95 81.1 Q43.9 82.55 43.45 83.8 42.65 85.9 40.7 87.3 38.8 88.7 36.3 88.9 34.5 88.95 33.2 88.15 31.9 87.3 31.2 85.85 30.55 84.4 30.65 82.55 L33.35 82.6 Q34.4 82.2 35.2 81.2 L35.2 79.7 35.35 78.05 Q35.45 77.1 35.9 75.9 36.55 74.3 37.8 73.65 39.05 73.0 40.45 73.05 41.8 73.1 42.75 73.65 43.7 74.2 43.75 75.1 L43.9 78.1 43.95 81.1" fill="#1d3f60" fill-rule="evenodd" stroke="none"/>
    <path d="M42.15 74.25 Q42.95 74.7 42.95 75.5 L43.05 78.25 43.1 81.0 Q43.05 82.35 42.65 83.45 41.95 85.35 40.35 86.65 38.75 87.95 36.65 88.15 35.1 88.25 33.95 87.65 32.75 87.1 32.1 86.0 31.45 84.85 31.55 83.25 32.75 83.55 33.65 83.25 L35.25 82.2 35.45 83.05 Q35.6 83.35 35.7 83.05 L35.85 81.55 35.85 79.7 36.0 78.3 36.55 76.55 Q37.1 75.15 38.15 74.5 39.15 73.85 40.25 73.85 L42.15 74.25" fill="#ffffff" fill-rule="evenodd" stroke="none"/>
    <path d="M42.9 82.5 L42.65 83.45 Q41.95 85.3 40.35 86.6 38.75 87.9 36.65 88.1 34.85 88.2 33.55 87.45 32.25 86.65 31.75 85.15 L32.4 83.35 Q33.25 83.4 34.0 83.05 L35.25 82.2 35.45 83.0 Q35.55 83.3 35.7 83.0 L35.85 81.55 35.85 79.65 Q35.85 78.95 36.0 78.25 L36.55 76.5 Q37.05 75.15 38.1 74.5 37.95 75.35 38.25 76.75 L38.75 79.6 38.8 82.4 Q39.0 83.25 39.75 83.55 L41.4 83.6 Q42.3 83.35 42.9 82.5" fill="#b8d2ca" fill-rule="evenodd" stroke="none"/>
    <path d="M38.1 78.5 L37.85 81.2 Q37.55 82.8 36.85 84.05 36.2 85.3 34.85 86.1 33.5 86.95 31.1 87.25 L26.9 86.85 Q24.95 86.15 23.8 84.7 22.65 83.25 22.7 81.3 L25.85 81.45 28.4 80.85 28.4 78.8 28.55 76.6 Q28.7 75.5 29.0 74.75 29.7 73.0 31.1 72.15 32.45 71.35 33.95 71.35 35.45 71.35 36.55 71.9 37.6 72.45 37.65 73.5 L37.85 75.9 38.1 78.5" fill="#1d3f60" fill-rule="evenodd" stroke="none"/>
    <path d="M34.25 72.25 Q35.3 72.25 36.05 72.7 36.8 73.15 36.95 73.95 L37.3 77.15 37.3 79.7 36.8 82.1 Q36.15 84.15 34.7 85.3 33.25 86.45 30.65 86.7 L27.35 86.25 Q25.7 85.65 24.6 84.4 23.55 83.2 23.6 81.45 L24.85 81.45 26.1 81.35 26.85 81.3 27.25 81.55 28.5 81.4 28.7 82.25 29.0 82.2 29.15 80.6 Q29.05 78.75 29.2 77.2 29.35 75.65 30.0 74.6 30.9 73.35 32.0 72.8 33.15 72.25 34.25 72.25" fill="#ffffff" fill-rule="evenodd" stroke="none"/>
    <path d="M36.8 82.1 Q36.15 84.15 34.7 85.3 33.25 86.45 30.65 86.7 L27.35 86.2 Q25.7 85.6 24.6 84.4 23.55 83.2 23.6 81.45 L24.85 81.45 26.1 81.35 26.85 81.3 27.25 81.5 28.5 81.4 28.7 82.25 29.0 82.2 29.15 80.6 Q29.05 78.75 29.2 77.2 29.35 75.65 30.0 74.6 L30.1 74.5 Q29.8 75.55 29.7 77.65 L29.75 80.15 30.25 82.65 Q30.55 83.85 31.15 84.35 32.3 85.2 33.45 84.85 34.6 84.5 35.55 83.3 36.55 82.1 37.2 80.45 L36.8 82.1" fill="#b8d2ca" fill-rule="evenodd" stroke="none"/>
    <path d="M75.6 73.85 L75.8 74.2 76.1 74.7 76.05 74.75 75.15 74.15 73.45 73.15 71.5 72.2 Q70.6 71.75 70.0 71.65 69.3 71.45 69.3 71.3 L69.65 71.0 70.5 71.0 72.05 71.6 Q73.1 72.1 74.15 72.75 L75.6 73.85" fill="#1d3f60" fill-rule="evenodd" stroke="none"/>
  </g>
</svg>
