<?xml version="1.0" encoding="UTF-8" standalone="no"?>
<svg xmlns:xlink="http://www.w3.org/1999/xlink" height="131.5px" width="141.55px" xmlns="http://www.w3.org/2000/svg">
  <g transform="matrix(1.0, 0.0, 0.0, 1.0, 0.0, 0.0)">
    <path d="M69.15 63.2 L63.75 63.55 57.8 64.2 52.45 65.0 54.85 65.55 57.35 66.2 59.7 66.9 Q60.45 67.3 61.1 68.05 L62.1 69.65 66.0 67.1 Q67.9 65.5 69.15 63.2 M117.0 64.45 Q115.9 63.6 114.25 62.95 112.3 64.25 109.8 64.85 111.45 67.4 112.75 70.15 L112.95 70.15 113.15 70.15 115.15 67.35 117.0 64.45 M118.9 52.2 L119.1 53.75 118.9 55.6 121.3 56.5 123.55 57.5 Q126.8 58.95 126.8 62.05 L126.7 63.1 Q126.45 64.95 125.5 67.85 124.5 70.75 122.35 74.45 L123.2 76.2 123.5 78.0 123.2 79.55 125.2 81.25 Q128.25 84.0 128.25 86.8 L128.0 88.4 133.05 94.9 137.05 100.2 Q139.15 102.85 141.55 105.2 L141.55 114.7 138.55 112.65 Q135.1 110.05 132.25 106.95 L126.8 100.75 122.1 95.4 Q120.5 95.65 118.75 94.3 L117.6 95.0 117.5 95.6 117.3 96.45 117.2 97.15 118.3 97.8 119.2 98.9 Q119.55 99.6 119.55 100.65 L119.25 102.6 117.95 105.95 Q120.4 106.85 123.25 108.25 126.1 109.6 129.2 111.55 L135.55 116.25 Q137.9 118.35 138.95 120.6 140.0 122.85 140.0 124.75 L139.85 126.0 Q139.4 128.05 137.8 128.65 L132.6 129.85 126.05 130.75 118.7 131.35 111.2 131.5 104.25 131.2 101.4 130.75 Q99.95 130.35 98.95 129.4 97.95 128.4 97.9 126.6 L97.9 126.35 Q98.05 123.35 99.15 121.25 100.3 119.1 101.9 117.65 103.5 116.25 105.15 115.4 L99.65 115.9 94.9 115.5 91.65 114.55 Q90.3 113.95 89.5 113.2 88.65 112.4 88.45 111.15 L88.35 110.15 88.6 107.75 89.15 105.05 89.25 104.55 89.5 103.55 Q86.35 104.75 83.3 106.55 80.25 108.35 77.45 110.75 L76.0 112.25 74.85 113.65 73.6 115.15 Q73.05 115.65 72.45 115.55 68.85 114.6 65.95 112.7 63.05 110.8 61.05 108.0 59.6 108.85 58.05 109.8 L55.15 111.5 52.85 112.85 52.55 113.05 52.15 113.3 51.95 113.45 49.4 115.55 Q48.15 116.75 47.4 118.95 L48.55 121.75 Q48.9 123.0 48.85 124.1 L48.55 126.45 47.9 127.9 46.9 129.2 45.85 129.7 40.8 129.75 36.1 129.8 30.9 129.9 25.8 129.9 21.4 129.8 Q19.2 129.7 18.05 129.1 16.85 128.5 16.45 127.6 16.0 126.7 16.0 125.85 16.05 123.3 17.1 121.2 18.15 119.1 19.9 117.35 21.65 115.6 23.85 114.2 26.05 112.8 28.45 111.7 30.8 110.55 33.0 109.7 L38.15 107.75 42.6 106.2 47.95 104.3 51.15 102.65 54.9 100.4 Q54.9 100.35 55.4 100.05 L56.45 99.4 57.3 98.9 Q57.15 98.05 57.15 97.2 L57.25 96.0 Q57.4 95.5 57.8 95.25 58.5 94.75 59.95 93.75 L63.2 91.35 66.75 88.55 61.7 88.35 Q60.05 90.95 57.55 92.7 L57.3 92.8 55.3 92.9 52.4 93.0 49.35 93.0 46.9 92.95 Q45.85 92.85 44.3 92.25 42.8 91.6 41.25 90.25 L39.3 89.4 36.8 89.95 34.3 89.55 32.3 88.2 31.85 88.25 31.65 88.3 27.7 88.05 Q25.85 87.5 24.5 86.3 23.65 85.45 23.15 84.45 22.7 83.4 22.7 82.3 L21.85 82.05 20.75 81.75 19.95 81.55 Q18.75 83.15 17.1 84.2 L16.85 84.3 15.25 84.4 12.95 84.5 10.5 84.55 8.5 84.5 6.95 84.15 Q5.95 83.8 4.8 83.1 L2.65 81.2 Q-0.45 77.45 0.1 71.4 0.4 68.8 1.15 67.0 1.9 65.2 2.85 64.05 3.85 62.85 4.8 62.2 6.05 61.35 7.25 60.95 L9.5 60.5 11.05 60.6 12.5 60.9 14.55 61.4 16.8 61.95 18.85 62.6 19.65 63.2 20.3 64.0 Q20.65 62.9 21.5 62.2 22.35 61.55 23.6 61.4 L25.25 61.7 26.65 62.4 27.4 62.95 30.3 64.9 32.65 65.8 34.85 66.2 36.6 66.5 38.55 67.0 Q39.95 67.45 40.95 68.0 L43.15 66.2 Q42.0 65.95 41.15 65.4 40.3 64.85 39.9 64.0 39.55 63.3 39.55 62.55 39.6 61.7 40.05 60.9 L39.6 60.7 39.35 60.6 36.95 59.45 Q35.8 58.75 35.0 57.65 34.2 56.5 34.15 54.65 L34.15 54.55 Q34.15 52.85 35.5 51.7 36.8 50.6 39.2 50.3 41.6 49.95 44.7 50.4 42.1 45.85 40.5 41.95 39.65 39.8 39.2 37.55 38.8 35.3 38.8 33.1 38.8 30.7 39.25 28.35 39.75 26.0 40.75 23.85 42.55 19.95 45.7 17.05 48.85 14.2 53.1 12.6 52.75 12.15 52.0 11.85 L49.95 11.55 46.3 11.95 45.55 11.85 45.35 11.55 45.35 11.45 45.15 11.45 44.45 11.35 44.25 11.05 Q44.2 10.85 44.3 10.6 L44.7 10.2 44.75 10.2 47.95 8.8 Q48.95 8.1 49.3 7.5 L49.55 6.4 Q49.55 6.0 49.9 5.9 L52.45 5.7 Q53.75 5.85 54.85 6.55 L56.55 8.0 57.7 9.95 57.85 8.8 57.65 7.5 Q57.25 6.25 56.15 5.25 55.0 4.2 53.3 3.55 52.55 3.2 52.55 2.75 L52.55 2.65 52.6 2.5 52.15 2.3 51.2 1.95 50.3 1.55 49.85 1.4 49.3 1.0 49.2 0.65 49.2 0.45 49.5 0.1 50.4 0.05 54.35 0.6 57.8 0.7 59.9 0.75 61.85 0.95 Q63.15 1.15 64.1 2.0 65.05 2.85 65.5 4.2 L65.75 5.85 Q65.7 7.65 64.6 9.25 68.6 8.7 72.2 9.3 75.75 9.9 78.65 11.55 81.55 13.2 83.55 15.75 85.5 18.35 86.3 21.7 87.65 27.45 88.1 32.25 88.6 37.05 88.6 40.4 89.75 40.75 90.5 41.5 91.25 42.25 91.6 43.3 L91.8 44.65 Q91.75 46.65 90.25 48.8 L90.7 48.75 90.9 48.75 Q93.65 48.55 96.65 48.65 L102.65 48.85 108.55 49.25 112.4 49.5 115.8 49.65 Q117.4 49.7 118.25 50.8 L118.9 52.2" fill="#ffffff" fill-rule="evenodd" stroke="none"/>
  </g>
</svg>
