<?xml version="1.0" encoding="UTF-8" standalone="no"?>
<svg xmlns:xlink="http://www.w3.org/1999/xlink" height="183.05px" width="161.7px" xmlns="http://www.w3.org/2000/svg">
  <g transform="matrix(1.0, 0.0, 0.0, 1.0, 92.45, 91.2)">
    <path d="M24.2 84.0 L37.5 84.65 50.4 85.4 Q55.15 86.1 56.35 87.0 57.55 87.95 55.0 88.65 L46.0 89.4 37.6 89.35 27.9 89.35 17.8 89.3 8.3 89.3 0.3 89.25 -5.2 89.2 -6.3 89.2 Q-12.2 87.85 -28.95 86.85 L-44.45 85.4 Q-49.45 85.4 -50.5 87.05 -52.05 89.45 -55.7 90.5 -60.6 91.85 -72.7 91.85 -92.45 91.85 -92.45 85.25 -92.45 83.4 -89.85 82.05 L-88.8 81.6 -86.6 81.5 -76.5 81.15 -63.95 80.85 -49.85 80.65 -35.15 80.75 -20.75 81.15 4.75 82.6 24.2 84.0" fill="#000000" fill-opacity="0.15294118" fill-rule="evenodd" stroke="none"/>
    <path d="M35.9 40.25 L35.95 41.15 35.9 43.2 35.55 45.3 Q35.3 46.25 34.75 46.4 L32.65 46.2 28.8 45.5 24.3 44.45 20.15 43.35 17.35 42.35 Q16.45 41.9 16.1 40.7 15.75 39.5 15.9 38.0 16.0 36.5 16.5 35.25 16.95 34.0 17.75 33.45 18.5 32.95 19.45 33.6 L22.1 35.1 25.7 36.7 29.65 38.2 33.25 39.45 35.9 40.25" fill="#02483b" fill-rule="evenodd" stroke="none"/>
    <path d="M35.7 40.75 L35.75 41.45 35.8 43.05 35.55 44.65 Q35.3 45.35 34.75 45.5 L32.65 45.35 28.8 44.7 24.3 43.85 20.15 42.85 17.35 42.0 Q16.45 41.6 16.1 40.55 15.75 39.5 15.9 38.25 16.0 36.95 16.5 35.85 16.95 34.75 17.75 34.3 L19.45 34.4 22.05 35.75 25.6 37.3 29.5 38.8 33.1 40.0 35.7 40.75" fill="#34a97d" fill-rule="evenodd" stroke="none"/>
    <path d="M28.65 41.2 L31.65 42.2 34.05 43.0 35.0 43.3 34.6 45.5 32.25 45.3 28.45 44.65 24.05 43.75 20.05 42.85 17.35 42.0 Q16.45 41.6 16.1 40.55 15.75 39.5 15.9 38.25 16.0 36.95 16.5 35.85 16.95 34.75 17.75 34.3 L19.45 34.4 21.3 35.4 23.8 36.55 23.5 38.5 Q23.5 39.35 23.95 39.6 L25.8 40.25 28.65 41.2" fill="#13765b" fill-rule="evenodd" stroke="none"/>
    <path d="M40.25 38.45 Q41.55 38.7 42.3 39.4 43.1 40.1 43.1 41.1 43.0 42.35 42.2 43.6 L40.2 45.95 38.1 47.6 Q37.15 48.15 36.05 48.15 L34.05 47.8 Q33.15 47.35 32.85 46.55 32.35 44.9 32.9 43.3 33.5 41.7 34.8 40.4 36.1 39.05 37.55 38.65 L40.25 38.45" fill="#1d3f60" fill-rule="evenodd" stroke="none"/>
    <path d="M42.55 41.5 Q42.5 42.55 41.75 43.65 L40.0 45.7 38.15 47.1 Q37.3 47.6 36.35 47.6 L34.55 47.3 Q33.8 46.9 33.5 46.2 33.05 44.75 33.55 43.4 34.1 42.05 35.2 40.9 36.4 39.75 37.65 39.35 L40.05 39.2 Q41.15 39.4 41.85 40.0 42.55 40.65 42.55 41.5" fill="#ffffff" fill-rule="evenodd" stroke="none"/>
    <path d="M39.7 40.8 L41.85 40.0 Q42.55 40.6 42.55 41.45 42.5 42.5 41.75 43.65 L40.0 45.65 38.15 47.05 Q37.3 47.55 36.35 47.6 L34.55 47.25 Q33.8 46.9 33.5 46.2 33.05 44.8 33.55 43.45 34.0 42.15 35.05 41.05 35.0 41.9 35.7 42.15 L37.5 41.9 39.7 40.8" fill="#b8d2ca" fill-rule="evenodd" stroke="none"/>
    <path d="M58.65 57.05 L59.15 58.45 Q59.35 59.05 58.85 59.7 58.3 60.35 57.25 60.55 L54.75 60.1 Q53.7 59.5 53.2 58.45 52.7 57.35 52.55 56.3 L52.35 54.75 51.6 53.55 50.0 51.85 48.45 50.35 47.7 49.65 48.4 49.55 50.1 49.45 52.25 49.6 Q53.35 49.75 54.25 50.3 L55.65 51.55 56.9 53.1 57.65 54.25 58.1 55.4 58.65 57.05" fill="#1d3f60" fill-rule="evenodd" stroke="none"/>
    <path d="M57.45 55.3 L58.0 56.9 58.45 58.25 Q58.65 58.8 58.3 59.35 57.95 59.9 57.05 60.05 56.2 60.2 54.95 59.65 53.95 59.15 53.5 58.15 53.05 57.15 52.95 56.15 L52.85 54.7 52.2 53.6 50.8 51.95 49.4 50.5 48.75 49.9 49.65 49.75 51.65 49.8 Q52.85 49.95 54.0 50.6 54.65 51.0 55.3 51.75 L56.4 53.15 57.05 54.2 57.45 55.3" fill="#b8d2ca" fill-rule="evenodd" stroke="none"/>
    <path d="M60.3 54.25 L60.95 55.3 61.8 56.8 62.55 58.1 Q62.8 58.5 62.6 59.1 L61.85 60.15 Q61.3 60.65 60.35 60.8 L58.15 60.6 Q56.95 60.2 56.25 59.2 55.5 58.25 55.2 57.25 L54.75 55.75 53.75 54.75 51.8 53.4 49.9 52.2 Q49.05 51.7 49.0 51.7 L49.75 51.45 51.5 51.0 53.8 50.75 56.05 51.0 57.75 51.95 59.3 53.25 60.3 54.25" fill="#1d3f60" fill-rule="evenodd" stroke="none"/>
    <path d="M61.8 58.05 Q62.1 58.6 61.85 59.25 61.6 59.9 60.75 60.25 L58.3 60.15 Q57.2 59.75 56.55 58.85 55.95 57.95 55.7 57.0 L55.35 55.65 54.45 54.65 52.7 53.35 51.0 52.2 50.2 51.7 51.1 51.4 53.25 51.05 55.9 51.35 57.4 52.25 58.8 53.4 59.7 54.3 60.3 55.35 61.1 56.8 61.8 58.05" fill="#b8d2ca" fill-rule="evenodd" stroke="none"/>
    <path d="M58.7 55.35 L55.9 54.55 52.9 53.65 50.2 52.85 48.25 52.5 46.6 52.9 45.35 53.75 44.75 54.45 Q44.65 54.7 45.05 55.85 L45.75 58.55 Q46.1 60.1 45.9 61.6 45.65 63.0 44.55 63.85 43.45 64.75 42.1 64.8 40.75 64.85 39.7 63.85 39.15 63.25 39.15 62.45 L39.3 61.15 Q39.55 59.2 39.4 57.4 L38.8 54.25 37.85 51.85 36.8 48.9 Q36.35 47.35 36.5 46.05 36.75 44.45 37.65 43.25 38.55 42.05 39.8 41.4 41.05 40.7 42.45 40.65 44.7 40.6 46.7 41.35 48.75 42.15 50.35 43.45 51.95 44.8 52.9 46.3 L53.8 47.4 54.55 47.9 60.9 48.55 67.25 48.95 Q68.4 49.0 68.9 49.95 69.45 50.9 69.15 52.2 68.9 53.5 67.6 54.6 65.85 55.95 63.55 56.0 L58.7 55.35" fill="#1d3f60" fill-rule="evenodd" stroke="none"/>
    <path d="M58.3 48.8 L62.7 49.2 66.85 49.45 Q67.95 49.5 68.4 50.25 68.85 51.0 68.55 52.1 68.3 53.2 67.05 54.25 65.95 55.15 64.45 55.35 L61.25 55.25 57.95 54.55 55.3 53.8 52.45 52.95 49.85 52.25 48.0 51.9 Q47.1 51.9 46.25 52.45 45.4 52.95 44.8 53.55 L44.05 54.4 44.45 55.7 45.25 58.25 Q45.65 59.7 45.45 61.1 45.2 62.5 44.35 63.25 43.5 64.05 42.4 64.15 41.35 64.2 40.35 63.45 39.75 62.95 39.8 62.15 L39.95 60.85 Q40.2 58.95 40.05 57.25 39.95 55.55 39.5 54.2 L38.5 51.95 37.35 49.2 Q36.85 47.75 37.0 46.45 37.25 44.9 38.05 43.75 38.85 42.6 40.0 41.9 41.15 41.2 42.45 41.15 44.6 41.1 46.55 41.8 48.5 42.55 50.05 43.8 51.6 45.1 52.5 46.55 L53.4 47.75 53.1 47.75 52.4 47.75 51.8 47.7 Q51.6 47.7 51.9 47.8 L52.85 48.15 54.15 48.4 58.3 48.8" fill="#ffffff" fill-rule="evenodd" stroke="none"/>
    <path d="M68.65 50.9 Q68.8 51.65 68.4 52.5 L67.05 54.2 Q65.95 55.1 64.45 55.25 L61.25 55.2 57.95 54.45 55.3 53.7 52.45 52.85 49.85 52.15 48.0 51.85 Q47.15 51.85 46.25 52.4 45.4 52.9 44.8 53.5 L44.05 54.35 Q43.75 54.05 44.15 53.3 L45.35 51.8 47.05 50.6 48.7 50.35 50.6 50.85 53.1 52.0 56.0 53.05 59.6 53.95 63.1 54.35 65.7 53.9 67.8 52.5 Q68.5 51.8 68.65 50.9" fill="#b8d2ca" fill-rule="evenodd" stroke="none"/>
    <path d="M39.5 54.2 L38.5 51.95 37.35 49.15 Q36.85 47.7 37.0 46.45 37.2 45.15 37.8 44.15 L37.85 46.75 Q37.8 47.85 38.05 49.0 38.25 50.15 39.15 51.75 40.1 53.5 40.45 54.8 L40.8 57.25 40.55 59.65 Q40.35 60.9 40.7 61.75 41.05 62.65 41.7 63.05 L43.15 63.25 Q44.0 63.0 44.6 62.15 45.25 61.35 45.5 60.1 L45.45 61.1 Q45.2 62.45 44.35 63.25 43.5 64.05 42.4 64.1 41.35 64.2 40.35 63.45 39.75 62.9 39.8 62.15 L39.95 60.85 Q40.2 58.95 40.05 57.25 39.95 55.55 39.5 54.2" fill="#b8d2ca" fill-rule="evenodd" stroke="none"/>
    <path d="M-38.65 54.15 L-43.15 56.95 -47.85 60.0 -51.95 62.9 -54.55 65.15 -56.0 67.25 -57.6 70.15 -58.9 73.35 Q-59.4 74.95 -59.4 76.3 -57.85 77.05 -56.55 78.25 -55.25 79.5 -54.55 81.0 -53.85 82.55 -54.1 84.1 -54.35 85.7 -55.9 87.1 -56.45 87.65 -57.25 87.9 L-59.45 88.4 -62.95 88.8 -66.9 89.0 -72.05 88.95 -77.5 88.7 -82.5 88.3 -86.15 87.7 Q-87.6 87.3 -88.35 86.45 -89.05 85.55 -88.75 84.4 -87.8 81.25 -86.1 77.75 -84.4 74.25 -82.05 70.8 -79.75 67.3 -76.85 64.15 -73.95 61.0 -70.6 58.55 -67.2 56.1 -63.5 54.65 -61.7 54.0 -60.5 53.95 L-58.6 54.1 -57.7 54.5 -50.9 50.15 -43.85 45.6 Q-40.35 43.45 -37.35 41.95 L-35.4 41.85 Q-34.9 42.4 -35.1 43.8 L-35.8 46.95 -37.0 50.35 -38.15 53.05 -38.65 54.15" fill="#02483b" fill-rule="evenodd" stroke="none"/>
    <path d="M-56.4 79.95 Q-55.5 81.1 -55.25 82.6 -55.0 84.05 -55.85 85.65 -56.35 86.5 -57.8 87.0 L-61.65 87.7 Q-60.85 86.5 -60.6 84.85 -60.35 83.2 -60.75 81.5 -61.15 79.75 -62.3 78.3 -63.45 76.8 -65.4 75.9 L-62.6 76.35 -60.3 76.95 Q-59.5 77.2 -58.4 78.0 -57.3 78.75 -56.4 79.95" fill="#34a97d" fill-rule="evenodd" stroke="none"/>
    <path d="M-44.4 56.65 L-48.95 59.75 -52.95 62.65 Q-54.7 64.0 -55.45 64.9 L-56.75 66.9 -58.25 69.85 -59.55 73.1 -60.3 76.1 -63.7 75.45 -67.7 75.0 -71.2 75.25 -68.5 75.5 -65.75 75.8 Q-63.65 77.25 -62.65 78.95 -61.65 80.65 -61.5 82.35 -61.35 84.05 -61.75 85.45 -62.15 86.9 -62.85 87.75 L-63.25 87.8 -68.3 87.9 -74.95 87.9 -74.55 83.75 Q-74.45 81.6 -74.6 79.5 -74.8 77.45 -75.25 75.75 L-75.35 80.2 Q-75.4 82.35 -75.6 84.35 -75.8 86.3 -76.35 87.85 L-80.85 87.6 -85.3 87.1 Q-86.7 86.85 -87.15 85.95 -87.6 85.05 -87.3 83.95 -86.3 80.65 -84.6 77.2 -82.95 73.75 -80.6 70.35 -78.3 67.0 -75.5 64.0 -72.65 61.05 -69.45 58.75 -66.25 56.45 -62.7 55.15 -61.05 54.55 -60.2 54.7 -59.35 54.8 -59.0 55.2 -58.9 55.3 -59.15 55.6 L-59.5 56.15 Q-59.7 56.4 -59.5 56.4 L-58.4 55.85 -56.05 54.3 -52.25 51.75 -47.7 48.8 -43.15 46.0 -39.25 43.85 Q-37.9 43.2 -37.4 43.65 -36.9 44.1 -37.0 45.25 -37.15 46.4 -37.6 47.85 L-38.65 50.7 -39.7 52.95 -40.15 53.9 -44.4 56.65" fill="#34a97d" fill-rule="evenodd" stroke="none"/>
    <path d="M-56.45 80.0 Q-55.5 81.15 -55.25 82.6 -55.0 84.05 -55.9 85.7 -56.35 86.5 -57.85 87.05 L-61.7 87.75 Q-60.75 86.35 -60.55 84.45 -60.45 85.35 -59.95 85.75 L-58.75 86.05 Q-58.1 86.0 -57.5 85.6 -56.95 85.25 -56.7 84.65 -56.3 83.45 -56.65 82.15 -57.05 80.9 -57.95 79.8 -58.85 78.65 -60.05 77.8 L-62.4 76.45 -60.35 76.95 -58.45 78.0 -56.45 80.0" fill="#13765b" fill-rule="evenodd" stroke="none"/>
    <path d="M-75.65 84.85 Q-75.85 86.55 -76.3 87.9 L-80.8 87.65 -85.3 87.15 Q-86.3 87.0 -86.8 86.45 -87.3 85.9 -87.4 85.2 L-85.95 85.65 -83.6 86.05 -81.1 86.3 -79.25 86.3 -77.95 86.2 -76.75 85.85 -75.65 84.85" fill="#13765b" fill-rule="evenodd" stroke="none"/>
    <path d="M-62.85 87.8 L-63.25 87.8 -68.3 87.95 -74.95 87.95 Q-74.6 85.75 -74.5 83.4 -74.1 84.75 -73.05 85.55 -71.95 86.35 -70.45 86.7 L-67.3 87.1 -64.2 87.0 Q-62.9 86.9 -61.9 86.1 L-62.85 87.8" fill="#13765b" fill-rule="evenodd" stroke="none"/>
    <path d="M-41.9 48.85 L-41.7 50.4 -41.1 54.55 -45.25 57.25 -49.5 60.15 -53.15 62.85 -55.45 64.9 -56.75 66.9 -58.25 69.85 -59.55 73.1 -60.3 76.1 -63.5 75.5 -67.35 75.05 -70.8 75.2 Q-71.4 75.1 -71.65 74.55 -71.9 74.0 -71.75 73.25 L-71.0 71.85 -68.55 69.25 -66.05 66.65 -63.9 64.45 -61.1 62.1 -56.65 58.8 -51.35 55.1 -46.15 51.6 -41.9 48.85" fill="#13765b" fill-rule="evenodd" stroke="none"/>
    <path d="M39.05 45.2 L38.7 46.4 37.8 47.7 36.0 49.35 32.2 52.5 27.45 56.35 22.6 60.25 18.7 63.4 16.65 65.0 Q14.15 63.45 11.2 62.1 L5.4 59.65 Q2.5 58.6 0.2 57.9 L-3.35 57.05 -13.6 58.1 -21.4 59.5 Q-24.8 60.35 -27.6 61.7 L-28.75 62.2 -29.65 62.45 -30.8 62.65 Q-33.6 63.05 -36.15 61.65 -38.65 60.2 -40.45 57.25 -42.25 54.3 -42.85 50.25 -43.45 46.15 -42.4 41.3 L-41.05 36.55 -40.05 33.6 -39.6 32.75 -39.05 32.55 -38.45 32.6 -35.55 32.65 -33.2 32.25 -29.0 30.1 -24.1 27.2 -19.35 24.15 -15.65 21.5 -13.65 21.8 -9.3 23.4 -3.45 25.9 Q-0.3 27.35 3.1 28.9 L9.55 31.9 15.15 34.6 19.1 36.5 20.6 37.25 20.55 37.75 20.3 38.9 20.1 40.15 19.9 40.85 28.75 41.95 35.15 43.3 38.35 44.3 Q39.0 44.6 39.05 45.2" fill="#4e1d13" fill-rule="evenodd" stroke="none"/>
    <path d="M19.8 37.25 L19.65 37.9 19.3 39.35 18.9 40.8 17.25 40.9 15.2 41.25 Q14.05 41.6 12.85 42.35 12.55 42.6 12.65 42.8 L13.1 42.75 Q13.4 42.5 14.8 42.2 L18.55 41.85 22.95 42.05 27.5 42.65 31.75 43.4 35.05 44.1 36.8 44.65 Q37.8 45.1 37.85 45.7 37.9 46.3 37.15 47.2 L37.2 46.85 37.2 46.1 Q37.1 45.7 36.5 45.75 32.75 46.4 29.9 47.9 27.0 49.35 24.9 51.35 22.8 53.3 21.35 55.4 19.9 57.5 18.95 59.35 L17.4 62.45 16.5 64.0 Q14.4 62.75 12.05 61.6 L7.25 59.55 2.65 57.85 Q2.25 57.7 2.8 57.45 L4.3 56.95 6.25 56.65 7.75 56.65 9.15 56.65 9.75 56.6 8.95 56.35 6.6 56.05 3.4 56.0 -0.1 56.05 -3.3 56.25 -13.45 57.25 Q-17.85 57.8 -21.25 58.65 -24.6 59.5 -27.35 60.85 L-28.5 61.3 -29.4 61.55 -30.55 61.75 Q-33.35 62.15 -35.8 60.85 -38.2 59.55 -39.9 56.8 -41.6 54.1 -42.15 50.2 -42.65 46.35 -41.65 41.6 L-40.25 37.2 -39.25 34.55 -38.85 33.7 -38.3 33.5 -37.7 33.55 -34.85 33.35 -36.1 34.75 Q-36.45 35.3 -36.05 35.1 L-34.4 34.15 -30.7 31.95 -25.9 29.1 -21.05 26.15 -17.15 23.65 -15.2 22.15 -13.35 22.35 -9.2 23.8 -3.6 26.2 2.75 29.1 9.05 32.05 14.5 34.7 18.35 36.55 19.8 37.25" fill="#d07326" fill-rule="evenodd" stroke="none"/>
    <path d="M37.1 47.2 L37.15 46.85 37.15 46.05 Q37.1 45.7 36.5 45.75 32.7 46.4 29.85 47.85 27.0 49.35 24.9 51.3 22.8 53.3 21.35 55.4 19.85 57.45 18.9 59.3 L17.4 62.45 16.5 64.0 Q14.4 62.75 12.0 61.6 L7.2 59.5 Q4.8 58.55 2.65 57.85 2.25 57.7 2.75 57.45 L4.25 56.95 6.2 56.65 7.75 56.6 9.1 56.65 9.7 56.55 8.9 56.3 6.6 56.05 3.4 55.95 -0.1 56.05 -3.3 56.2 -13.5 57.25 -21.25 58.65 Q-24.65 59.45 -27.4 60.8 L-28.55 61.3 -29.45 61.55 -30.6 61.7 Q-33.3 62.15 -35.7 60.9 -38.1 59.65 -39.8 57.05 -41.45 54.45 -42.1 50.7 L-41.05 53.55 -39.65 56.2 -38.05 58.4 Q-37.1 59.4 -36.0 59.55 L-33.8 59.25 Q-32.6 58.85 -31.4 58.25 -26.55 55.95 -21.45 54.3 -16.35 52.65 -11.45 51.55 L-2.3 49.8 5.25 48.85 10.35 48.45 12.7 48.4 Q13.25 48.45 13.05 48.6 L12.15 49.0 10.6 49.45 9.1 49.95 Q8.0 50.4 7.2 50.95 6.45 51.45 6.45 51.95 6.5 52.4 7.9 52.65 L10.4 53.05 13.15 53.7 15.6 54.35 Q16.7 54.65 17.25 54.95 L18.4 55.65 19.25 56.2 19.85 56.05 Q22.65 52.8 25.65 50.4 28.65 48.05 31.45 46.65 34.3 45.25 36.6 45.0 L37.35 44.95 Q38.4 45.75 37.1 47.2" fill="#823d0d" fill-rule="evenodd" stroke="none"/>
    <path d="M2.75 29.1 L9.05 32.05 14.5 34.7 18.35 36.55 19.8 37.25 19.6 38.05 19.2 39.7 15.6 39.55 10.85 39.8 4.8 40.15 Q0.8 40.3 -2.3 39.25 -5.4 38.2 -7.65 36.45 -9.95 34.7 -11.5 32.7 L-14.0 28.85 -15.4 25.9 -15.8 24.7 -16.35 24.7 -17.85 24.9 Q-18.8 25.05 -19.95 25.45 L-16.8 23.35 -15.25 22.15 -13.4 22.35 Q-11.8 22.8 -9.25 23.8 L-3.6 26.2 2.75 29.1" fill="#823d0d" fill-rule="evenodd" stroke="none"/>
    <path d="M9.85 -6.95 L14.9 -5.1 16.05 3.15 10.15 0.4 9.85 -6.95" fill="#02483b" fill-rule="evenodd" stroke="none"/>
    <path d="M10.4 -6.8 L14.3 -5.25 15.45 3.0 10.9 0.6 10.4 -6.8" fill="#34a97d" fill-rule="evenodd" stroke="none"/>
    <path d="M10.4 -6.8 L14.3 -5.25 14.7 -2.25 12.75 -2.3 Q11.7 -1.95 10.8 -0.8 L10.4 -6.8" fill="#13765b" fill-rule="evenodd" stroke="none"/>
    <path d="M35.8 -52.55 L36.4 -59.4 Q36.85 -62.9 37.55 -66.05 38.05 -68.2 39.05 -68.85 L41.0 -68.7 Q42.05 -67.95 42.65 -65.95 43.45 -62.95 43.5 -58.75 43.5 -54.5 42.8 -49.55 42.05 -44.6 40.65 -39.4 L40.25 -39.1 39.3 -38.6 38.05 -38.4 Q37.4 -38.5 36.9 -39.15 36.35 -39.85 36.1 -41.4 L35.7 -46.3 35.8 -52.55" fill="#02483b" fill-rule="evenodd" stroke="none"/>
    <path d="M36.6 -52.65 L37.15 -59.0 38.15 -65.1 Q38.55 -67.1 39.35 -67.65 40.15 -68.2 40.9 -67.5 41.7 -66.8 42.15 -64.95 42.8 -62.2 42.8 -58.3 42.75 -54.4 42.1 -49.85 41.5 -45.25 40.3 -40.5 L39.85 -40.1 Q39.4 -39.75 38.75 -39.6 38.1 -39.45 37.55 -40.0 36.95 -40.55 36.7 -42.35 36.5 -44.25 36.45 -46.9 L36.6 -52.65" fill="#34a97d" fill-rule="evenodd" stroke="none"/>
    <path d="M41.95 -52.05 L42.5 -56.9 42.65 -61.8 Q42.85 -59.0 42.65 -55.55 L41.9 -48.25 Q41.3 -44.4 40.3 -40.5 L39.85 -40.1 37.95 -42.6 36.5 -44.75 36.45 -46.2 37.35 -45.75 39.45 -45.7 Q40.35 -46.4 40.95 -48.05 41.55 -49.75 41.95 -52.05" fill="#13765b" fill-rule="evenodd" stroke="none"/>
    <path d="M34.65 -48.05 Q37.65 -46.1 39.6 -43.65 L43.1 -38.6 Q45.15 -38.5 46.0 -37.5 46.85 -36.5 45.95 -34.6 46.75 -31.3 46.25 -27.4 45.7 -23.5 44.4 -19.5 L42.0 -12.7 39.9 -7.25 Q39.0 -4.9 38.9 -3.5 38.75 -2.1 39.75 -1.9 L40.2 -1.7 40.45 -1.45 Q40.4 -1.3 39.85 -1.2 L37.05 -0.85 Q35.0 -0.7 31.75 -0.8 L24.2 -1.75 Q19.95 -2.5 14.75 -4.3 10.8 -5.7 7.35 -8.3 3.85 -10.95 0.95 -14.35 -1.95 -17.8 -4.25 -21.6 -6.55 -25.35 -8.2 -29.05 L-10.85 -36.0 -10.9 -36.7 -10.35 -36.5 -9.35 -35.95 -8.75 -35.6 -9.05 -36.35 -9.65 -38.15 -10.15 -39.95 Q-10.3 -40.8 -9.95 -40.85 -9.6 -40.9 -9.1 -40.5 -7.5 -39.25 -5.5 -38.8 L-1.3 -38.55 Q0.8 -38.8 2.6 -39.7 4.4 -40.55 5.55 -41.9 L8.0 -44.85 10.4 -47.15 13.4 -48.95 17.8 -50.45 Q16.65 -52.5 15.25 -55.55 13.85 -58.6 12.4 -62.3 10.95 -66.0 9.65 -70.0 8.4 -74.05 7.5 -78.05 6.65 -82.1 6.35 -85.8 6.2 -88.75 7.25 -90.15 8.35 -91.5 10.3 -91.15 12.25 -90.85 14.7 -88.6 16.55 -86.85 18.6 -83.65 20.65 -80.45 22.55 -75.75 24.4 -71.05 25.65 -64.85 26.95 -58.65 27.25 -50.95 31.7 -50.0 34.65 -48.05" fill="#02483b" fill-rule="evenodd" stroke="none"/>
    <path d="M40.4 -41.65 L42.75 -38.05 43.05 -37.65 43.05 -37.85 43.1 -38.05 Q44.85 -37.95 45.4 -37.15 45.95 -36.35 45.15 -34.7 44.6 -33.75 43.3 -32.7 L40.55 -30.65 Q39.0 -29.7 37.7 -29.05 L35.7 -28.25 34.55 -28.35 Q34.25 -28.55 34.25 -28.85 L34.3 -29.35 34.35 -29.75 34.05 -29.55 Q33.6 -29.1 33.7 -28.55 33.75 -28.05 34.35 -27.75 L35.9 -27.8 Q37.85 -28.5 39.6 -29.5 L42.85 -31.65 45.3 -33.95 Q45.75 -31.95 45.65 -29.6 45.6 -27.3 45.1 -24.9 44.65 -22.45 43.8 -20.1 L41.45 -13.5 39.4 -7.7 Q38.55 -5.1 38.4 -3.5 38.25 -1.9 39.2 -1.7 L34.65 -1.45 29.4 -1.6 23.0 -2.6 Q19.45 -3.4 14.95 -4.95 11.15 -6.25 7.9 -8.65 4.7 -11.0 1.95 -14.15 -0.75 -17.25 -3.0 -20.8 -5.25 -24.4 -6.95 -28.1 L-10.0 -35.45 Q-9.15 -35.0 -8.6 -34.9 L-8.05 -34.1 -7.4 -33.3 -7.15 -32.95 -7.45 -33.55 -8.05 -34.8 -8.3 -35.5 -8.8 -37.0 -9.25 -38.65 -9.3 -39.35 -8.75 -38.45 -8.05 -37.45 -7.25 -36.7 -8.05 -38.0 -8.7 -39.4 -8.45 -39.25 Q-6.55 -38.2 -4.5 -37.95 -2.4 -37.7 -0.4 -38.0 1.6 -38.35 3.25 -39.15 4.85 -39.9 5.85 -41.0 L8.2 -43.75 10.6 -46.25 Q11.9 -47.4 13.8 -48.35 15.7 -49.3 18.55 -49.95 L20.85 -50.25 21.85 -50.3 21.25 -50.4 19.9 -50.45 18.3 -50.4 15.9 -55.8 13.15 -62.6 10.45 -70.25 Q9.15 -74.2 8.3 -78.05 7.4 -81.9 7.15 -85.35 7.0 -88.2 7.85 -89.5 8.7 -90.8 10.4 -90.45 12.1 -90.15 14.45 -88.0 16.2 -86.35 18.2 -83.1 20.15 -79.85 22.0 -75.1 23.85 -70.4 25.1 -64.35 26.4 -58.25 26.7 -51.05 L26.3 -50.95 25.65 -50.9 Q25.35 -50.85 25.55 -50.75 L26.75 -50.5 Q29.95 -49.85 32.5 -48.5 35.05 -47.15 37.0 -45.35 L40.4 -41.65" fill="#34a97d" fill-rule="evenodd" stroke="none"/>
    <path d="M43.8 -30.95 L43.2 -31.0 41.75 -30.1 39.1 -28.6 36.35 -27.15 Q35.1 -26.55 34.6 -26.45 33.75 -26.3 33.6 -26.8 33.5 -27.3 33.75 -28.3 L34.5 -27.7 35.9 -27.8 Q37.8 -28.5 39.55 -29.5 41.35 -30.5 42.8 -31.7 L45.3 -33.95 Q45.7 -31.95 45.65 -29.6 45.55 -27.3 45.1 -24.9 L43.8 -20.1 41.95 -14.95 Q41.05 -15.5 40.55 -16.45 40.1 -17.4 40.6 -18.35 42.1 -20.05 42.9 -22.15 43.75 -24.25 44.05 -26.25 44.35 -28.2 44.25 -29.6 L44.15 -30.25 43.8 -30.95" fill="#13765b" fill-rule="evenodd" stroke="none"/>
    <path d="M45.15 -34.7 Q44.6 -33.75 43.35 -32.7 L40.55 -30.65 38.5 -29.45 40.55 -30.8 42.9 -32.65 44.3 -34.05 45.45 -35.3 45.15 -34.7 M34.3 -29.4 Q34.6 -28.35 35.6 -28.4 36.35 -28.4 37.35 -28.85 L35.7 -28.25 34.6 -28.35 Q34.3 -28.55 34.25 -28.85 L34.3 -29.35 34.3 -29.4" fill="#13765b" fill-rule="evenodd" stroke="none"/>
    <path d="M32.65 -1.4 L25.1 -2.15 Q20.8 -2.95 14.95 -4.9 10.35 -6.55 6.5 -9.75 2.65 -12.9 -0.4 -17.05 -3.45 -21.2 -5.8 -25.75 -8.1 -30.3 -9.75 -34.75 L-7.85 -32.5 -6.45 -31.0 -5.9 -30.4 -6.15 -31.3 -6.8 -33.35 -7.55 -35.8 -5.55 -33.65 -2.45 -31.15 Q-0.65 -29.9 1.25 -29.05 3.15 -28.15 4.9 -27.9 6.65 -27.65 7.95 -28.35 L9.5 -27.75 13.5 -26.1 18.95 -23.65 24.85 -20.65 30.2 -17.3 Q32.6 -15.6 33.95 -13.9 35.35 -12.2 35.15 -10.65 34.75 -7.7 34.8 -5.85 34.85 -4.0 35.75 -3.0 36.65 -2.0 38.75 -1.65 L32.65 -1.4" fill="#13765b" fill-rule="evenodd" stroke="none"/>
    <path d="M35.9 -27.75 Q37.9 -28.5 39.8 -29.6 L43.15 -31.9 Q43.4 -29.7 42.2 -26.85 41.05 -24.05 38.4 -20.5 37.2 -19.0 36.25 -18.75 35.3 -18.45 34.6 -19.0 33.9 -19.5 33.45 -20.35 L32.75 -21.85 32.5 -22.55 32.75 -23.15 33.25 -24.55 33.95 -26.2 34.7 -27.6 35.9 -27.75" fill="#ffffff" fill-rule="evenodd" stroke="none"/>
    <path d="M37.9 -25.4 L35.3 -26.1 37.55 -24.45 36.65 -23.05 35.2 -21.75 33.75 -21.1 Q33.2 -21.05 32.9 -21.3 L32.6 -22.25 32.5 -22.65 32.75 -23.2 33.25 -24.6 33.95 -26.3 34.7 -27.7 35.9 -27.85 37.4 -28.45 Q37.9 -28.15 38.05 -27.3 L37.9 -25.4" fill="#111111" fill-rule="evenodd" stroke="none"/>
    <path d="M28.65 -31.95 Q29.25 -31.05 30.85 -31.0 L29.85 -30.25 28.7 -29.7 27.75 -29.45 26.65 -29.2 25.4 -28.75 24.85 -28.55 24.1 -40.65 24.0 -41.25 23.65 -42.5 23.15 -43.55 Q25.4 -42.65 26.35 -40.95 27.35 -39.25 27.65 -37.15 L27.9 -34.3 Q28.05 -32.9 28.65 -31.95" fill="#13765b" fill-rule="evenodd" stroke="none"/>
    <path d="M32.8 -32.9 Q32.55 -31.85 31.75 -31.2 30.95 -30.55 30.05 -30.5 29.2 -30.5 28.65 -31.25 28.05 -32.25 27.75 -33.7 L27.3 -36.65 26.7 -39.2 25.4 -41.45 24.0 -42.65 22.85 -43.25 Q22.1 -43.6 22.3 -43.7 L23.15 -43.55 25.05 -42.5 26.45 -41.1 27.4 -38.9 28.1 -35.7 28.65 -32.85 Q29.0 -31.65 29.5 -31.3 L31.05 -31.2 Q31.85 -31.6 32.5 -32.9 L32.85 -33.45 32.8 -32.9" fill="#02483b" fill-rule="evenodd" stroke="none"/>
    <path d="M24.05 -42.6 L25.4 -41.45 26.65 -39.2 27.25 -36.75 27.7 -33.95 Q27.95 -32.55 28.45 -31.5 28.2 -30.1 27.55 -28.7 L25.9 -25.7 Q24.6 -25.15 23.3 -25.3 22.0 -25.45 20.95 -26.05 19.85 -26.65 19.2 -27.4 18.55 -28.1 18.5 -28.65 18.25 -32.1 18.9 -35.0 19.5 -37.9 20.85 -39.9 22.15 -41.9 24.05 -42.6" fill="#ffffff" fill-rule="evenodd" stroke="none"/>
    <path d="M27.4 -37.85 Q26.7 -38.9 25.6 -39.65 24.5 -40.35 23.2 -40.45 21.9 -40.55 20.55 -39.65 21.6 -40.8 22.7 -41.15 L24.75 -41.3 Q25.75 -41.05 26.35 -40.45 L27.25 -38.8 27.7 -36.4 28.3 -33.4 28.65 -32.0 28.5 -32.45 28.05 -33.95 27.65 -36.0 27.4 -37.85" fill="#02483b" fill-rule="evenodd" stroke="none"/>
    <path d="M20.85 -39.95 Q22.2 -41.9 24.05 -42.6 24.9 -42.1 25.8 -40.85 24.85 -41.45 23.5 -41.3 22.15 -41.15 20.85 -39.95" fill="#12684e" fill-rule="evenodd" stroke="none"/>
    <path d="M23.9 -32.7 L20.5 -32.85 23.7 -31.1 Q23.25 -28.95 22.1 -27.95 21.0 -26.95 19.6 -27.05 L18.85 -27.9 18.5 -28.7 Q18.3 -31.4 18.65 -33.8 19.0 -36.2 19.85 -38.15 20.75 -38.85 21.7 -38.6 22.6 -38.3 23.25 -37.05 23.9 -35.8 23.95 -33.6 L23.9 -32.7" fill="#111111" fill-rule="evenodd" stroke="none"/>
    <path d="M40.45 -33.85 L38.65 -32.35 36.7 -30.85 35.45 -30.05 34.9 -30.1 Q34.65 -30.2 34.8 -30.5 L35.85 -31.25 37.65 -32.15 38.85 -32.9 40.45 -33.85" fill="#13765b" fill-rule="evenodd" stroke="none"/>
    <path d="M37.8 -22.95 Q40.7 -21.75 42.7 -19.9 44.7 -18.05 45.5 -15.85 46.35 -13.65 45.8 -11.35 45.25 -9.05 43.1 -6.85 41.3 -5.1 38.6 -4.0 35.85 -2.9 32.55 -2.45 L25.8 -2.05 19.2 -2.8 Q16.05 -3.45 13.55 -4.65 10.55 -6.1 8.65 -8.5 6.7 -10.9 5.8 -13.75 4.85 -16.6 4.8 -19.45 4.7 -22.3 5.45 -24.7 6.15 -27.1 7.5 -28.65 9.65 -30.95 12.05 -31.5 14.4 -32.0 16.6 -30.95 18.8 -29.85 20.5 -27.35 25.35 -27.0 29.6 -25.8 33.85 -24.65 37.8 -22.95" fill="#7b2d00" fill-rule="evenodd" stroke="none"/>
    <path d="M26.3 -26.1 L31.95 -24.5 37.25 -22.5 Q40.0 -21.4 41.9 -19.6 43.8 -17.85 44.6 -15.75 45.4 -13.6 44.9 -11.4 44.4 -9.2 42.3 -7.15 40.6 -5.55 38.0 -4.5 35.4 -3.5 32.25 -3.05 L25.85 -2.75 19.55 -3.45 Q16.5 -4.1 14.15 -5.15 11.25 -6.55 9.4 -8.85 7.5 -11.15 6.55 -13.9 5.6 -16.7 5.45 -19.45 5.35 -22.25 6.0 -24.6 6.6 -26.9 7.9 -28.3 10.0 -30.45 12.25 -30.95 14.45 -31.4 16.55 -30.4 18.65 -29.35 20.3 -27.0 L26.3 -26.1" fill="#fee36a" fill-rule="evenodd" stroke="none"/>
    <path d="M27.05 -14.35 L29.25 -12.25 31.05 -10.35 Q31.85 -9.6 32.6 -9.35 L34.15 -9.1 35.45 -9.3 34.65 -8.55 Q34.25 -8.15 33.65 -8.15 33.05 -8.15 32.0 -8.9 L29.2 -11.5 Q28.2 -11.4 27.7 -10.55 27.2 -9.75 27.0 -8.75 L26.8 -6.9 26.8 -6.1 27.95 -5.6 31.0 -4.75 35.4 -4.5 Q37.85 -4.65 40.55 -5.8 38.6 -4.55 36.0 -3.85 L30.5 -2.9 Q27.6 -2.6 24.65 -2.8 L19.0 -3.6 Q16.3 -4.2 14.15 -5.2 11.3 -6.55 9.4 -8.85 7.55 -11.1 6.6 -13.9 5.6 -16.65 5.5 -19.4 5.35 -22.2 5.95 -24.5 6.6 -26.85 7.85 -28.25 7.25 -27.3 7.2 -26.35 7.1 -25.45 7.35 -24.8 7.6 -24.15 7.95 -23.95 L9.1 -23.9 Q9.75 -24.15 10.15 -24.55 10.55 -24.95 10.3 -25.3 10.15 -25.55 10.5 -25.8 L11.45 -26.25 12.7 -26.35 Q13.35 -26.3 13.75 -25.8 13.9 -25.55 13.65 -25.5 L13.0 -25.4 12.45 -25.35 12.05 -24.4 Q11.8 -23.5 12.0 -22.3 12.2 -21.1 13.4 -20.1 14.4 -19.4 15.9 -18.85 L19.1 -17.75 22.3 -16.8 24.7 -15.95 27.05 -14.35" fill="#d59f32" fill-rule="evenodd" stroke="none"/>
    <path d="M29.7 -11.05 L26.4 -11.6 22.05 -12.5 16.85 -13.1 Q15.1 -13.2 13.7 -13.75 12.3 -14.35 11.4 -15.35 10.55 -16.4 10.45 -17.9 10.4 -19.4 11.35 -21.45 12.45 -19.75 14.2 -18.65 15.9 -17.55 18.0 -16.75 L22.3 -15.15 Q24.45 -14.4 26.35 -13.45 28.3 -12.5 29.7 -11.05" fill="#8c3000" fill-rule="evenodd" stroke="none"/>
    <path d="M24.2 -14.15 Q26.7 -13.15 28.4 -11.7 L25.2 -12.35 21.15 -13.15 16.65 -13.7 Q14.9 -13.8 13.55 -14.55 12.2 -15.35 11.6 -16.7 11.0 -18.0 11.45 -19.8 L11.7 -19.95 12.05 -19.85 Q12.95 -18.6 14.25 -17.75 15.6 -16.95 16.85 -16.5 L18.8 -15.85 21.5 -15.0 24.2 -14.15" fill="#c1c6cd" fill-rule="evenodd" stroke="none"/>
    <path d="M27.4 -12.85 Q28.6 -12.1 29.3 -11.15 L29.2 -10.2 29.0 -8.05 28.7 -5.7 28.5 -4.25 28.25 -3.95 27.9 -3.95 27.1 -4.3 25.85 -4.9 Q25.25 -5.2 24.75 -5.45 L24.3 -5.7 24.15 -5.6 23.9 -5.55 22.95 -5.95 21.55 -6.55 20.15 -7.15 19.35 -7.45 19.1 -7.65 19.15 -7.95 19.85 -10.05 20.75 -12.4 21.55 -14.4 21.9 -15.2 22.8 -14.95 24.9 -14.1 27.4 -12.85" fill="#46779d" fill-rule="evenodd" stroke="none"/>
    <path d="M28.85 -11.7 L28.0 -4.75 24.65 -6.55 25.35 -9.6 24.0 -6.3 19.75 -8.1 20.1 -9.0 20.85 -11.05 21.7 -13.35 22.35 -15.0 23.85 -14.45 25.8 -13.55 27.65 -12.55 28.85 -11.7" fill="#ffffff" fill-rule="evenodd" stroke="none"/>
    <path d="M32.1 -8.65 Q31.05 -9.0 30.1 -10.1 28.9 -11.45 27.45 -12.45 L24.05 -14.2 19.45 -15.7 Q15.75 -16.7 13.6 -18.35 11.5 -19.95 11.05 -21.8 10.6 -23.65 11.9 -25.3 L11.2 -25.0 Q10.95 -24.9 10.8 -25.1 L11.15 -25.65 12.3 -25.9 13.2 -25.75 13.35 -25.5 13.0 -25.4 12.4 -25.4 Q11.15 -23.75 11.5 -22.0 11.9 -20.2 13.9 -18.7 15.95 -17.15 19.65 -16.15 L24.25 -14.65 Q26.2 -13.85 27.65 -12.85 L30.3 -10.45 Q31.25 -9.4 32.25 -9.0 L34.1 -8.8 Q34.9 -9.0 35.4 -9.7 L35.4 -9.35 Q34.9 -8.65 34.0 -8.45 L32.1 -8.65" fill="#8c3000" fill-rule="evenodd" stroke="none"/>
    <path d="M16.6 -13.7 Q14.65 -13.85 13.2 -14.75 11.8 -15.7 11.35 -17.35 11.85 -17.9 12.45 -18.05 L13.75 -18.1 15.7 -17.0 17.5 -16.3 18.8 -15.9 20.95 -15.2 20.55 -13.25 16.6 -13.7" fill="#ffffff" fill-rule="evenodd" stroke="none"/>
    <path d="M15.05 -17.3 L14.2 -16.0 13.35 -14.7 13.0 -14.9 13.8 -16.15 14.65 -17.5 15.05 -17.3" fill="#476db1" fill-rule="evenodd" stroke="none"/>
    <path d="M20.25 -12.15 L19.6 -10.6 18.45 -8.7 17.05 -7.35 Q13.8 -8.45 11.95 -9.95 10.15 -11.5 9.35 -13.1 8.6 -14.7 8.6 -16.05 8.6 -17.35 9.05 -18.05 9.4 -18.5 9.85 -18.5 10.3 -18.5 10.3 -17.5 L10.5 -16.2 Q10.7 -15.4 11.6 -14.55 12.5 -13.75 14.55 -13.1 16.6 -12.4 20.25 -12.15" fill="#fee36a" fill-rule="evenodd" stroke="none"/>
    <path d="M34.85 -17.8 Q34.45 -17.3 34.0 -17.15 33.55 -17.05 33.15 -17.45 L32.15 -18.9 31.05 -20.95 30.15 -22.75 29.75 -23.5 36.0 -19.8 35.6 -18.8 34.85 -17.8" fill="#d59f32" fill-rule="evenodd" stroke="none"/>
    <path d="M33.5 -26.05 L36.35 -25.4 Q37.65 -24.95 38.4 -24.25 39.1 -23.45 38.9 -22.6 38.65 -21.7 37.85 -20.85 37.05 -20.0 36.0 -19.45 34.95 -18.85 34.05 -18.7 L32.9 -18.65 Q32.45 -18.75 32.2 -19.2 L31.6 -20.2 30.6 -22.0 29.45 -23.95 28.4 -25.6 28.3 -25.85 28.55 -26.0 30.7 -26.2 33.5 -26.05" fill="#690000" fill-rule="evenodd" stroke="none"/>
    <path d="M36.15 -20.2 Q35.5 -19.7 34.7 -19.4 L33.25 -19.3 Q32.5 -19.5 32.0 -20.5 L30.55 -22.9 30.0 -23.6 30.3 -23.3 31.15 -22.35 32.2 -21.3 33.0 -20.7 34.05 -20.5 35.3 -20.6 36.35 -21.0 Q37.0 -21.45 36.95 -21.15 L36.15 -20.2" fill="#962131" fill-rule="evenodd" stroke="none"/>
    <path d="M30.7 -25.7 L34.3 -25.45 37.05 -24.5 Q38.15 -23.9 38.3 -23.35 38.4 -22.5 38.15 -22.45 L37.55 -22.8 Q36.7 -24.05 35.55 -24.6 34.35 -25.2 33.1 -25.4 L30.7 -25.7" fill="#b32c55" fill-rule="evenodd" stroke="none"/>
    <path d="M37.15 -24.35 L37.55 -23.5 Q37.55 -23.0 37.2 -22.8 L35.9 -22.95 Q34.55 -23.6 33.95 -24.2 33.35 -24.8 33.6 -25.1 L34.45 -25.25 35.8 -25.05 Q36.55 -24.8 37.15 -24.35" fill="#b32c55" fill-rule="evenodd" stroke="none"/>
    <path d="M36.95 -24.4 L37.25 -23.8 36.95 -23.3 36.05 -23.45 Q35.05 -23.9 34.65 -24.35 34.25 -24.75 34.4 -24.95 L35.0 -25.05 36.0 -24.95 36.95 -24.4" fill="#f36389" fill-rule="evenodd" stroke="none"/>
    <path d="M23.7 -60.7 L22.75 -67.6 21.2 -74.65 19.25 -81.1 Q21.05 -77.75 22.65 -73.25 24.2 -68.75 25.3 -63.15 26.4 -57.55 26.7 -51.0 L26.3 -50.95 25.65 -50.85 Q25.35 -50.85 25.5 -50.75 L22.7 -50.6 Q23.5 -52.15 23.75 -54.8 L23.7 -60.7" fill="#13765b" fill-rule="evenodd" stroke="none"/>
    <path d="M40.45 -30.0 L41.35 -30.55 42.1 -29.25 42.4 -27.8 42.2 -26.6 Q42.35 -27.6 41.85 -28.55 41.3 -29.55 40.45 -30.0" fill="#02483b" fill-rule="evenodd" stroke="none"/>
    <path d="M41.35 -30.55 L43.2 -31.9 Q43.4 -29.85 42.4 -27.3 42.5 -28.1 42.2 -29.0 L41.35 -30.55" fill="#12684e" fill-rule="evenodd" stroke="none"/>
    <path d="M23.15 12.8 Q24.8 17.8 24.65 23.95 24.5 30.1 22.2 37.4 L22.25 38.2 21.7 38.8 20.95 38.95 16.75 38.4 11.5 38.25 5.8 38.1 0.35 37.5 Q-1.75 37.15 -4.0 36.05 -6.3 35.0 -8.45 33.3 -10.6 31.6 -12.35 29.4 -14.1 27.15 -15.15 24.4 -16.15 21.7 -16.2 18.55 -16.15 17.95 -15.65 17.75 L-14.5 17.8 Q-13.8 18.05 -13.2 18.8 -10.55 17.95 -8.75 16.6 -6.95 15.3 -5.75 13.7 -4.55 12.15 -3.8 10.55 L-2.55 7.55 Q-2.2 2.8 -1.45 -0.3 -0.7 -3.4 0.65 -5.0 2.05 -6.65 4.35 -6.95 L7.05 -6.75 Q8.2 -6.35 9.0 -5.65 L10.25 -4.1 10.9 -2.8 Q15.2 0.0 18.35 3.9 21.5 7.8 23.15 12.8" fill="#122a17" fill-rule="evenodd" stroke="none"/>
    <path d="M10.25 -2.3 L10.7 -1.5 10.85 -1.65 Q10.9 -1.8 11.0 -1.75 14.95 0.9 17.95 4.65 20.95 8.4 22.55 13.25 24.15 18.1 23.95 24.0 23.75 29.95 21.35 37.0 L21.35 37.3 21.5 37.4 Q21.6 37.8 21.3 38.05 L20.55 38.2 16.5 37.65 11.35 37.5 5.8 37.35 0.5 36.8 Q-1.95 36.35 -4.7 34.9 -7.45 33.5 -9.9 31.2 -12.3 28.9 -13.9 25.8 -15.5 22.75 -15.7 19.0 -15.7 18.25 -15.1 18.4 -14.5 18.55 -13.7 19.25 L-13.75 19.55 -13.8 19.8 -13.25 19.75 Q-10.0 18.7 -7.95 16.95 -5.9 15.2 -4.65 13.2 L-2.6 9.45 -2.85 12.2 -2.9 14.4 -2.85 16.85 -2.6 17.4 -1.85 17.65 -0.1 17.4 3.05 16.7 6.65 15.75 9.85 14.9 11.6 14.25 Q12.6 13.7 12.85 12.8 13.1 11.95 12.6 11.05 L11.8 9.5 Q11.4 8.6 11.15 7.55 L11.6 6.15 11.85 4.85 11.5 3.25 10.85 2.1 10.15 0.8 10.0 0.5 9.95 0.55 10.15 1.2 10.8 2.65 11.25 4.55 11.0 5.85 10.75 6.2 10.45 5.2 10.05 3.6 9.95 3.2 9.8 3.0 9.8 3.5 10.1 5.8 10.65 8.15 11.3 9.95 12.0 11.8 Q12.25 12.65 11.8 13.05 11.65 12.4 10.6 12.2 L7.95 12.15 4.55 12.9 Q2.75 13.4 1.15 14.2 -0.5 15.05 -1.65 16.05 -2.05 16.4 -2.15 16.2 L-2.3 15.55 -2.25 11.8 -1.85 7.45 Q-1.5 3.0 -0.9 0.15 -0.3 -2.7 0.95 -4.2 2.15 -5.7 4.35 -6.0 L7.5 -5.65 Q8.65 -5.05 9.3 -4.05 L10.25 -2.3" fill="#d52c0f" fill-rule="evenodd" stroke="none"/>
    <path d="M-43.7 56.25 L-48.5 59.5 -52.75 62.55 -55.45 64.9 -56.75 66.9 -58.2 69.85 -59.5 73.1 -60.25 76.1 -61.95 75.75 Q-61.95 73.9 -61.3 72.15 L-59.7 68.85 -57.75 66.1 -56.25 64.2 -54.5 62.7 -51.2 60.55 -47.3 58.25 -43.7 56.25" fill="#218969" fill-rule="evenodd" stroke="none"/>
    <path d="M43.5 70.0 Q47.15 71.0 49.4 73.05 51.6 75.15 52.2 77.8 52.8 80.45 51.5 83.2 L50.2 84.75 Q49.35 85.5 47.6 86.05 L43.0 87.0 37.25 87.45 29.5 87.6 20.75 87.55 11.95 87.35 4.15 87.05 -1.8 86.6 Q-2.95 86.45 -3.55 85.75 -4.15 85.05 -4.3 84.05 -4.45 83.05 -4.2 82.05 L-3.55 80.4 Q-1.6 77.65 0.95 74.9 L6.45 69.5 12.25 64.5 17.75 60.1 22.3 56.55 25.15 54.05 23.8 53.2 24.85 52.3 27.5 50.2 Q29.15 48.95 31.1 47.95 33.0 46.9 34.9 46.6 36.55 47.0 37.75 48.05 38.9 49.1 39.4 50.55 39.85 52.0 39.35 53.65 38.8 55.3 37.0 56.9 L31.0 62.05 25.7 66.95 21.85 70.85 23.4 70.55 27.4 70.0 32.75 69.5 Q35.65 69.3 38.5 69.4 L43.5 70.0" fill="#02483b" fill-rule="evenodd" stroke="none"/>
    <path d="M43.3 70.6 Q46.0 71.35 47.8 72.8 49.55 74.25 50.45 76.1 51.3 77.9 51.35 79.65 51.35 81.45 50.6 82.8 51.45 80.1 50.25 78.0 49.1 75.85 46.35 74.65 48.65 76.15 49.5 77.85 50.35 79.5 50.15 81.2 49.95 82.9 49.2 84.45 L47.8 85.1 45.5 85.7 Q46.35 84.4 46.3 82.9 46.25 81.4 45.3 80.0 44.4 78.6 42.65 77.55 40.95 76.55 38.45 76.2 41.05 76.9 42.6 78.1 44.1 79.25 44.7 80.7 45.3 82.1 45.15 83.45 44.95 84.85 44.2 85.9 L42.5 86.15 36.8 86.6 29.35 86.75 20.9 86.7 12.45 86.5 4.9 86.15 -0.95 85.75 Q-2.45 85.55 -2.9 84.6 -3.3 83.6 -3.0 82.4 -2.75 81.2 -2.1 80.25 0.25 76.95 3.4 73.75 6.6 70.55 10.15 67.6 L17.0 62.1 22.85 57.5 26.75 54.15 24.45 52.6 26.8 50.7 Q28.35 49.5 30.25 48.4 32.15 47.25 34.05 46.75 35.55 47.3 36.65 48.3 37.8 49.35 38.25 50.65 38.75 52.0 38.3 53.45 37.85 54.95 36.15 56.4 L31.95 60.1 27.55 64.05 23.5 67.85 20.3 71.05 19.5 71.55 17.65 72.75 Q16.6 73.5 15.75 74.35 15.2 74.95 15.4 75.1 L16.35 74.55 17.65 73.5 Q18.4 73.0 19.2 72.6 20.0 72.2 20.6 72.05 L21.8 71.8 24.9 71.25 29.25 70.65 34.2 70.15 39.1 70.05 43.3 70.6" fill="#34a97d" fill-rule="evenodd" stroke="none"/>
    <path d="M34.05 46.75 L35.65 47.55 Q33.55 48.05 32.1 49.05 L29.6 51.1 28.0 52.8 Q28.4 53.15 27.75 53.85 L25.75 55.55 22.8 57.55 25.1 55.65 26.7 54.15 24.45 52.6 26.8 50.7 30.2 48.4 Q32.1 47.25 34.05 46.75" fill="#13765b" fill-rule="evenodd" stroke="none"/>
    <path d="M35.15 70.1 Q34.85 70.45 33.8 70.6 L30.25 71.15 26.3 71.95 Q24.3 72.35 22.85 72.9 21.95 73.2 20.5 73.85 19.1 74.45 17.55 75.15 L14.75 76.45 12.8 77.3 Q12.1 77.55 12.45 77.25 L16.35 73.75 21.8 68.5 28.0 62.55 34.0 56.95 35.95 55.55 Q36.9 55.1 37.45 55.1 L36.15 56.4 31.95 60.1 27.55 64.05 23.5 67.85 20.3 71.05 19.5 71.5 17.65 72.75 Q16.6 73.5 15.75 74.35 15.2 74.95 15.4 75.1 L16.35 74.55 17.65 73.5 Q18.4 73.0 19.2 72.6 20.0 72.2 20.6 72.05 L21.9 71.8 25.25 71.2 29.95 70.55 35.15 70.1" fill="#13765b" fill-rule="evenodd" stroke="none"/>
    <path d="M50.95 81.1 L51.35 80.05 Q51.3 81.6 50.6 82.8 L50.95 81.1" fill="#13765b" fill-rule="evenodd" stroke="none"/>
    <path d="M41.1 84.95 Q42.65 84.75 43.65 84.2 44.65 83.7 45.15 83.0 45.1 84.65 44.2 85.95 L42.5 86.2 36.85 86.6 29.35 86.8 20.9 86.75 12.45 86.55 4.9 86.2 -0.95 85.8 Q-2.1 85.65 -2.6 85.05 -3.1 84.45 -3.15 83.6 L-2.85 81.85 Q-2.85 83.25 -1.9 84.25 -0.95 85.2 1.5 85.35 L6.6 85.8 15.1 86.3 Q20.2 86.45 26.75 86.2 L41.1 84.95" fill="#13765b" fill-rule="evenodd" stroke="none"/>
    <path d="M50.2 81.05 Q50.05 82.8 49.2 84.45 L47.8 85.1 45.5 85.7 Q46.35 84.45 46.3 82.95 46.7 83.5 47.3 83.6 47.9 83.65 48.65 83.05 49.4 82.5 50.2 81.05" fill="#13765b" fill-rule="evenodd" stroke="none"/>
    <path d="M20.55 8.55 Q22.5 12.15 23.4 16.5 24.25 20.8 23.8 25.95 23.35 31.05 21.35 36.95 21.3 37.25 21.4 37.25 L21.55 37.3 20.75 37.15 18.1 36.4 15.65 35.75 12.7 34.8 Q11.15 34.25 9.95 33.4 8.7 32.6 8.15 31.45 L7.3 28.95 6.45 25.45 5.65 21.6 5.05 18.3 4.65 16.2 7.7 15.45 10.2 14.7 11.6 14.2 Q12.6 13.6 12.85 12.75 13.15 11.85 12.65 11.0 L11.85 9.45 11.15 7.5 11.5 6.4 11.8 5.4 12.3 7.8 Q12.5 8.65 13.05 10.0 L14.1 12.75 14.75 15.5 Q14.8 16.4 14.35 16.8 13.85 17.25 13.2 17.35 L12.0 17.4 11.45 17.35 11.35 17.9 11.5 19.55 Q11.7 20.65 12.5 22.3 13.15 23.55 14.05 24.15 14.9 24.8 15.8 25.0 L17.25 25.25 17.9 25.2 18.35 24.75 19.4 23.4 20.6 21.2 21.4 18.2 21.5 15.4 21.15 12.05 20.55 8.55" fill="#a51d11" fill-rule="evenodd" stroke="none"/>
    <path d="M10.7 -1.55 L10.85 -1.7 Q10.9 -1.85 11.0 -1.8 L11.15 -1.75 10.9 -0.9 10.6 -0.05 Q10.5 0.45 10.8 1.4 L11.15 2.55 10.65 1.7 10.15 0.75 10.0 0.45 9.95 0.5 10.15 1.15 10.8 2.6 11.25 4.5 11.0 5.8 10.7 6.15 10.45 5.15 10.05 3.55 9.95 3.15 9.8 2.95 9.8 3.5 10.1 5.75 10.65 8.15 11.3 9.9 12.0 11.75 Q12.25 12.6 11.8 13.0 11.65 12.35 10.6 12.15 L7.95 12.1 4.55 12.85 Q2.75 13.35 1.15 14.2 -0.5 15.0 -1.65 16.0 -2.0 16.3 -2.15 16.2 -1.65 15.2 -0.1 14.25 1.5 13.3 3.7 12.6 5.95 11.85 8.3 11.55 L9.6 11.35 Q10.2 11.2 10.45 10.95 10.7 10.7 10.2 10.3 9.7 9.9 9.4 8.9 L8.9 6.65 8.1 4.1 7.55 2.3 7.55 1.55 7.7 1.4 8.0 1.35 8.6 1.15 8.95 0.55 8.8 -0.25 8.55 -1.1 8.5 -1.45 8.95 -0.9 9.4 -2.15 9.4 -3.95 10.25 -2.35 10.7 -1.55" fill="#a51d11" fill-rule="evenodd" stroke="none"/>
    <path d="M-12.4 24.2 L-12.05 23.15 Q-11.75 22.6 -11.25 22.35 L-10.2 22.5 Q-9.6 22.95 -9.05 24.4 -7.95 27.35 -6.0 29.65 -4.05 31.95 -1.4 33.5 -4.45 33.05 -6.9 31.7 -9.4 30.35 -10.9 28.35 -12.35 26.4 -12.4 24.2" fill="#a51d11" fill-rule="evenodd" stroke="none"/>
    <path d="M18.55 41.75 L18.75 41.75 15.0 42.35 11.75 43.35 9.45 44.0 Q8.6 44.1 8.65 43.7 8.7 43.35 10.1 42.45 L12.05 41.35 13.75 40.4 14.65 39.75 Q14.8 39.45 14.15 39.4 L19.3 39.25 18.85 40.75 17.25 40.85 15.15 41.2 Q14.05 41.55 12.85 42.3 L12.65 42.7 Q12.75 42.9 13.05 42.7 L14.75 42.1 18.55 41.75" fill="#823d0d" fill-rule="evenodd" stroke="none"/>
    <path d="M10.85 6.1 L10.75 6.15 10.7 6.1 10.85 6.1" fill="#225948" fill-rule="evenodd" stroke="none"/>
    <path d="M14.5 26.15 L23.6 27.6 Q23.2 30.8 22.2 34.3 L14.05 33.6 6.75 32.35 Q2.35 31.4 -1.0 29.8 -4.3 28.25 -6.85 25.6 -9.35 23.0 -11.35 18.95 -9.7 18.2 -8.4 17.25 -7.15 16.3 -6.2 15.2 -4.05 18.05 -0.9 20.15 2.25 22.25 6.15 23.7 10.05 25.2 14.5 26.15" fill="#225948" fill-rule="evenodd" stroke="none"/>
    <path d="M23.6 27.6 Q23.2 30.8 22.2 34.3 L9.25 32.9 8.15 31.45 7.45 29.5 6.75 26.8 6.05 23.7 Q10.0 25.2 14.45 26.15 L23.6 27.6" fill="#02403d" fill-rule="evenodd" stroke="none"/>
    <path d="M11.15 7.45 L11.5 6.25 Q13.45 6.75 15.45 7.7 17.4 8.65 19.2 9.95 21.0 11.25 22.45 12.95 23.65 16.5 23.9 20.6 22.7 19.7 20.55 18.6 18.4 17.5 15.85 16.45 L10.65 14.5 11.6 14.15 Q12.55 13.6 12.85 12.7 13.1 11.85 12.6 10.95 L11.8 9.4 Q11.4 8.5 11.15 7.45" fill="#225948" fill-rule="evenodd" stroke="none"/>
    <path d="M21.25 18.95 L21.35 18.1 21.45 15.1 21.05 11.5 22.45 12.95 Q23.65 16.45 23.9 20.6 L21.25 18.95" fill="#02403d" fill-rule="evenodd" stroke="none"/>
    <path d="M12.6 10.95 L11.8 9.4 Q11.4 8.5 11.15 7.45 L11.3 6.85 11.35 6.65 11.5 6.25 11.95 6.35 12.25 7.75 13.05 9.95 14.1 12.7 14.75 15.45 14.7 16.0 10.65 14.5 11.6 14.15 Q12.55 13.6 12.85 12.7 13.1 11.85 12.6 10.95" fill="#02403d" fill-rule="evenodd" stroke="none"/>
    <path d="M-2.8 11.35 L-3.4 11.0 -2.55 9.4 -2.8 11.35" fill="#225948" fill-rule="evenodd" stroke="none"/>
    <path d="M8.95 4.5 L10.05 5.55 10.6 8.05 11.3 9.9 12.0 11.75 Q12.25 12.6 11.8 13.0 11.65 12.35 10.6 12.15 L7.95 12.1 4.55 12.85 Q2.75 13.35 1.15 14.2 -0.5 15.0 -1.65 16.0 -2.05 16.35 -2.2 16.2 L-2.3 15.5 -2.25 11.75 -1.85 7.4 -1.7 5.55 -0.1 4.55 3.2 3.65 Q5.35 3.35 6.75 3.65 8.15 3.95 8.95 4.5" fill="#225948" fill-rule="evenodd" stroke="none"/>
    <path d="M8.9 6.55 L8.1 4.0 9.35 4.75 10.05 5.45 10.15 6.05 10.2 6.15 10.3 6.65 10.3 6.75 10.6 7.9 10.65 8.0 10.75 8.45 10.8 8.55 10.95 9.0 11.0 9.05 11.1 9.4 11.15 9.5 11.3 9.8 12.0 11.65 Q12.25 12.5 11.8 12.95 11.65 12.25 10.6 12.05 9.55 11.85 7.95 12.05 L4.55 12.75 Q2.75 13.3 1.15 14.1 -0.5 14.9 -1.65 15.95 L-1.85 16.05 -1.9 16.1 -1.95 16.15 -2.05 16.15 -2.15 16.1 Q-1.65 15.15 -0.1 14.2 1.5 13.25 3.7 12.5 L8.3 11.5 9.6 11.25 10.45 10.9 Q10.7 10.65 10.2 10.25 9.7 9.8 9.4 8.8 L8.9 6.55" fill="#02403d" fill-rule="evenodd" stroke="none"/>
    <path d="M-0.1 -2.45 Q0.55 -4.05 1.65 -4.9 2.7 -5.8 4.35 -6.0 L7.5 -5.65 Q8.65 -5.05 9.3 -4.1 L10.25 -2.3 Q8.55 -4.0 6.7 -4.5 4.9 -5.05 3.15 -4.5 1.4 -3.95 -0.1 -2.45" fill="#225948" fill-rule="evenodd" stroke="none"/>
    <path d="M9.5 -3.05 L9.4 -3.95 9.45 -3.95 9.65 -3.55 9.7 -3.5 9.9 -3.15 9.9 -3.1 10.1 -2.7 10.25 -2.35 9.5 -3.05" fill="#02403d" fill-rule="evenodd" stroke="none"/>
    <path d="M24.1 32.1 L18.15 32.2 14.0 32.1 10.2 31.4 Q8.55 30.85 7.35 29.6 6.2 28.35 5.45 26.05 L4.05 21.35 2.9 17.15 2.45 14.4 Q3.7 13.45 5.35 12.95 L8.5 12.55 10.95 13.05 Q11.4 15.2 12.15 17.35 12.85 19.55 13.65 21.25 L15.0 23.7 22.2 23.85 28.2 23.85 32.05 23.7 Q33.0 24.45 33.6 25.75 34.25 27.0 34.4 28.4 34.55 29.75 34.05 30.75 33.55 31.8 32.2 31.95 L24.1 32.1" fill="#02483b" fill-rule="evenodd" stroke="none"/>
    <path d="M25.25 31.35 L18.5 31.45 13.85 31.4 10.6 30.8 Q9.1 30.25 7.95 28.95 6.8 27.65 6.05 25.35 L4.75 21.05 3.6 17.0 Q3.1 15.15 2.95 14.05 4.05 13.35 5.35 13.0 L7.95 12.6 10.15 12.75 11.1 16.15 12.35 19.65 13.6 22.6 14.65 24.45 15.0 24.75 15.2 24.6 15.4 24.4 20.55 24.55 25.55 24.55 29.85 24.5 32.85 24.4 34.05 26.65 Q34.5 27.95 34.45 29.15 34.45 30.4 33.8 31.2 L25.25 31.35" fill="#34a97d" fill-rule="evenodd" stroke="none"/>
    <path d="M33.55 29.35 L33.85 27.6 33.8 26.05 Q34.45 27.45 34.45 28.9 34.5 30.3 33.8 31.2 L25.25 31.35 18.5 31.45 13.85 31.4 10.6 30.8 Q9.1 30.25 7.95 28.95 6.8 27.65 6.05 25.35 L4.75 21.05 3.6 17.0 Q3.1 15.15 2.95 14.05 4.05 13.35 5.35 13.0 L7.95 12.55 10.15 12.75 10.4 13.6 8.35 13.85 6.5 14.55 Q5.65 15.0 5.25 15.55 5.8 19.25 6.4 21.4 7.0 23.55 7.6 24.7 L8.7 26.6 10.1 28.0 Q11.0 28.6 12.05 29.0 L14.2 29.5 17.6 29.6 22.2 29.65 27.05 29.6 31.2 29.5 33.55 29.35" fill="#13765b" fill-rule="evenodd" stroke="none"/>
  </g>
</svg>
