<?xml version="1.0" encoding="UTF-8" standalone="no"?>
<svg xmlns:xlink="http://www.w3.org/1999/xlink" height="105.25px" width="100.1px" xmlns="http://www.w3.org/2000/svg">
  <g transform="matrix(1.0, 0.0, 0.0, 1.0, 56.25, 38.6)">
    <path d="M35.75 -25.6 Q45.45 -26.35 43.5 -15.15 41.45 -3.95 38.6 8.5 35.7 20.9 37.3 32.4 38.95 43.9 38.95 50.55 38.95 57.2 25.5 61.95 L18.1 64.1 Q9.95 65.95 0.2 66.5 L-7.05 66.65 -14.7 66.45 Q-24.0 65.95 -31.75 64.15 L-39.55 61.95 Q-53.05 57.2 -55.65 46.45 -58.25 35.65 -49.9 32.35 -41.55 29.0 -44.25 -27.0 -26.9 -37.05 0.1 -38.6 26.0 -24.85 35.75 -25.6" fill="#0000ff" fill-rule="evenodd" stroke="none"/>
  </g>
</svg>
