<?xml version="1.0" encoding="UTF-8" standalone="no"?>
<svg xmlns:xlink="http://www.w3.org/1999/xlink" height="131.5px" width="221.3px" xmlns="http://www.w3.org/2000/svg">
  <g transform="matrix(1.0, 0.0, 0.0, 1.0, 112.4, 66.8)">
    <path d="M-49.05 -3.25 L-54.95 -2.6 -60.25 -1.8 -57.85 -1.25 -55.3 -0.6 -52.95 0.1 Q-52.2 0.5 -51.5 1.25 L-50.4 2.85 -46.65 0.3 Q-44.85 -1.3 -43.65 -3.6 L-49.05 -3.25 M57.1 38.1 L56.55 37.45 55.7 37.5 Q55.15 37.7 54.75 38.4 54.4 38.95 54.3 39.7 54.15 40.45 54.25 41.15 L54.65 42.3 Q55.05 42.9 55.9 42.85 56.5 42.55 56.9 41.6 57.3 40.65 57.35 39.5 L57.35 39.3 57.1 38.1 M4.25 -2.35 Q3.1 -3.2 1.45 -3.85 -0.45 -2.55 -2.95 -1.95 -1.2 0.6 0.25 3.35 L0.45 3.35 0.65 3.35 2.55 0.55 4.25 -2.35 M5.65 -14.6 L5.9 -13.05 5.75 -11.2 8.25 -10.3 10.5 -9.3 Q13.8 -7.85 13.95 -4.75 L13.9 -3.7 Q13.75 -1.85 12.9 1.05 12.0 3.95 10.05 7.65 L10.95 9.4 11.3 11.2 11.1 12.75 13.15 14.45 Q16.3 17.2 16.45 20.0 L16.25 21.6 21.6 28.1 25.85 33.4 30.55 38.4 Q33.05 40.75 35.95 42.5 38.85 44.25 42.25 45.1 L49.75 45.6 Q48.45 44.45 47.85 42.65 47.5 41.6 47.45 40.5 47.4 38.85 47.85 37.3 48.3 35.75 49.25 34.4 51.0 31.95 53.2 30.95 55.4 29.95 57.6 30.2 59.75 30.4 61.4 31.55 63.05 32.75 64.0 34.6 64.9 36.45 65.0 38.7 L65.0 39.7 67.3 39.15 69.9 39.0 Q71.2 39.05 72.35 39.65 74.3 40.75 74.95 43.2 L75.6 44.05 Q76.65 44.65 78.55 44.8 L82.65 44.8 87.05 44.3 90.75 43.6 96.15 43.05 101.3 43.45 105.65 44.4 108.6 45.5 Q108.95 45.7 108.9 46.1 L108.05 48.95 107.75 49.3 107.35 49.25 Q106.6 48.85 105.05 48.25 103.5 47.65 101.25 47.15 L96.3 46.65 Q93.5 46.6 90.45 47.4 L87.5 48.0 83.5 48.55 79.15 48.8 75.1 48.6 Q73.3 48.3 72.2 47.65 71.25 47.05 71.05 46.2 70.7 44.7 69.75 44.25 67.6 43.35 62.25 46.55 L60.3 48.55 Q58.95 49.65 57.1 50.4 L53.2 51.55 49.05 52.05 45.15 52.1 Q39.85 51.8 35.6 50.15 31.35 48.45 27.85 45.85 24.3 43.25 21.3 40.15 L15.6 33.95 10.65 28.6 Q9.05 28.85 7.3 27.5 L6.15 28.2 6.05 28.8 5.9 29.65 5.8 30.35 6.95 31.0 7.9 32.1 8.35 33.85 8.15 35.8 6.95 39.15 Q9.4 40.05 12.35 41.45 L18.45 44.75 25.0 49.45 Q27.4 51.55 28.55 53.8 29.7 56.05 29.8 57.95 L29.7 59.2 Q29.35 61.25 27.75 61.85 L22.65 63.05 16.1 63.95 8.75 64.55 1.3 64.7 -5.7 64.4 -8.55 63.95 Q-10.05 63.55 -11.05 62.6 -12.1 61.6 -12.2 59.8 L-12.2 59.55 Q-12.2 56.55 -11.2 54.45 -10.15 52.3 -8.6 50.85 -7.1 49.45 -5.45 48.6 L-10.9 49.1 -15.7 48.7 -18.95 47.75 -21.2 46.4 Q-22.1 45.6 -22.35 44.35 L-22.45 43.35 -22.3 40.95 -21.85 38.25 -21.8 37.75 -21.6 36.75 Q-24.75 37.95 -27.7 39.75 -30.65 41.55 -33.35 43.95 L-34.75 45.45 -35.85 46.85 -37.0 48.35 Q-37.55 48.85 -38.15 48.75 -41.8 47.8 -44.75 45.9 -47.75 44.0 -49.85 41.2 L-52.75 43.0 -55.6 44.7 -57.85 46.05 -58.15 46.25 -58.5 46.5 -58.75 46.65 -61.2 48.75 Q-62.4 49.95 -63.05 52.15 -62.2 53.6 -61.8 54.95 -61.4 56.2 -61.35 57.3 -61.35 58.7 -61.6 59.65 L-62.15 61.1 -63.1 62.4 Q-63.65 62.85 -64.15 62.9 L-69.15 62.95 -73.85 63.0 -79.05 63.1 -84.15 63.1 -88.55 63.0 Q-90.8 62.9 -92.0 62.3 -93.2 61.7 -93.65 60.8 -94.15 59.9 -94.15 59.05 -94.25 56.5 -93.25 54.4 -92.3 52.3 -90.6 50.55 -88.95 48.8 -86.8 47.4 -84.65 46.0 -82.3 44.9 L-77.85 42.9 -72.75 40.95 -68.35 39.4 -63.15 37.5 Q-61.75 36.9 -60.0 35.85 L-56.35 33.6 -55.85 33.25 -54.8 32.6 -54.0 32.1 -54.25 30.4 -54.15 29.2 -53.65 28.45 -51.55 26.95 -48.45 24.55 -45.0 21.75 -50.05 21.55 Q-51.6 24.15 -54.0 25.9 L-54.25 26.0 -56.25 26.1 -59.15 26.2 -62.2 26.2 -64.65 26.15 -67.25 25.45 -70.4 23.45 Q-71.5 23.15 -72.4 22.6 L-74.9 23.15 -77.4 22.75 Q-78.55 22.3 -79.45 21.4 L-79.9 21.45 -80.1 21.5 -84.05 21.25 Q-85.9 20.7 -87.3 19.5 L-88.75 17.65 -89.3 15.5 -90.15 15.25 -91.3 14.95 -92.05 14.75 Q-93.2 16.35 -94.85 17.4 L-95.05 17.5 -96.65 17.6 -98.95 17.7 -101.4 17.75 -103.4 17.7 -105.0 17.35 -107.15 16.3 -109.4 14.4 Q-112.65 10.65 -112.35 4.6 -112.2 2.0 -111.5 0.2 -110.85 -1.6 -109.9 -2.75 L-108.05 -4.6 -105.65 -5.85 -103.45 -6.3 -101.85 -6.2 -100.4 -5.9 -98.35 -5.4 -96.05 -4.85 -93.95 -4.2 -93.15 -3.6 -92.5 -2.8 Q-92.15 -3.9 -91.35 -4.6 -90.5 -5.25 -89.25 -5.4 L-87.6 -5.1 -86.15 -4.4 -85.45 -3.85 Q-83.75 -2.55 -82.45 -1.9 -81.15 -1.3 -80.05 -1.0 L-77.85 -0.6 -76.1 -0.3 -74.1 0.2 Q-72.7 0.65 -71.65 1.2 -70.7 0.15 -69.55 -0.6 -70.7 -0.85 -71.55 -1.4 -72.45 -1.95 -72.9 -2.8 -73.25 -3.5 -73.25 -4.25 -73.3 -5.1 -72.85 -5.9 L-73.3 -6.1 -73.55 -6.2 Q-74.8 -6.7 -76.0 -7.35 -77.2 -8.05 -78.05 -9.15 -78.9 -10.3 -79.05 -12.15 L-79.05 -12.25 Q-79.1 -13.95 -77.8 -15.1 -76.55 -16.2 -74.15 -16.5 -71.75 -16.85 -68.65 -16.4 -71.45 -20.95 -73.2 -24.85 -74.15 -27.0 -74.65 -29.25 -75.2 -31.5 -75.3 -33.7 -75.4 -36.1 -75.0 -38.45 -74.65 -40.8 -73.7 -42.95 -72.1 -46.85 -69.05 -49.75 -66.05 -52.6 -61.85 -54.2 L-62.95 -54.95 -65.05 -55.25 -68.7 -54.85 -69.4 -54.95 -69.65 -55.25 -69.65 -55.35 -69.85 -55.35 -70.55 -55.45 -70.75 -55.75 -70.75 -56.2 -70.35 -56.6 -70.3 -56.6 Q-68.2 -57.35 -67.15 -58.0 L-65.85 -59.3 Q-65.6 -59.95 -65.65 -60.4 L-65.3 -60.9 -62.75 -61.1 Q-61.5 -60.95 -60.35 -60.25 L-58.6 -58.8 -57.35 -56.85 -57.25 -58.0 -57.5 -59.3 Q-57.95 -60.55 -59.1 -61.55 -60.3 -62.6 -62.05 -63.25 -62.8 -63.6 -62.8 -64.05 L-62.85 -64.15 -62.8 -64.3 -63.25 -64.5 -64.2 -64.85 -65.1 -65.25 -65.55 -65.4 -66.1 -65.8 -66.25 -66.15 -66.25 -66.35 -65.95 -66.7 -65.05 -66.75 -61.1 -66.2 -57.65 -66.1 -55.55 -66.05 -53.6 -65.85 Q-52.3 -65.65 -51.3 -64.8 -50.3 -63.95 -49.8 -62.6 L-49.5 -60.95 Q-49.45 -59.15 -50.45 -57.55 -46.5 -58.1 -42.9 -57.5 -39.3 -56.9 -36.35 -55.25 -33.35 -53.6 -31.25 -51.05 -29.2 -48.45 -28.25 -45.1 -26.7 -39.35 -26.0 -34.55 -25.35 -29.75 -25.2 -26.4 -24.05 -26.05 -23.25 -25.3 -22.45 -24.55 -22.05 -23.5 L-21.8 -22.15 Q-21.75 -20.15 -23.15 -18.0 L-22.7 -18.05 -22.55 -18.05 -16.8 -18.15 -10.75 -17.95 -4.85 -17.55 -0.95 -17.3 2.4 -17.15 Q4.0 -17.1 4.9 -16.0 L5.65 -14.6" fill="#ffffff" fill-rule="evenodd" stroke="none"/>
  </g>
</svg>
