<?xml version="1.0" encoding="UTF-8" standalone="no"?>
<svg xmlns:xlink="http://www.w3.org/1999/xlink" height="75.0px" width="69.55px" xmlns="http://www.w3.org/2000/svg">
  <g transform="matrix(1.0, 0.0, 0.0, 1.0, 54.15, 3.3)">
    <path d="M-14.55 -1.5 Q-13.85 -0.15 -13.85 0.45 -13.85 2.85 -16.55 2.85 -20.45 2.85 -20.45 -0.3 -20.45 -1.7 -18.9 -2.6 -17.7 -3.3 -16.8 -3.3 -15.5 -3.3 -14.55 -1.5 M-1.2 19.65 Q7.95 14.3 14.85 13.3 L15.15 13.2 Q15.4 13.3 15.4 14.15 -1.25 22.8 -10.35 28.25 L-10.15 28.45 Q-2.85 23.4 1.75 23.4 L-7.75 31.3 Q-16.4 38.15 -17.1 38.15 L-18.65 37.95 -19.3 38.45 Q-22.15 40.8 -23.5 40.8 L-25.5 40.15 -25.6 38.0 Q-25.6 34.65 -24.05 33.05 L-24.3 33.0 -24.8 31.9 -25.5 32.0 Q-28.15 32.0 -28.05 29.55 -28.05 27.0 -8.9 16.95 L-8.0 17.8 Q1.5 11.9 5.75 9.95 L-8.95 20.65 -9.8 21.3 Q-7.75 20.45 -6.65 20.45 -5.0 20.45 -4.35 21.6 L-1.2 19.65 M-23.95 2.2 Q-23.95 3.95 -25.75 4.3 L-27.75 2.75 Q-27.75 1.85 -25.75 0.65 L-23.95 2.2 M-36.4 23.3 Q-36.4 23.9 -37.3 24.95 -38.35 26.1 -39.5 26.1 L-41.1 25.85 -41.35 24.1 Q-41.35 22.9 -39.9 22.0 -38.8 21.3 -38.15 21.3 -36.4 21.3 -36.4 23.3 M-49.35 57.8 L-49.05 58.85 Q-49.05 59.7 -50.5 60.35 -51.7 60.9 -52.5 60.9 L-53.6 60.6 Q-54.15 60.05 -54.15 59.4 -54.15 58.7 -53.15 58.05 -52.1 57.35 -51.05 57.5 L-49.35 57.8 M-33.1 67.9 Q-32.65 68.95 -32.65 69.7 -32.65 71.75 -35.05 71.7 -38.35 71.7 -37.5 69.05 -37.5 66.25 -35.05 66.25 -33.75 66.25 -33.1 67.9 M7.4 44.3 Q7.4 45.25 6.45 46.45 5.3 47.95 3.6 47.95 0.65 47.95 0.25 44.75 0.25 41.8 2.8 41.8 7.4 41.8 7.4 44.3" fill="#d5ffff" fill-rule="evenodd" stroke="none"/>
  </g>
</svg>
