<?xml version="1.0" encoding="UTF-8" standalone="no"?>
<svg xmlns:xlink="http://www.w3.org/1999/xlink" height="56.65px" width="69.1px" xmlns="http://www.w3.org/2000/svg">
  <g transform="matrix(1.0, 0.0, 0.0, 1.0, 41.5, 14.3)">
    <path d="M12.35 -14.0 Q12.65 -14.35 12.65 -12.95 12.65 -11.35 10.1 -10.35 8.7 -10.7 8.7 -12.35 L8.8 -14.0 10.65 -14.3 12.35 -14.0 M27.6 9.95 Q27.6 11.85 26.95 12.35 26.4 12.8 24.15 13.05 15.2 13.95 6.7 16.55 3.55 17.5 -2.6 20.55 -7.7 23.15 -9.2 23.15 -11.0 23.15 -11.75 20.4 -11.75 19.15 -6.85 16.1 -1.75 12.95 1.75 12.3 2.75 11.6 1.35 11.6 L-4.45 12.65 -6.25 12.3 -6.35 10.65 Q-6.35 9.3 -2.9 8.75 3.9 7.65 9.45 5.8 L10.9 5.55 Q8.0 3.95 8.0 2.95 8.0 1.8 8.35 1.65 L13.4 1.2 Q20.05 1.2 24.4 5.15 27.6 8.05 27.6 9.95 M24.75 23.5 Q24.75 24.75 23.85 25.85 22.85 27.05 21.3 27.05 16.95 27.05 17.6 24.05 17.6 22.8 18.7 21.8 19.85 20.75 21.3 20.75 24.75 20.75 24.75 23.5 M16.0 4.45 L16.05 4.6 16.1 4.5 16.0 4.45 M8.35 28.6 Q8.35 30.45 6.45 30.45 L5.25 30.15 Q4.95 29.55 4.95 28.85 L5.05 27.6 6.15 27.35 Q7.8 28.15 8.35 28.6 M-14.95 13.2 L-14.85 13.6 Q-16.9 14.95 -20.0 15.75 -21.85 16.2 -21.85 17.45 L-27.5 21.45 Q-29.55 21.45 -29.25 19.3 -29.25 16.9 -25.75 14.7 -22.15 12.4 -17.65 12.4 -15.75 12.4 -14.95 13.2 M-21.3 25.4 L-20.0 25.6 -19.8 26.5 Q-19.8 27.2 -28.45 34.8 -37.0 42.35 -37.5 42.35 -41.8 42.35 -41.5 39.7 -41.5 37.85 -32.2 31.75 -23.7 26.15 -21.3 25.4" fill="#d5ffff" fill-rule="evenodd" stroke="none"/>
  </g>
</svg>
