<?xml version="1.0" encoding="UTF-8" standalone="no"?>
<svg xmlns:xlink="http://www.w3.org/1999/xlink" height="16.9px" width="38.15px" xmlns="http://www.w3.org/2000/svg">
  <g transform="matrix(1.0, 0.0, 0.0, 1.0, -1.3, -1.5)">
    <path d="M37.7 5.45 L37.35 10.9 Q37.3 11.4 36.9 11.7 L35.9 11.95 35.0 11.7 Q34.6 11.4 34.6 10.9 L34.25 5.45 Q34.15 4.55 34.65 4.05 35.1 3.55 36.0 3.55 36.85 3.55 37.3 4.05 37.8 4.55 37.7 5.45 M37.95 14.35 Q37.95 15.05 37.35 15.6 36.8 16.15 36.0 16.15 35.15 16.15 34.6 15.6 34.0 15.05 34.0 14.35 34.0 13.6 34.6 13.1 35.15 12.55 36.0 12.55 36.8 12.55 37.35 13.1 37.95 13.6 37.95 14.35" fill="#ff3300" fill-rule="evenodd" stroke="none"/>
    <path d="M30.25 4.1 Q30.9 4.6 30.9 5.65 30.85 6.7 29.7 7.85 28.7 8.95 26.75 10.0 L26.95 10.6 Q27.5 12.05 27.5 13.2 27.5 15.05 26.5 15.95 25.5 16.8 23.55 16.85 21.9 16.85 20.4 16.25 19.7 15.85 19.7 15.2 19.7 14.6 20.05 14.05 20.3 13.55 20.75 13.55 L21.6 13.7 22.8 13.9 24.25 13.7 24.55 12.7 Q24.55 12.05 22.95 9.25 L22.8 8.7 Q22.8 8.15 23.45 7.7 23.9 7.35 24.55 7.35 25.05 7.35 25.4 7.65 L26.55 7.0 27.0 6.4 26.7 6.3 19.35 6.3 Q18.7 6.3 18.4 5.95 18.05 5.65 18.05 4.95 18.05 4.3 18.45 3.9 18.75 3.65 19.35 3.65 L28.4 3.65 Q29.65 3.65 30.25 4.1 M14.55 3.95 Q16.1 3.95 16.1 6.25 L16.1 6.75 Q16.1 7.35 15.75 7.6 L14.75 7.85 14.75 8.15 14.6 9.0 Q14.3 9.4 13.7 9.4 L5.4 9.4 Q4.85 9.4 4.6 9.1 4.35 8.85 4.35 8.15 L4.35 7.85 3.3 7.6 Q2.95 7.3 2.95 6.75 L2.95 6.25 Q2.95 3.95 4.5 3.95 L7.75 3.95 Q7.85 3.55 8.2 3.3 8.55 3.0 9.4 3.0 10.2 3.0 10.6 3.3 L11.0 3.95 14.55 3.95 M13.3 6.75 Q13.3 6.4 12.9 6.4 L6.1 6.4 Q5.75 6.4 5.75 6.75 L5.75 6.95 13.3 6.95 13.3 6.75 M16.25 11.15 L16.05 12.05 Q15.7 12.5 15.05 12.5 L12.65 12.5 12.65 13.8 Q12.65 14.15 13.0 14.15 L13.25 14.15 13.4 14.05 13.55 13.55 Q13.6 13.2 13.9 13.0 L14.6 12.85 Q15.25 12.85 15.6 13.15 16.1 13.45 16.1 14.2 16.1 15.4 15.7 15.95 15.15 16.75 14.05 16.75 L11.4 16.75 Q9.65 16.75 9.65 15.15 L9.65 12.5 8.75 12.5 8.05 14.5 Q7.2 15.85 6.0 16.55 L4.85 16.9 Q4.2 16.85 3.5 16.3 3.0 15.85 3.0 15.3 3.0 14.9 3.25 14.65 L5.3 13.2 5.65 12.5 4.0 12.5 Q3.4 12.5 3.1 12.2 2.8 11.9 2.8 11.15 2.8 10.35 3.1 10.1 3.4 9.8 4.0 9.8 L15.05 9.8 Q15.7 9.8 16.0 10.1 L16.25 11.15" fill="#33ccff" fill-rule="evenodd" stroke="none"/>
    <path d="M37.7 5.45 L37.35 10.9 Q37.3 11.4 36.9 11.7 L35.9 11.95 35.0 11.7 Q34.6 11.4 34.6 10.9 L34.25 5.45 Q34.15 4.55 34.65 4.05 35.1 3.55 36.0 3.55 36.85 3.55 37.3 4.05 37.8 4.55 37.7 5.45 M30.25 4.1 Q30.9 4.6 30.9 5.65 30.85 6.7 29.7 7.85 28.7 8.95 26.75 10.0 L26.95 10.6 Q27.5 12.05 27.5 13.2 27.5 15.05 26.5 15.95 25.5 16.8 23.55 16.85 21.9 16.85 20.4 16.25 19.7 15.85 19.7 15.2 19.7 14.6 20.05 14.05 20.3 13.55 20.75 13.55 L21.6 13.7 22.8 13.9 24.25 13.7 24.55 12.7 Q24.55 12.05 22.95 9.25 L22.8 8.7 Q22.8 8.15 23.45 7.7 23.9 7.35 24.55 7.35 25.05 7.35 25.4 7.65 L26.55 7.0 27.0 6.4 26.7 6.3 19.35 6.3 Q18.7 6.3 18.4 5.95 18.05 5.65 18.05 4.95 18.05 4.3 18.45 3.9 18.75 3.65 19.35 3.65 L28.4 3.65 Q29.65 3.65 30.25 4.1 M37.95 14.35 Q37.95 15.05 37.35 15.6 36.8 16.15 36.0 16.15 35.15 16.15 34.6 15.6 34.0 15.05 34.0 14.35 34.0 13.6 34.6 13.1 35.15 12.55 36.0 12.55 36.8 12.55 37.35 13.1 37.95 13.6 37.95 14.35 M14.55 3.95 Q16.1 3.95 16.1 6.25 L16.1 6.75 Q16.1 7.35 15.75 7.6 L14.75 7.85 14.75 8.15 14.6 9.0 Q14.3 9.4 13.7 9.4 L5.4 9.4 Q4.85 9.4 4.6 9.1 4.35 8.85 4.35 8.15 L4.35 7.85 3.3 7.6 Q2.95 7.3 2.95 6.75 L2.95 6.25 Q2.95 3.95 4.5 3.95 L7.75 3.95 Q7.85 3.55 8.2 3.3 8.55 3.0 9.4 3.0 10.2 3.0 10.6 3.3 L11.0 3.95 14.55 3.95 M13.3 6.75 Q13.3 6.4 12.9 6.4 L6.1 6.4 Q5.75 6.4 5.75 6.75 L5.75 6.95 13.3 6.95 13.3 6.75 M16.25 11.15 L16.05 12.05 Q15.7 12.5 15.05 12.5 L12.65 12.5 12.65 13.8 Q12.65 14.15 13.0 14.15 L13.25 14.15 13.4 14.05 13.55 13.55 Q13.6 13.2 13.9 13.0 L14.6 12.85 Q15.25 12.85 15.6 13.15 16.1 13.45 16.1 14.2 16.1 15.4 15.7 15.95 15.15 16.75 14.05 16.75 L11.4 16.75 Q9.65 16.75 9.65 15.15 L9.65 12.5 8.75 12.5 8.05 14.5 Q7.2 15.85 6.0 16.55 L4.85 16.9 Q4.2 16.85 3.5 16.3 3.0 15.85 3.0 15.3 3.0 14.9 3.25 14.65 L5.3 13.2 5.65 12.5 4.0 12.5 Q3.4 12.5 3.1 12.2 2.8 11.9 2.8 11.15 2.8 10.35 3.1 10.1 3.4 9.8 4.0 9.8 L15.05 9.8 Q15.7 9.8 16.0 10.1 L16.25 11.15 Z" fill="none" stroke="#ffffff" stroke-linecap="round" stroke-linejoin="round" stroke-width="3.0"/>
    <path d="M37.7 5.45 L37.35 10.9 Q37.3 11.4 36.9 11.7 L35.9 11.95 35.0 11.7 Q34.6 11.4 34.6 10.9 L34.25 5.45 Q34.15 4.55 34.65 4.05 35.1 3.55 36.0 3.55 36.85 3.55 37.3 4.05 37.8 4.55 37.7 5.45 M37.95 14.35 Q37.95 15.05 37.35 15.6 36.8 16.15 36.0 16.15 35.15 16.15 34.6 15.6 34.0 15.05 34.0 14.35 34.0 13.6 34.6 13.1 35.15 12.55 36.0 12.55 36.8 12.55 37.35 13.1 37.95 13.6 37.95 14.35" fill="#ff3300" fill-rule="evenodd" stroke="none"/>
    <path d="M30.25 4.1 Q30.9 4.6 30.9 5.65 30.85 6.7 29.7 7.85 28.7 8.95 26.75 10.0 L26.95 10.6 Q27.5 12.05 27.5 13.2 27.5 15.05 26.5 15.95 25.5 16.8 23.55 16.85 21.9 16.85 20.4 16.25 19.7 15.85 19.7 15.2 19.7 14.6 20.05 14.05 20.3 13.55 20.75 13.55 L21.6 13.7 22.8 13.9 24.25 13.7 24.55 12.7 Q24.55 12.05 22.95 9.25 L22.8 8.7 Q22.8 8.15 23.45 7.7 23.9 7.35 24.55 7.35 25.05 7.35 25.4 7.65 L26.55 7.0 27.0 6.4 26.7 6.3 19.35 6.3 Q18.7 6.3 18.4 5.95 18.05 5.65 18.05 4.95 18.05 4.3 18.45 3.9 18.75 3.65 19.35 3.65 L28.4 3.65 Q29.65 3.65 30.25 4.1 M14.55 3.95 Q16.1 3.95 16.1 6.25 L16.1 6.75 Q16.1 7.35 15.75 7.6 L14.75 7.85 14.75 8.15 14.6 9.0 Q14.3 9.4 13.7 9.4 L5.4 9.4 Q4.85 9.4 4.6 9.1 4.35 8.85 4.35 8.15 L4.35 7.85 3.3 7.6 Q2.95 7.3 2.95 6.75 L2.95 6.25 Q2.95 3.95 4.5 3.95 L7.75 3.95 Q7.85 3.55 8.2 3.3 8.55 3.0 9.4 3.0 10.2 3.0 10.6 3.3 L11.0 3.95 14.55 3.95 M13.3 6.75 Q13.3 6.4 12.9 6.4 L6.1 6.4 Q5.75 6.4 5.75 6.75 L5.75 6.95 13.3 6.95 13.3 6.75 M16.25 11.15 L16.05 12.05 Q15.7 12.5 15.05 12.5 L12.65 12.5 12.65 13.8 Q12.65 14.15 13.0 14.15 L13.25 14.15 13.4 14.05 13.55 13.55 Q13.6 13.2 13.9 13.0 L14.6 12.85 Q15.25 12.85 15.6 13.15 16.1 13.45 16.1 14.2 16.1 15.4 15.7 15.95 15.15 16.75 14.05 16.75 L11.4 16.75 Q9.65 16.75 9.65 15.15 L9.65 12.5 8.75 12.5 8.05 14.5 Q7.2 15.85 6.0 16.55 L4.85 16.9 Q4.2 16.85 3.5 16.3 3.0 15.85 3.0 15.3 3.0 14.9 3.25 14.65 L5.3 13.2 5.65 12.5 4.0 12.5 Q3.4 12.5 3.1 12.2 2.8 11.9 2.8 11.15 2.8 10.35 3.1 10.1 3.4 9.8 4.0 9.8 L15.05 9.8 Q15.7 9.8 16.0 10.1 L16.25 11.15" fill="#33ccff" fill-rule="evenodd" stroke="none"/>
  </g>
</svg>
