<?xml version="1.0" encoding="UTF-8" standalone="no"?>
<svg xmlns:xlink="http://www.w3.org/1999/xlink" height="27.2px" width="55.6px" xmlns="http://www.w3.org/2000/svg">
  <g transform="matrix(1.0, 0.0, 0.0, 1.0, 65.85, -37.5)">
    <path d="M-22.7 39.95 Q-31.45 44.75 -33.6 46.95 -35.25 48.7 -38.85 51.55 -43.15 54.95 -44.4 54.95 -48.05 54.95 -48.35 50.15 -48.35 48.5 -47.2 47.15 L-43.5 43.7 Q-41.6 42.05 -35.7 41.0 L-27.15 39.35 -26.6 39.4 -26.6 39.35 Q-25.7 38.45 -22.2 38.45 L-19.6 38.85 Q-18.75 38.9 -18.45 39.2 L-18.5 39.6 -19.95 39.75 -20.85 39.55 -22.7 39.95 M-10.25 38.45 Q-11.25 39.45 -12.05 39.45 L-12.75 38.4 -12.75 37.65 -11.65 37.5 Q-10.95 37.5 -10.25 38.45 M-51.3 44.45 Q-51.05 44.9 -51.05 45.3 -51.05 46.5 -52.35 46.5 -54.0 46.5 -54.0 44.9 -54.0 43.7 -52.65 43.7 -51.75 43.7 -51.3 44.45 M-45.25 61.5 Q-44.95 62.3 -45.0 63.2 -45.0 64.7 -47.85 64.7 -50.15 64.7 -49.7 62.15 -49.7 59.85 -47.65 59.85 -45.9 59.85 -45.25 61.5 M-61.5 54.8 Q-61.25 55.6 -61.35 56.4 -61.35 57.75 -63.4 57.75 -65.55 57.75 -65.85 55.7 -65.85 55.1 -65.25 54.3 -64.5 53.3 -63.55 53.3 -62.0 53.3 -61.5 54.8" fill="#87f8ec" fill-rule="evenodd" stroke="none"/>
  </g>
</svg>
