<?xml version="1.0" encoding="UTF-8" standalone="no"?>
<svg xmlns:xlink="http://www.w3.org/1999/xlink" height="39.5px" width="38.2px" xmlns="http://www.w3.org/2000/svg">
  <g transform="matrix(1.0, 0.0, 0.0, 1.0, -14.6, -15.9)">
    <path d="M39.4 51.8 Q39.4 53.45 33.65 53.45 27.85 53.45 27.85 51.8 27.85 50.15 33.65 50.15 39.4 50.15 39.4 51.8" fill="#363737" fill-rule="evenodd" stroke="none"/>
    <path d="M28.0 53.5 L27.85 53.15 27.85 51.85 Q27.85 52.7 29.6 53.15 L31.3 53.4 33.65 53.45 35.7 53.4 37.0 53.25 37.45 53.15 Q39.4 52.75 39.4 51.85 L39.4 53.15 39.3 53.5 39.15 53.8 37.0 54.4 32.15 54.65 28.0 53.5" fill="#b84b03" fill-rule="evenodd" stroke="none"/>
    <path d="M39.15 53.8 Q38.6 54.45 37.45 54.85 L37.0 55.0 37.0 54.4 39.15 53.8" fill="#ec6002" fill-rule="evenodd" stroke="none"/>
    <path d="M37.0 55.0 L35.7 55.2 33.7 55.3 31.3 55.15 29.6 54.75 Q28.4 54.3 28.0 53.5 L32.15 54.65 37.0 54.4 37.0 55.0" fill="#ca5202" fill-rule="evenodd" stroke="none"/>
    <path d="M39.15 53.8 Q38.6 54.45 37.45 54.85 L37.0 55.0 35.7 55.2 33.7 55.3 31.3 55.15 29.6 54.75 Q28.4 54.3 28.0 53.5" fill="none" stroke="#8e3902" stroke-linecap="round" stroke-linejoin="round" stroke-width="0.2"/>
    <path d="M23.95 25.15 Q19.85 29.2 19.8 34.95 19.75 40.65 23.85 44.8 26.4 47.3 29.6 48.3 L31.3 48.7 32.05 48.8 33.65 48.9 35.7 48.75 36.45 48.65 37.45 48.4 Q40.8 47.5 43.45 44.9 45.55 42.75 46.6 40.2 47.55 37.85 47.6 35.1 47.6 29.35 43.6 25.25 39.5 21.15 33.75 21.15 28.0 21.1 23.95 25.15 M20.15 48.45 Q15.5 43.3 15.55 35.95 15.55 28.6 20.95 22.75 26.3 16.9 34.0 17.35 41.6 17.8 47.0 23.25 52.4 28.65 52.4 36.25 52.4 39.4 51.5 42.15 50.05 45.7 47.15 48.6 42.9 52.75 37.45 53.8 L36.45 53.95 35.7 54.0 33.6 54.1 32.05 54.05 31.3 53.95 29.6 53.7 Q24.25 52.55 20.15 48.45 M44.3 46.85 Q41.6 49.55 37.45 50.3 L36.45 50.45 35.7 50.55 33.9 50.6 32.05 50.5 31.3 50.4 29.6 50.05 Q25.6 49.0 22.45 45.85 L21.75 45.15 Q18.9 41.95 18.05 37.9 L17.9 37.05 Q17.4 35.5 17.35 32.8 17.0 34.45 17.05 36.25 17.0 42.75 21.3 47.5 L22.0 48.25 Q25.3 51.55 29.6 52.7 L31.3 53.05 32.05 53.15 34.0 53.25 35.7 53.15 36.45 53.1 37.45 52.95 Q42.3 51.95 46.0 48.25 48.9 45.3 50.1 41.7 50.95 39.15 51.0 36.25 L50.8 33.6 50.2 38.2 Q49.9 40.15 49.45 41.1 L48.55 42.55 44.3 46.85" fill="#ff6600" fill-rule="evenodd" stroke="none"/>
    <path d="M23.95 25.15 Q28.0 21.1 33.75 21.15 39.5 21.15 43.6 25.25 47.6 29.35 47.6 35.1 47.55 37.85 46.6 40.2 45.55 42.75 43.45 44.9 40.8 47.5 37.45 48.4 L36.45 48.65 35.7 48.75 33.65 48.9 32.05 48.8 31.3 48.7 29.6 48.3 Q26.4 47.3 23.85 44.8 19.75 40.65 19.8 34.95 19.85 29.2 23.95 25.15" fill="#ec6002" fill-rule="evenodd" stroke="none"/>
    <path d="M20.15 48.45 L17.6 45.35 17.55 45.2 Q14.55 40.65 14.6 34.9 14.65 27.0 20.25 21.45 25.9 15.85 33.8 15.9 41.7 15.95 47.3 21.55 52.85 27.2 52.8 35.1 52.8 38.9 51.5 42.15 52.4 39.4 52.4 36.25 52.4 28.65 47.0 23.25 41.6 17.8 34.0 17.35 26.3 16.9 20.95 22.75 15.55 28.6 15.55 35.95 15.5 43.3 20.15 48.45" fill="#fd751c" fill-rule="evenodd" stroke="none"/>
    <path d="M44.3 46.85 L48.55 42.55 49.45 41.1 Q49.9 40.15 50.2 38.2 L50.8 33.6 51.0 36.25 Q50.95 39.15 50.1 41.7 48.9 45.3 46.0 48.25 42.3 51.95 37.45 52.95 L36.45 53.1 35.7 53.15 34.0 53.25 32.05 53.15 31.3 53.05 29.6 52.7 Q25.3 51.55 22.0 48.25 L21.3 47.5 Q17.0 42.75 17.05 36.25 17.0 34.45 17.35 32.8 17.4 35.5 17.9 37.05 L18.05 37.9 Q18.9 41.95 21.75 45.15 L22.45 45.85 Q25.6 49.0 29.6 50.05 L31.3 50.4 32.05 50.5 33.9 50.6 35.7 50.55 36.45 50.45 37.45 50.3 Q41.6 49.55 44.3 46.85" fill="#973e02" fill-rule="evenodd" stroke="none"/>
    <path d="M35.5 21.05 Q34.5 20.35 34.5 19.35 34.5 18.4 35.5 17.7 36.5 17.0 37.85 17.0 39.25 17.0 40.2 17.7 41.2 18.4 41.2 19.4 41.2 20.35 40.2 21.05 39.25 21.75 37.85 21.75 36.5 21.75 35.5 21.05" fill="#fc8536" fill-rule="evenodd" stroke="none"/>
    <path d="M47.7 43.1 L47.45 44.65 46.15 45.05 44.75 45.4 38.75 46.25 33.75 46.45 26.25 46.0 23.9 45.6 22.25 45.25 21.65 45.1 20.85 44.9 19.95 44.6 19.7 42.95 19.7 42.8 Q19.2 39.25 19.2 35.0 19.2 30.15 19.7 26.6 L19.75 26.45 19.95 25.15 20.8 24.9 21.65 24.65 22.2 24.5 23.9 24.15 26.3 23.75 33.75 23.3 38.75 23.5 44.75 24.45 46.15 24.8 47.45 25.15 47.7 26.45 47.7 26.6 46.8 26.35 46.4 26.25 46.35 26.25 Q46.85 30.15 46.85 35.0 46.85 39.35 46.35 43.35 L46.35 43.45 46.75 43.35 47.7 43.1 M39.0 25.0 Q39.65 29.4 39.65 35.0 39.65 40.0 39.0 44.55 L39.15 44.55 45.0 43.75 45.0 43.7 Q45.5 39.5 45.5 35.0 45.5 29.95 44.95 25.9 L39.05 25.0 39.0 25.0 M20.6 26.35 Q20.1 30.05 20.15 34.95 20.1 39.35 20.6 43.05 L20.6 43.2 21.6 43.45 22.05 43.55 22.0 43.45 Q21.55 39.55 21.55 34.95 21.55 29.85 22.0 26.0 L21.65 26.05 21.05 26.2 20.65 26.35 20.6 26.35 M23.75 25.65 L23.7 25.65 Q23.15 29.65 23.15 35.05 23.15 39.85 23.65 43.85 L23.65 43.9 25.7 44.25 26.0 44.3 26.0 44.25 Q25.45 40.15 25.45 35.15 25.45 29.4 26.05 25.25 L25.95 25.25 23.75 25.65" fill="#2b2b2b" fill-rule="evenodd" stroke="none"/>
    <path d="M39.0 25.0 L39.05 25.0 44.95 25.9 Q45.5 29.95 45.5 35.0 45.5 39.5 45.0 43.7 L45.0 43.75 39.15 44.55 39.0 44.55 Q39.65 40.0 39.65 35.0 39.65 29.4 39.0 25.0 M23.75 25.65 L25.95 25.25 26.05 25.25 Q25.45 29.4 25.45 35.15 25.45 40.15 26.0 44.25 L26.0 44.3 25.7 44.25 23.65 43.9 23.65 43.85 Q23.15 39.85 23.15 35.05 23.15 29.65 23.7 25.65 L23.75 25.65" fill="#666666" fill-rule="evenodd" stroke="none"/>
    <path d="M47.7 43.1 L46.75 43.35 46.35 43.45 46.35 43.35 Q46.85 39.35 46.85 35.0 46.85 30.15 46.35 26.25 L46.4 26.25 46.8 26.35 47.7 26.6 Q48.25 30.3 48.25 35.0 48.25 39.15 47.75 42.95 L47.7 43.1 M20.6 26.35 L20.65 26.35 21.05 26.2 21.65 26.05 22.0 26.0 Q21.55 29.85 21.55 34.95 21.55 39.55 22.0 43.45 L22.05 43.55 21.6 43.45 20.6 43.2 20.6 43.05 Q20.1 39.35 20.15 34.95 20.1 30.05 20.6 26.35" fill="#3c3c3c" fill-rule="evenodd" stroke="none"/>
  </g>
</svg>
