<?xml version="1.0" encoding="UTF-8" standalone="no"?>
<svg xmlns:xlink="http://www.w3.org/1999/xlink" height="25.2px" width="27.35px" xmlns="http://www.w3.org/2000/svg">
  <g transform="matrix(1.0, 0.0, 0.0, 1.0, 13.65, 12.6)">
    <path d="M1.6 -12.55 L3.25 -12.4 Q4.9 -12.0 6.55 -11.05 L5.25 -11.65 Q3.45 -12.4 1.6 -12.55 M8.05 -10.65 Q11.6 -8.55 13.0 -4.7 14.75 0.15 12.15 4.9 9.55 9.7 4.2 11.65 -1.2 13.55 -6.25 11.55 -11.3 9.5 -13.0 4.65 -14.5 0.4 -12.65 -3.8 -14.0 -0.2 -12.7 3.5 L-11.85 5.35 Q-10.1 8.45 -6.4 9.95 L-3.1 10.8 Q0.05 11.15 3.35 10.0 8.35 8.2 10.8 3.7 12.1 1.3 12.25 -1.15 12.3 -3.2 11.6 -5.25 10.8 -7.35 9.4 -8.9 11.9 -6.4 12.25 -2.9 12.7 1.65 10.65 5.0 11.95 3.05 12.65 0.75 13.6 -2.4 12.3 -5.35 11.0 -8.3 9.25 -9.75 L8.05 -10.65" fill="#ff6600" fill-rule="evenodd" stroke="none"/>
    <path d="M6.55 -11.05 Q4.9 -12.0 3.25 -12.4 4.75 -12.15 6.25 -11.55 L8.05 -10.65 9.25 -9.75 Q11.0 -8.3 12.3 -5.35 13.6 -2.4 12.65 0.75 11.95 3.05 10.65 5.0 12.7 1.65 12.25 -2.9 11.9 -6.4 9.4 -8.9 L8.7 -9.6 6.55 -11.05" fill="#fd7a24" fill-rule="evenodd" stroke="none"/>
    <path d="M1.6 -12.55 Q3.45 -12.4 5.25 -11.65 L6.55 -11.05 8.7 -9.6 9.4 -8.9 Q10.8 -7.35 11.6 -5.25 12.3 -3.2 12.25 -1.15 12.1 1.3 10.8 3.7 8.35 8.2 3.35 10.0 0.05 11.15 -3.1 10.8 L-6.4 9.95 Q-10.1 8.45 -11.85 5.35 L-12.7 3.5 Q-14.0 -0.2 -12.65 -3.8 L-12.15 -4.9 Q-9.55 -9.7 -4.2 -11.65 L-1.05 -12.45 1.6 -12.55 M10.4 -1.35 Q10.45 -3.15 9.8 -4.95 8.95 -7.2 7.25 -8.75 6.0 -9.85 4.25 -10.55 0.1 -12.25 -4.3 -10.65 -8.7 -9.05 -10.85 -5.1 -12.95 -1.2 -11.55 2.75 L-10.8 4.4 Q-9.25 7.1 -6.0 8.4 L-3.1 9.15 Q-0.35 9.5 2.6 8.5 6.95 6.85 9.1 2.95 10.25 0.8 10.4 -1.35" fill="#fd6b0b" fill-rule="evenodd" stroke="none"/>
    <path d="M10.4 -1.35 L10.0 -2.65 9.35 -4.05 Q8.0 -6.45 5.2 -7.55 1.55 -9.05 -2.25 -7.6 -6.1 -6.25 -7.95 -2.8 -9.75 0.55 -8.55 4.0 -7.85 6.0 -6.3 7.35 -5.25 8.3 -3.7 8.95 L-3.1 9.15 -6.0 8.4 Q-9.25 7.1 -10.8 4.4 L-11.55 2.75 Q-12.95 -1.2 -10.85 -5.1 -8.7 -9.05 -4.3 -10.65 0.1 -12.25 4.25 -10.55 6.0 -9.85 7.25 -8.75 8.95 -7.2 9.8 -4.95 10.45 -3.15 10.4 -1.35" fill="#ec6002" fill-rule="evenodd" stroke="none"/>
    <path d="M-3.1 9.15 L-3.7 8.95 Q-5.25 8.3 -6.3 7.35 -7.85 6.0 -8.55 4.0 -9.75 0.55 -7.95 -2.8 -6.1 -6.25 -2.25 -7.6 1.55 -9.05 5.2 -7.55 8.0 -6.45 9.35 -4.05 L10.0 -2.65 10.4 -1.35 Q10.25 0.8 9.1 2.95 6.95 6.85 2.6 8.5 -0.35 9.5 -3.1 9.15" fill="#f46302" fill-rule="evenodd" stroke="none"/>
  </g>
</svg>
