<?xml version="1.0" encoding="UTF-8" standalone="no"?>
<svg xmlns:xlink="http://www.w3.org/1999/xlink" height="23.65px" width="29.55px" xmlns="http://www.w3.org/2000/svg">
  <g transform="matrix(1.0, 0.0, 0.0, 1.0, -18.95, -23.05)">
    <path d="M47.2 25.45 L47.2 25.55 Q47.95 29.55 47.95 35.0 47.95 39.9 47.2 44.3 L47.15 44.45 46.45 43.9 Q47.15 39.7 47.15 35.0 47.15 29.8 46.45 25.95 L47.2 25.45 M20.2 44.4 L20.15 44.3 Q19.45 40.2 19.45 35.0 19.45 29.3 20.15 25.55 L20.2 25.45 20.9 26.05 Q20.25 29.65 20.25 35.0 20.25 39.95 20.9 43.9 L20.2 44.4" fill="#5e5e5e" fill-rule="evenodd" stroke="none"/>
    <path d="M47.2 25.45 L46.45 25.95 46.45 25.9 Q40.9 24.25 33.75 24.25 26.25 24.25 20.9 25.9 L20.9 26.05 20.2 25.45 20.25 25.35 20.45 25.25 Q25.95 23.45 33.75 23.45 41.15 23.45 46.95 25.25 L47.1 25.35 47.2 25.45" fill="#3c3c3c" fill-rule="evenodd" stroke="none"/>
    <path d="M46.45 43.9 L47.15 44.45 47.1 44.5 46.95 44.6 Q41.3 46.3 33.75 46.35 25.95 46.35 20.45 44.6 L20.25 44.45 20.2 44.4 20.9 43.9 Q26.25 45.55 33.75 45.55 41.0 45.5 46.45 43.9" fill="#777777" fill-rule="evenodd" stroke="none"/>
    <path d="M46.45 25.95 Q47.15 29.8 47.15 35.0 47.15 39.7 46.45 43.9 41.0 45.5 33.75 45.55 26.25 45.55 20.9 43.9 20.25 39.95 20.25 35.0 20.25 29.65 20.9 26.05 L20.9 25.9 Q26.25 24.25 33.75 24.25 40.9 24.25 46.45 25.9 L46.45 25.95 Z" fill="none" stroke="#222222" stroke-linecap="round" stroke-linejoin="round" stroke-width="0.2"/>
    <path d="M33.75 23.3 Q25.65 23.3 19.95 25.15 19.2 29.1 19.2 35.0 19.2 40.4 19.95 44.6 25.65 46.45 33.75 46.45 41.65 46.45 47.45 44.65 48.25 40.1 48.25 35.0 48.25 29.35 47.45 25.15 41.5 23.3 33.75 23.3 Z" fill="none" stroke="#fd7a24" stroke-linecap="round" stroke-linejoin="round" stroke-width="0.5"/>
  </g>
</svg>
