<?xml version="1.0" encoding="UTF-8" standalone="no"?>
<svg xmlns:xlink="http://www.w3.org/1999/xlink" height="82.85px" width="305.2px" xmlns="http://www.w3.org/2000/svg">
  <g transform="matrix(1.0, 0.0, 0.0, 1.0, 158.75, -53.55)">
    <path d="M146.45 94.95 Q146.45 112.1 101.8 124.25 90.15 127.4 77.25 129.75 50.25 134.65 17.8 135.95 6.2 136.4 -6.15 136.4 -19.25 136.35 -31.6 135.85 -62.4 134.55 -88.15 130.0 -101.8 127.55 -114.05 124.25 -158.75 112.1 -158.75 94.95 -158.75 77.8 -114.05 65.65 -101.8 62.35 -88.15 59.95 -62.4 55.35 -31.6 54.05 -19.25 53.55 -6.15 53.55 6.2 53.5 17.8 54.0 50.25 55.25 77.25 60.15 90.15 62.5 101.8 65.65 146.45 77.8 146.45 94.95" fill="url(#gradient0)" fill-rule="evenodd" stroke="none"/>
  </g>
  <defs>
    <linearGradient gradientTransform="matrix(0.0, -0.0302, 0.1863, 0.0, -2.9, 102.2)" gradientUnits="userSpaceOnUse" id="gradient0" spreadMethod="pad" x1="-819.2" x2="819.2">
      <stop offset="0.0" stop-color="#330000"/>
      <stop offset="1.0" stop-color="#330000" stop-opacity="0.0"/>
    </linearGradient>
  </defs>
</svg>
