<?xml version="1.0" encoding="UTF-8" standalone="no"?>
<svg xmlns:xlink="http://www.w3.org/1999/xlink" height="230.65px" width="463.6px" xmlns="http://www.w3.org/2000/svg">
  <g transform="matrix(1.0, 0.0, 0.0, 1.0, 20.9, -23.8)">
    <path d="M442.7 252.7 L442.7 254.45 442.5 252.75 442.7 252.7" fill="#7f5597" fill-rule="evenodd" stroke="none"/>
    <path d="M159.4 89.6 Q164.5 91.9 167.45 94.45 170.35 97.05 170.75 99.4 171.1 101.7 168.6 103.3 L182.55 105.55 Q188.5 106.75 191.8 107.9 195.05 109.05 195.15 109.95 195.25 110.8 191.65 111.15 187.95 111.45 180.05 111.05 L159.3 109.1 Q152.95 111.15 145.95 111.9 138.9 112.6 131.85 112.1 124.8 111.55 118.45 110.05 112.1 108.5 107.1 106.1 103.25 107.8 97.65 109.1 92.1 110.45 85.4 111.15 L71.45 111.9 57.0 110.85 Q49.75 109.75 43.15 107.5 36.5 105.15 31.05 101.4 25.6 102.95 19.6 102.55 13.6 102.15 7.7 100.15 1.85 98.15 -3.4 94.9 -8.65 91.6 -12.65 87.5 -16.65 83.4 -18.85 78.8 -21.1 74.2 -20.9 69.5 -20.75 64.75 -17.65 60.35 -14.55 55.85 -7.95 52.05 -1.35 48.2 9.35 45.4 8.7 40.15 10.55 36.15 12.5 32.1 16.35 29.4 20.25 26.65 25.55 25.25 30.85 23.8 37.0 23.8 43.15 23.8 49.6 25.25 56.0 26.65 62.15 29.6 68.3 32.55 73.65 37.1 78.95 41.6 82.8 47.75 86.65 53.9 88.55 61.75 89.95 58.0 92.85 55.95 95.8 53.9 99.75 53.7 103.75 53.4 108.25 55.1 112.75 56.75 117.2 60.45 121.65 64.1 125.55 69.9 129.45 75.65 132.25 83.65 140.55 84.1 147.45 85.7 154.35 87.3 159.4 89.6" fill="#ffffff" fill-rule="evenodd" stroke="none"/>
  </g>
</svg>
