<?xml version="1.0" encoding="UTF-8" standalone="no"?>
<svg xmlns:xlink="http://www.w3.org/1999/xlink" height="139.7px" width="299.25px" xmlns="http://www.w3.org/2000/svg">
  <g transform="matrix(1.0, 0.0, 0.0, 1.0, 0.0, 0.0)">
    <path d="M299.25 6.6 L299.25 11.15 298.4 11.15 298.4 7.55 297.5 11.15 296.65 11.15 295.75 7.55 295.75 11.15 294.85 11.15 294.85 6.6 296.25 6.6 297.05 9.7 297.9 6.6 299.25 6.6 M292.75 7.45 L292.25 7.3 291.6 7.5 291.45 7.75 291.6 8.05 292.4 8.35 293.45 8.7 293.95 9.15 294.1 9.85 293.85 10.6 293.3 11.1 292.25 11.25 Q291.45 11.25 291.0 10.9 290.5 10.45 290.4 9.7 L291.3 9.65 291.65 10.3 292.3 10.45 293.0 10.3 293.2 9.85 293.05 9.6 292.75 9.35 292.05 9.2 291.0 8.75 Q290.55 8.4 290.55 7.8 L290.8 7.15 Q291.0 6.85 291.35 6.7 L292.25 6.55 Q293.05 6.55 293.5 6.95 293.95 7.3 293.95 7.95 L293.05 7.95 292.75 7.45 M211.0 107.1 L210.55 111.45 212.6 111.7 212.25 113.1 226.6 107.55 228.45 112.2 236.75 109.35 240.7 119.5 245.5 117.7 250.05 128.8 Q240.25 133.9 230.4 139.05 L224.4 127.5 223.85 131.6 223.6 133.45 209.1 130.75 209.4 129.65 209.9 127.5 210.25 126.05 209.25 126.3 208.8 126.45 208.75 126.3 207.25 131.9 193.45 129.05 193.8 128.0 194.7 125.75 195.55 123.3 182.7 129.2 179.45 123.55 179.15 126.75 179.0 128.15 177.45 128.1 174.1 127.95 170.55 127.8 168.65 127.7 168.45 128.0 168.05 127.7 167.9 127.7 167.9 127.55 165.8 125.65 161.8 122.2 161.3 122.55 161.0 122.7 160.7 122.85 160.4 123.0 160.05 123.15 159.9 123.25 159.7 123.3 159.3 123.4 158.95 123.45 Q158.85 123.45 158.7 123.55 L158.5 123.55 157.9 123.55 157.35 123.55 Q154.65 123.25 153.0 121.25 L152.25 120.15 145.55 126.75 138.15 118.25 135.55 127.05 123.65 124.8 123.95 123.8 124.55 122.05 124.85 121.05 123.2 121.1 121.0 121.1 120.8 126.4 107.7 125.05 107.75 123.95 107.9 121.4 108.15 118.4 96.2 132.45 87.2 123.3 87.05 132.7 75.65 134.5 75.65 133.95 75.65 132.85 74.25 133.3 Q73.25 133.65 72.4 133.95 L71.5 134.25 71.15 133.55 60.8 139.7 47.35 110.4 44.15 103.45 64.25 99.2 64.7 101.1 64.95 102.15 65.7 105.3 66.65 109.2 69.1 108.6 71.8 107.95 73.15 107.55 75.35 117.15 78.0 116.3 77.55 111.4 83.95 110.75 81.2 107.5 93.6 100.3 99.15 110.05 99.45 109.8 100.65 108.95 101.35 93.15 122.25 94.55 122.1 97.85 135.55 98.4 135.5 99.8 135.35 102.7 135.2 105.3 136.45 105.3 144.4 99.4 148.95 106.45 152.7 103.6 158.0 110.9 158.5 110.95 158.6 110.95 158.2 106.1 157.75 100.9 159.45 101.1 163.15 101.75 166.45 102.3 166.45 102.1 Q163.9 100.95 162.05 99.1 160.1 97.0 158.85 94.85 157.6 92.7 157.1 91.15 L156.5 89.6 157.75 83.2 156.3 83.0 132.85 81.3 133.85 75.8 129.15 75.7 128.6 79.4 108.15 78.5 109.55 72.25 Q107.05 73.55 104.55 73.5 100.05 73.25 97.25 70.4 95.4 76.15 91.95 79.85 88.55 83.5 84.1 84.55 L76.9 84.85 Q73.55 84.3 70.7 82.7 L72.2 88.8 41.9 102.4 35.85 51.75 18.85 57.45 9.15 19.0 61.1 22.25 63.5 32.75 Q67.75 27.75 74.9 26.05 80.75 24.95 86.15 29.15 91.5 33.35 95.05 41.35 97.6 37.9 101.2 36.3 104.75 34.6 108.45 34.8 111.65 35.1 114.3 37.3 116.95 39.5 118.6 43.15 L126.35 42.6 127.7 28.8 173.0 21.8 174.55 13.5 Q179.5 10.2 183.95 8.7 188.4 7.25 191.15 6.95 L194.0 6.65 204.85 14.6 203.95 19.9 209.0 17.9 217.35 21.75 218.35 24.3 219.6 29.95 Q220.1 33.55 220.0 38.7 L224.0 38.85 224.75 30.7 249.1 32.05 249.0 24.75 282.7 19.95 269.45 75.4 Q270.7 76.85 271.15 79.1 271.65 81.3 271.3 83.95 270.7 87.3 268.95 89.6 267.15 91.8 264.9 92.2 L263.9 92.35 261.65 92.6 259.15 93.05 256.45 93.35 249.75 94.15 241.0 95.25 232.25 96.3 225.55 97.1 222.85 97.45 Q221.0 99.75 218.35 100.85 215.65 101.85 213.2 101.5 210.6 100.9 208.85 99.1 207.1 97.15 206.3 94.75 205.4 92.4 205.55 90.35 L201.95 88.65 199.25 94.25 Q198.0 96.9 195.95 98.5 L181.45 101.95 181.45 102.0 181.25 104.8 181.95 104.95 183.2 105.05 183.85 105.2 183.8 107.35 188.0 105.45 189.25 108.95 190.8 113.3 191.6 113.0 191.45 109.05 193.95 109.35 194.0 106.4 194.1 100.05 211.35 103.75 211.0 107.1 M214.85 22.3 L212.0 21.05 210.45 20.3 210.7 21.2 211.1 23.55 217.5 26.25 216.35 22.95 214.85 22.3 M211.65 27.7 L211.95 32.4 211.8 37.35 218.35 38.45 218.5 35.75 218.15 29.5 211.65 27.7 M218.5 44.2 L214.0 44.25 208.05 44.4 208.1 44.4 208.05 44.4 212.35 75.3 212.4 75.3 212.4 75.35 221.0 75.5 221.0 75.45 221.0 75.35 221.05 75.4 224.0 69.25 227.15 77.55 227.15 77.6 229.9 77.5 232.6 77.45 235.4 77.4 235.35 77.35 235.4 77.35 240.3 38.85 240.25 38.85 240.25 38.75 227.1 39.4 227.2 39.5 227.15 39.5 227.15 39.45 225.8 50.85 223.35 46.0 223.35 46.1 223.35 46.05 223.3 46.15 223.3 46.0 221.3 50.95 219.6 44.15 218.5 44.2 M255.3 44.1 L253.4 40.25 242.55 40.1 242.5 40.1 242.55 40.15 242.5 40.15 240.9 75.45 252.65 75.1 252.65 75.05 252.7 75.05 253.35 67.2 256.3 72.5 256.35 72.5 256.35 72.55 265.65 72.55 265.6 72.5 265.65 72.3 265.75 72.5 274.55 27.7 255.15 29.6 255.15 29.65 255.05 29.65 255.3 44.1 M257.2 79.85 L254.35 80.15 254.1 86.05 252.85 80.75 248.3 81.2 248.4 90.0 250.95 89.8 251.4 84.35 252.8 89.7 256.35 89.25 257.2 79.85 M265.2 81.15 L265.6 79.1 258.95 79.75 258.4 89.1 264.0 88.5 264.45 86.9 261.45 87.2 261.55 85.2 264.05 85.0 264.5 83.3 261.7 83.5 261.95 81.45 265.2 81.15 M228.95 83.15 L224.4 83.6 224.5 92.4 227.05 92.2 227.55 86.8 228.9 92.1 232.45 91.65 233.3 82.25 230.45 82.55 230.2 88.45 228.95 83.15 M216.2 81.75 L217.6 83.4 Q218.1 84.1 218.35 85.5 218.55 87.35 218.05 89.25 L216.95 92.6 215.95 94.25 214.95 92.05 Q214.6 91.0 214.55 89.65 214.45 87.3 215.05 85.0 215.7 82.7 216.2 81.75 M218.0 79.85 Q215.5 79.5 213.35 81.5 211.2 83.45 210.4 86.85 209.75 90.3 210.95 92.8 212.1 95.35 214.55 95.9 217.0 96.25 219.25 94.25 221.35 92.35 222.2 88.9 222.85 85.5 221.65 82.95 220.45 80.35 218.0 79.85 M239.1 81.45 L235.6 81.75 235.2 91.15 240.85 90.65 241.0 89.05 238.25 89.2 239.1 81.45 M246.25 80.8 L242.75 81.1 242.5 90.5 245.4 90.2 246.25 80.8 M228.15 115.75 L227.95 115.65 228.05 115.75 227.95 115.8 232.35 123.3 237.95 121.1 237.95 121.05 234.95 113.35 228.15 115.75 M209.1 117.6 L210.8 122.55 214.55 121.5 212.95 128.2 220.8 129.65 220.8 129.6 220.9 129.7 222.3 118.8 227.05 117.25 226.85 117.2 227.0 117.15 224.75 111.55 209.1 117.6 M228.85 123.6 L227.1 120.6 225.1 121.2 224.7 125.15 228.85 123.6 M227.9 127.35 L227.85 127.35 231.75 134.8 246.0 127.35 246.0 127.3 246.0 127.25 245.95 127.25 243.75 121.75 228.0 127.3 227.85 127.25 227.9 127.35 M168.05 26.3 L168.05 26.25 132.7 31.9 132.7 42.65 132.7 42.75 132.8 42.65 142.3 43.25 138.1 76.2 138.2 76.2 138.2 76.25 154.6 78.4 154.55 78.35 154.65 43.3 154.6 43.25 154.65 43.3 165.85 43.7 165.75 43.6 168.1 26.3 168.05 26.3 M171.6 37.3 L171.55 37.35 170.65 43.3 170.7 43.3 170.2 46.7 162.05 46.05 162.05 47.9 161.9 49.95 166.9 52.45 Q165.65 55.1 164.8 58.75 L164.75 58.8 164.3 60.7 160.35 61.35 Q159.8 63.55 159.6 65.4 L159.7 65.4 159.45 68.55 159.45 68.8 159.35 68.8 Q159.35 71.65 159.65 74.2 L162.45 75.2 163.4 75.55 163.85 78.3 164.2 80.45 164.3 80.4 164.3 80.75 163.2 84.15 163.1 84.15 162.0 87.45 163.2 89.9 163.25 89.85 163.9 91.15 Q164.6 92.3 165.4 92.95 L167.55 94.35 172.5 87.95 Q174.7 88.1 176.95 87.25 L183.2 93.35 Q185.65 92.35 188.05 89.75 190.5 87.1 192.05 83.2 L191.15 81.25 189.25 76.7 190.5 74.5 191.6 72.1 192.75 72.5 197.95 74.3 Q198.9 73.3 200.05 70.85 L202.1 65.1 203.8 59.0 204.55 54.3 202.45 53.3 202.55 53.25 199.65 51.85 Q200.35 48.45 200.15 44.2 L206.7 39.8 Q207.5 35.6 207.0 31.85 206.7 29.65 206.05 27.7 L206.0 27.7 204.7 24.85 204.65 24.85 204.55 24.7 196.75 27.5 195.05 25.75 Q194.0 24.8 191.3 24.05 L191.45 14.2 188.0 14.75 Q185.85 15.15 183.5 15.9 181.1 16.55 178.95 17.6 L177.7 24.95 175.65 26.2 173.0 27.8 172.85 28.65 172.8 28.7 171.75 35.45 171.85 35.4 171.6 37.3 M191.0 37.65 Q190.05 36.15 188.85 35.0 187.65 33.85 186.35 33.2 185.0 32.55 183.55 32.45 L182.3 32.45 180.05 33.1 Q178.75 33.65 177.4 34.75 L177.15 33.9 Q179.15 30.75 182.3 29.45 185.4 28.05 188.5 29.2 189.4 29.55 190.25 30.2 L191.8 31.7 193.5 34.6 194.2 36.75 Q195.2 40.7 194.75 46.8 L194.2 47.15 Q194.0 43.75 192.55 40.55 L191.0 37.65 M195.25 22.4 L202.5 20.35 194.2 15.85 193.6 21.65 195.25 22.4 M203.25 15.85 L194.9 10.05 194.5 13.2 202.8 17.8 203.25 15.85 M175.5 49.95 L181.45 53.35 181.85 52.25 176.4 48.05 175.5 49.95 M172.75 56.5 Q172.85 54.6 173.35 52.6 174.2 48.75 176.0 45.8 177.75 42.85 180.05 41.55 182.3 40.2 184.45 40.8 186.65 41.45 187.95 43.85 189.2 46.1 189.5 49.5 L189.6 51.7 Q189.5 54.15 188.9 56.85 L188.85 57.15 187.65 60.95 186.3 63.7 Q184.5 66.6 182.25 67.95 179.95 69.25 177.8 68.7 175.6 68.0 174.3 65.65 L173.85 64.8 Q173.25 63.4 172.95 61.65 L172.75 59.95 Q172.6 58.3 172.75 56.5 M70.6 16.4 Q74.1 13.9 78.15 14.5 82.25 15.1 85.75 17.8 89.25 20.55 91.1 24.5 L89.25 25.9 Q86.8 23.4 82.85 21.95 78.9 20.4 74.55 21.2 70.2 21.95 66.6 26.15 L65.2 25.4 Q67.05 18.9 70.6 16.4 M17.1 26.4 L17.05 26.4 17.15 26.45 17.15 26.5 17.05 26.4 23.0 49.95 38.9 45.7 43.1 73.85 45.7 91.2 45.85 92.35 45.9 92.35 67.5 84.95 67.45 84.9 67.5 84.9 67.4 84.7 67.55 84.75 53.4 41.3 59.25 39.5 60.65 39.1 62.05 38.7 62.1 38.65 59.1 26.55 17.1 26.4 M76.7 31.75 L76.65 31.75 Q74.65 32.25 73.0 33.6 L72.8 33.75 Q71.45 34.85 70.35 36.45 67.75 40.2 66.8 45.8 65.85 51.4 66.8 57.85 67.9 64.25 70.55 69.05 73.2 73.8 76.75 76.25 80.25 78.6 84.1 77.8 87.9 76.9 90.4 73.1 92.95 69.3 94.0 63.75 L94.25 62.2 Q94.9 57.3 94.1 51.85 L93.9 50.9 93.7 50.0 93.5 49.0 93.4 48.7 93.25 48.1 92.75 46.25 Q91.8 43.05 90.4 40.5 L88.6 37.65 87.85 36.75 87.3 36.15 86.95 35.7 86.2 34.9 Q85.15 33.9 84.05 33.25 L82.8 32.55 82.5 32.45 82.35 32.35 82.0 32.25 81.95 32.2 81.6 32.1 81.45 32.05 78.7 31.55 78.6 31.55 78.15 31.6 77.6 31.65 77.45 31.65 77.1 31.7 77.2 31.7 76.8 31.75 76.75 31.75 76.7 31.75 M81.45 45.0 Q82.45 44.05 83.8 43.9 86.5 43.75 88.85 46.7 91.15 49.65 91.95 54.35 92.6 59.05 91.3 62.35 89.95 65.65 87.25 66.1 84.45 66.25 82.15 63.4 79.8 60.45 79.0 55.75 78.55 52.75 79.0 50.25 81.95 49.95 83.8 51.05 85.7 52.15 86.65 53.4 L87.55 54.8 87.25 52.65 Q86.95 50.8 85.65 48.6 84.35 46.4 81.45 45.0 M101.4 33.1 L99.75 32.3 Q101.0 29.0 103.9 27.5 106.65 26.05 110.05 27.15 113.35 28.3 116.0 32.75 L114.3 33.6 Q111.3 31.25 107.9 30.85 104.6 30.45 101.4 33.1 M110.35 39.15 L110.15 39.15 110.05 39.1 110.0 39.1 109.85 39.1 109.5 39.05 109.45 39.05 109.2 39.05 109.15 39.05 109.05 39.05 109.0 39.05 108.9 39.05 108.75 39.1 108.7 39.1 108.55 39.1 108.5 39.1 108.15 39.15 108.1 39.15 107.9 39.2 107.85 39.2 107.75 39.25 Q106.5 39.5 105.3 40.25 L104.4 40.95 103.2 42.1 Q102.15 43.2 101.4 44.6 L101.15 45.1 Q100.05 47.2 99.5 49.75 L99.35 50.1 99.25 50.6 99.15 51.15 99.05 52.0 98.9 54.35 99.15 57.15 99.3 58.15 99.5 58.8 Q100.15 61.55 101.65 63.45 103.4 65.5 105.85 65.95 L106.45 66.0 106.95 66.0 108.25 65.8 108.5 65.7 109.0 65.5 110.05 65.05 110.4 64.9 110.6 64.85 112.75 63.0 Q115.85 59.6 116.9 53.95 L117.05 52.4 117.05 52.15 117.05 52.05 117.05 52.0 117.05 51.9 117.05 51.8 117.1 51.45 117.1 51.25 Q117.15 48.9 116.75 47.0 L116.35 45.35 115.7 43.8 115.65 43.65 115.6 43.55 115.35 43.05 113.85 41.1 113.75 41.0 113.65 40.9 113.3 40.6 Q112.05 39.55 110.55 39.2 L110.4 39.15 110.35 39.15 M110.85 46.3 Q112.75 46.45 113.9 48.45 115.05 50.4 114.9 53.3 114.75 56.15 113.35 58.0 112.05 59.85 110.15 59.85 108.2 59.7 107.05 57.7 105.85 55.7 106.0 52.85 106.05 51.1 106.75 49.6 108.4 49.85 109.6 50.65 L111.3 52.1 111.9 52.95 111.9 51.7 Q111.9 50.55 111.4 49.2 110.8 47.7 109.15 46.7 109.95 46.25 110.85 46.3 M128.05 60.55 L128.35 49.5 126.05 47.45 128.0 60.45 126.5 52.25 119.65 51.5 119.65 53.8 119.7 53.8 119.35 56.65 Q118.95 59.05 118.15 61.2 L116.6 64.8 115.8 71.65 123.85 71.9 123.85 72.0 125.9 74.25 126.15 68.0 128.4 71.5 135.85 71.75 133.85 69.25 129.75 69.4 124.7 62.4 124.7 62.25 129.8 69.4 133.85 69.15 133.85 69.2 135.85 71.7 137.45 46.45 126.05 47.4 128.35 49.5 128.4 49.5 128.1 60.65 128.05 60.55 M113.25 73.9 L125.9 74.3 123.85 72.05 115.75 71.75 116.55 64.9 113.9 68.75 113.25 73.9 M118.9 97.5 L104.4 96.55 104.25 96.55 104.4 96.7 103.65 112.45 109.6 113.55 109.7 111.5 111.75 112.1 111.05 122.15 111.1 122.15 111.1 122.2 117.65 122.95 117.8 122.95 118.95 97.5 118.9 97.5 M86.15 108.4 L86.05 108.35 92.0 115.4 96.5 111.9 92.4 104.6 86.05 108.3 86.15 108.4 M72.65 119.75 L70.65 111.45 64.2 113.0 61.75 102.9 48.6 105.7 48.65 105.8 48.6 105.75 62.05 135.25 69.25 131.0 69.2 130.95 69.25 130.95 69.25 130.9 66.8 122.25 72.65 119.75 M77.0 128.95 L76.35 126.9 76.4 126.85 76.45 126.9 78.1 126.5 78.65 126.35 78.7 130.8 78.75 130.8 82.6 130.15 83.25 130.05 83.95 129.95 83.9 129.95 84.05 121.5 84.0 121.55 84.0 121.5 79.9 122.85 79.5 119.15 73.7 120.95 74.9 124.45 71.75 125.55 71.65 125.55 71.3 125.7 71.2 125.65 71.25 125.7 71.2 125.7 71.75 126.9 73.2 130.3 77.0 128.95 M88.85 118.3 L88.85 118.15 88.5 113.35 81.1 114.2 80.9 114.1 80.9 114.25 81.4 119.35 81.4 119.4 81.45 119.85 88.85 118.3 M89.45 121.0 L89.55 121.1 89.45 121.1 96.0 127.7 105.05 117.2 104.9 117.2 105.05 117.05 101.35 112.25 89.45 121.0 M120.5 108.7 L120.45 108.7 120.7 118.0 126.5 117.9 126.45 117.9 126.5 117.9 126.25 114.35 130.25 114.2 127.65 122.3 133.25 123.4 133.2 123.3 133.3 123.3 133.35 123.3 137.75 108.4 137.7 108.4 131.85 108.55 132.25 101.4 132.2 101.4 124.9 101.1 125.3 108.45 122.85 108.6 120.45 108.65 120.5 108.7 M109.55 106.75 L109.6 103.6 112.5 104.1 112.25 107.25 112.3 107.3 112.25 107.25 109.55 106.75 M204.75 68.8 L203.45 72.35 Q202.65 74.3 201.6 75.5 L206.6 78.0 207.55 76.0 Q208.45 73.95 209.35 69.4 L205.2 67.1 204.75 68.8 M186.35 56.15 Q187.0 53.15 186.9 50.75 186.85 48.2 186.2 46.45 183.75 49.4 182.6 54.4 181.3 60.0 182.5 64.05 183.75 62.7 184.7 60.65 185.75 58.6 186.35 56.15 M168.7 66.2 Q169.75 70.4 171.75 72.75 174.25 75.85 177.65 76.05 180.95 76.25 184.3 73.95 187.7 71.6 190.3 66.75 L190.85 67.0 Q189.6 71.05 187.9 73.85 L185.55 76.8 184.05 78.15 Q181.65 80.05 179.3 80.7 L174.55 81.05 175.45 81.95 Q176.25 82.65 178.0 83.2 L182.25 83.0 182.5 83.65 Q178.3 85.95 174.6 84.5 172.55 83.75 171.05 81.9 170.05 80.7 169.25 79.05 L168.8 78.0 Q166.95 73.6 167.25 66.6 L167.4 64.25 168.2 63.7 168.7 66.2 M173.9 58.1 L174.05 59.9 180.55 59.2 180.9 56.35 181.2 54.95 174.85 52.15 Q173.8 56.35 173.9 58.1 M177.2 95.25 L177.35 92.0 173.45 91.05 170.8 96.1 172.35 96.3 177.2 95.25 M192.35 78.45 L194.4 83.25 201.35 86.35 201.2 82.8 192.35 78.45 M169.4 99.1 L169.35 99.1 169.7 106.1 161.1 104.6 161.1 104.65 161.7 112.55 161.7 112.65 161.75 113.15 168.3 113.15 162.35 118.45 162.4 118.45 162.35 118.5 167.75 123.3 170.5 119.35 170.8 124.65 176.05 124.85 176.05 124.75 176.1 124.85 177.2 113.15 180.25 113.15 180.25 113.1 180.3 113.15 180.6 107.85 177.8 107.4 178.45 100.3 169.4 99.1 M159.55 119.9 L159.95 119.6 Q160.9 118.8 161.05 117.45 161.1 116.05 160.3 115.1 159.5 114.15 158.1 114.0 156.8 113.9 155.75 114.75 154.8 115.55 154.65 116.9 L154.65 116.95 154.7 117.6 Q154.75 118.5 155.4 119.25 156.2 120.2 157.6 120.35 158.7 120.4 159.6 119.9 L159.55 119.9 M155.35 112.6 L152.05 108.05 141.7 116.05 141.0 116.55 140.95 116.55 141.0 116.6 140.95 116.6 145.75 122.1 146.35 121.5 146.95 120.9 155.35 112.6 M147.3 109.95 L147.35 109.9 143.45 103.95 138.6 107.55 138.65 107.65 138.6 107.6 143.15 112.9 147.35 109.95 147.3 109.95 M207.85 106.25 L197.15 103.95 197.1 103.95 197.15 104.0 197.05 110.6 207.25 111.85 207.3 111.85 207.85 106.25 M193.55 120.7 L191.65 116.3 181.05 120.15 183.95 125.05 193.55 120.7 M194.7 112.6 L194.95 119.0 200.35 119.45 197.65 126.65 204.95 128.2 208.6 114.4 194.7 112.6 M181.05 112.1 L181.0 112.05 184.1 117.45 188.35 115.75 188.25 115.65 188.35 115.6 186.15 109.65 181.0 112.0 181.05 112.1" fill="#000000" fill-rule="evenodd" stroke="none"/>
    <path d="M47.35 110.4 L45.7 111.2 Q39.85 113.85 37.0 111.5 34.05 109.15 33.65 102.7 L33.1 96.6 32.15 86.75 31.2 76.15 30.3 67.6 30.0 64.15 23.75 66.35 21.5 67.15 21.1 67.3 Q17.95 68.35 15.55 66.75 13.2 65.2 12.1 61.75 L9.6 53.4 6.4 42.55 3.1 31.3 0.45 21.8 Q-0.35 18.7 0.25 16.15 0.9 13.55 3.2 12.1 5.55 10.7 9.75 11.0 L16.25 11.75 26.05 12.85 37.1 14.15 47.45 15.4 55.1 16.35 58.05 16.75 Q62.65 10.45 68.25 8.65 73.9 6.85 79.6 8.5 85.3 10.2 90.1 14.4 94.95 18.5 98.05 24.15 102.35 21.5 106.85 21.0 111.25 20.55 115.15 22.15 119.05 23.85 121.8 27.75 123.05 25.2 124.6 24.1 126.05 22.95 127.8 22.6 L131.7 21.95 139.35 20.65 148.9 19.15 157.75 17.9 162.95 17.1 Q168.9 10.4 175.7 6.15 182.35 1.95 189.35 0.55 196.35 -0.8 202.95 1.2 209.95 3.4 214.95 8.8 219.85 14.2 222.65 22.0 L227.8 21.05 237.3 19.3 249.2 17.15 261.5 14.95 272.0 13.05 278.8 11.9 Q283.2 11.2 286.0 12.6 288.75 14.0 289.75 16.95 290.75 19.8 289.8 23.65 L287.7 32.3 284.6 45.4 Q282.8 52.6 281.15 59.9 L277.95 73.0 Q279.45 75.55 279.95 78.65 280.45 81.7 279.95 85.05 279.0 90.75 275.6 94.75 272.25 98.8 267.6 99.45 L216.65 106.8 211.0 107.1 211.35 103.75 194.1 100.05 194.0 106.4 189.25 108.95 188.0 105.45 183.8 107.35 183.85 105.2 183.2 105.05 181.95 104.95 181.25 104.8 181.45 102.0 181.45 101.95 195.95 98.5 Q198.0 96.9 199.25 94.25 L201.95 88.65 205.55 90.35 Q205.4 92.4 206.3 94.75 207.1 97.15 208.85 99.1 210.6 100.9 213.2 101.5 215.65 101.85 218.35 100.85 221.0 99.75 222.85 97.45 L225.55 97.1 232.25 96.3 241.0 95.25 249.75 94.15 256.45 93.35 259.15 93.05 261.65 92.6 263.9 92.35 264.9 92.2 Q267.15 91.8 268.95 89.6 270.7 87.3 271.3 83.95 271.65 81.3 271.15 79.1 270.7 76.85 269.45 75.4 L282.7 19.95 249.0 24.75 249.1 32.05 224.75 30.7 224.0 38.85 220.0 38.7 Q220.1 33.55 219.6 29.95 L218.35 24.3 217.35 21.75 209.0 17.9 203.95 19.9 204.85 14.6 194.0 6.65 191.15 6.95 Q188.4 7.25 183.95 8.7 179.5 10.2 174.55 13.5 L173.0 21.8 127.7 28.8 126.35 42.6 118.6 43.15 Q116.95 39.5 114.3 37.3 111.65 35.1 108.45 34.8 104.75 34.6 101.2 36.3 97.6 37.9 95.05 41.35 91.5 33.35 86.15 29.15 80.75 24.95 74.9 26.05 67.75 27.75 63.5 32.75 L61.1 22.25 9.15 19.0 18.85 57.45 35.85 51.75 41.9 102.4 72.2 88.8 70.7 82.7 Q73.55 84.3 76.9 84.85 L84.1 84.55 Q88.55 83.5 91.95 79.85 95.4 76.15 97.25 70.4 100.05 73.25 104.55 73.5 107.05 73.55 109.55 72.25 L108.15 78.5 128.6 79.4 129.15 75.7 133.85 75.8 132.85 81.3 156.3 83.0 157.75 83.2 156.5 89.6 157.1 91.15 Q157.6 92.7 158.85 94.85 160.1 97.0 162.05 99.1 163.9 100.95 166.45 102.1 L166.45 102.3 163.15 101.75 159.45 101.1 157.75 100.9 158.2 106.1 155.05 103.05 Q149.95 97.4 147.25 89.25 L99.2 85.25 Q96.25 89.0 92.4 90.35 88.5 91.7 84.9 91.65 81.25 91.55 79.05 90.9 79.4 93.75 78.35 95.1 L75.45 97.25 72.0 98.85 64.95 102.15 64.7 101.1 64.25 99.2 44.15 103.45 47.35 110.4 M70.6 16.4 Q67.05 18.9 65.2 25.4 L66.6 26.15 Q70.2 21.95 74.55 21.2 78.9 20.4 82.85 21.95 86.8 23.4 89.25 25.9 L91.1 24.5 Q89.25 20.55 85.75 17.8 82.25 15.1 78.15 14.5 74.1 13.9 70.6 16.4 M101.4 33.1 Q104.6 30.45 107.9 30.85 111.3 31.25 114.3 33.6 L116.0 32.75 Q113.35 28.3 110.05 27.15 106.65 26.05 103.9 27.5 101.0 29.0 99.75 32.3 L101.4 33.1" fill="#f8350f" fill-rule="evenodd" stroke="none"/>
    <path d="M211.65 27.7 L218.15 29.5 218.5 35.75 218.35 38.45 211.8 37.35 211.95 32.4 211.65 27.7 M214.85 22.3 L216.35 22.95 217.5 26.25 211.1 23.55 210.7 21.2 210.45 20.3 212.0 21.05 214.85 22.3 M170.7 43.3 L170.65 43.3 171.55 37.35 171.6 37.3 186.35 33.2 Q187.65 33.85 188.85 35.0 190.05 36.15 191.0 37.65 L170.7 43.3 M171.85 35.4 L171.75 35.45 172.8 28.7 172.85 28.65 191.15 23.45 191.15 24.0 191.3 24.05 Q194.0 24.8 195.05 25.75 L196.75 27.5 204.55 24.7 204.65 24.85 205.2 25.95 190.25 30.2 Q189.4 29.55 188.5 29.2 185.4 28.05 182.3 29.45 179.15 30.75 177.15 33.9 L171.85 35.4 M206.0 27.7 L206.05 27.7 Q206.7 29.65 207.0 31.85 L207.15 33.15 194.2 36.75 193.5 34.6 191.8 31.7 206.0 27.7 M199.65 51.85 L202.55 53.25 202.45 53.3 188.85 57.15 188.9 56.85 Q189.5 54.15 189.6 51.7 L200.05 48.7 199.6 51.85 199.65 51.85 M192.75 72.5 L191.6 72.1 191.55 72.1 191.15 72.95 187.9 73.85 Q189.6 71.05 190.85 67.0 L190.3 66.75 Q187.7 71.6 184.3 73.95 180.95 76.25 177.65 76.05 174.25 75.85 171.75 72.75 169.75 70.4 168.7 66.2 L173.85 64.8 174.3 65.65 Q175.6 68.0 177.8 68.7 179.95 69.25 182.25 67.95 184.5 66.6 186.3 63.7 L187.65 60.95 204.3 56.3 Q203.75 59.4 202.6 63.3 201.45 67.25 200.1 70.5 L192.75 72.5 M189.25 76.7 L191.15 81.25 191.45 81.9 163.25 89.85 163.2 89.9 162.0 87.45 163.1 84.15 163.2 84.15 171.05 81.9 Q172.55 83.75 174.6 84.5 178.3 85.95 182.5 83.65 L182.25 83.0 178.0 83.2 Q176.25 82.65 175.45 81.95 L174.55 81.05 179.3 80.7 Q181.65 80.05 184.05 78.15 L189.2 76.65 189.25 76.7 M164.3 80.4 L164.2 80.45 163.85 78.3 163.4 75.55 163.4 75.5 162.45 75.2 159.65 74.2 Q159.35 71.65 159.35 68.8 L159.45 68.8 167.25 66.6 Q166.95 73.6 168.8 78.0 L169.25 79.05 164.3 80.4 M159.7 65.4 L159.6 65.4 Q159.8 63.55 160.35 61.35 L164.3 60.7 164.75 58.8 164.8 58.75 172.75 56.5 Q172.6 58.3 172.75 59.95 L172.95 61.65 159.7 65.4 M203.25 15.85 L202.8 17.8 194.5 13.2 194.9 10.05 203.25 15.85 M195.25 22.4 L193.6 21.65 194.2 15.85 202.5 20.35 195.25 22.4 M175.5 49.95 L176.4 48.05 181.85 52.25 181.45 53.35 175.5 49.95 M204.75 68.8 L205.2 67.1 209.35 69.4 Q208.45 73.95 207.55 76.0 L206.6 78.0 201.6 75.5 Q202.65 74.3 203.45 72.35 L204.75 68.8 M173.9 58.1 Q173.8 56.35 174.85 52.15 L181.2 54.95 180.9 56.35 180.55 59.2 174.05 59.9 173.9 58.1 M177.2 95.25 L172.35 96.3 170.8 96.1 173.45 91.05 177.35 92.0 177.2 95.25 M192.35 78.45 L201.2 82.8 201.35 86.35 194.4 83.25 192.35 78.45" fill="#a6a6a6" fill-rule="evenodd" stroke="none"/>
    <path d="M218.5 44.2 L219.55 44.15 221.3 51.05 220.9 55.0 220.45 58.95 217.55 46.45 210.85 46.6 208.1 44.4 208.05 44.4 214.0 44.25 218.5 44.2 M229.55 41.65 L227.85 40.1 227.2 39.5 227.1 39.4 240.25 38.75 240.25 38.85 235.25 77.25 233.45 75.1 237.85 41.2 229.55 41.65 M225.8 50.85 L227.8 59.55 223.75 51.55 223.35 46.1 223.35 46.0 225.8 50.85 M224.0 69.25 L221.05 75.4 221.0 75.35 219.35 73.1 223.6 62.5 224.0 69.15 224.0 69.25 M252.65 75.05 L252.7 75.05 250.7 72.8 251.8 57.8 253.35 67.1 253.35 67.2 252.7 75.05 252.65 75.05 M245.0 42.45 L242.55 40.1 242.55 40.15 242.5 40.1 242.55 40.1 253.4 40.25 255.3 44.1 255.3 44.15 258.0 52.85 252.2 42.6 245.0 42.45 M255.15 29.6 L274.55 27.7 265.75 72.5 265.65 72.3 264.15 70.15 271.85 30.35 271.8 30.35 271.8 30.3 257.9 31.7 257.9 31.65 255.2 29.65 255.15 29.6 M133.95 32.95 L132.7 31.95 168.05 26.3 168.1 26.3 165.75 43.6 163.8 41.2 163.7 41.2 163.65 41.15 163.65 41.1 163.75 41.1 165.4 29.1 135.15 33.9 135.15 33.95 135.15 33.9 133.95 32.95 M154.55 78.35 L153.0 76.55 152.2 75.6 152.3 40.8 154.6 43.25 154.65 43.3 154.55 78.35 M62.05 38.65 L58.65 36.75 58.6 36.75 58.65 36.75 56.8 29.15 20.25 29.0 20.3 29.05 20.2 29.05 17.9 27.15 17.15 26.45 17.05 26.4 17.1 26.4 59.05 26.65 62.05 38.65 62.05 38.7 62.05 38.65 M49.8 39.4 L49.7 39.4 49.75 39.35 49.8 39.4 M49.7 39.45 L53.35 41.3 53.4 41.3 67.55 84.75 67.4 84.7 63.9 83.15 49.7 39.45 M128.4 49.5 L128.35 49.5 126.05 47.4 137.45 46.45 135.85 71.7 133.85 69.2 133.85 69.15 133.9 69.15 135.1 48.85 128.4 49.45 128.4 49.5 M126.15 68.0 L125.9 74.25 123.85 72.0 123.85 71.9 123.9 71.9 124.7 62.5 126.15 68.0 M119.7 53.8 L119.65 53.8 119.65 51.5 126.5 52.25 128.0 60.45 125.1 54.3 119.7 53.65 119.7 53.8" fill="#f6f8b1" fill-rule="evenodd" stroke="none"/>
    <path d="M221.3 51.05 L219.55 44.15 218.5 44.2 219.6 44.15 221.3 50.95 221.3 51.0 221.3 51.05 M208.1 44.4 L210.85 46.6 217.55 46.45 220.45 58.95 220.4 59.05 223.65 51.55 223.3 46.15 223.35 46.05 223.35 46.1 223.75 51.55 227.8 59.55 227.8 59.5 229.55 41.65 237.85 41.2 233.45 75.1 228.9 75.25 228.9 75.2 228.8 75.2 223.65 62.55 223.6 62.5 219.35 73.1 221.0 75.35 221.0 75.45 219.3 73.15 214.6 73.05 214.6 73.0 214.55 73.0 210.85 46.7 208.05 44.45 212.4 75.3 212.35 75.3 208.05 44.4 208.1 44.4 M235.25 77.25 L240.25 38.85 240.3 38.85 235.4 77.35 235.35 77.35 235.25 77.25 M227.2 39.5 L227.85 40.1 227.15 39.5 227.2 39.5 M229.9 77.5 L227.15 77.6 227.15 77.55 229.9 77.5 M242.55 40.15 L240.9 75.4 252.65 75.05 252.65 75.1 240.9 75.45 242.5 40.15 242.55 40.15 M250.7 72.8 L250.7 72.75 243.65 73.0 243.65 72.95 243.6 72.95 245.0 42.45 252.2 42.6 258.0 52.85 255.3 44.15 255.3 44.1 255.05 29.65 255.15 29.65 255.45 44.1 258.0 52.55 257.75 31.7 257.9 31.7 271.8 30.3 271.8 30.35 271.85 30.35 264.15 70.15 265.65 72.3 265.6 72.5 264.0 70.2 258.2 70.2 258.2 70.15 258.1 70.15 251.85 57.8 251.8 57.8 250.7 72.8 M256.35 72.5 L256.3 72.5 253.35 67.2 253.35 67.1 256.35 72.5 M265.2 81.15 L261.95 81.45 261.7 83.5 264.5 83.3 264.05 85.0 261.55 85.2 261.45 87.2 264.45 86.9 264.0 88.5 258.4 89.1 258.95 79.75 265.6 79.1 265.2 81.15 M257.2 79.85 L256.35 89.25 252.8 89.7 251.4 84.35 250.95 89.8 248.4 90.0 248.3 81.2 252.85 80.75 254.1 86.05 254.35 80.15 257.2 79.85 M228.95 83.15 L230.2 88.45 230.45 82.55 233.3 82.25 232.45 91.65 228.9 92.1 227.55 86.8 227.05 92.2 224.5 92.4 224.4 83.6 228.95 83.15 M218.0 79.85 Q220.45 80.35 221.65 82.95 222.85 85.5 222.2 88.9 221.35 92.35 219.25 94.25 217.0 96.25 214.55 95.9 212.1 95.35 210.95 92.8 209.75 90.3 210.4 86.85 211.2 83.45 213.35 81.5 215.5 79.5 218.0 79.85 M216.2 81.75 Q215.7 82.7 215.05 85.0 214.45 87.3 214.55 89.65 214.6 91.0 214.95 92.05 L215.95 94.25 216.95 92.6 218.05 89.25 Q218.55 87.35 218.35 85.5 218.1 84.1 217.6 83.4 L216.2 81.75 M246.25 80.8 L245.4 90.2 242.5 90.5 242.75 81.1 246.25 80.8 M239.1 81.45 L238.25 89.2 241.0 89.05 240.85 90.65 235.2 91.15 235.6 81.75 239.1 81.45 M168.05 26.3 L132.7 31.95 133.95 32.95 132.7 32.0 132.7 42.65 132.7 31.9 168.05 26.25 168.05 26.3 M135.15 33.95 L135.15 33.9 165.4 29.1 163.75 41.1 163.65 41.1 163.65 41.15 163.7 41.2 152.3 40.8 154.6 43.25 152.3 40.8 152.2 75.6 153.0 76.55 152.25 75.7 141.0 74.2 140.2 74.8 141.0 74.2 141.0 74.1 140.95 74.1 145.2 40.85 142.5 43.3 138.2 76.2 138.1 76.2 142.3 43.25 142.35 43.25 145.15 40.75 135.15 40.2 135.15 40.15 135.15 33.95 M62.05 38.65 L59.05 26.65 17.1 26.4 59.1 26.55 62.1 38.65 62.05 38.7 60.65 39.1 62.05 38.65 62.1 38.65 62.05 38.65 62.05 38.7 62.05 38.65 M17.15 26.45 L17.9 27.15 17.15 26.5 17.15 26.45 M20.2 29.05 L20.3 29.05 20.25 29.0 56.8 29.15 58.65 36.75 58.6 36.75 49.8 39.4 49.75 39.35 49.7 39.4 49.7 39.45 63.9 83.15 67.4 84.7 67.5 84.9 67.45 84.9 63.85 83.35 47.8 88.85 40.8 42.2 24.65 46.65 20.2 29.05 M128.05 60.55 L128.1 60.65 128.4 49.5 128.4 49.45 135.1 48.85 133.9 69.15 133.85 69.15 129.8 69.4 124.7 62.25 124.7 62.4 124.7 62.5 123.9 71.9 123.85 71.9 115.8 71.65 116.6 64.8 118.15 61.2 Q118.95 59.05 119.35 56.65 L119.7 53.8 119.7 53.65 125.1 54.3 128.0 60.45 128.05 60.55 M45.9 92.35 L45.85 92.35 45.7 91.2 45.9 92.35" fill="#f7f619" fill-rule="evenodd" stroke="none"/>
    <path d="M220.45 58.95 L220.9 55.0 221.3 51.05 221.3 51.0 221.3 50.95 223.3 46.0 223.3 46.15 223.65 51.55 220.4 59.05 220.45 58.95 M227.85 40.1 L229.55 41.65 227.8 59.5 227.8 59.55 225.8 50.85 227.15 39.45 227.15 39.5 227.85 40.1 M233.45 75.1 L235.25 77.25 235.35 77.35 235.4 77.4 232.6 77.45 229.9 77.5 227.15 77.55 224.0 69.25 224.0 69.15 223.6 62.5 223.65 62.55 228.8 75.2 228.9 75.2 228.9 75.25 233.45 75.1 M221.0 75.45 L221.0 75.5 212.4 75.35 212.4 75.3 208.05 44.45 210.85 46.7 214.55 73.0 214.6 73.0 214.6 73.05 219.3 73.15 221.0 75.45 M252.65 75.05 L240.9 75.4 242.55 40.15 242.55 40.1 245.0 42.45 243.6 72.95 243.65 72.95 243.65 73.0 250.7 72.75 250.7 72.8 252.7 75.05 252.65 75.05 M255.15 29.65 L255.15 29.6 255.2 29.65 257.9 31.65 257.9 31.7 257.75 31.7 258.0 52.55 255.45 44.1 255.15 29.65 M265.6 72.5 L265.65 72.55 256.35 72.55 256.35 72.5 253.35 67.1 251.8 57.8 251.85 57.8 258.1 70.15 258.2 70.15 258.2 70.2 264.0 70.2 265.6 72.5 M132.7 42.65 L132.7 32.0 133.95 32.95 135.15 33.9 135.15 33.95 135.15 40.15 135.15 40.2 145.15 40.75 142.35 43.25 142.3 43.25 132.8 42.65 132.7 42.75 132.7 42.65 M163.7 41.2 L163.8 41.2 165.75 43.6 165.85 43.7 154.65 43.3 154.6 43.25 152.3 40.8 163.7 41.2 M138.2 76.2 L142.5 43.3 145.2 40.85 140.95 74.1 141.0 74.1 141.0 74.2 140.2 74.8 141.0 74.2 152.25 75.7 153.0 76.55 154.55 78.35 154.6 78.4 138.2 76.25 138.2 76.2 M58.6 36.75 L58.65 36.75 62.05 38.65 62.1 38.65 62.05 38.65 60.65 39.1 59.25 39.5 53.4 41.3 53.35 41.3 49.7 39.45 49.7 39.4 49.8 39.4 58.6 36.75 M17.9 27.15 L20.2 29.05 24.65 46.65 40.8 42.2 47.8 88.85 63.85 83.35 67.45 84.9 67.5 84.95 45.9 92.35 45.7 91.2 43.1 73.85 38.9 45.7 23.0 49.95 17.05 26.4 17.15 26.5 17.9 27.15 M128.0 60.45 L126.05 47.45 128.35 49.5 128.05 60.55 128.0 60.45 M124.7 62.4 L129.75 69.4 133.85 69.25 135.85 71.75 128.4 71.5 126.15 68.0 124.7 62.5 124.7 62.4 M113.25 73.9 L113.9 68.75 116.55 64.9 115.75 71.75 123.85 72.05 125.9 74.3 113.25 73.9" fill="#d8901f" fill-rule="evenodd" stroke="none"/>
    <path d="M230.15 116.55 L232.75 121.75 236.4 120.35 237.95 121.05 237.9 121.05 232.35 123.15 228.05 115.8 228.05 115.75 227.95 115.65 228.15 115.75 230.1 116.45 230.15 116.55 M210.95 118.35 L211.75 120.9 215.95 119.9 214.5 127.1 219.9 128.05 220.8 129.65 212.95 128.2 214.55 121.5 210.8 122.55 209.1 117.6 210.15 118.0 210.95 118.35 M221.4 118.3 L221.3 118.25 221.4 118.2 221.4 118.3 M221.45 118.2 L225.2 116.6 226.85 117.2 227.05 117.25 222.3 118.8 222.3 118.75 221.45 118.2 M228.0 127.3 L227.9 127.35 227.85 127.25 228.0 127.3 M227.95 127.4 L230.75 128.6 230.8 128.6 232.65 132.35 244.3 126.65 244.35 126.7 245.9 127.3 231.75 134.75 227.95 127.4 M246.0 127.3 L245.95 127.25 246.0 127.25 246.0 127.3 M104.4 96.7 L105.95 98.55 106.1 98.55 105.5 111.1 108.75 111.85 109.5 113.5 109.5 113.35 109.6 113.55 103.65 112.45 104.4 96.7 M116.4 120.8 L116.4 120.95 117.55 122.8 111.1 122.15 111.05 122.15 111.75 112.1 111.75 112.0 109.65 111.45 108.85 110.1 113.0 110.7 112.45 120.35 116.4 120.8 M117.65 122.8 L117.65 122.65 117.75 122.85 117.65 122.8 M96.5 111.9 L92.0 115.4 86.05 108.35 86.15 108.4 88.35 108.8 92.45 113.35 94.65 111.65 96.5 111.9 M71.8 119.35 L72.65 119.75 66.8 122.25 66.75 122.2 64.75 121.3 70.9 118.95 71.8 119.35 M48.65 105.8 L52.3 107.75 62.95 131.4 66.9 129.75 69.2 130.95 69.25 131.0 62.05 135.25 48.6 105.75 48.65 105.8 M73.7 120.95 L75.35 121.75 76.0 125.0 75.95 125.0 74.9 124.5 74.9 124.45 73.7 120.95 M72.85 126.1 L73.8 128.95 75.75 128.4 77.0 128.95 73.2 130.3 71.75 126.9 71.25 125.7 72.85 126.1 M76.4 126.85 L75.2 126.5 79.75 125.4 80.15 129.4 82.65 129.0 83.55 129.65 83.9 129.95 83.95 129.95 83.25 130.05 82.6 130.15 78.75 130.8 78.65 126.35 78.1 126.5 76.45 126.9 76.4 126.85 M81.1 114.2 L80.9 114.25 82.45 115.15 82.5 115.15 82.9 118.1 87.55 117.25 87.55 117.35 88.75 118.2 81.45 119.75 81.4 119.4 81.4 119.35 80.9 114.25 80.9 114.1 81.1 114.2 M104.9 117.2 L105.05 117.2 96.0 127.7 89.45 121.1 89.55 121.1 92.55 121.2 96.0 125.45 103.2 117.05 104.9 117.2 M71.3 125.7 L71.25 125.7 71.2 125.65 71.3 125.7 M120.45 108.7 L122.0 110.2 122.0 116.05 124.9 116.05 126.4 117.85 126.45 117.9 126.5 117.9 120.7 118.0 120.45 108.7 M124.75 113.1 L132.2 112.8 130.15 120.45 132.5 121.05 133.2 123.3 133.25 123.4 127.65 122.3 130.25 114.2 126.25 114.35 126.2 114.35 124.7 113.1 124.75 113.1 M126.95 103.1 L127.05 110.1 125.95 109.1 125.3 108.45 124.9 101.1 126.95 103.1 M112.5 104.1 L112.5 104.05 109.55 103.55 108.65 101.7 114.2 102.5 113.8 108.85 112.3 107.3 112.25 107.25 112.5 104.1 M163.4 106.6 L163.6 111.45 170.05 111.6 168.3 113.15 161.75 113.05 161.7 112.65 161.7 112.55 161.1 104.65 161.1 104.6 161.15 104.65 163.4 106.6 M162.35 118.5 L164.5 118.5 167.6 121.45 171.4 116.6 171.85 123.15 175.3 123.15 176.05 124.85 170.8 124.65 170.5 119.35 167.75 123.3 162.35 118.5 M170.75 100.65 L170.8 107.55 169.85 106.1 169.4 99.1 170.75 100.65 M159.0 118.65 L159.55 119.9 159.6 119.9 Q158.7 120.4 157.6 120.35 156.2 120.2 155.4 119.25 154.75 118.5 154.7 117.6 L154.65 116.95 155.85 116.9 Q155.8 117.7 156.3 118.25 L157.7 119.0 159.0 118.65 M153.4 112.15 L153.4 112.2 155.35 112.6 146.95 120.9 146.35 121.5 145.75 122.1 141.0 116.6 140.95 116.55 141.0 116.55 141.0 116.6 143.6 116.9 143.65 116.9 145.8 119.5 153.4 112.15 M138.65 107.65 L141.25 108.25 143.45 110.85 145.45 109.45 147.3 109.95 147.35 109.95 143.15 112.9 138.6 107.6 138.65 107.65 M206.25 110.65 L207.25 111.8 207.3 111.85 207.25 111.85 197.05 110.6 197.15 104.0 197.15 103.95 198.4 105.8 198.4 109.35 206.25 110.65 M181.05 120.15 L183.35 120.65 184.65 123.2 192.1 120.05 193.55 120.7 183.95 125.05 181.05 120.15 M196.25 114.4 L196.2 117.9 202.05 118.55 199.7 125.1 204.1 125.85 204.95 128.2 197.65 126.65 200.35 119.45 194.95 119.0 194.7 112.6 196.25 114.4 M188.25 115.65 L188.35 115.75 184.1 117.45 181.0 112.05 181.05 112.1 182.7 112.85 184.45 116.1 187.05 114.95 188.25 115.65" fill="#f79710" fill-rule="evenodd" stroke="none"/>
    <path d="M230.15 116.55 L230.1 116.45 228.15 115.75 234.95 113.35 237.95 121.05 237.95 121.1 237.9 121.05 237.95 121.05 236.4 120.35 234.35 115.15 230.15 116.55 M228.05 115.75 L228.05 115.8 227.95 115.8 228.05 115.75 M210.95 118.35 L210.15 118.0 209.1 117.6 224.75 111.55 227.0 117.15 225.2 116.55 223.9 113.4 210.95 118.35 M220.8 129.6 L220.0 128.0 221.4 118.3 221.4 118.2 221.4 118.15 221.45 118.2 222.3 118.75 222.3 118.8 220.9 129.7 220.8 129.6 M227.9 127.35 L228.0 127.3 243.75 121.75 245.95 127.25 246.0 127.3 246.0 127.35 245.9 127.3 244.35 126.7 244.3 126.65 242.85 123.6 230.8 128.6 230.75 128.6 227.95 127.4 227.85 127.35 227.9 127.35 M106.1 98.55 L105.95 98.55 104.4 96.7 104.25 96.55 104.4 96.55 118.9 97.5 117.65 122.65 117.65 122.8 117.65 122.95 117.55 122.8 116.4 120.95 116.4 120.8 117.35 99.65 106.1 98.55 M109.5 113.35 L109.5 113.5 108.75 111.85 108.7 111.75 108.8 110.1 109.6 111.45 109.5 113.35 M86.05 108.3 L92.4 104.6 96.5 111.9 94.65 111.65 91.85 106.8 88.35 108.8 86.05 108.3 M71.8 119.35 L70.9 118.95 69.5 113.85 62.5 115.8 59.85 106.45 52.3 107.7 48.6 105.7 61.75 102.9 64.2 113.0 70.65 111.45 72.65 119.75 71.8 119.35 M69.25 130.9 L66.9 129.65 64.75 121.3 64.7 121.25 64.75 121.3 66.75 122.2 66.8 122.25 69.25 130.9 M75.95 125.0 L72.85 126.1 71.25 125.7 71.3 125.7 71.65 125.55 71.75 125.55 74.9 124.45 74.9 124.5 75.95 125.0 M83.55 129.65 L82.65 128.95 82.5 123.15 84.0 121.55 84.05 121.5 83.9 129.95 83.55 129.65 M84.0 121.5 L82.45 123.15 78.8 124.15 78.65 120.8 75.35 121.65 73.7 120.95 79.5 119.15 79.9 122.85 84.0 121.5 M81.1 114.2 L88.5 113.35 88.85 118.15 88.85 118.3 88.75 118.2 87.55 117.35 87.55 117.25 87.25 114.6 82.5 115.15 82.45 115.15 80.9 114.25 81.1 114.2 M89.45 121.0 L101.35 112.25 105.05 117.05 103.2 116.95 101.15 114.7 92.55 121.1 89.45 121.0 M127.05 110.1 L127.1 110.15 122.0 110.15 120.5 108.7 120.45 108.65 122.85 108.6 125.3 108.5 125.95 109.1 127.05 110.1 M124.9 116.05 L124.85 116.0 124.7 113.1 124.7 113.05 124.75 113.1 124.7 113.1 126.2 114.35 126.4 117.85 124.9 116.05 M133.3 123.3 L132.55 121.05 135.8 110.0 130.65 110.1 130.85 103.15 126.95 103.1 124.9 101.1 132.2 101.4 131.8 108.55 131.85 108.55 137.7 108.4 133.3 123.3 M112.3 107.3 L113.8 108.85 108.4 108.05 108.65 101.7 109.5 103.55 109.45 106.7 109.55 106.75 112.25 107.25 112.3 107.3 M169.7 106.1 L170.65 107.5 163.4 106.6 161.15 104.65 161.1 104.6 169.7 106.1 M170.05 111.6 L170.1 111.55 171.35 111.55 164.5 118.45 162.4 118.45 162.35 118.45 168.3 113.15 170.05 111.6 M176.05 124.75 L175.35 123.15 176.3 111.9 177.2 113.15 176.1 124.85 176.05 124.75 M180.25 113.1 L179.5 112.0 179.65 108.9 176.6 108.45 177.0 101.55 170.75 100.65 169.4 99.1 178.45 100.3 177.8 107.4 180.6 107.85 180.3 113.15 180.25 113.1 M159.0 118.65 L159.15 118.55 159.9 117.15 Q159.9 116.3 159.4 115.75 158.85 115.05 158.05 115.0 157.15 114.95 156.6 115.45 155.9 115.95 155.85 116.8 L155.85 116.9 154.65 116.95 154.65 116.9 Q154.8 115.55 155.75 114.75 156.8 113.9 158.1 114.0 159.5 114.15 160.3 115.1 161.1 116.05 161.05 117.45 160.9 118.8 159.95 119.6 L159.55 119.9 159.0 118.65 M155.35 112.6 L153.4 112.2 153.4 112.15 152.05 110.25 143.65 116.9 143.6 116.9 141.0 116.6 141.0 116.55 141.7 116.05 152.05 108.05 155.35 112.6 M147.35 109.9 L145.45 109.4 143.15 106.55 141.25 108.25 138.6 107.55 143.45 103.95 147.35 109.9 M207.25 111.8 L206.25 110.65 206.5 107.35 198.4 105.8 197.15 103.95 207.85 106.25 207.25 111.8 M197.15 104.0 L197.1 103.95 197.15 103.95 197.15 104.0 M181.05 120.15 L191.65 116.3 193.55 120.7 192.1 120.05 191.0 117.7 183.35 120.65 181.05 120.15 M196.25 114.4 L194.7 112.6 208.6 114.4 204.95 128.2 204.1 125.85 207.05 115.55 196.25 114.4 M181.0 112.0 L186.15 109.65 188.35 115.6 187.05 114.9 185.8 111.35 182.7 112.8 181.0 112.0" fill="#f6f5c1" fill-rule="evenodd" stroke="none"/>
    <path d="M236.4 120.35 L232.75 121.75 230.15 116.55 234.35 115.15 236.4 120.35 M228.05 115.8 L232.35 123.15 237.9 121.05 237.95 121.1 232.35 123.3 227.95 115.8 228.05 115.8 M220.8 129.65 L219.9 128.05 214.5 127.1 215.95 119.9 211.75 120.9 210.95 118.35 223.9 113.4 225.2 116.55 227.0 117.15 226.85 117.2 225.2 116.6 221.45 118.2 221.4 118.15 221.4 118.2 221.3 118.25 221.4 118.3 220.0 128.0 220.8 129.6 220.8 129.65 M210.15 118.0 L209.1 117.6 210.15 118.0 M227.85 127.35 L227.95 127.4 231.75 134.75 245.9 127.3 246.0 127.35 231.75 134.8 227.85 127.35 M230.8 128.6 L242.85 123.6 244.3 126.65 232.65 132.35 230.8 128.6 M106.1 98.55 L117.35 99.65 116.4 120.8 112.45 120.35 113.0 110.7 108.85 110.1 109.65 111.45 111.75 112.0 111.75 112.1 109.7 111.5 109.6 113.55 109.5 113.35 109.6 111.45 108.8 110.1 108.7 111.75 108.75 111.85 105.5 111.1 106.1 98.55 M117.55 122.8 L117.65 122.95 117.65 122.8 117.75 122.85 117.65 122.65 118.9 97.5 118.95 97.5 117.8 122.95 117.65 122.95 111.1 122.2 111.1 122.15 117.55 122.8 M86.15 108.4 L86.05 108.3 88.35 108.8 86.15 108.4 M94.65 111.65 L92.45 113.35 88.35 108.8 91.85 106.8 94.65 111.65 M48.6 105.7 L52.3 107.7 59.85 106.45 62.5 115.8 69.5 113.85 70.9 118.95 71.8 119.35 70.9 118.95 64.75 121.3 64.7 121.25 64.75 121.3 66.9 129.65 69.25 130.9 69.25 130.95 69.2 130.95 66.9 129.75 62.95 131.4 52.3 107.75 48.65 105.8 48.6 105.7 M75.95 125.0 L76.0 125.0 75.35 121.75 73.7 120.95 75.35 121.65 78.65 120.8 78.8 124.15 82.45 123.15 84.0 121.5 84.0 121.55 82.5 123.15 82.65 128.95 83.55 129.65 82.65 129.0 80.15 129.4 79.75 125.4 75.2 126.5 76.4 126.85 76.35 126.9 77.0 128.95 75.75 128.4 73.8 128.95 72.85 126.1 75.95 125.0 M82.5 115.15 L87.25 114.6 87.55 117.25 82.9 118.1 82.5 115.15 M88.75 118.2 L88.85 118.3 81.45 119.85 81.4 119.4 81.45 119.75 88.75 118.2 M89.55 121.1 L89.45 121.0 92.55 121.1 101.15 114.7 103.2 116.95 105.05 117.05 104.9 117.2 103.2 117.05 96.0 125.45 92.55 121.2 89.55 121.1 M78.65 126.35 L78.75 130.8 78.7 130.8 78.65 126.35 M71.25 125.7 L71.75 126.9 71.2 125.7 71.25 125.7 M120.5 108.7 L122.0 110.15 127.1 110.15 127.05 110.1 126.95 103.1 130.85 103.15 130.65 110.1 135.8 110.0 132.55 121.05 133.3 123.3 133.2 123.3 132.5 121.05 130.15 120.45 132.2 112.8 124.75 113.1 124.7 113.05 124.7 113.1 124.85 116.0 124.9 116.05 122.0 116.05 122.0 110.2 120.45 108.7 120.5 108.7 M125.95 109.1 L125.3 108.5 122.85 108.6 125.3 108.45 125.95 109.1 M132.2 101.4 L132.25 101.4 131.85 108.55 131.8 108.55 132.2 101.4 M137.7 108.4 L137.75 108.4 133.35 123.3 133.3 123.3 137.7 108.4 M112.3 107.3 L113.8 108.85 114.2 102.5 108.65 101.7 109.55 103.55 112.5 104.05 112.5 104.1 109.6 103.6 109.55 106.75 109.45 106.7 109.5 103.55 108.65 101.7 108.4 108.05 113.8 108.85 112.3 107.3 M126.25 114.35 L126.5 117.9 126.45 117.9 126.4 117.85 126.2 114.35 126.25 114.35 M169.7 106.1 L169.35 99.1 169.4 99.1 169.85 106.1 170.8 107.55 170.75 100.65 177.0 101.55 176.6 108.45 179.65 108.9 179.5 112.0 180.25 113.1 180.25 113.15 177.2 113.15 176.3 111.9 175.35 123.15 176.05 124.75 176.05 124.85 175.3 123.15 171.85 123.15 171.4 116.6 167.6 121.45 164.5 118.5 162.35 118.5 162.4 118.45 164.5 118.45 171.35 111.55 170.1 111.55 170.05 111.6 163.6 111.45 163.4 106.6 170.65 107.5 169.7 106.1 M155.85 116.9 L155.85 116.8 Q155.9 115.95 156.6 115.45 157.15 114.95 158.05 115.0 158.85 115.05 159.4 115.75 159.9 116.3 159.9 117.15 L159.15 118.55 159.0 118.65 157.7 119.0 156.3 118.25 Q155.8 117.7 155.85 116.9 M141.7 116.05 L141.0 116.55 141.7 116.05 M143.65 116.9 L152.05 110.25 153.4 112.15 145.8 119.5 143.65 116.9 M161.7 112.65 L161.75 113.05 168.3 113.15 161.75 113.15 161.7 112.65 M147.3 109.95 L145.45 109.45 143.45 110.85 141.25 108.25 138.65 107.65 138.6 107.55 141.25 108.25 143.15 106.55 145.45 109.4 147.35 109.9 147.3 109.95 M146.35 121.5 L145.75 122.1 140.95 116.6 141.0 116.6 145.75 122.1 146.35 121.5 M207.25 111.8 L207.85 106.25 207.3 111.85 207.25 111.8 M198.4 105.8 L206.5 107.35 206.25 110.65 198.4 109.35 198.4 105.8 M183.35 120.65 L191.0 117.7 192.1 120.05 184.65 123.2 183.35 120.65 M204.1 125.85 L199.7 125.1 202.05 118.55 196.2 117.9 196.25 114.4 207.05 115.55 204.1 125.85 M181.05 112.1 L181.0 112.0 182.7 112.8 185.8 111.35 187.05 114.9 188.35 115.6 188.25 115.65 187.05 114.95 184.45 116.1 182.7 112.85 181.05 112.1" fill="#f3f31d" fill-rule="evenodd" stroke="none"/>
    <path d="M170.7 43.3 L191.0 37.65 192.55 40.55 Q194.0 43.75 194.2 47.15 L194.75 46.8 Q195.2 40.7 194.2 36.75 L207.15 33.15 207.0 31.85 Q207.5 35.6 206.7 39.8 L200.15 44.2 Q200.35 48.45 199.65 51.85 L199.6 51.85 200.05 48.7 189.6 51.7 189.5 49.5 Q189.2 46.1 187.95 43.85 186.65 41.45 184.45 40.8 182.3 40.2 180.05 41.55 177.75 42.85 176.0 45.8 174.2 48.75 173.35 52.6 172.85 54.6 172.75 56.5 L164.8 58.75 Q165.65 55.1 166.9 52.45 L161.9 49.95 162.05 47.9 162.05 46.05 170.2 46.7 170.7 43.3 M186.35 33.2 L171.6 37.3 171.85 35.4 177.15 33.9 177.4 34.75 Q178.75 33.65 180.05 33.1 L182.3 32.45 183.55 32.45 Q185.0 32.55 186.35 33.2 M172.85 28.65 L173.0 27.8 175.65 26.2 177.7 24.95 178.95 17.6 Q181.1 16.55 183.5 15.9 185.85 15.15 188.0 14.75 L191.45 14.2 191.3 24.05 191.15 24.0 191.15 23.45 172.85 28.65 M204.65 24.85 L204.7 24.85 206.0 27.7 191.8 31.7 190.25 30.2 205.2 25.95 204.65 24.85 M202.45 53.3 L204.55 54.3 203.8 59.0 202.1 65.1 200.05 70.85 Q198.9 73.3 197.95 74.3 L192.75 72.5 200.1 70.5 Q201.45 67.25 202.6 63.3 203.75 59.4 204.3 56.3 L187.65 60.95 188.85 57.15 202.45 53.3 M191.6 72.1 L190.5 74.5 189.25 76.7 189.2 76.65 184.05 78.15 185.55 76.8 187.9 73.85 191.15 72.95 191.55 72.1 191.6 72.1 M191.15 81.25 L192.05 83.2 Q190.5 87.1 188.05 89.75 185.65 92.35 183.2 93.35 L176.95 87.25 Q174.7 88.1 172.5 87.95 L167.55 94.35 165.4 92.95 Q164.6 92.3 163.9 91.15 L163.25 89.85 191.45 81.9 191.15 81.25 M163.2 84.15 L164.3 80.75 164.3 80.4 169.25 79.05 Q170.05 80.7 171.05 81.9 L163.2 84.15 M163.4 75.55 L162.45 75.2 163.4 75.5 163.4 75.55 M159.45 68.8 L159.45 68.55 159.7 65.4 172.95 61.65 Q173.25 63.4 173.85 64.8 L168.7 66.2 168.2 63.7 167.4 64.25 167.25 66.6 159.45 68.8 M74.95 32.45 L75.0 32.45 75.05 32.4 75.1 32.4 75.3 32.3 75.4 32.25 75.6 32.15 75.8 32.05 75.9 32.05 76.25 31.9 76.4 31.85 76.6 31.8 76.7 31.8 76.75 31.75 76.8 31.75 77.1 31.7 77.45 31.65 77.6 31.65 78.15 31.6 78.95 31.6 79.0 31.6 80.0 31.7 80.15 31.7 80.35 31.75 81.15 32.0 81.75 32.15 81.85 32.2 82.05 32.25 82.1 32.3 82.15 32.3 82.2 32.35 83.0 32.7 83.2 32.8 83.4 32.9 83.65 33.05 83.85 33.15 84.0 33.25 84.1 33.3 84.6 33.65 85.6 34.45 85.65 34.5 85.7 34.55 87.0 35.8 Q88.6 37.55 90.0 40.0 L90.3 40.5 90.35 40.6 90.4 40.65 90.6 41.05 91.15 42.25 Q92.5 45.15 93.35 48.85 L93.65 50.25 93.95 51.9 94.1 52.8 94.15 53.15 94.15 53.3 94.3 54.6 94.25 57.45 93.7 61.55 93.05 63.7 91.5 67.2 90.4 68.9 Q88.1 71.95 84.8 72.7 81.4 73.35 78.4 71.1 75.3 68.8 73.1 64.55 70.8 60.35 69.85 55.15 68.95 49.9 69.4 44.85 L69.65 42.75 70.7 38.35 Q71.1 37.2 71.65 36.15 L71.85 35.8 72.25 35.1 72.9 34.2 73.0 34.05 73.5 33.55 73.9 33.2 74.95 32.45 M81.45 45.0 Q84.35 46.4 85.65 48.6 86.95 50.8 87.25 52.65 L87.55 54.8 86.65 53.4 Q85.7 52.15 83.8 51.05 81.95 49.95 79.0 50.25 78.55 52.75 79.0 55.75 79.8 60.45 82.15 63.4 84.45 66.25 87.25 66.1 89.95 65.65 91.3 62.35 92.6 59.05 91.95 54.35 91.15 49.65 88.85 46.7 86.5 43.75 83.8 43.9 82.45 44.05 81.45 45.0 M109.0 39.05 L109.05 39.05 109.15 39.05 109.2 39.05 109.45 39.05 109.5 39.05 109.85 39.1 110.0 39.1 110.05 39.1 110.15 39.15 110.35 39.15 111.05 39.35 111.25 39.45 111.45 39.5 111.55 39.55 112.0 39.8 112.8 40.3 112.95 40.4 113.55 40.9 115.25 43.05 Q116.0 44.3 116.4 45.85 L116.65 46.7 116.8 47.6 116.95 48.7 117.0 51.35 116.7 54.2 116.15 56.25 115.85 57.2 115.75 57.45 115.5 58.05 115.35 58.4 114.25 60.4 112.9 62.05 Q111.2 63.8 109.0 63.85 107.45 63.85 106.15 63.25 L103.7 61.35 103.65 61.25 103.55 61.2 103.5 61.1 103.4 61.0 Q101.1 58.05 101.05 53.2 101.05 49.25 102.25 45.85 103.3 42.45 105.45 40.55 L106.0 40.1 106.5 39.8 106.6 39.7 Q107.0 39.45 107.45 39.35 L107.85 39.2 107.9 39.2 108.1 39.15 108.15 39.15 108.5 39.1 108.55 39.1 108.7 39.1 108.75 39.1 108.8 39.1 109.0 39.05 M110.85 46.3 Q109.95 46.25 109.15 46.7 110.8 47.7 111.4 49.2 111.9 50.55 111.9 51.7 L111.9 52.95 111.3 52.1 109.6 50.65 Q108.4 49.85 106.75 49.6 106.05 51.1 106.0 52.85 105.85 55.7 107.05 57.7 108.2 59.7 110.15 59.85 112.05 59.85 113.35 58.0 114.75 56.15 114.9 53.3 115.05 50.4 113.9 48.45 112.75 46.45 110.85 46.3" fill="#ffffff" fill-rule="evenodd" stroke="none"/>
    <path d="M69.6 38.25 L69.75 37.85 69.95 37.45 70.6 36.4 71.55 35.1 71.6 35.1 70.6 36.4 69.6 38.25 M76.7 31.8 L76.7 31.75 76.75 31.75 76.7 31.8 M68.25 41.45 L69.0 39.65 68.7 40.6 68.55 41.05 68.15 42.5 68.05 42.75 67.65 44.15 67.35 45.6 67.15 47.6 67.1 48.25 67.0 52.65 67.45 57.35 Q68.5 63.5 71.05 68.25 73.6 72.85 77.1 75.2 80.55 77.55 84.3 76.85 88.0 75.95 90.5 72.3 L92.05 69.6 91.75 70.25 90.45 72.45 Q87.95 76.0 84.25 77.0 80.5 77.7 77.05 75.35 73.6 73.0 70.95 68.3 68.4 63.6 67.35 57.4 66.4 51.15 67.3 45.65 67.65 43.4 68.25 41.45 M80.15 31.7 L80.0 31.7 79.0 31.6 78.95 31.6 78.15 31.6 78.6 31.55 78.7 31.55 81.45 32.05 81.0 31.9 80.7 31.85 80.5 31.8 80.15 31.7 M77.1 31.7 L76.8 31.75 77.2 31.7 77.1 31.7 M107.25 39.4 Q106.25 39.7 105.3 40.35 L104.35 41.2 104.0 41.5 103.35 42.2 103.7 41.7 Q104.15 41.2 104.7 40.8 L105.3 40.35 Q105.8 39.95 106.35 39.7 L106.55 39.65 106.95 39.45 107.75 39.25 107.25 39.4 M101.25 45.75 Q100.35 47.65 99.95 49.95 L99.8 50.35 99.7 50.6 99.55 51.5 Q99.1 55.2 99.85 58.3 100.65 61.3 102.35 63.3 104.1 65.2 106.55 65.55 L108.2 65.5 106.3 65.55 Q103.9 65.2 102.2 63.3 100.45 61.3 99.7 58.2 98.95 55.2 99.4 51.5 L99.65 50.0 Q100.2 47.1 101.45 44.8 L101.5 44.75 102.15 43.85 101.9 44.25 101.65 44.75 101.6 44.8 101.5 45.0 101.45 45.1 101.35 45.5 101.25 45.75 M92.85 67.7 L92.75 67.85 93.1 66.9 92.85 67.7" fill="#808080" fill-rule="evenodd" stroke="none"/>
    <path d="M71.6 35.1 L71.55 35.1 70.6 36.4 69.95 37.45 69.75 37.85 69.6 38.25 69.1 39.35 69.0 39.65 68.25 41.45 Q67.6 43.4 67.25 45.65 66.35 51.25 67.3 57.5 68.35 63.75 71.0 68.45 73.55 73.1 77.0 75.45 80.45 77.8 84.2 77.05 87.95 76.15 90.45 72.5 L91.45 70.9 90.45 72.55 Q87.9 76.25 84.2 77.2 80.45 77.95 77.0 75.6 73.45 73.25 70.9 68.55 68.25 63.8 67.2 57.55 66.25 51.25 67.15 45.75 L67.65 43.25 67.85 42.45 Q68.3 40.75 69.0 39.25 69.65 37.7 70.5 36.4 L71.1 35.55 71.75 34.75 72.7 33.85 73.0 33.6 Q74.65 32.25 76.65 31.75 L76.7 31.75 76.7 31.8 76.65 31.8 76.4 31.85 76.3 31.9 76.05 31.95 75.9 32.05 75.8 32.05 75.6 32.15 75.4 32.25 75.3 32.3 75.15 32.35 75.05 32.4 75.0 32.45 74.95 32.45 74.85 32.5 74.8 32.55 74.0 33.0 73.8 33.1 73.05 33.7 72.85 33.8 71.6 35.1 M114.35 60.8 L114.3 60.85 113.95 61.4 113.65 61.85 112.95 62.7 112.1 63.55 111.3 64.25 110.1 65.0 Q108.25 65.9 106.2 65.7 103.75 65.35 102.1 63.3 103.85 65.25 106.25 65.65 108.7 65.9 110.9 64.45 L111.1 64.3 Q112.85 63.05 114.2 61.0 L114.35 60.8 M100.5 60.75 L100.45 60.65 Q99.9 59.55 99.6 58.2 98.85 55.05 99.35 51.35 L99.5 50.45 99.35 51.45 Q98.9 55.1 99.65 58.2 100.0 59.55 100.5 60.75" fill="#797979" fill-rule="evenodd" stroke="none"/>
    <path d="M73.0 33.6 L72.7 33.85 72.8 33.75 73.0 33.6 M71.75 34.75 L71.1 35.55 70.45 36.45 Q69.15 38.35 68.3 40.7 L68.5 40.05 69.35 38.15 70.4 36.45 71.55 35.0 71.75 34.75 M67.5 43.35 L67.0 45.75 Q66.1 51.3 67.05 57.65 68.15 64.0 70.75 68.75 73.35 73.45 76.9 75.9 80.45 78.25 84.2 77.45 87.9 76.55 90.45 72.8 L91.95 70.25 90.4 72.95 Q87.9 76.6 84.15 77.55 80.35 78.35 76.8 75.95 73.25 73.6 70.65 68.8 68.05 64.1 66.95 57.7 66.55 55.15 66.5 52.8 L66.6 48.15 66.75 46.95 66.9 45.8 67.2 44.25 67.5 43.35 M110.4 64.9 L110.05 65.05 Q111.5 64.3 112.85 62.85 L113.2 62.4 112.8 62.9 111.35 64.25 110.4 64.9 M109.0 65.5 L108.5 65.7 106.0 65.85 Q103.55 65.4 101.8 63.35 100.1 61.3 99.35 58.15 98.7 54.95 99.2 51.2 L99.5 49.75 Q100.05 47.2 101.15 45.1 L101.4 44.6 Q102.75 42.4 104.4 40.95 L105.3 40.25 Q106.5 39.5 107.75 39.25 L106.95 39.45 106.55 39.65 106.35 39.7 105.35 40.25 104.75 40.7 Q102.85 42.2 101.45 44.7 100.05 47.2 99.45 50.35 L99.25 51.3 99.15 52.1 99.05 54.25 99.3 57.2 99.5 58.2 99.9 59.7 100.45 60.65 100.5 60.75 101.3 62.2 101.35 62.25 101.9 63.35 Q103.6 65.4 106.05 65.8 L109.0 65.5" fill="#6d6d6d" fill-rule="evenodd" stroke="none"/>
    <path d="M72.7 33.85 L71.75 34.75 71.55 35.0 Q70.9 35.65 70.35 36.45 L69.35 38.15 68.5 40.05 68.3 40.7 67.5 43.35 67.2 44.25 66.9 45.8 66.75 46.95 66.6 48.15 66.5 52.8 Q66.5 55.2 66.9 57.8 68.0 64.15 70.6 68.95 73.2 73.75 76.75 76.1 80.35 78.45 84.1 77.7 87.9 76.75 90.45 73.0 92.2 70.4 93.25 66.85 L93.3 66.5 93.4 66.1 93.8 64.65 93.9 64.2 94.0 63.55 94.25 62.2 94.0 63.75 Q92.95 69.3 90.4 73.1 87.9 76.9 84.1 77.8 80.25 78.6 76.75 76.25 73.2 73.8 70.55 69.05 67.9 64.25 66.8 57.85 65.85 51.4 66.8 45.8 67.75 40.2 70.35 36.45 71.45 34.85 72.8 33.75 L72.7 33.85 M117.05 52.4 L116.9 53.95 Q115.85 59.6 112.75 63.0 L110.6 64.85 111.35 64.25 112.8 62.9 113.2 62.4 113.55 61.95 113.65 61.85 113.85 61.55 114.3 60.85 114.35 60.8 114.85 59.9 Q116.4 57.1 116.9 53.45 L116.95 53.05 117.0 52.7 117.05 52.4 M106.45 66.0 L105.85 65.95 Q103.4 65.5 101.65 63.45 100.15 61.55 99.5 58.8 100.2 61.5 101.75 63.45 103.4 65.5 105.95 65.95 L106.45 66.0 M99.05 52.0 L99.15 51.15 99.25 50.6 99.15 51.2 99.05 52.0" fill="#666666" fill-rule="evenodd" stroke="none"/>
    <path d="M69.3 40.15 L69.55 39.45 Q68.6 42.05 68.2 45.3 67.45 50.65 68.4 56.45 69.45 62.25 71.85 66.75 74.3 71.25 77.6 73.6 80.9 75.95 84.5 75.2 88.05 74.35 90.45 70.95 L92.55 67.15 92.25 68.0 90.5 71.05 Q88.05 74.45 84.55 75.35 80.95 76.0 77.65 73.75 74.3 71.4 71.8 66.9 69.4 62.35 68.35 56.55 67.4 50.65 68.15 45.35 68.5 42.5 69.3 40.15 M93.55 64.05 L93.7 63.35 93.9 62.55 94.0 62.05 93.9 62.65 93.7 63.6 93.55 64.05 M113.85 41.1 L115.35 43.05 115.0 42.55 113.85 41.1 M116.35 45.35 L116.75 47.0 116.65 46.45 116.5 45.9 116.35 45.35 M117.05 52.05 L117.05 52.15 117.05 52.4 117.0 52.7 116.95 53.05 116.9 53.45 116.7 54.55 117.0 52.8 117.0 52.6 117.0 52.55 117.05 52.3 117.05 52.05 M107.45 64.95 Q103.9 64.5 101.85 61.0 100.8 59.25 100.45 57.05 100.9 59.25 101.95 61.0 104.0 64.5 107.5 64.9 109.8 65.05 111.85 63.45 L112.55 62.8 113.95 61.15 114.85 59.75 115.35 58.7 115.25 59.0 114.9 59.7 114.6 60.2 114.05 61.05 113.45 61.85 113.25 62.1 112.8 62.6 111.85 63.5 111.45 63.8 111.2 63.95 110.55 64.35 109.2 64.8 107.45 64.95" fill="#b1b1b1" fill-rule="evenodd" stroke="none"/>
    <path d="M69.55 39.45 L69.3 40.15 68.85 41.3 Q68.25 43.2 68.0 45.45 67.25 50.8 68.2 56.7 69.25 62.55 71.75 67.15 74.15 71.6 77.55 73.95 80.85 76.3 84.45 75.6 88.05 74.7 90.5 71.25 92.9 67.75 93.9 62.8 L94.2 60.75 94.3 60.05 94.45 57.45 94.45 56.05 94.45 55.55 94.45 56.2 94.45 56.3 94.5 57.55 94.5 57.8 Q94.4 60.35 93.95 62.8 L93.9 63.0 93.8 63.55 93.75 63.75 93.65 64.05 93.35 65.3 93.25 65.55 92.1 68.65 90.5 71.3 Q88.1 74.85 84.5 75.75 80.9 76.45 77.5 74.1 74.2 71.75 71.7 67.2 69.2 62.65 68.15 56.75 67.2 50.8 67.95 45.45 68.65 40.05 70.95 36.3 L71.6 35.4 71.0 36.3 70.55 37.05 70.15 37.85 69.75 38.95 69.55 39.45 M93.6 49.65 L94.05 52.0 94.1 52.15 94.15 52.5 94.2 52.8 94.25 53.25 94.15 52.55 94.0 51.7 93.85 51.05 93.85 51.0 93.75 50.35 93.6 49.65 M100.2 56.95 Q100.6 59.2 101.65 61.0 103.65 64.6 107.25 65.05 L109.2 64.8 110.55 64.35 Q108.95 65.2 107.15 65.1 L107.1 65.1 105.45 64.7 Q103.1 63.75 101.6 61.0 100.55 59.2 100.2 56.95" fill="#a5a4a5" fill-rule="evenodd" stroke="none"/>
    <path d="M72.85 33.8 L73.05 33.7 72.55 34.15 72.1 34.65 71.85 34.9 71.8 34.95 70.7 36.4 Q69.5 38.3 68.7 40.6 L69.0 39.65 69.1 39.35 69.4 38.7 70.65 36.4 71.7 35.0 72.85 33.8 M67.0 52.65 L67.1 48.25 67.15 47.6 67.35 45.6 67.65 44.15 68.05 42.75 67.45 45.6 Q66.65 51.0 67.6 57.2 68.65 63.3 71.2 68.0 73.75 72.65 77.15 75.0 80.6 77.35 84.3 76.6 88.0 75.65 90.5 72.05 92.95 68.45 93.95 63.25 L94.3 61.1 94.4 60.0 94.3 61.05 94.25 61.5 94.15 62.4 94.0 63.3 93.75 64.35 93.25 66.2 Q92.25 69.65 90.45 72.2 87.95 75.8 84.3 76.7 80.6 77.4 77.15 75.05 73.65 72.7 71.1 68.1 68.55 63.45 67.5 57.3 L67.0 52.65 M104.0 41.5 L103.15 42.45 101.65 44.75 101.6 44.9 101.45 45.1 101.5 45.0 101.6 44.8 101.65 44.75 101.9 44.25 102.15 43.85 103.35 42.2 104.0 41.5 M99.7 50.6 L99.8 50.35 99.6 51.65 Q99.15 55.25 100.0 58.3 100.8 61.3 102.5 63.2 104.25 65.1 106.6 65.4 109.0 65.7 111.15 64.15 L112.7 62.8 111.1 64.25 109.5 65.1 108.6 65.4 106.55 65.5 Q104.1 65.1 102.45 63.2 100.65 61.3 99.95 58.3 99.1 55.25 99.55 51.6 L99.7 50.6" fill="#888888" fill-rule="evenodd" stroke="none"/>
    <path d="M92.55 67.15 L90.45 70.95 Q88.05 74.35 84.5 75.2 80.9 75.95 77.6 73.6 74.3 71.25 71.85 66.75 69.45 62.25 68.4 56.45 67.45 50.65 68.2 45.3 68.6 42.05 69.55 39.45 L69.75 38.95 70.55 37.25 71.05 36.3 Q71.75 35.1 72.6 34.25 L72.2 34.75 71.8 35.25 71.1 36.3 Q68.95 40.0 68.2 45.3 67.55 50.55 68.5 56.4 69.55 62.2 71.95 66.7 74.4 71.15 77.7 73.45 81.0 75.8 84.55 75.05 88.05 74.25 90.5 70.8 91.8 68.95 92.7 66.7 L92.55 67.15 M109.1 64.65 L109.35 64.55 109.45 64.5 Q110.5 64.25 111.45 63.6 L111.55 63.55 112.05 63.15 112.35 62.9 112.6 62.7 112.0 63.2 111.7 63.45 111.9 63.35 112.0 63.3 112.55 62.8 111.85 63.45 Q109.8 65.05 107.5 64.9 104.0 64.5 101.95 61.0 100.9 59.25 100.45 57.05 L100.4 56.55 Q100.8 59.05 102.0 61.0 104.1 64.45 107.55 64.8 L108.85 64.75 109.1 64.65 M100.2 52.7 L100.15 52.2 100.35 50.6 100.95 47.8 101.85 45.2 Q103.0 42.6 104.75 41.0 103.05 42.6 101.9 45.25 100.5 48.35 100.2 52.25 L100.2 52.7" fill="#b4b4b4" fill-rule="evenodd" stroke="none"/>
    <path d="M69.6 38.25 L70.6 36.4 71.6 35.1 72.85 33.8 71.7 35.0 70.65 36.4 69.4 38.7 69.1 39.35 69.6 38.25 M94.5 57.8 L94.5 57.55 94.45 56.3 94.5 56.85 94.5 57.5 94.5 57.8 M94.45 59.45 L94.45 59.2 94.45 58.7 94.45 59.45 M92.05 69.6 L90.5 72.3 Q88.0 75.95 84.3 76.85 80.55 77.55 77.1 75.2 73.6 72.85 71.05 68.25 68.5 63.5 67.45 57.35 L67.0 52.65 67.5 57.3 Q68.55 63.45 71.1 68.1 73.65 72.7 77.15 75.05 80.6 77.4 84.3 76.7 87.95 75.8 90.45 72.2 92.25 69.65 93.25 66.2 L93.1 66.9 92.75 67.85 92.05 69.6 M93.75 64.35 L94.0 63.3 94.15 62.4 94.25 61.5 94.25 61.9 94.0 63.3 93.85 64.1 93.75 64.35 M108.2 65.5 L106.55 65.55 Q104.1 65.2 102.35 63.3 100.65 61.3 99.85 58.3 99.1 55.2 99.55 51.5 L99.7 50.6 99.55 51.6 Q99.1 55.25 99.95 58.3 100.65 61.3 102.45 63.2 104.1 65.1 106.55 65.5 L108.6 65.4 108.2 65.5 M116.7 54.55 L116.9 53.45 Q116.4 57.1 114.85 59.9 L114.35 60.8 114.2 61.0 Q112.85 63.05 111.1 64.3 L110.15 64.9 109.85 65.0 109.5 65.1 111.1 64.25 112.7 62.8 112.95 62.5 113.25 62.1 113.45 61.85 114.05 61.05 114.6 60.2 114.85 59.8 115.25 59.0 115.35 58.7 115.85 57.5 115.95 57.3 116.1 56.85 116.2 56.6 116.2 56.45 116.25 56.35 116.7 54.55 M93.95 51.15 L94.1 52.0 94.2 52.6 94.25 53.25 94.2 52.8 94.1 52.05 94.0 51.45 93.95 51.15" fill="#848484" fill-rule="evenodd" stroke="none"/>
    <path d="M71.85 34.9 L72.1 34.65 71.55 35.3 71.4 35.45 71.25 35.7 70.85 36.3 70.8 36.4 Q68.4 40.05 67.6 45.5 66.8 50.95 67.75 57.05 68.8 63.15 71.35 67.8 73.85 72.35 77.25 74.7 80.7 77.05 84.4 76.3 88.0 75.4 90.5 71.85 L92.05 69.25 90.45 72.0 Q87.95 75.55 84.35 76.45 80.65 77.2 77.2 74.85 73.75 72.5 71.25 67.85 68.7 63.2 67.65 57.15 66.7 51.0 67.5 45.6 67.75 43.95 68.15 42.5 L68.55 41.05 Q69.4 38.4 70.75 36.4 L71.8 34.95 71.85 34.9 M102.35 43.65 L101.65 44.95 101.25 45.75 101.35 45.5 101.65 44.9 102.35 43.65 M99.8 51.3 L99.85 51.1 99.8 51.7 99.8 51.3 M113.25 62.1 L112.95 62.5 111.2 64.1 Q109.05 65.6 106.7 65.4 103.1 64.8 101.05 61.0 100.05 59.1 99.75 56.8 100.15 59.1 101.15 61.0 103.1 64.8 106.7 65.35 108.55 65.5 110.25 64.65 L111.4 63.95 112.8 62.6 113.25 62.1" fill="#8f8e8f" fill-rule="evenodd" stroke="none"/>
    <path d="M73.05 33.7 L73.8 33.1 72.55 34.15 73.05 33.7 M76.4 31.85 L76.65 31.8 76.7 31.8 76.6 31.8 76.4 31.85 M93.25 65.55 L93.35 65.3 93.65 64.05 93.75 63.75 Q92.75 68.4 90.45 71.7 88.0 75.2 84.35 76.1 80.65 76.85 77.25 74.5 73.85 72.1 71.4 67.55 68.9 62.9 67.85 57.0 66.9 50.95 67.7 45.5 L68.1 43.25 68.65 41.15 Q69.2 39.35 70.0 37.8 68.4 41.1 67.75 45.5 67.0 50.85 67.95 56.9 69.0 62.85 71.5 67.4 73.95 71.95 77.35 74.35 80.75 76.7 84.35 75.95 88.05 75.05 90.45 71.55 92.2 68.95 93.25 65.55 M76.75 31.75 L76.7 31.8 76.75 31.75 M71.25 35.7 L71.4 35.45 71.55 35.3 71.25 35.7 M104.4 41.2 L104.6 41.0 105.35 40.4 104.4 41.2 M111.45 63.8 L111.4 63.85 Q110.1 64.8 108.8 65.15 L107.35 65.3 107.05 65.3 106.9 65.25 106.65 65.15 106.9 65.2 Q108.55 65.35 110.1 64.6 L111.2 63.95 111.45 63.8 M103.0 63.35 L101.3 61.0 Q102.15 62.5 103.2 63.45 L103.0 63.35" fill="#9a9a9a" fill-rule="evenodd" stroke="none"/>
    <path d="M93.9 63.0 L93.95 62.8 Q94.4 60.35 94.5 57.8 L94.5 58.15 94.45 58.7 94.45 59.2 94.3 60.65 93.95 63.1 93.75 63.95 93.2 66.2 92.05 69.25 90.5 71.85 Q88.0 75.4 84.4 76.3 80.7 77.05 77.25 74.7 73.85 72.35 71.35 67.8 68.8 63.15 67.75 57.05 66.8 50.95 67.6 45.5 68.4 40.05 70.8 36.4 L70.0 37.8 Q69.2 39.35 68.65 41.15 L68.1 43.25 67.65 45.5 Q66.85 50.95 67.8 57.05 68.85 63.05 71.35 67.65 73.9 72.25 77.3 74.55 80.65 76.9 84.35 76.2 87.95 75.3 90.45 71.75 92.95 68.2 93.9 63.0 M81.5 32.05 L81.0 31.9 81.45 32.05 81.6 32.1 81.95 32.2 81.5 32.05 M93.25 48.1 L93.4 48.7 93.5 49.0 93.7 50.0 93.9 51.05 94.0 51.45 94.05 52.0 93.6 49.65 93.4 48.75 93.25 48.1 M106.45 39.75 L106.15 39.9 Q105.75 40.05 105.4 40.35 L104.6 41.0 104.4 41.2 104.05 41.55 103.05 42.75 102.6 43.4 102.35 43.75 102.0 44.35 101.6 45.05 101.15 46.1 101.0 46.45 100.95 46.7 100.35 48.65 99.85 51.1 99.8 51.3 99.75 51.8 99.7 52.4 99.7 52.9 99.65 51.75 99.95 49.95 Q100.35 47.65 101.25 45.75 L101.65 44.95 102.35 43.65 103.15 42.45 104.0 41.5 104.35 41.2 105.3 40.35 Q106.25 39.7 107.25 39.4 L106.95 39.5 106.45 39.75 M106.65 65.15 L106.9 65.25 107.05 65.3 107.35 65.3 108.8 65.15 110.25 64.65 Q108.55 65.5 106.7 65.35 103.1 64.8 101.15 61.0 100.15 59.1 99.75 56.8 L99.75 55.8 Q100.0 58.7 101.25 61.0 102.0 62.4 103.0 63.35 L103.2 63.45 Q104.7 64.8 106.65 65.15" fill="#939392" fill-rule="evenodd" stroke="none"/>
    <path d="M71.1 35.55 L70.5 36.4 Q69.65 37.7 69.0 39.25 68.3 40.75 67.85 42.45 L67.65 43.25 Q67.3 44.45 67.1 45.75 66.2 51.3 67.15 57.65 68.2 63.85 70.85 68.65 73.4 73.35 76.95 75.75 80.45 78.1 84.2 77.35 87.95 76.4 90.45 72.7 L92.15 69.7 91.95 70.25 90.45 72.8 Q87.9 76.55 84.2 77.45 80.45 78.25 76.9 75.9 73.35 73.45 70.75 68.75 68.15 64.0 67.05 57.65 66.1 51.3 67.0 45.75 L67.5 43.35 68.3 40.7 Q69.15 38.35 70.45 36.45 L71.1 35.55 M110.05 65.05 L109.0 65.5 106.05 65.8 Q103.6 65.4 101.9 63.35 103.65 65.35 106.1 65.8 108.2 66.0 110.1 65.0 L111.3 64.25 112.1 63.55 112.95 62.7 113.65 61.85 113.95 61.4 114.3 60.85 113.85 61.55 113.65 61.85 113.55 61.95 113.2 62.4 112.85 62.85 Q111.5 64.3 110.05 65.05 M106.35 39.7 Q105.8 39.95 105.3 40.35 L104.75 40.7 105.35 40.25 106.35 39.7 M99.15 52.1 L99.25 51.3 99.45 50.35 99.25 51.35 99.15 52.1 M93.3 66.5 L93.25 66.85 93.0 67.65 92.8 68.1 93.3 66.5" fill="#717171" fill-rule="evenodd" stroke="none"/>
    <path d="M68.7 40.6 Q69.5 38.3 70.7 36.4 L71.8 34.95 71.85 34.9 71.8 34.95 70.75 36.4 Q69.4 38.4 68.55 41.05 L68.7 40.6 M68.05 42.75 L68.15 42.5 Q67.75 43.95 67.5 45.6 66.7 51.0 67.65 57.15 68.7 63.2 71.25 67.85 73.75 72.5 77.2 74.85 80.65 77.2 84.35 76.45 87.95 75.55 90.45 72.0 L92.05 69.25 93.2 66.2 93.75 63.95 93.95 63.1 94.3 60.65 94.45 59.2 94.45 59.45 94.45 59.65 94.4 59.95 94.4 60.0 94.3 61.1 93.95 63.25 Q92.95 68.45 90.5 72.05 88.0 75.65 84.3 76.6 80.6 77.35 77.15 75.0 73.75 72.65 71.2 68.0 68.65 63.3 67.6 57.2 66.65 51.0 67.45 45.6 L68.05 42.75 M94.05 52.0 L94.0 51.45 93.9 51.05 93.95 51.15 94.0 51.45 94.1 52.05 94.2 52.8 94.15 52.5 94.1 52.15 94.05 52.0 M103.15 42.45 L102.35 43.65 101.65 44.9 101.35 45.5 101.45 45.1 101.6 44.9 101.65 44.75 103.15 42.45 M99.95 49.95 L99.65 51.75 99.7 52.9 99.65 53.8 99.7 54.95 99.75 55.8 99.75 56.8 Q100.05 59.1 101.05 61.0 103.1 64.8 106.7 65.4 109.05 65.6 111.2 64.1 L112.95 62.5 112.7 62.8 111.15 64.15 Q109.0 65.7 106.6 65.4 104.25 65.1 102.5 63.2 100.8 61.3 100.0 58.3 99.15 55.25 99.6 51.65 L99.8 50.35 99.95 49.95 M115.25 59.0 L114.85 59.8 114.6 60.2 114.9 59.7 115.25 59.0" fill="#8b8b8b" fill-rule="evenodd" stroke="none"/>
    <path d="M68.8 43.05 L69.3 41.0 69.65 40.0 Q68.9 42.35 68.6 45.2 67.95 50.45 68.9 56.1 69.85 61.7 72.3 66.1 74.65 70.5 77.9 72.85 81.1 75.15 84.65 74.5 88.1 73.65 90.55 70.3 L92.05 67.75 90.5 70.45 Q88.05 73.75 84.6 74.65 81.1 75.3 77.85 72.95 74.6 70.65 72.2 66.25 69.85 61.8 68.8 56.15 67.85 50.5 68.5 45.2 L68.8 43.05 M70.5 37.75 L70.65 37.35 71.25 36.25 71.85 35.3 71.25 36.25 70.5 37.75 M107.9 64.6 L109.7 64.4 110.0 64.3 111.45 63.6 Q110.5 64.25 109.45 64.5 L107.9 64.6" fill="#c7c7c7" fill-rule="evenodd" stroke="none"/>
    <path d="M74.8 32.55 L74.85 32.5 73.6 33.4 73.05 33.9 72.5 34.5 71.85 35.3 71.25 36.25 70.65 37.35 70.5 37.75 69.65 40.0 69.3 41.0 68.8 43.05 68.45 45.2 Q67.8 50.5 68.75 56.25 69.8 61.9 72.15 66.3 74.55 70.8 77.8 73.1 81.1 75.35 84.65 74.7 88.1 73.9 90.55 70.5 L91.45 69.05 90.45 70.65 Q88.0 73.95 84.5 74.85 80.95 75.5 77.75 73.25 74.4 70.85 72.0 66.45 69.65 61.95 68.6 56.3 67.65 50.55 68.3 45.3 68.55 43.1 69.1 41.25 L70.35 37.75 70.55 37.35 71.1 36.3 71.8 35.25 72.2 34.75 72.6 34.25 73.1 33.8 73.15 33.7 74.05 33.0 74.15 32.95 74.8 32.55 M75.05 32.4 L75.15 32.35 75.3 32.3 75.1 32.4 75.05 32.4 M93.95 61.75 L93.85 62.5 93.65 63.3 93.85 62.4 93.95 61.75 M81.75 32.15 L81.15 32.0 80.85 31.9 81.5 32.1 81.75 32.15 M102.8 43.6 L103.05 43.3 Q102.45 44.2 102.0 45.35 100.55 48.5 100.35 52.4 100.1 57.6 102.25 61.0 104.3 64.4 107.85 64.7 L109.35 64.55 109.1 64.65 107.75 64.75 Q104.3 64.4 102.15 61.0 100.3 57.95 100.3 53.6 L100.3 52.4 100.3 52.3 Q100.55 49.3 101.4 46.7 L101.5 46.35 101.95 45.35 102.8 43.6" fill="#c0c0c0" fill-rule="evenodd" stroke="none"/>
    <path d="M74.0 33.0 L74.8 32.55 74.15 32.95 74.05 33.0 73.15 33.7 73.1 33.8 72.6 34.25 Q71.75 35.1 71.05 36.3 L70.55 37.25 69.75 38.95 70.15 37.85 70.55 37.05 71.0 36.3 71.6 35.4 71.65 35.3 72.3 34.5 72.55 34.25 74.0 33.0 M69.3 40.15 Q68.5 42.5 68.15 45.35 67.4 50.65 68.35 56.55 69.4 62.35 71.8 66.9 74.3 71.4 77.65 73.75 80.95 76.0 84.55 75.35 88.05 74.45 90.5 71.05 L92.25 68.0 90.45 71.15 Q88.05 74.6 84.45 75.45 80.85 76.15 77.55 73.8 74.2 71.55 71.7 67.0 69.3 62.5 68.25 56.6 67.3 50.7 68.05 45.35 68.3 43.2 68.85 41.3 L69.3 40.15 M109.0 39.05 L108.8 39.1 108.75 39.1 108.9 39.05 109.0 39.05 M107.85 39.2 L107.45 39.35 Q106.4 39.65 105.45 40.4 L104.75 41.0 Q103.0 42.6 101.85 45.2 L100.95 47.8 100.35 50.6 100.15 52.2 100.2 52.7 100.4 56.55 100.45 57.05 Q100.8 59.25 101.85 61.0 103.9 64.5 107.45 64.95 L107.3 64.95 Q103.75 64.6 101.7 61.0 100.55 59.0 100.15 56.45 L100.0 52.55 100.0 52.1 100.1 51.35 100.6 48.6 Q101.0 46.75 101.8 45.2 102.6 43.35 103.75 42.0 L104.75 40.95 104.95 40.75 105.4 40.4 105.8 40.1 Q106.05 39.95 106.25 39.85 L106.35 39.8 106.45 39.75 106.95 39.5 107.25 39.4 107.75 39.25 107.85 39.2" fill="#adadad" fill-rule="evenodd" stroke="none"/>
    <path d="M72.55 34.5 L71.35 36.25 Q69.35 39.85 68.8 45.05 L68.75 45.6 68.55 49.05 68.65 49.95 68.95 53.85 69.0 54.95 69.15 55.9 Q70.1 61.4 72.45 65.8 74.9 70.15 78.05 72.5 81.3 74.75 84.75 74.1 88.2 73.3 90.55 70.0 92.1 67.8 93.05 65.0 L92.9 65.6 92.5 66.6 91.6 68.45 90.55 70.15 Q88.15 73.35 84.7 74.25 81.2 74.9 78.05 72.55 74.8 70.3 72.45 65.9 70.0 61.55 69.05 55.95 68.1 50.35 68.7 45.15 69.25 39.9 71.35 36.25 72.2 34.65 73.35 33.65 L73.1 33.85 72.55 34.5 M103.7 62.45 L102.55 61.0 Q100.55 57.9 100.55 53.25 L100.55 52.6 100.55 52.55 100.65 51.75 100.6 52.7 Q100.45 57.75 102.65 61.0 104.8 64.25 108.25 64.45 L108.15 64.45 Q105.55 64.3 103.7 62.45 M101.0 49.25 L101.05 48.85 Q101.35 47.1 102.05 45.5 102.4 44.55 102.9 43.75 102.45 44.55 102.1 45.5 L102.05 45.55 Q101.35 47.3 101.0 49.25 M110.9 63.8 L111.9 63.2 110.8 63.85 110.4 64.05 110.9 63.8 M114.45 60.3 L115.0 59.35 115.5 58.2 116.3 56.15 116.25 56.35 116.2 56.45 116.2 56.6 116.1 56.85 116.0 57.1 115.85 57.45 115.5 58.35 114.9 59.55 114.45 60.3" fill="#d3d2d2" fill-rule="evenodd" stroke="none"/>
    <path d="M68.65 49.95 L68.55 49.05 68.75 45.6 68.8 45.05 Q69.35 39.85 71.35 36.25 L72.55 34.5 Q71.9 35.25 71.4 36.25 69.35 39.85 68.85 45.05 68.55 47.45 68.65 49.95 M69.0 54.95 L68.95 53.85 69.2 55.75 Q70.15 61.25 72.5 65.6 74.85 69.9 78.05 72.2 81.2 74.55 84.65 73.9 88.1 73.0 90.4 69.8 L91.35 68.35 91.7 67.6 91.9 67.05 92.8 65.1 93.05 64.55 93.75 62.0 94.2 59.3 94.35 57.4 93.8 62.05 Q92.75 66.6 90.5 69.9 88.15 73.15 84.7 73.95 81.2 74.6 78.05 72.35 74.8 70.05 72.45 65.65 70.1 61.3 69.15 55.8 L69.0 54.95 M80.65 31.85 L80.35 31.75 80.5 31.8 80.65 31.85 M113.55 40.9 L112.95 40.4 112.8 40.3 112.7 40.25 112.6 40.15 112.7 40.15 112.8 40.2 113.2 40.55 113.3 40.6 113.65 40.9 113.85 41.15 114.05 41.35 113.75 41.05 113.55 40.9 M117.05 51.8 L117.05 51.9 117.05 52.0 117.05 52.05 117.05 52.3 117.0 52.55 117.0 52.6 117.0 52.8 116.7 54.55 116.45 55.5 116.35 55.9 116.3 56.15 115.5 58.2 115.0 59.35 114.45 60.3 114.4 60.45 113.9 61.15 113.35 61.8 113.25 61.95 112.75 62.45 112.45 62.75 111.9 63.2 110.9 63.8 110.25 64.1 108.65 64.4 108.3 64.4 Q106.6 64.25 105.2 63.4 106.6 64.25 108.3 64.3 L108.4 64.3 Q110.6 64.35 112.45 62.7 L113.15 61.95 113.35 61.7 113.55 61.45 114.3 60.45 114.65 59.85 115.0 59.25 115.15 58.95 115.35 58.5 115.7 57.75 115.95 57.0 116.0 56.9 116.1 56.6 Q116.85 54.3 117.05 51.8" fill="#dad9d9" fill-rule="evenodd" stroke="none"/>
    <path d="M73.6 33.4 L74.85 32.5 Q74.3 32.8 73.8 33.25 L73.5 33.55 73.0 34.05 72.8 34.3 72.7 34.4 72.55 34.55 71.45 36.25 Q69.45 39.85 68.95 45.05 68.35 50.2 69.3 55.75 70.25 61.15 72.6 65.45 74.95 69.75 78.15 72.05 81.2 74.4 84.7 73.75 88.15 72.95 90.4 69.7 L91.35 68.35 90.4 69.8 Q88.1 73.0 84.65 73.9 81.2 74.55 78.05 72.2 74.85 69.9 72.5 65.6 70.15 61.25 69.2 55.75 L68.95 53.85 68.65 49.95 Q68.55 47.45 68.85 45.05 69.35 39.85 71.4 36.25 71.9 35.25 72.55 34.5 L73.1 33.85 73.35 33.65 73.6 33.4 M75.05 32.4 L75.1 32.4 75.05 32.4 M103.3 43.0 Q102.6 44.15 102.05 45.65 L101.7 46.65 102.05 45.55 102.1 45.5 Q102.45 44.55 102.9 43.75 L103.2 43.2 103.3 43.0 M101.45 58.35 Q101.95 59.8 102.8 61.0 L102.95 61.25 102.7 61.0 Q101.9 59.8 101.45 58.35 M114.3 60.45 L113.55 61.45 113.6 61.35 113.85 61.0 114.3 60.45 M113.15 61.95 L112.45 62.7 Q110.6 64.35 108.4 64.3 109.8 64.3 111.1 63.6 L111.45 63.35 112.05 62.95 112.15 62.9 112.55 62.55 112.7 62.4 113.15 61.95 M108.3 64.3 Q106.6 64.25 105.2 63.4 L104.95 63.15 Q106.45 64.15 108.3 64.3" fill="#dddddd" fill-rule="evenodd" stroke="none"/>
    <path d="M71.85 35.8 L71.6 36.15 Q69.7 39.75 69.25 44.9 L69.1 48.45 Q69.1 51.4 69.55 54.4 L69.7 55.35 Q70.65 60.65 72.95 64.9 75.2 69.15 78.3 71.45 81.4 73.75 84.8 73.15 L87.15 72.25 84.7 73.25 Q81.3 73.9 78.25 71.6 75.05 69.3 72.8 65.0 70.5 60.7 69.55 55.45 68.65 50.05 69.1 44.9 69.35 42.35 69.95 40.2 L70.8 37.75 71.55 36.15 71.85 35.6 72.2 35.05 72.6 34.5 72.7 34.4 72.8 34.3 72.9 34.2 72.25 35.1 71.85 35.8 M113.55 61.45 L113.35 61.7 113.05 62.05 112.85 62.2 112.75 62.3 Q110.9 64.05 108.7 64.1 107.1 64.0 105.75 63.3 106.8 63.8 108.0 63.95 L108.8 64.0 108.85 64.0 Q111.0 64.0 112.75 62.25 L112.9 62.1 113.65 61.25 113.6 61.35 113.55 61.45 M116.0 56.9 L115.95 57.0 115.7 57.75 115.35 58.5 115.5 58.15 115.75 57.55 116.0 56.9" fill="#f1f0f0" fill-rule="evenodd" stroke="none"/>
    <path d="M75.9 32.05 L76.05 31.95 76.3 31.9 76.4 31.85 76.25 31.9 75.9 32.05 M69.55 54.4 Q69.1 51.4 69.1 48.45 L69.25 44.9 Q69.7 39.75 71.6 36.15 L71.85 35.8 71.65 36.15 Q71.1 37.2 70.7 38.35 L69.65 42.75 69.35 44.85 Q68.9 50.0 69.8 55.2 70.75 60.45 73.05 64.7 75.3 68.9 78.35 71.15 81.4 73.45 84.8 72.85 88.1 72.05 90.35 69.05 88.1 72.2 84.8 73.0 81.4 73.6 78.3 71.3 75.2 69.05 72.95 64.8 70.65 60.6 69.7 55.3 L69.55 54.4 M106.0 40.1 L105.45 40.55 Q103.3 42.45 102.25 45.85 101.05 49.25 101.05 53.2 101.1 58.05 103.4 61.0 L103.5 61.1 103.55 61.2 103.65 61.25 103.7 61.35 106.15 63.25 Q107.45 63.9 109.0 63.95 L111.15 63.4 Q110.05 63.95 108.85 64.0 L108.8 64.0 108.0 63.95 Q106.6 63.75 105.45 63.05 L103.8 61.6 103.3 61.0 Q101.0 58.05 100.95 53.15 100.95 51.1 101.25 49.3 L101.7 47.2 101.85 46.7 101.85 46.65 102.15 45.8 102.15 45.7 103.05 43.65 Q103.55 42.7 104.15 41.9 L104.2 41.8 104.8 41.15 104.95 41.0 105.45 40.55 106.0 40.1" fill="#f8f8f8" fill-rule="evenodd" stroke="none"/>
    <path d="M91.45 70.9 L90.45 72.5 Q87.95 76.15 84.2 77.05 80.45 77.8 77.0 75.45 73.55 73.1 71.0 68.45 68.35 63.75 67.3 57.5 66.35 51.25 67.25 45.65 67.6 43.4 68.25 41.45 67.65 43.4 67.3 45.65 66.4 51.15 67.35 57.4 68.4 63.6 70.95 68.3 73.6 73.0 77.05 75.35 80.5 77.7 84.25 77.0 87.95 76.0 90.45 72.45 L91.75 70.25 91.45 70.9 M93.25 66.2 L93.75 64.35 93.85 64.1 94.0 63.3 94.25 61.9 94.0 63.45 93.8 64.65 93.4 66.1 93.15 66.9 92.85 67.7 93.1 66.9 93.25 66.2 M93.7 50.0 L93.9 50.9 94.1 51.9 94.2 52.6 94.1 52.0 93.95 51.15 93.9 51.05 93.7 50.0 M99.65 50.0 L99.4 51.5 Q98.95 55.2 99.7 58.2 100.45 61.3 102.2 63.3 103.9 65.2 106.3 65.55 L108.2 65.5 108.6 65.4 109.5 65.1 109.85 65.0 110.15 64.9 111.1 64.3 110.9 64.45 Q108.7 65.9 106.25 65.65 103.85 65.25 102.1 63.3 L101.35 62.25 101.3 62.2 100.5 60.75 Q100.0 59.55 99.65 58.2 98.9 55.1 99.35 51.45 L99.5 50.45 99.65 50.0" fill="#7c7c7c" fill-rule="evenodd" stroke="none"/>
    <path d="M67.65 43.25 L67.15 45.75 Q66.25 51.25 67.2 57.55 68.25 63.8 70.9 68.55 73.45 73.25 77.0 75.6 80.45 77.95 84.2 77.2 87.9 76.25 90.45 72.55 L91.45 70.9 91.75 70.25 92.05 69.6 92.75 67.85 92.85 67.7 93.15 66.9 93.4 66.1 93.3 66.5 92.8 68.1 92.15 69.7 90.45 72.7 Q87.95 76.4 84.2 77.35 80.45 78.1 76.95 75.75 73.4 73.35 70.85 68.65 68.2 63.85 67.15 57.65 66.2 51.3 67.1 45.75 67.3 44.45 67.65 43.25 M94.45 56.3 L94.45 56.2 94.45 55.55 94.4 54.95 94.35 54.7 94.35 54.65 94.35 54.35 94.3 53.95 94.3 53.7 94.3 53.65 94.25 53.25 94.2 52.6 94.1 51.9 93.9 50.9 94.1 51.85 Q94.9 57.3 94.25 62.2 L94.0 63.55 93.9 64.2 93.8 64.65 94.0 63.45 94.25 61.9 94.25 61.5 94.3 61.05 94.4 60.0 94.4 59.95 94.45 59.65 94.45 59.45 94.45 58.7 94.5 58.15 94.5 57.8 94.5 57.5 94.5 56.85 94.45 56.3 M105.3 40.35 L104.7 40.8 Q104.15 41.2 103.7 41.7 L103.35 42.2 102.15 43.85 101.5 44.75 101.45 44.8 Q100.2 47.1 99.65 50.0 L99.5 50.45 99.35 51.35 Q98.85 55.05 99.6 58.2 99.9 59.55 100.45 60.65 L99.9 59.7 99.5 58.2 99.3 57.2 99.05 54.25 99.15 52.1 99.25 51.35 99.45 50.35 Q100.05 47.2 101.45 44.7 102.85 42.2 104.75 40.7 L105.3 40.35 M110.1 65.0 Q108.2 66.0 106.1 65.8 103.65 65.35 101.9 63.35 L101.35 62.25 102.1 63.3 Q103.75 65.35 106.2 65.7 108.25 65.9 110.1 65.0" fill="#757575" fill-rule="evenodd" stroke="none"/>
    <path d="M93.75 63.75 L93.8 63.55 93.9 63.0 Q92.95 68.2 90.45 71.75 87.95 75.3 84.35 76.2 80.65 76.9 77.3 74.55 73.9 72.25 71.35 67.65 68.85 63.05 67.8 57.05 66.85 50.95 67.65 45.5 L68.1 43.25 67.7 45.5 Q66.9 50.95 67.85 57.0 68.9 62.9 71.4 67.55 73.85 72.1 77.25 74.5 80.65 76.85 84.35 76.1 88.0 75.2 90.45 71.7 92.75 68.4 93.75 63.75 M104.6 41.0 L105.4 40.35 Q105.75 40.05 106.15 39.9 L106.45 39.75 106.25 39.85 Q106.05 39.95 105.8 40.1 L105.35 40.4 104.6 41.0 M99.7 52.4 L99.75 51.8 99.8 51.3 99.8 51.7 99.75 51.9 99.7 52.4 M111.45 63.8 L111.85 63.5 112.8 62.6 111.4 63.95 110.25 64.65 108.8 65.15 Q110.1 64.8 111.4 63.85 L111.45 63.8 M99.75 55.8 L99.7 54.95 99.75 55.65 Q100.0 58.65 101.3 61.0 L103.0 63.35 Q102.0 62.4 101.25 61.0 100.0 58.7 99.75 55.8" fill="#979797" fill-rule="evenodd" stroke="none"/>
    <path d="M69.1 41.25 Q68.5 43.1 68.25 45.3 67.6 50.55 68.55 56.4 69.6 62.1 72.0 66.55 74.45 71.0 77.7 73.4 81.0 75.65 84.5 75.0 88.05 74.1 90.45 70.75 92.8 67.35 93.85 62.5 L94.2 60.55 94.25 59.85 94.35 58.85 94.35 59.35 94.1 61.4 94.0 62.05 93.9 62.55 93.7 63.35 93.55 64.05 93.45 64.35 93.35 64.75 93.35 64.8 92.7 66.7 Q91.8 68.95 90.5 70.8 88.05 74.25 84.55 75.05 81.0 75.8 77.7 73.45 74.4 71.15 71.95 66.7 69.55 62.2 68.5 56.4 67.55 50.55 68.2 45.3 68.95 40.0 71.1 36.3 L71.8 35.25 71.1 36.3 70.55 37.35 70.35 37.75 69.1 41.25 M81.75 32.15 L81.5 32.1 80.7 31.85 81.0 31.9 81.5 32.05 81.75 32.15 M107.45 39.35 Q107.0 39.45 106.6 39.7 L106.3 39.85 106.1 40.0 105.4 40.5 104.6 41.25 104.45 41.4 104.15 41.75 103.8 42.2 103.2 43.0 103.05 43.3 102.8 43.6 Q102.3 44.35 101.95 45.25 L101.5 46.35 101.4 46.7 Q100.55 49.3 100.3 52.3 L100.3 52.4 100.3 53.6 Q100.3 57.95 102.15 61.0 104.2 64.45 107.75 64.8 L108.85 64.75 107.55 64.8 Q104.1 64.45 102.0 61.0 100.8 59.05 100.4 56.55 L100.2 52.7 100.2 52.25 Q100.5 48.35 101.9 45.25 103.05 42.6 104.75 41.0 L105.45 40.4 Q106.4 39.65 107.45 39.35" fill="#b8b8b8" fill-rule="evenodd" stroke="none"/>
    <path d="M94.2 60.55 L93.85 62.5 Q92.8 67.35 90.45 70.75 88.05 74.1 84.5 75.0 81.0 75.65 77.7 73.4 74.45 71.0 72.0 66.55 69.6 62.1 68.55 56.4 67.6 50.55 68.25 45.3 68.5 43.1 69.1 41.25 68.55 43.1 68.3 45.3 67.65 50.55 68.6 56.3 69.65 61.95 72.0 66.45 74.4 70.85 77.75 73.25 80.95 75.5 84.5 74.85 88.0 73.95 90.45 70.65 L91.45 69.05 92.25 67.5 93.3 64.65 93.65 63.3 93.85 62.5 93.95 61.75 94.05 61.35 94.2 60.55 M81.85 32.2 L81.75 32.15 81.5 32.05 81.95 32.2 81.85 32.2 M80.7 31.85 L81.5 32.1 80.85 31.9 80.75 31.85 80.65 31.85 80.7 31.85 M102.8 43.6 L101.95 45.35 101.5 46.35 101.95 45.25 Q102.3 44.35 102.8 43.6 M102.15 61.0 Q104.3 64.4 107.75 64.75 L109.1 64.65 108.85 64.75 107.75 64.8 Q104.2 64.45 102.15 61.0 M116.3 56.15 L116.35 55.9 116.45 55.5 116.7 54.55 116.25 56.35 116.3 56.15 M113.95 61.15 L112.55 62.8 112.0 63.3 111.9 63.35 111.7 63.45 112.0 63.2 112.6 62.7 112.75 62.55 113.95 61.15" fill="#bcbcbc" fill-rule="evenodd" stroke="none"/>
    <path d="M92.25 68.0 L92.55 67.15 92.7 66.7 93.35 64.8 93.35 64.75 93.45 64.35 93.55 64.05 93.7 63.6 93.9 62.65 94.0 62.05 94.1 61.4 94.35 59.35 94.35 58.85 94.4 58.55 94.45 57.45 94.3 60.05 94.2 60.75 93.9 62.8 Q92.9 67.75 90.5 71.25 88.05 74.7 84.45 75.6 80.85 76.3 77.55 73.95 74.15 71.6 71.75 67.15 69.25 62.55 68.2 56.7 67.25 50.8 68.0 45.45 68.25 43.2 68.85 41.3 68.3 43.2 68.05 45.35 67.3 50.7 68.25 56.6 69.3 62.5 71.7 67.0 74.2 71.55 77.55 73.8 80.85 76.15 84.45 75.45 88.05 74.6 90.45 71.15 L92.25 68.0 M102.1 44.45 L102.8 43.25 Q103.2 42.55 103.75 42.0 102.6 43.35 101.8 45.2 101.0 46.75 100.6 48.6 L100.6 48.4 Q101.0 46.65 101.75 45.1 L102.1 44.45 M100.1 51.35 L100.0 52.1 100.0 52.55 99.95 52.05 100.1 51.35 M100.15 56.45 Q100.55 59.0 101.7 61.0 103.75 64.6 107.3 64.95 L107.45 64.95 109.2 64.8 107.25 65.05 Q103.65 64.6 101.65 61.0 100.6 59.2 100.2 56.95 L100.15 56.45" fill="#a9a9a9" fill-rule="evenodd" stroke="none"/>
    <path d="M92.05 67.75 L90.55 70.3 Q88.1 73.65 84.65 74.5 81.1 75.15 77.9 72.85 74.65 70.5 72.3 66.1 69.85 61.7 68.9 56.1 67.95 50.45 68.6 45.2 68.9 42.35 69.65 40.0 L70.5 37.75 71.25 36.25 71.85 35.3 72.5 34.5 73.05 33.9 Q72.1 34.85 71.3 36.25 69.25 39.9 68.65 45.15 68.0 50.45 68.95 56.05 69.9 61.6 72.35 66.05 74.7 70.45 77.95 72.7 81.15 75.0 84.6 74.35 88.15 73.5 90.5 70.2 L91.6 68.45 92.5 66.6 92.05 67.75 M92.9 65.6 L93.05 65.0 93.85 62.15 93.85 62.3 93.7 63.0 93.2 64.85 92.9 65.6 M106.1 40.0 L105.55 40.4 105.45 40.5 105.1 40.8 104.95 40.9 103.7 42.4 103.45 42.8 103.3 43.0 103.2 43.2 102.9 43.75 Q102.4 44.55 102.05 45.5 101.35 47.1 101.05 48.85 L101.0 49.25 100.65 51.75 100.55 52.55 100.55 52.6 100.55 53.25 Q100.55 57.9 102.55 61.0 L103.7 62.45 Q105.5 64.35 108.15 64.55 L109.8 64.35 110.0 64.3 109.7 64.4 107.9 64.6 Q104.45 64.3 102.3 61.0 100.4 57.95 100.4 53.45 L100.4 52.55 100.4 52.45 Q100.6 48.55 101.95 45.4 L103.05 43.3 103.8 42.2 104.15 41.75 104.45 41.4 104.6 41.25 105.4 40.5 106.1 40.0" fill="#cccbcb" fill-rule="evenodd" stroke="none"/>
    <path d="M68.8 43.05 L68.5 45.2 Q67.85 50.5 68.8 56.15 69.85 61.8 72.2 66.25 74.6 70.65 77.85 72.95 81.1 75.3 84.6 74.65 88.05 73.75 90.5 70.45 L92.05 67.75 92.5 66.6 92.9 65.6 93.2 64.85 93.7 63.0 93.85 62.3 93.85 62.15 93.9 61.9 94.0 61.5 94.05 61.15 94.15 60.75 94.15 60.55 94.25 59.85 94.2 60.55 94.05 61.35 93.95 61.75 93.85 62.4 93.65 63.3 93.3 64.65 92.25 67.5 91.45 69.05 90.55 70.5 Q88.1 73.9 84.65 74.7 81.1 75.35 77.8 73.1 74.55 70.8 72.15 66.3 69.8 61.9 68.75 56.25 67.8 50.5 68.45 45.2 L68.8 43.05 M103.8 42.2 L103.05 43.3 101.95 45.4 Q100.6 48.55 100.4 52.45 L100.4 52.55 100.4 53.45 Q100.4 57.95 102.3 61.0 104.45 64.3 107.9 64.6 L109.45 64.5 109.35 64.55 107.85 64.7 Q104.3 64.4 102.25 61.0 100.1 57.6 100.35 52.4 100.55 48.5 102.0 45.35 102.45 44.2 103.05 43.3 L103.2 43.0 103.8 42.2 M94.0 51.7 L94.15 52.55 94.25 53.25 94.3 53.65 94.3 53.7 94.3 53.95 94.35 54.35 94.15 52.8 94.15 52.65 94.1 52.5 94.1 52.35 94.05 52.15 94.0 51.7" fill="#c2c2c3" fill-rule="evenodd" stroke="none"/>
    <path d="M69.7 41.05 Q69.25 42.9 69.05 45.0 68.55 50.15 69.5 55.5 70.45 60.85 72.75 65.15 75.1 69.4 78.2 71.7 81.35 74.05 84.75 73.4 88.1 72.55 90.4 69.4 92.1 67.05 93.1 64.1 L92.8 65.1 91.9 67.05 90.4 69.5 Q88.15 72.7 84.75 73.55 81.3 74.1 78.2 71.85 75.05 69.55 72.75 65.2 70.4 60.95 69.45 55.6 68.5 50.15 69.0 45.0 69.2 42.85 69.7 41.05 M101.6 58.4 L100.9 55.25 100.75 52.9 100.75 52.85 Q100.8 48.85 102.1 45.65 L102.15 45.45 102.25 45.3 102.7 44.2 103.05 43.65 102.15 45.7 102.15 45.8 101.85 46.65 101.85 46.7 101.75 47.05 101.7 47.2 101.25 49.3 101.15 49.85 101.1 50.2 Q100.9 51.55 100.85 53.0 100.85 57.9 103.05 61.0 104.7 63.2 106.95 63.9 104.6 63.25 102.95 61.0 102.1 59.85 101.6 58.4 M93.5 62.75 L93.55 62.45 93.7 61.9 93.75 61.7 93.75 61.85 93.6 62.35 93.5 62.75" fill="#eaeae9" fill-rule="evenodd" stroke="none"/>
    <path d="M72.7 34.4 L72.6 34.5 72.2 35.05 71.85 35.6 71.55 36.15 70.8 37.75 71.0 37.2 71.5 36.15 71.95 35.4 72.2 35.05 72.4 34.75 72.55 34.55 72.7 34.4 M69.95 40.2 Q69.35 42.35 69.1 44.9 68.65 50.05 69.55 55.45 70.5 60.7 72.8 65.0 75.05 69.3 78.25 71.6 81.3 73.9 84.7 73.25 L87.15 72.25 89.15 70.7 89.8 70.0 90.45 69.2 Q92.4 66.45 93.45 62.8 L93.1 64.1 Q92.1 67.05 90.4 69.4 88.1 72.55 84.75 73.4 81.35 74.05 78.2 71.7 75.1 69.4 72.75 65.15 70.45 60.85 69.5 55.5 68.55 50.15 69.05 45.0 69.25 42.9 69.7 41.05 L69.95 40.2 M101.1 50.2 L100.95 51.6 100.9 53.0 100.9 53.05 Q101.0 57.75 102.95 60.7 L103.05 60.8 103.1 60.9 103.2 61.0 103.25 61.1 103.35 61.2 103.8 61.6 105.45 63.05 105.75 63.3 Q107.1 64.0 108.7 64.1 110.9 64.05 112.75 62.3 L112.85 62.2 113.05 62.05 113.35 61.7 113.15 61.95 112.7 62.4 112.55 62.55 112.15 62.9 112.05 62.95 111.45 63.35 Q110.1 64.1 108.65 64.15 L108.55 64.15 106.95 63.9 Q104.7 63.2 103.05 61.0 100.85 57.9 100.85 53.0 100.9 51.55 101.1 50.2" fill="#ededed" fill-rule="evenodd" stroke="none"/>
    <path d="M74.85 32.5 L74.95 32.45 73.9 33.2 73.5 33.55 73.8 33.25 Q74.3 32.8 74.85 32.5 M72.9 34.2 L72.8 34.3 73.0 34.05 72.9 34.2 M70.8 37.75 L69.95 40.2 69.7 41.05 Q69.2 42.85 69.0 45.0 68.5 50.15 69.45 55.6 70.4 60.95 72.75 65.2 75.05 69.55 78.2 71.85 81.3 74.1 84.75 73.55 88.15 72.7 90.4 69.5 L91.9 67.05 91.7 67.6 90.4 69.65 Q88.1 72.8 84.75 73.6 81.25 74.25 78.1 72.0 74.95 69.7 72.65 65.35 70.3 61.0 69.35 55.65 68.4 50.2 69.0 45.0 69.4 40.5 71.0 37.2 L70.8 37.75 M81.15 32.0 L80.35 31.75 80.65 31.85 80.75 31.85 80.85 31.9 81.15 32.0 M106.5 39.8 L106.0 40.1 106.05 40.05 106.5 39.8 M112.8 40.3 L112.0 39.8 111.95 39.75 112.05 39.8 112.1 39.8 112.6 40.15 112.7 40.25 112.8 40.3 M103.45 61.75 L102.9 61.0 Q102.1 59.85 101.6 58.4 102.1 59.85 102.95 61.0 104.6 63.25 106.95 63.9 L108.55 64.15 108.65 64.15 Q110.1 64.1 111.45 63.35 L111.1 63.6 Q109.85 64.2 108.5 64.25 106.3 64.15 104.65 62.85 L103.45 61.75 M104.2 41.8 L105.45 40.5 106.0 40.1 105.45 40.55 104.95 41.0 104.8 41.15 104.2 41.8 M113.85 61.0 L113.6 61.35 113.65 61.25 113.85 61.0" fill="#e5e4e4" fill-rule="evenodd" stroke="none"/>
    <path d="M90.35 69.05 Q88.1 72.05 84.8 72.85 81.4 73.45 78.35 71.15 75.3 68.9 73.05 64.7 70.75 60.45 69.8 55.2 68.9 50.0 69.35 44.85 L69.65 42.75 69.4 44.85 Q68.95 49.9 69.85 55.15 70.8 60.35 73.1 64.55 75.3 68.8 78.4 71.1 81.4 73.35 84.8 72.7 88.1 71.95 90.4 68.9 L91.5 67.2 91.15 67.9 90.4 68.95 90.35 69.05 M93.05 63.7 L93.7 61.55 94.25 57.45 94.3 54.6 94.15 53.3 94.15 53.15 94.1 52.8 93.95 51.9 93.65 50.25 93.35 48.85 Q92.5 45.15 91.15 42.25 L90.6 41.05 90.4 40.65 90.35 40.6 90.3 40.5 90.0 40.0 Q88.6 37.55 87.0 35.8 L85.7 34.55 85.65 34.5 85.6 34.45 84.6 33.65 84.1 33.3 84.0 33.25 83.85 33.15 83.65 33.05 83.4 32.9 83.2 32.8 83.0 32.7 83.2 32.8 83.6 33.0 84.0 33.25 84.75 33.75 85.5 34.35 86.95 35.7 87.3 36.15 87.95 36.9 88.05 37.0 88.2 37.25 89.1 38.5 89.7 39.45 90.1 40.1 90.35 40.5 Q93.05 45.5 94.15 53.1 L94.35 55.4 94.35 55.5 94.15 58.95 93.7 61.6 93.2 63.35 93.05 63.7 M82.2 32.35 L82.15 32.3 82.1 32.3 82.05 32.25 81.85 32.2 81.95 32.2 82.0 32.25 82.1 32.3 82.15 32.3 82.2 32.35 M106.15 63.25 Q107.45 63.85 109.0 63.85 111.2 63.8 112.9 62.05 L114.25 60.4 115.35 58.4 115.5 58.05 115.75 57.45 115.85 57.2 116.15 56.25 116.7 54.2 117.0 51.35 116.95 48.7 116.8 47.6 116.65 46.7 116.4 45.85 Q116.0 44.3 115.25 43.05 L113.55 40.9 113.75 41.05 114.05 41.35 114.25 41.6 115.0 42.55 115.35 43.05 115.6 43.55 115.65 43.65 115.7 43.8 116.35 45.35 116.5 45.9 116.65 46.45 116.75 47.0 Q117.15 48.9 117.1 51.25 L117.1 51.45 117.05 51.8 Q116.85 54.3 116.1 56.6 L116.0 56.9 115.75 57.55 115.5 58.15 115.35 58.5 115.15 58.95 115.0 59.25 114.65 59.85 114.3 60.45 113.85 61.0 113.65 61.25 112.9 62.1 112.75 62.25 111.85 63.0 111.15 63.4 109.0 63.95 Q107.45 63.9 106.15 63.25 M112.0 39.8 L111.55 39.55 111.7 39.6 111.9 39.7 111.95 39.75 112.0 39.8 M111.25 39.45 L111.05 39.35 110.35 39.15 110.4 39.15 110.55 39.2 110.8 39.25 110.95 39.3 111.1 39.35 111.25 39.45" fill="#fbfbfb" fill-rule="evenodd" stroke="none"/>
    <path d="M87.15 72.25 L84.8 73.15 Q81.4 73.75 78.3 71.45 75.2 69.15 72.95 64.9 70.65 60.65 69.7 55.35 L69.55 54.4 69.7 55.3 Q70.65 60.6 72.95 64.8 75.2 69.05 78.3 71.3 81.4 73.6 84.8 73.0 88.1 72.2 90.35 69.05 L90.4 68.95 91.15 67.9 91.5 67.2 93.05 63.7 93.2 63.35 93.7 61.6 94.15 58.95 94.35 55.5 94.35 55.4 94.15 53.1 Q93.05 45.5 90.35 40.5 L90.1 40.1 89.7 39.45 89.1 38.5 88.2 37.25 88.05 37.0 87.95 36.9 87.3 36.15 87.85 36.75 88.6 37.65 90.35 40.5 Q93.05 45.5 94.2 53.1 L94.35 56.45 94.35 57.4 94.2 59.3 93.85 61.25 93.8 61.45 93.75 61.7 93.7 61.9 93.55 62.45 93.5 62.75 93.45 62.8 Q92.4 66.45 90.45 69.2 L89.8 70.0 89.15 70.7 87.15 72.25 M83.0 32.7 L82.2 32.35 82.15 32.3 82.1 32.3 82.0 32.25 82.35 32.35 82.5 32.45 82.8 32.55 84.05 33.25 Q85.15 33.9 86.2 34.9 L86.95 35.7 85.5 34.35 84.75 33.75 84.0 33.25 83.6 33.0 83.2 32.8 83.0 32.7 M101.1 50.2 L101.15 49.85 101.25 49.3 Q100.95 51.1 100.95 53.15 101.0 58.05 103.3 61.0 L103.8 61.6 103.35 61.2 103.25 61.1 103.2 61.0 103.1 60.9 103.05 60.8 102.95 60.7 Q101.0 57.75 100.9 53.05 L100.9 53.0 100.95 51.6 101.1 50.2 M101.7 47.2 L101.75 47.05 101.85 46.7 101.7 47.2 M105.75 63.3 L105.45 63.05 Q106.6 63.75 108.0 63.95 106.8 63.8 105.75 63.3 M112.75 62.25 Q111.0 64.0 108.85 64.0 110.05 63.95 111.15 63.4 L111.85 63.0 112.75 62.25" fill="#f5f4f4" fill-rule="evenodd" stroke="none"/>
    <path d="M73.8 33.1 L74.0 33.0 72.55 34.25 72.3 34.5 70.95 36.3 Q68.65 40.05 67.85 45.45 67.1 50.85 68.05 56.85 69.1 62.8 71.6 67.35 74.05 71.9 77.45 74.2 80.75 76.55 84.45 75.8 88.05 75.0 90.5 71.45 L92.1 68.65 93.25 65.55 Q92.2 68.95 90.45 71.55 88.05 75.05 84.35 75.95 80.75 76.7 77.35 74.35 73.95 71.95 71.5 67.4 69.0 62.85 67.95 56.9 67.0 50.85 67.75 45.5 68.4 41.1 70.0 37.8 L70.8 36.4 70.85 36.3 71.25 35.7 71.55 35.3 72.1 34.65 72.55 34.15 73.8 33.1 M80.35 31.75 L80.15 31.7 80.5 31.8 80.35 31.75 M80.7 31.85 L80.65 31.85 80.5 31.8 80.7 31.85 M99.7 52.9 L99.7 52.4 99.75 51.9 99.8 51.7 99.85 51.1 100.35 48.65 100.95 46.7 101.0 46.45 101.15 46.1 101.6 45.05 102.0 44.35 102.35 43.75 102.6 43.4 103.05 42.75 104.05 41.55 104.4 41.2 105.35 40.4 105.8 40.1 105.4 40.4 104.95 40.75 104.75 40.95 103.75 42.0 Q103.2 42.55 102.8 43.25 L102.1 44.45 101.75 45.05 Q100.25 48.1 99.9 51.95 99.45 57.3 101.55 61.0 103.0 63.75 105.45 64.7 L107.1 65.1 107.15 65.1 Q108.7 65.25 110.1 64.6 108.55 65.35 106.9 65.2 L106.65 65.15 Q104.7 64.8 103.2 63.45 102.15 62.5 101.3 61.0 100.0 58.65 99.75 55.65 L99.7 52.9 M106.25 39.85 L106.45 39.75 106.35 39.8 106.25 39.85" fill="#9f9e9e" fill-rule="evenodd" stroke="none"/>
    <path d="M73.05 33.9 L73.6 33.4 73.35 33.65 Q72.2 34.65 71.35 36.25 69.25 39.9 68.7 45.15 68.1 50.35 69.05 55.95 70.0 61.55 72.45 65.9 74.8 70.3 78.05 72.55 81.2 74.9 84.7 74.25 88.15 73.35 90.55 70.15 L91.6 68.45 90.5 70.2 Q88.15 73.5 84.6 74.35 81.15 75.0 77.95 72.7 74.7 70.45 72.35 66.05 69.9 61.6 68.95 56.05 68.0 50.45 68.65 45.15 69.25 39.9 71.3 36.25 72.1 34.85 73.05 33.9 M111.55 39.55 L111.45 39.5 111.25 39.45 111.1 39.35 110.95 39.3 110.8 39.25 110.55 39.2 Q112.05 39.55 113.3 40.6 L113.2 40.55 112.8 40.2 112.7 40.15 112.6 40.15 112.1 39.8 112.05 39.8 111.95 39.75 111.9 39.7 111.7 39.6 111.55 39.55 M113.65 40.9 L113.75 41.0 113.85 41.1 115.0 42.55 114.25 41.6 114.05 41.35 113.85 41.15 113.65 40.9 M110.0 64.3 L109.8 64.35 108.15 64.55 Q105.5 64.35 103.7 62.45 105.55 64.3 108.15 64.45 L108.25 64.45 108.65 64.4 110.25 64.1 110.4 64.05 110.8 63.85 111.9 63.2 112.45 62.75 112.75 62.45 113.25 61.95 113.35 61.8 113.9 61.15 114.4 60.45 114.45 60.3 114.9 59.55 115.5 58.35 115.85 57.45 116.0 57.1 116.1 56.85 115.95 57.3 115.85 57.5 115.35 58.7 114.85 59.75 113.95 61.15 112.75 62.55 112.6 62.7 112.35 62.9 112.05 63.15 111.55 63.55 111.45 63.6 110.0 64.3" fill="#cecdce" fill-rule="evenodd" stroke="none"/>
    <path d="M92.8 65.1 L93.1 64.1 93.45 62.8 93.5 62.75 93.6 62.35 93.75 61.85 93.75 61.7 93.8 61.45 93.85 61.25 94.2 59.3 93.75 62.0 93.05 64.55 92.8 65.1 M72.2 35.05 L71.95 35.4 71.5 36.15 71.0 37.2 Q69.4 40.5 69.0 45.0 68.4 50.2 69.35 55.65 70.3 61.0 72.65 65.35 74.95 69.7 78.1 72.0 81.25 74.25 84.75 73.6 88.1 72.8 90.4 69.65 L91.7 67.6 91.35 68.35 90.4 69.7 Q88.15 72.95 84.7 73.75 81.2 74.4 78.15 72.05 74.95 69.75 72.6 65.45 70.25 61.15 69.3 55.75 68.35 50.2 68.95 45.05 69.45 39.85 71.45 36.25 L72.55 34.55 72.4 34.75 72.2 35.05 M106.6 39.7 L106.5 39.8 106.05 40.05 106.0 40.1 105.45 40.5 104.2 41.8 104.15 41.9 Q103.55 42.7 103.05 43.65 L102.7 44.2 102.25 45.3 102.15 45.45 102.1 45.65 Q100.8 48.85 100.75 52.85 L100.75 52.9 100.9 55.25 101.6 58.4 Q102.1 59.85 102.9 61.0 L103.45 61.75 102.95 61.25 102.8 61.0 Q101.95 59.8 101.45 58.35 L101.15 57.35 Q100.65 55.4 100.65 53.05 L100.65 52.85 100.65 52.75 100.65 52.7 Q100.75 49.6 101.6 46.95 L101.7 46.65 102.05 45.65 Q102.6 44.15 103.3 43.0 L103.45 42.8 103.7 42.4 104.95 40.9 105.1 40.8 105.45 40.5 105.55 40.4 106.1 40.0 106.3 39.85 106.6 39.7 M108.4 64.3 L108.3 64.3 Q106.45 64.15 104.95 63.15 L104.65 62.85 Q106.3 64.15 108.5 64.25 109.85 64.2 111.1 63.6 109.8 64.3 108.4 64.3" fill="#e2e1e1" fill-rule="evenodd" stroke="none"/>
    <path d="M71.6 35.4 L70.95 36.3 Q68.65 40.05 67.95 45.45 67.2 50.8 68.15 56.75 69.2 62.65 71.7 67.2 74.2 71.75 77.5 74.1 80.9 76.45 84.5 75.75 88.1 74.85 90.5 71.3 L92.1 68.65 90.5 71.45 Q88.05 75.0 84.45 75.8 80.75 76.55 77.45 74.2 74.05 71.9 71.6 67.35 69.1 62.8 68.05 56.85 67.1 50.85 67.85 45.45 68.65 40.05 70.95 36.3 L72.3 34.5 71.65 35.3 71.6 35.4 M100.6 48.6 L100.1 51.35 99.95 52.05 100.0 52.55 100.15 56.45 100.2 56.95 Q100.55 59.2 101.6 61.0 103.1 63.75 105.45 64.7 103.0 63.75 101.55 61.0 99.45 57.3 99.9 51.95 100.25 48.1 101.75 45.05 L102.1 44.45 101.75 45.1 Q101.0 46.65 100.6 48.4 L100.6 48.6 M111.2 63.95 L110.1 64.6 Q108.7 65.25 107.15 65.1 108.95 65.2 110.55 64.35 L111.2 63.95" fill="#a2a2a2" fill-rule="evenodd" stroke="none"/>
    <path d="M91.95 70.25 L92.15 69.7 92.8 68.1 93.0 67.65 93.25 66.85 Q92.2 70.4 90.45 73.0 87.9 76.75 84.1 77.7 80.35 78.45 76.75 76.1 73.2 73.75 70.6 68.95 68.0 64.15 66.9 57.8 66.5 55.2 66.5 52.8 66.55 55.15 66.95 57.7 68.05 64.1 70.65 68.8 73.25 73.6 76.8 75.95 80.35 78.35 84.15 77.55 87.9 76.6 90.4 72.95 L91.95 70.25 M71.55 35.0 L70.4 36.45 69.35 38.15 70.35 36.45 Q70.9 35.65 71.55 35.0 M110.6 64.85 L110.4 64.9 111.35 64.25 110.6 64.85 M108.5 65.7 L108.25 65.8 106.95 66.0 106.45 66.0 105.95 65.95 Q103.4 65.5 101.75 63.45 100.2 61.5 99.5 58.8 L99.3 58.15 99.15 57.15 98.9 54.35 99.05 52.0 99.15 51.2 99.25 50.6 99.35 50.1 99.5 49.75 99.2 51.2 Q98.7 54.95 99.35 58.15 100.1 61.3 101.8 63.35 103.55 65.4 106.0 65.85 L108.5 65.7 M101.4 44.6 Q102.15 43.2 103.2 42.1 L104.4 40.95 Q102.75 42.4 101.4 44.6" fill="#6a6a69" fill-rule="evenodd" stroke="none"/>
    <path d="M93.05 65.0 Q92.1 67.8 90.55 70.0 88.2 73.3 84.75 74.1 81.3 74.75 78.05 72.5 74.9 70.15 72.45 65.8 70.1 61.4 69.15 55.9 L69.0 54.95 69.15 55.8 Q70.1 61.3 72.45 65.65 74.8 70.05 78.05 72.35 81.2 74.6 84.7 73.95 88.15 73.15 90.5 69.9 92.75 66.6 93.8 62.05 L94.35 57.4 94.35 56.45 94.2 53.1 Q93.05 45.5 90.35 40.5 L88.6 37.65 90.4 40.5 Q91.8 43.05 92.75 46.25 L93.25 48.1 93.4 48.75 93.6 49.65 93.75 50.35 93.85 51.0 93.85 51.05 94.0 51.7 94.05 52.15 94.1 52.35 94.1 52.5 94.15 52.65 94.15 52.8 94.35 54.35 94.35 54.65 94.35 54.7 94.4 57.6 94.4 57.9 94.4 58.35 94.4 58.55 94.35 58.85 94.25 59.85 94.15 60.55 94.15 60.75 94.05 61.15 94.0 61.5 93.9 61.9 93.85 62.15 93.05 65.0 M101.7 46.65 L101.6 46.95 Q100.75 49.6 100.65 52.7 L100.65 52.75 100.65 52.85 100.65 53.05 Q100.65 55.4 101.15 57.35 L101.45 58.35 Q101.9 59.8 102.7 61.0 L102.95 61.25 103.45 61.75 104.65 62.85 104.95 63.15 105.2 63.4 Q106.6 64.25 108.3 64.4 L108.65 64.4 108.25 64.45 Q104.8 64.25 102.65 61.0 100.45 57.75 100.6 52.7 L100.65 51.75 101.0 49.25 Q101.35 47.3 102.05 45.55 L101.7 46.65 M110.25 64.1 L110.9 63.8 110.4 64.05 110.25 64.1" fill="#d6d5d5" fill-rule="evenodd" stroke="none"/>
    <path d="M186.35 56.15 Q185.75 58.6 184.7 60.65 183.75 62.7 182.5 64.05 181.3 60.0 182.6 54.4 183.75 49.4 186.2 46.45 186.85 48.2 186.9 50.75 187.0 53.15 186.35 56.15" fill="#f6200f" fill-rule="evenodd" stroke="none"/>
    <path d="M221.3 50.95 L219.6 44.15 218.5 44.2 M229.9 77.5 L227.15 77.6 227.15 77.55 224.0 69.25 M221.0 75.35 L221.0 75.45 M212.4 75.3 L212.35 75.3 208.05 44.4 208.1 44.4 M255.3 44.1 L255.05 29.65 255.15 29.65 M242.55 40.15 L242.5 40.15 240.9 75.45 252.65 75.1 252.65 75.05 M62.05 38.7 L60.65 39.1 M45.9 92.35 L45.85 92.35 45.7 91.2 M67.4 84.7 L67.5 84.9 67.45 84.9 M138.2 76.2 L138.1 76.2 142.3 43.25" fill="none" stroke="#000000" stroke-linecap="round" stroke-linejoin="bevel" stroke-width="0.30000000000000004"/>
    <path d="M218.5 44.2 L214.0 44.25 M168.05 26.3 L168.05 26.25 132.7 31.9 132.7 42.65 M45.7 91.2 L43.1 73.85" fill="none" stroke="#000000" stroke-linecap="round" stroke-linejoin="bevel" stroke-width="0.30000000000000004"/>
    <path d="M227.15 39.5 L227.2 39.5 M223.3 46.15 L223.35 46.05 223.35 46.1 M240.25 38.85 L240.3 38.85 235.4 77.35 235.35 77.35 M232.6 77.45 L229.9 77.5 M265.65 72.3 L265.6 72.5 M256.35 72.5 L256.3 72.5 253.35 67.2 M59.25 39.5 L60.65 39.1 M17.1 26.4 L59.1 26.55 62.1 38.65 62.05 38.7" fill="none" stroke="#000000" stroke-linecap="square" stroke-linejoin="bevel" stroke-width="0.30000000000000004"/>
  </g>
</svg>
