<?xml version="1.0" encoding="UTF-8" standalone="no"?>
<svg xmlns:xlink="http://www.w3.org/1999/xlink" height="32.35px" width="243.8px" xmlns="http://www.w3.org/2000/svg">
  <g transform="matrix(1.0, 0.0, 0.0, 1.0, -620.35, -425.4)">
    <path d="M857.4 437.95 Q875.2 445.9 846.05 452.15 816.9 458.45 737.25 457.65 678.35 456.4 662.35 450.8 646.3 445.2 660.8 438.65 675.2 432.15 707.65 428.15 740.1 424.1 778.15 426.0 839.55 430.05 857.4 437.95" fill="#87c71f" fill-rule="evenodd" stroke="none"/>
    <path d="M652.2 437.4 Q676.0 439.7 674.1 443.8 672.3 447.9 641.7 447.85 621.75 447.15 620.5 444.3 619.25 441.4 629.05 439.05 638.9 436.65 652.2 437.4" fill="#87c71f" fill-rule="evenodd" stroke="none"/>
  </g>
</svg>
