<?xml version="1.0" encoding="UTF-8" standalone="no"?>
<svg xmlns:xlink="http://www.w3.org/1999/xlink" height="36.55px" width="851.45px" xmlns="http://www.w3.org/2000/svg">
  <g transform="matrix(1.0, 0.0, 0.0, 1.0, 425.7, 18.25)">
    <path d="M425.0 0.0 Q425.0 7.25 419.85 12.35 414.75 17.5 407.5 17.5 L407.0 17.5 407.0 17.55 -406.0 17.55 -406.0 17.45 -407.45 17.5 Q-414.75 17.5 -419.85 12.35 -424.95 7.25 -424.95 0.0 -424.95 -7.3 -419.85 -12.4 -414.75 -17.5 -407.45 -17.5 L-406.0 -17.45 406.1 -17.45 407.5 -17.5 Q414.75 -17.5 419.85 -12.4 425.0 -7.3 425.0 0.0" fill="url(#gradient0)" fill-rule="evenodd" stroke="none"/>
    <path d="M425.0 0.0 Q425.0 7.25 419.85 12.35 414.75 17.5 407.5 17.5 L407.0 17.5 407.0 17.55 -406.0 17.55 -406.0 17.45 -407.45 17.5 Q-414.75 17.5 -419.85 12.35 -424.95 7.25 -424.95 0.0 -424.95 -7.3 -419.85 -12.4 -414.75 -17.5 -407.45 -17.5 L-406.0 -17.45 406.1 -17.45 407.5 -17.5 Q414.75 -17.5 419.85 -12.4 425.0 -7.3 425.0 0.0 Z" fill="none" stroke="#c1cbce" stroke-linecap="round" stroke-linejoin="round" stroke-width="1.5"/>
  </g>
  <defs>
    <linearGradient color-interpolation="linearRGB" gradientTransform="matrix(0.0, -0.0214, 0.0214, 0.0, -0.05, 0.05)" gradientUnits="userSpaceOnUse" id="gradient0" spreadMethod="pad" x1="-819.2" x2="819.2">
      <stop offset="0.0" stop-color="#d9d9d9"/>
      <stop offset="0.37254901960784315" stop-color="#ffffff"/>
    </linearGradient>
  </defs>
</svg>
