<?xml version="1.0" encoding="UTF-8" standalone="no"?>
<svg xmlns:xlink="http://www.w3.org/1999/xlink" height="118.65px" width="84.0px" xmlns="http://www.w3.org/2000/svg">
  <g transform="matrix(1.0, 0.0, 0.0, 1.0, 42.0, 59.3)">
    <path d="M33.45 -55.3 L38.0 -45.8 38.0 55.35 36.8 52.8 38.0 55.35 -33.5 55.35 -33.5 50.45 -33.1 50.45 -32.9 50.8 -31.6 53.0 36.8 52.8 35.75 50.65 35.15 49.35 34.3 47.65 33.45 45.85 33.45 -55.3" fill="#3d7db8" fill-rule="evenodd" stroke="none"/>
    <path d="M33.45 45.85 L34.3 47.65 35.15 49.35 35.75 50.65 36.8 52.8 -31.6 53.0 -32.9 50.8 -33.1 50.45 -33.5 49.85 -33.7 49.5 -34.7 47.8 -35.85 45.85 33.45 45.85 M-33.5 50.45 L-33.5 49.85 -33.1 50.45 -33.5 50.45 M35.75 50.65 L-32.9 50.8 35.75 50.65 M34.3 47.65 L-34.7 47.8 34.3 47.65 M35.15 49.35 L-33.7 49.5 35.15 49.35" fill="#ffffff" fill-rule="evenodd" stroke="none"/>
    <path d="M33.45 -55.3 L33.45 45.85 -35.85 45.85 -38.0 45.85 -38.0 -55.3 33.45 -55.3" fill="#6fb9d7" fill-rule="evenodd" stroke="none"/>
    <path d="M38.0 55.35 L38.0 -45.8 33.45 -55.3 33.45 45.85 34.3 47.65 35.15 49.35 35.75 50.65 36.8 52.8 38.0 55.35 -33.5 55.35 -33.5 50.45 -33.5 49.85 -33.7 49.5 -34.7 47.8 -35.85 45.85 -38.0 45.85 -38.0 -55.3 33.45 -55.3 M-33.1 50.45 L-33.5 49.85 M36.8 52.8 L-31.6 53.0 -32.9 50.8 -33.1 50.45 M-32.9 50.8 L35.75 50.65 M-35.85 45.85 L33.45 45.85 M-34.7 47.8 L34.3 47.65 M-33.7 49.5 L35.15 49.35" fill="none" stroke="#1b2e54" stroke-linecap="round" stroke-linejoin="miter-clip" stroke-miterlimit="3.0" stroke-width="8.0"/>
    <path d="M33.45 -55.3 L38.0 -45.8 38.0 55.35 -33.5 55.35 -33.5 50.45 -33.1 50.45 -32.9 50.8 -31.6 53.0 36.8 52.8 35.75 50.65 35.15 49.35 34.3 47.65 33.45 45.85 33.45 -55.3" fill="#3d7db8" fill-rule="evenodd" stroke="none"/>
    <path d="M33.45 45.85 L34.3 47.65 35.15 49.35 35.75 50.65 36.8 52.8 -31.6 53.0 -32.9 50.8 -33.1 50.45 -33.5 50.45 -33.5 49.85 -33.7 49.5 -34.7 47.8 -35.85 45.85 33.45 45.85 M-34.7 47.8 L34.3 47.65 -34.7 47.8 M-33.7 49.5 L35.15 49.35 -33.7 49.5 M35.75 50.65 L-32.9 50.8 35.75 50.65" fill="#ffffff" fill-rule="evenodd" stroke="none"/>
    <path d="M33.45 -55.3 L33.45 45.85 -35.85 45.85 -38.0 45.85 -38.0 -55.3 33.45 -55.3" fill="#6fb9d7" fill-rule="evenodd" stroke="none"/>
    <path d="M34.3 47.65 L-34.7 47.8 M35.15 49.35 L-33.7 49.5 M-32.9 50.8 L35.75 50.65" fill="none" stroke="#3d7db8" stroke-linecap="round" stroke-linejoin="miter-clip" stroke-miterlimit="3.0" stroke-width="0.8"/>
  </g>
</svg>
