<?xml version="1.0" encoding="UTF-8" standalone="no"?>
<svg xmlns:xlink="http://www.w3.org/1999/xlink" height="74.3px" width="73.5px" xmlns="http://www.w3.org/2000/svg">
  <g transform="matrix(1.0, 0.0, 0.0, 1.0, 37.1, 3.65)">
    <path d="M3.45 37.3 Q5.05 35.7 5.05 33.5 5.05 31.25 3.45 29.7 1.85 28.1 -0.35 28.1 -2.6 28.1 -4.15 29.7 -5.75 31.25 -5.75 33.5 -5.75 35.7 -4.15 37.3 -2.6 38.9 -0.35 38.9 1.85 38.9 3.45 37.3 M23.8 10.7 Q26.55 13.8 28.6 17.65 26.7 18.75 25.9 20.8 25.1 22.85 25.8 25.0 26.45 27.05 28.25 28.25 30.0 29.45 32.15 29.3 L32.4 33.5 32.15 37.65 Q30.0 37.5 28.25 38.7 26.45 39.9 25.8 42.0 25.1 44.1 25.9 46.2 26.7 48.2 28.6 49.35 26.55 53.2 23.8 56.25 22.2 54.7 19.95 54.55 17.65 54.35 15.8 55.75 13.85 57.15 13.35 59.5 12.85 61.75 14.0 63.85 10.05 65.85 5.9 66.6 5.65 64.25 3.85 62.65 2.05 61.0 -0.35 61.0 -2.8 61.0 -4.6 62.65 -6.35 64.25 -6.6 66.65 -10.85 65.8 -14.75 63.85 -13.6 61.75 -14.1 59.5 -14.6 57.15 -16.55 55.75 -18.4 54.35 -20.65 54.55 -22.9 54.7 -24.55 56.25 -27.3 53.2 -29.3 49.35 -27.45 48.2 -26.65 46.2 -25.85 44.1 -26.5 42.0 -27.2 39.9 -29.0 38.7 -30.75 37.5 -32.9 37.65 L-33.1 33.5 -32.9 29.3 Q-30.75 29.45 -29.0 28.25 -27.2 27.05 -26.5 25.0 -25.85 22.85 -26.65 20.8 -27.45 18.75 -29.3 17.65 -27.3 13.8 -24.55 10.7 -22.9 12.25 -20.65 12.45 -18.4 12.6 -16.55 11.25 -14.6 9.85 -14.1 7.5 -13.6 5.2 -14.75 3.15 -10.8 1.2 -6.6 0.35 -6.35 2.75 -4.55 4.35 -2.8 5.95 -0.35 6.0 2.05 5.95 3.85 4.35 5.65 2.75 5.9 0.35 10.05 1.2 14.0 3.15 12.85 5.2 13.35 7.5 13.85 9.85 15.8 11.25 17.65 12.6 19.95 12.45 22.2 12.25 23.8 10.7" fill="#f8350f" fill-rule="evenodd" stroke="none"/>
    <path d="M23.8 10.7 Q22.2 12.25 19.95 12.45 17.65 12.6 15.8 11.25 13.85 9.85 13.35 7.5 12.85 5.2 14.0 3.15 10.05 1.2 5.9 0.35 5.65 2.75 3.85 4.35 2.05 5.95 -0.35 6.0 -2.8 5.95 -4.55 4.35 -6.35 2.75 -6.6 0.35 -10.8 1.2 -14.75 3.15 -13.6 5.2 -14.1 7.5 -14.6 9.85 -16.55 11.25 -18.4 12.6 -20.65 12.45 -22.9 12.25 -24.55 10.7 -27.3 13.8 -29.3 17.65 -27.45 18.75 -26.65 20.8 -25.85 22.85 -26.5 25.0 -27.2 27.05 -29.0 28.25 -30.75 29.45 -32.9 29.3 L-33.1 33.5 -32.9 37.65 Q-30.75 37.5 -29.0 38.7 -27.2 39.9 -26.5 42.0 -25.85 44.1 -26.65 46.2 -27.45 48.2 -29.3 49.35 -27.3 53.2 -24.55 56.25 -22.9 54.7 -20.65 54.55 -18.4 54.35 -16.55 55.75 -14.6 57.15 -14.1 59.5 -13.6 61.75 -14.75 63.85 -10.85 65.8 -6.6 66.65 -6.35 64.25 -4.6 62.65 -2.8 61.0 -0.35 61.0 2.05 61.0 3.85 62.65 5.65 64.25 5.9 66.6 10.05 65.85 14.0 63.85 12.85 61.75 13.35 59.5 13.85 57.15 15.8 55.75 17.65 54.35 19.95 54.55 22.2 54.7 23.8 56.25 26.55 53.2 28.6 49.35 26.7 48.2 25.9 46.2 25.1 44.1 25.8 42.0 26.45 39.9 28.25 38.7 30.0 37.5 32.15 37.65 L32.4 33.5 32.15 29.3 Q30.0 29.45 28.25 28.25 26.45 27.05 25.8 25.0 25.1 22.85 25.9 20.8 26.7 18.75 28.6 17.65 26.55 13.8 23.8 10.7 M3.45 37.3 Q1.85 38.9 -0.35 38.9 -2.6 38.9 -4.15 37.3 -5.75 35.7 -5.75 33.5 -5.75 31.25 -4.15 29.7 -2.6 28.1 -0.35 28.1 1.85 28.1 3.45 29.7 5.05 31.25 5.05 33.5 5.05 35.7 3.45 37.3 Z" fill="none" stroke="#f8350f" stroke-linecap="butt" stroke-linejoin="round" stroke-width="8.0"/>
    <path d="M23.8 10.7 Q26.55 13.8 28.6 17.65 26.7 18.75 25.9 20.8 25.1 22.85 25.8 25.0 26.45 27.05 28.25 28.25 30.0 29.45 32.15 29.3 L32.4 33.5 32.15 37.65 Q30.0 37.5 28.25 38.7 26.45 39.9 25.8 42.0 25.1 44.1 25.9 46.2 26.7 48.2 28.6 49.35 26.55 53.2 23.8 56.25 22.2 54.7 19.95 54.55 17.65 54.35 15.8 55.75 13.85 57.15 13.35 59.5 12.85 61.75 14.0 63.85 10.05 65.85 5.9 66.6 5.65 64.25 3.85 62.65 2.05 61.0 -0.35 61.0 -2.8 61.0 -4.6 62.65 -6.35 64.25 -6.6 66.65 -10.85 65.8 -14.75 63.85 -13.6 61.75 -14.1 59.5 -14.6 57.15 -16.55 55.75 -18.4 54.35 -20.65 54.55 -22.9 54.7 -24.55 56.25 -27.3 53.2 -29.3 49.35 -27.45 48.2 -26.65 46.2 -25.85 44.1 -26.5 42.0 -27.2 39.9 -29.0 38.7 -30.75 37.5 -32.9 37.65 L-33.1 33.5 -32.9 29.3 Q-30.75 29.45 -29.0 28.25 -27.2 27.05 -26.5 25.0 -25.85 22.85 -26.65 20.8 -27.45 18.75 -29.3 17.65 -27.3 13.8 -24.55 10.7 -22.9 12.25 -20.65 12.45 -18.4 12.6 -16.55 11.25 -14.6 9.85 -14.1 7.5 -13.6 5.2 -14.75 3.15 -10.8 1.2 -6.6 0.35 -6.35 2.75 -4.55 4.35 -2.8 5.95 -0.35 6.0 2.05 5.95 3.85 4.35 5.65 2.75 5.9 0.35 10.05 1.2 14.0 3.15 12.85 5.2 13.35 7.5 13.85 9.85 15.8 11.25 17.65 12.6 19.95 12.45 22.2 12.25 23.8 10.7 M3.45 37.3 Q5.05 35.7 5.05 33.5 5.05 31.25 3.45 29.7 1.85 28.1 -0.35 28.1 -2.6 28.1 -4.15 29.7 -5.75 31.25 -5.75 33.5 -5.75 35.7 -4.15 37.3 -2.6 38.9 -0.35 38.9 1.85 38.9 3.45 37.3 M6.55 26.6 Q9.4 29.5 9.4 33.5 9.4 37.5 6.55 40.4 3.65 43.25 -0.35 43.25 -4.4 43.25 -7.25 40.4 -10.1 37.5 -10.1 33.5 -10.1 29.5 -7.25 26.6 -4.4 23.75 -0.35 23.75 3.65 23.75 6.55 26.6 M10.75 33.5 Q10.75 28.9 7.5 25.65 4.2 22.35 -0.35 22.35 -4.95 22.35 -8.2 25.65 -11.45 28.9 -11.45 33.5 -11.45 38.1 -8.2 41.35 -4.95 44.6 -0.35 44.6 4.2 44.6 7.5 41.35 10.75 38.1 10.75 33.5" fill="#f7f619" fill-rule="evenodd" stroke="none"/>
    <path d="M23.8 10.7 Q22.2 12.25 19.95 12.45 17.65 12.6 15.8 11.25 13.85 9.85 13.35 7.5 12.85 5.2 14.0 3.15 10.05 1.2 5.9 0.35 5.65 2.75 3.85 4.35 2.05 5.95 -0.35 6.0 -2.8 5.95 -4.55 4.35 -6.35 2.75 -6.6 0.35 -10.8 1.2 -14.75 3.15 -13.6 5.2 -14.1 7.5 -14.6 9.85 -16.55 11.25 -18.4 12.6 -20.65 12.45 -22.9 12.25 -24.55 10.7 -27.3 13.8 -29.3 17.65 -27.45 18.75 -26.65 20.8 -25.85 22.85 -26.5 25.0 -27.2 27.05 -29.0 28.25 -30.75 29.45 -32.9 29.3 L-33.1 33.5 -32.9 37.65 Q-30.75 37.5 -29.0 38.7 -27.2 39.9 -26.5 42.0 -25.85 44.1 -26.65 46.2 -27.45 48.2 -29.3 49.35 -27.3 53.2 -24.55 56.25 -22.9 54.7 -20.65 54.55 -18.4 54.35 -16.55 55.75 -14.6 57.15 -14.1 59.5 -13.6 61.75 -14.75 63.85 -10.85 65.8 -6.6 66.65 -6.35 64.25 -4.6 62.65 -2.8 61.0 -0.35 61.0 2.05 61.0 3.85 62.65 5.65 64.25 5.9 66.6 10.05 65.85 14.0 63.85 12.85 61.75 13.35 59.5 13.85 57.15 15.8 55.75 17.65 54.35 19.95 54.55 22.2 54.7 23.8 56.25 26.55 53.2 28.6 49.35 26.7 48.2 25.9 46.2 25.1 44.1 25.8 42.0 26.45 39.9 28.25 38.7 30.0 37.5 32.15 37.65 L32.4 33.5 32.15 29.3 Q30.0 29.45 28.25 28.25 26.45 27.05 25.8 25.0 25.1 22.85 25.9 20.8 26.7 18.75 28.6 17.65 26.55 13.8 23.8 10.7" fill="none" stroke="#000000" stroke-linecap="butt" stroke-linejoin="round" stroke-width="3.0"/>
    <path d="M3.45 37.3 Q1.85 38.9 -0.35 38.9 -2.6 38.9 -4.15 37.3 -5.75 35.7 -5.75 33.5 -5.75 31.25 -4.15 29.7 -2.6 28.1 -0.35 28.1 1.85 28.1 3.45 29.7 5.05 31.25 5.05 33.5 5.05 35.7 3.45 37.3 M10.75 33.5 Q10.75 38.1 7.5 41.35 4.2 44.6 -0.35 44.6 -4.95 44.6 -8.2 41.35 -11.45 38.1 -11.45 33.5 -11.45 28.9 -8.2 25.65 -4.95 22.35 -0.35 22.35 4.2 22.35 7.5 25.65 10.75 28.9 10.75 33.5 Z" fill="none" stroke="#000000" stroke-linecap="butt" stroke-linejoin="round" stroke-width="3.0"/>
    <path d="M-8.6 26.1 L-8.65 26.1 -8.6 26.1 M-25.95 22.85 L-26.2 22.85 -25.95 22.85" fill="#f7f619" fill-rule="evenodd" stroke="none"/>
    <path d="M18.3 12.35 L17.55 12.45 17.7 12.2 18.3 12.35" fill="#d8901f" fill-rule="evenodd" stroke="none"/>
    <path d="M-16.85 11.45 L-12.2 65.0 -14.75 63.85 Q-13.6 61.75 -14.1 59.5 -14.6 57.15 -16.55 55.75 -17.85 54.75 -19.35 54.6 L-23.1 11.75 -21.4 12.35 -20.65 12.45 Q-18.6 12.55 -16.85 11.45 M-8.65 26.1 L-8.65 25.7 -8.2 25.65 -8.6 26.1 -8.65 26.1 M-25.95 22.85 L-26.2 22.85 -25.95 22.85 -23.85 55.7 -24.55 56.25 -25.45 55.2 Q-27.65 52.55 -29.3 49.35 -27.45 48.2 -26.65 46.2 -25.85 44.1 -26.5 42.0 -27.2 39.9 -29.0 38.7 -30.75 37.5 -32.9 37.65 L-33.1 33.5 -32.9 29.3 Q-30.75 29.45 -29.0 28.25 -27.2 27.05 -26.5 25.0 -26.2 23.9 -26.2 22.85 -26.25 21.8 -26.65 20.8 -27.45 18.75 -29.3 17.65 -28.1 15.3 -26.55 13.25 L-25.95 22.85" fill="#f6f8b1" fill-rule="evenodd" stroke="none"/>
    <path d="M22.3 11.8 Q24.5 14.45 26.2 17.65 24.3 18.75 23.5 20.8 22.7 22.85 23.4 25.0 24.05 27.05 25.85 28.25 27.6 29.45 29.75 29.3 L30.0 33.5 29.75 37.65 Q27.6 37.5 25.85 38.7 24.05 39.9 23.4 42.0 22.7 44.1 23.5 46.2 24.3 48.2 26.2 49.35 24.5 52.55 22.3 55.2 21.25 54.65 19.95 54.55 L18.45 54.65 18.25 54.65 17.55 54.55 16.95 54.55 Q15.15 54.55 13.7 55.55 L13.4 55.75 Q11.45 57.15 10.95 59.5 10.45 61.75 11.6 63.85 L8.7 65.15 5.8 66.1 Q5.4 64.05 3.85 62.65 2.05 61.0 -0.35 61.0 L-1.55 61.1 -2.75 61.0 Q-4.3 61.0 -5.55 61.6 -6.3 62.0 -7.0 62.65 -8.55 64.05 -8.9 66.1 L-12.2 65.0 -16.85 11.45 -16.55 11.25 Q-14.6 9.85 -14.1 7.5 -13.6 5.2 -14.75 3.15 -12.8 2.15 -10.75 1.5 L-8.9 0.9 Q-8.55 2.95 -6.95 4.35 -5.2 5.95 -2.75 6.0 L-1.55 5.9 -0.35 6.0 Q1.8 5.95 3.45 4.7 L3.85 4.35 Q5.4 2.95 5.8 0.9 L9.05 2.0 11.6 3.15 Q10.45 5.2 10.95 7.5 11.4 9.7 13.15 11.05 L13.4 11.25 14.75 12.0 17.55 12.45 18.3 12.35 19.95 12.45 Q21.25 12.35 22.3 11.8 M-8.65 26.1 Q-11.45 29.25 -11.45 33.5 -11.45 38.1 -8.2 41.35 L-7.2 42.25 Q-5.2 43.85 -2.75 44.4 L-1.55 44.55 -0.35 44.6 Q3.65 44.6 6.7 42.1 L7.5 41.35 Q10.75 38.1 10.75 33.5 10.75 28.9 7.5 25.65 6.4 24.5 5.1 23.8 2.65 22.35 -0.35 22.35 L-1.55 22.4 -2.75 22.6 Q-5.85 23.25 -8.2 25.65 L-8.65 25.7 -8.65 26.1 M5.05 33.5 Q5.05 31.25 3.45 29.7 1.85 28.1 -0.35 28.1 L-1.55 28.25 Q-3.05 28.55 -4.15 29.7 -5.75 31.25 -5.75 33.5 -5.75 35.7 -4.15 37.3 -3.05 38.45 -1.55 38.8 L-0.35 38.9 Q1.85 38.9 3.45 37.3 5.05 35.7 5.05 33.5 M6.55 26.6 Q9.4 29.5 9.4 33.5 9.4 37.5 6.55 40.4 L4.3 42.1 Q2.2 43.25 -0.35 43.25 -4.4 43.25 -7.25 40.4 L-7.4 40.3 Q-10.1 37.45 -10.1 33.5 -10.1 30.45 -8.45 28.05 L-7.25 26.6 Q-4.4 23.75 -0.35 23.75 2.25 23.75 4.4 25.0 L5.25 25.55 6.55 26.6 M-23.1 11.75 L-19.35 54.6 -20.65 54.55 -21.35 54.65 Q-22.75 54.9 -23.85 55.7 L-25.95 22.85 -26.55 13.25 -25.45 11.8 -24.55 10.7 -23.1 11.75" fill="#a6a6a6" fill-rule="evenodd" stroke="none"/>
    <path d="M22.3 55.2 Q24.5 52.55 26.2 49.35 24.3 48.2 23.5 46.2 22.7 44.1 23.4 42.0 24.05 39.9 25.85 38.7 27.6 37.5 29.75 37.65 L30.0 33.5 29.75 29.3 Q27.6 29.45 25.85 28.25 24.05 27.05 23.4 25.0 22.7 22.85 23.5 20.8 24.3 18.75 26.2 17.65 24.5 14.45 22.3 11.8 L23.8 10.7 Q26.55 13.8 28.6 17.65 26.7 18.75 25.9 20.8 25.1 22.85 25.8 25.0 26.45 27.05 28.25 28.25 L29.9 29.05 32.15 29.3 32.4 33.5 32.15 37.65 29.9 37.9 Q29.05 38.15 28.25 38.7 26.45 39.9 25.8 42.0 25.1 44.1 25.9 46.2 26.7 48.2 28.6 49.35 26.55 53.2 23.8 56.25 23.1 55.6 22.3 55.2 M17.55 12.45 L14.75 12.0 13.4 11.25 13.15 11.05 Q11.4 9.7 10.95 7.5 10.45 5.2 11.6 3.15 L9.05 2.0 5.8 0.9 5.9 0.35 8.95 1.15 12.4 2.4 14.0 3.1 14.0 3.15 Q12.85 5.2 13.35 7.5 13.65 9.0 14.6 10.1 L15.8 11.25 17.7 12.2 17.55 12.45 M-1.55 5.9 L-2.75 6.0 Q-5.2 5.95 -6.95 4.35 -8.55 2.95 -8.9 0.9 L-6.6 0.35 Q-6.35 2.75 -4.55 4.35 -3.25 5.55 -1.55 5.9 M-8.9 66.1 Q-8.55 64.05 -7.0 62.65 -6.3 62.0 -5.55 61.6 -4.3 61.0 -2.75 61.0 L-1.55 61.1 Q-3.25 61.4 -4.6 62.65 L-5.35 63.5 Q-6.4 64.85 -6.6 66.65 L-8.9 66.1 M5.8 66.1 L8.7 65.15 11.6 63.85 Q10.45 61.75 10.95 59.5 11.45 57.15 13.4 55.75 L13.7 55.55 Q15.15 54.55 16.95 54.55 L17.55 54.55 18.25 54.65 17.0 55.05 15.8 55.75 Q14.55 56.65 13.9 57.95 13.55 58.65 13.35 59.5 12.85 61.75 14.0 63.85 11.45 65.15 8.8 65.9 L5.9 66.6 5.8 66.1" fill="#959595" fill-rule="evenodd" stroke="none"/>
  </g>
</svg>
