<?xml version="1.0" encoding="UTF-8" standalone="no"?>
<svg xmlns:xlink="http://www.w3.org/1999/xlink" height="51.9px" width="64.2px" xmlns="http://www.w3.org/2000/svg">
  <g transform="matrix(1.0, 0.0, 0.0, 1.0, 32.1, 25.95)">
    <path d="M7.15 -9.15 Q4.9 -13.5 6.5 -17.9 8.15 -22.4 12.85 -24.2 17.3 -26.0 22.05 -24.5 L22.55 -24.3 Q27.55 -22.45 29.95 -18.0 32.35 -13.55 30.7 -9.05 29.0 -4.55 24.35 -2.65 19.9 -0.9 15.15 -2.45 18.0 1.85 18.05 7.35 18.0 14.7 12.8 19.9 7.6 25.15 0.25 25.2 -7.15 25.15 -12.4 19.9 -17.0 15.3 -17.55 9.05 L-17.6 7.35 Q-17.6 5.2 -17.15 3.25 L-16.9 2.15 Q-16.15 -0.4 -14.6 -2.65 L-15.8 -2.25 Q-20.2 -1.05 -24.35 -2.65 -25.95 -3.35 -27.2 -4.3 -29.6 -6.15 -30.7 -9.05 -32.3 -13.55 -29.9 -18.0 -27.55 -22.5 -22.55 -24.3 -18.55 -25.8 -14.7 -24.85 L-14.65 -24.8 -12.8 -24.25 Q-8.1 -22.4 -6.45 -17.9 -5.05 -13.95 -6.7 -9.95 L-7.2 -8.9 Q-4.55 -10.15 -1.55 -10.4 L0.25 -10.45 1.75 -10.4 Q4.6 -10.2 7.15 -9.15 Z" fill="none" stroke="#993300" stroke-linecap="round" stroke-linejoin="round" stroke-width="1.5"/>
    <path d="M-1.55 -10.4 Q0.65 -10.2 2.6 -9.45 L1.75 -10.4 Q4.6 -10.2 7.15 -9.15 4.9 -13.5 6.5 -17.9 8.15 -22.4 12.85 -24.2 17.3 -26.0 22.05 -24.5 24.0 -21.55 24.0 -17.8 24.0 -12.7 20.35 -9.1 16.85 -5.55 11.95 -5.45 13.35 -3.7 12.8 3.1 12.2 9.95 7.6 13.5 3.0 17.05 -2.85 17.05 -7.55 17.05 -11.1 14.45 L-12.85 13.0 Q-16.95 9.0 -16.95 3.3 L-16.9 2.15 Q-16.15 -0.4 -14.6 -2.65 L-15.8 -2.25 Q-13.35 -4.1 -10.95 -6.3 L-6.7 -9.95 -7.2 -8.9 Q-4.55 -10.15 -1.55 -10.4 M2.9 -9.1 L3.0 -9.0 2.6 -9.45 2.9 -9.1 M-14.7 -24.85 L-14.65 -24.8 Q-11.0 -21.15 -11.0 -16.05 -11.0 -10.95 -14.65 -7.35 -18.25 -3.7 -23.35 -3.7 L-27.2 -4.3 Q-29.6 -6.15 -30.7 -9.05 -32.3 -13.55 -29.9 -18.0 -27.55 -22.5 -22.55 -24.3 -18.55 -25.8 -14.7 -24.85" fill="#f74900" fill-rule="evenodd" stroke="none"/>
    <path d="M1.75 -10.4 L2.6 -9.45 Q0.65 -10.2 -1.55 -10.4 L0.25 -10.45 1.75 -10.4 M-16.9 2.15 L-16.95 3.3 -17.15 3.25 -16.9 2.15 M2.9 -9.1 L2.6 -9.45 3.0 -9.0 2.9 -9.1 M-14.65 -24.8 L-14.7 -24.85 -14.65 -24.8" fill="#ff3300" fill-rule="evenodd" stroke="none"/>
    <path d="M-6.7 -9.95 L-10.95 -6.3 Q-13.35 -4.1 -15.8 -2.25 -20.2 -1.05 -24.35 -2.65 -25.95 -3.35 -27.2 -4.3 L-23.35 -3.7 Q-18.25 -3.7 -14.65 -7.35 -11.0 -10.95 -11.0 -16.05 -11.0 -21.15 -14.65 -24.8 L-12.8 -24.25 Q-8.1 -22.4 -6.45 -17.9 -5.05 -13.95 -6.7 -9.95 M-16.95 3.3 Q-16.95 9.0 -12.85 13.0 L-11.1 14.45 Q-7.55 17.05 -2.85 17.05 3.0 17.05 7.6 13.5 12.2 9.95 12.8 3.1 13.35 -3.7 11.95 -5.45 16.85 -5.55 20.35 -9.1 24.0 -12.7 24.0 -17.8 24.0 -21.55 22.05 -24.5 L22.55 -24.3 Q27.55 -22.45 29.95 -18.0 32.35 -13.55 30.7 -9.05 29.0 -4.55 24.35 -2.65 19.9 -0.9 15.15 -2.45 18.0 1.85 18.05 7.35 18.0 14.7 12.8 19.9 7.6 25.15 0.25 25.2 -7.15 25.15 -12.4 19.9 -17.0 15.3 -17.55 9.05 L-17.6 7.35 Q-17.6 5.2 -17.15 3.25 L-16.95 3.3" fill="#f43202" fill-rule="evenodd" stroke="none"/>
    <path d="M7.15 -9.15 Q4.9 -13.5 6.5 -17.9 8.15 -22.4 12.85 -24.2 17.3 -26.0 22.05 -24.5 L22.55 -24.3 Q27.55 -22.45 29.95 -18.0 32.35 -13.55 30.7 -9.05 29.0 -4.55 24.35 -2.65 19.9 -0.9 15.15 -2.45 18.0 1.85 18.05 7.35 18.0 14.7 12.8 19.9 7.6 25.15 0.25 25.2 -7.15 25.15 -12.4 19.9 -17.0 15.3 -17.55 9.05 L-17.6 7.35 Q-17.6 5.2 -17.15 3.25 L-16.9 2.15 Q-16.15 -0.4 -14.6 -2.65 L-15.8 -2.25 Q-20.2 -1.05 -24.35 -2.65 -25.95 -3.35 -27.2 -4.3 -29.6 -6.15 -30.7 -9.05 -32.3 -13.55 -29.9 -18.0 -27.55 -22.5 -22.55 -24.3 -18.55 -25.8 -14.7 -24.85 L-14.65 -24.8 -12.8 -24.25 Q-8.1 -22.4 -6.45 -17.9 -5.05 -13.95 -6.7 -9.95 L-7.2 -8.9 Q-4.55 -10.15 -1.55 -10.4 L0.25 -10.45 1.75 -10.4 Q4.6 -10.2 7.15 -9.15 Z" fill="none" stroke="#993300" stroke-linecap="round" stroke-linejoin="round" stroke-width="1.0"/>
  </g>
</svg>
