<?xml version="1.0" encoding="UTF-8" standalone="no"?>
<svg xmlns:xlink="http://www.w3.org/1999/xlink" height="33.05px" width="36.65px" xmlns="http://www.w3.org/2000/svg">
  <g transform="matrix(1.0, 0.0, 0.0, 1.0, 16.8, 16.8)">
    <path d="M10.35 -15.65 Q12.8 -8.35 18.85 -4.65 L18.1 -2.45 16.75 -3.2 14.7 12.85 -0.75 15.25 -10.6 13.3 -12.9 -1.1 -15.45 -1.35 -15.8 -2.85 Q-12.85 -5.4 -10.65 -7.9 L-11.25 -12.65 -12.35 -12.75 -12.7 -14.95 -8.3 -15.8 -2.55 -15.8 -2.6 -15.25 10.3 -15.8 10.35 -15.65 M-5.85 -5.6 L-5.8 -5.6 -5.8 -5.65 -5.85 -5.6" fill="#330000" fill-rule="evenodd" stroke="none"/>
    <path d="M10.35 -15.65 Q12.8 -8.35 18.85 -4.65 L18.1 -2.45 16.75 -3.2 14.7 12.85 -0.75 15.25 -10.6 13.3 -12.9 -1.1 -15.45 -1.35 -15.8 -2.85 Q-12.85 -5.4 -10.65 -7.9 L-11.25 -12.65 -12.35 -12.75 -12.7 -14.95 -8.3 -15.8 -2.55 -15.8 -2.6 -15.25 10.3 -15.8 10.35 -15.65 M-5.85 -5.6 L-5.8 -5.6 -5.8 -5.65 -5.85 -5.6 Z" fill="none" stroke="#663300" stroke-linecap="round" stroke-linejoin="round" stroke-width="2.0"/>
    <path d="M8.55 -15.8 L10.3 -15.8 10.35 -15.65 Q12.8 -8.35 18.85 -4.65 L18.1 -2.45 16.75 -3.2 Q12.3 -6.4 9.7 -13.25 5.9 -6.1 -1.5 -1.6 L-4.0 -0.25 -4.0 -2.1 Q4.55 -7.15 8.55 -15.8" fill="#f94417" fill-rule="evenodd" stroke="none"/>
    <path d="M-1.5 -1.6 Q5.9 -6.1 9.7 -13.25 12.3 -6.4 16.75 -3.2 L14.7 12.85 12.45 13.2 12.5 12.45 12.95 8.05 13.0 7.85 13.25 6.0 13.4 2.75 Q13.4 0.8 10.35 0.6 L10.05 0.55 9.85 0.55 9.55 0.55 8.7 0.6 8.2 0.6 Q4.05 1.7 4.05 5.25 L4.1 14.5 -0.75 15.25 -1.5 -1.6 M11.05 -7.05 L7.25 -6.95 7.25 -1.85 7.25 -1.25 10.95 -1.85 11.45 -7.05 11.05 -7.05 M-6.15 -12.45 L-3.25 -13.05 -3.0 -8.0 -3.3 -7.5 Q-4.05 -6.45 -5.8 -5.65 L-6.55 -12.35 -6.15 -12.45" fill="#ffff99" fill-rule="evenodd" stroke="none"/>
    <path d="M-4.0 -0.25 L-1.5 -1.6 -0.75 15.25 -10.6 13.3 -12.9 -1.1 -4.05 -0.2 -4.0 -0.25 M-10.65 -7.9 L-11.25 -12.65 -6.55 -12.35 -5.8 -5.65 -5.85 -5.6 -10.35 -5.75 -10.65 -7.9 M11.05 -7.05 L11.45 -7.05 10.95 -1.85 7.25 -1.25 7.25 -1.85 10.7 -2.4 11.05 -7.05 M-9.5 9.55 L-9.5 9.6 -3.75 10.4 -4.2 3.15 -10.3 2.75 -9.5 9.55" fill="#eae951" fill-rule="evenodd" stroke="none"/>
    <path d="M7.25 -1.85 L7.25 -6.95 11.05 -7.05 10.7 -2.4 7.25 -1.85 M11.1 3.4 Q12.1 3.95 12.05 4.5 L10.95 4.75 10.45 4.9 10.6 3.15 11.1 3.4 M6.45 5.85 L5.95 6.0 Q6.05 4.5 7.8 3.6 L7.8 3.9 7.7 5.55 6.45 5.85" fill="#79bcfd" fill-rule="evenodd" stroke="none"/>
    <path d="M8.95 13.75 L8.65 13.8 9.55 0.55 9.85 0.55 8.95 13.75 M4.6 14.45 L4.1 14.5 4.05 5.25 Q4.05 1.7 8.2 0.6 L8.7 0.6 Q4.55 1.7 4.55 5.25 L4.6 14.45 M11.1 3.4 L11.1 3.15 Q12.6 3.85 12.55 4.5 L10.95 4.9 10.95 4.75 12.05 4.5 Q12.1 3.95 11.1 3.4 M11.8 6.35 L12.35 6.2 12.1 8.05 10.65 8.4 10.65 8.3 11.6 8.05 11.8 6.35 M10.45 10.95 L11.2 10.75 11.35 9.7 11.9 9.6 11.7 10.75 10.45 11.1 10.45 10.95 M7.8 3.9 L8.3 3.6 8.2 5.55 6.45 6.0 6.45 5.85 7.7 5.55 7.8 3.9 M7.65 7.35 L8.15 7.25 8.05 9.05 6.3 9.5 6.3 9.35 7.55 9.05 7.65 7.35 M7.5 10.75 L8.0 10.6 7.95 11.75 6.2 12.25 6.2 12.1 7.45 11.75 7.5 10.75" fill="#7e3d12" fill-rule="evenodd" stroke="none"/>
    <path d="M12.45 13.2 L8.95 13.75 9.85 0.55 10.05 0.55 10.35 0.6 Q13.4 0.8 13.4 2.75 L13.25 6.0 13.0 7.85 12.95 8.05 12.5 12.45 12.45 13.2 M8.65 13.8 L4.6 14.45 4.55 5.25 Q4.55 1.7 8.7 0.6 L9.55 0.55 8.65 13.8 M10.95 4.75 L10.95 4.9 12.55 4.5 Q12.6 3.85 11.1 3.15 L11.1 3.4 10.6 3.15 10.45 4.9 10.95 4.75 M11.8 6.35 L11.85 6.2 10.3 6.6 10.15 8.4 10.65 8.3 10.65 8.4 12.1 8.05 12.35 6.2 11.8 6.35 M10.45 10.95 L10.45 11.1 11.7 10.75 11.9 9.6 11.35 9.7 11.4 9.6 10.05 9.95 9.95 11.1 10.45 10.95 M7.8 3.9 L7.8 3.6 Q6.05 4.5 5.95 6.0 L6.45 5.85 6.45 6.0 8.2 5.55 8.3 3.6 7.8 3.9 M6.3 9.35 L6.3 9.5 8.05 9.05 8.15 7.25 7.65 7.35 7.65 7.25 5.9 7.65 5.8 9.5 6.3 9.35 M7.5 10.75 L7.5 10.6 5.75 11.05 5.7 12.25 6.2 12.1 6.2 12.25 7.95 11.75 8.0 10.6 7.5 10.75" fill="#d0651e" fill-rule="evenodd" stroke="none"/>
    <path d="M10.65 8.3 L10.15 8.4 10.3 6.6 11.85 6.2 11.8 6.35 11.6 8.05 10.65 8.3 M11.35 9.7 L11.2 10.75 10.45 10.95 9.95 11.1 10.05 9.95 11.4 9.6 11.35 9.7 M6.3 9.35 L5.8 9.5 5.9 7.65 7.65 7.25 7.65 7.35 7.55 9.05 6.3 9.35 M6.2 12.1 L5.7 12.25 5.75 11.05 7.5 10.6 7.5 10.75 7.45 11.75 6.2 12.1" fill="#c15e1c" fill-rule="evenodd" stroke="none"/>
    <path d="M-11.25 -12.65 L-12.35 -12.75 -12.7 -14.95 -6.95 -14.8 -6.35 -14.95 -6.15 -12.45 -6.55 -12.35 -11.25 -12.65" fill="#b0c851" fill-rule="evenodd" stroke="none"/>
    <path d="M-3.0 -15.8 L-2.55 -15.8 -2.6 -15.25 -2.75 -13.25 -3.25 -13.05 -6.15 -12.45 -6.35 -14.95 -3.0 -15.8" fill="#c1d378" fill-rule="evenodd" stroke="none"/>
    <path d="M-12.7 -14.95 L-8.3 -15.8 -3.0 -15.8 -6.35 -14.95 -6.95 -14.8 -12.7 -14.95" fill="#d7e2a5" fill-rule="evenodd" stroke="none"/>
    <path d="M8.55 -15.8 Q4.55 -7.15 -4.0 -2.1 L-15.8 -2.85 Q-12.85 -5.4 -10.65 -7.9 L-10.35 -5.75 -5.85 -5.6 -5.8 -5.6 -5.8 -5.65 Q-4.05 -6.45 -3.3 -7.5 L-3.0 -8.0 -3.25 -13.05 -2.75 -13.25 -2.6 -15.25 8.55 -15.8" fill="#ff6f39" fill-rule="evenodd" stroke="none"/>
    <path d="M-4.0 -2.1 L-4.0 -0.25 -4.05 -0.2 -12.9 -1.1 -15.45 -1.35 -15.8 -2.85 -4.0 -2.1" fill="#be2905" fill-rule="evenodd" stroke="none"/>
    <path d="M-7.5 3.7 L-9.45 3.6 -8.9 9.25 -7.15 9.45 -7.45 3.7 -7.5 3.7 M-9.5 9.55 L-10.3 2.75 -4.2 3.15 -3.75 10.4 -9.5 9.6 -9.5 9.55 M-6.65 9.5 L-4.5 9.7 -4.95 3.8 -6.95 3.7 -6.65 9.5" fill="#871d03" fill-rule="evenodd" stroke="none"/>
    <path d="M-7.5 3.7 L-7.45 3.7 -7.15 9.45 -8.9 9.25 -9.45 3.6 -7.5 3.7 M-6.65 9.5 L-6.95 3.7 -4.95 3.8 -4.5 9.7 -6.65 9.5" fill="#5a77e9" fill-rule="evenodd" stroke="none"/>
  </g>
</svg>
