<?xml version="1.0" encoding="UTF-8" standalone="no"?>
<svg xmlns:xlink="http://www.w3.org/1999/xlink" height="52.1px" width="59.3px" xmlns="http://www.w3.org/2000/svg">
  <g transform="matrix(1.0, 0.0, 0.0, 1.0, 29.65, 26.05)">
    <path d="M15.0 -18.0 L15.2 -17.5 28.15 -13.5 26.35 16.1 0.05 24.55 0.05 -4.7 0.0 -4.7 0.0 24.55 -25.75 16.45 -28.15 -13.5 -18.6 -16.45 -17.95 -18.05 -16.2 -20.8 Q-13.35 -24.55 -10.5 -24.55 -9.1 -24.55 -6.4 -22.2 L-4.8 -20.75 0.0 -22.25 6.1 -20.35 Q9.1 -22.05 11.85 -22.05 13.3 -22.05 15.0 -18.0" fill="#fd024e" fill-rule="evenodd" stroke="none"/>
    <path d="M15.0 -18.0 Q13.3 -22.05 11.85 -22.05 9.1 -22.05 6.1 -20.35 L0.0 -22.25 -4.8 -20.75 -6.4 -22.2 Q-9.1 -24.55 -10.5 -24.55 -13.35 -24.55 -16.2 -20.8 L-17.95 -18.05 -18.6 -16.45 -28.15 -13.5 -25.75 16.45 0.0 24.55 0.0 -4.7 0.05 -4.7 0.05 24.55 26.35 16.1 28.15 -13.5 15.2 -17.5 15.0 -18.0 Z" fill="none" stroke="#fd024e" stroke-linecap="round" stroke-linejoin="round" stroke-width="3.0"/>
    <path d="M13.2 -8.85 L16.95 -10.0 Q17.3 -9.85 17.6 -9.65 L17.35 -2.65 17.1 6.35 Q16.8 14.0 15.75 19.7 L12.2 20.75 12.8 17.1 12.95 14.5 Q12.8 5.2 13.2 -8.65 L13.2 -8.85" fill="#fd024e" fill-rule="evenodd" stroke="none"/>
    <path d="M12.95 -8.75 L13.2 -8.85 13.2 -8.65 Q12.8 5.2 12.95 14.5 L12.8 17.1 12.2 20.75 0.05 24.55 0.05 -4.7 0.0 -4.7 0.15 -4.75 12.95 -8.75 M28.15 -13.5 L26.35 16.1 15.75 19.7 Q16.8 14.0 17.1 6.35 L17.35 -2.65 17.6 -9.65 Q17.3 -9.85 16.95 -10.0 L28.15 -13.5" fill="#fe7878" fill-rule="evenodd" stroke="none"/>
    <path d="M14.25 -17.85 L16.85 -17.0 9.55 -15.6 Q7.15 -15.05 3.9 -13.95 L4.9 -13.85 Q12.8 -12.0 16.95 -10.0 L13.2 -8.85 12.95 -8.75 -0.35 -12.2 -7.4 -9.95 -11.95 -8.45 -12.3 -8.55 -16.15 -9.75 -9.4 -12.15 -4.8 -13.55 -17.2 -16.9 -14.75 -17.65 -0.75 -15.0 8.15 -16.65 14.25 -17.85" fill="#fe5f8e" fill-rule="evenodd" stroke="none"/>
    <path d="M14.25 -17.85 L8.15 -16.65 -0.75 -15.0 -14.75 -17.65 0.0 -22.25 14.25 -17.85 M-17.2 -16.9 L-4.8 -13.55 -9.4 -12.15 -16.15 -9.75 -28.15 -13.5 -17.2 -16.9 M-11.95 -8.45 L-7.4 -9.95 -0.35 -12.2 12.95 -8.75 0.15 -4.75 0.0 -4.7 -11.95 -8.45 M16.95 -10.0 Q12.8 -12.0 4.9 -13.85 L3.9 -13.95 Q7.15 -15.05 9.55 -15.6 L16.85 -17.0 28.15 -13.5 16.95 -10.0" fill="#feb4b4" fill-rule="evenodd" stroke="none"/>
    <path d="M-12.3 -8.55 L-11.95 -8.45 0.0 -4.7 0.0 24.55 -12.9 20.55 -12.55 -3.45 -12.45 -6.5 -12.35 -8.3 -12.3 -8.55 M-14.95 19.9 L-25.75 16.45 -28.15 -13.5 -16.15 -9.75 -16.45 -9.65 Q-15.9 11.85 -14.95 19.9" fill="#ff9999" fill-rule="evenodd" stroke="none"/>
    <path d="M-16.15 -9.75 L-12.3 -8.55 -12.35 -8.3 -12.45 -6.5 -12.55 -3.45 -12.9 20.55 -14.95 19.9 Q-15.9 11.85 -16.45 -9.65 L-16.15 -9.75" fill="#ff3366" fill-rule="evenodd" stroke="none"/>
    <path d="M-5.55 -7.75 Q-4.45 -10.35 -2.05 -12.5 L-2.7 -10.3 Q-3.0 -8.8 -2.55 -5.2 -2.05 -0.5 -0.45 0.75 L-0.85 0.65 -1.65 0.35 -2.1 0.1 -4.5 -0.6 -5.45 0.75 -6.55 2.25 -6.9 2.7 -7.05 -1.5 Q-6.65 -5.2 -5.55 -7.75" fill="#fe5f8e" fill-rule="evenodd" stroke="none"/>
    <path d="M5.45 -1.25 L4.75 0.85 4.05 2.7 4.0 2.75 Q2.4 -7.55 -2.65 -11.35 1.4 -10.1 4.9 -7.1 9.25 -3.35 10.15 1.65 9.7 1.15 9.4 1.25 7.7 0.05 5.45 -1.25" fill="#fe5f8e" fill-rule="evenodd" stroke="none"/>
    <path d="M-18.65 -16.2 L-18.65 -16.25 -17.95 -18.05 -16.2 -20.8 Q-13.35 -24.55 -10.5 -24.55 -9.1 -24.55 -6.4 -22.2 -3.6 -19.85 -2.15 -17.2 -0.45 -14.05 -1.75 -12.15 -2.35 -11.3 -3.55 -10.75 L-4.2 -11.65 Q-5.65 -13.7 -8.15 -16.35 -10.7 -19.0 -12.35 -19.2 -13.95 -19.45 -15.45 -18.6 L-17.75 -17.2 -18.65 -16.2" fill="#fe5f8e" fill-rule="evenodd" stroke="none"/>
    <path d="M-18.65 -16.2 L-17.75 -17.2 -15.45 -18.6 Q-13.95 -19.45 -12.35 -19.2 -10.7 -19.0 -8.15 -16.35 -5.65 -13.7 -4.2 -11.65 L-3.55 -10.75 Q-5.6 -9.85 -8.25 -9.9 -10.9 -9.95 -12.0 -10.45 -13.2 -11.0 -14.8 -11.9 -16.4 -12.8 -18.65 -16.2" fill="#ff3366" fill-rule="evenodd" stroke="none"/>
    <path d="M-1.7 -10.75 L-2.7 -11.65 Q-2.25 -12.8 -1.95 -14.25 L1.25 -16.8 Q3.4 -18.6 4.65 -19.4 8.4 -22.05 11.85 -22.05 13.3 -22.05 15.0 -18.0 16.5 -14.45 16.5 -13.0 L16.5 -12.95 Q15.9 -14.2 14.15 -14.65 12.35 -15.1 10.1 -14.7 7.85 -14.35 3.85 -12.95 -0.15 -11.55 -1.7 -10.75" fill="#fe5f8e" fill-rule="evenodd" stroke="none"/>
    <path d="M-1.7 -10.75 Q-0.15 -11.55 3.85 -12.95 7.85 -14.35 10.1 -14.7 12.35 -15.1 14.15 -14.65 15.9 -14.2 16.5 -12.95 16.45 -11.6 12.0 -10.5 8.1 -9.55 4.65 -9.55 L0.0 -9.95 Q-1.0 -10.25 -1.7 -10.75" fill="#ff3366" fill-rule="evenodd" stroke="none"/>
  </g>
</svg>
