<?xml version="1.0" encoding="UTF-8" standalone="no"?>
<svg xmlns:xlink="http://www.w3.org/1999/xlink" height="72.15px" width="71.15px" xmlns="http://www.w3.org/2000/svg">
  <g transform="matrix(1.0, 0.0, 0.0, 1.0, 8.05, 0.65)">
    <use data-characterId="344" height="63.95" transform="matrix(1.0, 0.0, 0.0, 1.0, -0.65, -0.5)" width="63.75" xlink:href="#shape0"/>
  </g>
  <defs>
    <g id="shape0" transform="matrix(1.0, 0.0, 0.0, 1.0, 0.65, 0.5)">
      <path d="M41.4 -0.1 L44.6 -0.35 Q47.1 0.1 49.7 1.7 52.3 3.25 54.75 5.65 57.15 8.0 59.05 10.9 61.0 13.8 62.05 16.9 63.15 20.0 63.1 23.05 63.05 24.25 62.55 25.1 62.1 25.95 61.25 26.3 L59.5 26.5 Q58.6 26.3 57.8 25.7 L57.3 25.75 56.7 25.75 56.4 25.75 50.2 26.05 43.9 27.0 Q40.75 27.7 37.6 29.25 L37.9 31.2 37.75 32.45 37.2 33.35 36.2 34.1 34.65 35.25 32.95 36.5 Q32.85 38.1 32.25 39.65 32.95 39.75 33.65 40.15 34.4 40.5 35.0 41.2 35.6 41.9 35.8 43.05 L35.9 44.2 Q35.9 45.85 35.0 47.25 34.05 48.65 32.3 49.65 31.85 50.95 30.4 52.25 L27.0 54.95 26.3 55.45 23.55 57.05 19.45 58.9 14.9 60.55 10.65 61.55 Q9.8 62.65 8.7 63.05 L5.0 63.25 Q3.4 62.75 2.2 61.4 L2.35 60.55 1.8 59.45 Q1.2 56.2 -0.2 53.1 L-0.65 51.9 -0.55 51.9 Q-0.35 50.25 0.4 49.3 1.15 48.35 2.2 47.95 L4.55 47.65 4.6 47.4 4.9 48.05 5.3 48.25 5.2 48.05 5.15 48.0 5.15 47.95 4.85 47.7 4.8 47.6 5.1 47.85 4.85 47.45 Q5.25 45.55 6.4 43.65 7.55 41.6 9.3 39.95 10.8 38.45 11.9 36.55 L13.75 32.6 15.05 28.5 Q15.3 27.8 16.15 27.4 16.8 27.1 17.6 27.15 L18.3 27.2 18.05 26.85 18.9 27.25 19.55 27.75 Q21.95 26.7 23.65 26.7 L26.15 27.1 28.7 24.8 29.9 23.7 Q30.25 23.35 31.3 23.45 32.3 23.55 33.5 24.2 L35.5 21.6 37.8 17.7 Q38.95 15.4 39.75 12.7 40.55 10.0 40.55 6.95 L40.3 3.9 Q39.6 3.2 39.55 2.35 L39.75 1.45 Q40.15 0.5 41.4 -0.1 M5.3 48.1 L5.5 48.3 5.65 48.35 5.3 48.1" fill="#ffffff" fill-rule="evenodd" stroke="none"/>
      <path d="M38.8 19.65 L39.95 18.35 Q40.5 17.95 40.85 18.1 41.2 18.3 41.1 19.05 L40.45 20.65 39.35 21.95 38.4 22.2 Q38.1 21.95 38.2 21.25 38.3 20.5 38.8 19.65" fill="#f0f299" fill-rule="evenodd" stroke="none"/>
      <path d="M39.25 19.65 L40.0 18.75 Q40.4 18.5 40.65 18.6 L40.8 19.25 40.35 20.35 39.6 21.25 38.95 21.45 Q38.75 21.25 38.8 20.8 L39.25 19.65" fill="#ffffff" fill-rule="evenodd" stroke="none"/>
      <path d="M62.7 23.0 Q62.65 24.6 61.85 25.3 61.1 26.05 60.05 26.0 59.0 25.95 58.05 25.15 L52.15 25.35 46.2 26.0 Q43.2 26.45 40.2 27.6 37.15 28.7 34.15 30.7 32.9 31.5 32.35 31.35 31.8 31.15 31.65 30.4 L31.7 28.75 31.95 27.15 32.15 26.45 34.15 24.45 36.8 20.95 39.35 16.25 Q40.5 13.6 41.0 10.55 41.5 7.5 41.0 4.15 39.95 3.0 40.2 1.95 40.4 0.9 41.6 0.35 L44.65 0.1 Q47.0 0.55 49.55 2.1 52.1 3.65 54.45 5.95 56.85 8.3 58.75 11.1 60.65 13.95 61.7 17.0 62.8 20.05 62.7 23.0" fill="#644d0d" fill-rule="evenodd" stroke="none"/>
      <path d="M53.75 6.5 Q56.05 8.75 57.95 11.5 59.85 14.25 60.9 17.2 62.0 20.15 61.95 23.0 61.85 24.5 61.15 25.0 60.45 25.5 59.65 25.25 58.8 25.05 58.25 24.45 58.1 22.1 57.4 20.0 56.65 17.85 55.55 15.9 L53.15 12.2 Q51.25 9.5 48.4 7.35 45.55 5.2 41.65 3.9 40.9 3.05 40.95 2.25 41.0 1.45 41.85 1.0 L44.45 0.85 Q46.6 1.3 49.0 2.75 51.4 4.25 53.75 6.5" fill="#dee22b" fill-rule="evenodd" stroke="none"/>
      <path d="M54.7 15.35 Q55.75 17.05 56.5 19.25 57.2 21.4 57.45 24.45 L51.8 24.65 46.0 25.35 Q43.05 25.85 40.15 26.9 37.25 28.0 34.4 29.85 33.25 30.65 32.75 30.55 32.25 30.5 32.25 29.9 L32.4 28.55 32.85 27.25 33.05 26.7 35.3 24.15 37.85 20.5 40.2 16.0 Q41.2 13.5 41.65 10.65 42.1 7.8 41.75 4.7 45.15 5.85 47.85 7.75 50.55 9.65 52.3 11.95 L54.7 15.35" fill="#dee22b" fill-rule="evenodd" stroke="none"/>
      <path d="M56.85 10.95 Q58.7 13.5 59.9 16.5 61.15 19.45 61.35 22.7 61.4 23.9 60.95 24.2 L60.0 24.45 59.15 24.2 60.05 23.65 Q60.4 23.1 60.4 21.9 60.4 20.7 59.85 18.8 58.75 15.35 56.65 12.15 54.5 8.95 51.9 6.5 49.25 4.05 46.6 2.85 44.0 1.6 41.85 2.1 41.9 1.45 42.65 1.35 L44.3 1.45 45.85 1.85 Q47.15 2.15 49.0 3.35 50.9 4.55 52.95 6.5 55.0 8.45 56.85 10.95" fill="#f0f299" fill-rule="evenodd" stroke="none"/>
      <path d="M53.15 12.15 Q51.25 9.5 48.45 7.4 45.65 5.3 41.85 4.0 L42.8 3.95 43.8 4.3 Q47.55 5.6 50.45 7.95 53.35 10.3 55.25 13.45 57.15 16.6 58.0 20.35 L58.35 22.85 58.2 23.95 Q58.0 21.7 57.25 19.65 L55.45 15.75 53.15 12.15" fill="#b3a11b" fill-rule="evenodd" stroke="none"/>
      <path d="M56.45 23.9 L49.5 24.15 Q45.9 24.45 42.3 25.65 38.7 26.85 35.1 29.2 L35.4 28.45 35.55 27.45 35.65 26.9 Q38.75 25.3 41.6 24.25 44.5 23.2 46.95 22.65 L51.15 21.85 53.65 21.6 Q54.35 21.6 54.6 20.85 54.85 20.1 54.7 18.9 L54.2 16.35 55.65 19.4 56.25 21.9 56.45 23.9" fill="#b3a11b" fill-rule="evenodd" stroke="none"/>
      <path d="M49.15 16.1 L45.65 19.4 41.4 22.45 37.4 25.15 Q35.6 26.3 34.6 27.1 L32.7 28.4 Q32.25 28.65 32.35 28.3 L32.9 27.45 33.65 26.45 34.05 25.95 34.85 25.25 36.85 23.0 39.35 19.15 Q40.65 16.85 41.7 13.7 42.75 10.55 43.2 6.5 L44.8 7.15 Q45.9 7.65 47.2 8.5 48.5 9.35 49.55 10.45 50.65 11.55 51.1 12.85 50.65 14.45 49.15 16.1" fill="#f0f299" fill-rule="evenodd" stroke="none"/>
      <path d="M46.85 2.25 Q47.8 2.55 48.35 3.05 48.9 3.5 48.8 3.9 48.65 4.25 47.95 4.3 L46.25 4.05 Q45.25 3.75 44.7 3.25 44.15 2.8 44.25 2.4 44.4 2.05 45.15 2.0 L46.85 2.25" fill="#f0f299" fill-rule="evenodd" stroke="none"/>
      <path d="M46.65 2.3 Q47.3 2.5 47.7 2.8 L48.0 3.4 Q47.9 3.65 47.4 3.7 L46.25 3.5 Q45.55 3.3 45.2 2.95 44.8 2.65 44.85 2.4 44.95 2.15 45.45 2.15 L46.65 2.3" fill="#ffffff" fill-rule="evenodd" stroke="none"/>
      <path d="M36.2 28.2 L35.7 28.35 34.75 28.55 Q34.35 28.6 34.4 28.4 L35.6 27.7 38.9 26.15 Q40.75 25.35 42.75 24.8 L46.85 24.35 Q44.55 24.7 41.8 25.7 39.05 26.7 36.2 28.2" fill="#7f562d" fill-rule="evenodd" stroke="none"/>
      <path d="M41.8 15.0 Q41.05 17.55 40.05 19.5 L37.7 23.05 34.15 26.55 31.9 28.35 Q31.35 28.7 31.55 28.35 L32.3 27.35 33.35 26.2 33.9 25.6 36.0 23.7 38.4 20.85 Q39.65 19.05 40.95 16.15 42.2 13.25 43.4 8.75 L41.8 15.0" fill="#ffffff" fill-rule="evenodd" stroke="none"/>
      <path d="M39.25 19.65 L40.0 18.75 Q40.4 18.5 40.65 18.6 L40.8 19.25 40.35 20.35 39.6 21.25 38.95 21.45 Q38.75 21.25 38.8 20.8 L39.25 19.65" fill="#ffffff" fill-rule="evenodd" stroke="none"/>
      <path d="M37.1 29.05 Q37.5 30.5 37.4 31.7 37.35 32.9 36.85 33.35 L35.45 34.35 33.4 35.8 31.55 37.1 30.7 37.65 24.45 28.95 25.2 28.3 26.9 26.8 28.7 25.15 29.85 24.1 30.95 24.0 33.2 24.6 Q34.5 25.15 35.7 26.45 36.7 27.65 37.1 29.05" fill="#4e1d13" fill-rule="evenodd" stroke="none"/>
      <path d="M36.75 31.5 Q36.65 32.35 36.2 32.75 L35.0 33.65 33.1 35.05 31.4 36.3 30.65 36.85 25.5 29.2 26.2 28.6 27.7 27.25 29.35 25.8 30.35 24.85 31.3 24.8 Q32.1 24.85 33.15 25.35 34.25 25.85 35.2 27.1 36.1 28.35 36.5 29.5 L36.75 31.5" fill="#ffffff" fill-rule="evenodd" stroke="none"/>
      <path d="M36.6 31.75 Q36.55 32.55 36.1 32.95 L34.9 33.85 33.0 35.25 31.3 36.5 30.55 37.05 25.4 29.4 26.1 28.8 Q26.7 28.25 27.6 27.45 L29.25 26.0 30.25 25.05 31.15 25.0 Q31.9 25.05 32.9 25.6 33.9 26.15 34.85 27.4 35.8 28.65 36.2 29.75 36.6 30.9 36.6 31.75" fill="#cea546" fill-rule="evenodd" stroke="none"/>
      <path d="M34.85 27.4 L29.8 31.5 27.0 29.25 32.0 25.25 Q32.7 25.45 33.4 26.0 L34.85 27.4" fill="#efcf67" fill-rule="evenodd" stroke="none"/>
      <path d="M34.1 26.55 L29.0 30.65 27.75 29.5 32.7 25.55 34.1 26.55" fill="#ffffff" fill-rule="evenodd" stroke="none"/>
      <path d="M30.4 32.4 L35.7 28.55 36.45 30.35 36.55 31.85 31.65 35.55 30.4 32.4" fill="#ab771f" fill-rule="evenodd" stroke="none"/>
      <path d="M36.55 31.05 L31.35 34.85 30.65 33.1 36.0 29.3 36.55 31.05" fill="#794d26" fill-rule="evenodd" stroke="none"/>
      <path d="M31.4 31.6 Q32.6 33.6 32.6 36.1 32.6 38.55 31.4 40.55 30.2 42.55 28.25 43.75 26.25 44.9 23.75 44.95 21.3 44.9 19.3 43.75 17.3 42.55 16.1 40.55 14.95 38.55 14.9 36.1 14.95 33.6 16.1 31.6 17.3 29.65 19.3 28.45 21.3 27.25 23.75 27.25 26.25 27.25 28.25 28.45 30.2 29.65 31.4 31.6" fill="#781001" fill-rule="evenodd" stroke="none"/>
      <path d="M31.9 36.05 Q31.9 38.3 30.8 40.15 29.7 42.0 27.9 43.1 26.05 44.15 23.75 44.2 21.5 44.15 19.65 43.1 17.8 42.0 16.75 40.15 15.65 38.3 15.6 36.05 15.65 33.75 16.75 31.95 17.8 30.1 19.65 29.0 21.5 27.9 23.75 27.9 26.05 27.9 27.9 29.0 29.7 30.1 30.8 31.9 31.9 33.75 31.9 36.05" fill="#bf2909" fill-rule="evenodd" stroke="none"/>
      <path d="M27.3 30.05 Q25.75 29.15 23.8 29.1 21.95 29.15 20.45 29.95 18.9 30.8 17.95 32.25 16.95 33.7 16.8 35.5 L16.75 35.2 Q16.8 33.25 17.75 31.65 18.65 30.05 20.25 29.1 21.85 28.15 23.85 28.15 25.8 28.15 27.4 29.1 29.0 30.05 29.95 31.65 30.9 33.25 30.9 35.2 L30.85 35.9 Q30.75 34.0 29.8 32.45 28.85 30.95 27.3 30.05" fill="#ec461b" fill-rule="evenodd" stroke="none"/>
      <path d="M22.05 30.8 Q22.1 29.9 22.9 29.35 23.7 28.75 24.9 28.75 26.1 28.75 26.9 29.35 27.75 29.9 27.75 30.8 27.75 31.65 26.9 32.25 26.1 32.8 24.9 32.85 23.7 32.8 22.9 32.25 22.1 31.65 22.05 30.8" fill="#ec461b" fill-rule="evenodd" stroke="none"/>
      <path d="M27.45 43.7 Q25.6 44.85 23.45 45.7 L19.3 47.1 15.85 47.55 Q14.35 47.5 13.8 46.8 13.15 45.85 13.05 44.5 13.0 43.15 13.3 41.7 13.6 40.25 14.15 38.95 L15.25 36.9 Q15.8 36.1 16.85 35.15 L18.95 33.4 20.8 32.05 Q21.55 31.5 21.6 31.5 L22.2 33.25 Q22.45 34.1 22.35 35.0 22.25 35.95 21.5 37.1 L20.45 38.7 19.8 40.3 Q19.55 41.05 19.6 41.25 19.65 41.4 20.5 41.55 L22.65 41.8 25.4 41.9 28.25 41.8 30.55 41.4 Q29.3 42.6 27.45 43.7" fill="#781001" fill-rule="evenodd" stroke="none"/>
      <path d="M62.7 23.0 Q62.65 24.6 61.85 25.3 61.1 26.05 60.05 26.0 59.0 25.95 58.05 25.15 L52.15 25.35 46.2 26.0 Q43.2 26.45 40.2 27.6 37.15 28.7 34.15 30.7 32.9 31.5 32.35 31.35 31.8 31.15 31.65 30.4 L31.7 28.75 31.95 27.15 32.15 26.45 34.15 24.45 36.8 20.95 39.35 16.25 Q40.5 13.6 41.0 10.55 41.5 7.5 41.0 4.15 39.95 3.0 40.2 1.95 40.4 0.9 41.6 0.35 L44.65 0.1 Q47.0 0.55 49.55 2.1 52.1 3.65 54.45 5.95 56.85 8.3 58.75 11.1 60.65 13.95 61.7 17.0 62.8 20.05 62.7 23.0" fill="#644d0d" fill-rule="evenodd" stroke="none"/>
      <path d="M53.75 6.5 Q56.05 8.75 57.95 11.5 59.85 14.25 60.9 17.2 62.0 20.15 61.95 23.0 61.85 24.5 61.15 25.0 60.45 25.5 59.65 25.25 58.8 25.05 58.25 24.45 58.1 22.1 57.4 20.0 56.65 17.85 55.55 15.9 L53.15 12.2 Q51.25 9.5 48.4 7.35 45.55 5.2 41.65 3.9 40.9 3.05 40.95 2.25 41.0 1.45 41.85 1.0 L44.45 0.85 Q46.6 1.3 49.0 2.75 51.4 4.25 53.75 6.5" fill="#dee22b" fill-rule="evenodd" stroke="none"/>
      <path d="M54.7 15.35 Q55.75 17.05 56.5 19.25 57.2 21.4 57.45 24.45 L51.8 24.65 46.0 25.35 Q43.05 25.85 40.15 26.9 37.25 28.0 34.4 29.85 33.25 30.65 32.75 30.55 32.25 30.5 32.25 29.9 L32.4 28.55 32.85 27.25 33.05 26.7 35.3 24.15 37.85 20.5 40.2 16.0 Q41.2 13.5 41.65 10.65 42.1 7.8 41.75 4.7 45.15 5.85 47.85 7.75 50.55 9.65 52.3 11.95 L54.7 15.35" fill="#dee22b" fill-rule="evenodd" stroke="none"/>
      <path d="M56.85 10.95 Q58.7 13.5 59.9 16.5 61.15 19.45 61.35 22.7 61.4 23.9 60.95 24.2 L60.0 24.45 59.15 24.2 60.05 23.65 Q60.4 23.1 60.4 21.9 60.4 20.7 59.85 18.8 58.75 15.35 56.65 12.15 54.5 8.95 51.9 6.5 49.25 4.05 46.6 2.85 44.0 1.6 41.85 2.1 41.9 1.45 42.65 1.35 L44.3 1.45 45.85 1.85 Q47.15 2.15 49.0 3.35 50.9 4.55 52.95 6.5 55.0 8.45 56.85 10.95" fill="#f0f299" fill-rule="evenodd" stroke="none"/>
      <path d="M53.15 12.15 Q51.25 9.5 48.45 7.4 45.65 5.3 41.85 4.0 L42.8 3.95 43.8 4.3 Q47.55 5.6 50.45 7.95 53.35 10.3 55.25 13.45 57.15 16.6 58.0 20.35 L58.35 22.85 58.2 23.95 Q58.0 21.7 57.25 19.65 L55.45 15.75 53.15 12.15" fill="#b3a11b" fill-rule="evenodd" stroke="none"/>
      <path d="M56.45 23.9 L49.5 24.15 Q45.9 24.45 42.3 25.65 38.7 26.85 35.1 29.2 L35.4 28.45 35.55 27.45 35.65 26.9 Q38.75 25.3 41.6 24.25 44.5 23.2 46.95 22.65 L51.15 21.85 53.65 21.6 Q54.35 21.6 54.6 20.85 54.85 20.1 54.7 18.9 L54.2 16.35 55.65 19.4 56.25 21.9 56.45 23.9" fill="#b3a11b" fill-rule="evenodd" stroke="none"/>
      <path d="M49.15 16.1 L45.65 19.4 41.4 22.45 37.4 25.15 Q35.6 26.3 34.6 27.1 L32.7 28.4 Q32.25 28.65 32.35 28.3 L32.9 27.45 33.65 26.45 34.05 25.95 34.85 25.25 36.85 23.0 39.35 19.15 Q40.65 16.85 41.7 13.7 42.75 10.55 43.2 6.5 L44.8 7.15 Q45.9 7.65 47.2 8.5 48.5 9.35 49.55 10.45 50.65 11.55 51.1 12.85 50.65 14.45 49.15 16.1" fill="#f0f299" fill-rule="evenodd" stroke="none"/>
      <path d="M46.85 2.25 Q47.8 2.55 48.35 3.05 48.9 3.5 48.8 3.9 48.65 4.25 47.95 4.3 L46.25 4.05 Q45.25 3.75 44.7 3.25 44.15 2.8 44.25 2.4 44.4 2.05 45.15 2.0 L46.85 2.25" fill="#f0f299" fill-rule="evenodd" stroke="none"/>
      <path d="M46.65 2.3 Q47.3 2.5 47.7 2.8 L48.0 3.4 Q47.9 3.65 47.4 3.7 L46.25 3.5 Q45.55 3.3 45.2 2.95 44.8 2.65 44.85 2.4 44.95 2.15 45.45 2.15 L46.65 2.3" fill="#ffffff" fill-rule="evenodd" stroke="none"/>
      <path d="M38.8 19.65 L39.95 18.35 Q40.5 17.95 40.85 18.1 41.2 18.3 41.1 19.05 L40.45 20.65 39.35 21.95 38.4 22.2 Q38.1 21.95 38.2 21.25 38.3 20.5 38.8 19.65" fill="#f0f299" fill-rule="evenodd" stroke="none"/>
      <path d="M36.2 28.2 L35.7 28.35 34.75 28.55 Q34.35 28.6 34.4 28.4 L35.6 27.7 38.9 26.15 Q40.75 25.35 42.75 24.8 L46.85 24.35 Q44.55 24.7 41.8 25.7 39.05 26.7 36.2 28.2" fill="#7f562d" fill-rule="evenodd" stroke="none"/>
      <path d="M41.8 15.0 Q41.05 17.55 40.05 19.5 L37.7 23.05 34.15 26.55 31.9 28.35 Q31.35 28.7 31.55 28.35 L32.3 27.35 33.35 26.2 33.9 25.6 36.0 23.7 38.4 20.85 Q39.65 19.05 40.95 16.15 42.2 13.25 43.4 8.75 L41.8 15.0" fill="#ffffff" fill-rule="evenodd" stroke="none"/>
      <path d="M37.1 29.05 Q37.5 30.5 37.4 31.7 37.35 32.9 36.85 33.35 L35.45 34.35 33.4 35.8 31.55 37.1 30.7 37.65 24.45 28.95 25.2 28.3 26.9 26.8 28.7 25.15 29.85 24.1 30.95 24.0 33.2 24.6 Q34.5 25.15 35.7 26.45 36.7 27.65 37.1 29.05" fill="#4e1d13" fill-rule="evenodd" stroke="none"/>
      <path d="M36.75 31.5 Q36.65 32.35 36.2 32.75 L35.0 33.65 33.1 35.05 31.4 36.3 30.65 36.85 25.5 29.2 26.2 28.6 27.7 27.25 29.35 25.8 30.35 24.85 31.3 24.8 Q32.1 24.85 33.15 25.35 34.25 25.85 35.2 27.1 36.1 28.35 36.5 29.5 L36.75 31.5" fill="#ffffff" fill-rule="evenodd" stroke="none"/>
      <path d="M36.6 31.75 Q36.55 32.55 36.1 32.95 L34.9 33.85 33.0 35.25 31.3 36.5 30.55 37.05 25.4 29.4 26.1 28.8 Q26.7 28.25 27.6 27.45 L29.25 26.0 30.25 25.05 31.15 25.0 Q31.9 25.05 32.9 25.6 33.9 26.15 34.85 27.4 35.8 28.65 36.2 29.75 36.6 30.9 36.6 31.75" fill="#cea546" fill-rule="evenodd" stroke="none"/>
      <path d="M34.85 27.4 L29.8 31.5 27.0 29.25 32.0 25.25 Q32.7 25.45 33.4 26.0 L34.85 27.4" fill="#efcf67" fill-rule="evenodd" stroke="none"/>
      <path d="M34.1 26.55 L29.0 30.65 27.75 29.5 32.7 25.55 34.1 26.55" fill="#ffffff" fill-rule="evenodd" stroke="none"/>
      <path d="M30.4 32.4 L35.7 28.55 36.45 30.35 36.55 31.85 31.65 35.55 30.4 32.4" fill="#ab771f" fill-rule="evenodd" stroke="none"/>
      <path d="M36.55 31.05 L31.35 34.85 30.65 33.1 36.0 29.3 36.55 31.05" fill="#794d26" fill-rule="evenodd" stroke="none"/>
      <path d="M31.4 31.6 Q32.6 33.6 32.6 36.1 32.6 38.55 31.4 40.55 30.2 42.55 28.25 43.75 26.25 44.9 23.75 44.95 21.3 44.9 19.3 43.75 17.3 42.55 16.1 40.55 14.95 38.55 14.9 36.1 14.95 33.6 16.1 31.6 17.3 29.65 19.3 28.45 21.3 27.25 23.75 27.25 26.25 27.25 28.25 28.45 30.2 29.65 31.4 31.6" fill="#781001" fill-rule="evenodd" stroke="none"/>
      <path d="M31.9 36.05 Q31.9 38.3 30.8 40.15 29.7 42.0 27.9 43.1 26.05 44.15 23.75 44.2 21.5 44.15 19.65 43.1 17.8 42.0 16.75 40.15 15.65 38.3 15.6 36.05 15.65 33.75 16.75 31.95 17.8 30.1 19.65 29.0 21.5 27.9 23.75 27.9 26.05 27.9 27.9 29.0 29.7 30.1 30.8 31.9 31.9 33.75 31.9 36.05" fill="#bf2909" fill-rule="evenodd" stroke="none"/>
      <path d="M27.3 30.05 Q25.75 29.15 23.8 29.1 21.95 29.15 20.45 29.95 18.9 30.8 17.95 32.25 16.95 33.7 16.8 35.5 L16.75 35.2 Q16.8 33.25 17.75 31.65 18.65 30.05 20.25 29.1 21.85 28.15 23.85 28.15 25.8 28.15 27.4 29.1 29.0 30.05 29.95 31.65 30.9 33.25 30.9 35.2 L30.85 35.9 Q30.75 34.0 29.8 32.45 28.85 30.95 27.3 30.05" fill="#ec461b" fill-rule="evenodd" stroke="none"/>
      <path d="M22.05 30.8 Q22.1 29.9 22.9 29.35 23.7 28.75 24.9 28.75 26.1 28.75 26.9 29.35 27.75 29.9 27.75 30.8 27.75 31.65 26.9 32.25 26.1 32.8 24.9 32.85 23.7 32.8 22.9 32.25 22.1 31.65 22.05 30.8" fill="#ec461b" fill-rule="evenodd" stroke="none"/>
      <path d="M27.45 43.7 Q25.6 44.85 23.45 45.7 L19.3 47.1 15.85 47.55 Q14.35 47.5 13.8 46.8 13.15 45.85 13.05 44.5 13.0 43.15 13.3 41.7 13.6 40.25 14.15 38.95 L15.25 36.9 Q15.8 36.1 16.85 35.15 L18.95 33.4 20.8 32.05 Q21.55 31.5 21.6 31.5 L22.2 33.25 Q22.45 34.1 22.35 35.0 22.25 35.95 21.5 37.1 L20.45 38.7 19.8 40.3 Q19.55 41.05 19.6 41.25 19.65 41.4 20.5 41.55 L22.65 41.8 25.4 41.9 28.25 41.8 30.55 41.4 Q29.3 42.6 27.45 43.7" fill="#781001" fill-rule="evenodd" stroke="none"/>
      <path d="M32.2 40.05 L33.35 40.4 34.6 41.35 Q35.2 41.95 35.45 43.1 35.7 44.6 35.3 45.75 34.85 46.95 34.0 47.8 33.1 48.7 32.0 49.25 31.6 50.65 30.0 52.0 L26.15 55.0 23.45 56.55 19.6 58.3 15.25 59.9 11.2 60.95 8.2 61.15 Q7.05 60.9 6.4 59.9 5.75 58.85 5.4 57.35 L5.0 54.3 4.9 51.5 4.9 49.7 Q4.9 48.15 5.5 46.45 L7.2 43.2 Q8.3 41.6 9.7 40.35 11.3 38.85 12.45 36.95 13.65 35.0 14.45 32.95 L15.9 28.8 Q16.05 28.35 16.7 28.05 L18.15 27.85 19.8 28.35 Q20.6 28.85 21.15 29.85 21.8 31.3 21.8 32.6 21.75 33.95 21.2 35.15 L19.7 37.4 Q18.8 38.4 18.3 39.4 L17.7 41.0 Q17.6 41.7 17.9 41.8 L21.6 42.35 25.7 42.15 29.05 41.65 30.7 41.4 31.4 40.45 31.65 40.0 32.2 40.05" fill="#1d3f60" fill-rule="evenodd" stroke="none"/>
      <path d="M32.45 40.65 Q33.15 40.85 33.8 41.4 34.45 42.0 34.7 43.2 34.95 44.65 34.55 45.75 L33.2 47.65 31.25 49.0 30.4 49.4 29.45 49.8 28.85 50.2 28.4 50.8 Q28.25 51.15 28.5 50.95 29.2 50.35 29.9 50.1 L31.0 49.7 29.1 51.9 25.85 54.35 23.3 55.85 19.55 57.6 15.35 59.15 11.45 60.2 8.55 60.4 Q7.45 60.2 6.8 59.2 6.15 58.25 5.85 56.85 L5.5 53.95 5.4 51.3 5.4 49.55 Q5.4 48.05 6.0 46.5 6.65 44.95 7.7 43.45 L10.1 40.8 Q11.7 39.35 12.9 37.45 L15.0 33.5 16.45 29.45 Q16.7 28.85 17.5 28.55 L19.2 28.65 Q20.15 29.0 20.85 30.35 21.35 31.5 21.25 32.75 21.15 34.0 20.55 35.2 L19.1 37.4 Q18.2 38.4 17.75 39.5 17.3 40.6 17.25 41.4 17.15 42.2 17.45 42.3 L20.3 42.8 23.55 42.8 26.7 42.45 29.15 42.1 30.3 41.9 30.9 41.2 31.4 40.5 32.45 40.65" fill="#ffffff" fill-rule="evenodd" stroke="none"/>
      <path d="M31.25 48.95 L30.4 49.35 29.45 49.75 28.85 50.15 28.4 50.75 Q28.25 51.05 28.5 50.9 29.2 50.3 29.9 50.05 L31.0 49.65 29.1 51.85 25.85 54.3 23.3 55.8 19.55 57.55 15.35 59.1 11.45 60.15 8.55 60.35 8.45 60.35 5.55 54.6 5.4 51.5 5.4 49.5 Q5.4 48.15 5.9 46.7 6.45 45.3 7.35 43.95 6.7 45.65 6.75 47.1 6.8 48.5 7.9 50.15 8.65 51.25 10.15 52.1 11.6 52.9 13.75 53.25 15.9 53.6 18.6 53.15 21.3 52.75 24.5 51.4 L26.05 50.3 27.7 48.85 Q28.6 48.1 29.75 47.65 L33.2 45.75 Q34.45 44.6 34.75 43.3 34.95 44.7 34.5 45.8 34.05 46.85 33.2 47.65 L31.25 48.95" fill="#b8d2ca" fill-rule="evenodd" stroke="none"/>
      <path d="M20.7 29.9 L20.9 30.25 Q21.4 31.35 21.3 32.6 21.2 33.85 20.65 35.1 L19.15 37.3 18.0 39.05 Q18.3 37.95 19.15 36.4 L20.6 33.1 Q21.05 31.55 20.7 29.9" fill="#b8d2ca" fill-rule="evenodd" stroke="none"/>
      <path d="M10.75 53.25 Q11.65 55.3 11.65 57.25 11.6 59.2 10.8 60.6 10.0 62.05 8.65 62.55 L5.75 62.85 Q4.3 62.6 3.05 61.4 1.8 60.2 0.9 57.9 0.3 56.3 0.1 54.65 -0.1 53.05 0.1 51.7 0.3 50.35 0.95 49.55 1.7 48.6 2.85 48.25 L5.25 48.15 Q6.5 48.45 7.65 49.35 9.8 51.15 10.75 53.25" fill="#1d3f60" fill-rule="evenodd" stroke="none"/>
      <path d="M7.2 49.95 Q9.15 51.6 10.05 53.5 10.95 55.4 10.95 57.15 11.0 58.95 10.3 60.25 9.6 61.55 8.4 62.0 L4.45 61.8 Q2.55 60.9 1.35 57.75 0.8 56.25 0.6 54.8 0.4 53.3 0.6 52.1 0.8 50.85 1.35 50.1 2.05 49.2 3.05 48.9 L5.1 48.85 Q6.15 49.1 7.2 49.95" fill="#ffffff" fill-rule="evenodd" stroke="none"/>
      <path d="M7.55 56.95 Q8.1 57.5 8.8 57.8 L10.1 57.85 Q10.65 57.6 10.95 56.55 11.1 58.55 10.4 60.0 9.7 61.45 8.4 61.95 L4.45 61.8 Q2.55 60.85 1.35 57.75 0.7 56.0 0.55 54.3 0.4 52.65 0.75 51.35 L1.45 51.25 2.65 51.3 Q3.55 51.4 4.4 52.15 L5.85 53.95 6.8 55.85 7.55 56.95" fill="#b8d2ca" fill-rule="evenodd" stroke="none"/>
      <path d="M2.4 52.35 Q2.4 51.9 2.75 51.95 3.1 52.0 3.55 52.4 L4.5 53.8 5.35 55.95 Q5.7 57.15 5.65 58.25 5.6 59.35 4.95 60.0 4.35 60.65 2.95 60.55 2.2 59.65 2.0 58.3 1.8 56.95 1.9 55.6 L2.2 53.3 2.4 52.35" fill="#1d3f60" fill-rule="evenodd" stroke="none"/>
      <path d="M10.75 53.25 Q11.65 55.3 11.65 57.25 11.6 59.2 10.8 60.6 10.0 62.05 8.65 62.55 L5.75 62.85 Q4.3 62.6 3.05 61.4 1.8 60.2 0.9 57.9 0.3 56.3 0.1 54.65 -0.1 53.05 0.1 51.7 0.3 50.35 0.95 49.55 1.7 48.6 2.85 48.25 L5.25 48.15 Q6.5 48.45 7.65 49.35 9.8 51.15 10.75 53.25" fill="#1d3f60" fill-rule="evenodd" stroke="none"/>
      <path d="M7.2 49.95 Q9.15 51.6 10.05 53.5 10.95 55.4 10.95 57.15 11.0 58.95 10.3 60.25 9.6 61.55 8.4 62.0 L4.45 61.8 Q2.55 60.9 1.35 57.75 0.8 56.25 0.6 54.8 0.4 53.3 0.6 52.1 0.8 50.85 1.35 50.1 2.05 49.2 3.05 48.9 L5.1 48.85 Q6.15 49.1 7.2 49.95" fill="#ffffff" fill-rule="evenodd" stroke="none"/>
      <path d="M7.55 56.95 Q8.1 57.5 8.8 57.8 L10.1 57.85 Q10.65 57.6 10.95 56.55 11.1 58.55 10.4 60.0 9.7 61.45 8.4 61.95 L4.45 61.8 Q2.55 60.85 1.35 57.75 0.7 56.0 0.55 54.3 0.4 52.65 0.75 51.35 L1.45 51.25 2.65 51.3 Q3.55 51.4 4.4 52.15 L5.85 53.95 6.8 55.85 7.55 56.95" fill="#b8d2ca" fill-rule="evenodd" stroke="none"/>
      <path d="M2.4 52.35 Q2.4 51.9 2.75 51.95 3.1 52.0 3.55 52.4 L4.5 53.8 5.35 55.95 Q5.7 57.15 5.65 58.25 5.6 59.35 4.95 60.0 4.35 60.65 2.95 60.55 2.2 59.65 2.0 58.3 1.8 56.95 1.9 55.6 L2.2 53.3 2.4 52.35" fill="#1d3f60" fill-rule="evenodd" stroke="none"/>
    </g>
  </defs>
</svg>
