<?xml version="1.0" encoding="UTF-8" standalone="no"?>
<svg xmlns:xlink="http://www.w3.org/1999/xlink" height="72.15px" width="71.15px" xmlns="http://www.w3.org/2000/svg">
  <g transform="matrix(1.0, 0.0, 0.0, 1.0, 8.05, 0.65)">
    <use data-characterId="346" height="63.95" transform="matrix(0.9715, 0.0901, 0.0829, 0.9458, -5.05, 1.7)" width="63.75" xlink:href="#sprite0"/>
  </g>
  <defs>
    <g id="sprite0" transform="matrix(1.0, 0.0, 0.0, 1.0, 0.0, 0.0)">
      <use data-characterId="345" height="63.95" transform="matrix(1.0, 0.0, 0.0, 1.0, 0.0, 0.0)" width="63.75" xlink:href="#shape0"/>
    </g>
    <g id="shape0" transform="matrix(1.0, 0.0, 0.0, 1.0, 0.0, 0.0)">
      <path d="M22.85 30.8 L23.15 30.95 23.0 30.7 22.85 30.8 M42.05 0.4 L45.25 0.15 Q47.75 0.6 50.35 2.2 52.95 3.75 55.4 6.15 57.8 8.5 59.7 11.4 61.65 14.3 62.7 17.4 63.8 20.5 63.75 23.55 63.7 24.75 63.2 25.6 62.75 26.45 61.9 26.8 L60.15 27.0 Q59.25 26.8 58.45 26.2 L57.95 26.25 57.35 26.25 57.05 26.25 50.85 26.55 Q47.7 26.75 44.55 27.5 41.4 28.2 38.25 29.75 L38.55 31.7 38.4 32.95 37.85 33.85 36.85 34.6 35.3 35.75 33.6 37.0 Q33.5 38.6 32.9 40.15 33.6 40.25 34.3 40.65 L35.65 41.7 Q36.25 42.4 36.45 43.55 L36.55 44.7 Q36.55 46.35 35.65 47.75 34.7 49.15 32.95 50.15 32.5 51.45 31.05 52.75 L27.65 55.45 26.95 55.95 24.2 57.55 20.1 59.4 15.55 61.05 11.3 62.05 Q10.45 63.15 9.35 63.55 L5.65 63.75 Q4.05 63.25 2.85 61.9 L3.0 61.05 2.45 59.95 Q1.85 56.7 0.45 53.6 L0.0 52.4 0.1 52.4 Q0.3 50.75 1.05 49.8 1.8 48.85 2.85 48.45 L5.2 48.15 5.25 47.9 5.55 48.55 5.95 48.75 5.85 48.55 5.5 48.2 5.3 47.5 Q6.15 45.75 7.7 44.15 9.3 42.45 11.35 41.25 13.2 40.1 14.7 38.55 L16.25 36.75 Q18.1 31.1 20.75 29.6 23.4 28.05 25.1 27.45 L26.85 27.5 27.3 27.15 27.4 27.1 29.35 25.3 30.55 24.2 Q30.9 23.85 31.95 23.95 32.95 24.05 34.15 24.7 L36.15 22.1 38.45 18.2 Q39.6 15.9 40.4 13.2 41.2 10.5 41.2 7.45 L40.95 4.4 Q40.25 3.7 40.2 2.85 L40.4 1.95 Q40.8 1.0 42.05 0.4" fill="#ffffff" fill-rule="evenodd" stroke="none"/>
      <path d="M61.6 24.75 Q62.05 24.4 62.0 23.2 61.8 19.95 60.55 17.0 59.35 14.05 57.5 11.5 55.65 8.95 53.6 7.0 L49.65 3.85 Q47.8 2.65 46.5 2.35 L44.95 2.0 43.3 1.9 Q42.55 1.95 42.5 2.65 43.75 2.35 45.2 2.65 L44.9 2.95 Q44.8 3.3 45.35 3.8 L46.9 4.6 48.6 4.85 Q49.15 4.8 49.4 4.55 L52.55 7.05 Q55.15 9.5 57.3 12.7 59.4 15.9 60.5 19.35 61.05 21.2 61.05 22.4 61.05 23.6 60.7 24.2 L59.8 24.75 60.65 24.95 Q61.2 25.05 61.6 24.75 M42.5 4.5 L42.3 4.45 Q41.55 3.6 41.6 2.75 41.65 1.95 42.5 1.5 L45.1 1.4 Q47.25 1.8 49.65 3.3 52.05 4.8 54.4 7.05 56.7 9.3 58.6 12.05 60.5 14.75 61.55 17.7 62.65 20.65 62.6 23.5 62.5 25.0 61.8 25.5 61.1 26.0 60.3 25.8 59.45 25.6 58.9 25.0 L58.85 24.45 59.0 23.4 58.65 20.85 Q57.8 17.1 55.9 13.95 54.0 10.8 51.1 8.45 48.2 6.1 44.45 4.8 L43.45 4.45 42.5 4.5 M35.35 25.4 L35.95 24.65 38.5 21.05 40.85 16.5 Q41.85 14.0 42.3 11.15 42.75 8.35 42.4 5.2 45.8 6.4 48.5 8.3 51.2 10.2 52.95 12.45 L55.35 15.85 57.15 19.75 Q57.85 21.95 58.1 25.0 L52.45 25.2 46.65 25.85 Q43.7 26.35 40.8 27.45 37.9 28.5 35.05 30.4 33.9 31.15 33.4 31.1 32.9 31.0 32.9 30.4 L33.05 29.1 33.1 29.05 33.35 28.95 35.25 27.6 38.05 25.65 42.05 23.0 46.3 19.9 Q48.35 18.25 49.8 16.6 51.3 14.95 51.75 13.4 51.3 12.05 50.2 10.95 L47.85 9.0 45.45 7.65 43.85 7.0 Q43.4 11.05 42.35 14.2 41.3 17.4 40.0 19.7 L38.9 21.55 36.65 24.2 35.35 25.4 M36.05 28.95 L36.05 29.0 35.75 29.7 Q39.35 27.35 42.95 26.2 46.55 25.0 50.15 24.65 L57.1 24.45 56.9 22.4 56.3 19.9 54.85 16.85 55.35 19.45 Q55.5 20.65 55.25 21.35 55.0 22.1 54.3 22.15 L51.8 22.35 47.6 23.15 42.25 24.75 Q39.4 25.8 36.3 27.45 L36.2 27.95 36.15 28.25 35.05 28.95 35.4 29.05 36.05 28.95" fill="#dee22b" fill-rule="evenodd" stroke="none"/>
      <path d="M61.6 24.75 Q61.2 25.05 60.65 24.95 L59.8 24.75 60.7 24.2 Q61.05 23.6 61.05 22.4 61.05 21.2 60.5 19.35 59.4 15.9 57.3 12.7 55.15 9.5 52.55 7.05 L49.4 4.55 Q49.15 4.8 48.6 4.85 L46.9 4.6 45.35 3.8 Q44.8 3.3 44.9 2.95 L45.2 2.65 Q43.75 2.35 42.5 2.65 42.55 1.95 43.3 1.9 L44.95 2.0 46.5 2.35 Q47.8 2.65 49.65 3.85 L53.6 7.0 Q55.65 8.95 57.5 11.5 59.35 14.05 60.55 17.0 61.8 19.95 62.0 23.2 62.05 24.4 61.6 24.75 M33.1 29.05 L33.0 28.85 33.3 28.3 34.8 27.05 38.35 23.6 39.6 21.95 40.25 21.8 41.0 20.85 41.45 19.75 41.3 19.1 41.15 19.1 42.45 15.5 44.05 9.25 Q42.85 13.75 41.6 16.7 40.3 19.55 39.05 21.35 L38.9 21.55 40.0 19.7 Q41.3 17.4 42.35 14.2 43.4 11.05 43.85 7.0 L45.45 7.65 47.85 9.0 50.2 10.95 Q51.3 12.05 51.75 13.4 51.3 14.95 49.8 16.6 48.35 18.25 46.3 19.9 L42.05 23.0 38.05 25.65 35.25 27.6 33.35 28.95 33.1 29.05 M47.3 2.8 L46.1 2.65 Q45.6 2.65 45.5 2.9 45.45 3.2 45.85 3.5 L46.9 4.05 48.05 4.2 Q48.55 4.15 48.65 3.9 48.75 3.65 48.35 3.35 L47.3 2.8" fill="#f0f299" fill-rule="evenodd" stroke="none"/>
      <path d="M58.85 24.45 L58.9 25.0 Q59.45 25.6 60.3 25.8 61.1 26.0 61.8 25.5 62.5 25.0 62.6 23.5 62.65 20.65 61.55 17.7 60.5 14.75 58.6 12.05 56.7 9.3 54.4 7.05 52.05 4.8 49.65 3.3 47.25 1.8 45.1 1.4 L42.5 1.5 Q41.65 1.95 41.6 2.75 41.55 3.6 42.3 4.45 L42.5 4.5 Q46.25 5.8 49.05 7.9 L49.1 7.95 Q51.9 10.0 53.8 12.7 L55.85 15.8 56.1 16.25 57.9 20.2 Q58.65 22.25 58.85 24.5 L58.85 24.45 M32.45 28.55 L32.6 27.7 32.8 27.0 34.8 24.95 37.45 21.45 40.0 16.75 Q41.15 14.1 41.65 11.1 42.15 8.0 41.65 4.7 40.6 3.55 40.85 2.5 41.05 1.45 42.25 0.85 L45.3 0.6 Q47.65 1.05 50.2 2.6 52.75 4.15 55.1 6.5 57.5 8.8 59.4 11.65 61.3 14.5 62.35 17.5 63.45 20.55 63.35 23.5 63.3 25.1 62.5 25.85 61.75 26.6 60.7 26.55 59.65 26.45 58.7 25.7 L52.8 25.9 46.85 26.5 Q43.85 27.0 40.85 28.1 37.8 29.2 34.8 31.25 33.55 32.0 33.0 31.85 32.45 31.65 32.3 30.95 L32.35 29.25 32.4 28.95 32.55 28.85 33.3 28.3 33.0 28.85 33.1 29.05 33.05 29.1 32.9 30.4 Q32.9 31.0 33.4 31.1 33.9 31.15 35.05 30.4 37.9 28.5 40.8 27.45 43.7 26.35 46.65 25.85 L52.45 25.2 58.1 25.0 Q57.85 21.95 57.15 19.75 L55.35 15.85 52.95 12.45 Q51.2 10.2 48.5 8.3 45.8 6.4 42.4 5.2 42.75 8.35 42.3 11.15 41.85 14.0 40.85 16.5 L38.5 21.05 35.95 24.65 35.35 25.4 34.55 26.15 34.0 26.7 32.95 27.9 32.45 28.55" fill="#644d0d" fill-rule="evenodd" stroke="none"/>
      <path d="M42.5 4.5 L43.45 4.45 44.45 4.8 Q48.2 6.1 51.1 8.45 54.0 10.8 55.9 13.95 57.8 17.1 58.65 20.85 L59.0 23.4 58.85 24.45 58.85 24.5 Q58.65 22.25 57.9 20.2 L56.1 16.25 55.85 15.8 53.8 12.7 Q51.9 10.0 49.1 7.95 L49.05 7.9 Q46.25 5.8 42.5 4.5 M36.15 28.25 L36.2 27.95 36.3 27.45 Q39.4 25.8 42.25 24.75 L47.6 23.15 51.8 22.35 54.3 22.15 Q55.0 22.1 55.25 21.35 55.5 20.65 55.35 19.45 L54.85 16.85 56.3 19.9 56.9 22.4 57.1 24.45 50.15 24.65 Q46.55 25.0 42.95 26.2 39.35 27.35 35.75 29.7 L36.05 29.0 36.05 28.95 36.35 28.85 36.85 28.75 Q39.7 27.25 42.45 26.25 45.2 25.25 47.5 24.85 L43.4 25.35 Q41.4 25.85 39.55 26.65 L36.25 28.25 36.15 28.25" fill="#b3a11b" fill-rule="evenodd" stroke="none"/>
      <path d="M32.4 28.95 Q32.05 29.15 32.2 28.9 L32.45 28.55 32.95 27.9 34.0 26.7 34.55 26.15 35.35 25.4 36.65 24.2 38.9 21.55 39.05 21.35 Q40.3 19.55 41.6 16.7 42.85 13.75 44.05 9.25 L42.45 15.5 41.15 19.1 41.3 19.1 41.45 19.75 41.0 20.85 40.25 21.8 39.6 21.95 38.35 23.6 34.8 27.05 33.3 28.3 32.55 28.85 32.4 28.95 M47.3 2.8 L48.35 3.35 Q48.75 3.65 48.65 3.9 48.55 4.15 48.05 4.2 L46.9 4.05 45.85 3.5 Q45.45 3.2 45.5 2.9 45.6 2.65 46.1 2.65 L47.3 2.8" fill="#ffffff" fill-rule="evenodd" stroke="none"/>
      <path d="M36.05 28.95 L35.4 29.05 35.05 28.95 36.15 28.25 36.25 28.25 39.55 26.65 Q41.4 25.85 43.4 25.35 L47.5 24.85 Q45.2 25.25 42.45 26.25 39.7 27.25 36.85 28.75 L36.35 28.85 36.05 28.95" fill="#7f562d" fill-rule="evenodd" stroke="none"/>
      <path d="M31.6 24.5 L33.85 25.15 Q35.15 25.65 36.35 27.0 37.35 28.15 37.75 29.6 38.15 31.0 38.05 32.25 38.0 33.4 37.5 33.85 L36.1 34.85 34.05 36.3 32.2 37.6 Q31.4 38.1 31.35 38.15 L25.1 29.5 25.85 28.85 27.55 27.3 29.35 25.65 30.5 24.6 31.6 24.5 M37.05 33.05 L37.4 32.05 37.15 30.05 Q36.75 28.85 35.85 27.6 34.9 26.4 33.8 25.85 L31.95 25.3 31.0 25.35 30.0 26.3 28.35 27.8 26.85 29.15 26.15 29.75 26.2 29.8 26.05 29.95 31.2 37.6 Q31.25 37.55 31.95 37.05 L33.65 35.8 35.55 34.4 36.75 33.45 37.05 33.05" fill="#4e1d13" fill-rule="evenodd" stroke="none"/>
      <path d="M18.05 45.5 Q17.4 45.5 17.15 44.9 L17.0 44.3 Q17.0 43.35 18.0 42.0 19.15 40.5 20.6 39.95 24.35 38.55 24.35 36.1 24.35 34.95 23.45 34.05 22.55 33.15 22.55 32.65 22.55 31.55 23.8 31.55 26.5 31.55 26.6 36.15 26.6 39.35 23.65 41.2 L20.0 43.25 Q19.5 45.5 18.05 45.5" fill="#781001" fill-rule="evenodd" stroke="none"/>
      <path d="M37.25 31.95 L37.1 30.9 36.35 29.05 36.3 29.1 35.5 27.9 34.85 27.15 33.55 26.15 Q32.55 25.6 31.8 25.5 L30.9 25.55 29.9 26.5 28.25 28.0 26.75 29.35 26.2 29.8 26.15 29.75 26.85 29.15 28.35 27.8 30.0 26.3 31.0 25.35 31.95 25.3 33.8 25.85 Q34.9 26.4 35.85 27.6 36.75 28.85 37.15 30.05 L37.4 32.05 37.05 33.05 37.25 32.25 37.25 31.95" fill="#ffffff" fill-rule="evenodd" stroke="none"/>
      <path d="M36.3 29.1 L36.35 29.05 37.1 30.9 37.25 31.95 37.2 32.35 32.3 36.05 32.05 35.35 37.2 31.6 36.65 29.8 31.35 33.6 31.05 32.9 36.3 29.1" fill="#ab771f" fill-rule="evenodd" stroke="none"/>
      <path d="M37.25 31.95 L37.25 32.25 37.05 33.05 36.75 33.45 35.55 34.4 33.65 35.8 31.95 37.05 Q31.25 37.55 31.2 37.6 L26.05 29.95 26.2 29.8 26.75 29.35 28.25 28.0 29.9 26.5 30.9 25.55 31.8 25.5 Q32.55 25.6 33.55 26.15 L34.85 27.15 34.05 26.5 Q33.35 26.0 32.65 25.75 L27.65 29.8 30.45 32.05 35.5 27.9 36.3 29.1 31.05 32.9 31.35 33.6 31.3 33.65 32.0 35.4 32.05 35.35 32.3 36.05 37.2 32.35 37.25 31.95" fill="#cea546" fill-rule="evenodd" stroke="none"/>
      <path d="M34.85 27.15 L35.5 27.9 30.45 32.05 27.65 29.8 32.65 25.75 Q33.35 26.0 34.05 26.5 L34.85 27.15" fill="#efcf67" fill-rule="evenodd" stroke="none"/>
      <path d="M31.35 33.6 L36.65 29.8 37.2 31.6 32.05 35.35 32.0 35.4 31.3 33.65 31.35 33.6" fill="#794d26" fill-rule="evenodd" stroke="none"/>
      <path d="M18.35 36.85 Q18.6 35.1 19.6 33.6 20.45 32.05 21.65 31.05 22.75 29.85 24.65 29.25 26.45 28.65 28.05 29.6 29.5 30.35 30.55 32.05 31.5 33.65 31.45 35.65 L31.4 36.25 Q31.2 34.3 30.4 32.9 29.45 31.45 28.25 30.75 L28.35 31.25 Q28.25 32.1 27.5 32.7 L26.15 33.45 25.85 32.8 Q25.0 31.25 23.55 31.0 L23.8 30.7 24.0 30.4 22.9 30.95 Q21.85 31.0 21.75 31.85 20.5 32.7 19.65 34.15 18.85 35.3 18.4 36.85 L18.35 36.85" fill="#ec461b" fill-rule="evenodd" stroke="none"/>
      <path d="M26.15 33.45 L26.6 35.65 Q26.6 38.4 24.85 40.4 23.45 41.9 21.35 42.5 L21.35 42.55 23.15 42.55 25.85 42.5 28.75 42.3 30.2 42.1 31.35 40.6 Q32.4 38.65 32.45 36.45 32.35 34.2 31.4 32.35 30.25 30.5 28.5 29.45 26.65 28.35 24.55 29.05 22.5 29.75 21.2 31.05 19.8 32.2 18.75 33.95 17.6 35.55 17.25 37.7 L17.2 38.05 Q17.6 37.4 18.35 36.9 L18.35 36.85 18.4 36.85 18.45 36.85 20.35 35.15 21.9 33.65 22.45 33.1 Q21.7 32.45 21.7 32.05 L21.75 31.85 Q21.85 31.0 22.9 30.95 L23.0 30.95 23.55 31.0 Q25.0 31.25 25.85 32.8 L26.15 33.45 M14.4 47.25 Q13.6 46.25 13.8 45.2 13.75 43.9 14.3 42.8 14.8 41.55 15.45 40.5 L16.5 38.95 16.6 37.75 Q17.05 35.5 18.25 33.65 19.45 31.8 21.0 30.55 22.35 29.2 24.5 28.4 26.8 27.55 28.85 28.85 30.75 30.05 32.0 32.0 33.2 34.05 33.15 36.5 33.15 39.05 31.95 41.0 30.65 42.9 28.75 44.15 L26.05 45.2 23.95 46.2 19.85 47.6 16.45 48.1 Q14.85 47.9 14.4 47.25 M23.0 34.55 L23.05 36.2 22.25 38.4 Q21.55 39.0 21.2 39.95 L21.05 40.25 Q24.35 38.55 24.35 35.7 24.35 34.6 23.05 33.6 L22.7 33.35 23.0 34.55" fill="#781001" fill-rule="evenodd" stroke="none"/>
      <path d="M18.35 36.85 L18.35 36.9 Q17.6 37.4 17.2 38.05 L17.25 37.7 Q17.6 35.55 18.75 33.95 19.8 32.2 21.2 31.05 22.5 29.75 24.55 29.05 26.65 28.35 28.5 29.45 30.25 30.5 31.4 32.35 32.35 34.2 32.45 36.45 32.4 38.65 31.35 40.6 L30.2 42.1 28.75 42.3 25.85 42.5 23.15 42.55 21.35 42.55 21.35 42.5 Q23.45 41.9 24.85 40.4 26.6 38.4 26.6 35.65 L26.15 33.45 27.5 32.7 Q28.25 32.1 28.35 31.25 L28.25 30.75 Q29.45 31.45 30.4 32.9 31.2 34.3 31.4 36.25 L31.45 35.65 Q31.5 33.65 30.55 32.05 29.5 30.35 28.05 29.6 26.45 28.65 24.65 29.25 22.75 29.85 21.65 31.05 20.45 32.05 19.6 33.6 18.6 35.1 18.35 36.85 M23.55 31.0 L23.0 30.95 22.9 30.95 24.0 30.4 23.8 30.7 23.55 31.0 M21.75 31.85 L21.7 32.05 Q21.7 32.45 22.45 33.1 L21.9 33.65 20.35 35.15 18.45 36.85 18.4 36.85 Q18.85 35.3 19.65 34.15 20.5 32.7 21.75 31.85 M23.0 34.55 L22.7 33.35 23.05 33.6 Q24.35 34.6 24.35 35.7 24.35 38.55 21.05 40.25 L21.2 39.95 Q21.55 39.0 22.25 38.4 L23.05 36.2 23.0 34.55" fill="#bf2909" fill-rule="evenodd" stroke="none"/>
      <path d="M5.95 49.35 L5.85 49.4 5.45 49.25 Q5.8 48.0 6.6 46.8 7.6 45.3 9.0 44.0 10.45 42.7 12.05 41.8 L15.55 39.1 18.4 35.65 20.7 31.95 Q21.0 31.55 21.65 31.4 L23.1 31.5 Q23.9 31.75 24.6 32.4 25.3 33.05 25.6 34.15 25.9 35.7 25.6 37.0 L24.45 39.35 22.5 41.15 20.65 42.8 19.7 44.25 19.6 44.7 19.6 44.9 Q20.8 45.55 22.35 45.95 L21.75 46.35 21.6 46.3 19.25 45.4 19.2 45.5 19.15 45.45 19.05 45.3 19.05 45.15 19.15 44.5 Q19.4 43.7 20.1 42.8 L20.35 42.5 20.65 42.15 21.2 41.55 21.85 41.05 21.9 41.05 22.9 40.2 23.8 39.25 24.2 38.7 25.0 37.0 25.05 36.95 25.25 35.2 25.2 34.55 25.1 34.3 25.05 34.15 Q24.7 33.0 24.0 32.55 23.15 31.95 22.3 32.1 21.45 32.15 21.1 32.7 L18.75 36.3 15.85 39.7 Q14.25 41.25 12.4 42.3 10.8 43.2 9.45 44.35 L8.9 44.9 8.95 44.75 Q7.75 45.85 6.95 47.15 L6.55 47.75 5.95 49.35 M21.1 43.35 L21.6 42.85 22.25 42.9 26.35 42.7 29.7 42.2 31.35 41.9 32.05 41.0 32.3 40.55 32.85 40.6 34.0 40.95 35.25 41.85 Q35.85 42.5 36.1 43.6 36.35 45.1 35.95 46.3 35.5 47.5 34.65 48.35 33.75 49.2 32.65 49.8 32.25 51.15 30.65 52.5 L26.8 55.55 24.1 57.1 20.25 58.85 15.9 60.4 11.85 61.45 8.85 61.65 Q7.7 61.4 7.05 60.4 6.4 59.35 6.05 57.9 L5.65 54.85 5.55 52.05 5.55 50.2 5.6 49.65 6.0 49.7 6.1 49.6 6.05 50.0 6.05 50.05 6.05 51.8 6.05 52.05 6.05 52.65 6.15 54.5 6.5 57.35 Q6.8 58.75 7.45 59.75 8.1 60.7 9.2 60.95 L12.1 60.75 16.0 59.7 20.2 58.1 23.95 56.4 26.5 54.85 29.75 52.4 Q31.05 51.3 31.65 50.25 L31.6 50.25 31.65 50.2 30.55 50.55 Q29.85 50.8 29.15 51.4 L29.0 51.45 29.05 51.35 29.5 50.7 30.1 50.35 31.05 49.95 31.9 49.55 33.85 48.2 35.2 46.3 35.35 45.7 35.4 45.45 35.4 43.85 35.35 43.75 Q35.1 42.5 34.45 41.95 33.8 41.35 33.1 41.2 L32.05 41.05 31.55 41.75 30.95 42.4 29.8 42.6 27.35 43.0 24.2 43.3 21.1 43.35" fill="#1d3f60" fill-rule="evenodd" stroke="none"/>
      <path d="M8.9 44.9 L9.45 44.35 Q10.8 43.2 12.4 42.3 14.25 41.25 15.85 39.7 L18.75 36.3 21.1 32.7 Q21.45 32.15 22.3 32.1 23.15 31.95 24.0 32.55 24.7 33.0 25.05 34.15 25.0 35.85 24.25 37.25 L22.1 40.15 Q20.85 41.5 20.35 42.5 L20.1 42.8 Q19.4 43.7 19.15 44.5 L19.05 45.15 19.05 45.3 19.15 45.45 19.2 45.5 19.25 45.4 21.6 46.3 21.75 46.35 22.35 45.95 Q20.8 45.55 19.6 44.9 L19.6 44.7 21.1 43.35 24.2 43.3 27.35 43.0 29.8 42.6 30.95 42.4 31.55 41.75 32.05 41.05 33.1 41.2 Q33.8 41.35 34.45 41.95 35.1 42.5 35.35 43.75 L35.4 43.85 Q35.1 45.1 33.85 46.25 32.55 47.4 30.4 48.15 29.25 48.6 28.35 49.35 L26.7 50.8 25.15 51.9 Q21.95 53.3 19.25 53.7 16.55 54.1 14.4 53.75 12.25 53.4 10.8 52.6 9.3 51.75 8.55 50.65 L8.35 50.3 7.7 50.1 7.6 49.9 7.55 49.5 7.7 49.45 7.7 49.4 Q7.5 48.45 7.7 47.7 7.9 46.3 8.9 44.9 M24.2 38.7 L23.8 39.25 22.9 40.2 23.8 39.2 24.2 38.7 M7.7 49.45 L7.8 49.5 8.0 49.55 7.7 49.45 M8.65 49.75 L8.7 49.75 8.1 49.55 8.65 49.75 M35.35 45.7 L35.2 46.3 33.85 48.2 31.9 49.55 31.05 49.95 30.1 50.35 29.5 50.7 29.05 51.35 29.0 51.45 29.05 51.3 29.5 50.65 30.1 50.3 31.05 49.9 31.9 49.5 33.85 48.15 Q34.7 47.4 35.15 46.3 L35.35 45.7 M31.6 50.25 L31.65 50.25 Q31.05 51.3 29.75 52.4 L26.5 54.85 23.95 56.4 20.2 58.1 16.0 59.7 12.1 60.75 9.2 60.95 Q8.1 60.7 7.45 59.75 6.8 58.75 6.5 57.35 L6.15 54.5 6.2 55.1 9.1 60.85 9.2 60.9 12.1 60.7 16.0 59.65 20.2 58.05 23.95 56.35 26.5 54.8 29.75 52.35 31.6 50.25" fill="#ffffff" fill-rule="evenodd" stroke="none"/>
      <path d="M5.95 49.35 L6.55 47.75 6.95 47.15 Q7.75 45.85 8.95 44.75 L8.9 44.9 Q7.9 46.3 7.7 47.7 7.5 48.45 7.7 49.4 L7.7 49.45 7.55 49.5 7.6 49.9 7.7 50.1 8.35 50.3 8.55 50.65 Q9.3 51.75 10.8 52.6 12.25 53.4 14.4 53.75 16.55 54.1 19.25 53.7 21.95 53.3 25.15 51.9 L26.7 50.8 28.35 49.35 Q29.25 48.6 30.4 48.15 32.55 47.4 33.85 46.25 35.1 45.1 35.4 43.85 L35.4 45.45 35.35 45.7 35.15 46.3 Q34.7 47.4 33.85 48.15 L31.9 49.5 31.05 49.9 30.1 50.3 29.5 50.65 29.05 51.3 29.0 51.45 29.15 51.4 Q29.85 50.8 30.55 50.55 L31.65 50.2 31.6 50.25 29.75 52.35 26.5 54.8 23.95 56.35 20.2 58.05 16.0 59.65 12.1 60.7 9.2 60.9 9.1 60.85 6.2 55.1 6.15 54.5 6.05 52.65 6.05 52.05 6.05 51.8 6.05 50.05 6.05 50.0 6.1 49.6 6.6 49.55 6.45 49.45 6.8 49.5 6.95 49.5 6.55 49.4 5.95 49.35 M25.05 34.15 L25.1 34.3 25.2 34.55 25.25 35.2 25.05 36.95 25.0 37.0 24.2 38.7 23.8 39.2 22.9 40.2 21.9 41.05 21.85 41.05 21.2 41.55 20.65 42.15 20.35 42.5 Q20.85 41.5 22.1 40.15 L24.25 37.25 Q25.0 35.85 25.05 34.15" fill="#b8d2ca" fill-rule="evenodd" stroke="none"/>
      <path d="M1.4 51.85 L2.0 50.65 Q2.7 49.75 3.7 49.45 L5.75 49.4 Q6.8 49.65 7.85 50.45 9.8 52.15 10.7 54.05 11.45 55.6 11.6 57.1 11.3 58.1 10.75 58.35 L9.45 58.3 Q8.75 58.0 8.2 57.5 L7.45 56.35 6.5 54.5 Q5.9 53.45 5.05 52.7 4.2 51.9 3.3 51.8 L2.1 51.75 1.4 51.85 M10.1 61.85 L9.05 62.5 5.1 62.35 Q3.2 61.4 2.0 58.3 L1.75 57.5 2.0 58.25 Q3.2 61.35 5.1 62.3 L9.05 62.5 10.1 61.85" fill="#ffffff" fill-rule="evenodd" stroke="none"/>
      <path d="M5.9 48.7 Q7.15 48.95 8.3 49.85 10.45 51.7 11.4 53.75 12.3 55.85 12.3 57.8 12.25 59.75 11.45 61.15 10.65 62.55 9.3 63.05 L6.4 63.35 Q4.95 63.1 3.7 61.9 2.45 60.75 1.55 58.45 0.95 56.8 0.75 55.2 0.55 53.6 0.75 52.25 0.95 50.9 1.6 50.05 2.35 49.1 3.5 48.75 L5.9 48.7 M11.6 57.1 Q11.45 55.6 10.7 54.05 9.8 52.15 7.85 50.45 6.8 49.65 5.75 49.4 L3.7 49.45 Q2.7 49.75 2.0 50.65 L1.4 51.85 1.25 52.6 Q1.1 53.65 1.2 54.85 L1.25 55.3 1.75 57.5 2.0 58.3 Q3.2 61.4 5.1 62.35 L9.05 62.5 10.1 61.85 10.95 60.75 11.05 60.5 Q11.6 59.3 11.6 57.7 L11.6 57.1 M4.2 52.9 L5.15 54.3 6.0 56.5 Q6.35 57.65 6.3 58.8 6.25 59.85 5.6 60.5 5.0 61.15 3.6 61.05 2.85 60.2 2.65 58.85 2.45 57.5 2.55 56.1 L2.85 53.85 3.05 52.85 Q3.05 52.4 3.4 52.45 L4.2 52.9" fill="#1d3f60" fill-rule="evenodd" stroke="none"/>
      <path d="M1.4 51.85 L2.1 51.75 3.3 51.8 Q4.2 51.9 5.05 52.7 5.9 53.45 6.5 54.5 L7.45 56.35 8.2 57.5 Q8.75 58.0 9.45 58.3 L10.75 58.35 Q11.3 58.1 11.6 57.1 L11.6 57.7 Q11.6 59.3 11.05 60.5 L10.95 60.75 10.1 61.85 9.05 62.5 5.1 62.3 Q3.2 61.35 2.0 58.25 L1.75 57.5 1.25 55.3 1.2 54.85 Q1.1 53.65 1.25 52.6 L1.4 51.85 M4.2 52.9 L3.4 52.45 Q3.05 52.4 3.05 52.85 L2.85 53.85 2.55 56.1 Q2.45 57.5 2.65 58.85 2.85 60.2 3.6 61.05 5.0 61.15 5.6 60.5 6.25 59.85 6.3 58.8 6.35 57.65 6.0 56.5 L5.15 54.3 4.2 52.9" fill="#b8d2ca" fill-rule="evenodd" stroke="none"/>
    </g>
  </defs>
</svg>
