<?xml version="1.0" encoding="UTF-8" standalone="no"?>
<svg xmlns:xlink="http://www.w3.org/1999/xlink" height="467.9px" width="443.75px" xmlns="http://www.w3.org/2000/svg">
  <g transform="matrix(1.0, 0.0, 0.0, 1.0, 188.2, 220.35)">
    <clipPath id="clipPath0" transform="matrix(-1.0, 0.6994, 0.0, 1.0, 0.0, 0.0)">
      <path d="M-9.65 102.85 L-9.65 105.85 -10.65 107.35 -7.65 123.1 -7.65 124.6 0.35 146.35 -4.4 137.6 -5.4 136.1 -8.65 130.1 -8.15 126.35 -9.65 118.85 -10.65 117.35 -10.65 115.85 -11.65 114.35 -11.65 106.85 -10.9 106.1 -10.65 102.35 -10.0 101.4 -9.65 102.85 M-104.2 99.8 L-105.45 99.3 -99.95 96.2 -104.2 99.8 M-94.05 93.2 L-94.45 93.95 -98.8 95.6 -90.55 90.95 -89.05 88.45 -90.05 92.2 -94.05 93.2 M-85.7 57.05 L-85.5 56.65 -85.75 56.1 -85.7 57.05 M-86.9 57.95 L-88.45 57.2 -87.1 59.55 -86.0 57.6 -86.9 57.95 M-88.35 56.2 L-87.2 57.05 -86.05 57.05 -87.35 48.2 -88.35 56.2 M-88.55 50.8 L-89.05 51.95 -88.8 54.55 -88.25 48.25 -90.95 54.05 -88.95 57.2 -88.9 56.6 -89.55 56.05 -90.05 52.3 -88.55 50.8 M-86.25 42.7 L-86.6 43.25 -87.0 44.35 -86.25 42.7 M-85.3 46.7 L-86.05 48.55 -84.95 57.55 -86.85 60.55 -88.7 85.2 -91.45 52.7 -85.05 39.95 -87.15 46.15 -80.05 35.1 -84.75 43.25 -85.3 46.7 M-13.25 57.1 L-12.25 55.95 -12.65 54.8 -13.7 45.45 -14.8 54.8 -13.25 57.1 M-44.15 89.05 L-41.9 89.7 -46.05 91.85 -44.15 89.05 M-48.65 97.55 L-49.4 96.8 -46.9 93.15 -47.15 99.05 -47.4 100.05 -46.4 100.7 -48.65 100.2 -48.65 97.55 M-10.05 17.4 L-13.05 13.65 -13.05 6.15 -17.4 -2.05 -11.55 20.4 -10.05 17.4 M-13.85 20.5 L-12.7 20.6 -14.55 15.05 -13.85 20.5 M-17.9 18.15 L-17.9 16.3 -18.4 15.75 -21.3 20.15 -20.4 21.3 -20.3 22.05 -18.65 25.2 -16.65 21.2 -17.5 19.95 -17.4 18.9 -17.9 18.15 M-19.05 -4.75 L-20.4 -3.45 -14.8 14.15 -19.05 -4.75 M-22.65 -11.6 L-21.8 -10.7 -22.05 -12.8 -22.65 -11.6 M-20.8 -13.6 L-20.6 -14.35 -20.95 -15.45 -21.65 -12.75 -20.8 -13.6 M-28.15 -96.45 L-28.55 -97.6 -30.75 -97.55 -31.95 -95.95 -28.15 -96.45 M-3.55 -81.1 L-3.95 -80.15 1.9 -79.0 -3.55 -81.1 M-16.35 -94.7 L-20.05 -97.8 -25.15 -96.95 -30.05 -92.4 -26.65 -85.95 -26.65 -84.8 -26.05 -83.7 -9.15 -73.45 -8.55 -72.7 -6.25 -72.85 -5.7 -78.95 -7.55 -79.05 -9.75 -85.25 -7.4 -80.55 -5.65 -80.35 -5.5 -83.15 -10.3 -92.8 -14.05 -93.7 -12.75 -91.1 -21.0 -95.25 -16.35 -94.7 M-1.35 -92.15 L-1.1 -90.9 1.55 -89.1 -1.35 -92.15 M-29.6 -99.45 L-29.7 -99.8 -30.05 -98.85 -29.6 -99.45 M-36.85 -109.4 L-37.9 -106.85 -35.95 -106.8 -36.85 -109.4 M-51.8 -134.45 L-48.45 -132.95 -53.4 -137.1 -51.8 -134.45 M102.1 132.7 L102.4 132.8 102.75 132.7 102.85 132.5 102.75 132.3 102.4 132.2 Q102.2 132.2 102.1 132.3 L101.95 132.5 102.1 132.7 M94.55 121.35 L95.6 121.35 101.05 129.55 102.3 130.4 104.0 130.2 103.1 128.85 102.75 124.75 102.25 124.0 102.1 122.1 100.75 118.75 96.25 119.3 94.55 121.35 M96.45 109.5 L93.5 109.85 94.2 118.9 95.3 118.55 95.35 117.85 95.85 117.5 96.45 109.5 M94.7 104.8 L92.9 102.5 87.5 111.1 90.55 114.6 89.75 115.9 90.6 118.05 91.0 108.25 94.7 104.8 M92.55 96.8 L91.7 97.15 86.6 102.25 86.1 106.75 85.6 107.25 86.6 101.0 87.5 100.6 87.6 100.0 90.35 97.7 80.75 100.6 83.5 105.85 83.6 110.35 84.1 111.1 87.1 120.85 89.45 120.25 88.1 114.85 88.45 113.85 86.25 111.85 86.1 108.85 92.45 101.3 92.55 96.8 M96.75 98.5 L96.75 97.15 96.0 98.0 96.75 98.5 M98.75 84.0 L99.25 84.4 102.0 77.0 100.55 89.1 102.1 92.85 102.0 93.6 102.75 98.85 97.5 109.4 96.4 118.2 100.85 116.75 105.25 131.5 104.2 131.85 104.85 133.75 103.0 135.15 101.6 134.5 99.2 134.5 97.2 136.15 96.25 134.75 96.65 133.15 94.4 128.3 92.1 128.0 89.8 121.05 86.6 121.85 86.0 120.75 86.0 120.0 85.5 119.25 85.6 117.35 83.6 111.35 83.1 110.6 83.1 106.5 80.1 100.5 93.15 95.5 93.25 88.5 94.2 94.1 96.0 83.5 97.75 88.05 98.75 86.5 98.5 79.5 98.75 84.0 M90.45 50.8 L92.55 51.8 96.15 30.1 90.45 50.8 M87.25 45.6 L85.85 45.1 85.0 45.35 87.25 48.45 87.25 45.6 M77.1 -42.0 L76.5 -41.9 76.5 -41.55 76.55 -41.25 75.25 -44.5 75.9 -43.05 77.4 -42.4 78.1 -41.4 78.25 -39.55 81.6 -32.95 83.0 -32.8 92.25 -19.3 98.85 8.45 98.45 17.05 100.75 13.45 101.6 13.2 93.9 52.6 95.5 61.55 92.45 60.5 91.6 57.7 90.3 56.75 91.35 58.2 98.0 73.25 90.1 58.85 88.6 56.6 89.25 55.6 88.75 54.35 82.75 48.85 81.35 41.85 84.1 41.1 84.75 36.35 86.1 36.2 87.75 40.2 96.35 8.2 97.1 7.45 95.1 -4.55 90.35 -18.4 81.35 -29.65 80.35 -34.55 78.35 -37.15 78.35 -37.9 77.1 -41.9 77.1 -42.0 M74.35 -47.45 L75.0 -49.3 73.05 -51.0 74.35 -47.45 M35.95 -66.8 L33.85 -68.7 23.6 -85.8 19.25 -85.7 23.45 -86.7 35.95 -66.8 M17.8 -85.4 L16.35 -84.7 15.95 -84.25 24.4 -76.0 15.5 -83.75 14.2 -82.6 14.2 -83.0 Q14.2 -84.2 13.55 -85.15 L14.85 -84.7 17.8 -85.4 M4.35 -78.3 L3.15 -78.6 5.3 -77.05 4.35 -78.3 M5.6 -76.6 L2.25 -78.7 -4.1 -79.05 -5.0 -73.0 5.6 -76.6 M66.75 -56.7 L67.2 -59.2 60.65 -56.5 67.85 -49.4 71.5 -50.9 72.9 -51.15 66.75 -56.7 M48.4 -56.6 L49.7 -57.45 68.45 -60.55 68.45 -58.3 67.95 -57.2 75.75 -50.45 75.75 -48.95 75.25 -48.2 74.8 -45.6 72.85 -50.35 67.6 -48.8 60.05 -56.35 46.45 -54.8 41.55 -55.15 42.9 -53.15 40.85 -53.95 39.9 -53.6 30.45 -64.3 30.05 -66.05 29.85 -63.7 28.8 -65.6 12.55 -74.85 6.0 -76.35 -5.2 -71.95 Q-7.8 -55.0 -11.9 -38.7 -15.85 -22.95 -17.65 -7.35 -17.85 -5.8 -17.35 -4.55 -15.2 0.85 -12.3 6.05 L-9.4 17.3 -11.05 21.1 -10.35 21.9 -11.4 25.55 -13.4 42.9 -11.05 57.05 -12.85 58.7 -16.8 74.3 -15.15 81.0 -18.4 78.45 -19.2 69.05 -20.55 68.95 -23.45 69.85 -29.9 74.05 -37.15 87.95 -38.15 88.05 -31.4 73.45 -24.2 69.15 -16.1 52.65 -17.1 38.95 -16.6 40.5 -17.05 36.95 -17.2 37.7 -17.9 27.95 -19.4 25.7 -22.05 20.4 -21.55 18.55 -18.9 14.8 -20.4 13.8 -21.05 12.65 -20.9 7.4 -20.3 12.3 -18.15 14.4 -25.2 -3.75 -31.55 -4.2 -34.15 -2.95 -50.2 -0.1 -57.15 3.05 -76.8 29.8 -59.05 3.05 -58.9 1.55 -51.15 -3.7 -48.55 -1.8 -26.45 -5.7 -22.45 -13.9 -22.55 -14.6 -21.4 -16.7 -22.9 -20.1 -22.05 -19.7 -21.05 -17.95 -14.05 -41.1 -20.65 -16.35 -20.1 -14.7 -18.3 -14.2 -6.45 -71.7 -9.4 -72.2 -26.4 -82.55 -27.55 -84.05 -30.7 -92.45 -33.7 -93.95 -33.8 -94.6 -33.95 -94.55 -36.7 -89.45 -37.2 -87.3 -37.2 -89.45 -37.95 -90.55 -37.2 -93.9 -42.2 -96.45 -47.1 -84.9 -47.95 -84.55 -50.95 -80.3 -46.05 -92.2 -49.2 -86.2 -50.2 -86.45 -45.9 -96.35 -52.3 -87.8 -52.95 -87.7 -44.0 -101.65 -43.95 -102.4 -52.4 -91.6 -48.2 -99.45 -49.0 -99.95 -55.2 -96.3 -49.45 -101.45 -49.45 -102.2 -43.95 -108.55 -52.45 -101.8 -52.95 -102.2 -45.1 -111.1 -57.95 -107.2 -45.7 -112.7 -53.8 -112.8 -43.8 -116.0 -56.6 -119.6 -38.8 -118.4 -38.7 -119.25 -40.3 -121.3 -41.2 -120.55 -43.5 -121.9 -41.55 -119.8 -50.8 -125.5 -50.2 -125.8 -44.0 -122.25 -49.55 -130.3 -57.8 -139.3 -57.55 -143.55 -56.7 -139.8 -55.55 -139.35 -56.25 -141.85 -54.6 -141.85 -57.45 -146.05 -56.45 -146.6 -44.25 -130.05 -37.55 -125.6 -36.45 -134.05 -35.45 -134.55 -35.35 -128.75 -31.65 -134.3 -30.65 -134.55 -28.15 -133.55 -35.9 -123.55 -35.55 -122.95 -33.8 -126.05 -31.2 -128.65 -30.1 -128.15 -34.05 -119.8 -33.85 -119.15 -26.15 -125.2 -25.55 -124.8 -27.7 -121.5 -15.55 -130.05 -28.15 -118.0 -3.55 -124.7 -28.65 -114.8 -23.9 -107.55 -23.9 -105.7 -23.3 -102.35 -6.2 -99.4 -2.05 -94.2 0.95 -93.05 4.2 -88.55 4.2 -87.8 6.1 -85.1 7.35 -86.45 7.35 -87.2 8.35 -87.95 10.4 -86.8 Q8.85 -86.8 7.75 -85.65 6.6 -84.55 6.6 -83.0 6.6 -81.45 7.75 -80.3 8.8 -79.25 10.3 -79.2 L9.85 -78.8 28.5 -66.4 19.1 -76.3 22.0 -75.8 19.95 -79.05 22.85 -75.55 29.35 -69.5 33.85 -66.7 33.45 -65.55 42.6 -57.05 43.1 -56.45 47.1 -56.45 47.45 -55.8 56.0 -58.05 48.4 -56.6" fill="#ff0000" fill-rule="evenodd" stroke="none"/>
    </clipPath>
    <g clip-path="url(#clipPath0)">
      <use data-characterId="58" height="445.95" transform="matrix(1.0, 0.0, 0.0, 1.0, -67.0, -198.4)" width="322.55" xlink:href="#morphshape0"/>
      <use data-characterId="59" height="265.3" transform="matrix(1.0, 0.0, 0.0, 1.0, -188.2, -71.7)" width="265.25" xlink:href="#morphshape1"/>
    </g>
  </g>
  <defs>
    <g id="morphshape0" transform="matrix(1.0, 0.0, 0.0, 1.0, 67.0, 198.4)">
      <path d="M-62.65 47.45 Q-62.65 110.9 -17.75 155.85 27.1 200.7 90.6 200.7 154.1 200.7 199.0 155.85 243.9 110.9 243.9 47.45 243.9 -16.05 199.0 -60.95 154.1 -105.85 90.6 -105.85 27.1 -105.85 -17.75 -60.95 -62.65 -16.05 -62.65 47.45" fill="url(#gradient0)" fill-rule="evenodd" stroke="none"/>
      <path d="M-62.65 47.45 Q-62.65 -16.05 -17.75 -60.95 27.1 -105.85 90.6 -105.85 154.1 -105.85 199.0 -60.95 243.9 -16.05 243.9 47.45 243.9 110.9 199.0 155.85 154.1 200.7 90.6 200.7 27.1 200.7 -17.75 155.85 -62.65 110.9 -62.65 47.45 Z" fill="none" stroke="#000000" stroke-linecap="round" stroke-linejoin="round" stroke-opacity="0.0" stroke-width="1.0"/>
    </g>
    <radialGradient cx="0" cy="0" gradientTransform="matrix(0.1879, 0.0, 0.0, 0.1879, 90.65, 47.45)" gradientUnits="userSpaceOnUse" id="gradient0" r="819.2" spreadMethod="pad">
      <stop offset="0.4627450980392157" stop-color="#dce4ef" stop-opacity="0.5019608"/>
      <stop offset="1.0" stop-color="#889fc9" stop-opacity="0.0"/>
    </radialGradient>
    <g id="morphshape1" transform="matrix(1.0, 0.0, 0.0, 1.0, 188.2, 71.7)">
      <path d="M-127.1 45.8 Q-127.15 78.4 -104.0 101.55 -80.95 124.65 -48.25 124.65 -15.55 124.65 7.55 101.55 30.6 78.4 30.6 45.8 30.6 13.1 7.55 -10.0 -15.55 -33.1 -48.25 -33.05 -80.95 -33.1 -104.0 -10.0 -127.15 13.1 -127.1 45.8" fill="url(#gradient1)" fill-rule="evenodd" stroke="none"/>
      <path d="M-127.1 45.8 Q-127.15 13.1 -104.0 -10.0 -80.95 -33.1 -48.25 -33.05 -15.55 -33.1 7.55 -10.0 30.6 13.1 30.6 45.8 30.6 78.4 7.55 101.55 -15.55 124.65 -48.25 124.65 -80.95 124.65 -104.0 101.55 -127.15 78.4 -127.1 45.8 Z" fill="none" stroke="#000000" stroke-linecap="round" stroke-linejoin="round" stroke-opacity="0.0" stroke-width="1.0"/>
    </g>
    <radialGradient cx="0" cy="0" gradientTransform="matrix(0.0966, 0.0, 0.0, 0.0966, -48.25, 45.7)" gradientUnits="userSpaceOnUse" id="gradient1" r="819.2" spreadMethod="pad">
      <stop offset="0.592156862745098" stop-color="#d2f0fa" stop-opacity="0.6745098"/>
      <stop offset="1.0" stop-color="#889fc9" stop-opacity="0.0"/>
    </radialGradient>
  </defs>
</svg>
