<?xml version="1.0" encoding="UTF-8" standalone="no"?>
<svg xmlns:xlink="http://www.w3.org/1999/xlink" height="40.0px" width="30.0px" xmlns="http://www.w3.org/2000/svg">
  <g transform="matrix(1.0, 0.0, 0.0, 1.0, 15.0, 20.0)">
    <use data-characterId="147" height="100.0" id="b_sound" transform="matrix(0.3, 0.0, 0.0, 0.4, -15.0, -20.0)" width="100.0" xlink:href="#button0"/>
    <use data-characterId="148" height="21.2" transform="matrix(1.0, 0.0, 0.0, 1.0, -12.3, -16.75)" width="23.85" xlink:href="#shape0"/>
    <use data-characterId="150" height="7.9" transform="matrix(0.7718, 0.0, 0.0, 0.9999, -12.1685, 5.4498)" width="31.35" xlink:href="#text0"/>
  </g>
  <defs>
    <g id="shape0" transform="matrix(1.0, 0.0, 0.0, 1.0, 12.3, 16.75)">
      <path d="M5.45 -13.0 L6.4 -12.15 Q8.4 -9.35 8.4 -6.6 L8.4 -5.25 8.15 -3.6 Q7.7 -1.7 6.3 0.1 L5.45 0.85 Q4.9 0.8 4.9 0.35 4.9 0.15 5.25 -0.15 7.45 -2.4 7.45 -5.25 L7.45 -7.0 Q7.45 -9.0 6.0 -11.05 L5.4 -11.9 4.95 -12.5 Q4.95 -13.0 5.45 -13.0 M0.65 -16.75 L0.65 4.45 0.15 4.45 -7.75 -3.55 -12.3 -3.55 -12.3 -8.85 -7.75 -8.85 0.15 -16.75 0.65 -16.75 M9.6 -12.75 L10.5 -11.05 Q11.55 -8.2 11.55 -5.55 11.55 -2.85 10.5 -0.7 L9.4 1.15 8.45 2.35 7.7 2.8 Q7.2 2.8 7.2 2.25 L7.65 1.75 8.65 0.6 9.7 -1.15 10.45 -3.75 10.6 -6.45 Q10.6 -7.85 10.05 -9.6 9.5 -11.45 8.7 -12.5 L7.75 -13.6 7.2 -14.35 Q7.2 -14.85 7.7 -14.85 L8.45 -14.25 9.6 -12.75 M2.7 -10.25 Q2.7 -10.8 3.2 -10.8 3.9 -10.8 4.7 -8.85 5.25 -7.6 5.25 -6.75 L5.25 -5.25 Q5.25 -4.3 4.7 -3.15 3.75 -1.3 3.1 -1.25 2.65 -1.25 2.65 -1.75 L3.15 -2.3 Q4.3 -3.6 4.3 -5.3 L4.3 -6.65 Q4.3 -8.25 3.3 -9.5 L2.9 -9.85 2.7 -10.25" fill="#ffffff" fill-rule="evenodd" stroke="none"/>
      <path d="M5.45 -13.0 L6.4 -12.15 Q8.4 -9.35 8.4 -6.6 L8.4 -5.25 8.15 -3.6 Q7.7 -1.7 6.3 0.1 L5.45 0.85 Q4.9 0.8 4.9 0.35 4.9 0.15 5.25 -0.15 7.45 -2.4 7.45 -5.25 L7.45 -7.0 Q7.45 -9.0 6.0 -11.05 L5.4 -11.9 4.95 -12.5 Q4.95 -13.0 5.45 -13.0 M9.6 -12.75 L10.5 -11.05 Q11.55 -8.2 11.55 -5.55 11.55 -2.85 10.5 -0.7 L9.4 1.15 8.45 2.35 7.7 2.8 Q7.2 2.8 7.2 2.25 L7.65 1.75 8.65 0.6 9.7 -1.15 10.45 -3.75 10.6 -6.45 Q10.6 -7.85 10.05 -9.6 9.5 -11.45 8.7 -12.5 L7.75 -13.6 7.2 -14.35 Q7.2 -14.85 7.7 -14.85 L8.45 -14.25 9.6 -12.75 M2.7 -10.25 Q2.7 -10.8 3.2 -10.8 3.9 -10.8 4.7 -8.85 5.25 -7.6 5.25 -6.75 L5.25 -5.25 Q5.25 -4.3 4.7 -3.15 3.75 -1.3 3.1 -1.25 2.65 -1.25 2.65 -1.75 L3.15 -2.3 Q4.3 -3.6 4.3 -5.3 L4.3 -6.65 Q4.3 -8.25 3.3 -9.5 L2.9 -9.85 2.7 -10.25 Z" fill="none" stroke="#ffffff" stroke-linecap="round" stroke-linejoin="round" stroke-width="0.05"/>
    </g>
    <g id="text0" transform="matrix(1.0, 0.0, 0.0, 1.0, -0.3, -2.0)">
      <g transform="matrix(1.0, 0.0, 0.0, 1.0, 0.0, 0.0)">
        <use fill="#ffffff" height="7.9" transform="matrix(0.0078, 0.0, 0.0, 0.0078, 0.0, 9.0)" width="31.35" xlink:href="#font_Arial_Black_S0"/>
        <use fill="#ffffff" height="7.9" transform="matrix(0.0078, 0.0, 0.0, 0.0078, 5.8, 9.0)" width="31.35" xlink:href="#font_Arial_Black_O0"/>
        <use fill="#ffffff" height="7.9" transform="matrix(0.0078, 0.0, 0.0, 0.0078, 12.45, 9.0)" width="31.35" xlink:href="#font_Arial_Black_U0"/>
        <use fill="#ffffff" height="7.9" transform="matrix(0.0078, 0.0, 0.0, 0.0078, 19.1, 9.0)" width="31.35" xlink:href="#font_Arial_Black_N0"/>
        <use fill="#ffffff" height="7.9" transform="matrix(0.0078, 0.0, 0.0, 0.0078, 25.75, 9.0)" width="31.35" xlink:href="#font_Arial_Black_D0"/>
      </g>
    </g>
    <g id="font_Arial_Black_S0">
      <path d="M36.0 -242.5 L36.0 -242.5 Q45.5 -131.5 117.5 -60.0 189.5 12.0 376.0 12.0 482.5 12.0 552.0 -18.5 622.0 -49.5 661.0 -108.5 700.0 -168.0 700.0 -238.5 700.0 -298.5 671.0 -346.5 641.5 -395.0 577.5 -427.5 513.5 -460.5 365.5 -492.5 305.5 -505.0 289.0 -519.0 272.0 -533.0 272.0 -550.5 272.0 -574.5 292.0 -591.5 312.5 -608.0 352.0 -608.0 400.5 -608.0 428.0 -585.0 455.5 -562.5 464.0 -512.0 L676.0 -524.5 Q662.0 -639.0 588.5 -691.5 515.0 -744.0 375.0 -744.0 260.5 -744.0 195.0 -715.5 129.5 -686.5 96.5 -636.5 64.0 -586.5 64.0 -530.0 64.0 -444.5 128.0 -389.0 191.0 -334.0 340.0 -300.5 430.5 -280.5 455.5 -258.0 480.0 -235.5 480.0 -207.0 480.0 -177.5 454.0 -154.5 428.0 -132.0 379.5 -132.0 315.0 -132.0 280.5 -176.5 259.0 -203.5 252.0 -256.0 L36.0 -242.5" fill-rule="evenodd" stroke="none"/>
    </g>
    <g id="font_Arial_Black_O0">
      <path d="M276.0 -363.5 L276.0 -363.5 Q276.0 -475.0 316.5 -523.5 357.5 -572.0 424.5 -572.0 494.5 -572.0 535.0 -524.5 576.0 -476.5 576.0 -373.5 576.0 -250.5 537.0 -203.5 497.5 -156.0 426.5 -156.0 357.0 -156.0 316.5 -204.5 276.0 -252.5 276.0 -363.5 M48.0 -365.5 L48.0 -365.5 Q48.0 -237.5 98.5 -152.0 148.5 -67.0 229.5 -27.5 310.5 12.0 433.5 12.0 555.0 12.0 636.5 -33.5 718.0 -79.0 761.0 -161.5 804.0 -243.5 804.0 -371.5 804.0 -548.0 705.5 -646.0 607.0 -744.0 425.0 -744.0 247.0 -744.0 147.5 -644.0 48.0 -544.5 48.0 -365.5" fill-rule="evenodd" stroke="none"/>
    </g>
    <g id="font_Arial_Black_U0">
      <path d="M548.0 -287.0 L548.0 -287.0 Q548.0 -226.0 515.5 -193.0 483.5 -160.0 426.5 -160.0 369.0 -160.0 336.5 -193.5 304.0 -227.0 304.0 -287.0 L304.0 -732.0 76.0 -732.0 76.0 -296.0 Q76.0 -242.5 97.0 -172.5 110.0 -129.0 145.0 -88.0 180.0 -47.5 222.5 -25.0 265.0 -3.0 328.0 4.5 391.0 12.0 444.0 12.0 536.5 12.0 602.0 -12.5 649.5 -30.0 692.5 -73.0 735.5 -116.0 756.0 -173.5 776.0 -231.5 776.0 -296.0 L776.0 -732.0 548.0 -732.0 548.0 -287.0" fill-rule="evenodd" stroke="none"/>
    </g>
    <g id="font_Arial_Black_N0">
      <path d="M76.0 0.0 L76.0 0.0 288.0 0.0 288.0 -404.0 564.0 0.0 776.0 0.0 776.0 -732.0 564.0 -732.0 564.0 -326.0 286.5 -732.0 76.0 -732.0 76.0 0.0" fill-rule="evenodd" stroke="none"/>
    </g>
    <g id="font_Arial_Black_D0">
      <path d="M363.5 -564.0 L363.5 -564.0 Q449.5 -564.0 487.0 -521.5 524.0 -479.0 524.0 -363.5 524.0 -276.5 507.5 -238.0 490.5 -199.0 461.5 -183.5 432.0 -168.0 362.5 -168.0 L308.0 -168.0 308.0 -564.0 363.5 -564.0 M80.0 0.0 L80.0 0.0 415.5 0.0 Q475.5 0.0 550.0 -20.0 604.0 -34.5 651.5 -78.0 698.5 -122.0 725.5 -186.5 752.0 -251.0 752.0 -368.5 752.0 -443.5 734.0 -510.5 716.0 -577.0 676.5 -627.5 636.5 -678.0 575.5 -705.0 514.5 -732.0 415.5 -732.0 L80.0 -732.0 80.0 0.0" fill-rule="evenodd" stroke="none"/>
    </g>
  </defs>
</svg>
