<?xml version="1.0" encoding="UTF-8" standalone="no"?>
<svg xmlns:xlink="http://www.w3.org/1999/xlink" height="40.0px" width="30.0px" xmlns="http://www.w3.org/2000/svg">
  <g transform="matrix(1.0, 0.0, 0.0, 1.0, 15.0, 20.0)">
    <use data-characterId="147" height="100.0" id="b_sound" transform="matrix(0.3, 0.0, 0.0, 0.4, -15.0, -20.0)" width="100.0" xlink:href="#button0"/>
    <use data-characterId="151" height="29.1" transform="matrix(1.0, 0.0, 0.0, 1.0, -12.3, -16.75)" width="24.3" xlink:href="#shape0"/>
  </g>
  <defs>
    <g id="shape0" transform="matrix(1.0, 0.0, 0.0, 1.0, 12.3, 16.75)">
      <path d="M0.65 -16.75 L0.65 4.45 0.15 4.45 -7.75 -3.55 -12.3 -3.55 -12.3 -8.85 -7.75 -8.85 0.15 -16.75 0.65 -16.75 M11.55 7.35 L11.9 8.25 12.0 9.35 11.8 10.8 11.4 11.65 10.75 12.1 9.95 12.25 7.95 12.25 7.95 6.55 9.95 6.55 10.9 6.75 11.55 7.35 M10.5 10.4 L10.6 9.4 10.4 8.2 Q10.15 7.85 9.65 7.85 L9.3 7.85 9.3 10.95 9.65 10.95 10.25 10.8 10.5 10.4 M4.1 6.55 L5.75 9.7 5.75 6.55 7.05 6.55 7.05 12.25 5.75 12.25 4.1 9.1 4.1 12.25 2.8 12.25 2.8 6.55 4.1 6.55 M1.9 6.55 L1.9 9.95 1.75 10.9 1.4 11.7 0.85 12.15 -0.1 12.35 -0.8 12.3 -1.45 12.05 -1.95 11.55 -2.2 10.9 -2.35 9.95 -2.35 6.55 -0.95 6.55 -0.95 10.0 -0.75 10.75 -0.25 11.0 0.3 10.75 0.5 10.0 0.5 6.55 1.9 6.55 M-6.0 8.15 L-6.25 9.4 -6.0 10.65 -5.35 11.05 Q-4.9 11.05 -4.65 10.65 -4.45 10.3 -4.45 9.35 L-4.65 8.15 Q-4.9 7.8 -5.35 7.8 -5.75 7.8 -6.0 8.15 M-5.35 6.45 Q-4.25 6.45 -3.65 7.2 -3.05 7.95 -3.05 9.35 -3.05 10.35 -3.3 11.0 L-4.05 12.0 Q-4.55 12.35 -5.3 12.35 L-6.5 12.05 Q-7.0 11.75 -7.3 11.05 L-7.6 9.4 Q-7.6 8.0 -7.0 7.2 -6.4 6.45 -5.35 6.45 M-8.3 8.15 L-9.6 8.25 -9.8 7.7 -10.3 7.5 -10.65 7.65 -10.75 7.95 -10.65 8.2 -10.2 8.4 -8.9 8.9 Q-8.55 9.15 -8.35 9.55 -8.2 9.9 -8.2 10.4 L-8.4 11.4 Q-8.65 11.85 -9.05 12.1 L-10.15 12.35 Q-11.25 12.35 -11.7 11.8 -12.15 11.2 -12.2 10.35 L-10.9 10.25 -10.7 10.85 -10.1 11.2 -9.65 11.05 -9.5 10.65 Q-9.5 10.4 -9.65 10.25 L-10.35 9.9 Q-11.25 9.65 -11.65 9.2 -12.0 8.8 -12.0 8.1 L-11.8 7.3 -11.2 6.65 -10.15 6.45 Q-9.3 6.45 -8.85 6.85 -8.4 7.25 -8.3 8.15" fill="#ffffff" fill-rule="evenodd" stroke="none"/>
    </g>
  </defs>
</svg>
