<?xml version="1.0" encoding="UTF-8" standalone="no"?>
<svg xmlns:xlink="http://www.w3.org/1999/xlink" height="569.95px" width="471.25px" xmlns="http://www.w3.org/2000/svg">
  <g transform="matrix(1.0, 0.0, 0.0, 1.0, 252.9, 259.65)">
    <use data-characterId="298" height="253.1" transform="matrix(1.4967, 0.0, 0.0, 0.4063, -197.2811, 46.2518)" width="253.1" xlink:href="#shape0"/>
    <clipPath id="clipPath0" transform="matrix(1.0, 0.0, 0.0, 1.0, 0.0, 0.0)">
      <path d="M199.05 -259.15 Q237.1 0.45 146.25 93.6 142.8 130.3 -9.0 136.35 -146.15 126.85 -159.3 94.75 -276.05 -5.75 -236.8 -247.95 L199.05 -259.15" fill="url(#gradient1)" fill-rule="evenodd" stroke="none"/>
      <path d="M199.05 -259.15 Q237.1 0.45 146.25 93.6 142.8 130.3 -9.0 136.35 -146.15 126.85 -159.3 94.75 -276.05 -5.75 -236.8 -247.95 L199.05 -259.15 Z" fill="none" stroke="#ffffff" stroke-linecap="round" stroke-linejoin="round" stroke-width="1.0"/>
    </clipPath>
    <g clip-path="url(#clipPath0)">
      <use data-characterId="369" height="55.4" transform="matrix(6.1251, 0.0, 0.0, 6.1251, -216.4, -228.0)" width="67.15" xlink:href="#sprite0"/>
    </g>
    <use data-characterId="372" height="82.85" transform="matrix(1.0, 0.0, 0.0, 1.0, -158.75, 53.55)" width="305.2" xlink:href="#shape5"/>
  </g>
  <defs>
    <g id="shape0" transform="matrix(1.0, 0.0, 0.0, 1.0, 127.7, 119.85)">
      <path d="M68.0 -99.55 Q78.7 -92.45 88.35 -82.8 125.4 -45.75 125.4 6.7 125.4 59.15 88.35 96.2 78.7 105.85 68.0 113.0 45.65 127.9 18.7 131.85 9.05 133.25 -1.15 133.25 -12.05 133.25 -22.25 131.7 -47.8 127.65 -69.15 113.75 -80.5 106.35 -90.65 96.2 -127.7 59.15 -127.7 6.7 -127.7 -45.75 -90.65 -82.8 -80.5 -92.95 -69.15 -100.3 -47.8 -114.25 -22.25 -118.25 -12.05 -119.85 -1.15 -119.85 9.05 -119.85 18.7 -118.45 45.65 -114.5 68.0 -99.55" fill="url(#gradient0)" fill-rule="evenodd" stroke="none"/>
      <path d="M55.7 -85.6 Q64.3 -79.9 72.1 -72.1 101.95 -42.25 101.95 0.0 101.95 42.25 72.1 72.1 64.3 79.9 55.7 85.65 L55.7 -85.6 M-54.8 86.25 Q-63.9 80.3 -72.1 72.1 -101.95 42.25 -101.95 0.0 -101.95 -42.25 -72.1 -72.1 -63.9 -80.3 -54.8 -86.2 L-54.8 86.25" fill="#1d0a05" fill-rule="evenodd" stroke="none"/>
      <path d="M16.0 -100.8 Q37.7 -97.65 55.7 -85.6 L55.7 85.65 Q37.7 97.65 16.0 100.85 L16.0 -100.8 M-17.0 100.7 Q-37.55 97.45 -54.8 86.25 L-54.8 -86.2 Q-37.55 -97.45 -17.0 -100.65 L-17.0 100.7" fill="#240906" fill-rule="evenodd" stroke="none"/>
      <path d="M-17.0 -100.65 L0.0 -101.95 16.0 -100.8 16.0 100.85 0.0 101.95 -17.0 100.7 -17.0 -100.65" fill="#2b0c09" fill-rule="evenodd" stroke="none"/>
    </g>
    <radialGradient cx="0" cy="0" gradientTransform="matrix(0.1506, 0.0, 0.0, 0.1506, -1.15, 0.0)" gradientUnits="userSpaceOnUse" id="gradient0" r="819.2" spreadMethod="pad">
      <stop offset="0.596078431372549" stop-color="#ffffff"/>
      <stop offset="1.0" stop-color="#ffffff" stop-opacity="0.0"/>
    </radialGradient>
    <linearGradient gradientTransform="matrix(0.0, 0.048, -0.2789, 0.0, -18.2, 92.1)" gradientUnits="userSpaceOnUse" id="gradient1" spreadMethod="pad" x1="-819.2" x2="819.2">
      <stop offset="0.0" stop-color="#330000"/>
      <stop offset="1.0" stop-color="#330000" stop-opacity="0.0"/>
    </linearGradient>
    <g id="sprite0" transform="matrix(1.0, 0.0, 0.0, 1.0, 0.0, 0.0)">
      <use data-characterId="366" height="39.5" transform="matrix(1.0, 0.0, 0.0, 1.0, 14.6, 15.9)" width="38.2" xlink:href="#shape2"/>
      <use data-characterId="367" height="25.2" transform="matrix(1.0, 0.0, 0.0, 1.0, 0.0, 0.0)" width="27.35" xlink:href="#shape3"/>
      <use data-characterId="367" height="25.2" transform="matrix(-1.0018, 0.0, 0.0, 1.0, 67.175, 0.2)" width="27.35" xlink:href="#shape3"/>
      <use data-characterId="368" height="23.65" transform="matrix(1.0, 0.0, 0.0, 1.0, 18.95, 23.05)" width="29.55" xlink:href="#shape4"/>
    </g>
    <g id="shape2" transform="matrix(1.0, 0.0, 0.0, 1.0, -14.6, -15.9)">
      <path d="M39.4 51.8 Q39.4 53.45 33.65 53.45 27.85 53.45 27.85 51.8 27.85 50.15 33.65 50.15 39.4 50.15 39.4 51.8" fill="#363737" fill-rule="evenodd" stroke="none"/>
      <path d="M28.0 53.5 L27.85 53.15 27.85 51.85 Q27.85 52.7 29.6 53.15 L31.3 53.4 33.65 53.45 35.7 53.4 37.0 53.25 37.45 53.15 Q39.4 52.75 39.4 51.85 L39.4 53.15 39.3 53.5 39.15 53.8 37.0 54.4 32.15 54.65 28.0 53.5" fill="#b84b03" fill-rule="evenodd" stroke="none"/>
      <path d="M39.15 53.8 Q38.6 54.45 37.45 54.85 L37.0 55.0 37.0 54.4 39.15 53.8" fill="#ec6002" fill-rule="evenodd" stroke="none"/>
      <path d="M37.0 55.0 L35.7 55.2 33.7 55.3 31.3 55.15 29.6 54.75 Q28.4 54.3 28.0 53.5 L32.15 54.65 37.0 54.4 37.0 55.0" fill="#ca5202" fill-rule="evenodd" stroke="none"/>
      <path d="M39.15 53.8 Q38.6 54.45 37.45 54.85 L37.0 55.0 35.7 55.2 33.7 55.3 31.3 55.15 29.6 54.75 Q28.4 54.3 28.0 53.5" fill="none" stroke="#8e3902" stroke-linecap="round" stroke-linejoin="round" stroke-width="0.2"/>
      <path d="M23.95 25.15 Q19.85 29.2 19.8 34.95 19.75 40.65 23.85 44.8 26.4 47.3 29.6 48.3 L31.3 48.7 32.05 48.8 33.65 48.9 35.7 48.75 36.45 48.65 37.45 48.4 Q40.8 47.5 43.45 44.9 45.55 42.75 46.6 40.2 47.55 37.85 47.6 35.1 47.6 29.35 43.6 25.25 39.5 21.15 33.75 21.15 28.0 21.1 23.95 25.15 M20.15 48.45 Q15.5 43.3 15.55 35.95 15.55 28.6 20.95 22.75 26.3 16.9 34.0 17.35 41.6 17.8 47.0 23.25 52.4 28.65 52.4 36.25 52.4 39.4 51.5 42.15 50.05 45.7 47.15 48.6 42.9 52.75 37.45 53.8 L36.45 53.95 35.7 54.0 33.6 54.1 32.05 54.05 31.3 53.95 29.6 53.7 Q24.25 52.55 20.15 48.45 M44.3 46.85 Q41.6 49.55 37.45 50.3 L36.45 50.45 35.7 50.55 33.9 50.6 32.05 50.5 31.3 50.4 29.6 50.05 Q25.6 49.0 22.45 45.85 L21.75 45.15 Q18.9 41.95 18.05 37.9 L17.9 37.05 Q17.4 35.5 17.35 32.8 17.0 34.45 17.05 36.25 17.0 42.75 21.3 47.5 L22.0 48.25 Q25.3 51.55 29.6 52.7 L31.3 53.05 32.05 53.15 34.0 53.25 35.7 53.15 36.45 53.1 37.45 52.95 Q42.3 51.95 46.0 48.25 48.9 45.3 50.1 41.7 50.95 39.15 51.0 36.25 L50.8 33.6 50.2 38.2 Q49.9 40.15 49.45 41.1 L48.55 42.55 44.3 46.85" fill="#ff6600" fill-rule="evenodd" stroke="none"/>
      <path d="M23.95 25.15 Q28.0 21.1 33.75 21.15 39.5 21.15 43.6 25.25 47.6 29.35 47.6 35.1 47.55 37.85 46.6 40.2 45.55 42.75 43.45 44.9 40.8 47.5 37.45 48.4 L36.45 48.65 35.7 48.75 33.65 48.9 32.05 48.8 31.3 48.7 29.6 48.3 Q26.4 47.3 23.85 44.8 19.75 40.65 19.8 34.95 19.85 29.2 23.95 25.15" fill="#ec6002" fill-rule="evenodd" stroke="none"/>
      <path d="M20.15 48.45 L17.6 45.35 17.55 45.2 Q14.55 40.65 14.6 34.9 14.65 27.0 20.25 21.45 25.9 15.85 33.8 15.9 41.7 15.95 47.3 21.55 52.85 27.2 52.8 35.1 52.8 38.9 51.5 42.15 52.4 39.4 52.4 36.25 52.4 28.65 47.0 23.25 41.6 17.8 34.0 17.35 26.3 16.9 20.95 22.75 15.55 28.6 15.55 35.95 15.5 43.3 20.15 48.45" fill="#fd751c" fill-rule="evenodd" stroke="none"/>
      <path d="M44.3 46.85 L48.55 42.55 49.45 41.1 Q49.9 40.15 50.2 38.2 L50.8 33.6 51.0 36.25 Q50.95 39.15 50.1 41.7 48.9 45.3 46.0 48.25 42.3 51.95 37.45 52.95 L36.45 53.1 35.7 53.15 34.0 53.25 32.05 53.15 31.3 53.05 29.6 52.7 Q25.3 51.55 22.0 48.25 L21.3 47.5 Q17.0 42.75 17.05 36.25 17.0 34.45 17.35 32.8 17.4 35.5 17.9 37.05 L18.05 37.9 Q18.9 41.95 21.75 45.15 L22.45 45.85 Q25.6 49.0 29.6 50.05 L31.3 50.4 32.05 50.5 33.9 50.6 35.7 50.55 36.45 50.45 37.45 50.3 Q41.6 49.55 44.3 46.85" fill="#973e02" fill-rule="evenodd" stroke="none"/>
      <path d="M35.5 21.05 Q34.5 20.35 34.5 19.35 34.5 18.4 35.5 17.7 36.5 17.0 37.85 17.0 39.25 17.0 40.2 17.7 41.2 18.4 41.2 19.4 41.2 20.35 40.2 21.05 39.25 21.75 37.85 21.75 36.5 21.75 35.5 21.05" fill="#fc8536" fill-rule="evenodd" stroke="none"/>
      <path d="M47.7 43.1 L47.45 44.65 46.15 45.05 44.75 45.4 38.75 46.25 33.75 46.45 26.25 46.0 23.9 45.6 22.25 45.25 21.65 45.1 20.85 44.9 19.95 44.6 19.7 42.95 19.7 42.8 Q19.2 39.25 19.2 35.0 19.2 30.15 19.7 26.6 L19.75 26.45 19.95 25.15 20.8 24.9 21.65 24.65 22.2 24.5 23.9 24.15 26.3 23.75 33.75 23.3 38.75 23.5 44.75 24.45 46.15 24.8 47.45 25.15 47.7 26.45 47.7 26.6 46.8 26.35 46.4 26.25 46.35 26.25 Q46.85 30.15 46.85 35.0 46.85 39.35 46.35 43.35 L46.35 43.45 46.75 43.35 47.7 43.1 M39.0 25.0 Q39.65 29.4 39.65 35.0 39.65 40.0 39.0 44.55 L39.15 44.55 45.0 43.75 45.0 43.7 Q45.5 39.5 45.5 35.0 45.5 29.95 44.95 25.9 L39.05 25.0 39.0 25.0 M20.6 26.35 Q20.1 30.05 20.15 34.95 20.1 39.35 20.6 43.05 L20.6 43.2 21.6 43.45 22.05 43.55 22.0 43.45 Q21.55 39.55 21.55 34.95 21.55 29.85 22.0 26.0 L21.65 26.05 21.05 26.2 20.65 26.35 20.6 26.35 M23.75 25.65 L23.7 25.65 Q23.15 29.65 23.15 35.05 23.15 39.85 23.65 43.85 L23.65 43.9 25.7 44.25 26.0 44.3 26.0 44.25 Q25.45 40.15 25.45 35.15 25.45 29.4 26.05 25.25 L25.95 25.25 23.75 25.65" fill="#2b2b2b" fill-rule="evenodd" stroke="none"/>
      <path d="M39.0 25.0 L39.05 25.0 44.95 25.9 Q45.5 29.95 45.5 35.0 45.5 39.5 45.0 43.7 L45.0 43.75 39.15 44.55 39.0 44.55 Q39.65 40.0 39.65 35.0 39.65 29.4 39.0 25.0 M23.75 25.65 L25.95 25.25 26.05 25.25 Q25.45 29.4 25.45 35.15 25.45 40.15 26.0 44.25 L26.0 44.3 25.7 44.25 23.65 43.9 23.65 43.85 Q23.15 39.85 23.15 35.05 23.15 29.65 23.7 25.65 L23.75 25.65" fill="#666666" fill-rule="evenodd" stroke="none"/>
      <path d="M47.7 43.1 L46.75 43.35 46.35 43.45 46.35 43.35 Q46.85 39.35 46.85 35.0 46.85 30.15 46.35 26.25 L46.4 26.25 46.8 26.35 47.7 26.6 Q48.25 30.3 48.25 35.0 48.25 39.15 47.75 42.95 L47.7 43.1 M20.6 26.35 L20.65 26.35 21.05 26.2 21.65 26.05 22.0 26.0 Q21.55 29.85 21.55 34.95 21.55 39.55 22.0 43.45 L22.05 43.55 21.6 43.45 20.6 43.2 20.6 43.05 Q20.1 39.35 20.15 34.95 20.1 30.05 20.6 26.35" fill="#3c3c3c" fill-rule="evenodd" stroke="none"/>
    </g>
    <g id="shape3" transform="matrix(1.0, 0.0, 0.0, 1.0, 13.65, 12.6)">
      <path d="M1.6 -12.55 L3.25 -12.4 Q4.9 -12.0 6.55 -11.05 L5.25 -11.65 Q3.45 -12.4 1.6 -12.55 M8.05 -10.65 Q11.6 -8.55 13.0 -4.7 14.75 0.15 12.15 4.9 9.55 9.7 4.2 11.65 -1.2 13.55 -6.25 11.55 -11.3 9.5 -13.0 4.65 -14.5 0.4 -12.65 -3.8 -14.0 -0.2 -12.7 3.5 L-11.85 5.35 Q-10.1 8.45 -6.4 9.95 L-3.1 10.8 Q0.05 11.15 3.35 10.0 8.35 8.2 10.8 3.7 12.1 1.3 12.25 -1.15 12.3 -3.2 11.6 -5.25 10.8 -7.35 9.4 -8.9 11.9 -6.4 12.25 -2.9 12.7 1.65 10.65 5.0 11.95 3.05 12.65 0.75 13.6 -2.4 12.3 -5.35 11.0 -8.3 9.25 -9.75 L8.05 -10.65" fill="#ff6600" fill-rule="evenodd" stroke="none"/>
      <path d="M6.55 -11.05 Q4.9 -12.0 3.25 -12.4 4.75 -12.15 6.25 -11.55 L8.05 -10.65 9.25 -9.75 Q11.0 -8.3 12.3 -5.35 13.6 -2.4 12.65 0.75 11.95 3.05 10.65 5.0 12.7 1.65 12.25 -2.9 11.9 -6.4 9.4 -8.9 L8.7 -9.6 6.55 -11.05" fill="#fd7a24" fill-rule="evenodd" stroke="none"/>
      <path d="M1.6 -12.55 Q3.45 -12.4 5.25 -11.65 L6.55 -11.05 8.7 -9.6 9.4 -8.9 Q10.8 -7.35 11.6 -5.25 12.3 -3.2 12.25 -1.15 12.1 1.3 10.8 3.7 8.35 8.2 3.35 10.0 0.05 11.15 -3.1 10.8 L-6.4 9.95 Q-10.1 8.45 -11.85 5.35 L-12.7 3.5 Q-14.0 -0.2 -12.65 -3.8 L-12.15 -4.9 Q-9.55 -9.7 -4.2 -11.65 L-1.05 -12.45 1.6 -12.55 M10.4 -1.35 Q10.45 -3.15 9.8 -4.95 8.95 -7.2 7.25 -8.75 6.0 -9.85 4.25 -10.55 0.1 -12.25 -4.3 -10.65 -8.7 -9.05 -10.85 -5.1 -12.95 -1.2 -11.55 2.75 L-10.8 4.4 Q-9.25 7.1 -6.0 8.4 L-3.1 9.15 Q-0.35 9.5 2.6 8.5 6.95 6.85 9.1 2.95 10.25 0.8 10.4 -1.35" fill="#fd6b0b" fill-rule="evenodd" stroke="none"/>
      <path d="M10.4 -1.35 L10.0 -2.65 9.35 -4.05 Q8.0 -6.45 5.2 -7.55 1.55 -9.05 -2.25 -7.6 -6.1 -6.25 -7.95 -2.8 -9.75 0.55 -8.55 4.0 -7.85 6.0 -6.3 7.35 -5.25 8.3 -3.7 8.95 L-3.1 9.15 -6.0 8.4 Q-9.25 7.1 -10.8 4.4 L-11.55 2.75 Q-12.95 -1.2 -10.85 -5.1 -8.7 -9.05 -4.3 -10.65 0.1 -12.25 4.25 -10.55 6.0 -9.85 7.25 -8.75 8.95 -7.2 9.8 -4.95 10.45 -3.15 10.4 -1.35" fill="#ec6002" fill-rule="evenodd" stroke="none"/>
      <path d="M-3.1 9.15 L-3.7 8.95 Q-5.25 8.3 -6.3 7.35 -7.85 6.0 -8.55 4.0 -9.75 0.55 -7.95 -2.8 -6.1 -6.25 -2.25 -7.6 1.55 -9.05 5.2 -7.55 8.0 -6.45 9.35 -4.05 L10.0 -2.65 10.4 -1.35 Q10.25 0.8 9.1 2.95 6.95 6.85 2.6 8.5 -0.35 9.5 -3.1 9.15" fill="#f46302" fill-rule="evenodd" stroke="none"/>
    </g>
    <g id="shape4" transform="matrix(1.0, 0.0, 0.0, 1.0, -18.95, -23.05)">
      <path d="M47.2 25.45 L47.2 25.55 Q47.95 29.55 47.95 35.0 47.95 39.9 47.2 44.3 L47.15 44.45 46.45 43.9 Q47.15 39.7 47.15 35.0 47.15 29.8 46.45 25.95 L47.2 25.45 M20.2 44.4 L20.15 44.3 Q19.45 40.2 19.45 35.0 19.45 29.3 20.15 25.55 L20.2 25.45 20.9 26.05 Q20.25 29.65 20.25 35.0 20.25 39.95 20.9 43.9 L20.2 44.4" fill="#5e5e5e" fill-rule="evenodd" stroke="none"/>
      <path d="M47.2 25.45 L46.45 25.95 46.45 25.9 Q40.9 24.25 33.75 24.25 26.25 24.25 20.9 25.9 L20.9 26.05 20.2 25.45 20.25 25.35 20.45 25.25 Q25.95 23.45 33.75 23.45 41.15 23.45 46.95 25.25 L47.1 25.35 47.2 25.45" fill="#3c3c3c" fill-rule="evenodd" stroke="none"/>
      <path d="M46.45 43.9 L47.15 44.45 47.1 44.5 46.95 44.6 Q41.3 46.3 33.75 46.35 25.95 46.35 20.45 44.6 L20.25 44.45 20.2 44.4 20.9 43.9 Q26.25 45.55 33.75 45.55 41.0 45.5 46.45 43.9" fill="#777777" fill-rule="evenodd" stroke="none"/>
      <path d="M46.45 25.95 Q47.15 29.8 47.15 35.0 47.15 39.7 46.45 43.9 41.0 45.5 33.75 45.55 26.25 45.55 20.9 43.9 20.25 39.95 20.25 35.0 20.25 29.65 20.9 26.05 L20.9 25.9 Q26.25 24.25 33.75 24.25 40.9 24.25 46.45 25.9 L46.45 25.95 Z" fill="none" stroke="#222222" stroke-linecap="round" stroke-linejoin="round" stroke-width="0.2"/>
      <path d="M33.75 23.3 Q25.65 23.3 19.95 25.15 19.2 29.1 19.2 35.0 19.2 40.4 19.95 44.6 25.65 46.45 33.75 46.45 41.65 46.45 47.45 44.65 48.25 40.1 48.25 35.0 48.25 29.35 47.45 25.15 41.5 23.3 33.75 23.3 Z" fill="none" stroke="#fd7a24" stroke-linecap="round" stroke-linejoin="round" stroke-width="0.5"/>
    </g>
    <g id="shape5" transform="matrix(1.0, 0.0, 0.0, 1.0, 158.75, -53.55)">
      <path d="M146.45 94.95 Q146.45 112.1 101.8 124.25 90.15 127.4 77.25 129.75 50.25 134.65 17.8 135.95 6.2 136.4 -6.15 136.4 -19.25 136.35 -31.6 135.85 -62.4 134.55 -88.15 130.0 -101.8 127.55 -114.05 124.25 -158.75 112.1 -158.75 94.95 -158.75 77.8 -114.05 65.65 -101.8 62.35 -88.15 59.95 -62.4 55.35 -31.6 54.05 -19.25 53.55 -6.15 53.55 6.2 53.5 17.8 54.0 50.25 55.25 77.25 60.15 90.15 62.5 101.8 65.65 146.45 77.8 146.45 94.95" fill="url(#gradient2)" fill-rule="evenodd" stroke="none"/>
    </g>
    <linearGradient gradientTransform="matrix(0.0, -0.0302, 0.1863, 0.0, -2.9, 102.2)" gradientUnits="userSpaceOnUse" id="gradient2" spreadMethod="pad" x1="-819.2" x2="819.2">
      <stop offset="0.0" stop-color="#330000"/>
      <stop offset="1.0" stop-color="#330000" stop-opacity="0.0"/>
    </linearGradient>
  </defs>
</svg>
