<?xml version="1.0" encoding="UTF-8" standalone="no"?>
<svg xmlns:xlink="http://www.w3.org/1999/xlink" height="47.0px" width="137.7px" xmlns="http://www.w3.org/2000/svg">
  <g transform="matrix(1.0, 0.0, 0.0, 1.0, 13.3, 23.15)">
    <use data-characterId="26" height="26.9" transform="matrix(1.0, 0.0, 0.0, 1.0, -13.3, -22.65)" width="26.85" xlink:href="#shape0"/>
    <use data-characterId="27" height="25.85" transform="matrix(1.0, 0.0, 0.0, 1.0, 14.05, -21.25)" width="27.75" xlink:href="#shape1"/>
    <use data-characterId="28" height="26.2" transform="matrix(1.0, 0.0, 0.0, 1.0, 42.35, -12.75)" width="27.35" xlink:href="#shape2"/>
    <use data-characterId="27" height="25.85" transform="matrix(1.0, 0.0, 0.0, 1.0, 70.0, -5.65)" width="27.75" xlink:href="#shape1"/>
    <use data-characterId="29" height="27.0" transform="matrix(1.0, 0.0, 0.0, 1.0, 98.8, -12.25)" width="25.6" xlink:href="#shape3"/>
  </g>
  <defs>
    <g id="shape0" transform="matrix(1.0, 0.0, 0.0, 1.0, 13.3, 13.15)">
      <path d="M5.85 -9.3 L9.15 -9.3 Q10.0 -9.3 10.35 -8.95 10.7 -8.6 10.7 -7.6 L10.4 -6.4 Q10.0 -5.85 9.15 -5.85 L6.0 -5.85 6.0 -5.4 8.5 -5.4 Q9.3 -5.4 9.65 -5.0 9.95 -4.7 9.95 -3.75 9.95 -3.0 9.65 -2.6 9.3 -2.1 8.5 -2.1 L-1.15 -2.1 Q-1.85 -2.1 -2.2 -2.45 -2.55 -2.85 -2.55 -3.75 -2.55 -4.7 -2.2 -5.0 -1.85 -5.4 -1.15 -5.4 L1.05 -5.4 1.05 -5.85 -1.6 -5.85 Q-2.35 -5.85 -2.75 -6.25 -3.1 -6.6 -3.1 -7.6 -3.1 -8.6 -2.75 -8.95 L-1.6 -9.3 1.2 -9.3 1.6 -10.05 Q2.1 -10.65 3.45 -10.65 4.9 -10.65 5.4 -10.05 L5.85 -9.3 M-3.2 7.75 L-3.2 8.05 -2.85 7.75 Q-1.75 7.15 -1.3 6.3 L-0.85 4.65 -1.3 4.65 -2.8 4.3 Q-3.3 3.9 -3.3 3.15 L-3.3 1.4 Q-3.3 -1.6 -1.05 -1.6 L8.4 -1.6 Q10.7 -1.6 10.7 1.4 L10.7 3.05 Q10.7 3.9 10.15 4.2 L8.7 4.55 7.05 4.25 7.05 7.0 7.3 7.3 7.4 7.3 7.8 7.05 8.05 6.25 Q8.3 5.7 9.35 5.6 10.05 5.65 10.6 6.0 11.0 6.35 11.05 7.0 11.05 8.7 10.4 9.8 9.7 10.95 7.8 11.15 L6.0 11.15 Q4.5 11.15 3.85 10.4 3.25 9.85 3.25 8.45 L3.25 4.0 Q3.25 3.45 3.75 2.95 4.2 2.6 5.15 2.6 5.95 2.6 6.45 2.95 L6.75 3.2 6.75 2.05 Q6.75 1.55 6.15 1.55 L1.1 1.55 Q0.65 1.55 0.65 2.05 L0.65 2.5 0.95 2.5 Q1.9 2.55 2.45 3.0 2.9 3.3 2.9 4.1 L2.75 5.7 Q2.45 7.55 1.75 8.8 1.05 10.05 0.1 10.75 -0.5 11.25 -0.85 11.25 -2.0 11.2 -2.9 10.3 L-3.25 9.8 Q-3.5 11.05 -5.0 11.05 L-9.05 11.05 Q-10.8 11.05 -10.8 9.25 L-10.8 4.85 Q-10.8 3.05 -9.05 3.05 L-8.6 3.05 Q-10.4 4.15 -10.4 7.55 -10.2 10.85 -7.05 10.85 -5.2 10.85 -3.95 9.1 L-3.2 7.75 M-7.45 2.6 L-9.3 2.6 -10.2 2.3 -10.5 1.2 Q-10.5 0.45 -10.2 0.15 L-9.3 -0.1 -4.7 -0.1 -3.75 0.15 Q-3.5 0.45 -3.5 1.2 L-3.7 2.15 Q-4.05 2.6 -4.7 2.6 L-5.35 2.6 -6.45 2.5 -7.45 2.6 M-10.2 -3.0 L-9.3 -3.3 -4.6 -3.3 -3.65 -3.0 Q-3.4 -2.75 -3.4 -2.0 -3.4 -1.35 -3.6 -1.05 -3.95 -0.55 -4.6 -0.55 L-9.3 -0.55 Q-9.9 -0.55 -10.2 -0.9 -10.5 -1.2 -10.5 -2.0 -10.5 -2.75 -10.2 -3.0 M-10.6 -6.55 L-9.6 -6.85 -4.2 -6.85 -3.2 -6.55 Q-2.95 -6.25 -2.95 -5.4 L-3.15 -4.3 Q-3.5 -3.75 -4.2 -3.75 L-9.6 -3.75 Q-10.2 -3.75 -10.6 -4.15 -10.9 -4.5 -10.9 -5.4 -10.9 -6.25 -10.6 -6.55 M-3.65 -9.85 Q-3.3 -9.6 -3.3 -8.75 L-3.5 -7.75 Q-3.8 -7.35 -4.5 -7.35 L-9.2 -7.35 Q-9.75 -7.35 -10.1 -7.65 -10.4 -7.95 -10.4 -8.75 L-10.1 -9.9 -9.2 -10.15 -4.5 -10.15 Q-3.9 -10.15 -3.65 -9.85" fill="#3399ff" fill-rule="evenodd" stroke="none"/>
      <path d="M-8.6 3.05 Q-8.1 2.75 -7.45 2.6 L-6.45 2.5 -5.35 2.6 Q-4.4 2.8 -3.8 3.4 L-3.35 4.0 Q-2.85 4.85 -2.9 6.25 -2.9 7.0 -3.2 7.75 L-3.95 9.1 Q-5.2 10.85 -7.05 10.85 -10.2 10.85 -10.4 7.55 -10.4 4.15 -8.6 3.05" fill="#ffffff" fill-rule="evenodd" stroke="none"/>
      <path d="M5.85 -9.3 L9.15 -9.3 Q10.0 -9.3 10.35 -8.95 10.7 -8.6 10.7 -7.6 L10.4 -6.4 Q10.0 -5.85 9.15 -5.85 L6.0 -5.85 6.0 -5.4 8.5 -5.4 Q9.3 -5.4 9.65 -5.0 9.95 -4.7 9.95 -3.75 9.95 -3.0 9.65 -2.6 9.3 -2.1 8.5 -2.1 L-1.15 -2.1 Q-1.85 -2.1 -2.2 -2.45 -2.55 -2.85 -2.55 -3.75 -2.55 -4.7 -2.2 -5.0 -1.85 -5.4 -1.15 -5.4 L1.05 -5.4 1.05 -5.85 -1.6 -5.85 Q-2.35 -5.85 -2.75 -6.25 -3.1 -6.6 -3.1 -7.6 -3.1 -8.6 -2.75 -8.95 L-1.6 -9.3 1.2 -9.3 1.6 -10.05 Q2.1 -10.65 3.45 -10.65 4.9 -10.65 5.4 -10.05 L5.85 -9.3 M-3.2 7.75 L-3.2 8.05 -2.85 7.75 Q-1.75 7.15 -1.3 6.3 L-0.85 4.65 -1.3 4.65 -2.8 4.3 Q-3.3 3.9 -3.3 3.15 L-3.3 1.4 Q-3.3 -1.6 -1.05 -1.6 L8.4 -1.6 Q10.7 -1.6 10.7 1.4 L10.7 3.05 Q10.7 3.9 10.15 4.2 L8.7 4.55 7.05 4.25 7.05 7.0 7.3 7.3 7.4 7.3 7.8 7.05 8.05 6.25 Q8.3 5.7 9.35 5.6 10.05 5.65 10.6 6.0 11.0 6.35 11.05 7.0 11.05 8.7 10.4 9.8 9.7 10.95 7.8 11.15 L6.0 11.15 Q4.5 11.15 3.85 10.4 3.25 9.85 3.25 8.45 L3.25 4.0 Q3.25 3.45 3.75 2.95 4.2 2.6 5.15 2.6 5.95 2.6 6.45 2.95 L6.75 3.2 6.75 2.05 Q6.75 1.55 6.15 1.55 L1.1 1.55 Q0.65 1.55 0.65 2.05 L0.65 2.5 0.95 2.5 Q1.9 2.55 2.45 3.0 2.9 3.3 2.9 4.1 L2.75 5.7 Q2.45 7.55 1.75 8.8 1.05 10.05 0.1 10.75 -0.5 11.25 -0.85 11.25 -2.0 11.2 -2.9 10.3 L-3.25 9.8 Q-3.5 11.05 -5.0 11.05 L-9.05 11.05 Q-10.8 11.05 -10.8 9.25 L-10.8 4.85 Q-10.8 3.05 -9.05 3.05 L-8.6 3.05 M-3.8 3.4 L-3.35 4.0 M-10.2 -3.0 L-9.3 -3.3 -4.6 -3.3 -3.65 -3.0 Q-3.4 -2.75 -3.4 -2.0 -3.4 -1.35 -3.6 -1.05 -3.95 -0.55 -4.6 -0.55 L-9.3 -0.55 Q-9.9 -0.55 -10.2 -0.9 -10.5 -1.2 -10.5 -2.0 -10.5 -2.75 -10.2 -3.0 M-3.65 -9.85 Q-3.3 -9.6 -3.3 -8.75 L-3.5 -7.75 Q-3.8 -7.35 -4.5 -7.35 L-9.2 -7.35 Q-9.75 -7.35 -10.1 -7.65 -10.4 -7.95 -10.4 -8.75 L-10.1 -9.9 -9.2 -10.15 -4.5 -10.15 Q-3.9 -10.15 -3.65 -9.85 Z" fill="none" stroke="#ffffff" stroke-linecap="round" stroke-linejoin="round" stroke-width="5.0"/>
      <path d="M5.85 -9.3 L9.15 -9.3 Q10.0 -9.3 10.35 -8.95 10.7 -8.6 10.7 -7.6 L10.4 -6.4 Q10.0 -5.85 9.15 -5.85 L6.0 -5.85 6.0 -5.4 8.5 -5.4 Q9.3 -5.4 9.65 -5.0 9.95 -4.7 9.95 -3.75 9.95 -3.0 9.65 -2.6 9.3 -2.1 8.5 -2.1 L-1.15 -2.1 Q-1.85 -2.1 -2.2 -2.45 -2.55 -2.85 -2.55 -3.75 -2.55 -4.7 -2.2 -5.0 -1.85 -5.4 -1.15 -5.4 L1.05 -5.4 1.05 -5.85 -1.6 -5.85 Q-2.35 -5.85 -2.75 -6.25 -3.1 -6.6 -3.1 -7.6 -3.1 -8.6 -2.75 -8.95 L-1.6 -9.3 1.2 -9.3 1.6 -10.05 Q2.1 -10.65 3.45 -10.65 4.9 -10.65 5.4 -10.05 L5.85 -9.3 M10.4 9.8 Q9.7 10.95 7.8 11.15 L6.0 11.15 Q4.5 11.15 3.85 10.4 3.25 9.85 3.25 8.45 L3.25 4.0 Q3.25 3.45 3.75 2.95 4.2 2.6 5.15 2.6 5.95 2.6 6.45 2.95 L6.75 3.2 6.75 2.05 Q6.75 1.55 6.15 1.55 L1.1 1.55 Q0.65 1.55 0.65 2.05 L0.65 2.5 0.95 2.5 Q1.9 2.55 2.45 3.0 2.9 3.3 2.9 4.1 L2.75 5.7 Q2.45 7.55 1.75 8.8 1.05 10.05 0.1 10.75 -0.5 11.25 -0.85 11.25 -2.0 11.2 -2.9 10.3 L-3.25 9.8 Q-3.5 11.05 -5.0 11.05 L-9.05 11.05 Q-10.8 11.05 -10.8 9.25 L-10.8 4.85 Q-10.8 3.05 -9.05 3.05 L-5.0 3.05 Q-3.2 3.05 -3.2 4.85 L-3.2 8.05 -2.85 7.75 Q-1.75 7.15 -1.3 6.3 L-0.85 4.65 -1.3 4.65 -2.8 4.3 Q-3.3 3.9 -3.3 3.15 L-3.3 1.4 Q-3.3 -1.6 -1.05 -1.6 L8.4 -1.6 Q10.7 -1.6 10.7 1.4 L10.7 3.05 Q10.7 3.9 10.15 4.2 L8.7 4.55 7.05 4.25 7.05 7.0 7.3 7.3 7.4 7.3 7.8 7.05 8.05 6.25 Q8.3 5.7 9.35 5.6 10.05 5.65 10.6 6.0 11.0 6.35 11.05 7.0 11.05 8.7 10.4 9.8 M-10.6 -6.55 L-9.6 -6.85 -4.2 -6.85 -3.2 -6.55 Q-2.95 -6.25 -2.95 -5.4 L-3.15 -4.3 Q-3.5 -3.75 -4.2 -3.75 L-9.6 -3.75 Q-10.2 -3.75 -10.6 -4.15 -10.9 -4.5 -10.9 -5.4 -10.9 -6.25 -10.6 -6.55 M-10.2 -3.0 L-9.3 -3.3 -4.6 -3.3 -3.65 -3.0 Q-3.4 -2.75 -3.4 -2.0 -3.4 -1.35 -3.6 -1.05 -3.95 -0.55 -4.6 -0.55 L-9.3 -0.55 Q-9.9 -0.55 -10.2 -0.9 -10.5 -1.2 -10.5 -2.0 -10.5 -2.75 -10.2 -3.0 M-3.65 -9.85 Q-3.3 -9.6 -3.3 -8.75 L-3.5 -7.75 Q-3.8 -7.35 -4.5 -7.35 L-9.2 -7.35 Q-9.75 -7.35 -10.1 -7.65 -10.4 -7.95 -10.4 -8.75 L-10.1 -9.9 -9.2 -10.15 -4.5 -10.15 Q-3.9 -10.15 -3.65 -9.85 M-4.7 -0.1 L-3.75 0.15 Q-3.5 0.45 -3.5 1.2 L-3.7 2.15 Q-4.05 2.6 -4.7 2.6 L-9.3 2.6 -10.2 2.3 -10.5 1.2 Q-10.5 0.45 -10.2 0.15 L-9.3 -0.1 -4.7 -0.1 M-7.05 6.15 Q-7.5 6.15 -7.5 6.6 L-7.5 7.5 Q-7.5 7.95 -7.05 7.95 L-6.95 7.95 Q-6.5 7.95 -6.5 7.5 L-6.5 6.6 Q-6.5 6.15 -6.95 6.15 L-7.05 6.15" fill="#3399ff" fill-rule="evenodd" stroke="none"/>
    </g>
    <g id="shape1" transform="matrix(1.0, 0.0, 0.0, 1.0, 13.95, 12.05)">
      <path d="M2.65 -8.85 Q3.45 -8.05 3.45 -6.8 L3.3 -5.8 1.95 -1.35 4.15 -0.65 4.3 -2.75 Q4.35 -3.55 5.05 -4.0 5.75 -4.5 6.7 -4.5 9.15 -4.5 9.15 -2.05 L8.8 0.95 Q11.3 1.95 11.3 3.5 11.3 4.45 10.7 5.3 10.05 6.25 9.1 6.25 8.5 6.25 7.75 5.8 6.2 9.05 4.2 10.7 3.45 11.3 2.5 11.3 1.35 11.3 0.55 10.55 -0.25 9.8 -0.25 8.8 -0.25 8.15 0.45 7.45 2.5 5.5 3.1 4.15 1.8 3.45 0.4 3.05 -1.25 6.0 -2.4 7.2 -4.35 9.15 -7.05 9.15 -9.1 9.15 -10.3 7.8 -11.45 6.55 -11.45 4.9 -11.55 1.35 -8.55 -0.7 -6.55 -2.1 -2.7 -2.1 L-1.75 -5.1 -6.05 -4.65 Q-7.15 -4.6 -7.8 -5.35 -8.35 -6.0 -8.35 -6.95 -8.35 -7.75 -7.8 -8.4 -7.3 -9.0 -6.4 -9.05 L0.7 -9.55 Q1.85 -9.6 2.65 -8.85 M-4.7 2.15 Q-5.9 2.15 -6.95 3.6 L-7.2 4.4 -7.0 4.95 -6.55 5.2 -6.45 5.15 -5.2 3.85 -4.2 2.25 -4.7 2.15" fill="#ff3300" fill-rule="evenodd" stroke="none"/>
      <path d="M2.65 -8.85 Q3.45 -8.05 3.45 -6.8 L3.3 -5.8 1.95 -1.35 4.15 -0.65 4.3 -2.75 Q4.35 -3.55 5.05 -4.0 5.75 -4.5 6.7 -4.5 9.15 -4.5 9.15 -2.05 L8.8 0.95 Q11.3 1.95 11.3 3.5 11.3 4.45 10.7 5.3 10.05 6.25 9.1 6.25 8.5 6.25 7.75 5.8 6.2 9.05 4.2 10.7 3.45 11.3 2.5 11.3 1.35 11.3 0.55 10.55 -0.25 9.8 -0.25 8.8 -0.25 8.15 0.45 7.45 2.5 5.5 3.1 4.15 1.8 3.45 0.4 3.05 -1.25 6.0 -2.4 7.2 -4.35 9.15 -7.05 9.15 -9.1 9.15 -10.3 7.8 -11.45 6.55 -11.45 4.9 -11.55 1.35 -8.55 -0.7 -6.55 -2.1 -2.7 -2.1 L-1.75 -5.1 -6.05 -4.65 Q-7.15 -4.6 -7.8 -5.35 -8.35 -6.0 -8.35 -6.95 -8.35 -7.75 -7.8 -8.4 -7.3 -9.0 -6.4 -9.05 L0.7 -9.55 Q1.85 -9.6 2.65 -8.85 M-4.7 2.15 Q-5.9 2.15 -6.95 3.6 L-7.2 4.4 -7.0 4.95 -6.55 5.2 -6.45 5.15 -5.2 3.85 -4.2 2.25 -4.7 2.15 Z" fill="none" stroke="#ffffff" stroke-linecap="round" stroke-linejoin="round" stroke-width="5.0"/>
      <path d="M3.45 -6.8 L3.3 -5.8 1.95 -1.35 4.15 -0.65 4.3 -2.75 Q4.35 -3.55 5.05 -4.0 5.75 -4.5 6.7 -4.5 9.15 -4.5 9.15 -2.05 L8.8 0.95 Q11.3 1.95 11.3 3.5 11.3 4.45 10.7 5.3 10.05 6.25 9.1 6.25 8.5 6.25 7.75 5.8 6.2 9.05 4.2 10.7 3.45 11.3 2.5 11.3 1.35 11.3 0.55 10.55 -0.25 9.8 -0.25 8.8 -0.25 8.15 0.45 7.45 2.5 5.5 3.1 4.15 1.8 3.45 0.4 3.05 -1.25 6.0 -2.4 7.2 -4.35 9.15 -7.05 9.15 -9.1 9.15 -10.3 7.8 -11.45 6.55 -11.45 4.9 -11.55 1.35 -8.55 -0.7 -6.55 -2.1 -2.7 -2.1 L-1.75 -5.1 -6.05 -4.65 Q-7.15 -4.6 -7.8 -5.35 -8.35 -6.0 -8.35 -6.95 -8.35 -7.75 -7.8 -8.4 -7.3 -9.0 -6.4 -9.05 L0.7 -9.55 Q1.85 -9.6 2.65 -8.85 3.45 -8.05 3.45 -6.8 M-4.7 2.15 Q-5.9 2.15 -6.95 3.6 L-7.2 4.4 -7.0 4.95 -6.55 5.2 -6.45 5.15 -5.2 3.85 -4.2 2.25 -4.7 2.15" fill="#ff3300" fill-rule="evenodd" stroke="none"/>
    </g>
    <g id="shape2" transform="matrix(1.0, 0.0, 0.0, 1.0, 13.6, 12.55)">
      <path d="M8.3 -2.35 Q9.05 -0.4 10.6 1.4 11.25 2.0 11.25 2.7 11.2 3.8 10.45 4.6 9.5 5.55 8.35 5.6 7.8 5.55 7.1 4.85 5.75 3.35 4.45 0.5 L3.7 -1.75 3.1 0.35 Q2.15 3.05 1.2 4.65 0.35 5.5 -0.65 5.6 -1.6 5.6 -2.65 4.7 -3.4 4.1 -3.4 3.05 L-3.05 2.05 Q-1.4 -0.55 -0.8 -2.05 L0.3 -5.55 -1.05 -5.55 Q-2.0 -5.55 -2.45 -6.2 -2.9 -6.7 -2.95 -7.7 -2.9 -8.8 -2.35 -9.35 -2.0 -9.85 -1.05 -9.85 L4.05 -9.85 Q6.85 -9.85 7.2 -7.45 7.6 -4.15 8.3 -2.35 M10.65 10.05 Q10.0 10.85 8.4 10.85 L1.3 10.85 Q-3.25 10.85 -5.2 9.5 -5.4 9.15 -5.65 9.15 -5.8 9.15 -6.05 9.5 -7.4 11.15 -8.25 11.15 -9.4 11.15 -10.4 10.0 -11.1 9.2 -11.1 8.15 -11.1 7.5 -10.5 6.85 L-8.6 5.05 -8.25 4.4 -8.25 2.25 Q-8.25 1.75 -8.65 1.75 L-9.2 1.75 Q-10.2 1.75 -10.6 1.15 -11.0 0.75 -11.0 -0.4 -11.0 -1.5 -10.55 -2.05 -10.15 -2.55 -9.2 -2.55 L-6.65 -2.55 Q-3.75 -2.55 -3.75 0.25 L-3.75 4.55 Q-3.75 5.4 -3.05 5.75 -1.85 6.35 0.2 6.35 L5.8 6.2 9.65 6.05 Q10.3 6.05 10.7 6.55 11.25 7.1 11.25 7.85 11.25 9.3 10.65 10.05 M-5.55 -9.0 Q-4.3 -7.1 -4.3 -5.85 -4.3 -4.85 -5.3 -4.35 -6.4 -3.65 -7.5 -3.65 -8.45 -3.8 -8.8 -4.8 L-10.05 -7.3 -10.4 -8.2 Q-10.4 -9.0 -9.4 -9.55 L-7.4 -10.05 Q-6.3 -10.05 -5.55 -9.0" fill="#3399ff" fill-rule="evenodd" stroke="none"/>
      <path d="M8.3 -2.35 Q9.05 -0.4 10.6 1.4 11.25 2.0 11.25 2.7 11.2 3.8 10.45 4.6 9.5 5.55 8.35 5.6 7.8 5.55 7.1 4.85 5.75 3.35 4.45 0.5 L3.7 -1.75 3.1 0.35 Q2.15 3.05 1.2 4.65 0.35 5.5 -0.65 5.6 -1.6 5.6 -2.65 4.7 -3.4 4.1 -3.4 3.05 L-3.05 2.05 Q-1.4 -0.55 -0.8 -2.05 L0.3 -5.55 -1.05 -5.55 Q-2.0 -5.55 -2.45 -6.2 -2.9 -6.7 -2.95 -7.7 -2.9 -8.8 -2.35 -9.35 -2.0 -9.85 -1.05 -9.85 L4.05 -9.85 Q6.85 -9.85 7.2 -7.45 7.6 -4.15 8.3 -2.35 M10.65 10.05 Q10.0 10.85 8.4 10.85 L1.3 10.85 Q-3.25 10.85 -5.2 9.5 -5.4 9.15 -5.65 9.15 -5.8 9.15 -6.05 9.5 -7.4 11.15 -8.25 11.15 -9.4 11.15 -10.4 10.0 -11.1 9.2 -11.1 8.15 -11.1 7.5 -10.5 6.85 L-8.6 5.05 -8.25 4.4 -8.25 2.25 Q-8.25 1.75 -8.65 1.75 L-9.2 1.75 Q-10.2 1.75 -10.6 1.15 -11.0 0.75 -11.0 -0.4 -11.0 -1.5 -10.55 -2.05 -10.15 -2.55 -9.2 -2.55 L-6.65 -2.55 Q-3.75 -2.55 -3.75 0.25 L-3.75 4.55 Q-3.75 5.4 -3.05 5.75 -1.85 6.35 0.2 6.35 L5.8 6.2 9.65 6.05 Q10.3 6.05 10.7 6.55 11.25 7.1 11.25 7.85 11.25 9.3 10.65 10.05 M-5.55 -9.0 Q-4.3 -7.1 -4.3 -5.85 -4.3 -4.85 -5.3 -4.35 -6.4 -3.65 -7.5 -3.65 -8.45 -3.8 -8.8 -4.8 L-10.05 -7.3 -10.4 -8.2 Q-10.4 -9.0 -9.4 -9.55 L-7.4 -10.05 Q-6.3 -10.05 -5.55 -9.0 Z" fill="none" stroke="#ffffff" stroke-linecap="round" stroke-linejoin="round" stroke-width="5.0"/>
      <path d="M8.3 -2.35 Q9.05 -0.4 10.6 1.4 11.25 2.0 11.25 2.7 11.2 3.8 10.45 4.6 9.5 5.55 8.35 5.6 7.8 5.55 7.1 4.85 5.75 3.35 4.45 0.5 L3.7 -1.75 3.1 0.35 Q2.15 3.05 1.2 4.65 0.35 5.5 -0.65 5.6 -1.6 5.6 -2.65 4.7 -3.4 4.1 -3.4 3.05 L-3.05 2.05 Q-1.4 -0.55 -0.8 -2.05 L0.3 -5.55 -1.05 -5.55 Q-2.0 -5.55 -2.45 -6.2 -2.9 -6.7 -2.95 -7.7 -2.9 -8.8 -2.35 -9.35 -2.0 -9.85 -1.05 -9.85 L4.05 -9.85 Q6.85 -9.85 7.2 -7.45 7.6 -4.15 8.3 -2.35 M10.65 10.05 Q10.0 10.85 8.4 10.85 L1.3 10.85 Q-3.25 10.85 -5.2 9.5 -5.4 9.15 -5.65 9.15 -5.8 9.15 -6.05 9.5 -7.4 11.15 -8.25 11.15 -9.4 11.15 -10.4 10.0 -11.1 9.2 -11.1 8.15 -11.1 7.5 -10.5 6.85 L-8.6 5.05 -8.25 4.4 -8.25 2.25 Q-8.25 1.75 -8.65 1.75 L-9.2 1.75 Q-10.2 1.75 -10.6 1.15 -11.0 0.75 -11.0 -0.4 -11.0 -1.5 -10.55 -2.05 -10.15 -2.55 -9.2 -2.55 L-6.65 -2.55 Q-3.75 -2.55 -3.75 0.25 L-3.75 4.55 Q-3.75 5.4 -3.05 5.75 -1.85 6.35 0.2 6.35 L5.8 6.2 9.65 6.05 Q10.3 6.05 10.7 6.55 11.25 7.1 11.25 7.85 11.25 9.3 10.65 10.05 M-5.55 -9.0 Q-4.3 -7.1 -4.3 -5.85 -4.3 -4.85 -5.3 -4.35 -6.4 -3.65 -7.5 -3.65 -8.45 -3.8 -8.8 -4.8 L-10.05 -7.3 -10.4 -8.2 Q-10.4 -9.0 -9.4 -9.55 L-7.4 -10.05 Q-6.3 -10.05 -5.55 -9.0" fill="#3399ff" fill-rule="evenodd" stroke="none"/>
    </g>
    <g id="shape3" transform="matrix(1.0, 0.0, 0.0, 1.0, 12.9, 13.15)">
      <path d="M2.5 -3.0 L2.5 1.65 4.95 1.65 Q5.5 1.65 5.5 1.1 L5.5 -2.45 Q5.5 -3.0 4.95 -3.0 L2.5 -3.0 M10.2 -3.95 L10.2 2.6 Q10.2 6.0 6.85 6.0 L2.5 6.0 2.5 9.15 Q2.5 10.0 2.0 10.6 1.35 11.35 -0.1 11.35 -1.45 11.35 -2.15 10.6 -2.75 10.05 -2.75 9.15 L-2.75 6.0 -7.05 6.0 Q-10.4 6.0 -10.4 2.6 L-10.4 -3.95 Q-10.4 -7.35 -7.05 -7.35 L-2.75 -7.35 -2.75 -8.45 Q-2.75 -9.5 -1.95 -10.05 -1.35 -10.65 -0.1 -10.65 1.05 -10.65 1.8 -10.05 2.5 -9.5 2.5 -8.45 L2.5 -7.35 6.85 -7.35 Q10.2 -7.35 10.2 -3.95 M-5.55 -2.45 L-5.55 1.1 Q-5.55 1.65 -5.0 1.65 L-2.75 1.65 -2.75 -3.0 -5.0 -3.0 Q-5.55 -3.0 -5.55 -2.45" fill="#66ccff" fill-rule="evenodd" stroke="none"/>
      <path d="M2.5 -3.0 L2.5 1.65 4.95 1.65 Q5.5 1.65 5.5 1.1 L5.5 -2.45 Q5.5 -3.0 4.95 -3.0 L2.5 -3.0 M10.2 -3.95 L10.2 2.6 Q10.2 6.0 6.85 6.0 L2.5 6.0 2.5 9.15 Q2.5 10.0 2.0 10.6 1.35 11.35 -0.1 11.35 -1.45 11.35 -2.15 10.6 -2.75 10.05 -2.75 9.15 L-2.75 6.0 -7.05 6.0 Q-10.4 6.0 -10.4 2.6 L-10.4 -3.95 Q-10.4 -7.35 -7.05 -7.35 L-2.75 -7.35 -2.75 -8.45 Q-2.75 -9.5 -1.95 -10.05 -1.35 -10.65 -0.1 -10.65 1.05 -10.65 1.8 -10.05 2.5 -9.5 2.5 -8.45 L2.5 -7.35 6.85 -7.35 Q10.2 -7.35 10.2 -3.95 M-5.55 -2.45 L-5.55 1.1 Q-5.55 1.65 -5.0 1.65 L-2.75 1.65 -2.75 -3.0 -5.0 -3.0 Q-5.55 -3.0 -5.55 -2.45 Z" fill="none" stroke="#ffffff" stroke-linecap="round" stroke-linejoin="round" stroke-width="5.0"/>
      <path d="M10.2 -3.95 L10.2 2.6 Q10.2 6.0 6.85 6.0 L2.5 6.0 2.5 9.15 Q2.5 10.0 2.0 10.6 1.35 11.35 -0.1 11.35 -1.45 11.35 -2.15 10.6 -2.75 10.05 -2.75 9.15 L-2.75 6.0 -7.05 6.0 Q-10.4 6.0 -10.4 2.6 L-10.4 -3.95 Q-10.4 -7.35 -7.05 -7.35 L-2.75 -7.35 -2.75 -8.45 Q-2.75 -9.5 -1.95 -10.05 -1.35 -10.65 -0.1 -10.65 1.05 -10.65 1.8 -10.05 2.5 -9.5 2.5 -8.45 L2.5 -7.35 6.85 -7.35 Q10.2 -7.35 10.2 -3.95 M2.5 -3.0 L2.5 1.65 4.95 1.65 Q5.5 1.65 5.5 1.1 L5.5 -2.45 Q5.5 -3.0 4.95 -3.0 L2.5 -3.0 M-5.55 -2.45 L-5.55 1.1 Q-5.55 1.65 -5.0 1.65 L-2.75 1.65 -2.75 -3.0 -5.0 -3.0 Q-5.55 -3.0 -5.55 -2.45" fill="#3399ff" fill-rule="evenodd" stroke="none"/>
    </g>
  </defs>
</svg>
